<?xml version="1.0" encoding="utf-8" standalone="no"?>
<!DOCTYPE svg PUBLIC "-//W3C//DTD SVG 1.1//EN"
  "http://www.w3.org/Graphics/SVG/1.1/DTD/svg11.dtd">
<!-- Created with matplotlib (https://matplotlib.org/) -->
<svg height="345.6pt" version="1.1" viewBox="0 0 460.8 345.6" width="460.8pt" xmlns="http://www.w3.org/2000/svg" xmlns:xlink="http://www.w3.org/1999/xlink">
 <metadata>
  <rdf:RDF xmlns:cc="http://creativecommons.org/ns#" xmlns:dc="http://purl.org/dc/elements/1.1/" xmlns:rdf="http://www.w3.org/1999/02/22-rdf-syntax-ns#">
   <cc:Work>
    <dc:type rdf:resource="http://purl.org/dc/dcmitype/StillImage"/>
    <dc:date>2021-11-15T03:37:32.654249</dc:date>
    <dc:format>image/svg+xml</dc:format>
    <dc:creator>
     <cc:Agent>
      <dc:title>Matplotlib v3.3.2, https://matplotlib.org/</dc:title>
     </cc:Agent>
    </dc:creator>
   </cc:Work>
  </rdf:RDF>
 </metadata>
 <defs>
  <style type="text/css">*{stroke-linecap:butt;stroke-linejoin:round;}</style>
 </defs>
 <g id="figure_1">
  <g id="patch_1">
   <path d="M 0 345.6 
L 460.8 345.6 
L 460.8 0 
L 0 0 
z
" style="fill:#ffffff;"/>
  </g>
  <g id="axes_1">
   <g id="patch_2">
    <path d="M 57.6 307.584 
L 414.72 307.584 
L 414.72 41.472 
L 57.6 41.472 
z
" style="fill:#ffffff;"/>
   </g>
   <g id="matplotlib.axis_1">
    <g id="xtick_1">
     <g id="line2d_1">
      <defs>
       <path d="M 0 0 
L 0 3.5 
" id="md33e8da569" style="stroke:#000000;stroke-width:0.8;"/>
      </defs>
      <g>
       <use style="stroke:#000000;stroke-width:0.8;" x="73.832727" xlink:href="#md33e8da569" y="307.584"/>
      </g>
     </g>
     <g id="text_1">
      <!-- 0 -->
      <g transform="translate(70.651477 322.182437)scale(0.1 -0.1)">
       <defs>
        <path d="M 31.78125 66.40625 
Q 24.171875 66.40625 20.328125 58.90625 
Q 16.5 51.421875 16.5 36.375 
Q 16.5 21.390625 20.328125 13.890625 
Q 24.171875 6.390625 31.78125 6.390625 
Q 39.453125 6.390625 43.28125 13.890625 
Q 47.125 21.390625 47.125 36.375 
Q 47.125 51.421875 43.28125 58.90625 
Q 39.453125 66.40625 31.78125 66.40625 
z
M 31.78125 74.21875 
Q 44.046875 74.21875 50.515625 64.515625 
Q 56.984375 54.828125 56.984375 36.375 
Q 56.984375 17.96875 50.515625 8.265625 
Q 44.046875 -1.421875 31.78125 -1.421875 
Q 19.53125 -1.421875 13.0625 8.265625 
Q 6.59375 17.96875 6.59375 36.375 
Q 6.59375 54.828125 13.0625 64.515625 
Q 19.53125 74.21875 31.78125 74.21875 
z
" id="DejaVuSans-48"/>
       </defs>
       <use xlink:href="#DejaVuSans-48"/>
      </g>
     </g>
    </g>
    <g id="xtick_2">
     <g id="line2d_2">
      <g>
       <use style="stroke:#000000;stroke-width:0.8;" x="138.776625" xlink:href="#md33e8da569" y="307.584"/>
      </g>
     </g>
     <g id="text_2">
      <!-- 1000 -->
      <g transform="translate(126.051625 322.182437)scale(0.1 -0.1)">
       <defs>
        <path d="M 12.40625 8.296875 
L 28.515625 8.296875 
L 28.515625 63.921875 
L 10.984375 60.40625 
L 10.984375 69.390625 
L 28.421875 72.90625 
L 38.28125 72.90625 
L 38.28125 8.296875 
L 54.390625 8.296875 
L 54.390625 0 
L 12.40625 0 
z
" id="DejaVuSans-49"/>
       </defs>
       <use xlink:href="#DejaVuSans-49"/>
       <use x="63.623047" xlink:href="#DejaVuSans-48"/>
       <use x="127.246094" xlink:href="#DejaVuSans-48"/>
       <use x="190.869141" xlink:href="#DejaVuSans-48"/>
      </g>
     </g>
    </g>
    <g id="xtick_3">
     <g id="line2d_3">
      <g>
       <use style="stroke:#000000;stroke-width:0.8;" x="203.720523" xlink:href="#md33e8da569" y="307.584"/>
      </g>
     </g>
     <g id="text_3">
      <!-- 2000 -->
      <g transform="translate(190.995523 322.182437)scale(0.1 -0.1)">
       <defs>
        <path d="M 19.1875 8.296875 
L 53.609375 8.296875 
L 53.609375 0 
L 7.328125 0 
L 7.328125 8.296875 
Q 12.9375 14.109375 22.625 23.890625 
Q 32.328125 33.6875 34.8125 36.53125 
Q 39.546875 41.84375 41.421875 45.53125 
Q 43.3125 49.21875 43.3125 52.78125 
Q 43.3125 58.59375 39.234375 62.25 
Q 35.15625 65.921875 28.609375 65.921875 
Q 23.96875 65.921875 18.8125 64.3125 
Q 13.671875 62.703125 7.8125 59.421875 
L 7.8125 69.390625 
Q 13.765625 71.78125 18.9375 73 
Q 24.125 74.21875 28.421875 74.21875 
Q 39.75 74.21875 46.484375 68.546875 
Q 53.21875 62.890625 53.21875 53.421875 
Q 53.21875 48.921875 51.53125 44.890625 
Q 49.859375 40.875 45.40625 35.40625 
Q 44.1875 33.984375 37.640625 27.21875 
Q 31.109375 20.453125 19.1875 8.296875 
z
" id="DejaVuSans-50"/>
       </defs>
       <use xlink:href="#DejaVuSans-50"/>
       <use x="63.623047" xlink:href="#DejaVuSans-48"/>
       <use x="127.246094" xlink:href="#DejaVuSans-48"/>
       <use x="190.869141" xlink:href="#DejaVuSans-48"/>
      </g>
     </g>
    </g>
    <g id="xtick_4">
     <g id="line2d_4">
      <g>
       <use style="stroke:#000000;stroke-width:0.8;" x="268.664421" xlink:href="#md33e8da569" y="307.584"/>
      </g>
     </g>
     <g id="text_4">
      <!-- 3000 -->
      <g transform="translate(255.939421 322.182437)scale(0.1 -0.1)">
       <defs>
        <path d="M 40.578125 39.3125 
Q 47.65625 37.796875 51.625 33 
Q 55.609375 28.21875 55.609375 21.1875 
Q 55.609375 10.40625 48.1875 4.484375 
Q 40.765625 -1.421875 27.09375 -1.421875 
Q 22.515625 -1.421875 17.65625 -0.515625 
Q 12.796875 0.390625 7.625 2.203125 
L 7.625 11.71875 
Q 11.71875 9.328125 16.59375 8.109375 
Q 21.484375 6.890625 26.8125 6.890625 
Q 36.078125 6.890625 40.9375 10.546875 
Q 45.796875 14.203125 45.796875 21.1875 
Q 45.796875 27.640625 41.28125 31.265625 
Q 36.765625 34.90625 28.71875 34.90625 
L 20.21875 34.90625 
L 20.21875 43.015625 
L 29.109375 43.015625 
Q 36.375 43.015625 40.234375 45.921875 
Q 44.09375 48.828125 44.09375 54.296875 
Q 44.09375 59.90625 40.109375 62.90625 
Q 36.140625 65.921875 28.71875 65.921875 
Q 24.65625 65.921875 20.015625 65.03125 
Q 15.375 64.15625 9.8125 62.3125 
L 9.8125 71.09375 
Q 15.4375 72.65625 20.34375 73.4375 
Q 25.25 74.21875 29.59375 74.21875 
Q 40.828125 74.21875 47.359375 69.109375 
Q 53.90625 64.015625 53.90625 55.328125 
Q 53.90625 49.265625 50.4375 45.09375 
Q 46.96875 40.921875 40.578125 39.3125 
z
" id="DejaVuSans-51"/>
       </defs>
       <use xlink:href="#DejaVuSans-51"/>
       <use x="63.623047" xlink:href="#DejaVuSans-48"/>
       <use x="127.246094" xlink:href="#DejaVuSans-48"/>
       <use x="190.869141" xlink:href="#DejaVuSans-48"/>
      </g>
     </g>
    </g>
    <g id="xtick_5">
     <g id="line2d_5">
      <g>
       <use style="stroke:#000000;stroke-width:0.8;" x="333.608319" xlink:href="#md33e8da569" y="307.584"/>
      </g>
     </g>
     <g id="text_5">
      <!-- 4000 -->
      <g transform="translate(320.883319 322.182437)scale(0.1 -0.1)">
       <defs>
        <path d="M 37.796875 64.3125 
L 12.890625 25.390625 
L 37.796875 25.390625 
z
M 35.203125 72.90625 
L 47.609375 72.90625 
L 47.609375 25.390625 
L 58.015625 25.390625 
L 58.015625 17.1875 
L 47.609375 17.1875 
L 47.609375 0 
L 37.796875 0 
L 37.796875 17.1875 
L 4.890625 17.1875 
L 4.890625 26.703125 
z
" id="DejaVuSans-52"/>
       </defs>
       <use xlink:href="#DejaVuSans-52"/>
       <use x="63.623047" xlink:href="#DejaVuSans-48"/>
       <use x="127.246094" xlink:href="#DejaVuSans-48"/>
       <use x="190.869141" xlink:href="#DejaVuSans-48"/>
      </g>
     </g>
    </g>
    <g id="xtick_6">
     <g id="line2d_6">
      <g>
       <use style="stroke:#000000;stroke-width:0.8;" x="398.552217" xlink:href="#md33e8da569" y="307.584"/>
      </g>
     </g>
     <g id="text_6">
      <!-- 5000 -->
      <g transform="translate(385.827217 322.182437)scale(0.1 -0.1)">
       <defs>
        <path d="M 10.796875 72.90625 
L 49.515625 72.90625 
L 49.515625 64.59375 
L 19.828125 64.59375 
L 19.828125 46.734375 
Q 21.96875 47.46875 24.109375 47.828125 
Q 26.265625 48.1875 28.421875 48.1875 
Q 40.625 48.1875 47.75 41.5 
Q 54.890625 34.8125 54.890625 23.390625 
Q 54.890625 11.625 47.5625 5.09375 
Q 40.234375 -1.421875 26.90625 -1.421875 
Q 22.3125 -1.421875 17.546875 -0.640625 
Q 12.796875 0.140625 7.71875 1.703125 
L 7.71875 11.625 
Q 12.109375 9.234375 16.796875 8.0625 
Q 21.484375 6.890625 26.703125 6.890625 
Q 35.15625 6.890625 40.078125 11.328125 
Q 45.015625 15.765625 45.015625 23.390625 
Q 45.015625 31 40.078125 35.4375 
Q 35.15625 39.890625 26.703125 39.890625 
Q 22.75 39.890625 18.8125 39.015625 
Q 14.890625 38.140625 10.796875 36.28125 
z
" id="DejaVuSans-53"/>
       </defs>
       <use xlink:href="#DejaVuSans-53"/>
       <use x="63.623047" xlink:href="#DejaVuSans-48"/>
       <use x="127.246094" xlink:href="#DejaVuSans-48"/>
       <use x="190.869141" xlink:href="#DejaVuSans-48"/>
      </g>
     </g>
    </g>
   </g>
   <g id="matplotlib.axis_2">
    <g id="ytick_1">
     <g id="line2d_7">
      <defs>
       <path d="M 0 0 
L -3.5 0 
" id="md89543db7a" style="stroke:#000000;stroke-width:0.8;"/>
      </defs>
      <g>
       <use style="stroke:#000000;stroke-width:0.8;" x="57.6" xlink:href="#md89543db7a" y="299.852488"/>
      </g>
     </g>
     <g id="text_7">
      <!-- −0.003 -->
      <g transform="translate(13.592188 303.651707)scale(0.1 -0.1)">
       <defs>
        <path d="M 10.59375 35.5 
L 73.1875 35.5 
L 73.1875 27.203125 
L 10.59375 27.203125 
z
" id="DejaVuSans-8722"/>
        <path d="M 10.6875 12.40625 
L 21 12.40625 
L 21 0 
L 10.6875 0 
z
" id="DejaVuSans-46"/>
       </defs>
       <use xlink:href="#DejaVuSans-8722"/>
       <use x="83.789062" xlink:href="#DejaVuSans-48"/>
       <use x="147.412109" xlink:href="#DejaVuSans-46"/>
       <use x="179.199219" xlink:href="#DejaVuSans-48"/>
       <use x="242.822266" xlink:href="#DejaVuSans-48"/>
       <use x="306.445312" xlink:href="#DejaVuSans-51"/>
      </g>
     </g>
    </g>
    <g id="ytick_2">
     <g id="line2d_8">
      <g>
       <use style="stroke:#000000;stroke-width:0.8;" x="57.6" xlink:href="#md89543db7a" y="260.769193"/>
      </g>
     </g>
     <g id="text_8">
      <!-- −0.002 -->
      <g transform="translate(13.592188 264.568412)scale(0.1 -0.1)">
       <use xlink:href="#DejaVuSans-8722"/>
       <use x="83.789062" xlink:href="#DejaVuSans-48"/>
       <use x="147.412109" xlink:href="#DejaVuSans-46"/>
       <use x="179.199219" xlink:href="#DejaVuSans-48"/>
       <use x="242.822266" xlink:href="#DejaVuSans-48"/>
       <use x="306.445312" xlink:href="#DejaVuSans-50"/>
      </g>
     </g>
    </g>
    <g id="ytick_3">
     <g id="line2d_9">
      <g>
       <use style="stroke:#000000;stroke-width:0.8;" x="57.6" xlink:href="#md89543db7a" y="221.685897"/>
      </g>
     </g>
     <g id="text_9">
      <!-- −0.001 -->
      <g transform="translate(13.592188 225.485116)scale(0.1 -0.1)">
       <use xlink:href="#DejaVuSans-8722"/>
       <use x="83.789062" xlink:href="#DejaVuSans-48"/>
       <use x="147.412109" xlink:href="#DejaVuSans-46"/>
       <use x="179.199219" xlink:href="#DejaVuSans-48"/>
       <use x="242.822266" xlink:href="#DejaVuSans-48"/>
       <use x="306.445312" xlink:href="#DejaVuSans-49"/>
      </g>
     </g>
    </g>
    <g id="ytick_4">
     <g id="line2d_10">
      <g>
       <use style="stroke:#000000;stroke-width:0.8;" x="57.6" xlink:href="#md89543db7a" y="182.602602"/>
      </g>
     </g>
     <g id="text_10">
      <!-- 0.000 -->
      <g transform="translate(21.971875 186.40182)scale(0.1 -0.1)">
       <use xlink:href="#DejaVuSans-48"/>
       <use x="63.623047" xlink:href="#DejaVuSans-46"/>
       <use x="95.410156" xlink:href="#DejaVuSans-48"/>
       <use x="159.033203" xlink:href="#DejaVuSans-48"/>
       <use x="222.65625" xlink:href="#DejaVuSans-48"/>
      </g>
     </g>
    </g>
    <g id="ytick_5">
     <g id="line2d_11">
      <g>
       <use style="stroke:#000000;stroke-width:0.8;" x="57.6" xlink:href="#md89543db7a" y="143.519306"/>
      </g>
     </g>
     <g id="text_11">
      <!-- 0.001 -->
      <g transform="translate(21.971875 147.318525)scale(0.1 -0.1)">
       <use xlink:href="#DejaVuSans-48"/>
       <use x="63.623047" xlink:href="#DejaVuSans-46"/>
       <use x="95.410156" xlink:href="#DejaVuSans-48"/>
       <use x="159.033203" xlink:href="#DejaVuSans-48"/>
       <use x="222.65625" xlink:href="#DejaVuSans-49"/>
      </g>
     </g>
    </g>
    <g id="ytick_6">
     <g id="line2d_12">
      <g>
       <use style="stroke:#000000;stroke-width:0.8;" x="57.6" xlink:href="#md89543db7a" y="104.436011"/>
      </g>
     </g>
     <g id="text_12">
      <!-- 0.002 -->
      <g transform="translate(21.971875 108.235229)scale(0.1 -0.1)">
       <use xlink:href="#DejaVuSans-48"/>
       <use x="63.623047" xlink:href="#DejaVuSans-46"/>
       <use x="95.410156" xlink:href="#DejaVuSans-48"/>
       <use x="159.033203" xlink:href="#DejaVuSans-48"/>
       <use x="222.65625" xlink:href="#DejaVuSans-50"/>
      </g>
     </g>
    </g>
    <g id="ytick_7">
     <g id="line2d_13">
      <g>
       <use style="stroke:#000000;stroke-width:0.8;" x="57.6" xlink:href="#md89543db7a" y="65.352715"/>
      </g>
     </g>
     <g id="text_13">
      <!-- 0.003 -->
      <g transform="translate(21.971875 69.151934)scale(0.1 -0.1)">
       <use xlink:href="#DejaVuSans-48"/>
       <use x="63.623047" xlink:href="#DejaVuSans-46"/>
       <use x="95.410156" xlink:href="#DejaVuSans-48"/>
       <use x="159.033203" xlink:href="#DejaVuSans-48"/>
       <use x="222.65625" xlink:href="#DejaVuSans-51"/>
      </g>
     </g>
    </g>
   </g>
   <g id="line2d_14">
    <path clip-path="url(#p0e51b9de67)" d="M 73.832727 182.602602 
L 75.001717 182.67788 
L 75.391381 182.994777 
L 76.04082 183.541169 
L 76.235651 183.427411 
L 76.495427 182.913805 
L 76.88509 181.420249 
L 77.404642 179.542153 
L 77.534529 179.459044 
L 77.664417 179.625665 
L 77.859249 180.447172 
L 78.183968 183.210978 
L 78.898351 190.172351 
L 79.028239 190.314438 
L 79.093183 190.198048 
L 79.288015 188.665104 
L 79.54779 184.134938 
L 80.521949 163.386364 
L 80.651837 164.913736 
L 80.846668 171.095454 
L 81.106444 188.127105 
L 81.496107 232.985928 
L 81.885771 295.488 
L 81.950715 132.783293 
L 82.015658 178.823184 
L 82.145546 53.568 
L 82.470266 133.983929 
L 82.924873 184.912935 
L 83.249592 201.623611 
L 83.444424 204.676214 
L 83.574312 203.526917 
L 83.769144 199.653503 
L 84.54847 177.924159 
L 84.87319 174.612167 
L 84.938134 174.3443 
L 85.197909 176.016242 
L 85.522629 178.420732 
L 85.717461 177.54951 
L 85.782404 177.11699 
L 86.04218 180.140621 
L 86.301956 184.848654 
L 86.3669 184.940159 
L 86.561731 183.895939 
L 86.626675 184.512432 
L 86.691619 184.072414 
L 86.756563 184.112752 
L 87.600834 193.085091 
L 87.795665 198.724315 
L 87.990497 205.270934 
L 88.055441 203.766866 
L 88.185329 184.029497 
L 88.510048 113.773635 
L 88.899712 197.765021 
L 89.094543 199.29607 
L 89.419263 196.16017 
L 90.263533 179.634201 
L 90.718141 176.165547 
L 91.952075 185.952719 
L 92.017019 185.585827 
L 92.081963 186.063914 
L 92.146906 186.040645 
L 92.21185 185.870199 
L 92.276794 186.019215 
L 92.341738 185.979895 
L 92.406682 185.503713 
L 92.471626 185.861846 
L 92.666458 184.538444 
L 92.796345 184.295351 
L 93.056121 181.490035 
L 93.186009 180.643852 
L 93.445784 178.687306 
L 93.575672 178.30126 
L 93.770504 179.29947 
L 94.290055 185.060655 
L 94.354999 185.032656 
L 94.419943 185.406841 
L 94.484887 184.702303 
L 94.614775 185.338553 
L 94.679718 185.411011 
L 94.809606 184.84387 
L 95.19927 182.078538 
L 95.329157 180.991433 
L 95.394101 181.25356 
L 95.459045 181.064488 
L 95.523989 181.123624 
L 95.653877 181.206222 
L 95.718821 180.659731 
L 95.848709 181.325745 
L 95.978596 181.359698 
L 96.04354 181.869286 
L 96.108484 181.418516 
L 96.173428 181.745888 
L 96.36826 183.002048 
L 96.433204 182.603267 
L 96.498148 182.729994 
L 96.563092 182.538278 
L 96.887811 183.561219 
L 97.017699 182.153498 
L 97.082643 182.82618 
L 97.407362 183.483917 
L 97.53725 183.142959 
L 97.602194 183.187004 
L 97.667138 183.54135 
L 97.797026 182.885268 
L 97.861969 183.576408 
L 97.926913 182.253163 
L 97.991857 182.544165 
L 98.056801 182.983403 
L 98.121745 182.743997 
L 98.251633 183.458654 
L 98.316577 183.268549 
L 98.511408 182.549136 
L 98.576352 181.685434 
L 98.641296 182.098213 
L 98.771184 181.38982 
L 98.836128 181.518371 
L 98.966016 181.028435 
L 99.03096 181.306571 
L 99.095904 180.929226 
L 99.160847 181.180793 
L 99.225791 181.244379 
L 99.420623 182.248157 
L 99.485567 181.691641 
L 99.550511 181.828339 
L 99.615455 181.885679 
L 99.745343 181.154921 
L 100.005118 182.032637 
L 100.070062 182.639051 
L 100.135006 182.168285 
L 100.394782 185.144919 
L 100.459725 185.035887 
L 100.654557 186.22389 
L 100.979277 187.287371 
L 101.04422 186.588621 
L 101.109164 187.35333 
L 101.36894 183.686223 
L 101.758603 174.869809 
L 101.823547 174.954732 
L 102.083323 176.712431 
L 102.148267 175.761572 
L 102.343098 177.683011 
L 102.408042 177.317469 
L 103.382201 196.457683 
L 103.771864 211.343032 
L 103.836808 209.282404 
L 103.966696 194.784521 
L 104.356359 111.888458 
L 104.810967 200.052752 
L 104.87591 201.190826 
L 104.940854 201.014064 
L 105.005798 201.204282 
L 105.135686 199.086095 
L 105.20063 199.448132 
L 105.525349 191.523157 
L 105.590293 190.818665 
L 105.850069 182.972232 
L 106.239732 177.133585 
L 106.304676 176.944769 
L 106.36962 177.184621 
L 106.499508 176.465889 
L 106.564452 176.947821 
L 106.69434 175.79149 
L 107.019059 178.895603 
L 107.084003 180.749778 
L 107.148947 180.288945 
L 107.473666 183.799792 
L 107.733442 186.228311 
L 107.928274 187.284247 
L 107.993218 185.936798 
L 108.058161 187.257703 
L 108.252993 185.192661 
L 108.382881 186.324353 
L 108.642657 183.667439 
L 108.7076 183.238484 
L 108.772544 181.782353 
L 108.837488 182.643885 
L 109.292096 177.020741 
L 109.357039 178.330098 
L 109.421983 177.696278 
L 109.486927 178.05404 
L 109.616815 180.268537 
L 109.681759 180.360766 
L 109.876591 182.738992 
L 109.941534 182.139325 
L 110.266254 186.824548 
L 110.396142 186.480275 
L 110.461086 186.682987 
L 110.590973 185.354153 
L 110.655917 185.48264 
L 110.915693 181.306412 
L 111.045581 181.715593 
L 111.175469 182.660754 
L 111.630076 179.817357 
L 111.69502 180.597609 
L 111.759964 180.373547 
L 111.889851 181.088656 
L 111.954795 180.521198 
L 112.019739 183.134876 
L 112.084683 182.00773 
L 112.214571 183.789471 
L 112.279515 182.879469 
L 112.344459 183.23511 
L 112.409403 182.911937 
L 112.474347 184.295435 
L 112.53929 183.007059 
L 112.604234 183.57278 
L 112.669178 183.442709 
L 112.799066 181.960068 
L 113.058842 185.672585 
L 113.123785 185.669283 
L 113.188729 185.292758 
L 113.383561 182.860907 
L 113.643337 181.712322 
L 113.708281 181.82548 
L 113.773224 180.209724 
L 113.838168 181.153087 
L 113.903112 180.051494 
L 113.968056 180.551361 
L 114.033 180.873145 
L 114.097944 180.190727 
L 114.162888 180.518267 
L 114.422663 182.116699 
L 114.487607 181.853032 
L 114.552551 182.922474 
L 114.747383 181.148777 
L 114.812327 180.964137 
L 114.877271 179.524705 
L 115.266934 185.293633 
L 115.331878 185.488605 
L 115.461766 187.206729 
L 115.52671 186.422022 
L 115.591654 187.450598 
L 115.656598 186.797647 
L 115.721541 186.349011 
L 115.916373 187.475301 
L 115.981317 187.508747 
L 116.046261 187.336853 
L 116.500868 178.65154 
L 116.630756 176.741573 
L 116.825588 174.362524 
L 116.890532 174.614081 
L 116.955475 173.949878 
L 117.020419 175.819228 
L 117.085363 175.585874 
L 117.150307 175.720926 
L 117.345139 178.023948 
L 117.410083 178.462773 
L 117.604914 182.050971 
L 117.669858 182.058337 
L 118.514129 202.199418 
L 118.773905 211.712381 
L 118.838848 208.089266 
L 119.03368 164.109612 
L 119.293456 108.323275 
L 119.488287 163.479529 
L 119.683119 198.512474 
L 119.877951 202.343677 
L 120.137726 200.416892 
L 120.462446 191.925392 
L 120.852109 182.306858 
L 121.111885 178.24917 
L 121.176829 178.125397 
L 121.501548 175.922226 
L 121.566492 175.840704 
L 122.410763 183.07968 
L 122.670538 185.460386 
L 122.735482 185.550358 
L 122.930314 186.484859 
L 122.995258 186.219295 
L 123.19009 186.963443 
L 123.384921 186.47871 
L 123.839529 180.805138 
L 123.904473 180.602439 
L 124.294136 177.202375 
L 124.35908 177.17838 
L 124.553912 179.590388 
L 124.813687 183.786558 
L 125.073463 185.727452 
L 125.138407 185.673316 
L 125.20335 185.419174 
L 125.268294 186.420627 
L 125.333238 184.828417 
L 125.398182 185.044695 
L 125.463126 184.95813 
L 125.593014 183.681525 
L 125.657958 183.838285 
L 125.852789 182.308726 
L 125.982677 182.232778 
L 126.177509 180.992123 
L 126.242453 180.554368 
L 126.307397 180.796904 
L 126.567172 182.389714 
L 126.632116 181.966059 
L 126.69706 182.07917 
L 126.762004 181.543265 
L 126.826948 181.760137 
L 126.891892 182.240322 
L 126.956836 181.717624 
L 127.086724 182.473471 
L 127.151667 182.219635 
L 127.216611 182.713203 
L 127.281555 182.665561 
L 127.346499 182.66798 
L 127.411443 183.142085 
L 127.476387 182.757509 
L 127.606275 183.197619 
L 127.671219 182.906228 
L 127.736163 183.040873 
L 127.930994 182.542474 
L 127.995938 183.038717 
L 128.060882 182.88098 
L 128.125826 182.938789 
L 128.320658 183.491159 
L 128.385601 183.494186 
L 128.515489 182.810876 
L 128.645377 182.09921 
L 128.905153 183.439694 
L 129.35976 182.263974 
L 129.489648 182.911173 
L 129.554592 182.708414 
L 129.684479 183.013801 
L 129.749423 181.64238 
L 129.814367 181.78113 
L 129.944255 180.904592 
L 130.074143 181.126803 
L 130.139087 181.218395 
L 130.204031 180.886869 
L 130.268975 181.195848 
L 130.333918 180.886965 
L 130.398862 181.199433 
L 130.463806 180.963275 
L 130.723582 182.07941 
L 131.178189 184.341359 
L 131.243133 184.087665 
L 131.502909 184.555125 
L 131.567852 185.096799 
L 131.632796 185.000783 
L 131.69774 185.021498 
L 131.892572 185.72462 
L 131.957516 185.688616 
L 132.02246 185.836723 
L 132.087404 186.34948 
L 132.152348 186.020126 
L 132.217291 186.405398 
L 132.282235 185.927279 
L 132.801787 175.025121 
L 132.86673 175.396963 
L 132.931674 175.347043 
L 133.19145 177.953012 
L 133.256394 177.379418 
L 133.321338 177.69001 
L 133.386282 177.42574 
L 133.451226 177.731773 
L 133.711001 181.810375 
L 133.905833 183.897911 
L 134.815047 209.523081 
L 134.944935 193.281803 
L 135.269655 116.19992 
L 135.334599 117.611195 
L 135.659318 192.970725 
L 135.85415 199.263297 
L 135.919094 199.781469 
L 135.984038 199.636301 
L 136.178869 197.251949 
L 137.347859 177.030872 
L 137.412803 176.82202 
L 137.607635 177.204645 
L 137.672579 176.791812 
L 138.322018 182.701805 
L 138.51685 183.690526 
L 138.776625 185.871376 
L 139.101345 187.122091 
L 139.36112 185.69045 
L 139.620896 183.181297 
L 140.270335 177.821312 
L 140.465166 178.560823 
L 140.984718 184.782252 
L 141.049662 184.436448 
L 141.244493 185.767267 
L 141.309437 185.727535 
L 141.374381 185.970749 
L 141.439325 185.815588 
L 141.504269 185.752626 
L 142.02382 181.223363 
L 142.088764 181.475266 
L 142.34854 180.65334 
L 142.413483 180.859337 
L 142.543371 180.516883 
L 142.608315 181.453821 
L 142.673259 181.363293 
L 142.868091 182.118025 
L 142.933035 181.611561 
L 142.997979 182.249633 
L 143.062922 181.959113 
L 143.19281 182.446913 
L 143.452586 183.782848 
L 143.647417 182.880026 
L 143.712361 183.399583 
L 143.777305 183.10252 
L 143.842249 183.086255 
L 143.907193 183.392248 
L 143.972137 183.043157 
L 144.037081 183.15912 
L 144.166969 183.281194 
L 144.491688 182.305394 
L 144.556632 182.407312 
L 144.621576 182.278213 
L 144.68652 182.67834 
L 144.816408 182.111362 
L 144.881352 182.287225 
L 144.946295 182.020369 
L 145.206071 183.129468 
L 145.271015 183.059118 
L 145.400903 183.293064 
L 145.595734 182.038474 
L 145.660678 182.505476 
L 145.725622 182.083479 
L 145.790566 182.617828 
L 145.85551 182.538408 
L 146.115286 181.848116 
L 146.18023 182.364026 
L 146.245173 181.956561 
L 146.440005 182.413087 
L 146.569893 182.641986 
L 146.699781 183.305596 
L 146.959556 183.29527 
L 147.154388 182.610726 
L 147.284276 181.803902 
L 147.414164 181.728902 
L 147.544051 182.158662 
L 147.608995 181.982546 
L 147.673939 182.217878 
L 147.868771 181.206655 
L 147.933715 181.913825 
L 147.998659 181.465163 
L 148.128546 182.238143 
L 148.19349 181.347266 
L 148.258434 182.060351 
L 148.323378 181.752552 
L 148.388322 181.442058 
L 148.583154 182.967026 
L 148.648098 182.958142 
L 148.842929 183.719818 
L 148.972817 184.343544 
L 149.167649 185.66153 
L 149.232593 185.742133 
L 149.36248 185.478511 
L 149.427424 185.867686 
L 149.492368 185.6035 
L 149.622256 185.971452 
L 149.752144 185.68635 
L 150.336639 175.569505 
L 150.401583 175.98531 
L 150.466527 176.223662 
L 150.661358 178.43906 
L 150.85619 177.980382 
L 150.921134 178.109558 
L 151.115966 179.822316 
L 151.960236 197.155193 
L 152.284956 209.664938 
L 152.3499 206.437857 
L 152.544731 164.952805 
L 152.739563 118.950014 
L 152.804507 116.663962 
L 153.19417 194.670665 
L 153.389002 197.802529 
L 153.453946 198.610332 
L 153.51889 198.414076 
L 153.778666 195.152519 
L 154.363161 182.972465 
L 154.68788 177.526348 
L 154.752824 177.359682 
L 154.882712 176.449409 
L 154.947656 176.59409 
L 155.0126 176.427691 
L 155.207431 177.485841 
L 155.467207 178.77747 
L 156.376421 187.75472 
L 156.766085 185.268058 
L 156.831029 185.362007 
L 157.480468 179.898141 
L 157.740243 177.794193 
L 157.805187 177.727891 
L 157.870131 177.845048 
L 158.649458 185.880081 
L 158.714402 185.763708 
L 158.779346 185.867082 
L 158.974177 185.355606 
L 159.428785 182.839179 
L 159.623616 181.407142 
L 159.753504 180.979469 
L 159.818448 181.171958 
L 159.883392 180.807451 
L 159.948336 180.915708 
L 160.143168 181.286825 
L 160.402943 181.186387 
L 160.662719 182.206807 
L 160.727663 182.227663 
L 161.117326 183.502436 
L 161.247214 183.427014 
L 161.312158 183.772272 
L 161.377102 183.501181 
L 161.442046 183.558851 
L 161.766765 183.160502 
L 161.831709 183.283585 
L 161.896653 182.913876 
L 162.026541 183.295748 
L 162.091484 182.945321 
L 162.156428 183.318112 
L 162.221372 183.084216 
L 162.611036 181.560297 
L 162.67598 181.904551 
L 162.870811 181.056988 
L 163.130587 182.148596 
L 163.325419 182.64318 
L 163.390362 182.369108 
L 163.585194 182.897917 
L 163.650138 182.982643 
L 163.780026 183.861943 
L 163.84497 183.805563 
L 163.909914 183.803456 
L 164.039801 183.194468 
L 164.234633 182.43918 
L 164.429465 182.934671 
L 164.494409 182.814278 
L 164.559353 182.779595 
L 164.624296 182.899921 
L 164.754184 182.439012 
L 164.819128 182.923948 
L 165.01396 181.965705 
L 165.208792 181.005429 
L 165.338679 181.051902 
L 165.403623 181.082258 
L 165.533511 181.683856 
L 165.598455 181.446188 
L 165.663399 181.615776 
L 165.728343 182.133307 
L 165.793287 181.463422 
L 165.858231 181.651339 
L 166.053062 182.559656 
L 166.18295 182.439299 
L 166.247894 183.160199 
L 166.312838 182.210048 
L 166.50767 183.443094 
L 166.832389 185.541476 
L 166.897333 185.59783 
L 166.962277 185.963703 
L 167.157109 185.273389 
L 167.222052 185.404281 
L 167.286996 185.343339 
L 167.35194 185.374072 
L 167.416884 185.841255 
L 167.546772 185.01821 
L 168.001379 175.874672 
L 168.131267 176.082693 
L 168.391043 178.525744 
L 168.455986 178.736551 
L 168.650818 178.042061 
L 168.715762 178.211431 
L 168.910594 180.922747 
L 169.560033 193.619155 
L 170.01464 209.163507 
L 170.079584 208.117928 
L 170.209472 188.46629 
L 170.534191 114.527702 
L 170.923855 193.879595 
L 171.18363 198.688716 
L 171.313518 197.721856 
L 171.703181 190.985215 
L 172.222733 180.756566 
L 172.612396 177.061744 
L 172.742284 176.69047 
L 173.002059 178.354854 
L 173.326779 181.260248 
L 173.391723 181.139187 
L 173.716442 182.722602 
L 174.365881 187.529023 
L 174.430825 186.994453 
L 174.495769 187.111307 
L 174.625657 186.451536 
L 175.275096 178.669604 
L 175.469927 177.786747 
L 175.599815 177.909553 
L 176.054423 183.01297 
L 176.379142 186.132397 
L 176.444086 185.919163 
L 176.50903 186.308885 
L 176.573974 186.080112 
L 177.093525 182.269683 
L 177.158469 182.420345 
L 177.613076 180.676124 
L 177.872852 182.094515 
L 177.937796 181.80017 
L 178.002739 181.865706 
L 178.197571 182.270357 
L 178.262515 182.324733 
L 178.392403 182.82145 
L 178.457347 182.502283 
L 178.522291 182.863088 
L 178.587235 182.674195 
L 178.652178 182.659615 
L 178.717122 183.144185 
L 178.782066 182.535968 
L 178.84701 182.956073 
L 178.976898 182.6463 
L 179.301617 183.543054 
L 179.561393 182.610281 
L 179.691281 182.874034 
L 179.756225 182.785974 
L 179.886112 182.900152 
L 180.016 182.574828 
L 180.080944 182.794058 
L 180.275776 181.648187 
L 180.34072 181.447455 
L 180.405664 181.485514 
L 181.055103 183.859239 
L 181.314878 182.269293 
L 181.379822 182.626762 
L 181.444766 182.379935 
L 181.704542 183.143778 
L 181.769486 182.724339 
L 181.834429 183.298206 
L 181.899373 183.155342 
L 182.224093 181.108858 
L 182.483868 182.17398 
L 182.548812 181.795035 
L 182.613756 182.278876 
L 182.743644 181.693668 
L 182.808588 181.723831 
L 182.873532 180.964447 
L 182.938476 181.461067 
L 183.00342 181.057453 
L 183.328139 182.353116 
L 183.393083 182.331688 
L 183.458027 182.786819 
L 183.522971 182.359507 
L 184.237354 186.519178 
L 184.302298 186.534923 
L 184.497129 185.24194 
L 184.562073 186.079331 
L 184.627017 185.725046 
L 184.691961 185.985282 
L 184.951737 181.047203 
L 185.276456 174.565994 
L 185.406344 175.204496 
L 185.601176 177.313006 
L 185.666119 177.423796 
L 185.731063 177.934217 
L 185.796007 177.540757 
L 185.990839 178.908707 
L 186.705222 192.076693 
L 187.289717 211.442321 
L 187.354661 209.233947 
L 187.484549 186.604251 
L 187.809268 107.669112 
L 188.328819 200.609165 
L 188.458707 201.585704 
L 188.718483 198.460277 
L 189.302978 184.276501 
L 189.822529 176.474242 
L 189.952417 176.228187 
L 190.017361 176.327983 
L 190.212192 177.748746 
L 190.277136 177.696864 
L 190.6668 180.520654 
L 191.316239 185.886787 
L 191.381182 186.046317 
L 191.446126 186.005983 
L 191.51107 186.852149 
L 191.576014 186.833214 
L 191.83579 185.97324 
L 192.095565 185.065568 
L 192.485229 179.127354 
L 192.550173 179.224893 
L 192.615116 178.394903 
L 192.68006 178.41699 
L 192.939836 179.122445 
L 193.00478 179.076443 
L 193.134668 179.99671 
L 193.199612 180.133604 
L 193.589275 185.301224 
L 193.654219 185.31101 
L 193.719163 185.164344 
L 193.784107 185.795 
L 193.849051 185.187092 
L 193.913994 185.293439 
L 194.238714 183.931822 
L 194.368602 182.258141 
L 194.433546 182.370228 
L 194.49849 181.955759 
L 194.563433 182.026727 
L 194.693321 182.631941 
L 195.082985 181.119071 
L 195.147928 181.569846 
L 195.212872 180.788952 
L 195.277816 181.287139 
L 195.407704 181.297391 
L 195.66748 182.989521 
L 195.732424 182.128999 
L 195.797367 182.460962 
L 195.862311 182.436005 
L 195.927255 181.83027 
L 196.057143 182.507956 
L 196.122087 182.418131 
L 196.381863 184.161552 
L 196.446806 183.892402 
L 196.51175 183.123761 
L 196.576694 183.243472 
L 196.706582 182.697574 
L 196.771526 183.472533 
L 196.83647 183.372882 
L 196.901414 183.221808 
L 196.966358 183.569532 
L 197.031302 183.12494 
L 197.096245 183.599235 
L 197.161189 182.684985 
L 197.226133 183.312525 
L 197.356021 182.362878 
L 197.680741 182.525164 
L 197.745684 182.297177 
L 197.810628 182.884436 
L 197.875572 181.95201 
L 197.940516 182.259487 
L 198.00546 182.124366 
L 198.135348 181.337014 
L 198.200292 181.296905 
L 198.525011 180.102825 
L 198.784787 181.737728 
L 198.849731 181.665232 
L 199.564114 186.180899 
L 199.629057 185.961012 
L 199.694001 186.76526 
L 199.758945 186.424936 
L 199.823889 186.482417 
L 199.953777 186.117912 
L 200.148609 186.398968 
L 200.34344 183.731542 
L 200.733104 175.514163 
L 200.798048 174.80201 
L 200.862992 174.953994 
L 200.927935 174.966643 
L 201.187711 176.408731 
L 201.51243 178.446014 
L 202.486589 201.534099 
L 202.746365 212.84511 
L 202.811308 211.812622 
L 202.941196 191.05034 
L 203.265916 107.041205 
L 203.33086 113.30146 
L 203.655579 197.225229 
L 203.850411 201.943234 
L 203.915355 202.358831 
L 204.110186 199.940932 
L 204.49985 190.094826 
L 205.084345 178.496636 
L 205.149289 178.440748 
L 205.34412 177.451918 
L 205.474008 177.280769 
L 205.66884 178.033054 
L 205.733784 177.789649 
L 205.928616 179.057841 
L 205.993559 178.954473 
L 206.318279 181.537596 
L 206.83783 185.460938 
L 206.902774 185.48853 
L 207.097606 186.838829 
L 207.227493 186.385067 
L 207.487269 185.192666 
L 207.682101 184.103142 
L 208.201652 178.328006 
L 208.396484 177.467234 
L 208.526371 178.612218 
L 208.980979 184.454371 
L 209.045923 185.110832 
L 209.110867 184.979186 
L 209.305698 185.205634 
L 209.370642 185.176954 
L 209.630418 183.95654 
L 209.825249 182.860628 
L 210.279857 181.137073 
L 210.344801 181.515267 
L 210.409744 181.354695 
L 210.539632 181.72319 
L 210.734464 182.560676 
L 210.799408 182.563423 
L 211.059183 181.360559 
L 211.383903 182.74938 
L 211.513791 182.977424 
L 211.578735 183.189608 
L 211.643679 182.942132 
L 211.708622 183.262036 
L 211.773566 182.735569 
L 211.903454 183.1637 
L 211.968398 182.97489 
L 212.098286 183.50421 
L 212.228174 183.070201 
L 212.293118 183.153695 
L 212.423005 182.902946 
L 212.552893 183.249301 
L 212.617837 182.862729 
L 212.682781 182.961942 
L 212.877613 182.80214 
L 212.942557 183.070926 
L 213.0075 182.765774 
L 213.072444 182.816018 
L 213.137388 182.700251 
L 213.202332 182.915221 
L 213.33222 182.411124 
L 213.397164 182.641269 
L 213.527052 181.915895 
L 213.591995 182.087955 
L 213.981659 180.709975 
L 214.046603 180.738849 
L 214.241434 181.998883 
L 214.306378 181.683234 
L 214.436266 182.054183 
L 214.50121 181.865614 
L 214.566154 181.965754 
L 214.631098 182.129552 
L 214.760986 181.686998 
L 214.955817 182.687484 
L 215.345481 185.319855 
L 215.410425 185.202971 
L 215.735144 186.299786 
L 215.800088 187.029302 
L 215.865032 186.58607 
L 215.99492 187.070767 
L 216.189751 184.240978 
L 216.579415 174.948927 
L 216.709303 174.541646 
L 216.969078 177.347359 
L 217.098966 177.2607 
L 217.423685 180.007701 
L 217.553573 182.588922 
L 218.267956 197.601867 
L 218.592676 210.699597 
L 218.65762 209.402504 
L 218.852451 170.134723 
L 219.112227 112.34151 
L 219.566834 196.477346 
L 219.761666 199.46234 
L 219.891554 198.91359 
L 220.540993 185.884863 
L 220.9956 177.223732 
L 221.190432 176.867885 
L 221.255375 176.944522 
L 221.709983 179.327917 
L 221.969758 180.864364 
L 222.359422 183.810187 
L 222.684141 186.45014 
L 222.749085 186.230371 
L 222.814029 186.658745 
L 222.878973 186.437948 
L 222.943917 185.871604 
L 223.008861 186.650018 
L 223.138748 185.900565 
L 223.203692 186.012205 
L 223.853131 178.764468 
L 223.918075 178.590652 
L 224.112907 177.438765 
L 224.307739 178.570746 
L 224.82729 185.215267 
L 224.892234 185.368351 
L 224.957178 186.170155 
L 225.022122 185.526686 
L 225.087065 185.658187 
L 225.152009 185.750212 
L 225.411785 183.973966 
L 225.476729 184.03818 
L 225.541673 183.13717 
L 225.606617 183.521441 
L 225.99628 181.262857 
L 226.061224 181.234018 
L 226.126168 180.652179 
L 226.191112 180.767265 
L 226.256056 180.761159 
L 226.320999 179.90468 
L 226.515831 180.924857 
L 226.840551 182.486062 
L 226.905495 182.311354 
L 227.035382 182.858839 
L 227.295158 183.079065 
L 227.360102 183.044705 
L 227.554934 183.608689 
L 227.619877 183.521511 
L 227.879653 182.662378 
L 227.944597 182.817063 
L 228.009541 182.472489 
L 228.269316 183.084086 
L 228.33426 183.08044 
L 228.399204 183.202919 
L 228.464148 182.280768 
L 228.529092 182.88083 
L 228.65898 182.349599 
L 228.723924 182.65495 
L 228.788868 182.45245 
L 228.918755 182.19552 
L 229.048643 182.180639 
L 229.243475 182.686056 
L 229.308419 182.545423 
L 229.373363 182.699251 
L 229.438307 182.15315 
L 229.50325 182.574419 
L 229.568194 182.166151 
L 229.82797 183.486287 
L 229.892914 183.599988 
L 229.957858 183.429127 
L 230.217633 181.387589 
L 230.282577 181.842305 
L 230.347521 181.605171 
L 230.412465 181.346185 
L 230.477409 181.699841 
L 230.542353 181.472557 
L 230.607297 181.229941 
L 230.672241 181.681443 
L 230.737185 181.544162 
L 230.932016 182.292739 
L 231.126848 181.628345 
L 231.191792 181.419225 
L 231.256736 181.521484 
L 231.386624 181.958157 
L 231.646399 183.290652 
L 231.906175 185.100744 
L 232.101006 185.147862 
L 232.16595 184.903739 
L 232.360782 185.570975 
L 232.555614 186.102852 
L 232.685501 185.872109 
L 232.945277 180.662733 
L 233.205053 175.843062 
L 233.269997 175.499392 
L 233.594716 178.659133 
L 233.65966 178.51416 
L 233.724604 178.357722 
L 233.789548 178.501537 
L 233.854492 178.26615 
L 234.114267 180.455463 
L 234.568875 189.07953 
L 235.283257 208.672439 
L 235.478089 173.920296 
L 235.737865 114.435858 
L 236.257416 197.155181 
L 236.452248 198.170769 
L 236.647079 196.624731 
L 237.16663 185.126005 
L 237.49135 180.202089 
L 237.881013 177.217099 
L 237.945957 177.386056 
L 238.010901 176.895504 
L 238.075845 177.178469 
L 238.270677 178.145466 
L 238.530452 179.867203 
L 238.725284 181.363444 
L 239.050003 184.730897 
L 239.374723 186.540381 
L 239.439667 186.284388 
L 239.504611 185.960035 
L 239.569555 186.402601 
L 239.634499 185.690472 
L 239.699442 186.397133 
L 239.764386 186.098393 
L 239.82933 186.137146 
L 239.959218 185.261742 
L 240.413825 179.463615 
L 240.478769 179.490097 
L 240.608657 178.136989 
L 240.673601 178.826711 
L 240.738545 178.51153 
L 240.803489 178.555253 
L 241.193152 181.62754 
L 241.452928 184.33296 
L 241.517872 185.047889 
L 241.582815 184.815666 
L 241.777647 185.492989 
L 241.842591 185.423736 
L 241.972479 185.248057 
L 242.427086 181.996407 
L 242.49203 182.045898 
L 242.751806 181.120173 
L 242.81675 181.480555 
L 242.881693 181.245362 
L 242.946637 181.139685 
L 243.011581 181.388927 
L 243.076525 181.185145 
L 243.141469 181.326304 
L 243.401245 182.108166 
L 243.790908 182.511858 
L 243.920796 183.017434 
L 244.050684 182.880082 
L 244.115627 183.520467 
L 244.180571 183.157134 
L 244.245515 183.455087 
L 244.310459 183.400141 
L 244.440347 183.360947 
L 244.570235 182.871986 
L 244.635179 183.03154 
L 244.700123 182.960183 
L 244.894954 182.571122 
L 244.959898 182.780312 
L 245.024842 182.454254 
L 245.219674 182.825383 
L 245.479449 181.72388 
L 245.544393 182.114518 
L 245.609337 181.912867 
L 245.674281 182.000171 
L 245.869113 182.887158 
L 245.934057 182.874296 
L 245.999001 183.065306 
L 246.193832 182.780507 
L 246.32372 182.808532 
L 246.453608 182.84147 
L 246.518552 182.973382 
L 246.583496 182.845633 
L 246.64844 183.273468 
L 246.713383 182.636059 
L 246.778327 182.661525 
L 247.427766 181.061541 
L 247.49271 181.399438 
L 247.557654 181.291271 
L 247.752486 181.699457 
L 247.947317 180.826709 
L 248.142149 181.738126 
L 248.336981 183.768876 
L 248.401925 183.640967 
L 248.791588 185.85669 
L 248.856532 185.946128 
L 248.921476 185.64109 
L 248.98642 185.803473 
L 249.051364 186.118159 
L 249.116308 185.377585 
L 249.181252 185.97205 
L 249.246195 185.246215 
L 249.311139 185.682024 
L 249.376083 185.818727 
L 249.505971 185.542849 
L 249.765747 179.443722 
L 249.960578 175.617928 
L 250.090466 175.217111 
L 250.415186 177.563784 
L 250.480129 177.730731 
L 250.545073 177.369478 
L 250.610017 177.531903 
L 250.869793 180.161386 
L 251.194512 186.45147 
L 251.779007 202.104875 
L 252.038783 210.933554 
L 252.168671 196.170423 
L 252.558334 110.954064 
L 252.947998 198.261633 
L 253.142829 200.575153 
L 253.207773 200.635108 
L 253.402605 198.62555 
L 253.922156 185.915177 
L 254.311819 179.583245 
L 254.506651 178.217382 
L 254.766427 177.104694 
L 254.896315 177.077996 
L 255.221034 179.204893 
L 255.415866 181.121944 
L 255.48081 181.198544 
L 255.545754 181.545949 
L 255.870473 185.21683 
L 256.000361 185.989072 
L 256.065305 185.813584 
L 256.130249 186.148027 
L 256.195192 185.679375 
L 256.260136 185.796027 
L 256.32508 186.007382 
L 256.390024 185.567113 
L 256.519912 186.069384 
L 256.779688 184.973365 
L 257.429127 178.438399 
L 257.49407 178.446928 
L 257.559014 178.327395 
L 257.623958 177.946258 
L 257.883734 180.355412 
L 258.273397 185.13548 
L 258.338341 185.074662 
L 258.403285 185.149519 
L 258.468229 185.30191 
L 258.598117 184.650055 
L 258.663061 185.069898 
L 258.857892 184.972108 
L 259.377443 181.214367 
L 259.442387 181.229596 
L 259.507331 181.204599 
L 259.637219 180.651824 
L 259.832051 181.356897 
L 259.896995 180.958678 
L 259.961939 181.971302 
L 260.026882 181.863333 
L 260.091826 182.183698 
L 260.15677 181.906946 
L 260.221714 182.373422 
L 260.286658 182.222463 
L 260.546434 183.120832 
L 260.611378 182.657542 
L 260.676321 183.084006 
L 260.741265 182.572871 
L 260.806209 182.748054 
L 260.871153 183.192332 
L 260.936097 182.225747 
L 261.001041 183.457487 
L 261.065985 182.811395 
L 261.195873 183.472969 
L 261.390704 182.961262 
L 261.520592 183.34061 
L 261.585536 183.85871 
L 261.65048 183.443628 
L 261.715424 183.917494 
L 261.845312 182.903114 
L 261.910256 182.959234 
L 261.975199 182.829325 
L 262.040143 183.14662 
L 262.105087 182.663364 
L 262.170031 183.080742 
L 262.299919 181.91451 
L 262.429807 182.149258 
L 262.559694 182.063781 
L 262.624638 182.549926 
L 262.949358 180.378448 
L 263.079246 180.546444 
L 263.14419 180.551461 
L 263.209133 180.749833 
L 263.403965 181.581999 
L 263.533853 181.960767 
L 263.663741 182.080346 
L 264.248236 185.094599 
L 264.31318 184.851234 
L 264.378124 185.427165 
L 264.443068 185.31664 
L 264.508011 185.050858 
L 264.832731 186.447796 
L 264.897675 186.26911 
L 264.962619 187.19468 
L 265.027563 186.699244 
L 265.15745 184.715137 
L 265.48217 176.863653 
L 265.741945 174.6627 
L 265.936777 176.383363 
L 266.001721 175.905091 
L 266.066665 176.191005 
L 266.261497 177.919212 
L 266.97588 190.919024 
L 267.625319 210.844018 
L 267.690262 207.704018 
L 267.885094 164.557863 
L 268.079926 112.166606 
L 268.14487 110.316696 
L 268.664421 201.002759 
L 268.729365 201.429845 
L 268.924196 200.075423 
L 269.248916 193.355176 
L 269.638579 183.545174 
L 270.028243 178.031626 
L 270.158131 177.163254 
L 270.223074 177.374314 
L 270.288018 176.324275 
L 270.352962 177.009522 
L 270.417906 177.081141 
L 270.677682 178.419553 
L 270.742626 177.829638 
L 271.65184 185.981587 
L 271.716784 185.059093 
L 271.911616 186.321134 
L 271.97656 186.238913 
L 272.041504 186.341768 
L 272.236335 185.094166 
L 272.690943 182.937587 
L 273.015662 178.317519 
L 273.210494 177.615951 
L 273.470269 180.049554 
L 273.535213 180.418317 
L 273.794989 184.366071 
L 273.859933 184.472455 
L 273.924877 185.616233 
L 273.989821 184.809768 
L 274.119708 185.533124 
L 274.184652 185.143422 
L 274.249596 185.297184 
L 274.31454 185.440128 
L 274.509372 184.194504 
L 274.704203 182.879703 
L 274.899035 180.898551 
L 275.028923 180.941667 
L 275.288698 182.805382 
L 275.353642 182.771187 
L 275.613418 181.235286 
L 275.678362 181.926475 
L 275.743306 181.367222 
L 275.80825 181.650497 
L 275.873194 181.548377 
L 275.938137 181.211503 
L 276.132969 182.416992 
L 276.327801 183.066422 
L 276.587576 184.005994 
L 276.65252 183.641587 
L 276.717464 183.779985 
L 276.782408 183.87665 
L 276.912296 183.106152 
L 277.107128 183.358119 
L 277.237015 184.222084 
L 277.626679 181.21775 
L 277.756567 181.661709 
L 277.82151 181.04961 
L 277.886454 181.290058 
L 277.951398 181.38941 
L 278.016342 181.136673 
L 278.211174 181.576631 
L 278.341062 180.998249 
L 278.406006 181.16803 
L 278.470949 181.133182 
L 278.535893 181.144077 
L 278.665781 181.7289 
L 278.730725 181.502919 
L 279.250276 185.63092 
L 279.31522 185.314818 
L 279.380164 185.590924 
L 279.445108 186.473944 
L 279.510052 186.466677 
L 279.574996 186.459025 
L 279.63994 186.697281 
L 279.704884 186.52548 
L 279.964659 186.942583 
L 280.029603 186.69677 
L 280.354323 179.038012 
L 280.614098 174.532067 
L 280.679042 173.991288 
L 280.743986 174.01109 
L 280.938818 176.427306 
L 281.003761 176.248562 
L 281.198593 177.532627 
L 281.393425 179.700062 
L 282.042864 193.943701 
L 282.432527 207.48941 
L 282.562415 211.941239 
L 282.627359 211.871978 
L 282.757247 193.562236 
L 283.081966 108.085934 
L 283.14691 110.966412 
L 283.536573 198.770957 
L 283.731405 201.722579 
L 283.796349 202.144941 
L 283.991181 200.183532 
L 284.64062 182.968467 
L 285.095227 176.700113 
L 285.290059 176.294833 
L 285.355003 175.562704 
L 285.48489 176.328957 
L 285.549834 176.105432 
L 285.80961 179.309555 
L 286.004442 181.105312 
L 286.264217 183.834536 
L 286.588937 186.422922 
L 286.653881 185.794998 
L 286.783768 186.50662 
L 286.848712 186.359796 
L 286.913656 186.558332 
L 286.9786 186.454343 
L 287.043544 186.527432 
L 288.14759 177.988819 
L 288.537254 181.20727 
L 288.797029 185.124456 
L 288.926917 185.577691 
L 288.991861 185.559528 
L 289.186693 185.442615 
L 289.251637 185.684524 
L 289.966019 180.617844 
L 290.030963 181.420168 
L 290.095907 181.299234 
L 290.355683 181.731996 
L 290.420627 181.521897 
L 290.485571 181.810122 
L 290.550514 181.782919 
L 290.615458 181.638833 
L 291.005122 182.783222 
L 291.070066 182.558652 
L 291.199953 183.048068 
L 291.264897 182.83448 
L 291.329841 182.915473 
L 291.394785 183.21139 
L 291.459729 182.909891 
L 291.654561 183.437976 
L 291.719505 183.190914 
L 291.784449 183.599998 
L 291.849392 183.484305 
L 292.174112 182.351228 
L 292.239056 182.560203 
L 292.304 183.090098 
L 292.368944 182.872527 
L 292.433888 183.139532 
L 292.498831 183.050208 
L 292.628719 182.507442 
L 292.693663 182.625237 
L 292.758607 182.423859 
L 292.953439 183.084884 
L 293.14827 182.541545 
L 293.213214 182.857591 
L 293.408046 182.435513 
L 293.47299 182.698782 
L 293.537934 182.646375 
L 293.862653 180.547002 
L 293.927597 180.758726 
L 293.992541 180.567362 
L 294.187373 181.292247 
L 294.252317 181.232802 
L 294.512092 182.362948 
L 294.577036 182.362484 
L 294.64198 182.624559 
L 294.706924 182.434157 
L 294.771868 182.504051 
L 295.291419 185.051498 
L 295.421307 185.296557 
L 295.551195 186.340164 
L 295.616139 186.18436 
L 295.681082 186.339453 
L 296.005802 185.639937 
L 296.265577 179.858249 
L 296.525353 175.750382 
L 296.590297 175.153533 
L 296.655241 175.484848 
L 296.850073 177.213781 
L 297.044904 178.229456 
L 297.109848 178.42229 
L 297.174792 178.061473 
L 298.019063 192.743547 
L 298.278838 199.812912 
L 298.538614 210.05004 
L 298.603558 207.290256 
L 298.798389 166.91417 
L 298.993221 118.55166 
L 299.058165 114.2193 
L 299.447828 194.990387 
L 299.64266 198.548929 
L 299.707604 198.742481 
L 299.772548 198.659699 
L 299.902436 197.704172 
L 300.746706 180.295442 
L 301.006482 177.773798 
L 301.266258 176.512701 
L 301.396145 176.79046 
L 302.045584 182.096589 
L 302.370304 185.53662 
L 302.435248 185.426667 
L 302.500192 185.855292 
L 302.565136 185.745077 
L 302.630079 185.85634 
L 302.824911 186.943746 
L 302.889855 186.31439 
L 302.954799 186.574441 
L 303.47435 182.945283 
L 303.993901 177.179961 
L 304.058845 176.971622 
L 304.383565 180.279706 
L 304.708284 185.576252 
L 304.773228 185.744456 
L 304.96806 186.501752 
L 305.033004 186.884572 
L 305.552555 182.890435 
L 305.617499 182.701727 
L 305.81233 180.484461 
L 305.942218 180.256802 
L 306.007162 179.852038 
L 306.201994 180.323203 
L 306.266938 180.439919 
L 306.526713 182.508708 
L 306.591657 181.984386 
L 306.721545 182.536734 
L 306.786489 182.342329 
L 307.046265 183.806543 
L 307.111208 183.365485 
L 307.176152 183.758342 
L 307.30604 182.630881 
L 307.370984 182.705852 
L 307.695704 183.417105 
L 307.760647 182.691155 
L 307.825591 183.014071 
L 307.955479 182.321794 
L 308.020423 182.709449 
L 308.085367 182.499125 
L 308.150311 182.496269 
L 308.280199 182.786644 
L 308.345142 182.763315 
L 308.604918 183.229752 
L 308.669862 182.76466 
L 308.734806 182.991654 
L 308.994581 182.364398 
L 309.254357 181.514497 
L 309.319301 181.543175 
L 309.579077 182.61398 
L 309.64402 182.230603 
L 309.773908 182.789445 
L 309.838852 182.518472 
L 309.903796 182.941975 
L 309.96874 182.803001 
L 310.098628 183.044593 
L 310.163572 182.748558 
L 310.228516 183.225251 
L 310.293459 183.054452 
L 310.358403 182.889719 
L 310.423347 183.091382 
L 310.488291 183.004102 
L 310.553235 183.032722 
L 310.618179 182.864905 
L 310.683123 182.925908 
L 310.748067 182.957037 
L 310.813011 182.71157 
L 310.877954 182.981402 
L 310.942898 182.394974 
L 311.007842 182.574688 
L 311.202674 181.73585 
L 311.267618 182.070711 
L 311.332562 181.519234 
L 311.397506 181.53841 
L 311.46245 181.702449 
L 311.527393 181.032843 
L 311.592337 181.184978 
L 311.787169 180.795563 
L 311.852113 180.928287 
L 312.176832 182.85223 
L 312.241776 182.853319 
L 312.436608 183.482499 
L 312.956159 186.534807 
L 313.086047 186.374568 
L 313.280879 185.363056 
L 313.345823 185.357211 
L 313.410767 185.729375 
L 314.060205 175.037162 
L 314.449869 178.510043 
L 314.514813 178.458337 
L 314.644701 178.750724 
L 315.488971 191.894613 
L 316.008522 209.821367 
L 316.13841 195.313589 
L 316.46313 117.845974 
L 316.528074 119.156257 
L 316.852793 192.012556 
L 317.047625 197.888119 
L 317.177513 198.682499 
L 317.502232 194.617283 
L 317.891895 185.66561 
L 318.281559 179.430156 
L 318.346503 179.29516 
L 318.671222 177.510176 
L 318.736166 177.341433 
L 318.80111 177.644361 
L 318.866054 177.260947 
L 319.190773 179.263731 
L 319.450549 182.255823 
L 319.840212 184.532259 
L 320.099988 185.931501 
L 320.164932 185.746106 
L 320.424707 186.60639 
L 321.009203 182.007327 
L 321.398866 178.145808 
L 321.658642 178.785592 
L 321.983361 182.225243 
L 322.243137 184.906423 
L 322.437968 185.456438 
L 322.502912 185.60589 
L 322.697744 184.762413 
L 322.762688 184.983919 
L 322.95752 183.340261 
L 323.022463 183.420796 
L 323.671902 180.484417 
L 323.736846 180.619709 
L 323.80179 180.121828 
L 323.866734 180.413425 
L 324.12651 181.870602 
L 324.191454 181.825158 
L 324.321341 181.923954 
L 324.581117 183.809879 
L 324.646061 183.707631 
L 324.711005 184.000984 
L 324.775949 183.645052 
L 324.840893 183.976177 
L 324.905836 183.86471 
L 325.2955 182.184052 
L 325.490332 183.055503 
L 325.620219 182.563983 
L 325.685163 182.876561 
L 325.750107 182.004911 
L 325.815051 182.43338 
L 325.944939 182.15455 
L 326.13977 182.773486 
L 326.204714 182.520388 
L 326.269658 182.840252 
L 326.334602 182.633032 
L 326.399546 182.084476 
L 326.46449 182.317645 
L 326.594378 182.148997 
L 326.724266 182.672389 
L 326.789209 182.62055 
L 326.854153 182.808479 
L 327.048985 182.035373 
L 327.373705 182.794154 
L 327.438648 182.762763 
L 327.568536 183.358236 
L 327.63348 183.028226 
L 327.698424 183.196777 
L 327.893256 182.605017 
L 327.9582 183.088794 
L 328.088087 182.326135 
L 328.153031 182.682657 
L 328.217975 181.793933 
L 328.412807 183.100394 
L 328.477751 182.61018 
L 328.542695 183.078149 
L 328.607639 182.766019 
L 328.80247 182.029561 
L 328.867414 182.253466 
L 329.12719 181.332946 
L 329.322021 181.090985 
L 329.386965 181.15504 
L 329.451909 181.155531 
L 329.711685 181.967045 
L 329.841573 182.434799 
L 329.906517 182.219464 
L 330.036404 183.144741 
L 330.101348 183.008619 
L 330.166292 183.991881 
L 330.231236 183.838745 
L 330.29618 183.880313 
L 330.426068 184.70672 
L 330.491012 184.59548 
L 330.880675 185.911996 
L 330.945619 185.657353 
L 331.140451 186.504012 
L 331.270338 185.902119 
L 331.724946 175.220294 
L 331.78989 175.477585 
L 331.854834 175.414581 
L 332.114609 177.807786 
L 332.244497 177.514838 
L 332.309441 177.555984 
L 332.374385 177.138061 
L 332.764048 182.494648 
L 333.543375 202.402959 
L 333.738207 209.981118 
L 333.80315 211.092537 
L 333.933038 194.543196 
L 334.257758 110.160985 
L 334.322702 113.463194 
L 334.647421 194.284562 
L 334.842253 200.22042 
L 334.972141 201.109994 
L 335.426748 192.811623 
L 335.816411 183.149507 
L 336.206075 177.386558 
L 336.335962 176.914054 
L 336.400906 177.280127 
L 336.46585 176.975096 
L 337.050345 179.677255 
L 337.375065 182.586871 
L 337.63484 184.988922 
L 338.024504 186.981412 
L 338.154392 186.136335 
L 338.219336 186.243218 
L 338.414167 185.411705 
L 338.479111 185.757474 
L 338.868774 180.567976 
L 338.933718 180.463355 
L 339.063606 179.317044 
L 339.12855 179.156686 
L 339.258438 177.935556 
L 339.323382 178.11985 
L 339.45327 177.827237 
L 339.777989 182.922508 
L 340.167652 185.097285 
L 340.232596 184.678752 
L 340.29754 185.087833 
L 340.362484 184.481752 
L 340.427428 184.703142 
L 340.492372 184.727999 
L 340.557316 184.148376 
L 340.62226 184.163419 
L 340.752148 183.718728 
L 341.011923 182.904228 
L 341.076867 182.923072 
L 341.336643 181.043426 
L 341.401586 181.015488 
L 341.46653 180.66765 
L 341.531474 181.005577 
L 341.596418 180.989141 
L 341.79125 181.294236 
L 342.180913 182.371147 
L 342.310801 183.212595 
L 342.375745 183.061808 
L 342.440689 183.54791 
L 342.505633 182.688856 
L 342.570577 182.708864 
L 342.700464 182.742214 
L 342.765408 182.491384 
L 342.895296 183.556283 
L 342.96024 182.958193 
L 343.025184 183.610217 
L 343.090128 183.351455 
L 343.220016 182.997757 
L 343.349903 182.835931 
L 343.414847 182.211283 
L 343.479791 182.932705 
L 343.544735 182.528187 
L 343.739567 183.44357 
L 343.804511 183.347431 
L 344.12923 181.869468 
L 344.194174 181.900708 
L 344.259118 181.917965 
L 344.324062 182.973425 
L 344.389006 182.594298 
L 344.518894 183.275466 
L 344.583837 183.045672 
L 344.648781 183.189342 
L 344.713725 183.113205 
L 344.843613 182.290784 
L 344.908557 182.396426 
L 345.038445 181.824918 
L 345.168333 182.573066 
L 345.233276 182.369448 
L 345.29822 182.743272 
L 345.363164 182.635792 
L 345.557996 181.328188 
L 345.687884 181.399393 
L 345.882715 182.353015 
L 346.077547 181.557901 
L 346.142491 181.826444 
L 346.272379 181.160719 
L 346.337323 181.19358 
L 346.402267 180.707079 
L 346.467211 180.933467 
L 346.532154 180.711753 
L 346.856874 184.431206 
L 346.921818 184.242519 
L 347.11665 184.754193 
L 347.181593 184.830256 
L 347.311481 185.503568 
L 347.376425 184.880682 
L 347.571257 185.796477 
L 347.766088 186.571174 
L 347.895976 186.107559 
L 348.545415 174.522944 
L 348.740247 175.958543 
L 348.935079 177.153654 
L 349.000023 177.066272 
L 349.259798 178.289448 
L 350.039125 194.781778 
L 350.493732 211.54374 
L 350.558676 210.654003 
L 350.688564 190.696253 
L 351.013283 108.942026 
L 351.078227 115.576327 
L 351.467891 199.597903 
L 351.597778 201.668176 
L 351.662722 201.524969 
L 351.79261 200.323278 
L 352.11733 194.312675 
L 352.377105 186.617215 
L 352.442049 186.03325 
L 352.766769 179.379086 
L 352.9616 177.958778 
L 353.026544 177.579633 
L 353.091488 177.92726 
L 353.28632 176.773233 
L 353.416208 176.238072 
L 353.870815 180.598475 
L 354.585198 186.135745 
L 354.650142 185.801866 
L 354.715086 186.570431 
L 354.780029 186.118646 
L 354.844973 186.524556 
L 355.039805 185.530916 
L 355.169693 185.099187 
L 355.234637 184.040362 
L 355.299581 184.580945 
L 355.689244 181.313456 
L 355.94902 178.226667 
L 356.013964 178.396398 
L 356.078907 177.799432 
L 356.273739 179.092811 
L 356.858234 185.705615 
L 356.988122 185.628473 
L 357.053066 185.375988 
L 357.11801 185.619988 
L 357.377785 183.554423 
L 357.442729 183.540312 
L 357.637561 182.171392 
L 357.767449 182.076476 
L 357.832393 181.218908 
L 357.897337 181.851051 
L 357.96228 181.589154 
L 358.027224 181.595858 
L 358.222056 182.143206 
L 358.481832 181.144095 
L 358.546776 181.210098 
L 358.936439 183.393602 
L 359.001383 183.572468 
L 359.261158 182.100299 
L 359.326102 182.480859 
L 359.391046 181.932664 
L 359.45599 182.202719 
L 359.520934 182.083072 
L 359.585878 183.003133 
L 359.650822 182.31541 
L 359.845653 183.515982 
L 359.910597 183.713818 
L 359.975541 183.455549 
L 360.040485 183.657203 
L 360.365205 182.465455 
L 360.430149 182.784877 
L 360.495092 182.679963 
L 360.689924 183.081599 
L 360.754868 182.838646 
L 360.819812 183.158689 
L 360.884756 183.122648 
L 361.079588 182.671295 
L 361.339363 181.460865 
L 361.404307 181.919582 
L 361.469251 181.538425 
L 361.534195 182.528744 
L 361.599139 181.891378 
L 361.664083 182.154288 
L 361.858914 180.947234 
L 362.11869 181.524283 
L 362.248578 181.602324 
L 362.378466 181.081604 
L 362.638241 182.289265 
L 362.833073 183.606014 
L 363.157792 184.873691 
L 363.222736 184.995349 
L 363.28768 185.947599 
L 363.352624 185.488605 
L 363.482512 186.271923 
L 363.547456 185.669578 
L 363.742287 186.308508 
L 363.807231 186.141354 
L 363.872175 186.718541 
L 364.131951 182.125242 
L 364.45667 174.418412 
L 364.521614 174.473122 
L 364.586558 174.219644 
L 364.976221 177.259226 
L 365.041165 176.988473 
L 365.235997 179.360581 
L 366.210155 202.9143 
L 366.469931 211.842153 
L 366.599819 195.70682 
L 366.989482 109.629054 
L 367.379146 199.076312 
L 367.573977 202.483143 
L 367.703865 201.650986 
L 367.963641 196.344385 
L 368.678024 179.77892 
L 368.937799 176.67036 
L 369.067687 176.374324 
L 369.132631 176.815995 
L 369.197575 176.319085 
L 369.262519 176.584771 
L 370.756228 187.157656 
L 370.886116 186.851557 
L 370.95106 186.987194 
L 371.145892 185.485125 
L 371.210836 185.407553 
L 371.470611 181.845007 
L 371.925218 177.203546 
L 371.990162 177.344613 
L 372.055106 177.353144 
L 372.44477 182.733934 
L 372.704545 185.506724 
L 372.769489 185.42831 
L 372.834433 185.564089 
L 372.899377 185.057229 
L 372.964321 185.093201 
L 373.029265 185.488236 
L 373.094209 185.147638 
L 373.159153 185.229122 
L 373.224096 185.38974 
L 373.743648 180.930351 
L 373.808592 180.723214 
L 373.873535 180.773294 
L 373.938479 180.732506 
L 374.003423 181.129623 
L 374.068367 180.831573 
L 374.133311 181.32537 
L 374.198255 180.903967 
L 374.587918 182.569566 
L 374.652862 182.69295 
L 374.717806 182.492983 
L 374.78275 182.861177 
L 375.042526 181.98045 
L 375.367245 182.899187 
L 375.432189 182.638305 
L 375.627021 183.553136 
L 375.821852 183.820914 
L 376.016684 182.757092 
L 376.081628 183.046578 
L 376.146572 182.322922 
L 376.211516 182.653663 
L 376.27646 182.935981 
L 376.341404 182.575838 
L 376.406347 183.243857 
L 376.471291 182.935352 
L 376.536235 182.874693 
L 376.601179 182.990149 
L 376.666123 182.218363 
L 376.731067 182.53101 
L 376.796011 182.202781 
L 376.860955 183.008985 
L 376.925899 182.362138 
L 376.990843 183.239548 
L 377.055786 183.139978 
L 377.44545 181.783929 
L 377.575338 182.252637 
L 377.640282 182.146978 
L 377.705225 181.751518 
L 377.770169 182.096123 
L 377.835113 181.839345 
L 378.029945 182.610717 
L 378.484552 180.915983 
L 378.549496 181.042584 
L 379.004103 182.620705 
L 379.523655 185.138869 
L 379.588598 185.117375 
L 379.913318 186.169401 
L 380.10815 185.722532 
L 380.238037 186.120651 
L 380.432869 182.981891 
L 380.757589 175.549828 
L 380.822533 174.230438 
L 380.887476 174.495118 
L 381.017364 174.972742 
L 381.27714 178.331234 
L 381.342084 178.371248 
L 381.666803 180.685184 
L 382.056467 188.298845 
L 382.511074 200.00728 
L 382.770849 209.782819 
L 382.835793 209.022241 
L 383.030625 171.03442 
L 383.290401 112.96899 
L 383.485232 163.112889 
L 383.680064 194.044028 
L 383.874896 199.467498 
L 383.93984 199.407887 
L 384.004784 200.115742 
L 384.394447 193.361915 
L 384.78411 183.900321 
L 385.173774 178.097457 
L 385.303661 177.522425 
L 385.368605 176.622877 
L 385.433549 176.738321 
L 385.498493 176.845523 
L 385.563437 176.559303 
L 385.628381 176.741343 
L 386.018044 179.358392 
L 386.082988 179.457953 
L 386.342764 182.724587 
L 386.797371 186.729849 
L 386.862315 186.277278 
L 386.927259 186.581749 
L 386.992203 186.341834 
L 387.122091 186.83648 
L 387.511754 184.474647 
L 387.706586 182.023567 
L 387.77153 182.015826 
L 388.031305 178.977913 
L 388.291081 177.599782 
L 388.356025 177.696495 
L 388.485912 178.680462 
L 388.680744 181.114519 
L 389.005464 185.585071 
L 389.200295 186.343738 
L 389.330183 185.750888 
L 389.395127 185.84596 
L 389.589959 184.136989 
L 389.654903 183.906989 
L 389.78479 183.040704 
L 389.849734 183.243476 
L 389.914678 182.287549 
L 389.979622 182.552419 
L 390.304342 180.486935 
L 390.369285 180.73038 
L 390.434229 180.55447 
L 390.499173 180.326657 
L 390.564117 181.0324 
L 390.629061 180.673814 
L 390.953781 182.10488 
L 391.018724 182.207305 
L 391.083668 182.790702 
L 391.148612 182.19184 
L 391.2785 182.837297 
L 391.343444 182.718722 
L 391.473332 183.095689 
L 391.538276 183.015643 
L 391.733107 183.91673 
L 391.798051 183.622363 
L 391.862995 183.735187 
L 391.927939 183.811847 
L 391.992883 182.806951 
L 392.057827 182.944771 
L 392.122771 183.092064 
L 392.187715 182.392954 
L 392.252659 182.718125 
L 392.317602 182.76808 
L 392.382546 182.663099 
L 392.44749 182.76661 
L 392.577378 182.832523 
L 392.642322 182.816921 
L 392.902098 181.89043 
L 393.096929 182.712677 
L 393.226817 182.246321 
L 393.291761 182.69208 
L 393.356705 181.677049 
L 393.421649 182.243468 
L 393.681424 182.94658 
L 393.811312 183.25097 
L 393.876256 183.158962 
L 393.9412 183.265822 
L 394.136032 181.97544 
L 394.200975 182.710745 
L 394.265919 182.163244 
L 394.460751 182.747147 
L 394.525695 182.924542 
L 395.11019 180.994914 
L 395.240078 181.357663 
L 395.305022 181.355171 
L 395.369966 181.775681 
L 395.43491 181.521088 
L 395.499853 181.46457 
L 395.694685 182.280341 
L 395.759629 182.108074 
L 395.824573 182.659976 
L 395.889517 182.587586 
L 395.954461 182.75456 
L 396.214236 184.293761 
L 396.344124 184.847919 
L 396.668844 185.986918 
L 396.798731 186.439323 
L 396.863675 186.237581 
L 397.188395 184.228965 
L 397.643002 175.177516 
L 397.707946 175.264009 
L 398.032665 178.019796 
L 398.097609 178.075489 
L 398.357385 179.336105 
L 398.487273 181.0981 
L 398.487273 181.0981 
" style="fill:none;stroke:#1f77b4;stroke-linecap:square;stroke-width:1.5;"/>
   </g>
   <g id="patch_3">
    <path d="M 57.6 307.584 
L 57.6 41.472 
" style="fill:none;stroke:#000000;stroke-linecap:square;stroke-linejoin:miter;stroke-width:0.8;"/>
   </g>
   <g id="patch_4">
    <path d="M 414.72 307.584 
L 414.72 41.472 
" style="fill:none;stroke:#000000;stroke-linecap:square;stroke-linejoin:miter;stroke-width:0.8;"/>
   </g>
   <g id="patch_5">
    <path d="M 57.6 307.584 
L 414.72 307.584 
" style="fill:none;stroke:#000000;stroke-linecap:square;stroke-linejoin:miter;stroke-width:0.8;"/>
   </g>
   <g id="patch_6">
    <path d="M 57.6 41.472 
L 414.72 41.472 
" style="fill:none;stroke:#000000;stroke-linecap:square;stroke-linejoin:miter;stroke-width:0.8;"/>
   </g>
   <g id="text_14">
    <!-- Filter by Adaptive LMS -->
    <g transform="translate(169.333125 35.472)scale(0.12 -0.12)">
     <defs>
      <path d="M 9.8125 72.90625 
L 51.703125 72.90625 
L 51.703125 64.59375 
L 19.671875 64.59375 
L 19.671875 43.109375 
L 48.578125 43.109375 
L 48.578125 34.8125 
L 19.671875 34.8125 
L 19.671875 0 
L 9.8125 0 
z
" id="DejaVuSans-70"/>
      <path d="M 9.421875 54.6875 
L 18.40625 54.6875 
L 18.40625 0 
L 9.421875 0 
z
M 9.421875 75.984375 
L 18.40625 75.984375 
L 18.40625 64.59375 
L 9.421875 64.59375 
z
" id="DejaVuSans-105"/>
      <path d="M 9.421875 75.984375 
L 18.40625 75.984375 
L 18.40625 0 
L 9.421875 0 
z
" id="DejaVuSans-108"/>
      <path d="M 18.3125 70.21875 
L 18.3125 54.6875 
L 36.8125 54.6875 
L 36.8125 47.703125 
L 18.3125 47.703125 
L 18.3125 18.015625 
Q 18.3125 11.328125 20.140625 9.421875 
Q 21.96875 7.515625 27.59375 7.515625 
L 36.8125 7.515625 
L 36.8125 0 
L 27.59375 0 
Q 17.1875 0 13.234375 3.875 
Q 9.28125 7.765625 9.28125 18.015625 
L 9.28125 47.703125 
L 2.6875 47.703125 
L 2.6875 54.6875 
L 9.28125 54.6875 
L 9.28125 70.21875 
z
" id="DejaVuSans-116"/>
      <path d="M 56.203125 29.59375 
L 56.203125 25.203125 
L 14.890625 25.203125 
Q 15.484375 15.921875 20.484375 11.0625 
Q 25.484375 6.203125 34.421875 6.203125 
Q 39.59375 6.203125 44.453125 7.46875 
Q 49.3125 8.734375 54.109375 11.28125 
L 54.109375 2.78125 
Q 49.265625 0.734375 44.1875 -0.34375 
Q 39.109375 -1.421875 33.890625 -1.421875 
Q 20.796875 -1.421875 13.15625 6.1875 
Q 5.515625 13.8125 5.515625 26.8125 
Q 5.515625 40.234375 12.765625 48.109375 
Q 20.015625 56 32.328125 56 
Q 43.359375 56 49.78125 48.890625 
Q 56.203125 41.796875 56.203125 29.59375 
z
M 47.21875 32.234375 
Q 47.125 39.59375 43.09375 43.984375 
Q 39.0625 48.390625 32.421875 48.390625 
Q 24.90625 48.390625 20.390625 44.140625 
Q 15.875 39.890625 15.1875 32.171875 
z
" id="DejaVuSans-101"/>
      <path d="M 41.109375 46.296875 
Q 39.59375 47.171875 37.8125 47.578125 
Q 36.03125 48 33.890625 48 
Q 26.265625 48 22.1875 43.046875 
Q 18.109375 38.09375 18.109375 28.8125 
L 18.109375 0 
L 9.078125 0 
L 9.078125 54.6875 
L 18.109375 54.6875 
L 18.109375 46.1875 
Q 20.953125 51.171875 25.484375 53.578125 
Q 30.03125 56 36.53125 56 
Q 37.453125 56 38.578125 55.875 
Q 39.703125 55.765625 41.0625 55.515625 
z
" id="DejaVuSans-114"/>
      <path id="DejaVuSans-32"/>
      <path d="M 48.6875 27.296875 
Q 48.6875 37.203125 44.609375 42.84375 
Q 40.53125 48.484375 33.40625 48.484375 
Q 26.265625 48.484375 22.1875 42.84375 
Q 18.109375 37.203125 18.109375 27.296875 
Q 18.109375 17.390625 22.1875 11.75 
Q 26.265625 6.109375 33.40625 6.109375 
Q 40.53125 6.109375 44.609375 11.75 
Q 48.6875 17.390625 48.6875 27.296875 
z
M 18.109375 46.390625 
Q 20.953125 51.265625 25.265625 53.625 
Q 29.59375 56 35.59375 56 
Q 45.5625 56 51.78125 48.09375 
Q 58.015625 40.1875 58.015625 27.296875 
Q 58.015625 14.40625 51.78125 6.484375 
Q 45.5625 -1.421875 35.59375 -1.421875 
Q 29.59375 -1.421875 25.265625 0.953125 
Q 20.953125 3.328125 18.109375 8.203125 
L 18.109375 0 
L 9.078125 0 
L 9.078125 75.984375 
L 18.109375 75.984375 
z
" id="DejaVuSans-98"/>
      <path d="M 32.171875 -5.078125 
Q 28.375 -14.84375 24.75 -17.8125 
Q 21.140625 -20.796875 15.09375 -20.796875 
L 7.90625 -20.796875 
L 7.90625 -13.28125 
L 13.1875 -13.28125 
Q 16.890625 -13.28125 18.9375 -11.515625 
Q 21 -9.765625 23.484375 -3.21875 
L 25.09375 0.875 
L 2.984375 54.6875 
L 12.5 54.6875 
L 29.59375 11.921875 
L 46.6875 54.6875 
L 56.203125 54.6875 
z
" id="DejaVuSans-121"/>
      <path d="M 34.1875 63.1875 
L 20.796875 26.90625 
L 47.609375 26.90625 
z
M 28.609375 72.90625 
L 39.796875 72.90625 
L 67.578125 0 
L 57.328125 0 
L 50.6875 18.703125 
L 17.828125 18.703125 
L 11.1875 0 
L 0.78125 0 
z
" id="DejaVuSans-65"/>
      <path d="M 45.40625 46.390625 
L 45.40625 75.984375 
L 54.390625 75.984375 
L 54.390625 0 
L 45.40625 0 
L 45.40625 8.203125 
Q 42.578125 3.328125 38.25 0.953125 
Q 33.9375 -1.421875 27.875 -1.421875 
Q 17.96875 -1.421875 11.734375 6.484375 
Q 5.515625 14.40625 5.515625 27.296875 
Q 5.515625 40.1875 11.734375 48.09375 
Q 17.96875 56 27.875 56 
Q 33.9375 56 38.25 53.625 
Q 42.578125 51.265625 45.40625 46.390625 
z
M 14.796875 27.296875 
Q 14.796875 17.390625 18.875 11.75 
Q 22.953125 6.109375 30.078125 6.109375 
Q 37.203125 6.109375 41.296875 11.75 
Q 45.40625 17.390625 45.40625 27.296875 
Q 45.40625 37.203125 41.296875 42.84375 
Q 37.203125 48.484375 30.078125 48.484375 
Q 22.953125 48.484375 18.875 42.84375 
Q 14.796875 37.203125 14.796875 27.296875 
z
" id="DejaVuSans-100"/>
      <path d="M 34.28125 27.484375 
Q 23.390625 27.484375 19.1875 25 
Q 14.984375 22.515625 14.984375 16.5 
Q 14.984375 11.71875 18.140625 8.90625 
Q 21.296875 6.109375 26.703125 6.109375 
Q 34.1875 6.109375 38.703125 11.40625 
Q 43.21875 16.703125 43.21875 25.484375 
L 43.21875 27.484375 
z
M 52.203125 31.203125 
L 52.203125 0 
L 43.21875 0 
L 43.21875 8.296875 
Q 40.140625 3.328125 35.546875 0.953125 
Q 30.953125 -1.421875 24.3125 -1.421875 
Q 15.921875 -1.421875 10.953125 3.296875 
Q 6 8.015625 6 15.921875 
Q 6 25.140625 12.171875 29.828125 
Q 18.359375 34.515625 30.609375 34.515625 
L 43.21875 34.515625 
L 43.21875 35.40625 
Q 43.21875 41.609375 39.140625 45 
Q 35.0625 48.390625 27.6875 48.390625 
Q 23 48.390625 18.546875 47.265625 
Q 14.109375 46.140625 10.015625 43.890625 
L 10.015625 52.203125 
Q 14.9375 54.109375 19.578125 55.046875 
Q 24.21875 56 28.609375 56 
Q 40.484375 56 46.34375 49.84375 
Q 52.203125 43.703125 52.203125 31.203125 
z
" id="DejaVuSans-97"/>
      <path d="M 18.109375 8.203125 
L 18.109375 -20.796875 
L 9.078125 -20.796875 
L 9.078125 54.6875 
L 18.109375 54.6875 
L 18.109375 46.390625 
Q 20.953125 51.265625 25.265625 53.625 
Q 29.59375 56 35.59375 56 
Q 45.5625 56 51.78125 48.09375 
Q 58.015625 40.1875 58.015625 27.296875 
Q 58.015625 14.40625 51.78125 6.484375 
Q 45.5625 -1.421875 35.59375 -1.421875 
Q 29.59375 -1.421875 25.265625 0.953125 
Q 20.953125 3.328125 18.109375 8.203125 
z
M 48.6875 27.296875 
Q 48.6875 37.203125 44.609375 42.84375 
Q 40.53125 48.484375 33.40625 48.484375 
Q 26.265625 48.484375 22.1875 42.84375 
Q 18.109375 37.203125 18.109375 27.296875 
Q 18.109375 17.390625 22.1875 11.75 
Q 26.265625 6.109375 33.40625 6.109375 
Q 40.53125 6.109375 44.609375 11.75 
Q 48.6875 17.390625 48.6875 27.296875 
z
" id="DejaVuSans-112"/>
      <path d="M 2.984375 54.6875 
L 12.5 54.6875 
L 29.59375 8.796875 
L 46.6875 54.6875 
L 56.203125 54.6875 
L 35.6875 0 
L 23.484375 0 
z
" id="DejaVuSans-118"/>
      <path d="M 9.8125 72.90625 
L 19.671875 72.90625 
L 19.671875 8.296875 
L 55.171875 8.296875 
L 55.171875 0 
L 9.8125 0 
z
" id="DejaVuSans-76"/>
      <path d="M 9.8125 72.90625 
L 24.515625 72.90625 
L 43.109375 23.296875 
L 61.8125 72.90625 
L 76.515625 72.90625 
L 76.515625 0 
L 66.890625 0 
L 66.890625 64.015625 
L 48.09375 14.015625 
L 38.1875 14.015625 
L 19.390625 64.015625 
L 19.390625 0 
L 9.8125 0 
z
" id="DejaVuSans-77"/>
      <path d="M 53.515625 70.515625 
L 53.515625 60.890625 
Q 47.90625 63.578125 42.921875 64.890625 
Q 37.9375 66.21875 33.296875 66.21875 
Q 25.25 66.21875 20.875 63.09375 
Q 16.5 59.96875 16.5 54.203125 
Q 16.5 49.359375 19.40625 46.890625 
Q 22.3125 44.4375 30.421875 42.921875 
L 36.375 41.703125 
Q 47.40625 39.59375 52.65625 34.296875 
Q 57.90625 29 57.90625 20.125 
Q 57.90625 9.515625 50.796875 4.046875 
Q 43.703125 -1.421875 29.984375 -1.421875 
Q 24.8125 -1.421875 18.96875 -0.25 
Q 13.140625 0.921875 6.890625 3.21875 
L 6.890625 13.375 
Q 12.890625 10.015625 18.65625 8.296875 
Q 24.421875 6.59375 29.984375 6.59375 
Q 38.421875 6.59375 43.015625 9.90625 
Q 47.609375 13.234375 47.609375 19.390625 
Q 47.609375 24.75 44.3125 27.78125 
Q 41.015625 30.8125 33.5 32.328125 
L 27.484375 33.5 
Q 16.453125 35.6875 11.515625 40.375 
Q 6.59375 45.0625 6.59375 53.421875 
Q 6.59375 63.09375 13.40625 68.65625 
Q 20.21875 74.21875 32.171875 74.21875 
Q 37.3125 74.21875 42.625 73.28125 
Q 47.953125 72.359375 53.515625 70.515625 
z
" id="DejaVuSans-83"/>
     </defs>
     <use xlink:href="#DejaVuSans-70"/>
     <use x="50.269531" xlink:href="#DejaVuSans-105"/>
     <use x="78.052734" xlink:href="#DejaVuSans-108"/>
     <use x="105.835938" xlink:href="#DejaVuSans-116"/>
     <use x="145.044922" xlink:href="#DejaVuSans-101"/>
     <use x="206.568359" xlink:href="#DejaVuSans-114"/>
     <use x="247.681641" xlink:href="#DejaVuSans-32"/>
     <use x="279.46875" xlink:href="#DejaVuSans-98"/>
     <use x="342.945312" xlink:href="#DejaVuSans-121"/>
     <use x="402.125" xlink:href="#DejaVuSans-32"/>
     <use x="433.912109" xlink:href="#DejaVuSans-65"/>
     <use x="500.570312" xlink:href="#DejaVuSans-100"/>
     <use x="564.046875" xlink:href="#DejaVuSans-97"/>
     <use x="625.326172" xlink:href="#DejaVuSans-112"/>
     <use x="688.802734" xlink:href="#DejaVuSans-116"/>
     <use x="728.011719" xlink:href="#DejaVuSans-105"/>
     <use x="755.794922" xlink:href="#DejaVuSans-118"/>
     <use x="814.974609" xlink:href="#DejaVuSans-101"/>
     <use x="876.498047" xlink:href="#DejaVuSans-32"/>
     <use x="908.285156" xlink:href="#DejaVuSans-76"/>
     <use x="963.998047" xlink:href="#DejaVuSans-77"/>
     <use x="1050.277344" xlink:href="#DejaVuSans-83"/>
    </g>
   </g>
  </g>
 </g>
 <defs>
  <clipPath id="p0e51b9de67">
   <rect height="266.112" width="357.12" x="57.6" y="41.472"/>
  </clipPath>
 </defs>
</svg>
