<?xml version="1.0" encoding="utf-8" standalone="no"?>
<!DOCTYPE svg PUBLIC "-//W3C//DTD SVG 1.1//EN"
  "http://www.w3.org/Graphics/SVG/1.1/DTD/svg11.dtd">
<!-- Created with matplotlib (https://matplotlib.org/) -->
<svg height="345.6pt" version="1.1" viewBox="0 0 460.8 345.6" width="460.8pt" xmlns="http://www.w3.org/2000/svg" xmlns:xlink="http://www.w3.org/1999/xlink">
 <metadata>
  <rdf:RDF xmlns:cc="http://creativecommons.org/ns#" xmlns:dc="http://purl.org/dc/elements/1.1/" xmlns:rdf="http://www.w3.org/1999/02/22-rdf-syntax-ns#">
   <cc:Work>
    <dc:type rdf:resource="http://purl.org/dc/dcmitype/StillImage"/>
    <dc:date>2021-11-15T03:39:18.854568</dc:date>
    <dc:format>image/svg+xml</dc:format>
    <dc:creator>
     <cc:Agent>
      <dc:title>Matplotlib v3.3.2, https://matplotlib.org/</dc:title>
     </cc:Agent>
    </dc:creator>
   </cc:Work>
  </rdf:RDF>
 </metadata>
 <defs>
  <style type="text/css">*{stroke-linecap:butt;stroke-linejoin:round;}</style>
 </defs>
 <g id="figure_1">
  <g id="patch_1">
   <path d="M 0 345.6 
L 460.8 345.6 
L 460.8 0 
L 0 0 
z
" style="fill:#ffffff;"/>
  </g>
  <g id="axes_1">
   <g id="patch_2">
    <path d="M 57.6 307.584 
L 414.72 307.584 
L 414.72 41.472 
L 57.6 41.472 
z
" style="fill:#ffffff;"/>
   </g>
   <g id="matplotlib.axis_1">
    <g id="xtick_1">
     <g id="line2d_1">
      <defs>
       <path d="M 0 0 
L 0 3.5 
" id="m8a8e77885d" style="stroke:#000000;stroke-width:0.8;"/>
      </defs>
      <g>
       <use style="stroke:#000000;stroke-width:0.8;" x="73.832727" xlink:href="#m8a8e77885d" y="307.584"/>
      </g>
     </g>
     <g id="text_1">
      <!-- 0.0 -->
      <g transform="translate(65.881165 322.182437)scale(0.1 -0.1)">
       <defs>
        <path d="M 31.78125 66.40625 
Q 24.171875 66.40625 20.328125 58.90625 
Q 16.5 51.421875 16.5 36.375 
Q 16.5 21.390625 20.328125 13.890625 
Q 24.171875 6.390625 31.78125 6.390625 
Q 39.453125 6.390625 43.28125 13.890625 
Q 47.125 21.390625 47.125 36.375 
Q 47.125 51.421875 43.28125 58.90625 
Q 39.453125 66.40625 31.78125 66.40625 
z
M 31.78125 74.21875 
Q 44.046875 74.21875 50.515625 64.515625 
Q 56.984375 54.828125 56.984375 36.375 
Q 56.984375 17.96875 50.515625 8.265625 
Q 44.046875 -1.421875 31.78125 -1.421875 
Q 19.53125 -1.421875 13.0625 8.265625 
Q 6.59375 17.96875 6.59375 36.375 
Q 6.59375 54.828125 13.0625 64.515625 
Q 19.53125 74.21875 31.78125 74.21875 
z
" id="DejaVuSans-48"/>
        <path d="M 10.6875 12.40625 
L 21 12.40625 
L 21 0 
L 10.6875 0 
z
" id="DejaVuSans-46"/>
       </defs>
       <use xlink:href="#DejaVuSans-48"/>
       <use x="63.623047" xlink:href="#DejaVuSans-46"/>
       <use x="95.410156" xlink:href="#DejaVuSans-48"/>
      </g>
     </g>
    </g>
    <g id="xtick_2">
     <g id="line2d_2">
      <g>
       <use style="stroke:#000000;stroke-width:0.8;" x="114.422663" xlink:href="#m8a8e77885d" y="307.584"/>
      </g>
     </g>
     <g id="text_2">
      <!-- 2.5 -->
      <g transform="translate(106.471101 322.182437)scale(0.1 -0.1)">
       <defs>
        <path d="M 19.1875 8.296875 
L 53.609375 8.296875 
L 53.609375 0 
L 7.328125 0 
L 7.328125 8.296875 
Q 12.9375 14.109375 22.625 23.890625 
Q 32.328125 33.6875 34.8125 36.53125 
Q 39.546875 41.84375 41.421875 45.53125 
Q 43.3125 49.21875 43.3125 52.78125 
Q 43.3125 58.59375 39.234375 62.25 
Q 35.15625 65.921875 28.609375 65.921875 
Q 23.96875 65.921875 18.8125 64.3125 
Q 13.671875 62.703125 7.8125 59.421875 
L 7.8125 69.390625 
Q 13.765625 71.78125 18.9375 73 
Q 24.125 74.21875 28.421875 74.21875 
Q 39.75 74.21875 46.484375 68.546875 
Q 53.21875 62.890625 53.21875 53.421875 
Q 53.21875 48.921875 51.53125 44.890625 
Q 49.859375 40.875 45.40625 35.40625 
Q 44.1875 33.984375 37.640625 27.21875 
Q 31.109375 20.453125 19.1875 8.296875 
z
" id="DejaVuSans-50"/>
        <path d="M 10.796875 72.90625 
L 49.515625 72.90625 
L 49.515625 64.59375 
L 19.828125 64.59375 
L 19.828125 46.734375 
Q 21.96875 47.46875 24.109375 47.828125 
Q 26.265625 48.1875 28.421875 48.1875 
Q 40.625 48.1875 47.75 41.5 
Q 54.890625 34.8125 54.890625 23.390625 
Q 54.890625 11.625 47.5625 5.09375 
Q 40.234375 -1.421875 26.90625 -1.421875 
Q 22.3125 -1.421875 17.546875 -0.640625 
Q 12.796875 0.140625 7.71875 1.703125 
L 7.71875 11.625 
Q 12.109375 9.234375 16.796875 8.0625 
Q 21.484375 6.890625 26.703125 6.890625 
Q 35.15625 6.890625 40.078125 11.328125 
Q 45.015625 15.765625 45.015625 23.390625 
Q 45.015625 31 40.078125 35.4375 
Q 35.15625 39.890625 26.703125 39.890625 
Q 22.75 39.890625 18.8125 39.015625 
Q 14.890625 38.140625 10.796875 36.28125 
z
" id="DejaVuSans-53"/>
       </defs>
       <use xlink:href="#DejaVuSans-50"/>
       <use x="63.623047" xlink:href="#DejaVuSans-46"/>
       <use x="95.410156" xlink:href="#DejaVuSans-53"/>
      </g>
     </g>
    </g>
    <g id="xtick_3">
     <g id="line2d_3">
      <g>
       <use style="stroke:#000000;stroke-width:0.8;" x="155.0126" xlink:href="#m8a8e77885d" y="307.584"/>
      </g>
     </g>
     <g id="text_3">
      <!-- 5.0 -->
      <g transform="translate(147.061037 322.182437)scale(0.1 -0.1)">
       <use xlink:href="#DejaVuSans-53"/>
       <use x="63.623047" xlink:href="#DejaVuSans-46"/>
       <use x="95.410156" xlink:href="#DejaVuSans-48"/>
      </g>
     </g>
    </g>
    <g id="xtick_4">
     <g id="line2d_4">
      <g>
       <use style="stroke:#000000;stroke-width:0.8;" x="195.602536" xlink:href="#m8a8e77885d" y="307.584"/>
      </g>
     </g>
     <g id="text_4">
      <!-- 7.5 -->
      <g transform="translate(187.650973 322.182437)scale(0.1 -0.1)">
       <defs>
        <path d="M 8.203125 72.90625 
L 55.078125 72.90625 
L 55.078125 68.703125 
L 28.609375 0 
L 18.3125 0 
L 43.21875 64.59375 
L 8.203125 64.59375 
z
" id="DejaVuSans-55"/>
       </defs>
       <use xlink:href="#DejaVuSans-55"/>
       <use x="63.623047" xlink:href="#DejaVuSans-46"/>
       <use x="95.410156" xlink:href="#DejaVuSans-53"/>
      </g>
     </g>
    </g>
    <g id="xtick_5">
     <g id="line2d_5">
      <g>
       <use style="stroke:#000000;stroke-width:0.8;" x="236.192472" xlink:href="#m8a8e77885d" y="307.584"/>
      </g>
     </g>
     <g id="text_5">
      <!-- 10.0 -->
      <g transform="translate(225.059659 322.182437)scale(0.1 -0.1)">
       <defs>
        <path d="M 12.40625 8.296875 
L 28.515625 8.296875 
L 28.515625 63.921875 
L 10.984375 60.40625 
L 10.984375 69.390625 
L 28.421875 72.90625 
L 38.28125 72.90625 
L 38.28125 8.296875 
L 54.390625 8.296875 
L 54.390625 0 
L 12.40625 0 
z
" id="DejaVuSans-49"/>
       </defs>
       <use xlink:href="#DejaVuSans-49"/>
       <use x="63.623047" xlink:href="#DejaVuSans-48"/>
       <use x="127.246094" xlink:href="#DejaVuSans-46"/>
       <use x="159.033203" xlink:href="#DejaVuSans-48"/>
      </g>
     </g>
    </g>
    <g id="xtick_6">
     <g id="line2d_6">
      <g>
       <use style="stroke:#000000;stroke-width:0.8;" x="276.782408" xlink:href="#m8a8e77885d" y="307.584"/>
      </g>
     </g>
     <g id="text_6">
      <!-- 12.5 -->
      <g transform="translate(265.649596 322.182437)scale(0.1 -0.1)">
       <use xlink:href="#DejaVuSans-49"/>
       <use x="63.623047" xlink:href="#DejaVuSans-50"/>
       <use x="127.246094" xlink:href="#DejaVuSans-46"/>
       <use x="159.033203" xlink:href="#DejaVuSans-53"/>
      </g>
     </g>
    </g>
    <g id="xtick_7">
     <g id="line2d_7">
      <g>
       <use style="stroke:#000000;stroke-width:0.8;" x="317.372344" xlink:href="#m8a8e77885d" y="307.584"/>
      </g>
     </g>
     <g id="text_7">
      <!-- 15.0 -->
      <g transform="translate(306.239532 322.182437)scale(0.1 -0.1)">
       <use xlink:href="#DejaVuSans-49"/>
       <use x="63.623047" xlink:href="#DejaVuSans-53"/>
       <use x="127.246094" xlink:href="#DejaVuSans-46"/>
       <use x="159.033203" xlink:href="#DejaVuSans-48"/>
      </g>
     </g>
    </g>
    <g id="xtick_8">
     <g id="line2d_8">
      <g>
       <use style="stroke:#000000;stroke-width:0.8;" x="357.96228" xlink:href="#m8a8e77885d" y="307.584"/>
      </g>
     </g>
     <g id="text_8">
      <!-- 17.5 -->
      <g transform="translate(346.829468 322.182437)scale(0.1 -0.1)">
       <use xlink:href="#DejaVuSans-49"/>
       <use x="63.623047" xlink:href="#DejaVuSans-55"/>
       <use x="127.246094" xlink:href="#DejaVuSans-46"/>
       <use x="159.033203" xlink:href="#DejaVuSans-53"/>
      </g>
     </g>
    </g>
    <g id="xtick_9">
     <g id="line2d_9">
      <g>
       <use style="stroke:#000000;stroke-width:0.8;" x="398.552217" xlink:href="#m8a8e77885d" y="307.584"/>
      </g>
     </g>
     <g id="text_9">
      <!-- 20.0 -->
      <g transform="translate(387.419404 322.182437)scale(0.1 -0.1)">
       <use xlink:href="#DejaVuSans-50"/>
       <use x="63.623047" xlink:href="#DejaVuSans-48"/>
       <use x="127.246094" xlink:href="#DejaVuSans-46"/>
       <use x="159.033203" xlink:href="#DejaVuSans-48"/>
      </g>
     </g>
    </g>
    <g id="text_10">
     <!-- time -->
     <g transform="translate(224.863906 335.860562)scale(0.1 -0.1)">
      <defs>
       <path d="M 18.3125 70.21875 
L 18.3125 54.6875 
L 36.8125 54.6875 
L 36.8125 47.703125 
L 18.3125 47.703125 
L 18.3125 18.015625 
Q 18.3125 11.328125 20.140625 9.421875 
Q 21.96875 7.515625 27.59375 7.515625 
L 36.8125 7.515625 
L 36.8125 0 
L 27.59375 0 
Q 17.1875 0 13.234375 3.875 
Q 9.28125 7.765625 9.28125 18.015625 
L 9.28125 47.703125 
L 2.6875 47.703125 
L 2.6875 54.6875 
L 9.28125 54.6875 
L 9.28125 70.21875 
z
" id="DejaVuSans-116"/>
       <path d="M 9.421875 54.6875 
L 18.40625 54.6875 
L 18.40625 0 
L 9.421875 0 
z
M 9.421875 75.984375 
L 18.40625 75.984375 
L 18.40625 64.59375 
L 9.421875 64.59375 
z
" id="DejaVuSans-105"/>
       <path d="M 52 44.1875 
Q 55.375 50.25 60.0625 53.125 
Q 64.75 56 71.09375 56 
Q 79.640625 56 84.28125 50.015625 
Q 88.921875 44.046875 88.921875 33.015625 
L 88.921875 0 
L 79.890625 0 
L 79.890625 32.71875 
Q 79.890625 40.578125 77.09375 44.375 
Q 74.3125 48.1875 68.609375 48.1875 
Q 61.625 48.1875 57.5625 43.546875 
Q 53.515625 38.921875 53.515625 30.90625 
L 53.515625 0 
L 44.484375 0 
L 44.484375 32.71875 
Q 44.484375 40.625 41.703125 44.40625 
Q 38.921875 48.1875 33.109375 48.1875 
Q 26.21875 48.1875 22.15625 43.53125 
Q 18.109375 38.875 18.109375 30.90625 
L 18.109375 0 
L 9.078125 0 
L 9.078125 54.6875 
L 18.109375 54.6875 
L 18.109375 46.1875 
Q 21.1875 51.21875 25.484375 53.609375 
Q 29.78125 56 35.6875 56 
Q 41.65625 56 45.828125 52.96875 
Q 50 49.953125 52 44.1875 
z
" id="DejaVuSans-109"/>
       <path d="M 56.203125 29.59375 
L 56.203125 25.203125 
L 14.890625 25.203125 
Q 15.484375 15.921875 20.484375 11.0625 
Q 25.484375 6.203125 34.421875 6.203125 
Q 39.59375 6.203125 44.453125 7.46875 
Q 49.3125 8.734375 54.109375 11.28125 
L 54.109375 2.78125 
Q 49.265625 0.734375 44.1875 -0.34375 
Q 39.109375 -1.421875 33.890625 -1.421875 
Q 20.796875 -1.421875 13.15625 6.1875 
Q 5.515625 13.8125 5.515625 26.8125 
Q 5.515625 40.234375 12.765625 48.109375 
Q 20.015625 56 32.328125 56 
Q 43.359375 56 49.78125 48.890625 
Q 56.203125 41.796875 56.203125 29.59375 
z
M 47.21875 32.234375 
Q 47.125 39.59375 43.09375 43.984375 
Q 39.0625 48.390625 32.421875 48.390625 
Q 24.90625 48.390625 20.390625 44.140625 
Q 15.875 39.890625 15.1875 32.171875 
z
" id="DejaVuSans-101"/>
      </defs>
      <use xlink:href="#DejaVuSans-116"/>
      <use x="39.208984" xlink:href="#DejaVuSans-105"/>
      <use x="66.992188" xlink:href="#DejaVuSans-109"/>
      <use x="164.404297" xlink:href="#DejaVuSans-101"/>
     </g>
    </g>
   </g>
   <g id="matplotlib.axis_2">
    <g id="ytick_1">
     <g id="line2d_10">
      <defs>
       <path d="M 0 0 
L -3.5 0 
" id="me6a62708f2" style="stroke:#000000;stroke-width:0.8;"/>
      </defs>
      <g>
       <use style="stroke:#000000;stroke-width:0.8;" x="57.6" xlink:href="#me6a62708f2" y="295.488"/>
      </g>
     </g>
     <g id="text_11">
      <!-- 0 -->
      <g transform="translate(44.2375 299.287219)scale(0.1 -0.1)">
       <use xlink:href="#DejaVuSans-48"/>
      </g>
     </g>
    </g>
    <g id="ytick_2">
     <g id="line2d_11">
      <g>
       <use style="stroke:#000000;stroke-width:0.8;" x="57.6" xlink:href="#me6a62708f2" y="250.128113"/>
      </g>
     </g>
     <g id="text_12">
      <!-- 1 -->
      <g transform="translate(44.2375 253.927331)scale(0.1 -0.1)">
       <use xlink:href="#DejaVuSans-49"/>
      </g>
     </g>
    </g>
    <g id="ytick_3">
     <g id="line2d_12">
      <g>
       <use style="stroke:#000000;stroke-width:0.8;" x="57.6" xlink:href="#me6a62708f2" y="204.768225"/>
      </g>
     </g>
     <g id="text_13">
      <!-- 2 -->
      <g transform="translate(44.2375 208.567444)scale(0.1 -0.1)">
       <use xlink:href="#DejaVuSans-50"/>
      </g>
     </g>
    </g>
    <g id="ytick_4">
     <g id="line2d_13">
      <g>
       <use style="stroke:#000000;stroke-width:0.8;" x="57.6" xlink:href="#me6a62708f2" y="159.408338"/>
      </g>
     </g>
     <g id="text_14">
      <!-- 3 -->
      <g transform="translate(44.2375 163.207557)scale(0.1 -0.1)">
       <defs>
        <path d="M 40.578125 39.3125 
Q 47.65625 37.796875 51.625 33 
Q 55.609375 28.21875 55.609375 21.1875 
Q 55.609375 10.40625 48.1875 4.484375 
Q 40.765625 -1.421875 27.09375 -1.421875 
Q 22.515625 -1.421875 17.65625 -0.515625 
Q 12.796875 0.390625 7.625 2.203125 
L 7.625 11.71875 
Q 11.71875 9.328125 16.59375 8.109375 
Q 21.484375 6.890625 26.8125 6.890625 
Q 36.078125 6.890625 40.9375 10.546875 
Q 45.796875 14.203125 45.796875 21.1875 
Q 45.796875 27.640625 41.28125 31.265625 
Q 36.765625 34.90625 28.71875 34.90625 
L 20.21875 34.90625 
L 20.21875 43.015625 
L 29.109375 43.015625 
Q 36.375 43.015625 40.234375 45.921875 
Q 44.09375 48.828125 44.09375 54.296875 
Q 44.09375 59.90625 40.109375 62.90625 
Q 36.140625 65.921875 28.71875 65.921875 
Q 24.65625 65.921875 20.015625 65.03125 
Q 15.375 64.15625 9.8125 62.3125 
L 9.8125 71.09375 
Q 15.4375 72.65625 20.34375 73.4375 
Q 25.25 74.21875 29.59375 74.21875 
Q 40.828125 74.21875 47.359375 69.109375 
Q 53.90625 64.015625 53.90625 55.328125 
Q 53.90625 49.265625 50.4375 45.09375 
Q 46.96875 40.921875 40.578125 39.3125 
z
" id="DejaVuSans-51"/>
       </defs>
       <use xlink:href="#DejaVuSans-51"/>
      </g>
     </g>
    </g>
    <g id="ytick_5">
     <g id="line2d_14">
      <g>
       <use style="stroke:#000000;stroke-width:0.8;" x="57.6" xlink:href="#me6a62708f2" y="114.048451"/>
      </g>
     </g>
     <g id="text_15">
      <!-- 4 -->
      <g transform="translate(44.2375 117.847669)scale(0.1 -0.1)">
       <defs>
        <path d="M 37.796875 64.3125 
L 12.890625 25.390625 
L 37.796875 25.390625 
z
M 35.203125 72.90625 
L 47.609375 72.90625 
L 47.609375 25.390625 
L 58.015625 25.390625 
L 58.015625 17.1875 
L 47.609375 17.1875 
L 47.609375 0 
L 37.796875 0 
L 37.796875 17.1875 
L 4.890625 17.1875 
L 4.890625 26.703125 
z
" id="DejaVuSans-52"/>
       </defs>
       <use xlink:href="#DejaVuSans-52"/>
      </g>
     </g>
    </g>
    <g id="ytick_6">
     <g id="line2d_15">
      <g>
       <use style="stroke:#000000;stroke-width:0.8;" x="57.6" xlink:href="#me6a62708f2" y="68.688563"/>
      </g>
     </g>
     <g id="text_16">
      <!-- 5 -->
      <g transform="translate(44.2375 72.487782)scale(0.1 -0.1)">
       <use xlink:href="#DejaVuSans-53"/>
      </g>
     </g>
    </g>
    <g id="text_17">
     <!-- Amplitude -->
     <g transform="translate(38.157812 200.150656)rotate(-90)scale(0.1 -0.1)">
      <defs>
       <path d="M 34.1875 63.1875 
L 20.796875 26.90625 
L 47.609375 26.90625 
z
M 28.609375 72.90625 
L 39.796875 72.90625 
L 67.578125 0 
L 57.328125 0 
L 50.6875 18.703125 
L 17.828125 18.703125 
L 11.1875 0 
L 0.78125 0 
z
" id="DejaVuSans-65"/>
       <path d="M 18.109375 8.203125 
L 18.109375 -20.796875 
L 9.078125 -20.796875 
L 9.078125 54.6875 
L 18.109375 54.6875 
L 18.109375 46.390625 
Q 20.953125 51.265625 25.265625 53.625 
Q 29.59375 56 35.59375 56 
Q 45.5625 56 51.78125 48.09375 
Q 58.015625 40.1875 58.015625 27.296875 
Q 58.015625 14.40625 51.78125 6.484375 
Q 45.5625 -1.421875 35.59375 -1.421875 
Q 29.59375 -1.421875 25.265625 0.953125 
Q 20.953125 3.328125 18.109375 8.203125 
z
M 48.6875 27.296875 
Q 48.6875 37.203125 44.609375 42.84375 
Q 40.53125 48.484375 33.40625 48.484375 
Q 26.265625 48.484375 22.1875 42.84375 
Q 18.109375 37.203125 18.109375 27.296875 
Q 18.109375 17.390625 22.1875 11.75 
Q 26.265625 6.109375 33.40625 6.109375 
Q 40.53125 6.109375 44.609375 11.75 
Q 48.6875 17.390625 48.6875 27.296875 
z
" id="DejaVuSans-112"/>
       <path d="M 9.421875 75.984375 
L 18.40625 75.984375 
L 18.40625 0 
L 9.421875 0 
z
" id="DejaVuSans-108"/>
       <path d="M 8.5 21.578125 
L 8.5 54.6875 
L 17.484375 54.6875 
L 17.484375 21.921875 
Q 17.484375 14.15625 20.5 10.265625 
Q 23.53125 6.390625 29.59375 6.390625 
Q 36.859375 6.390625 41.078125 11.03125 
Q 45.3125 15.671875 45.3125 23.6875 
L 45.3125 54.6875 
L 54.296875 54.6875 
L 54.296875 0 
L 45.3125 0 
L 45.3125 8.40625 
Q 42.046875 3.421875 37.71875 1 
Q 33.40625 -1.421875 27.6875 -1.421875 
Q 18.265625 -1.421875 13.375 4.4375 
Q 8.5 10.296875 8.5 21.578125 
z
M 31.109375 56 
z
" id="DejaVuSans-117"/>
       <path d="M 45.40625 46.390625 
L 45.40625 75.984375 
L 54.390625 75.984375 
L 54.390625 0 
L 45.40625 0 
L 45.40625 8.203125 
Q 42.578125 3.328125 38.25 0.953125 
Q 33.9375 -1.421875 27.875 -1.421875 
Q 17.96875 -1.421875 11.734375 6.484375 
Q 5.515625 14.40625 5.515625 27.296875 
Q 5.515625 40.1875 11.734375 48.09375 
Q 17.96875 56 27.875 56 
Q 33.9375 56 38.25 53.625 
Q 42.578125 51.265625 45.40625 46.390625 
z
M 14.796875 27.296875 
Q 14.796875 17.390625 18.875 11.75 
Q 22.953125 6.109375 30.078125 6.109375 
Q 37.203125 6.109375 41.296875 11.75 
Q 45.40625 17.390625 45.40625 27.296875 
Q 45.40625 37.203125 41.296875 42.84375 
Q 37.203125 48.484375 30.078125 48.484375 
Q 22.953125 48.484375 18.875 42.84375 
Q 14.796875 37.203125 14.796875 27.296875 
z
" id="DejaVuSans-100"/>
      </defs>
      <use xlink:href="#DejaVuSans-65"/>
      <use x="68.408203" xlink:href="#DejaVuSans-109"/>
      <use x="165.820312" xlink:href="#DejaVuSans-112"/>
      <use x="229.296875" xlink:href="#DejaVuSans-108"/>
      <use x="257.080078" xlink:href="#DejaVuSans-105"/>
      <use x="284.863281" xlink:href="#DejaVuSans-116"/>
      <use x="324.072266" xlink:href="#DejaVuSans-117"/>
      <use x="387.451172" xlink:href="#DejaVuSans-100"/>
      <use x="450.927734" xlink:href="#DejaVuSans-101"/>
     </g>
    </g>
    <g id="text_18">
     <!-- 1e−5 -->
     <g transform="translate(57.6 38.472)scale(0.1 -0.1)">
      <defs>
       <path d="M 10.59375 35.5 
L 73.1875 35.5 
L 73.1875 27.203125 
L 10.59375 27.203125 
z
" id="DejaVuSans-8722"/>
      </defs>
      <use xlink:href="#DejaVuSans-49"/>
      <use x="63.623047" xlink:href="#DejaVuSans-101"/>
      <use x="125.146484" xlink:href="#DejaVuSans-8722"/>
      <use x="208.935547" xlink:href="#DejaVuSans-53"/>
     </g>
    </g>
   </g>
   <g id="line2d_16">
    <path clip-path="url(#p5a0a322375)" d="M 73.832727 295.488 
L 91.107804 295.415266 
L 91.237692 295.395266 
L 91.36758 295.443619 
L 91.497467 295.245111 
L 91.627355 295.114907 
L 91.757243 295.227966 
L 91.887131 294.87078 
L 92.017019 294.497636 
L 92.146906 294.715835 
L 92.21185 294.614106 
L 92.406682 293.519341 
L 92.471626 293.661614 
L 92.601514 293.901845 
L 92.796345 292.44444 
L 92.861289 292.613033 
L 92.991177 293.282016 
L 93.121065 292.336828 
L 93.186009 291.848917 
L 93.250953 292.038003 
L 93.445784 293.262783 
L 93.575672 292.366261 
L 93.640616 292.562198 
L 93.835448 294.433981 
L 93.965336 294.052145 
L 94.03028 294.204222 
L 94.225111 295.48157 
L 94.419943 295.487461 
L 94.484887 295.365259 
L 94.87455 291.192766 
L 95.134326 279.785831 
L 95.19927 279.815983 
L 95.329157 268.681018 
L 95.523989 247.524645 
L 95.588933 249.720913 
L 95.653877 246.777743 
L 95.913653 184.787631 
L 95.978596 197.127098 
L 96.04354 203.27446 
L 96.108484 182.651243 
L 96.303316 53.568 
L 96.498148 276.296874 
L 96.628035 54.421168 
L 96.692979 58.031187 
L 96.887811 203.987384 
L 97.017699 185.228447 
L 97.082643 187.258468 
L 97.342418 250.04463 
L 97.407362 247.333792 
L 97.472306 247.811865 
L 97.797026 280.128052 
L 97.861969 280.252156 
L 98.186689 292.638218 
L 98.251633 292.440006 
L 98.381521 294.37504 
L 98.511408 295.487647 
L 98.771184 295.414015 
L 98.966016 294.01006 
L 99.03096 294.30975 
L 99.095904 294.560452 
L 99.160847 294.380601 
L 99.355679 292.376982 
L 99.550511 293.452374 
L 99.745343 291.534564 
L 99.810286 291.891385 
L 100.005118 293.339205 
L 100.135006 293.079361 
L 100.394782 294.711607 
L 100.589613 293.391343 
L 100.654557 293.536025 
L 100.784445 293.980952 
L 100.979277 293.550314 
L 101.174108 294.581389 
L 101.239052 294.448418 
L 101.36894 293.798549 
L 101.433884 293.935836 
L 101.563772 294.656001 
L 101.628716 294.645302 
L 101.823547 294.001613 
L 102.018379 294.905633 
L 102.53793 293.584748 
L 102.602874 294.911635 
L 102.667818 294.839035 
L 102.797706 261.689046 
L 102.927594 229.650343 
L 103.187369 295.416459 
L 103.252313 294.163714 
L 103.317257 294.387778 
L 103.447145 295.462525 
L 103.512089 295.451227 
L 103.70692 294.681518 
L 103.771864 294.892253 
L 103.901752 295.18828 
L 104.096584 294.878377 
L 104.161528 294.963512 
L 104.291415 295.082217 
L 104.486247 294.895436 
L 104.746023 295.149717 
L 104.87591 295.066501 
L 105.135686 295.311376 
L 105.330518 295.172047 
L 105.590293 295.322778 
L 105.785125 295.36164 
L 106.044901 295.449363 
L 106.954115 295.417588 
L 107.668498 295.083971 
L 108.058161 295.158889 
L 108.382881 295.461359 
L 108.577713 295.442943 
L 109.227152 295.301181 
L 110.590973 295.487915 
L 116.6957 295.400718 
L 116.955475 295.194772 
L 117.085363 295.183577 
L 117.280195 294.615159 
L 117.345139 294.657097 
L 117.475027 294.86672 
L 117.669858 294.457842 
L 117.734802 294.518843 
L 117.86469 294.791592 
L 117.929634 294.665746 
L 118.18941 293.506976 
L 118.319297 294.165493 
L 118.449185 295.410331 
L 118.514129 291.498598 
L 118.708961 231.841961 
L 118.773905 232.915238 
L 119.03368 295.029182 
L 119.098624 293.79412 
L 119.163568 294.365522 
L 119.293456 295.427455 
L 119.3584 295.382545 
L 119.553231 294.856694 
L 119.683119 295.171244 
L 119.748063 295.112367 
L 119.877951 294.717011 
L 119.942895 294.741562 
L 120.137726 295.162778 
L 120.332558 295.016992 
L 120.592334 295.178651 
L 120.722222 295.12433 
L 120.981997 295.223188 
L 121.111885 295.243926 
L 121.306717 295.424244 
L 121.566492 295.250731 
L 121.761324 295.46724 
L 122.345819 295.470897 
L 122.800426 295.450833 
L 122.995258 295.334877 
L 123.255034 295.187645 
L 123.514809 295.002081 
L 123.709641 294.865033 
L 123.904473 295.107985 
L 124.229192 295.469838 
L 124.553912 295.471678 
L 124.878631 295.277654 
L 125.073463 295.29297 
L 125.20335 295.326031 
L 125.463126 295.451051 
L 125.722902 295.347395 
L 125.917733 295.486511 
L 131.113245 295.412081 
L 131.243133 295.396911 
L 131.437965 295.472086 
L 131.69774 295.337074 
L 131.957516 295.04296 
L 132.087404 294.882906 
L 132.217291 294.643239 
L 132.282235 294.697646 
L 132.412123 294.88777 
L 132.542011 294.568055 
L 132.671899 294.242313 
L 132.86673 294.650227 
L 132.996618 294.095068 
L 133.19145 293.41649 
L 133.321338 294.675244 
L 133.386282 295.487538 
L 133.451226 292.761105 
L 133.581113 255.983719 
L 133.711001 225.515742 
L 133.970777 295.363624 
L 134.035721 293.679557 
L 134.100664 293.843724 
L 134.295496 295.420958 
L 134.490328 294.467022 
L 134.555272 294.706822 
L 134.68516 295.116679 
L 134.879991 294.643834 
L 134.944935 294.72219 
L 135.139767 294.975543 
L 135.269655 294.867062 
L 135.52943 295.1284 
L 135.659318 294.947374 
L 135.724262 295.000797 
L 135.919094 295.306029 
L 136.178869 295.258692 
L 136.438645 295.354884 
L 137.153028 295.487976 
L 137.867411 295.389082 
L 138.776625 294.937205 
L 139.101345 295.453931 
L 139.296176 295.465406 
L 139.815728 295.341156 
L 140.075503 295.374946 
L 140.335279 295.399569 
L 140.85483 295.464822 
L 141.179549 295.483985 
L 142.997979 295.479835 
L 144.102025 295.484975 
L 146.569893 295.465199 
L 146.829668 295.487006 
L 147.544051 295.375624 
L 147.868771 295.330227 
L 147.998659 295.219212 
L 148.19349 294.848865 
L 148.388322 295.134876 
L 148.453266 295.073487 
L 148.648098 294.596947 
L 148.842929 294.833315 
L 149.232593 293.869402 
L 149.297537 294.06172 
L 149.427424 295.389129 
L 149.492368 290.701172 
L 149.6872 235.490445 
L 149.752144 242.76255 
L 149.946976 295.253368 
L 150.076863 294.24415 
L 150.271695 295.471796 
L 150.336639 295.370153 
L 150.466527 294.787377 
L 150.531471 294.877537 
L 150.661358 295.213991 
L 150.726302 295.160554 
L 150.85619 294.876101 
L 150.921134 294.912585 
L 151.051022 295.104817 
L 151.115966 295.059809 
L 151.245854 294.850148 
L 151.310797 294.902468 
L 151.505629 295.148547 
L 151.700461 294.997666 
L 151.895293 295.224683 
L 152.090124 295.126747 
L 152.3499 295.359555 
L 152.544731 295.293941 
L 152.804507 295.433429 
L 153.713722 295.411272 
L 154.428105 294.872036 
L 154.622936 294.932042 
L 154.752824 294.92181 
L 155.207431 295.487843 
L 156.18159 295.258679 
L 156.506309 295.411942 
L 161.117326 295.48713 
L 163.84497 295.484484 
L 165.01396 295.422844 
L 165.273735 295.311816 
L 165.468567 295.370182 
L 165.728343 295.02647 
L 165.793287 295.114124 
L 165.923174 295.14603 
L 166.118006 294.612564 
L 166.18295 294.70107 
L 166.312838 294.974271 
L 166.442726 294.670594 
L 166.767445 293.56371 
L 166.897333 295.404635 
L 166.962277 293.442251 
L 167.157109 239.839156 
L 167.222052 242.018506 
L 167.416884 295.004924 
L 167.481828 294.825332 
L 167.546772 294.05468 
L 167.741604 295.486453 
L 167.806547 295.439718 
L 168.001379 294.802095 
L 168.131267 295.173243 
L 168.196211 295.142343 
L 168.326099 294.829544 
L 168.391043 294.866322 
L 168.585874 295.175504 
L 168.780706 294.972905 
L 169.040482 295.249622 
L 169.170369 295.22405 
L 169.430145 295.340742 
L 169.624977 295.292227 
L 169.884752 295.385065 
L 170.404303 295.417733 
L 170.664079 295.469742 
L 171.118686 295.427073 
L 171.378462 295.359446 
L 171.703181 295.141812 
L 171.898013 295.002257 
L 172.027901 295.045095 
L 172.222733 294.89615 
L 172.742284 295.485432 
L 173.131947 295.362677 
L 173.391723 295.297624 
L 173.586554 295.284221 
L 173.781386 295.294359 
L 174.041162 295.448056 
L 182.873532 295.320092 
L 183.00342 295.271712 
L 183.198251 295.385514 
L 183.328139 295.147414 
L 183.458027 294.893311 
L 183.652859 295.12395 
L 183.84769 294.742495 
L 183.912634 294.836374 
L 184.042522 295.031676 
L 184.17241 294.560661 
L 184.302298 294.158091 
L 184.367241 294.179038 
L 184.497129 293.734923 
L 184.562073 293.836173 
L 184.627017 295.043721 
L 184.691961 294.756866 
L 184.821849 263.136818 
L 184.951737 237.486383 
L 185.211512 295.05174 
L 185.276456 294.143796 
L 185.471288 295.487999 
L 185.536232 295.443099 
L 185.666119 294.74694 
L 185.731063 294.827675 
L 185.860951 295.30752 
L 185.925895 295.268038 
L 186.120727 294.785379 
L 186.315558 295.220603 
L 186.51039 294.93616 
L 186.705222 295.276797 
L 186.770166 295.226679 
L 186.900053 295.067416 
L 187.159829 295.368858 
L 187.224773 295.311606 
L 187.354661 295.240136 
L 187.614436 295.339826 
L 187.744324 295.303694 
L 188.0041 295.478716 
L 189.238034 295.313159 
L 189.497809 295.120695 
L 189.692641 295.018647 
L 190.082304 295.178217 
L 190.34208 295.456812 
L 190.601856 295.465925 
L 191.186351 295.39421 
L 192.160509 295.480317 
L 193.459387 295.475375 
L 195.927255 295.486714 
L 200.083665 295.334988 
L 200.473328 295.155671 
L 200.733104 294.765963 
L 200.798048 294.869528 
L 200.927935 295.003923 
L 201.122767 294.406344 
L 201.187711 294.454068 
L 201.317599 294.825357 
L 201.382543 294.784971 
L 201.772206 293.668842 
L 201.902094 295.331554 
L 201.967038 294.043098 
L 202.096926 257.525398 
L 202.226813 224.111694 
L 202.486589 295.284293 
L 202.551533 293.684344 
L 202.616477 294.053757 
L 202.746365 295.434701 
L 202.811308 295.419378 
L 203.00614 294.648248 
L 203.200972 295.102787 
L 203.395804 294.692619 
L 203.590635 295.176065 
L 203.785467 294.773697 
L 203.850411 294.883194 
L 204.045243 295.240028 
L 204.240074 295.150007 
L 204.434906 295.322934 
L 204.694681 295.267234 
L 204.889513 295.402509 
L 205.409064 295.452394 
L 205.993559 295.481088 
L 206.642998 295.379965 
L 207.16255 295.040907 
L 208.00682 295.449495 
L 208.396484 295.391941 
L 208.786147 295.414354 
L 208.980979 295.437639 
L 209.240754 295.420815 
L 209.630418 295.483032 
L 211.383903 295.487827 
L 215.605256 295.389745 
L 216.059864 295.0445 
L 216.254695 294.613333 
L 216.449527 294.808691 
L 216.644359 294.487508 
L 216.83919 294.7961 
L 217.16391 293.252726 
L 217.228854 293.355166 
L 217.358742 295.08821 
L 217.423685 294.93696 
L 217.488629 286.978575 
L 217.683461 221.478282 
L 217.748405 234.483057 
L 217.943237 295.456192 
L 218.073124 293.48404 
L 218.267956 295.404492 
L 218.397844 294.847806 
L 218.462788 294.594486 
L 218.527732 294.733955 
L 218.65762 295.107498 
L 218.852451 294.769563 
L 218.917395 294.869668 
L 219.047283 295.115451 
L 219.112227 295.065628 
L 219.242115 294.874746 
L 219.50189 295.192138 
L 219.696722 294.940961 
L 219.956497 295.18898 
L 220.086385 295.114566 
L 220.411105 295.38381 
L 222.16459 295.342036 
L 222.424366 295.134123 
L 222.619197 295.057798 
L 222.749085 294.980946 
L 223.398524 295.454752 
L 225.346841 295.480466 
L 226.385943 295.486686 
L 230.347521 295.450611 
L 230.607297 295.48562 
L 230.867072 295.440946 
L 231.061904 295.405165 
L 231.256736 295.4723 
L 231.841231 295.278854 
L 232.036062 294.745489 
L 232.101006 294.787615 
L 232.230894 294.965672 
L 232.425726 294.578865 
L 232.49067 294.674232 
L 232.620558 294.997152 
L 232.685501 294.907108 
L 233.075165 293.423668 
L 233.140109 293.848283 
L 233.205053 295.152545 
L 233.269997 294.564302 
L 233.399884 262.114895 
L 233.529772 233.068766 
L 233.789548 295.272739 
L 233.854492 294.198783 
L 233.919436 294.72671 
L 234.049323 295.487949 
L 234.114267 295.465118 
L 234.309099 294.758351 
L 234.503931 295.214228 
L 234.698762 294.735637 
L 234.893594 295.150863 
L 235.088426 294.889194 
L 235.348201 295.262669 
L 235.543033 295.130564 
L 235.737865 295.230427 
L 235.932696 295.169014 
L 236.127528 295.325294 
L 236.32236 295.281589 
L 236.582135 295.471253 
L 237.101687 295.486189 
L 237.621238 295.401253 
L 238.400564 294.921647 
L 238.595396 294.964765 
L 239.050003 295.487368 
L 240.218994 295.33337 
L 240.608657 295.455091 
L 241.452928 295.487449 
L 247.947317 295.428895 
L 248.272037 295.300868 
L 248.401925 295.361504 
L 248.531813 295.172262 
L 248.6617 294.977951 
L 248.856532 295.101021 
L 249.051364 294.613402 
L 249.116308 294.740508 
L 249.246195 295.065735 
L 249.311139 294.967715 
L 249.570915 294.087448 
L 249.635859 294.019324 
L 249.700803 293.781371 
L 249.765747 293.818815 
L 249.895634 295.185171 
L 249.960578 288.040258 
L 250.15541 236.956894 
L 250.415186 295.296154 
L 250.480129 294.049536 
L 250.674961 295.485197 
L 250.739905 295.473951 
L 250.934737 294.840816 
L 250.999681 295.042868 
L 251.129568 295.207936 
L 251.3244 294.80645 
L 251.519232 295.222177 
L 251.584176 295.185178 
L 251.714064 295.097689 
L 251.908895 295.272694 
L 252.103727 295.099945 
L 252.168671 295.176579 
L 252.363503 295.348856 
L 252.558334 295.32811 
L 252.753166 295.412605 
L 252.947998 295.383875 
L 253.207773 295.466899 
L 253.467549 295.475342 
L 254.116988 295.471966 
L 254.441707 295.398557 
L 255.15609 295.07299 
L 255.545754 295.377176 
L 255.805529 295.464093 
L 256.779688 295.423683 
L 257.81879 295.481979 
L 261.455648 295.486006 
L 263.98846 295.468438 
L 264.248236 295.451166 
L 264.443068 295.42372 
L 264.637899 295.456856 
L 265.15745 295.312934 
L 265.287338 295.199566 
L 265.48217 294.825878 
L 265.612058 295.007987 
L 265.677002 294.953162 
L 265.871833 294.400876 
L 266.066665 294.985433 
L 266.196553 294.460674 
L 266.391384 293.74717 
L 266.521272 293.813979 
L 266.65116 295.485798 
L 266.716104 292.351785 
L 266.910936 228.328011 
L 266.97588 231.212052 
L 267.170711 295.034429 
L 267.235655 294.442201 
L 267.300599 293.333 
L 267.495431 295.467696 
L 267.560375 295.396613 
L 267.690262 294.662474 
L 267.755206 294.691639 
L 267.950038 295.157129 
L 268.14487 294.834295 
L 268.339701 295.111805 
L 268.534533 295.076681 
L 268.729365 295.209019 
L 268.924196 294.973337 
L 269.183972 295.262784 
L 269.31386 295.212381 
L 269.573635 295.399863 
L 269.768467 295.352088 
L 270.028243 295.472932 
L 270.48285 295.485887 
L 271.132289 295.404765 
L 272.041504 295.107759 
L 272.496111 295.487732 
L 273.470269 295.359692 
L 273.730045 295.439028 
L 280.48421 295.424601 
L 280.679042 295.243822 
L 281.133649 294.80582 
L 281.263537 294.823066 
L 281.458369 294.469092 
L 281.523313 294.541452 
L 281.6532 294.833711 
L 281.718144 294.789185 
L 282.042864 293.534011 
L 282.107808 293.699533 
L 282.237696 295.482642 
L 282.302639 292.887587 
L 282.432527 255.561207 
L 282.562415 229.511606 
L 282.822191 295.158166 
L 282.887135 293.578493 
L 282.952078 294.021673 
L 283.081966 295.421636 
L 283.14691 295.408776 
L 283.341742 294.649774 
L 283.536573 295.133943 
L 283.731405 294.795953 
L 283.926237 295.126472 
L 284.121069 294.946419 
L 284.3159 295.325597 
L 284.445788 295.121 
L 284.510732 295.000599 
L 284.575676 295.039561 
L 284.770508 295.346677 
L 285.030283 295.247276 
L 285.225115 295.439683 
L 285.614778 295.455405 
L 286.718824 295.385132 
L 287.30332 295.155146 
L 287.563095 295.021881 
L 288.017702 295.435804 
L 288.212534 295.471515 
L 288.991861 295.376202 
L 289.576356 295.451226 
L 289.771188 295.422986 
L 290.160851 295.487197 
L 294.901756 295.426088 
L 295.096587 295.445092 
L 295.291419 295.462159 
L 295.875914 295.096888 
L 296.070746 294.679316 
L 296.265577 294.832381 
L 296.460409 294.333019 
L 296.655241 294.843482 
L 296.720185 294.722837 
L 297.044904 293.393953 
L 297.109848 293.776456 
L 297.239736 295.261257 
L 297.30468 289.128036 
L 297.499512 223.155593 
L 297.564455 231.180467 
L 297.759287 295.137798 
L 297.889175 293.607367 
L 298.084007 295.440995 
L 298.148951 295.321713 
L 298.278838 294.475523 
L 298.343782 294.498567 
L 298.47367 295.000209 
L 298.538614 294.982315 
L 298.668502 294.639874 
L 298.733446 294.675619 
L 298.928277 295.072237 
L 299.123109 294.902061 
L 299.382885 295.079667 
L 299.512772 295.051496 
L 299.772548 295.291005 
L 299.96738 295.318212 
L 300.162211 295.386418 
L 300.357043 295.373963 
L 300.616819 295.450151 
L 301.720865 295.323775 
L 302.240416 295.115564 
L 302.630079 295.15165 
L 303.084687 295.485088 
L 303.604238 295.339476 
L 303.993901 295.373015 
L 304.513453 295.45632 
L 305.097948 295.485052 
L 308.020423 295.487934 
L 311.397506 295.340169 
L 311.592337 295.264303 
L 311.722225 295.306549 
L 311.852113 295.088487 
L 311.982001 294.870758 
L 312.176832 295.002796 
L 312.371664 294.61027 
L 312.566496 294.999693 
L 312.63144 294.887741 
L 312.956159 293.679598 
L 313.021103 293.627418 
L 313.150991 295.384925 
L 313.215935 293.750331 
L 313.345823 259.455093 
L 313.47571 237.603825 
L 313.735486 294.979948 
L 313.80043 293.93655 
L 313.865374 294.659735 
L 313.995262 295.487163 
L 314.060205 295.462385 
L 314.255037 294.806908 
L 314.449869 295.203432 
L 314.644701 294.804118 
L 314.839532 295.104037 
L 315.034364 295.006749 
L 315.229196 295.222745 
L 315.424027 295.010638 
L 315.683803 295.306315 
L 315.878635 295.242198 
L 316.073466 295.360256 
L 316.268298 295.327929 
L 316.528074 295.452289 
L 316.852793 295.483716 
L 317.437288 295.438957 
L 318.476391 294.861529 
L 318.930998 295.484702 
L 319.320661 295.348056 
L 319.580437 295.200493 
L 319.840212 295.279443 
L 320.035044 295.330856 
L 320.359764 295.463712 
L 327.763368 295.477587 
L 329.192134 295.31603 
L 329.386965 294.919618 
L 329.451909 294.994841 
L 329.581797 295.230229 
L 329.646741 295.186743 
L 329.841573 294.835291 
L 330.036404 295.127815 
L 330.491012 293.716649 
L 330.620899 295.485286 
L 330.685843 292.19743 
L 330.880675 237.889578 
L 330.945619 245.531011 
L 331.140451 295.450147 
L 331.270338 294.246627 
L 331.46517 295.481391 
L 331.530114 295.34668 
L 331.660002 294.713009 
L 331.854834 295.217558 
L 331.919777 295.121723 
L 332.049665 294.836418 
L 332.244497 295.232046 
L 332.309441 295.190499 
L 332.439329 294.976206 
L 332.504272 295.028692 
L 332.699104 295.229647 
L 332.893936 295.079862 
L 333.088768 295.306982 
L 333.283599 295.237829 
L 333.543375 295.416842 
L 333.738207 295.360173 
L 334.12787 295.474426 
L 334.582477 295.481232 
L 335.29686 295.332796 
L 335.426748 295.249619 
L 335.686523 294.956141 
L 335.946299 295.103658 
L 336.400906 295.479696 
L 336.725626 295.421967 
L 337.180233 295.322112 
L 337.63484 295.365312 
L 338.479111 295.484595 
L 340.62226 295.485963 
L 344.259118 295.487039 
L 346.402267 295.444344 
L 346.79193 295.295339 
L 346.986762 295.239144 
L 347.246537 294.855639 
L 347.376425 294.989848 
L 347.506313 294.754398 
L 347.636201 294.586291 
L 347.831032 294.841325 
L 348.220696 293.771265 
L 348.28564 293.870136 
L 348.415527 295.442165 
L 348.480471 290.790131 
L 348.675303 227.769613 
L 348.740247 234.670821 
L 348.935079 295.236222 
L 349.064966 293.71123 
L 349.259798 295.458002 
L 349.324742 295.336824 
L 349.45463 294.598849 
L 349.519574 294.710413 
L 349.649462 295.154777 
L 349.779349 294.854162 
L 349.844293 294.683997 
L 349.909237 294.771197 
L 350.104069 295.161848 
L 350.298901 294.891822 
L 350.493732 295.277183 
L 350.753508 295.114686 
L 350.948339 295.231685 
L 351.078227 295.152096 
L 351.402947 295.373518 
L 351.597778 295.419841 
L 351.79261 295.465398 
L 352.052386 295.477088 
L 352.571937 295.452426 
L 353.156432 295.236335 
L 353.416208 294.997159 
L 353.611039 295.068377 
L 353.805871 295.006403 
L 354.260478 295.487085 
L 355.494412 295.363645 
L 356.078907 295.477996 
L 360.754868 295.483966 
L 361.534195 295.483271 
L 363.417568 295.332398 
L 363.6124 295.246714 
L 363.742287 295.242118 
L 364.002063 294.693577 
L 364.067007 294.805165 
L 364.196895 294.864144 
L 364.391726 294.464674 
L 364.586558 294.851054 
L 364.716446 294.133178 
L 364.846334 293.457821 
L 364.911278 293.49567 
L 365.041165 294.172186 
L 365.106109 295.177545 
L 365.171053 294.95716 
L 365.235997 287.675688 
L 365.430829 225.556973 
L 365.495773 237.251731 
L 365.690604 295.432166 
L 365.820492 293.749269 
L 366.015324 295.406781 
L 366.210155 294.734522 
L 366.275099 294.886544 
L 366.404987 295.122624 
L 366.599819 294.697155 
L 366.794651 295.224776 
L 366.859594 295.160798 
L 366.989482 294.844766 
L 367.054426 294.891915 
L 367.249258 295.205287 
L 367.44409 295.006043 
L 367.703865 295.254998 
L 367.833753 295.283044 
L 368.028585 295.433777 
L 368.28836 295.367973 
L 368.483192 295.467831 
L 368.872855 295.487982 
L 369.587238 295.404506 
L 369.78207 295.355851 
L 369.976902 295.357709 
L 370.431509 295.039398 
L 371.145892 295.467955 
L 372.12005 295.434399 
L 373.61376 295.486941 
L 375.107469 295.487672 
L 379.263879 295.365444 
L 379.718486 295.078503 
L 379.913318 294.690502 
L 380.10815 294.960894 
L 380.302981 294.345519 
L 380.367925 294.423702 
L 380.497813 294.781621 
L 380.562757 294.718229 
L 380.887476 293.482738 
L 380.95242 293.717947 
L 381.082308 295.445263 
L 381.147252 290.99487 
L 381.342084 225.765059 
L 381.407028 229.264564 
L 381.666803 294.907488 
L 381.731747 293.717259 
L 381.796691 294.370733 
L 381.926579 295.393204 
L 381.991523 295.290655 
L 382.12141 294.558566 
L 382.186354 294.621881 
L 382.381186 295.116934 
L 382.576018 294.715384 
L 382.770849 295.083121 
L 382.965681 294.953673 
L 383.225457 295.137414 
L 383.355345 295.072472 
L 383.61512 295.245553 
L 383.809952 295.237311 
L 384.004784 295.346604 
L 384.199615 295.355184 
L 384.524335 295.453221 
L 385.10883 295.48433 
L 385.823213 295.285136 
L 386.27782 294.913758 
L 386.407708 294.920094 
L 386.992203 295.453899 
L 387.251978 295.425058 
L 388.096249 295.431973 
L 388.420969 295.449962 
L 391.018724 295.487959 
L 395.629741 295.37718 
L 395.824573 295.206859 
L 396.019405 295.270629 
L 396.214236 294.887936 
L 396.27918 294.932142 
L 396.409068 295.022288 
L 396.6039 294.558614 
L 396.668844 294.650277 
L 396.798731 294.962706 
L 396.863675 294.869114 
L 397.188395 293.746652 
L 397.253339 293.644917 
L 397.318283 293.965475 
L 397.383226 295.129933 
L 397.44817 294.757918 
L 397.578058 264.542658 
L 397.707946 233.954863 
L 397.967722 295.363564 
L 398.032665 294.178383 
L 398.227497 295.472642 
L 398.292441 295.445506 
L 398.487273 294.68795 
L 398.487273 294.68795 
" style="fill:none;stroke:#1f77b4;stroke-linecap:square;stroke-width:1.5;"/>
   </g>
   <g id="patch_3">
    <path d="M 57.6 307.584 
L 57.6 41.472 
" style="fill:none;stroke:#000000;stroke-linecap:square;stroke-linejoin:miter;stroke-width:0.8;"/>
   </g>
   <g id="patch_4">
    <path d="M 414.72 307.584 
L 414.72 41.472 
" style="fill:none;stroke:#000000;stroke-linecap:square;stroke-linejoin:miter;stroke-width:0.8;"/>
   </g>
   <g id="patch_5">
    <path d="M 57.6 307.584 
L 414.72 307.584 
" style="fill:none;stroke:#000000;stroke-linecap:square;stroke-linejoin:miter;stroke-width:0.8;"/>
   </g>
   <g id="patch_6">
    <path d="M 57.6 41.472 
L 414.72 41.472 
" style="fill:none;stroke:#000000;stroke-linecap:square;stroke-linejoin:miter;stroke-width:0.8;"/>
   </g>
   <g id="text_19">
    <!-- Output with R peaks detected -->
    <g transform="translate(146.318438 35.472)scale(0.12 -0.12)">
     <defs>
      <path d="M 39.40625 66.21875 
Q 28.65625 66.21875 22.328125 58.203125 
Q 16.015625 50.203125 16.015625 36.375 
Q 16.015625 22.609375 22.328125 14.59375 
Q 28.65625 6.59375 39.40625 6.59375 
Q 50.140625 6.59375 56.421875 14.59375 
Q 62.703125 22.609375 62.703125 36.375 
Q 62.703125 50.203125 56.421875 58.203125 
Q 50.140625 66.21875 39.40625 66.21875 
z
M 39.40625 74.21875 
Q 54.734375 74.21875 63.90625 63.9375 
Q 73.09375 53.65625 73.09375 36.375 
Q 73.09375 19.140625 63.90625 8.859375 
Q 54.734375 -1.421875 39.40625 -1.421875 
Q 24.03125 -1.421875 14.8125 8.828125 
Q 5.609375 19.09375 5.609375 36.375 
Q 5.609375 53.65625 14.8125 63.9375 
Q 24.03125 74.21875 39.40625 74.21875 
z
" id="DejaVuSans-79"/>
      <path id="DejaVuSans-32"/>
      <path d="M 4.203125 54.6875 
L 13.1875 54.6875 
L 24.421875 12.015625 
L 35.59375 54.6875 
L 46.1875 54.6875 
L 57.421875 12.015625 
L 68.609375 54.6875 
L 77.59375 54.6875 
L 63.28125 0 
L 52.6875 0 
L 40.921875 44.828125 
L 29.109375 0 
L 18.5 0 
z
" id="DejaVuSans-119"/>
      <path d="M 54.890625 33.015625 
L 54.890625 0 
L 45.90625 0 
L 45.90625 32.71875 
Q 45.90625 40.484375 42.875 44.328125 
Q 39.84375 48.1875 33.796875 48.1875 
Q 26.515625 48.1875 22.3125 43.546875 
Q 18.109375 38.921875 18.109375 30.90625 
L 18.109375 0 
L 9.078125 0 
L 9.078125 75.984375 
L 18.109375 75.984375 
L 18.109375 46.1875 
Q 21.34375 51.125 25.703125 53.5625 
Q 30.078125 56 35.796875 56 
Q 45.21875 56 50.046875 50.171875 
Q 54.890625 44.34375 54.890625 33.015625 
z
" id="DejaVuSans-104"/>
      <path d="M 44.390625 34.1875 
Q 47.5625 33.109375 50.5625 29.59375 
Q 53.5625 26.078125 56.59375 19.921875 
L 66.609375 0 
L 56 0 
L 46.6875 18.703125 
Q 43.0625 26.03125 39.671875 28.421875 
Q 36.28125 30.8125 30.421875 30.8125 
L 19.671875 30.8125 
L 19.671875 0 
L 9.8125 0 
L 9.8125 72.90625 
L 32.078125 72.90625 
Q 44.578125 72.90625 50.734375 67.671875 
Q 56.890625 62.453125 56.890625 51.90625 
Q 56.890625 45.015625 53.6875 40.46875 
Q 50.484375 35.9375 44.390625 34.1875 
z
M 19.671875 64.796875 
L 19.671875 38.921875 
L 32.078125 38.921875 
Q 39.203125 38.921875 42.84375 42.21875 
Q 46.484375 45.515625 46.484375 51.90625 
Q 46.484375 58.296875 42.84375 61.546875 
Q 39.203125 64.796875 32.078125 64.796875 
z
" id="DejaVuSans-82"/>
      <path d="M 34.28125 27.484375 
Q 23.390625 27.484375 19.1875 25 
Q 14.984375 22.515625 14.984375 16.5 
Q 14.984375 11.71875 18.140625 8.90625 
Q 21.296875 6.109375 26.703125 6.109375 
Q 34.1875 6.109375 38.703125 11.40625 
Q 43.21875 16.703125 43.21875 25.484375 
L 43.21875 27.484375 
z
M 52.203125 31.203125 
L 52.203125 0 
L 43.21875 0 
L 43.21875 8.296875 
Q 40.140625 3.328125 35.546875 0.953125 
Q 30.953125 -1.421875 24.3125 -1.421875 
Q 15.921875 -1.421875 10.953125 3.296875 
Q 6 8.015625 6 15.921875 
Q 6 25.140625 12.171875 29.828125 
Q 18.359375 34.515625 30.609375 34.515625 
L 43.21875 34.515625 
L 43.21875 35.40625 
Q 43.21875 41.609375 39.140625 45 
Q 35.0625 48.390625 27.6875 48.390625 
Q 23 48.390625 18.546875 47.265625 
Q 14.109375 46.140625 10.015625 43.890625 
L 10.015625 52.203125 
Q 14.9375 54.109375 19.578125 55.046875 
Q 24.21875 56 28.609375 56 
Q 40.484375 56 46.34375 49.84375 
Q 52.203125 43.703125 52.203125 31.203125 
z
" id="DejaVuSans-97"/>
      <path d="M 9.078125 75.984375 
L 18.109375 75.984375 
L 18.109375 31.109375 
L 44.921875 54.6875 
L 56.390625 54.6875 
L 27.390625 29.109375 
L 57.625 0 
L 45.90625 0 
L 18.109375 26.703125 
L 18.109375 0 
L 9.078125 0 
z
" id="DejaVuSans-107"/>
      <path d="M 44.28125 53.078125 
L 44.28125 44.578125 
Q 40.484375 46.53125 36.375 47.5 
Q 32.28125 48.484375 27.875 48.484375 
Q 21.1875 48.484375 17.84375 46.4375 
Q 14.5 44.390625 14.5 40.28125 
Q 14.5 37.15625 16.890625 35.375 
Q 19.28125 33.59375 26.515625 31.984375 
L 29.59375 31.296875 
Q 39.15625 29.25 43.1875 25.515625 
Q 47.21875 21.78125 47.21875 15.09375 
Q 47.21875 7.46875 41.1875 3.015625 
Q 35.15625 -1.421875 24.609375 -1.421875 
Q 20.21875 -1.421875 15.453125 -0.5625 
Q 10.6875 0.296875 5.421875 2 
L 5.421875 11.28125 
Q 10.40625 8.6875 15.234375 7.390625 
Q 20.0625 6.109375 24.8125 6.109375 
Q 31.15625 6.109375 34.5625 8.28125 
Q 37.984375 10.453125 37.984375 14.40625 
Q 37.984375 18.0625 35.515625 20.015625 
Q 33.0625 21.96875 24.703125 23.78125 
L 21.578125 24.515625 
Q 13.234375 26.265625 9.515625 29.90625 
Q 5.8125 33.546875 5.8125 39.890625 
Q 5.8125 47.609375 11.28125 51.796875 
Q 16.75 56 26.8125 56 
Q 31.78125 56 36.171875 55.265625 
Q 40.578125 54.546875 44.28125 53.078125 
z
" id="DejaVuSans-115"/>
      <path d="M 48.78125 52.59375 
L 48.78125 44.1875 
Q 44.96875 46.296875 41.140625 47.34375 
Q 37.3125 48.390625 33.40625 48.390625 
Q 24.65625 48.390625 19.8125 42.84375 
Q 14.984375 37.3125 14.984375 27.296875 
Q 14.984375 17.28125 19.8125 11.734375 
Q 24.65625 6.203125 33.40625 6.203125 
Q 37.3125 6.203125 41.140625 7.25 
Q 44.96875 8.296875 48.78125 10.40625 
L 48.78125 2.09375 
Q 45.015625 0.34375 40.984375 -0.53125 
Q 36.96875 -1.421875 32.421875 -1.421875 
Q 20.0625 -1.421875 12.78125 6.34375 
Q 5.515625 14.109375 5.515625 27.296875 
Q 5.515625 40.671875 12.859375 48.328125 
Q 20.21875 56 33.015625 56 
Q 37.15625 56 41.109375 55.140625 
Q 45.0625 54.296875 48.78125 52.59375 
z
" id="DejaVuSans-99"/>
     </defs>
     <use xlink:href="#DejaVuSans-79"/>
     <use x="78.710938" xlink:href="#DejaVuSans-117"/>
     <use x="142.089844" xlink:href="#DejaVuSans-116"/>
     <use x="181.298828" xlink:href="#DejaVuSans-112"/>
     <use x="244.775391" xlink:href="#DejaVuSans-117"/>
     <use x="308.154297" xlink:href="#DejaVuSans-116"/>
     <use x="347.363281" xlink:href="#DejaVuSans-32"/>
     <use x="379.150391" xlink:href="#DejaVuSans-119"/>
     <use x="460.9375" xlink:href="#DejaVuSans-105"/>
     <use x="488.720703" xlink:href="#DejaVuSans-116"/>
     <use x="527.929688" xlink:href="#DejaVuSans-104"/>
     <use x="591.308594" xlink:href="#DejaVuSans-32"/>
     <use x="623.095703" xlink:href="#DejaVuSans-82"/>
     <use x="692.578125" xlink:href="#DejaVuSans-32"/>
     <use x="724.365234" xlink:href="#DejaVuSans-112"/>
     <use x="787.841797" xlink:href="#DejaVuSans-101"/>
     <use x="849.365234" xlink:href="#DejaVuSans-97"/>
     <use x="910.644531" xlink:href="#DejaVuSans-107"/>
     <use x="968.554688" xlink:href="#DejaVuSans-115"/>
     <use x="1020.654297" xlink:href="#DejaVuSans-32"/>
     <use x="1052.441406" xlink:href="#DejaVuSans-100"/>
     <use x="1115.917969" xlink:href="#DejaVuSans-101"/>
     <use x="1177.441406" xlink:href="#DejaVuSans-116"/>
     <use x="1216.650391" xlink:href="#DejaVuSans-101"/>
     <use x="1278.173828" xlink:href="#DejaVuSans-99"/>
     <use x="1333.154297" xlink:href="#DejaVuSans-116"/>
     <use x="1372.363281" xlink:href="#DejaVuSans-101"/>
     <use x="1433.886719" xlink:href="#DejaVuSans-100"/>
    </g>
   </g>
  </g>
 </g>
 <defs>
  <clipPath id="p5a0a322375">
   <rect height="266.112" width="357.12" x="57.6" y="41.472"/>
  </clipPath>
 </defs>
</svg>
