<?xml version="1.0" encoding="utf-8" standalone="no"?>
<!DOCTYPE svg PUBLIC "-//W3C//DTD SVG 1.1//EN"
  "http://www.w3.org/Graphics/SVG/1.1/DTD/svg11.dtd">
<!-- Created with matplotlib (https://matplotlib.org/) -->
<svg height="345.6pt" version="1.1" viewBox="0 0 460.8 345.6" width="460.8pt" xmlns="http://www.w3.org/2000/svg" xmlns:xlink="http://www.w3.org/1999/xlink">
 <metadata>
  <rdf:RDF xmlns:cc="http://creativecommons.org/ns#" xmlns:dc="http://purl.org/dc/elements/1.1/" xmlns:rdf="http://www.w3.org/1999/02/22-rdf-syntax-ns#">
   <cc:Work>
    <dc:type rdf:resource="http://purl.org/dc/dcmitype/StillImage"/>
    <dc:date>2021-11-15T00:44:05.706680</dc:date>
    <dc:format>image/svg+xml</dc:format>
    <dc:creator>
     <cc:Agent>
      <dc:title>Matplotlib v3.3.2, https://matplotlib.org/</dc:title>
     </cc:Agent>
    </dc:creator>
   </cc:Work>
  </rdf:RDF>
 </metadata>
 <defs>
  <style type="text/css">*{stroke-linecap:butt;stroke-linejoin:round;}</style>
 </defs>
 <g id="figure_1">
  <g id="patch_1">
   <path d="M 0 345.6 
L 460.8 345.6 
L 460.8 0 
L 0 0 
z
" style="fill:#ffffff;"/>
  </g>
  <g id="axes_1">
   <g id="patch_2">
    <path d="M 57.6 307.584 
L 414.72 307.584 
L 414.72 41.472 
L 57.6 41.472 
z
" style="fill:#ffffff;"/>
   </g>
   <g id="matplotlib.axis_1">
    <g id="xtick_1">
     <g id="line2d_1">
      <defs>
       <path d="M 0 0 
L 0 3.5 
" id="mac44243ca7" style="stroke:#000000;stroke-width:0.8;"/>
      </defs>
      <g>
       <use style="stroke:#000000;stroke-width:0.8;" x="73.832727" xlink:href="#mac44243ca7" y="307.584"/>
      </g>
     </g>
     <g id="text_1">
      <!-- 0 -->
      <g transform="translate(70.651477 322.182437)scale(0.1 -0.1)">
       <defs>
        <path d="M 31.78125 66.40625 
Q 24.171875 66.40625 20.328125 58.90625 
Q 16.5 51.421875 16.5 36.375 
Q 16.5 21.390625 20.328125 13.890625 
Q 24.171875 6.390625 31.78125 6.390625 
Q 39.453125 6.390625 43.28125 13.890625 
Q 47.125 21.390625 47.125 36.375 
Q 47.125 51.421875 43.28125 58.90625 
Q 39.453125 66.40625 31.78125 66.40625 
z
M 31.78125 74.21875 
Q 44.046875 74.21875 50.515625 64.515625 
Q 56.984375 54.828125 56.984375 36.375 
Q 56.984375 17.96875 50.515625 8.265625 
Q 44.046875 -1.421875 31.78125 -1.421875 
Q 19.53125 -1.421875 13.0625 8.265625 
Q 6.59375 17.96875 6.59375 36.375 
Q 6.59375 54.828125 13.0625 64.515625 
Q 19.53125 74.21875 31.78125 74.21875 
z
" id="DejaVuSans-48"/>
       </defs>
       <use xlink:href="#DejaVuSans-48"/>
      </g>
     </g>
    </g>
    <g id="xtick_2">
     <g id="line2d_2">
      <g>
       <use style="stroke:#000000;stroke-width:0.8;" x="125.777455" xlink:href="#mac44243ca7" y="307.584"/>
      </g>
     </g>
     <g id="text_2">
      <!-- 20 -->
      <g transform="translate(119.414955 322.182437)scale(0.1 -0.1)">
       <defs>
        <path d="M 19.1875 8.296875 
L 53.609375 8.296875 
L 53.609375 0 
L 7.328125 0 
L 7.328125 8.296875 
Q 12.9375 14.109375 22.625 23.890625 
Q 32.328125 33.6875 34.8125 36.53125 
Q 39.546875 41.84375 41.421875 45.53125 
Q 43.3125 49.21875 43.3125 52.78125 
Q 43.3125 58.59375 39.234375 62.25 
Q 35.15625 65.921875 28.609375 65.921875 
Q 23.96875 65.921875 18.8125 64.3125 
Q 13.671875 62.703125 7.8125 59.421875 
L 7.8125 69.390625 
Q 13.765625 71.78125 18.9375 73 
Q 24.125 74.21875 28.421875 74.21875 
Q 39.75 74.21875 46.484375 68.546875 
Q 53.21875 62.890625 53.21875 53.421875 
Q 53.21875 48.921875 51.53125 44.890625 
Q 49.859375 40.875 45.40625 35.40625 
Q 44.1875 33.984375 37.640625 27.21875 
Q 31.109375 20.453125 19.1875 8.296875 
z
" id="DejaVuSans-50"/>
       </defs>
       <use xlink:href="#DejaVuSans-50"/>
       <use x="63.623047" xlink:href="#DejaVuSans-48"/>
      </g>
     </g>
    </g>
    <g id="xtick_3">
     <g id="line2d_3">
      <g>
       <use style="stroke:#000000;stroke-width:0.8;" x="177.722182" xlink:href="#mac44243ca7" y="307.584"/>
      </g>
     </g>
     <g id="text_3">
      <!-- 40 -->
      <g transform="translate(171.359682 322.182437)scale(0.1 -0.1)">
       <defs>
        <path d="M 37.796875 64.3125 
L 12.890625 25.390625 
L 37.796875 25.390625 
z
M 35.203125 72.90625 
L 47.609375 72.90625 
L 47.609375 25.390625 
L 58.015625 25.390625 
L 58.015625 17.1875 
L 47.609375 17.1875 
L 47.609375 0 
L 37.796875 0 
L 37.796875 17.1875 
L 4.890625 17.1875 
L 4.890625 26.703125 
z
" id="DejaVuSans-52"/>
       </defs>
       <use xlink:href="#DejaVuSans-52"/>
       <use x="63.623047" xlink:href="#DejaVuSans-48"/>
      </g>
     </g>
    </g>
    <g id="xtick_4">
     <g id="line2d_4">
      <g>
       <use style="stroke:#000000;stroke-width:0.8;" x="229.666909" xlink:href="#mac44243ca7" y="307.584"/>
      </g>
     </g>
     <g id="text_4">
      <!-- 60 -->
      <g transform="translate(223.304409 322.182437)scale(0.1 -0.1)">
       <defs>
        <path d="M 33.015625 40.375 
Q 26.375 40.375 22.484375 35.828125 
Q 18.609375 31.296875 18.609375 23.390625 
Q 18.609375 15.53125 22.484375 10.953125 
Q 26.375 6.390625 33.015625 6.390625 
Q 39.65625 6.390625 43.53125 10.953125 
Q 47.40625 15.53125 47.40625 23.390625 
Q 47.40625 31.296875 43.53125 35.828125 
Q 39.65625 40.375 33.015625 40.375 
z
M 52.59375 71.296875 
L 52.59375 62.3125 
Q 48.875 64.0625 45.09375 64.984375 
Q 41.3125 65.921875 37.59375 65.921875 
Q 27.828125 65.921875 22.671875 59.328125 
Q 17.53125 52.734375 16.796875 39.40625 
Q 19.671875 43.65625 24.015625 45.921875 
Q 28.375 48.1875 33.59375 48.1875 
Q 44.578125 48.1875 50.953125 41.515625 
Q 57.328125 34.859375 57.328125 23.390625 
Q 57.328125 12.15625 50.6875 5.359375 
Q 44.046875 -1.421875 33.015625 -1.421875 
Q 20.359375 -1.421875 13.671875 8.265625 
Q 6.984375 17.96875 6.984375 36.375 
Q 6.984375 53.65625 15.1875 63.9375 
Q 23.390625 74.21875 37.203125 74.21875 
Q 40.921875 74.21875 44.703125 73.484375 
Q 48.484375 72.75 52.59375 71.296875 
z
" id="DejaVuSans-54"/>
       </defs>
       <use xlink:href="#DejaVuSans-54"/>
       <use x="63.623047" xlink:href="#DejaVuSans-48"/>
      </g>
     </g>
    </g>
    <g id="xtick_5">
     <g id="line2d_5">
      <g>
       <use style="stroke:#000000;stroke-width:0.8;" x="281.611636" xlink:href="#mac44243ca7" y="307.584"/>
      </g>
     </g>
     <g id="text_5">
      <!-- 80 -->
      <g transform="translate(275.249136 322.182437)scale(0.1 -0.1)">
       <defs>
        <path d="M 31.78125 34.625 
Q 24.75 34.625 20.71875 30.859375 
Q 16.703125 27.09375 16.703125 20.515625 
Q 16.703125 13.921875 20.71875 10.15625 
Q 24.75 6.390625 31.78125 6.390625 
Q 38.8125 6.390625 42.859375 10.171875 
Q 46.921875 13.96875 46.921875 20.515625 
Q 46.921875 27.09375 42.890625 30.859375 
Q 38.875 34.625 31.78125 34.625 
z
M 21.921875 38.8125 
Q 15.578125 40.375 12.03125 44.71875 
Q 8.5 49.078125 8.5 55.328125 
Q 8.5 64.0625 14.71875 69.140625 
Q 20.953125 74.21875 31.78125 74.21875 
Q 42.671875 74.21875 48.875 69.140625 
Q 55.078125 64.0625 55.078125 55.328125 
Q 55.078125 49.078125 51.53125 44.71875 
Q 48 40.375 41.703125 38.8125 
Q 48.828125 37.15625 52.796875 32.3125 
Q 56.78125 27.484375 56.78125 20.515625 
Q 56.78125 9.90625 50.3125 4.234375 
Q 43.84375 -1.421875 31.78125 -1.421875 
Q 19.734375 -1.421875 13.25 4.234375 
Q 6.78125 9.90625 6.78125 20.515625 
Q 6.78125 27.484375 10.78125 32.3125 
Q 14.796875 37.15625 21.921875 38.8125 
z
M 18.3125 54.390625 
Q 18.3125 48.734375 21.84375 45.5625 
Q 25.390625 42.390625 31.78125 42.390625 
Q 38.140625 42.390625 41.71875 45.5625 
Q 45.3125 48.734375 45.3125 54.390625 
Q 45.3125 60.0625 41.71875 63.234375 
Q 38.140625 66.40625 31.78125 66.40625 
Q 25.390625 66.40625 21.84375 63.234375 
Q 18.3125 60.0625 18.3125 54.390625 
z
" id="DejaVuSans-56"/>
       </defs>
       <use xlink:href="#DejaVuSans-56"/>
       <use x="63.623047" xlink:href="#DejaVuSans-48"/>
      </g>
     </g>
    </g>
    <g id="xtick_6">
     <g id="line2d_6">
      <g>
       <use style="stroke:#000000;stroke-width:0.8;" x="333.556364" xlink:href="#mac44243ca7" y="307.584"/>
      </g>
     </g>
     <g id="text_6">
      <!-- 100 -->
      <g transform="translate(324.012614 322.182437)scale(0.1 -0.1)">
       <defs>
        <path d="M 12.40625 8.296875 
L 28.515625 8.296875 
L 28.515625 63.921875 
L 10.984375 60.40625 
L 10.984375 69.390625 
L 28.421875 72.90625 
L 38.28125 72.90625 
L 38.28125 8.296875 
L 54.390625 8.296875 
L 54.390625 0 
L 12.40625 0 
z
" id="DejaVuSans-49"/>
       </defs>
       <use xlink:href="#DejaVuSans-49"/>
       <use x="63.623047" xlink:href="#DejaVuSans-48"/>
       <use x="127.246094" xlink:href="#DejaVuSans-48"/>
      </g>
     </g>
    </g>
    <g id="xtick_7">
     <g id="line2d_7">
      <g>
       <use style="stroke:#000000;stroke-width:0.8;" x="385.501091" xlink:href="#mac44243ca7" y="307.584"/>
      </g>
     </g>
     <g id="text_7">
      <!-- 120 -->
      <g transform="translate(375.957341 322.182437)scale(0.1 -0.1)">
       <use xlink:href="#DejaVuSans-49"/>
       <use x="63.623047" xlink:href="#DejaVuSans-50"/>
       <use x="127.246094" xlink:href="#DejaVuSans-48"/>
      </g>
     </g>
    </g>
    <g id="text_8">
     <!-- frequency -->
     <g transform="translate(211.083438 335.860562)scale(0.1 -0.1)">
      <defs>
       <path d="M 37.109375 75.984375 
L 37.109375 68.5 
L 28.515625 68.5 
Q 23.6875 68.5 21.796875 66.546875 
Q 19.921875 64.59375 19.921875 59.515625 
L 19.921875 54.6875 
L 34.71875 54.6875 
L 34.71875 47.703125 
L 19.921875 47.703125 
L 19.921875 0 
L 10.890625 0 
L 10.890625 47.703125 
L 2.296875 47.703125 
L 2.296875 54.6875 
L 10.890625 54.6875 
L 10.890625 58.5 
Q 10.890625 67.625 15.140625 71.796875 
Q 19.390625 75.984375 28.609375 75.984375 
z
" id="DejaVuSans-102"/>
       <path d="M 41.109375 46.296875 
Q 39.59375 47.171875 37.8125 47.578125 
Q 36.03125 48 33.890625 48 
Q 26.265625 48 22.1875 43.046875 
Q 18.109375 38.09375 18.109375 28.8125 
L 18.109375 0 
L 9.078125 0 
L 9.078125 54.6875 
L 18.109375 54.6875 
L 18.109375 46.1875 
Q 20.953125 51.171875 25.484375 53.578125 
Q 30.03125 56 36.53125 56 
Q 37.453125 56 38.578125 55.875 
Q 39.703125 55.765625 41.0625 55.515625 
z
" id="DejaVuSans-114"/>
       <path d="M 56.203125 29.59375 
L 56.203125 25.203125 
L 14.890625 25.203125 
Q 15.484375 15.921875 20.484375 11.0625 
Q 25.484375 6.203125 34.421875 6.203125 
Q 39.59375 6.203125 44.453125 7.46875 
Q 49.3125 8.734375 54.109375 11.28125 
L 54.109375 2.78125 
Q 49.265625 0.734375 44.1875 -0.34375 
Q 39.109375 -1.421875 33.890625 -1.421875 
Q 20.796875 -1.421875 13.15625 6.1875 
Q 5.515625 13.8125 5.515625 26.8125 
Q 5.515625 40.234375 12.765625 48.109375 
Q 20.015625 56 32.328125 56 
Q 43.359375 56 49.78125 48.890625 
Q 56.203125 41.796875 56.203125 29.59375 
z
M 47.21875 32.234375 
Q 47.125 39.59375 43.09375 43.984375 
Q 39.0625 48.390625 32.421875 48.390625 
Q 24.90625 48.390625 20.390625 44.140625 
Q 15.875 39.890625 15.1875 32.171875 
z
" id="DejaVuSans-101"/>
       <path d="M 14.796875 27.296875 
Q 14.796875 17.390625 18.875 11.75 
Q 22.953125 6.109375 30.078125 6.109375 
Q 37.203125 6.109375 41.296875 11.75 
Q 45.40625 17.390625 45.40625 27.296875 
Q 45.40625 37.203125 41.296875 42.84375 
Q 37.203125 48.484375 30.078125 48.484375 
Q 22.953125 48.484375 18.875 42.84375 
Q 14.796875 37.203125 14.796875 27.296875 
z
M 45.40625 8.203125 
Q 42.578125 3.328125 38.25 0.953125 
Q 33.9375 -1.421875 27.875 -1.421875 
Q 17.96875 -1.421875 11.734375 6.484375 
Q 5.515625 14.40625 5.515625 27.296875 
Q 5.515625 40.1875 11.734375 48.09375 
Q 17.96875 56 27.875 56 
Q 33.9375 56 38.25 53.625 
Q 42.578125 51.265625 45.40625 46.390625 
L 45.40625 54.6875 
L 54.390625 54.6875 
L 54.390625 -20.796875 
L 45.40625 -20.796875 
z
" id="DejaVuSans-113"/>
       <path d="M 8.5 21.578125 
L 8.5 54.6875 
L 17.484375 54.6875 
L 17.484375 21.921875 
Q 17.484375 14.15625 20.5 10.265625 
Q 23.53125 6.390625 29.59375 6.390625 
Q 36.859375 6.390625 41.078125 11.03125 
Q 45.3125 15.671875 45.3125 23.6875 
L 45.3125 54.6875 
L 54.296875 54.6875 
L 54.296875 0 
L 45.3125 0 
L 45.3125 8.40625 
Q 42.046875 3.421875 37.71875 1 
Q 33.40625 -1.421875 27.6875 -1.421875 
Q 18.265625 -1.421875 13.375 4.4375 
Q 8.5 10.296875 8.5 21.578125 
z
M 31.109375 56 
z
" id="DejaVuSans-117"/>
       <path d="M 54.890625 33.015625 
L 54.890625 0 
L 45.90625 0 
L 45.90625 32.71875 
Q 45.90625 40.484375 42.875 44.328125 
Q 39.84375 48.1875 33.796875 48.1875 
Q 26.515625 48.1875 22.3125 43.546875 
Q 18.109375 38.921875 18.109375 30.90625 
L 18.109375 0 
L 9.078125 0 
L 9.078125 54.6875 
L 18.109375 54.6875 
L 18.109375 46.1875 
Q 21.34375 51.125 25.703125 53.5625 
Q 30.078125 56 35.796875 56 
Q 45.21875 56 50.046875 50.171875 
Q 54.890625 44.34375 54.890625 33.015625 
z
" id="DejaVuSans-110"/>
       <path d="M 48.78125 52.59375 
L 48.78125 44.1875 
Q 44.96875 46.296875 41.140625 47.34375 
Q 37.3125 48.390625 33.40625 48.390625 
Q 24.65625 48.390625 19.8125 42.84375 
Q 14.984375 37.3125 14.984375 27.296875 
Q 14.984375 17.28125 19.8125 11.734375 
Q 24.65625 6.203125 33.40625 6.203125 
Q 37.3125 6.203125 41.140625 7.25 
Q 44.96875 8.296875 48.78125 10.40625 
L 48.78125 2.09375 
Q 45.015625 0.34375 40.984375 -0.53125 
Q 36.96875 -1.421875 32.421875 -1.421875 
Q 20.0625 -1.421875 12.78125 6.34375 
Q 5.515625 14.109375 5.515625 27.296875 
Q 5.515625 40.671875 12.859375 48.328125 
Q 20.21875 56 33.015625 56 
Q 37.15625 56 41.109375 55.140625 
Q 45.0625 54.296875 48.78125 52.59375 
z
" id="DejaVuSans-99"/>
       <path d="M 32.171875 -5.078125 
Q 28.375 -14.84375 24.75 -17.8125 
Q 21.140625 -20.796875 15.09375 -20.796875 
L 7.90625 -20.796875 
L 7.90625 -13.28125 
L 13.1875 -13.28125 
Q 16.890625 -13.28125 18.9375 -11.515625 
Q 21 -9.765625 23.484375 -3.21875 
L 25.09375 0.875 
L 2.984375 54.6875 
L 12.5 54.6875 
L 29.59375 11.921875 
L 46.6875 54.6875 
L 56.203125 54.6875 
z
" id="DejaVuSans-121"/>
      </defs>
      <use xlink:href="#DejaVuSans-102"/>
      <use x="35.205078" xlink:href="#DejaVuSans-114"/>
      <use x="74.068359" xlink:href="#DejaVuSans-101"/>
      <use x="135.591797" xlink:href="#DejaVuSans-113"/>
      <use x="199.068359" xlink:href="#DejaVuSans-117"/>
      <use x="262.447266" xlink:href="#DejaVuSans-101"/>
      <use x="323.970703" xlink:href="#DejaVuSans-110"/>
      <use x="387.349609" xlink:href="#DejaVuSans-99"/>
      <use x="442.330078" xlink:href="#DejaVuSans-121"/>
     </g>
    </g>
   </g>
   <g id="matplotlib.axis_2">
    <g id="ytick_1">
     <g id="line2d_8">
      <defs>
       <path d="M 0 0 
L -3.5 0 
" id="m3b3a4f859e" style="stroke:#000000;stroke-width:0.8;"/>
      </defs>
      <g>
       <use style="stroke:#000000;stroke-width:0.8;" x="57.6" xlink:href="#m3b3a4f859e" y="295.822619"/>
      </g>
     </g>
     <g id="text_9">
      <!-- 0 -->
      <g transform="translate(44.2375 299.621838)scale(0.1 -0.1)">
       <use xlink:href="#DejaVuSans-48"/>
      </g>
     </g>
    </g>
    <g id="ytick_2">
     <g id="line2d_9">
      <g>
       <use style="stroke:#000000;stroke-width:0.8;" x="57.6" xlink:href="#m3b3a4f859e" y="238.348933"/>
      </g>
     </g>
     <g id="text_10">
      <!-- 1 -->
      <g transform="translate(44.2375 242.148151)scale(0.1 -0.1)">
       <use xlink:href="#DejaVuSans-49"/>
      </g>
     </g>
    </g>
    <g id="ytick_3">
     <g id="line2d_10">
      <g>
       <use style="stroke:#000000;stroke-width:0.8;" x="57.6" xlink:href="#m3b3a4f859e" y="180.875246"/>
      </g>
     </g>
     <g id="text_11">
      <!-- 2 -->
      <g transform="translate(44.2375 184.674465)scale(0.1 -0.1)">
       <use xlink:href="#DejaVuSans-50"/>
      </g>
     </g>
    </g>
    <g id="ytick_4">
     <g id="line2d_11">
      <g>
       <use style="stroke:#000000;stroke-width:0.8;" x="57.6" xlink:href="#m3b3a4f859e" y="123.40156"/>
      </g>
     </g>
     <g id="text_12">
      <!-- 3 -->
      <g transform="translate(44.2375 127.200779)scale(0.1 -0.1)">
       <defs>
        <path d="M 40.578125 39.3125 
Q 47.65625 37.796875 51.625 33 
Q 55.609375 28.21875 55.609375 21.1875 
Q 55.609375 10.40625 48.1875 4.484375 
Q 40.765625 -1.421875 27.09375 -1.421875 
Q 22.515625 -1.421875 17.65625 -0.515625 
Q 12.796875 0.390625 7.625 2.203125 
L 7.625 11.71875 
Q 11.71875 9.328125 16.59375 8.109375 
Q 21.484375 6.890625 26.8125 6.890625 
Q 36.078125 6.890625 40.9375 10.546875 
Q 45.796875 14.203125 45.796875 21.1875 
Q 45.796875 27.640625 41.28125 31.265625 
Q 36.765625 34.90625 28.71875 34.90625 
L 20.21875 34.90625 
L 20.21875 43.015625 
L 29.109375 43.015625 
Q 36.375 43.015625 40.234375 45.921875 
Q 44.09375 48.828125 44.09375 54.296875 
Q 44.09375 59.90625 40.109375 62.90625 
Q 36.140625 65.921875 28.71875 65.921875 
Q 24.65625 65.921875 20.015625 65.03125 
Q 15.375 64.15625 9.8125 62.3125 
L 9.8125 71.09375 
Q 15.4375 72.65625 20.34375 73.4375 
Q 25.25 74.21875 29.59375 74.21875 
Q 40.828125 74.21875 47.359375 69.109375 
Q 53.90625 64.015625 53.90625 55.328125 
Q 53.90625 49.265625 50.4375 45.09375 
Q 46.96875 40.921875 40.578125 39.3125 
z
" id="DejaVuSans-51"/>
       </defs>
       <use xlink:href="#DejaVuSans-51"/>
      </g>
     </g>
    </g>
    <g id="ytick_5">
     <g id="line2d_12">
      <g>
       <use style="stroke:#000000;stroke-width:0.8;" x="57.6" xlink:href="#m3b3a4f859e" y="65.927874"/>
      </g>
     </g>
     <g id="text_13">
      <!-- 4 -->
      <g transform="translate(44.2375 69.727092)scale(0.1 -0.1)">
       <use xlink:href="#DejaVuSans-52"/>
      </g>
     </g>
    </g>
    <g id="text_14">
     <!-- dB -->
     <g transform="translate(38.157812 181.132688)rotate(-90)scale(0.1 -0.1)">
      <defs>
       <path d="M 45.40625 46.390625 
L 45.40625 75.984375 
L 54.390625 75.984375 
L 54.390625 0 
L 45.40625 0 
L 45.40625 8.203125 
Q 42.578125 3.328125 38.25 0.953125 
Q 33.9375 -1.421875 27.875 -1.421875 
Q 17.96875 -1.421875 11.734375 6.484375 
Q 5.515625 14.40625 5.515625 27.296875 
Q 5.515625 40.1875 11.734375 48.09375 
Q 17.96875 56 27.875 56 
Q 33.9375 56 38.25 53.625 
Q 42.578125 51.265625 45.40625 46.390625 
z
M 14.796875 27.296875 
Q 14.796875 17.390625 18.875 11.75 
Q 22.953125 6.109375 30.078125 6.109375 
Q 37.203125 6.109375 41.296875 11.75 
Q 45.40625 17.390625 45.40625 27.296875 
Q 45.40625 37.203125 41.296875 42.84375 
Q 37.203125 48.484375 30.078125 48.484375 
Q 22.953125 48.484375 18.875 42.84375 
Q 14.796875 37.203125 14.796875 27.296875 
z
" id="DejaVuSans-100"/>
       <path d="M 19.671875 34.8125 
L 19.671875 8.109375 
L 35.5 8.109375 
Q 43.453125 8.109375 47.28125 11.40625 
Q 51.125 14.703125 51.125 21.484375 
Q 51.125 28.328125 47.28125 31.5625 
Q 43.453125 34.8125 35.5 34.8125 
z
M 19.671875 64.796875 
L 19.671875 42.828125 
L 34.28125 42.828125 
Q 41.5 42.828125 45.03125 45.53125 
Q 48.578125 48.25 48.578125 53.8125 
Q 48.578125 59.328125 45.03125 62.0625 
Q 41.5 64.796875 34.28125 64.796875 
z
M 9.8125 72.90625 
L 35.015625 72.90625 
Q 46.296875 72.90625 52.390625 68.21875 
Q 58.5 63.53125 58.5 54.890625 
Q 58.5 48.1875 55.375 44.234375 
Q 52.25 40.28125 46.1875 39.3125 
Q 53.46875 37.75 57.5 32.78125 
Q 61.53125 27.828125 61.53125 20.40625 
Q 61.53125 10.640625 54.890625 5.3125 
Q 48.25 0 35.984375 0 
L 9.8125 0 
z
" id="DejaVuSans-66"/>
      </defs>
      <use xlink:href="#DejaVuSans-100"/>
      <use x="63.476562" xlink:href="#DejaVuSans-66"/>
     </g>
    </g>
    <g id="text_15">
     <!-- 1e−5 -->
     <g transform="translate(57.6 38.472)scale(0.1 -0.1)">
      <defs>
       <path d="M 10.59375 35.5 
L 73.1875 35.5 
L 73.1875 27.203125 
L 10.59375 27.203125 
z
" id="DejaVuSans-8722"/>
       <path d="M 10.796875 72.90625 
L 49.515625 72.90625 
L 49.515625 64.59375 
L 19.828125 64.59375 
L 19.828125 46.734375 
Q 21.96875 47.46875 24.109375 47.828125 
Q 26.265625 48.1875 28.421875 48.1875 
Q 40.625 48.1875 47.75 41.5 
Q 54.890625 34.8125 54.890625 23.390625 
Q 54.890625 11.625 47.5625 5.09375 
Q 40.234375 -1.421875 26.90625 -1.421875 
Q 22.3125 -1.421875 17.546875 -0.640625 
Q 12.796875 0.140625 7.71875 1.703125 
L 7.71875 11.625 
Q 12.109375 9.234375 16.796875 8.0625 
Q 21.484375 6.890625 26.703125 6.890625 
Q 35.15625 6.890625 40.078125 11.328125 
Q 45.015625 15.765625 45.015625 23.390625 
Q 45.015625 31 40.078125 35.4375 
Q 35.15625 39.890625 26.703125 39.890625 
Q 22.75 39.890625 18.8125 39.015625 
Q 14.890625 38.140625 10.796875 36.28125 
z
" id="DejaVuSans-53"/>
      </defs>
      <use xlink:href="#DejaVuSans-49"/>
      <use x="63.623047" xlink:href="#DejaVuSans-101"/>
      <use x="125.146484" xlink:href="#DejaVuSans-8722"/>
      <use x="208.935547" xlink:href="#DejaVuSans-53"/>
     </g>
    </g>
   </g>
   <g id="line2d_13">
    <path clip-path="url(#pf619d5d4b2)" d="M 73.832727 279.890525 
L 73.962589 294.672966 
L 74.352175 293.518133 
L 74.611898 291.550026 
L 74.74176 291.199747 
L 74.871622 289.938653 
L 75.001484 290.421487 
L 75.131345 290.286202 
L 75.261207 289.811911 
L 75.780655 290.812147 
L 76.040378 292.479433 
L 76.17024 293.105954 
L 76.429964 295.436678 
L 76.819549 291.247776 
L 77.209135 285.030262 
L 78.637615 256.429991 
L 78.897338 242.488989 
L 79.0272 255.11969 
L 79.157062 242.056808 
L 79.286924 257.04619 
L 79.416785 248.479658 
L 79.546647 225.555413 
L 79.676509 238.455163 
L 79.806371 212.021799 
L 80.066095 219.549045 
L 80.195956 209.731153 
L 80.325818 219.214411 
L 80.45568 217.928296 
L 80.715404 190.261475 
L 80.845265 235.663524 
L 80.975127 232.405415 
L 81.104989 141.369663 
L 81.234851 157.032415 
L 81.364713 257.138888 
L 81.494575 254.623771 
L 81.624436 145.85349 
L 81.754298 242.93545 
L 81.88416 56.293807 
L 82.014022 96.196224 
L 82.143884 178.019256 
L 82.273745 95.68733 
L 82.403607 231.188975 
L 82.533469 181.056171 
L 82.663331 190.006824 
L 82.793193 228.164858 
L 82.923055 154.295349 
L 83.052916 149.839136 
L 83.31264 244.726304 
L 83.572364 87.913805 
L 83.702225 267.866023 
L 84.091811 105.55796 
L 84.221673 167.637245 
L 84.351535 53.568 
L 84.481396 248.026188 
L 84.611258 274.20096 
L 84.74112 235.64212 
L 84.870982 242.282308 
L 85.000844 156.221839 
L 85.130705 209.033477 
L 85.260567 201.056712 
L 85.390429 145.724809 
L 85.520291 242.96891 
L 85.650153 242.229545 
L 85.909876 136.803593 
L 86.039738 250.386298 
L 86.1696 258.042534 
L 86.429324 150.703565 
L 86.559185 198.273907 
L 86.689047 180.320723 
L 86.948771 271.442386 
L 87.078633 184.691986 
L 87.208495 212.82415 
L 87.338356 205.033183 
L 87.468218 125.408779 
L 87.59808 229.059685 
L 87.727942 135.264565 
L 87.857804 205.569816 
L 87.987665 211.825021 
L 88.117527 198.587375 
L 88.247389 170.927695 
L 88.507113 269.1397 
L 88.766836 181.355456 
L 88.896698 239.350437 
L 89.02656 174.45618 
L 89.156422 244.503512 
L 89.286284 122.161948 
L 89.416145 209.707644 
L 89.546007 115.038727 
L 89.675869 233.671924 
L 89.805731 197.494187 
L 89.935593 209.800718 
L 90.065455 183.3205 
L 90.195316 189.993033 
L 90.325178 157.309675 
L 90.45504 260.617387 
L 90.584902 147.677371 
L 90.844625 275.334836 
L 91.104349 158.560279 
L 91.234211 219.829797 
L 91.364073 218.511386 
L 91.493935 171.034543 
L 91.623796 262.838524 
L 91.88352 173.292933 
L 92.013382 251.379964 
L 92.143244 247.86981 
L 92.273105 268.167832 
L 92.402967 204.609549 
L 92.532829 252.312813 
L 92.792553 259.829575 
L 92.922415 103.612032 
L 93.052276 207.096361 
L 93.182138 187.916588 
L 93.312 213.69127 
L 93.441862 173.871042 
L 93.701585 247.488961 
L 93.831447 232.995779 
L 94.091171 269.621185 
L 94.221033 216.306587 
L 94.350895 258.506674 
L 94.480756 191.937717 
L 94.610618 234.605304 
L 94.74048 155.507064 
L 94.870342 188.258745 
L 95.000204 255.516313 
L 95.130065 237.850741 
L 95.259927 238.999493 
L 95.519651 152.613307 
L 95.779375 243.220671 
L 95.909236 212.490953 
L 96.039098 277.021921 
L 96.16896 221.875686 
L 96.298822 257.909389 
L 96.558545 234.860321 
L 96.818269 221.347755 
L 96.948131 151.080399 
L 97.077993 251.736997 
L 97.207855 214.591723 
L 97.337716 251.644325 
L 97.467578 226.933992 
L 97.727302 277.360245 
L 97.987025 177.033799 
L 98.246749 280.769848 
L 98.376611 245.18634 
L 98.506473 245.264148 
L 98.636335 179.855502 
L 98.766196 234.397472 
L 98.896058 232.531081 
L 99.02592 220.943978 
L 99.155782 228.086155 
L 99.415505 251.442521 
L 99.545367 252.921789 
L 99.675229 284.949018 
L 99.805091 222.934117 
L 99.934953 222.924727 
L 100.064815 180.36511 
L 100.194676 218.661388 
L 100.324538 166.379331 
L 100.4544 269.156416 
L 100.584262 224.98888 
L 100.714124 220.831946 
L 100.843985 242.676966 
L 101.103709 169.888299 
L 101.233571 252.698189 
L 101.363433 226.776104 
L 101.493295 271.306512 
L 101.623156 209.195261 
L 101.88288 271.462283 
L 102.012742 267.350437 
L 102.142604 207.397425 
L 102.272465 225.708785 
L 102.402327 153.659672 
L 102.532189 239.313126 
L 102.662051 191.23797 
L 102.791913 275.539856 
L 102.921775 224.741329 
L 103.181498 229.18726 
L 103.31136 270.41354 
L 103.441222 237.134953 
L 103.700945 242.058072 
L 103.830807 188.986169 
L 103.960669 285.593624 
L 104.090531 234.172538 
L 104.220393 233.295917 
L 104.350255 256.239957 
L 104.609978 235.029784 
L 104.73984 264.858538 
L 104.869702 265.671792 
L 104.999564 163.498259 
L 105.129425 241.948191 
L 105.259287 230.204887 
L 105.389149 258.155206 
L 105.519011 186.342331 
L 105.648873 281.792169 
L 105.778735 225.863613 
L 105.908596 264.76318 
L 106.038458 264.26589 
L 106.16832 238.769525 
L 106.298182 175.874233 
L 106.428044 228.979909 
L 106.557905 218.20781 
L 106.687767 275.642559 
L 106.817629 203.953713 
L 107.077353 278.375744 
L 107.207215 281.359655 
L 107.337076 198.24281 
L 107.466938 193.529038 
L 107.726662 244.181899 
L 107.856524 174.55971 
L 107.986385 226.210863 
L 108.116247 232.985297 
L 108.375971 211.678539 
L 108.505833 237.44921 
L 108.635695 226.935706 
L 108.765556 230.715613 
L 108.895418 244.684515 
L 109.02528 199.097982 
L 109.155142 221.143139 
L 109.285004 191.716281 
L 109.414865 282.334341 
L 109.544727 267.773743 
L 109.804451 224.074036 
L 109.934313 274.446583 
L 110.194036 226.61261 
L 110.323898 288.487682 
L 110.583622 192.428331 
L 110.713484 259.32608 
L 110.843345 238.567363 
L 110.973207 239.194172 
L 111.103069 276.337895 
L 111.232931 262.542051 
L 111.362793 264.244453 
L 111.492655 180.919606 
L 111.622516 275.235979 
L 111.88224 237.729463 
L 112.012102 246.205789 
L 112.141964 244.993445 
L 112.401687 271.430724 
L 112.661411 215.274137 
L 112.791273 263.102489 
L 112.921135 206.713807 
L 113.050996 278.085976 
L 113.440582 231.627733 
L 113.570444 254.356816 
L 113.700305 230.907316 
L 113.830167 237.83055 
L 113.960029 180.082039 
L 114.089891 238.005377 
L 114.219753 245.582381 
L 114.349615 246.161028 
L 114.479476 194.032502 
L 114.609338 243.5123 
L 114.7392 246.380146 
L 114.869062 241.863543 
L 114.998924 227.197143 
L 115.258647 279.160116 
L 115.518371 235.437263 
L 115.648233 266.097706 
L 115.907956 232.145781 
L 116.037818 195.957191 
L 116.16768 248.634068 
L 116.297542 250.467939 
L 116.427404 258.70541 
L 116.557265 197.982386 
L 116.687127 200.90035 
L 116.816989 270.795361 
L 116.946851 238.166202 
L 117.076713 247.305786 
L 117.206575 269.864886 
L 117.336436 251.367513 
L 117.466298 257.357494 
L 117.59616 293.235517 
L 117.726022 288.453709 
L 117.855884 252.920934 
L 117.985745 276.220697 
L 118.115607 207.310886 
L 118.245469 257.98606 
L 118.375331 244.504549 
L 118.635055 270.764227 
L 118.764916 274.359992 
L 118.894778 264.508624 
L 119.02464 283.07134 
L 119.154502 154.463057 
L 119.284364 247.621114 
L 119.414225 229.490196 
L 119.544087 261.177842 
L 119.803811 228.203244 
L 120.063535 256.641445 
L 120.193396 244.200223 
L 120.323258 260.475836 
L 120.45312 233.90415 
L 120.582982 231.926823 
L 120.972567 283.987351 
L 121.102429 254.145816 
L 121.232291 271.662264 
L 121.492015 199.392303 
L 121.621876 227.646408 
L 121.751738 182.476596 
L 121.8816 194.873665 
L 122.011462 247.183472 
L 122.141324 215.660037 
L 122.401047 289.101308 
L 122.530909 278.951183 
L 122.660771 253.935767 
L 122.790633 256.164621 
L 122.920495 292.784622 
L 123.050356 226.259103 
L 123.31008 265.964333 
L 123.569804 246.010742 
L 123.699665 265.293074 
L 123.829527 250.736522 
L 123.959389 268.120892 
L 124.089251 199.201486 
L 124.478836 246.359014 
L 124.608698 219.750796 
L 124.73856 243.330016 
L 124.868422 288.790484 
L 124.998284 259.065955 
L 125.128145 272.379208 
L 125.387869 214.32512 
L 125.647593 272.731452 
L 125.777455 252.009685 
L 125.907316 283.579757 
L 126.037178 261.464463 
L 126.296902 288.504758 
L 126.556625 205.362039 
L 126.686487 248.605547 
L 126.816349 244.601915 
L 126.946211 263.969825 
L 127.335796 200.539808 
L 127.59552 273.461234 
L 127.855244 233.431431 
L 128.114967 283.253391 
L 128.244829 253.127307 
L 128.374691 269.492082 
L 128.504553 264.060871 
L 128.634415 267.277034 
L 128.764276 230.495536 
L 128.894138 226.232715 
L 129.024 264.689149 
L 129.283724 234.095162 
L 129.413585 255.548292 
L 129.543447 252.788771 
L 129.673309 218.103666 
L 129.803171 262.724147 
L 129.933033 234.59424 
L 130.062895 287.061391 
L 130.192756 285.03819 
L 130.322618 253.099071 
L 130.45248 260.972038 
L 130.582342 241.622584 
L 130.712204 251.922154 
L 130.842065 288.631484 
L 130.971927 250.054939 
L 131.101789 276.233803 
L 131.231651 248.111979 
L 131.361513 276.501317 
L 131.491375 252.688173 
L 131.621236 287.245828 
L 131.751098 230.531773 
L 131.88096 271.370728 
L 132.010822 252.233093 
L 132.140684 287.011395 
L 132.270545 243.076712 
L 132.400407 261.856857 
L 132.530269 241.824706 
L 132.789993 262.50513 
L 133.049716 217.144953 
L 133.30944 287.526231 
L 133.439302 266.645566 
L 133.569164 271.257165 
L 133.699025 270.477583 
L 133.828887 249.762102 
L 133.958749 265.634491 
L 134.088611 233.328082 
L 134.218473 238.174345 
L 134.348335 278.133198 
L 134.478196 247.646181 
L 134.608058 249.90143 
L 134.73792 269.183329 
L 134.867782 212.505347 
L 134.997644 267.971683 
L 135.127505 261.271065 
L 135.257367 283.124292 
L 135.517091 246.412493 
L 135.646953 250.887919 
L 135.776815 238.884581 
L 136.036538 277.909625 
L 136.1664 275.722124 
L 136.296262 276.454839 
L 136.426124 214.193167 
L 136.555985 274.003504 
L 136.685847 268.37409 
L 136.815709 281.872439 
L 136.945571 274.012931 
L 137.205295 227.510575 
L 137.335156 277.527666 
L 137.465018 262.085332 
L 137.724742 280.117972 
L 137.854604 269.285818 
L 137.984465 283.367496 
L 138.114327 277.505538 
L 138.244189 222.677723 
L 138.503913 287.76278 
L 138.633775 273.838114 
L 138.763636 284.713286 
L 138.893498 242.706552 
L 139.02336 240.064498 
L 139.153222 276.824204 
L 139.412945 265.745513 
L 139.542807 254.374941 
L 139.672669 228.383175 
L 139.932393 284.52219 
L 140.062255 248.046547 
L 140.192116 265.918315 
L 140.321978 262.177773 
L 140.45184 283.025767 
L 140.581702 247.718084 
L 140.711564 260.88366 
L 140.841425 259.169746 
L 140.971287 239.667078 
L 141.101149 279.958116 
L 141.360873 256.101389 
L 141.490735 251.067197 
L 141.620596 259.588771 
L 141.750458 275.786426 
L 141.88032 243.670944 
L 142.010182 262.464662 
L 142.269905 235.028956 
L 142.399767 269.338863 
L 142.529629 256.174568 
L 142.789353 288.343453 
L 142.919215 273.229079 
L 143.049076 274.768468 
L 143.178938 242.20325 
L 143.568524 278.265383 
L 143.698385 275.112559 
L 143.828247 283.501074 
L 143.958109 277.103034 
L 144.087971 260.047005 
L 144.217833 281.621954 
L 144.347695 253.590934 
L 144.477556 254.812214 
L 144.607418 231.548551 
L 144.73728 291.381292 
L 144.867142 274.456248 
L 144.997004 275.580812 
L 145.256727 264.332401 
L 145.386589 267.032126 
L 145.516451 266.57639 
L 145.776175 260.356901 
L 145.906036 268.010299 
L 146.035898 292.080992 
L 146.16576 272.211511 
L 146.295622 283.409516 
L 146.555345 257.159989 
L 146.685207 275.148849 
L 146.815069 259.359517 
L 146.944931 229.673951 
L 147.074793 270.184457 
L 147.204655 268.217067 
L 147.334516 271.274808 
L 147.464378 281.297811 
L 147.59424 278.670714 
L 147.724102 236.170557 
L 147.853964 281.221301 
L 147.983825 266.049282 
L 148.243549 280.211708 
L 148.373411 256.331736 
L 148.892858 272.433191 
L 149.02272 281.420686 
L 149.282444 268.562212 
L 149.412305 268.831467 
L 149.542167 250.042013 
L 149.672029 277.205714 
L 149.801891 261.249388 
L 149.931753 285.586996 
L 150.061615 265.06637 
L 150.191476 274.668616 
L 150.321338 257.618352 
L 150.4512 276.954623 
L 150.581062 273.940853 
L 150.710924 283.12854 
L 150.840785 252.384565 
L 150.970647 282.619792 
L 151.100509 284.751451 
L 151.360233 275.882402 
L 151.490095 293.194522 
L 151.619956 266.626548 
L 151.87968 283.363113 
L 152.009542 270.694757 
L 152.139404 241.304466 
L 152.399127 284.961926 
L 152.528989 267.130084 
L 152.788713 283.890147 
L 152.918575 269.964567 
L 153.048436 294.010665 
L 153.178298 243.552772 
L 153.438022 288.530088 
L 153.567884 265.307369 
L 153.697745 283.877489 
L 153.827607 273.135808 
L 153.957469 245.727075 
L 154.217193 287.414831 
L 154.606778 260.466719 
L 154.866502 284.232801 
L 154.996364 277.581528 
L 155.126225 280.310109 
L 155.256087 279.335649 
L 155.385949 284.883352 
L 155.645673 265.375937 
L 155.775535 254.479417 
L 155.905396 275.084123 
L 156.035258 274.633527 
L 156.16512 280.507962 
L 156.294982 265.370408 
L 156.684567 285.337752 
L 156.944291 278.379863 
L 157.074153 281.312069 
L 157.204015 279.317621 
L 157.333876 265.541435 
L 157.463738 283.976724 
L 157.5936 281.578279 
L 157.723462 276.230778 
L 157.853324 281.991869 
L 157.983185 270.022263 
L 158.113047 284.782718 
L 158.372771 267.34749 
L 158.502633 293.940862 
L 158.762356 266.494268 
L 158.892218 285.713938 
L 159.02208 280.770195 
L 159.151942 262.438815 
L 159.281804 260.690249 
L 159.411665 278.454399 
L 159.541527 280.772381 
L 159.801251 259.166527 
L 159.931113 282.722373 
L 160.060975 281.834862 
L 160.190836 282.224896 
L 160.45056 272.841626 
L 160.710284 285.872508 
L 161.099869 264.564354 
L 161.229731 268.962135 
L 161.359593 260.414436 
L 161.489455 268.151688 
L 161.619316 263.233225 
L 161.87904 290.339001 
L 162.008902 279.214572 
L 162.138764 282.674333 
L 162.268625 280.640382 
L 162.398487 285.492867 
L 162.528349 278.570736 
L 162.658211 285.243692 
L 162.788073 275.460357 
L 162.917935 279.143615 
L 163.047796 293.232864 
L 163.30752 285.711307 
L 163.437382 264.455766 
L 163.567244 282.070016 
L 163.697105 259.43487 
L 163.826967 282.689755 
L 163.956829 274.521418 
L 164.086691 292.341778 
L 164.216553 277.289395 
L 164.346415 280.854796 
L 164.476276 267.733692 
L 164.606138 281.837331 
L 164.736 276.771208 
L 164.865862 282.189221 
L 164.995724 270.189575 
L 165.125585 284.014907 
L 165.255447 277.107626 
L 165.385309 287.844989 
L 165.515171 289.009067 
L 165.774895 273.403454 
L 166.034618 286.854342 
L 166.294342 269.882661 
L 166.424204 278.424155 
L 166.554065 275.898238 
L 166.683927 281.91911 
L 166.813789 250.629437 
L 167.073513 289.651969 
L 167.203375 273.957957 
L 167.333236 284.769653 
L 167.463098 272.800962 
L 167.59296 289.133426 
L 167.722822 285.348482 
L 167.852684 288.157367 
L 167.982545 284.350163 
L 168.112407 274.155771 
L 168.242269 289.532935 
L 168.372131 272.350276 
L 168.501993 287.677919 
L 168.631855 284.9757 
L 168.761716 285.354185 
L 168.891578 259.297961 
L 169.02144 280.948941 
L 169.151302 276.958993 
L 169.281164 280.022605 
L 169.411025 276.469831 
L 169.540887 291.069427 
L 169.670749 284.969422 
L 169.800611 290.091364 
L 169.930473 272.414477 
L 170.060335 290.255445 
L 170.44992 275.18527 
L 170.709644 288.649236 
L 170.839505 275.245594 
L 170.969367 284.911006 
L 171.358953 279.266353 
L 171.748538 287.425044 
L 171.8784 284.171245 
L 172.008262 267.574623 
L 172.138124 280.251512 
L 172.397847 270.078527 
L 172.527709 292.598403 
L 172.657571 267.867267 
L 172.787433 283.377797 
L 172.917295 282.106901 
L 173.047156 278.404075 
L 173.436742 287.37936 
L 173.566604 270.178979 
L 173.826327 287.653247 
L 173.956189 283.711258 
L 174.086051 271.150319 
L 174.215913 288.20047 
L 174.475636 271.001818 
L 174.605498 287.179889 
L 174.865222 277.941219 
L 174.995084 283.057055 
L 175.124945 273.697019 
L 175.254807 291.657485 
L 175.514531 281.155007 
L 175.644393 291.325137 
L 175.774255 283.199451 
L 175.904116 283.712635 
L 176.033978 270.248317 
L 176.16384 293.846419 
L 176.293702 283.099628 
L 176.423564 285.766177 
L 176.683287 281.432729 
L 176.813149 283.200151 
L 176.943011 294.139996 
L 177.072873 279.274776 
L 177.202735 287.244911 
L 177.332596 275.696111 
L 177.462458 275.208159 
L 177.59232 277.636929 
L 177.722182 294.99556 
L 177.852044 268.995496 
L 177.981905 286.966279 
L 178.241629 277.564857 
L 178.371491 276.740421 
L 178.501353 282.014981 
L 178.631215 292.282177 
L 178.761076 275.74707 
L 178.890938 289.549694 
L 179.0208 286.062128 
L 179.280524 274.796295 
L 179.410385 278.841834 
L 179.540247 272.991238 
L 179.670109 281.939837 
L 179.799971 280.953006 
L 179.929833 270.108203 
L 180.059695 281.885873 
L 180.319418 278.05046 
L 180.44928 280.693423 
L 180.579142 278.535701 
L 180.709004 271.298556 
L 180.968727 291.802239 
L 181.098589 288.19448 
L 181.228451 278.027083 
L 181.358313 293.964636 
L 181.488175 278.653026 
L 181.618036 283.038515 
L 181.747898 271.606756 
L 181.87776 285.118247 
L 182.007622 281.919774 
L 182.267345 293.348192 
L 182.397207 291.868278 
L 182.527069 267.931254 
L 182.786793 288.746698 
L 182.916655 289.668094 
L 183.046516 275.350738 
L 183.176378 286.996876 
L 183.30624 288.50466 
L 183.436102 281.611336 
L 183.565964 283.756441 
L 183.695825 283.736368 
L 183.825687 290.943388 
L 183.955549 279.102271 
L 184.085411 285.742301 
L 184.215273 280.539465 
L 184.345135 292.035001 
L 184.474996 287.040658 
L 184.604858 287.10922 
L 184.73472 284.271281 
L 184.994444 270.986832 
L 185.124305 286.005676 
L 185.254167 285.479198 
L 185.384029 279.965595 
L 185.513891 281.34316 
L 185.643753 279.891462 
L 185.773615 284.710795 
L 185.903476 273.962784 
L 186.1632 286.305939 
L 186.293062 285.743864 
L 186.422924 281.439859 
L 186.682647 284.235763 
L 186.812509 291.7518 
L 186.942371 282.573457 
L 187.072233 285.122602 
L 187.202095 269.908174 
L 187.461818 292.703173 
L 187.721542 283.662718 
L 187.851404 285.812439 
L 187.981265 276.572018 
L 188.111127 283.298731 
L 188.240989 283.528818 
L 188.370851 274.49316 
L 188.500713 293.371056 
L 188.760436 284.952402 
L 188.890298 290.493459 
L 189.02016 289.881209 
L 189.150022 285.265299 
L 189.279884 291.491508 
L 189.409745 281.116295 
L 189.539607 284.296032 
L 189.669469 274.836089 
L 189.799331 289.268658 
L 189.929193 275.732361 
L 190.059055 285.173725 
L 190.188916 280.809146 
L 190.318778 283.501507 
L 190.44864 283.675552 
L 190.578502 286.98113 
L 190.708364 282.224015 
L 190.968087 287.736386 
L 191.097949 277.098237 
L 191.357673 288.761313 
L 191.487535 284.402137 
L 191.617396 285.633019 
L 191.747258 283.588695 
L 191.87712 277.196963 
L 192.006982 282.803253 
L 192.136844 281.869136 
L 192.266705 288.926069 
L 192.396567 273.487186 
L 192.526429 273.908423 
L 192.786153 286.895708 
L 192.916015 287.957846 
L 193.175738 280.53574 
L 193.435462 286.326541 
L 193.565324 273.460478 
L 193.695185 290.399091 
L 193.825047 282.268453 
L 194.084771 288.995039 
L 194.214633 282.115222 
L 194.344495 283.40604 
L 194.474356 290.974157 
L 194.604218 286.500416 
L 194.73408 292.600751 
L 194.863942 280.482375 
L 194.993804 294.584977 
L 195.123665 274.513914 
L 195.253527 289.103651 
L 195.513251 279.385702 
L 195.772975 291.90618 
L 195.902836 284.563417 
L 196.032698 284.995999 
L 196.16256 293.575525 
L 196.292422 282.983842 
L 196.422284 291.46317 
L 196.682007 283.721345 
L 196.811869 291.168423 
L 197.071593 284.019438 
L 197.201455 287.107634 
L 197.331316 283.259465 
L 197.461178 282.715666 
L 197.59104 278.441134 
L 197.720902 291.654876 
L 197.850764 283.129768 
L 198.110487 293.93629 
L 198.240349 287.685095 
L 198.370211 289.217394 
L 198.500073 283.756597 
L 198.629935 289.501301 
L 198.759796 285.660934 
L 198.889658 292.492851 
L 199.01952 286.80774 
L 199.149382 289.430804 
L 199.279244 287.599327 
L 199.409105 287.909112 
L 199.668829 292.742213 
L 199.798691 287.299408 
L 200.058415 293.054985 
L 200.188276 295.216189 
L 200.318138 292.019921 
L 200.448 295.488 
L 200.707724 290.244922 
L 200.837585 292.220782 
L 200.967447 291.22652 
L 201.097309 295.249726 
L 201.227171 293.209308 
L 201.357033 295.450968 
L 201.616756 293.513079 
L 201.746618 294.99092 
L 201.87648 295.05619 
L 202.006342 295.296603 
L 202.266065 293.385246 
L 202.395927 295.292239 
L 202.655651 294.325432 
L 202.785513 293.727904 
L 202.915375 293.792668 
L 203.045236 292.383984 
L 203.30496 294.810434 
L 203.564684 294.422292 
L 203.694545 293.550067 
L 203.824407 274.699569 
L 204.213993 289.550051 
L 204.343855 290.343646 
L 204.473716 289.686004 
L 204.603578 288.202296 
L 204.863302 291.979426 
L 204.993164 287.481721 
L 205.123025 290.889616 
L 205.252887 289.436629 
L 205.512611 290.352052 
L 205.642473 292.244466 
L 205.902196 291.020922 
L 206.16192 285.296865 
L 206.291782 287.422117 
L 206.421644 282.106041 
L 206.551505 294.790632 
L 206.811229 283.439717 
L 207.070953 287.51068 
L 207.200815 290.830053 
L 207.330676 290.477574 
L 207.460538 285.621589 
L 207.5904 288.949934 
L 207.720262 286.600928 
L 207.850124 290.190502 
L 208.239709 284.791338 
L 208.369571 284.899369 
L 208.499433 284.225171 
L 208.629295 285.522751 
L 208.759156 284.843994 
L 208.889018 289.656994 
L 209.01888 287.198439 
L 209.148742 279.959763 
L 209.408465 291.500388 
L 209.538327 292.526472 
L 209.668189 290.764376 
L 209.927913 283.330618 
L 210.057775 286.978017 
L 210.187636 283.149759 
L 210.44736 284.813791 
L 210.577222 287.106042 
L 210.707084 286.523003 
L 210.836945 289.310865 
L 210.966807 288.820989 
L 211.096669 284.039276 
L 211.356393 288.873275 
L 211.486255 286.647297 
L 211.616116 279.321863 
L 211.745978 289.116682 
L 212.005702 286.005579 
L 212.135564 284.799907 
L 212.265425 284.793259 
L 212.525149 289.569893 
L 212.655011 285.01568 
L 212.914735 289.379726 
L 213.044596 287.271919 
L 213.174458 287.509964 
L 213.434182 284.200879 
L 213.564044 283.832083 
L 213.693905 290.724769 
L 213.823767 286.450367 
L 213.953629 286.58932 
L 214.083491 288.159585 
L 214.213353 284.626129 
L 214.473076 287.529608 
L 214.602938 284.62209 
L 214.7328 289.767059 
L 214.862662 288.80752 
L 214.992524 290.026298 
L 215.122385 287.245487 
L 215.252247 289.559193 
L 215.511971 285.189197 
L 215.641833 286.680555 
L 215.771695 284.534466 
L 216.031418 290.925654 
L 216.16128 292.653293 
L 216.421004 286.064424 
L 216.680727 283.847844 
L 216.810589 288.204653 
L 216.940451 287.822045 
L 217.200175 292.862201 
L 217.459898 286.485031 
L 217.58976 286.471993 
L 217.719622 288.135829 
L 217.849484 284.358323 
L 217.979345 285.685491 
L 218.109207 289.23339 
L 218.239069 284.775954 
L 218.368931 288.268613 
L 218.498793 287.011238 
L 218.628655 287.710338 
L 218.758516 289.086856 
L 218.888378 286.495894 
L 219.01824 286.402516 
L 219.148102 289.560766 
L 219.277964 288.405135 
L 219.407825 286.005846 
L 219.667549 286.975634 
L 219.797411 282.481889 
L 219.927273 288.319623 
L 220.057135 287.404781 
L 220.186996 289.846028 
L 220.316858 285.279612 
L 220.44672 287.787811 
L 220.576582 286.666377 
L 220.706444 287.537541 
L 220.836305 290.185729 
L 220.966167 286.611886 
L 221.096029 290.239497 
L 221.355753 284.844567 
L 221.485615 289.317036 
L 221.8752 286.125731 
L 222.005062 287.952137 
L 222.134924 287.096901 
L 222.264785 287.84377 
L 222.394647 290.234343 
L 222.784233 285.726305 
L 222.914095 290.689689 
L 223.173818 287.194935 
L 223.30368 290.504167 
L 223.433542 286.602704 
L 223.563404 289.271143 
L 223.693265 287.267774 
L 223.952989 290.234608 
L 224.082851 285.434283 
L 224.342575 287.289007 
L 224.472436 285.494848 
L 224.602298 286.502815 
L 224.73216 289.910414 
L 224.862022 287.393584 
L 224.991884 287.194874 
L 225.121745 289.684032 
L 225.251607 289.332627 
L 225.381469 290.775933 
L 225.511331 285.642189 
L 225.771055 287.685271 
L 225.900916 283.512525 
L 226.16064 288.167052 
L 226.290502 287.517982 
L 226.420364 288.290148 
L 226.550225 286.592531 
L 226.680087 291.014439 
L 226.809949 289.169112 
L 226.939811 289.57279 
L 227.069673 285.740444 
L 227.329396 286.409988 
L 227.459258 290.067118 
L 227.58912 288.014821 
L 227.718982 288.993691 
L 227.978705 285.723919 
L 228.108567 289.119122 
L 228.368291 285.908625 
L 228.498153 290.0515 
L 228.628015 290.613776 
L 228.757876 289.53527 
L 228.887738 291.431107 
L 229.147462 287.177871 
L 229.277324 287.433775 
L 229.407185 287.321119 
L 229.537047 285.707763 
L 229.796771 289.400962 
L 229.926633 290.631066 
L 230.186356 286.738422 
L 230.316218 287.631363 
L 230.44608 290.014944 
L 230.705804 287.572117 
L 230.835665 289.377191 
L 230.965527 287.463154 
L 231.095389 287.75598 
L 231.225251 286.899461 
L 231.355113 287.8809 
L 231.484975 285.983013 
L 231.614836 288.26954 
L 231.744698 287.913612 
L 231.87456 286.4371 
L 232.004422 289.279253 
L 232.134284 289.682703 
L 232.653731 286.683786 
L 232.783593 287.408288 
L 232.913455 289.548305 
L 233.043316 287.118205 
L 233.173178 287.976965 
L 233.30304 287.808521 
L 233.432902 288.793668 
L 233.562764 286.678078 
L 233.692625 287.621631 
L 233.822487 287.26296 
L 233.952349 287.884436 
L 234.082211 290.368374 
L 234.212073 288.693261 
L 234.341935 288.809427 
L 234.471796 290.228646 
L 234.601658 288.52674 
L 234.73152 288.814866 
L 234.861382 289.875218 
L 234.991244 288.279128 
L 235.121105 288.117345 
L 235.250967 288.778931 
L 235.380829 288.83314 
L 235.640553 286.885286 
L 235.770415 289.692464 
L 235.900276 289.061426 
L 236.030138 289.591081 
L 236.16 289.202332 
L 236.289862 290.369656 
L 236.549585 288.51028 
L 236.679447 288.374955 
L 236.809309 289.862745 
L 237.069033 287.21996 
L 237.328756 288.734777 
L 237.458618 287.244385 
L 237.58848 289.125214 
L 237.718342 288.697703 
L 237.848204 288.75877 
L 238.107927 289.402498 
L 238.237789 289.091696 
L 238.367651 289.558783 
L 238.497513 287.541423 
L 238.627375 287.77456 
L 238.757236 287.184499 
L 239.01696 287.334852 
L 239.146822 288.012893 
L 239.276684 289.528053 
L 239.406545 285.913422 
L 239.666269 290.336984 
L 239.796131 287.934972 
L 239.925993 289.582271 
L 240.055855 288.914273 
L 240.185716 286.071296 
L 240.315578 290.16346 
L 240.44544 287.761569 
L 240.705164 287.31743 
L 240.835025 286.783403 
L 240.964887 289.031789 
L 241.094749 287.720339 
L 241.224611 291.095812 
L 241.614196 288.972641 
L 241.744058 289.809325 
L 241.87392 288.435716 
L 242.003782 289.99336 
L 242.133644 286.753904 
L 242.263505 287.291794 
L 242.393367 289.671856 
L 242.523229 286.960452 
L 242.653091 288.943461 
L 242.782953 289.221875 
L 242.912815 288.552404 
L 243.042676 290.508297 
L 243.172538 290.204896 
L 243.3024 289.073665 
L 243.432262 291.349184 
L 243.691985 288.303139 
L 243.951709 289.142948 
L 244.081571 286.756333 
L 244.471156 289.316893 
L 244.601018 288.102715 
L 244.860742 290.522484 
L 244.990604 288.561748 
L 245.120465 288.523144 
L 245.250327 288.619997 
L 245.380189 288.01158 
L 245.510051 288.198522 
L 245.639913 288.129449 
L 245.899636 289.923597 
L 246.15936 288.389749 
L 246.289222 288.719106 
L 246.548945 288.006465 
L 246.678807 290.247137 
L 246.808669 287.601486 
L 246.938531 289.211553 
L 247.068393 286.159361 
L 247.198255 289.164675 
L 247.328116 287.826501 
L 247.457978 288.966034 
L 247.58784 289.076444 
L 247.977425 290.118929 
L 248.107287 289.213911 
L 248.367011 287.213343 
L 248.886458 290.651352 
L 249.01632 289.455545 
L 249.146182 290.040946 
L 249.405905 288.442993 
L 249.665629 290.638453 
L 249.925353 287.413188 
L 250.314938 289.772894 
L 250.574662 288.332714 
L 250.964247 289.579967 
L 251.094109 289.966276 
L 251.353833 287.397 
L 251.483695 288.003925 
L 251.743418 286.041925 
L 251.87328 290.292427 
L 252.003142 290.480504 
L 252.133004 289.767632 
L 252.262865 288.03255 
L 252.392727 289.745885 
L 252.652451 287.568481 
L 252.912175 288.53732 
L 253.042036 288.37339 
L 253.30176 289.950131 
L 253.431622 289.81691 
L 253.561484 288.656972 
L 253.691345 290.367402 
L 253.821207 287.819133 
L 253.951069 289.477437 
L 254.080931 288.598709 
L 254.210793 289.286641 
L 254.340655 293.374023 
L 254.470516 287.257351 
L 254.600378 287.994698 
L 254.860102 291.184552 
L 255.119825 288.803427 
L 255.249687 289.33248 
L 255.379549 288.163331 
L 255.509411 289.003125 
L 255.639273 291.245392 
L 255.769135 287.642318 
L 255.898996 289.855394 
L 256.15872 288.309841 
L 256.288582 289.816133 
L 256.418444 289.106106 
L 256.678167 291.448939 
L 256.808029 290.376367 
L 256.937891 286.47901 
L 257.067753 291.616906 
L 257.197615 287.650523 
L 257.327476 289.958848 
L 257.457338 288.615478 
L 257.5872 288.438911 
L 257.717062 287.583136 
L 257.846924 289.412183 
L 257.976785 289.554547 
L 258.106647 287.727371 
L 258.236509 287.500303 
L 258.755956 290.486186 
L 258.885818 288.324769 
L 259.01568 290.740244 
L 259.275404 287.223946 
L 259.535127 291.608475 
L 259.664989 285.793877 
L 259.794851 289.548479 
L 259.924713 286.621393 
L 260.184436 290.653444 
L 260.44416 289.905778 
L 260.574022 287.681868 
L 260.703884 289.648222 
L 260.833745 289.538141 
L 260.963607 287.917515 
L 261.093469 288.229757 
L 261.223331 289.599575 
L 261.353193 288.142808 
L 261.483055 292.599635 
L 261.612916 288.169145 
L 261.742778 290.615185 
L 262.002502 289.520196 
L 262.132364 285.964138 
L 262.262225 289.856964 
L 262.392087 288.149726 
L 262.521949 291.521613 
L 262.651811 291.431979 
L 262.781673 289.847578 
L 262.911535 290.148334 
L 263.041396 290.071868 
L 263.171258 289.409235 
L 263.30112 287.242836 
L 263.560844 290.195508 
L 263.690705 288.144396 
L 263.820567 289.42153 
L 263.950429 288.770749 
L 264.080291 286.228447 
L 264.210153 289.402571 
L 264.340015 287.74948 
L 264.599738 291.094791 
L 264.7296 291.210894 
L 264.859462 289.825932 
L 264.989324 292.582181 
L 265.119185 286.903851 
L 265.249047 286.97233 
L 265.508771 288.597585 
L 265.638633 286.746349 
L 265.768495 287.713127 
L 265.898356 290.609779 
L 266.028218 288.751658 
L 266.15808 290.506016 
L 266.287942 289.646509 
L 266.547665 286.481083 
L 266.807389 290.406799 
L 266.937251 291.429773 
L 267.067113 289.984832 
L 267.196975 289.814328 
L 267.456698 288.14615 
L 267.58656 287.220586 
L 267.716422 290.744282 
L 267.846284 288.161733 
L 267.976145 289.976446 
L 268.106007 289.315627 
L 268.235869 291.833066 
L 268.365731 290.549457 
L 268.495593 290.541863 
L 268.755316 287.619975 
L 268.885178 288.767094 
L 269.01504 287.220449 
L 269.144902 292.881834 
L 269.404625 289.398487 
L 269.534487 287.304561 
L 269.664349 288.469264 
L 269.794211 287.256674 
L 270.053935 291.06173 
L 270.183796 291.21882 
L 270.313658 287.770596 
L 270.44352 289.708585 
L 270.573382 289.495431 
L 270.703244 289.81607 
L 270.833105 285.95602 
L 271.092829 288.139115 
L 271.222691 287.277055 
L 271.612276 293.00256 
L 271.742138 288.544681 
L 271.872 289.710424 
L 272.001862 289.19536 
L 272.131724 289.751105 
L 272.261585 289.003071 
L 272.391447 291.038106 
L 272.651171 286.480668 
L 273.170618 290.277992 
L 273.30048 288.426873 
L 273.430342 292.015509 
L 273.690065 289.490253 
L 273.819927 292.132323 
L 273.949789 291.158544 
L 274.079651 291.672656 
L 274.209513 286.0323 
L 274.339375 291.58581 
L 274.469236 287.340772 
L 274.72896 291.762203 
L 274.988684 286.209499 
L 275.248407 291.336404 
L 275.378269 292.603353 
L 275.637993 289.009119 
L 275.897716 290.91461 
L 276.027578 286.231075 
L 276.15744 290.678012 
L 276.287302 290.874883 
L 276.417164 288.22625 
L 276.547025 289.048872 
L 276.676887 286.637951 
L 276.806749 292.2689 
L 276.936611 288.028195 
L 277.066473 292.864647 
L 277.326196 288.064896 
L 277.58592 291.096788 
L 277.715782 288.910473 
L 277.845644 288.715644 
L 277.975505 287.147436 
L 278.235229 289.689798 
L 278.494953 287.32067 
L 278.624815 291.888934 
L 278.884538 288.267855 
L 279.0144 291.173818 
L 279.144262 287.315285 
L 279.274124 290.856385 
L 279.403985 290.282766 
L 279.533847 291.661324 
L 279.663709 288.016504 
L 279.923433 290.767998 
L 280.183156 288.202924 
L 280.313018 288.642992 
L 280.44288 289.546355 
L 280.572742 293.175361 
L 280.702604 292.304418 
L 280.832465 290.306453 
L 281.092189 291.853248 
L 281.222051 287.980007 
L 281.481775 289.62268 
L 281.611636 288.615747 
L 281.741498 292.0716 
L 281.87136 289.228626 
L 282.001222 290.045817 
L 282.131084 287.077795 
L 282.260945 290.555797 
L 282.390807 288.25103 
L 282.910255 292.080554 
L 283.040116 291.232631 
L 283.169978 287.494616 
L 283.429702 289.73562 
L 283.559564 287.880111 
L 283.689425 287.95128 
L 283.819287 288.469505 
L 284.208873 291.568053 
L 284.338735 287.566957 
L 284.468596 289.382574 
L 284.598458 287.693977 
L 284.72832 288.171598 
L 284.858182 287.812218 
L 284.988044 291.0813 
L 285.117905 288.640912 
L 285.247767 290.878986 
L 285.507491 287.915416 
L 285.637353 287.991192 
L 285.897076 290.304683 
L 286.026938 290.709119 
L 286.1568 289.081813 
L 286.416524 290.706667 
L 286.546385 288.899025 
L 286.676247 290.891957 
L 286.806109 289.205894 
L 286.935971 291.187229 
L 287.065833 288.104023 
L 287.325556 290.07057 
L 287.455418 290.230903 
L 287.58528 289.220267 
L 287.715142 290.674329 
L 287.974865 289.881213 
L 288.104727 292.086302 
L 288.234589 291.673209 
L 288.364451 290.63995 
L 288.494313 287.818192 
L 288.754036 290.930309 
L 288.883898 289.492111 
L 289.01376 289.692605 
L 289.143622 290.100543 
L 289.273484 289.816402 
L 289.533207 287.966431 
L 289.663069 291.175346 
L 289.922793 289.117857 
L 290.182516 289.823878 
L 290.312378 288.346328 
L 290.44224 290.17378 
L 290.572102 288.483109 
L 290.831825 288.696461 
L 290.961687 286.973069 
L 291.091549 290.839413 
L 291.221411 290.504506 
L 291.351273 288.685294 
L 291.481135 291.018103 
L 291.610996 290.401944 
L 291.740858 287.037461 
L 291.87072 290.847747 
L 292.000582 288.82563 
L 292.130444 289.009547 
L 292.260305 287.993629 
L 292.390167 288.711791 
L 292.520029 290.215505 
L 292.649891 289.442821 
L 292.779753 287.861419 
L 293.169338 291.725167 
L 293.2992 290.233518 
L 293.558924 292.153542 
L 293.688785 288.182362 
L 293.818647 290.781974 
L 293.948509 290.932087 
L 294.078371 287.628817 
L 294.208233 288.161003 
L 294.338095 292.06011 
L 294.597818 289.399778 
L 294.857542 291.039043 
L 294.987404 291.637457 
L 295.117265 288.584091 
L 295.376989 290.599331 
L 295.506851 290.804215 
L 295.636713 290.605778 
L 295.766575 289.103425 
L 295.896436 290.633365 
L 296.026298 286.183877 
L 296.286022 292.417196 
L 296.415884 288.398439 
L 296.675607 292.434902 
L 296.935331 288.436011 
L 297.065193 289.42031 
L 297.195055 288.441756 
L 297.324916 290.218507 
L 297.454778 289.553113 
L 297.58464 286.843963 
L 297.714502 290.550205 
L 297.844364 289.974821 
L 297.974225 288.619508 
L 298.104087 289.124764 
L 298.363811 290.341662 
L 298.493673 289.886134 
L 298.623535 292.933006 
L 298.883258 288.383266 
L 299.01312 291.107492 
L 299.272844 288.640421 
L 299.402705 288.516491 
L 299.662429 290.571572 
L 299.922153 288.904618 
L 300.181876 291.793937 
L 300.311738 289.811088 
L 300.4416 289.997056 
L 300.571462 290.53149 
L 300.701324 290.128581 
L 300.831185 291.242203 
L 300.961047 291.311248 
L 301.090909 290.506104 
L 301.220771 287.518671 
L 301.480495 290.448901 
L 301.610356 288.210984 
L 301.740218 291.476742 
L 301.87008 290.896533 
L 301.999942 292.154851 
L 302.259665 289.646839 
L 302.389527 290.225611 
L 302.519389 291.529986 
L 302.649251 290.412468 
L 302.779113 288.330365 
L 302.908975 289.528005 
L 303.038836 289.531149 
L 303.168698 289.187797 
L 303.29856 290.270938 
L 303.558284 287.720995 
L 303.688145 289.091724 
L 303.818007 292.125573 
L 303.947869 289.997402 
L 304.077731 289.871977 
L 304.207593 291.383759 
L 304.337455 289.666854 
L 304.467316 290.664722 
L 304.597178 288.789635 
L 304.856902 290.464471 
L 305.246487 287.795743 
L 305.506211 290.24401 
L 305.636073 289.496864 
L 305.765935 290.909452 
L 305.895796 288.747213 
L 306.025658 291.244587 
L 306.15552 290.621379 
L 306.285382 290.954665 
L 306.415244 290.74717 
L 306.545105 290.826246 
L 306.674967 289.862229 
L 306.804829 289.916726 
L 306.934691 289.436508 
L 307.324276 291.208425 
L 307.454138 290.203391 
L 307.584 290.151529 
L 307.713862 289.532252 
L 307.843724 292.219731 
L 307.973585 290.170441 
L 308.103447 290.785259 
L 308.233309 290.617396 
L 308.363171 289.781396 
L 308.493033 290.127911 
L 308.752756 288.602838 
L 308.882618 290.387551 
L 309.01248 289.532786 
L 309.142342 290.775193 
L 309.272204 290.601621 
L 309.402065 290.114126 
L 309.531927 290.816387 
L 309.791651 289.094521 
L 309.921513 288.969538 
L 310.311098 292.292164 
L 310.44096 289.061878 
L 310.570822 289.974482 
L 310.700684 288.562292 
L 310.960407 289.892148 
L 311.090269 289.635082 
L 311.220131 290.97211 
L 311.349993 290.432754 
L 311.609716 291.025575 
L 311.86944 289.23039 
L 311.999302 290.769147 
L 312.259025 289.146466 
L 312.388887 288.599634 
L 312.518749 290.617948 
L 312.648611 289.796044 
L 312.778473 290.833059 
L 312.908335 289.50554 
L 313.038196 291.420543 
L 313.168058 290.057434 
L 313.29792 290.330458 
L 313.427782 291.867859 
L 313.817367 289.617601 
L 313.947229 290.377495 
L 314.206953 289.227189 
L 314.336815 290.683179 
L 314.466676 290.429438 
L 314.596538 289.596108 
L 314.7264 291.32639 
L 314.856262 289.966911 
L 314.986124 291.97684 
L 315.245847 290.432847 
L 315.505571 290.291185 
L 315.635433 289.319238 
L 315.765295 289.746145 
L 315.895156 291.249123 
L 316.025018 289.675576 
L 316.15488 289.468951 
L 316.284742 290.056558 
L 316.414604 288.9834 
L 316.674327 290.539429 
L 316.804189 290.600731 
L 317.063913 290.038731 
L 317.193775 288.786368 
L 317.453498 290.124813 
L 317.58336 288.927281 
L 317.843084 291.043223 
L 317.972945 289.22344 
L 318.232669 291.132719 
L 318.362531 289.307535 
L 318.622255 289.930464 
L 318.752116 290.170496 
L 318.881978 289.809951 
L 319.01184 290.487436 
L 319.141702 290.329788 
L 319.271564 291.247978 
L 319.531287 289.011607 
L 319.661149 290.906359 
L 320.050735 290.488439 
L 320.180596 291.423328 
L 320.310458 288.313415 
L 320.570182 291.669642 
L 320.829905 290.509796 
L 320.959767 290.737703 
L 321.089629 291.507801 
L 321.219491 289.947202 
L 321.349353 290.180511 
L 321.479215 290.64448 
L 321.609076 289.18367 
L 321.738938 290.504647 
L 321.8688 289.882709 
L 322.128524 291.42588 
L 322.258385 289.703824 
L 322.388247 291.344242 
L 322.518109 289.537024 
L 322.647971 290.040509 
L 322.777833 289.402242 
L 322.907695 291.891092 
L 323.29728 288.910249 
L 323.427142 290.17145 
L 323.686865 288.982892 
L 323.946589 290.611666 
L 324.076451 289.719631 
L 324.206313 290.196417 
L 324.336175 289.637399 
L 324.466036 290.089756 
L 324.595898 291.112788 
L 324.72576 289.722492 
L 324.855622 291.540644 
L 324.985484 288.644802 
L 325.245207 290.965663 
L 325.375069 291.330114 
L 325.504931 288.54807 
L 325.764655 291.509715 
L 325.894516 290.371453 
L 326.15424 291.155979 
L 326.284102 291.019008 
L 326.413964 290.443996 
L 326.543825 290.654812 
L 326.673687 289.929085 
L 326.803549 289.875405 
L 326.933411 290.630863 
L 327.063273 290.20492 
L 327.322996 291.505453 
L 327.452858 290.016041 
L 327.58272 291.970153 
L 327.842444 289.329976 
L 327.972305 289.739203 
L 328.102167 290.548165 
L 328.232029 289.711418 
L 328.491753 289.942029 
L 328.621615 289.558329 
L 328.751476 290.760045 
L 328.881338 290.515236 
L 329.0112 290.64429 
L 329.141062 290.575125 
L 329.270924 290.162905 
L 329.400785 290.657538 
L 329.920233 289.070724 
L 330.050095 291.210745 
L 330.179956 288.855238 
L 330.309818 290.18704 
L 330.43968 290.362702 
L 330.569542 291.644646 
L 330.699404 290.801623 
L 330.959127 290.695796 
L 331.088989 290.018308 
L 331.218851 290.760616 
L 331.348713 289.127991 
L 331.478575 290.521547 
L 331.608436 289.622687 
L 331.86816 291.070275 
L 332.127884 289.683019 
L 332.257745 289.602694 
L 332.387607 291.302434 
L 332.517469 291.479593 
L 332.647331 289.972977 
L 332.777193 291.778874 
L 332.907055 289.95118 
L 333.036916 291.919468 
L 333.166778 289.906619 
L 333.29664 290.916333 
L 333.556364 290.762198 
L 333.686225 290.885931 
L 334.075811 289.593504 
L 334.465396 291.262545 
L 334.595258 291.267674 
L 334.72512 290.890668 
L 334.854982 291.15119 
L 335.114705 289.5815 
L 335.244567 290.457121 
L 335.374429 288.967343 
L 335.504291 290.151455 
L 335.634153 289.864674 
L 335.893876 290.83399 
L 336.023738 289.510791 
L 336.1536 289.52141 
L 336.283462 290.166601 
L 336.413324 289.63661 
L 336.543185 290.306211 
L 336.673047 290.05218 
L 336.802909 290.829293 
L 336.932771 290.39626 
L 337.062633 290.932106 
L 337.192495 290.621785 
L 337.58208 288.419105 
L 337.711942 289.921399 
L 337.841804 290.083404 
L 338.231389 291.273853 
L 338.491113 290.532495 
L 338.620975 290.231396 
L 338.880698 291.174863 
L 339.01056 290.924563 
L 339.140422 289.59021 
L 339.270284 290.596693 
L 339.530007 289.955221 
L 339.659869 291.088227 
L 339.919593 289.464078 
L 340.179316 292.212527 
L 340.309178 290.071147 
L 340.43904 291.300935 
L 340.568902 291.049236 
L 340.828625 289.30127 
L 340.958487 290.385297 
L 341.088349 290.393092 
L 341.218211 290.145103 
L 341.348073 290.795963 
L 341.477935 289.276392 
L 341.737658 290.342887 
L 341.997382 291.142242 
L 342.127244 291.049084 
L 342.257105 289.765249 
L 342.386967 290.374177 
L 342.516829 290.167781 
L 342.646691 290.59033 
L 342.776553 289.245429 
L 342.906415 290.956184 
L 343.036276 289.694418 
L 343.166138 289.826531 
L 343.296 289.702695 
L 343.555724 290.872268 
L 343.685585 290.044691 
L 343.945309 290.779299 
L 344.075171 291.397592 
L 344.205033 290.932134 
L 344.334895 290.936824 
L 344.464756 291.9841 
L 344.72448 288.99449 
L 344.854342 290.593119 
L 344.984204 289.952313 
L 345.243927 290.410294 
L 345.373789 291.132511 
L 345.503651 290.192629 
L 345.633513 291.622705 
L 345.763375 290.370399 
L 346.023098 291.455356 
L 346.282822 290.519212 
L 346.412684 291.262586 
L 346.672407 289.908981 
L 346.802269 291.517881 
L 346.932131 289.258756 
L 347.061993 289.842284 
L 347.191855 291.116399 
L 347.321716 291.207524 
L 347.451578 290.40106 
L 347.58144 291.087856 
L 347.711302 290.983898 
L 347.971025 289.565995 
L 348.230749 290.698518 
L 348.360611 290.260033 
L 348.490473 290.757105 
L 348.620335 290.49984 
L 348.750196 290.788774 
L 349.00992 289.284881 
L 349.139782 290.988286 
L 349.399505 288.918919 
L 349.659229 291.73295 
L 349.918953 290.03054 
L 350.048815 290.699905 
L 350.178676 289.397429 
L 350.308538 290.189695 
L 350.4384 289.452764 
L 350.568262 290.831726 
L 350.698124 290.13933 
L 350.957847 291.141362 
L 351.217571 290.523874 
L 351.347433 290.608034 
L 351.477295 292.111702 
L 351.737018 289.842085 
L 351.996742 291.099532 
L 352.256465 290.234179 
L 352.386327 289.904262 
L 352.516189 290.583049 
L 352.646051 290.084998 
L 352.775913 291.492733 
L 352.905775 291.388006 
L 353.035636 291.524543 
L 353.165498 290.996799 
L 353.29536 291.142615 
L 353.425222 290.236932 
L 353.555084 290.158603 
L 353.814807 290.749186 
L 353.944669 290.638717 
L 354.074531 290.344467 
L 354.334255 290.855911 
L 354.464116 290.161 
L 354.593978 290.231008 
L 354.72384 290.878773 
L 354.853702 290.266942 
L 354.983564 291.356974 
L 355.113425 289.707235 
L 355.243287 291.305425 
L 355.373149 290.148184 
L 355.503011 291.452315 
L 355.632873 290.29868 
L 355.762735 290.326003 
L 355.892596 289.635853 
L 356.022458 289.712226 
L 356.15232 291.012244 
L 356.282182 290.547684 
L 356.412044 289.608993 
L 356.541905 290.495299 
L 356.671767 290.294743 
L 356.931491 291.264813 
L 357.061353 290.192795 
L 357.191215 291.007446 
L 357.321076 290.089281 
L 357.450938 291.04439 
L 357.5808 289.666009 
L 357.710662 291.293251 
L 357.840524 290.426253 
L 357.970385 291.057354 
L 358.100247 290.796363 
L 358.230109 290.199723 
L 358.359971 290.140148 
L 358.489833 291.376585 
L 358.619695 291.231952 
L 358.749556 289.85861 
L 359.00928 291.048895 
L 359.139142 290.515934 
L 359.269004 291.030531 
L 359.398865 290.851279 
L 359.528727 290.388038 
L 359.658589 291.08491 
L 359.788451 290.551995 
L 359.918313 291.156829 
L 360.048175 290.368088 
L 360.178036 291.663695 
L 360.307898 289.593635 
L 360.43776 290.895248 
L 360.567622 289.522105 
L 360.957207 291.382282 
L 361.087069 290.858337 
L 361.216931 289.391662 
L 361.346793 291.253743 
L 361.476655 290.201056 
L 361.606516 290.348499 
L 361.736378 290.66664 
L 361.86624 289.846271 
L 361.996102 290.018419 
L 362.125964 291.06826 
L 362.255825 290.153293 
L 362.385687 290.902503 
L 362.515549 290.555638 
L 362.645411 290.640767 
L 362.905135 290.023111 
L 363.034996 289.205719 
L 363.29472 291.300967 
L 363.424582 290.312173 
L 363.554444 290.738908 
L 363.684305 290.038866 
L 363.944029 291.029736 
L 364.203753 290.525218 
L 364.463476 291.523062 
L 364.7232 289.729107 
L 364.853062 290.639162 
L 364.982924 290.360377 
L 365.112785 290.842229 
L 365.372509 290.657508 
L 365.502371 290.721612 
L 365.632233 291.288908 
L 365.762095 290.653805 
L 365.891956 291.230976 
L 366.021818 291.00951 
L 366.15168 289.863992 
L 366.281542 290.845125 
L 366.541265 290.317212 
L 366.671127 290.525968 
L 366.800989 291.428757 
L 367.060713 290.036611 
L 367.190575 290.214485 
L 367.320436 290.834136 
L 367.450298 290.582062 
L 367.58016 291.173747 
L 367.710022 289.78172 
L 367.839884 290.568267 
L 368.359331 290.425362 
L 368.489193 289.989216 
L 368.748916 291.443799 
L 368.878778 290.026521 
L 369.00864 290.589998 
L 369.138502 290.356307 
L 369.268364 290.960631 
L 369.398225 290.599624 
L 369.657949 291.234015 
L 369.917673 289.999931 
L 370.047535 291.015555 
L 370.177396 289.845727 
L 370.307258 290.325426 
L 370.43712 290.167109 
L 370.566982 291.092181 
L 370.696844 290.590285 
L 370.826705 290.855844 
L 370.956567 290.622121 
L 371.086429 291.415737 
L 371.346153 290.904883 
L 371.605876 290.660833 
L 371.735738 290.308867 
L 371.995462 291.128041 
L 372.255185 290.751297 
L 372.385047 290.718487 
L 372.514909 290.335586 
L 373.034356 291.67429 
L 373.164218 289.833819 
L 373.553804 291.005847 
L 373.683665 290.277391 
L 373.813527 290.224664 
L 373.943389 291.104848 
L 374.073251 290.86388 
L 374.332975 290.902933 
L 374.462836 290.856351 
L 374.592698 290.078328 
L 374.852422 290.202774 
L 374.982284 290.924244 
L 375.112145 290.285638 
L 375.371869 291.022382 
L 375.631593 290.069775 
L 375.891316 291.075749 
L 376.021178 290.085276 
L 376.15104 290.136388 
L 376.410764 291.251976 
L 376.540625 289.945632 
L 376.670487 290.583839 
L 376.800349 290.493672 
L 376.930211 290.141806 
L 377.060073 290.568115 
L 377.189935 290.338969 
L 377.319796 290.413128 
L 377.449658 291.35307 
L 377.57952 290.676739 
L 377.709382 291.954904 
L 377.839244 290.609694 
L 377.969105 290.913775 
L 378.098967 290.861505 
L 378.228829 291.292332 
L 378.618415 290.148846 
L 378.748276 290.29221 
L 378.878138 290.920618 
L 379.008 290.558904 
L 379.267724 291.166402 
L 379.397585 291.314574 
L 379.787171 290.061173 
L 379.917033 290.67594 
L 380.046895 290.523805 
L 380.176756 291.254112 
L 380.306618 290.163973 
L 380.43648 291.163279 
L 380.566342 290.1931 
L 380.696204 290.264102 
L 380.826065 289.922617 
L 380.955927 289.908145 
L 381.085789 290.943278 
L 381.345513 290.630636 
L 381.475375 290.775019 
L 381.605236 291.293555 
L 381.735098 290.497504 
L 381.994822 291.2071 
L 382.124684 290.342378 
L 382.254545 290.402462 
L 382.384407 290.91646 
L 382.773993 289.447787 
L 382.903855 290.467865 
L 383.033716 290.384009 
L 383.163578 290.602029 
L 383.29344 290.544691 
L 383.423302 290.192503 
L 383.553164 291.162169 
L 383.812887 290.577528 
L 383.942749 291.003515 
L 384.202473 290.490527 
L 384.462196 290.688782 
L 384.592058 290.472359 
L 384.72192 291.061111 
L 384.851782 291.130591 
L 384.981644 290.228199 
L 385.111505 290.947808 
L 385.241367 290.589265 
L 385.371229 291.114873 
L 385.501091 291.101427 
L 385.630953 290.320887 
L 385.760815 290.794068 
L 385.890676 290.478582 
L 386.020538 290.88433 
L 386.1504 290.532923 
L 386.280262 291.123962 
L 386.410124 291.135648 
L 386.539985 290.307485 
L 386.799709 290.835521 
L 386.929571 290.617377 
L 387.189295 291.073872 
L 387.708742 290.111878 
L 387.838604 290.650551 
L 388.098327 289.768627 
L 388.228189 290.924392 
L 388.358051 290.318222 
L 388.617775 290.490074 
L 388.747636 291.39985 
L 388.877498 289.935094 
L 389.137222 290.564256 
L 389.267084 290.393744 
L 389.526807 291.074044 
L 389.916393 290.063501 
L 390.046255 290.339672 
L 390.305978 291.312179 
L 390.43584 290.069992 
L 390.565702 291.276798 
L 390.695564 290.975602 
L 390.825425 291.244125 
L 390.955287 291.235285 
L 391.215011 290.257005 
L 391.344873 289.883786 
L 391.474735 291.143884 
L 391.604596 290.627573 
L 391.734458 291.031189 
L 391.86432 290.765978 
L 391.994182 290.880552 
L 392.124044 291.429014 
L 392.253905 291.074634 
L 392.383767 291.200462 
L 392.643491 290.901649 
L 392.903215 289.951438 
L 393.033076 291.189435 
L 393.162938 290.788536 
L 393.2928 289.647113 
L 393.422662 290.760992 
L 393.552524 290.315728 
L 393.682385 290.341236 
L 393.942109 291.006843 
L 394.071971 290.768811 
L 394.201833 290.896446 
L 394.461556 290.508641 
L 394.591418 290.531601 
L 394.72128 290.086609 
L 394.981004 291.332097 
L 395.110865 290.334334 
L 395.240727 290.325473 
L 395.370589 290.853916 
L 395.500451 290.811552 
L 395.760175 289.811691 
L 395.890036 290.829813 
L 396.019898 290.536017 
L 396.14976 290.966352 
L 396.279622 290.619722 
L 396.409484 290.805829 
L 396.669207 290.415239 
L 396.928931 290.812348 
L 397.058793 290.670726 
L 397.188655 291.182649 
L 397.318516 291.123401 
L 397.57824 289.967915 
L 397.708102 290.944017 
L 397.967825 290.745301 
L 398.097687 290.800129 
L 398.227549 290.666259 
L 398.357411 291.079942 
L 398.487273 290.719925 
L 398.487273 290.719925 
" style="fill:none;stroke:#1f77b4;stroke-linecap:square;stroke-width:1.5;"/>
   </g>
   <g id="patch_3">
    <path d="M 57.6 307.584 
L 57.6 41.472 
" style="fill:none;stroke:#000000;stroke-linecap:square;stroke-linejoin:miter;stroke-width:0.8;"/>
   </g>
   <g id="patch_4">
    <path d="M 414.72 307.584 
L 414.72 41.472 
" style="fill:none;stroke:#000000;stroke-linecap:square;stroke-linejoin:miter;stroke-width:0.8;"/>
   </g>
   <g id="patch_5">
    <path d="M 57.6 307.584 
L 414.72 307.584 
" style="fill:none;stroke:#000000;stroke-linecap:square;stroke-linejoin:miter;stroke-width:0.8;"/>
   </g>
   <g id="patch_6">
    <path d="M 57.6 41.472 
L 414.72 41.472 
" style="fill:none;stroke:#000000;stroke-linecap:square;stroke-linejoin:miter;stroke-width:0.8;"/>
   </g>
   <g id="text_16">
    <!-- Spectrum of output after eliminating 50Hz -->
    <g transform="translate(108.84 35.472)scale(0.12 -0.12)">
     <defs>
      <path d="M 53.515625 70.515625 
L 53.515625 60.890625 
Q 47.90625 63.578125 42.921875 64.890625 
Q 37.9375 66.21875 33.296875 66.21875 
Q 25.25 66.21875 20.875 63.09375 
Q 16.5 59.96875 16.5 54.203125 
Q 16.5 49.359375 19.40625 46.890625 
Q 22.3125 44.4375 30.421875 42.921875 
L 36.375 41.703125 
Q 47.40625 39.59375 52.65625 34.296875 
Q 57.90625 29 57.90625 20.125 
Q 57.90625 9.515625 50.796875 4.046875 
Q 43.703125 -1.421875 29.984375 -1.421875 
Q 24.8125 -1.421875 18.96875 -0.25 
Q 13.140625 0.921875 6.890625 3.21875 
L 6.890625 13.375 
Q 12.890625 10.015625 18.65625 8.296875 
Q 24.421875 6.59375 29.984375 6.59375 
Q 38.421875 6.59375 43.015625 9.90625 
Q 47.609375 13.234375 47.609375 19.390625 
Q 47.609375 24.75 44.3125 27.78125 
Q 41.015625 30.8125 33.5 32.328125 
L 27.484375 33.5 
Q 16.453125 35.6875 11.515625 40.375 
Q 6.59375 45.0625 6.59375 53.421875 
Q 6.59375 63.09375 13.40625 68.65625 
Q 20.21875 74.21875 32.171875 74.21875 
Q 37.3125 74.21875 42.625 73.28125 
Q 47.953125 72.359375 53.515625 70.515625 
z
" id="DejaVuSans-83"/>
      <path d="M 18.109375 8.203125 
L 18.109375 -20.796875 
L 9.078125 -20.796875 
L 9.078125 54.6875 
L 18.109375 54.6875 
L 18.109375 46.390625 
Q 20.953125 51.265625 25.265625 53.625 
Q 29.59375 56 35.59375 56 
Q 45.5625 56 51.78125 48.09375 
Q 58.015625 40.1875 58.015625 27.296875 
Q 58.015625 14.40625 51.78125 6.484375 
Q 45.5625 -1.421875 35.59375 -1.421875 
Q 29.59375 -1.421875 25.265625 0.953125 
Q 20.953125 3.328125 18.109375 8.203125 
z
M 48.6875 27.296875 
Q 48.6875 37.203125 44.609375 42.84375 
Q 40.53125 48.484375 33.40625 48.484375 
Q 26.265625 48.484375 22.1875 42.84375 
Q 18.109375 37.203125 18.109375 27.296875 
Q 18.109375 17.390625 22.1875 11.75 
Q 26.265625 6.109375 33.40625 6.109375 
Q 40.53125 6.109375 44.609375 11.75 
Q 48.6875 17.390625 48.6875 27.296875 
z
" id="DejaVuSans-112"/>
      <path d="M 18.3125 70.21875 
L 18.3125 54.6875 
L 36.8125 54.6875 
L 36.8125 47.703125 
L 18.3125 47.703125 
L 18.3125 18.015625 
Q 18.3125 11.328125 20.140625 9.421875 
Q 21.96875 7.515625 27.59375 7.515625 
L 36.8125 7.515625 
L 36.8125 0 
L 27.59375 0 
Q 17.1875 0 13.234375 3.875 
Q 9.28125 7.765625 9.28125 18.015625 
L 9.28125 47.703125 
L 2.6875 47.703125 
L 2.6875 54.6875 
L 9.28125 54.6875 
L 9.28125 70.21875 
z
" id="DejaVuSans-116"/>
      <path d="M 52 44.1875 
Q 55.375 50.25 60.0625 53.125 
Q 64.75 56 71.09375 56 
Q 79.640625 56 84.28125 50.015625 
Q 88.921875 44.046875 88.921875 33.015625 
L 88.921875 0 
L 79.890625 0 
L 79.890625 32.71875 
Q 79.890625 40.578125 77.09375 44.375 
Q 74.3125 48.1875 68.609375 48.1875 
Q 61.625 48.1875 57.5625 43.546875 
Q 53.515625 38.921875 53.515625 30.90625 
L 53.515625 0 
L 44.484375 0 
L 44.484375 32.71875 
Q 44.484375 40.625 41.703125 44.40625 
Q 38.921875 48.1875 33.109375 48.1875 
Q 26.21875 48.1875 22.15625 43.53125 
Q 18.109375 38.875 18.109375 30.90625 
L 18.109375 0 
L 9.078125 0 
L 9.078125 54.6875 
L 18.109375 54.6875 
L 18.109375 46.1875 
Q 21.1875 51.21875 25.484375 53.609375 
Q 29.78125 56 35.6875 56 
Q 41.65625 56 45.828125 52.96875 
Q 50 49.953125 52 44.1875 
z
" id="DejaVuSans-109"/>
      <path id="DejaVuSans-32"/>
      <path d="M 30.609375 48.390625 
Q 23.390625 48.390625 19.1875 42.75 
Q 14.984375 37.109375 14.984375 27.296875 
Q 14.984375 17.484375 19.15625 11.84375 
Q 23.34375 6.203125 30.609375 6.203125 
Q 37.796875 6.203125 41.984375 11.859375 
Q 46.1875 17.53125 46.1875 27.296875 
Q 46.1875 37.015625 41.984375 42.703125 
Q 37.796875 48.390625 30.609375 48.390625 
z
M 30.609375 56 
Q 42.328125 56 49.015625 48.375 
Q 55.71875 40.765625 55.71875 27.296875 
Q 55.71875 13.875 49.015625 6.21875 
Q 42.328125 -1.421875 30.609375 -1.421875 
Q 18.84375 -1.421875 12.171875 6.21875 
Q 5.515625 13.875 5.515625 27.296875 
Q 5.515625 40.765625 12.171875 48.375 
Q 18.84375 56 30.609375 56 
z
" id="DejaVuSans-111"/>
      <path d="M 34.28125 27.484375 
Q 23.390625 27.484375 19.1875 25 
Q 14.984375 22.515625 14.984375 16.5 
Q 14.984375 11.71875 18.140625 8.90625 
Q 21.296875 6.109375 26.703125 6.109375 
Q 34.1875 6.109375 38.703125 11.40625 
Q 43.21875 16.703125 43.21875 25.484375 
L 43.21875 27.484375 
z
M 52.203125 31.203125 
L 52.203125 0 
L 43.21875 0 
L 43.21875 8.296875 
Q 40.140625 3.328125 35.546875 0.953125 
Q 30.953125 -1.421875 24.3125 -1.421875 
Q 15.921875 -1.421875 10.953125 3.296875 
Q 6 8.015625 6 15.921875 
Q 6 25.140625 12.171875 29.828125 
Q 18.359375 34.515625 30.609375 34.515625 
L 43.21875 34.515625 
L 43.21875 35.40625 
Q 43.21875 41.609375 39.140625 45 
Q 35.0625 48.390625 27.6875 48.390625 
Q 23 48.390625 18.546875 47.265625 
Q 14.109375 46.140625 10.015625 43.890625 
L 10.015625 52.203125 
Q 14.9375 54.109375 19.578125 55.046875 
Q 24.21875 56 28.609375 56 
Q 40.484375 56 46.34375 49.84375 
Q 52.203125 43.703125 52.203125 31.203125 
z
" id="DejaVuSans-97"/>
      <path d="M 9.421875 75.984375 
L 18.40625 75.984375 
L 18.40625 0 
L 9.421875 0 
z
" id="DejaVuSans-108"/>
      <path d="M 9.421875 54.6875 
L 18.40625 54.6875 
L 18.40625 0 
L 9.421875 0 
z
M 9.421875 75.984375 
L 18.40625 75.984375 
L 18.40625 64.59375 
L 9.421875 64.59375 
z
" id="DejaVuSans-105"/>
      <path d="M 45.40625 27.984375 
Q 45.40625 37.75 41.375 43.109375 
Q 37.359375 48.484375 30.078125 48.484375 
Q 22.859375 48.484375 18.828125 43.109375 
Q 14.796875 37.75 14.796875 27.984375 
Q 14.796875 18.265625 18.828125 12.890625 
Q 22.859375 7.515625 30.078125 7.515625 
Q 37.359375 7.515625 41.375 12.890625 
Q 45.40625 18.265625 45.40625 27.984375 
z
M 54.390625 6.78125 
Q 54.390625 -7.171875 48.1875 -13.984375 
Q 42 -20.796875 29.203125 -20.796875 
Q 24.46875 -20.796875 20.265625 -20.09375 
Q 16.0625 -19.390625 12.109375 -17.921875 
L 12.109375 -9.1875 
Q 16.0625 -11.328125 19.921875 -12.34375 
Q 23.78125 -13.375 27.78125 -13.375 
Q 36.625 -13.375 41.015625 -8.765625 
Q 45.40625 -4.15625 45.40625 5.171875 
L 45.40625 9.625 
Q 42.625 4.78125 38.28125 2.390625 
Q 33.9375 0 27.875 0 
Q 17.828125 0 11.671875 7.65625 
Q 5.515625 15.328125 5.515625 27.984375 
Q 5.515625 40.671875 11.671875 48.328125 
Q 17.828125 56 27.875 56 
Q 33.9375 56 38.28125 53.609375 
Q 42.625 51.21875 45.40625 46.390625 
L 45.40625 54.6875 
L 54.390625 54.6875 
z
" id="DejaVuSans-103"/>
      <path d="M 9.8125 72.90625 
L 19.671875 72.90625 
L 19.671875 43.015625 
L 55.515625 43.015625 
L 55.515625 72.90625 
L 65.375 72.90625 
L 65.375 0 
L 55.515625 0 
L 55.515625 34.71875 
L 19.671875 34.71875 
L 19.671875 0 
L 9.8125 0 
z
" id="DejaVuSans-72"/>
      <path d="M 5.515625 54.6875 
L 48.1875 54.6875 
L 48.1875 46.484375 
L 14.40625 7.171875 
L 48.1875 7.171875 
L 48.1875 0 
L 4.296875 0 
L 4.296875 8.203125 
L 38.09375 47.515625 
L 5.515625 47.515625 
z
" id="DejaVuSans-122"/>
     </defs>
     <use xlink:href="#DejaVuSans-83"/>
     <use x="63.476562" xlink:href="#DejaVuSans-112"/>
     <use x="126.953125" xlink:href="#DejaVuSans-101"/>
     <use x="188.476562" xlink:href="#DejaVuSans-99"/>
     <use x="243.457031" xlink:href="#DejaVuSans-116"/>
     <use x="282.666016" xlink:href="#DejaVuSans-114"/>
     <use x="323.779297" xlink:href="#DejaVuSans-117"/>
     <use x="387.158203" xlink:href="#DejaVuSans-109"/>
     <use x="484.570312" xlink:href="#DejaVuSans-32"/>
     <use x="516.357422" xlink:href="#DejaVuSans-111"/>
     <use x="577.539062" xlink:href="#DejaVuSans-102"/>
     <use x="612.744141" xlink:href="#DejaVuSans-32"/>
     <use x="644.53125" xlink:href="#DejaVuSans-111"/>
     <use x="705.712891" xlink:href="#DejaVuSans-117"/>
     <use x="769.091797" xlink:href="#DejaVuSans-116"/>
     <use x="808.300781" xlink:href="#DejaVuSans-112"/>
     <use x="871.777344" xlink:href="#DejaVuSans-117"/>
     <use x="935.15625" xlink:href="#DejaVuSans-116"/>
     <use x="974.365234" xlink:href="#DejaVuSans-32"/>
     <use x="1006.152344" xlink:href="#DejaVuSans-97"/>
     <use x="1067.431641" xlink:href="#DejaVuSans-102"/>
     <use x="1100.886719" xlink:href="#DejaVuSans-116"/>
     <use x="1140.095703" xlink:href="#DejaVuSans-101"/>
     <use x="1201.619141" xlink:href="#DejaVuSans-114"/>
     <use x="1242.732422" xlink:href="#DejaVuSans-32"/>
     <use x="1274.519531" xlink:href="#DejaVuSans-101"/>
     <use x="1336.042969" xlink:href="#DejaVuSans-108"/>
     <use x="1363.826172" xlink:href="#DejaVuSans-105"/>
     <use x="1391.609375" xlink:href="#DejaVuSans-109"/>
     <use x="1489.021484" xlink:href="#DejaVuSans-105"/>
     <use x="1516.804688" xlink:href="#DejaVuSans-110"/>
     <use x="1580.183594" xlink:href="#DejaVuSans-97"/>
     <use x="1641.462891" xlink:href="#DejaVuSans-116"/>
     <use x="1680.671875" xlink:href="#DejaVuSans-105"/>
     <use x="1708.455078" xlink:href="#DejaVuSans-110"/>
     <use x="1771.833984" xlink:href="#DejaVuSans-103"/>
     <use x="1835.310547" xlink:href="#DejaVuSans-32"/>
     <use x="1867.097656" xlink:href="#DejaVuSans-53"/>
     <use x="1930.720703" xlink:href="#DejaVuSans-48"/>
     <use x="1994.34375" xlink:href="#DejaVuSans-72"/>
     <use x="2069.539062" xlink:href="#DejaVuSans-122"/>
    </g>
   </g>
  </g>
 </g>
 <defs>
  <clipPath id="pf619d5d4b2">
   <rect height="266.112" width="357.12" x="57.6" y="41.472"/>
  </clipPath>
 </defs>
</svg>
