<?xml version="1.0" encoding="utf-8" standalone="no"?>
<!DOCTYPE svg PUBLIC "-//W3C//DTD SVG 1.1//EN"
  "http://www.w3.org/Graphics/SVG/1.1/DTD/svg11.dtd">
<!-- Created with matplotlib (https://matplotlib.org/) -->
<svg height="345.6pt" version="1.1" viewBox="0 0 460.8 345.6" width="460.8pt" xmlns="http://www.w3.org/2000/svg" xmlns:xlink="http://www.w3.org/1999/xlink">
 <metadata>
  <rdf:RDF xmlns:cc="http://creativecommons.org/ns#" xmlns:dc="http://purl.org/dc/elements/1.1/" xmlns:rdf="http://www.w3.org/1999/02/22-rdf-syntax-ns#">
   <cc:Work>
    <dc:type rdf:resource="http://purl.org/dc/dcmitype/StillImage"/>
    <dc:date>2021-11-15T03:31:31.151687</dc:date>
    <dc:format>image/svg+xml</dc:format>
    <dc:creator>
     <cc:Agent>
      <dc:title>Matplotlib v3.3.2, https://matplotlib.org/</dc:title>
     </cc:Agent>
    </dc:creator>
   </cc:Work>
  </rdf:RDF>
 </metadata>
 <defs>
  <style type="text/css">*{stroke-linecap:butt;stroke-linejoin:round;}</style>
 </defs>
 <g id="figure_1">
  <g id="patch_1">
   <path d="M 0 345.6 
L 460.8 345.6 
L 460.8 0 
L 0 0 
z
" style="fill:#ffffff;"/>
  </g>
  <g id="axes_1">
   <g id="patch_2">
    <path d="M 57.6 307.584 
L 414.72 307.584 
L 414.72 41.472 
L 57.6 41.472 
z
" style="fill:#ffffff;"/>
   </g>
   <g id="matplotlib.axis_1">
    <g id="xtick_1">
     <g id="line2d_1">
      <defs>
       <path d="M 0 0 
L 0 3.5 
" id="mc1385e849b" style="stroke:#000000;stroke-width:0.8;"/>
      </defs>
      <g>
       <use style="stroke:#000000;stroke-width:0.8;" x="73.832727" xlink:href="#mc1385e849b" y="307.584"/>
      </g>
     </g>
     <g id="text_1">
      <!-- 0.0 -->
      <g transform="translate(65.881165 322.182437)scale(0.1 -0.1)">
       <defs>
        <path d="M 31.78125 66.40625 
Q 24.171875 66.40625 20.328125 58.90625 
Q 16.5 51.421875 16.5 36.375 
Q 16.5 21.390625 20.328125 13.890625 
Q 24.171875 6.390625 31.78125 6.390625 
Q 39.453125 6.390625 43.28125 13.890625 
Q 47.125 21.390625 47.125 36.375 
Q 47.125 51.421875 43.28125 58.90625 
Q 39.453125 66.40625 31.78125 66.40625 
z
M 31.78125 74.21875 
Q 44.046875 74.21875 50.515625 64.515625 
Q 56.984375 54.828125 56.984375 36.375 
Q 56.984375 17.96875 50.515625 8.265625 
Q 44.046875 -1.421875 31.78125 -1.421875 
Q 19.53125 -1.421875 13.0625 8.265625 
Q 6.59375 17.96875 6.59375 36.375 
Q 6.59375 54.828125 13.0625 64.515625 
Q 19.53125 74.21875 31.78125 74.21875 
z
" id="DejaVuSans-48"/>
        <path d="M 10.6875 12.40625 
L 21 12.40625 
L 21 0 
L 10.6875 0 
z
" id="DejaVuSans-46"/>
       </defs>
       <use xlink:href="#DejaVuSans-48"/>
       <use x="63.623047" xlink:href="#DejaVuSans-46"/>
       <use x="95.410156" xlink:href="#DejaVuSans-48"/>
      </g>
     </g>
    </g>
    <g id="xtick_2">
     <g id="line2d_2">
      <g>
       <use style="stroke:#000000;stroke-width:0.8;" x="114.422663" xlink:href="#mc1385e849b" y="307.584"/>
      </g>
     </g>
     <g id="text_2">
      <!-- 2.5 -->
      <g transform="translate(106.471101 322.182437)scale(0.1 -0.1)">
       <defs>
        <path d="M 19.1875 8.296875 
L 53.609375 8.296875 
L 53.609375 0 
L 7.328125 0 
L 7.328125 8.296875 
Q 12.9375 14.109375 22.625 23.890625 
Q 32.328125 33.6875 34.8125 36.53125 
Q 39.546875 41.84375 41.421875 45.53125 
Q 43.3125 49.21875 43.3125 52.78125 
Q 43.3125 58.59375 39.234375 62.25 
Q 35.15625 65.921875 28.609375 65.921875 
Q 23.96875 65.921875 18.8125 64.3125 
Q 13.671875 62.703125 7.8125 59.421875 
L 7.8125 69.390625 
Q 13.765625 71.78125 18.9375 73 
Q 24.125 74.21875 28.421875 74.21875 
Q 39.75 74.21875 46.484375 68.546875 
Q 53.21875 62.890625 53.21875 53.421875 
Q 53.21875 48.921875 51.53125 44.890625 
Q 49.859375 40.875 45.40625 35.40625 
Q 44.1875 33.984375 37.640625 27.21875 
Q 31.109375 20.453125 19.1875 8.296875 
z
" id="DejaVuSans-50"/>
        <path d="M 10.796875 72.90625 
L 49.515625 72.90625 
L 49.515625 64.59375 
L 19.828125 64.59375 
L 19.828125 46.734375 
Q 21.96875 47.46875 24.109375 47.828125 
Q 26.265625 48.1875 28.421875 48.1875 
Q 40.625 48.1875 47.75 41.5 
Q 54.890625 34.8125 54.890625 23.390625 
Q 54.890625 11.625 47.5625 5.09375 
Q 40.234375 -1.421875 26.90625 -1.421875 
Q 22.3125 -1.421875 17.546875 -0.640625 
Q 12.796875 0.140625 7.71875 1.703125 
L 7.71875 11.625 
Q 12.109375 9.234375 16.796875 8.0625 
Q 21.484375 6.890625 26.703125 6.890625 
Q 35.15625 6.890625 40.078125 11.328125 
Q 45.015625 15.765625 45.015625 23.390625 
Q 45.015625 31 40.078125 35.4375 
Q 35.15625 39.890625 26.703125 39.890625 
Q 22.75 39.890625 18.8125 39.015625 
Q 14.890625 38.140625 10.796875 36.28125 
z
" id="DejaVuSans-53"/>
       </defs>
       <use xlink:href="#DejaVuSans-50"/>
       <use x="63.623047" xlink:href="#DejaVuSans-46"/>
       <use x="95.410156" xlink:href="#DejaVuSans-53"/>
      </g>
     </g>
    </g>
    <g id="xtick_3">
     <g id="line2d_3">
      <g>
       <use style="stroke:#000000;stroke-width:0.8;" x="155.0126" xlink:href="#mc1385e849b" y="307.584"/>
      </g>
     </g>
     <g id="text_3">
      <!-- 5.0 -->
      <g transform="translate(147.061037 322.182437)scale(0.1 -0.1)">
       <use xlink:href="#DejaVuSans-53"/>
       <use x="63.623047" xlink:href="#DejaVuSans-46"/>
       <use x="95.410156" xlink:href="#DejaVuSans-48"/>
      </g>
     </g>
    </g>
    <g id="xtick_4">
     <g id="line2d_4">
      <g>
       <use style="stroke:#000000;stroke-width:0.8;" x="195.602536" xlink:href="#mc1385e849b" y="307.584"/>
      </g>
     </g>
     <g id="text_4">
      <!-- 7.5 -->
      <g transform="translate(187.650973 322.182437)scale(0.1 -0.1)">
       <defs>
        <path d="M 8.203125 72.90625 
L 55.078125 72.90625 
L 55.078125 68.703125 
L 28.609375 0 
L 18.3125 0 
L 43.21875 64.59375 
L 8.203125 64.59375 
z
" id="DejaVuSans-55"/>
       </defs>
       <use xlink:href="#DejaVuSans-55"/>
       <use x="63.623047" xlink:href="#DejaVuSans-46"/>
       <use x="95.410156" xlink:href="#DejaVuSans-53"/>
      </g>
     </g>
    </g>
    <g id="xtick_5">
     <g id="line2d_5">
      <g>
       <use style="stroke:#000000;stroke-width:0.8;" x="236.192472" xlink:href="#mc1385e849b" y="307.584"/>
      </g>
     </g>
     <g id="text_5">
      <!-- 10.0 -->
      <g transform="translate(225.059659 322.182437)scale(0.1 -0.1)">
       <defs>
        <path d="M 12.40625 8.296875 
L 28.515625 8.296875 
L 28.515625 63.921875 
L 10.984375 60.40625 
L 10.984375 69.390625 
L 28.421875 72.90625 
L 38.28125 72.90625 
L 38.28125 8.296875 
L 54.390625 8.296875 
L 54.390625 0 
L 12.40625 0 
z
" id="DejaVuSans-49"/>
       </defs>
       <use xlink:href="#DejaVuSans-49"/>
       <use x="63.623047" xlink:href="#DejaVuSans-48"/>
       <use x="127.246094" xlink:href="#DejaVuSans-46"/>
       <use x="159.033203" xlink:href="#DejaVuSans-48"/>
      </g>
     </g>
    </g>
    <g id="xtick_6">
     <g id="line2d_6">
      <g>
       <use style="stroke:#000000;stroke-width:0.8;" x="276.782408" xlink:href="#mc1385e849b" y="307.584"/>
      </g>
     </g>
     <g id="text_6">
      <!-- 12.5 -->
      <g transform="translate(265.649596 322.182437)scale(0.1 -0.1)">
       <use xlink:href="#DejaVuSans-49"/>
       <use x="63.623047" xlink:href="#DejaVuSans-50"/>
       <use x="127.246094" xlink:href="#DejaVuSans-46"/>
       <use x="159.033203" xlink:href="#DejaVuSans-53"/>
      </g>
     </g>
    </g>
    <g id="xtick_7">
     <g id="line2d_7">
      <g>
       <use style="stroke:#000000;stroke-width:0.8;" x="317.372344" xlink:href="#mc1385e849b" y="307.584"/>
      </g>
     </g>
     <g id="text_7">
      <!-- 15.0 -->
      <g transform="translate(306.239532 322.182437)scale(0.1 -0.1)">
       <use xlink:href="#DejaVuSans-49"/>
       <use x="63.623047" xlink:href="#DejaVuSans-53"/>
       <use x="127.246094" xlink:href="#DejaVuSans-46"/>
       <use x="159.033203" xlink:href="#DejaVuSans-48"/>
      </g>
     </g>
    </g>
    <g id="xtick_8">
     <g id="line2d_8">
      <g>
       <use style="stroke:#000000;stroke-width:0.8;" x="357.96228" xlink:href="#mc1385e849b" y="307.584"/>
      </g>
     </g>
     <g id="text_8">
      <!-- 17.5 -->
      <g transform="translate(346.829468 322.182437)scale(0.1 -0.1)">
       <use xlink:href="#DejaVuSans-49"/>
       <use x="63.623047" xlink:href="#DejaVuSans-55"/>
       <use x="127.246094" xlink:href="#DejaVuSans-46"/>
       <use x="159.033203" xlink:href="#DejaVuSans-53"/>
      </g>
     </g>
    </g>
    <g id="xtick_9">
     <g id="line2d_9">
      <g>
       <use style="stroke:#000000;stroke-width:0.8;" x="398.552217" xlink:href="#mc1385e849b" y="307.584"/>
      </g>
     </g>
     <g id="text_9">
      <!-- 20.0 -->
      <g transform="translate(387.419404 322.182437)scale(0.1 -0.1)">
       <use xlink:href="#DejaVuSans-50"/>
       <use x="63.623047" xlink:href="#DejaVuSans-48"/>
       <use x="127.246094" xlink:href="#DejaVuSans-46"/>
       <use x="159.033203" xlink:href="#DejaVuSans-48"/>
      </g>
     </g>
    </g>
   </g>
   <g id="matplotlib.axis_2">
    <g id="ytick_1">
     <g id="line2d_10">
      <defs>
       <path d="M 0 0 
L -3.5 0 
" id="mae4be3226f" style="stroke:#000000;stroke-width:0.8;"/>
      </defs>
      <g>
       <use style="stroke:#000000;stroke-width:0.8;" x="57.6" xlink:href="#mae4be3226f" y="290.030015"/>
      </g>
     </g>
     <g id="text_10">
      <!-- 0.000 -->
      <g transform="translate(21.971875 293.829234)scale(0.1 -0.1)">
       <use xlink:href="#DejaVuSans-48"/>
       <use x="63.623047" xlink:href="#DejaVuSans-46"/>
       <use x="95.410156" xlink:href="#DejaVuSans-48"/>
       <use x="159.033203" xlink:href="#DejaVuSans-48"/>
       <use x="222.65625" xlink:href="#DejaVuSans-48"/>
      </g>
     </g>
    </g>
    <g id="ytick_2">
     <g id="line2d_11">
      <g>
       <use style="stroke:#000000;stroke-width:0.8;" x="57.6" xlink:href="#mae4be3226f" y="249.810341"/>
      </g>
     </g>
     <g id="text_11">
      <!-- 0.001 -->
      <g transform="translate(21.971875 253.60956)scale(0.1 -0.1)">
       <use xlink:href="#DejaVuSans-48"/>
       <use x="63.623047" xlink:href="#DejaVuSans-46"/>
       <use x="95.410156" xlink:href="#DejaVuSans-48"/>
       <use x="159.033203" xlink:href="#DejaVuSans-48"/>
       <use x="222.65625" xlink:href="#DejaVuSans-49"/>
      </g>
     </g>
    </g>
    <g id="ytick_3">
     <g id="line2d_12">
      <g>
       <use style="stroke:#000000;stroke-width:0.8;" x="57.6" xlink:href="#mae4be3226f" y="209.590667"/>
      </g>
     </g>
     <g id="text_12">
      <!-- 0.002 -->
      <g transform="translate(21.971875 213.389886)scale(0.1 -0.1)">
       <use xlink:href="#DejaVuSans-48"/>
       <use x="63.623047" xlink:href="#DejaVuSans-46"/>
       <use x="95.410156" xlink:href="#DejaVuSans-48"/>
       <use x="159.033203" xlink:href="#DejaVuSans-48"/>
       <use x="222.65625" xlink:href="#DejaVuSans-50"/>
      </g>
     </g>
    </g>
    <g id="ytick_4">
     <g id="line2d_13">
      <g>
       <use style="stroke:#000000;stroke-width:0.8;" x="57.6" xlink:href="#mae4be3226f" y="169.370993"/>
      </g>
     </g>
     <g id="text_13">
      <!-- 0.003 -->
      <g transform="translate(21.971875 173.170212)scale(0.1 -0.1)">
       <defs>
        <path d="M 40.578125 39.3125 
Q 47.65625 37.796875 51.625 33 
Q 55.609375 28.21875 55.609375 21.1875 
Q 55.609375 10.40625 48.1875 4.484375 
Q 40.765625 -1.421875 27.09375 -1.421875 
Q 22.515625 -1.421875 17.65625 -0.515625 
Q 12.796875 0.390625 7.625 2.203125 
L 7.625 11.71875 
Q 11.71875 9.328125 16.59375 8.109375 
Q 21.484375 6.890625 26.8125 6.890625 
Q 36.078125 6.890625 40.9375 10.546875 
Q 45.796875 14.203125 45.796875 21.1875 
Q 45.796875 27.640625 41.28125 31.265625 
Q 36.765625 34.90625 28.71875 34.90625 
L 20.21875 34.90625 
L 20.21875 43.015625 
L 29.109375 43.015625 
Q 36.375 43.015625 40.234375 45.921875 
Q 44.09375 48.828125 44.09375 54.296875 
Q 44.09375 59.90625 40.109375 62.90625 
Q 36.140625 65.921875 28.71875 65.921875 
Q 24.65625 65.921875 20.015625 65.03125 
Q 15.375 64.15625 9.8125 62.3125 
L 9.8125 71.09375 
Q 15.4375 72.65625 20.34375 73.4375 
Q 25.25 74.21875 29.59375 74.21875 
Q 40.828125 74.21875 47.359375 69.109375 
Q 53.90625 64.015625 53.90625 55.328125 
Q 53.90625 49.265625 50.4375 45.09375 
Q 46.96875 40.921875 40.578125 39.3125 
z
" id="DejaVuSans-51"/>
       </defs>
       <use xlink:href="#DejaVuSans-48"/>
       <use x="63.623047" xlink:href="#DejaVuSans-46"/>
       <use x="95.410156" xlink:href="#DejaVuSans-48"/>
       <use x="159.033203" xlink:href="#DejaVuSans-48"/>
       <use x="222.65625" xlink:href="#DejaVuSans-51"/>
      </g>
     </g>
    </g>
    <g id="ytick_5">
     <g id="line2d_14">
      <g>
       <use style="stroke:#000000;stroke-width:0.8;" x="57.6" xlink:href="#mae4be3226f" y="129.151319"/>
      </g>
     </g>
     <g id="text_14">
      <!-- 0.004 -->
      <g transform="translate(21.971875 132.950538)scale(0.1 -0.1)">
       <defs>
        <path d="M 37.796875 64.3125 
L 12.890625 25.390625 
L 37.796875 25.390625 
z
M 35.203125 72.90625 
L 47.609375 72.90625 
L 47.609375 25.390625 
L 58.015625 25.390625 
L 58.015625 17.1875 
L 47.609375 17.1875 
L 47.609375 0 
L 37.796875 0 
L 37.796875 17.1875 
L 4.890625 17.1875 
L 4.890625 26.703125 
z
" id="DejaVuSans-52"/>
       </defs>
       <use xlink:href="#DejaVuSans-48"/>
       <use x="63.623047" xlink:href="#DejaVuSans-46"/>
       <use x="95.410156" xlink:href="#DejaVuSans-48"/>
       <use x="159.033203" xlink:href="#DejaVuSans-48"/>
       <use x="222.65625" xlink:href="#DejaVuSans-52"/>
      </g>
     </g>
    </g>
    <g id="ytick_6">
     <g id="line2d_15">
      <g>
       <use style="stroke:#000000;stroke-width:0.8;" x="57.6" xlink:href="#mae4be3226f" y="88.931645"/>
      </g>
     </g>
     <g id="text_15">
      <!-- 0.005 -->
      <g transform="translate(21.971875 92.730864)scale(0.1 -0.1)">
       <use xlink:href="#DejaVuSans-48"/>
       <use x="63.623047" xlink:href="#DejaVuSans-46"/>
       <use x="95.410156" xlink:href="#DejaVuSans-48"/>
       <use x="159.033203" xlink:href="#DejaVuSans-48"/>
       <use x="222.65625" xlink:href="#DejaVuSans-53"/>
      </g>
     </g>
    </g>
    <g id="ytick_7">
     <g id="line2d_16">
      <g>
       <use style="stroke:#000000;stroke-width:0.8;" x="57.6" xlink:href="#mae4be3226f" y="48.711971"/>
      </g>
     </g>
     <g id="text_16">
      <!-- 0.006 -->
      <g transform="translate(21.971875 52.51119)scale(0.1 -0.1)">
       <defs>
        <path d="M 33.015625 40.375 
Q 26.375 40.375 22.484375 35.828125 
Q 18.609375 31.296875 18.609375 23.390625 
Q 18.609375 15.53125 22.484375 10.953125 
Q 26.375 6.390625 33.015625 6.390625 
Q 39.65625 6.390625 43.53125 10.953125 
Q 47.40625 15.53125 47.40625 23.390625 
Q 47.40625 31.296875 43.53125 35.828125 
Q 39.65625 40.375 33.015625 40.375 
z
M 52.59375 71.296875 
L 52.59375 62.3125 
Q 48.875 64.0625 45.09375 64.984375 
Q 41.3125 65.921875 37.59375 65.921875 
Q 27.828125 65.921875 22.671875 59.328125 
Q 17.53125 52.734375 16.796875 39.40625 
Q 19.671875 43.65625 24.015625 45.921875 
Q 28.375 48.1875 33.59375 48.1875 
Q 44.578125 48.1875 50.953125 41.515625 
Q 57.328125 34.859375 57.328125 23.390625 
Q 57.328125 12.15625 50.6875 5.359375 
Q 44.046875 -1.421875 33.015625 -1.421875 
Q 20.359375 -1.421875 13.671875 8.265625 
Q 6.984375 17.96875 6.984375 36.375 
Q 6.984375 53.65625 15.1875 63.9375 
Q 23.390625 74.21875 37.203125 74.21875 
Q 40.921875 74.21875 44.703125 73.484375 
Q 48.484375 72.75 52.59375 71.296875 
z
" id="DejaVuSans-54"/>
       </defs>
       <use xlink:href="#DejaVuSans-48"/>
       <use x="63.623047" xlink:href="#DejaVuSans-46"/>
       <use x="95.410156" xlink:href="#DejaVuSans-48"/>
       <use x="159.033203" xlink:href="#DejaVuSans-48"/>
       <use x="222.65625" xlink:href="#DejaVuSans-54"/>
      </g>
     </g>
    </g>
   </g>
   <g id="line2d_17">
    <path clip-path="url(#pe11aa55ff3)" d="M 73.832727 290.030015 
L 76.105764 289.927266 
L 76.170708 289.867333 
L 76.300595 290.24786 
L 76.365539 290.160749 
L 76.495427 289.751324 
L 76.625315 290.371975 
L 76.690259 290.235144 
L 76.820147 289.626493 
L 76.950034 290.495157 
L 77.014978 290.308389 
L 77.144866 289.515951 
L 77.274754 290.59118 
L 77.339698 290.364456 
L 77.469586 289.44839 
L 77.599473 290.629556 
L 77.664417 290.384862 
L 77.794305 289.454823 
L 77.924193 290.579306 
L 77.989137 290.350957 
L 78.119025 289.564361 
L 78.248912 290.413337 
L 78.313856 290.246643 
L 78.443744 289.799834 
L 78.573632 290.112832 
L 78.638576 290.06107 
L 78.768464 290.173746 
L 78.898351 289.670714 
L 78.963295 289.790869 
L 79.093183 290.685224 
L 79.223071 289.094261 
L 79.288015 289.441595 
L 79.417902 291.318363 
L 79.54779 288.406025 
L 79.612734 289.028133 
L 79.742622 292.042321 
L 79.87251 287.642966 
L 79.937454 288.574051 
L 80.067341 292.81312 
L 80.197229 286.853551 
L 80.262173 288.109881 
L 80.392061 293.577821 
L 80.521949 286.094104 
L 80.586893 287.670676 
L 80.71678 294.277986 
L 80.846668 285.421461 
L 80.911612 287.291824 
L 81.0415 294.85934 
L 81.171388 284.888346 
L 81.236332 287.004084 
L 81.366219 295.274395 
L 81.496107 284.538465 
L 81.561051 286.831968 
L 81.690939 295.488 
L 81.820827 284.401524 
L 81.885771 286.790916 
L 81.950715 114.763382 
L 82.015658 117.033333 
L 82.145546 105.358859 
L 82.21049 107.432878 
L 82.340378 117.045526 
L 82.470266 105.466077 
L 82.53521 107.658073 
L 82.665097 116.892558 
L 82.794985 106.090857 
L 82.859929 107.796357 
L 82.989817 116.0442 
L 83.119705 106.831947 
L 83.184649 108.668065 
L 83.314536 115.792628 
L 83.444424 108.161603 
L 83.509368 109.117238 
L 83.639256 114.62256 
L 83.769144 108.615571 
L 83.834088 109.634369 
L 83.963975 113.997213 
L 84.093863 109.705378 
L 84.158807 110.067208 
L 84.288695 113.687578 
L 84.418583 110.615063 
L 84.483527 111.232392 
L 84.613414 112.773001 
L 84.743302 111.141855 
L 84.808246 111.217732 
L 84.938134 112.25166 
L 85.132966 111.778365 
L 85.327797 112.269426 
L 85.392741 112.475512 
L 85.587573 109.193603 
L 85.652517 109.334164 
L 85.717461 110.132825 
L 85.782404 109.579326 
L 85.912292 108.78568 
L 86.172068 112.836967 
L 86.237012 111.785658 
L 86.301956 111.960519 
L 86.431843 113.188891 
L 86.561731 111.130564 
L 86.691619 113.576781 
L 86.756563 113.273573 
L 86.886451 112.423374 
L 87.016339 113.739426 
L 87.081282 114.373722 
L 87.21117 112.460403 
L 87.276114 112.889861 
L 87.406002 114.046997 
L 87.470946 113.984079 
L 87.600834 112.100143 
L 87.860609 117.332428 
L 87.925553 116.802631 
L 88.055441 109.944453 
L 88.250273 76.527281 
L 88.38016 53.568 
L 88.70488 113.533784 
L 88.769824 111.494055 
L 88.899712 109.112502 
L 89.094543 111.582363 
L 89.159487 111.044525 
L 89.224431 111.226174 
L 89.354319 112.69369 
L 89.549151 111.147936 
L 89.743982 112.99122 
L 89.87387 112.129479 
L 89.938814 112.304877 
L 90.068702 112.760312 
L 90.263533 112.155567 
L 90.328477 112.542649 
L 90.393421 112.526093 
L 90.523309 111.655888 
L 90.588253 111.928089 
L 90.653197 112.488817 
L 90.718141 112.454668 
L 90.783085 112.363051 
L 90.848029 112.597819 
L 90.912972 112.023143 
L 90.977916 112.365134 
L 91.04286 112.430489 
L 91.302636 111.411989 
L 91.36758 111.894605 
L 91.627355 110.637593 
L 91.692299 110.84975 
L 91.757243 110.723509 
L 91.822187 110.579694 
L 92.081963 109.367237 
L 92.146906 109.357294 
L 92.53657 108.162408 
L 92.731402 107.677219 
L 92.796345 108.106629 
L 92.926233 106.986709 
L 92.991177 107.370571 
L 93.056121 107.105734 
L 93.121065 106.920301 
L 93.186009 107.071429 
L 93.250953 106.966909 
L 93.380841 106.973818 
L 94.225111 114.470785 
L 94.354999 114.458406 
L 94.614775 116.397244 
L 94.679718 116.580348 
L 94.87455 115.7327 
L 95.004438 116.572981 
L 95.069382 116.416932 
L 95.19927 115.76855 
L 95.329157 116.045345 
L 95.459045 116.881605 
L 95.588933 116.223363 
L 95.848709 117.347277 
L 95.978596 116.405685 
L 96.238372 117.888053 
L 96.303316 117.897256 
L 96.36826 117.699151 
L 96.498148 117.057139 
L 96.692979 118.661825 
L 96.757923 118.523589 
L 96.822867 117.552185 
L 96.887811 117.57946 
L 96.952755 118.192597 
L 97.017699 117.733251 
L 97.082643 117.97336 
L 97.212531 119.240466 
L 97.342418 118.489928 
L 97.472306 119.066108 
L 97.53725 119.017985 
L 97.602194 118.980962 
L 97.667138 119.52207 
L 97.732082 119.430433 
L 97.797026 118.80114 
L 97.861969 119.527602 
L 97.926913 119.27758 
L 97.991857 118.978294 
L 98.121745 120.510778 
L 98.186689 120.327271 
L 98.446465 120.013078 
L 98.511408 120.249696 
L 98.576352 119.91253 
L 98.70624 120.568965 
L 98.771184 120.485777 
L 98.901072 120.770325 
L 98.966016 120.641231 
L 99.160847 121.353502 
L 99.290735 121.8027 
L 99.355679 121.713259 
L 99.420623 122.372177 
L 99.485567 122.205121 
L 99.615455 121.515915 
L 99.745343 121.533585 
L 99.87523 122.539472 
L 100.005118 121.606142 
L 100.264894 123.326296 
L 100.459725 122.645445 
L 100.654557 123.700171 
L 100.719501 123.269754 
L 100.784445 123.161046 
L 100.979277 124.015236 
L 101.04422 123.455412 
L 101.109164 123.778144 
L 101.174108 123.964115 
L 101.303996 122.340676 
L 101.36894 122.599431 
L 101.628716 120.724851 
L 101.693659 120.942392 
L 102.083323 124.007181 
L 102.148267 123.679854 
L 102.343098 125.194624 
L 102.408042 124.255837 
L 102.472986 124.580376 
L 102.602874 126.348231 
L 102.667818 126.234251 
L 102.732762 125.754995 
L 102.797706 125.928293 
L 102.86265 126.262086 
L 102.927594 127.235689 
L 102.992537 126.828632 
L 103.122425 125.116302 
L 103.252313 127.178975 
L 103.382201 125.819825 
L 103.577032 128.221095 
L 103.70692 129.868884 
L 103.771864 128.259091 
L 103.966696 107.861857 
L 104.226471 68.386196 
L 104.551191 127.837115 
L 104.681079 123.016021 
L 104.746023 123.026099 
L 104.87591 125.517478 
L 104.940854 124.928005 
L 105.005798 124.290526 
L 105.070742 124.702104 
L 105.135686 125.238334 
L 105.20063 127.067925 
L 105.265574 126.55009 
L 105.330518 125.709324 
L 105.395462 125.876724 
L 105.525349 126.181163 
L 105.590293 127.200657 
L 105.720181 124.894672 
L 105.850069 126.76692 
L 105.915013 126.43982 
L 106.044901 126.413992 
L 106.109845 126.142454 
L 106.174788 126.743153 
L 106.239732 126.442027 
L 106.304676 126.13822 
L 106.434564 127.378566 
L 106.629396 126.213804 
L 106.69434 125.666541 
L 106.759283 125.88283 
L 106.954115 127.323556 
L 107.019059 126.443472 
L 107.084003 126.765412 
L 107.213891 125.501193 
L 107.278835 125.601284 
L 107.343779 126.600205 
L 107.408722 126.046803 
L 107.473666 125.948083 
L 107.53861 126.727425 
L 107.603554 126.271666 
L 107.798386 125.201282 
L 107.928274 125.793647 
L 108.058161 123.591692 
L 108.188049 124.293278 
L 108.317937 123.330992 
L 108.382881 124.470628 
L 108.447825 123.825337 
L 108.577713 121.313577 
L 108.7076 123.389143 
L 108.837488 121.594872 
L 108.902432 121.739919 
L 109.097264 121.083314 
L 109.162208 121.151103 
L 109.421983 123.369804 
L 109.486927 123.237919 
L 109.616815 125.978133 
L 109.681759 125.227183 
L 109.746703 125.45936 
L 109.876591 127.616838 
L 109.941534 126.887095 
L 110.006478 127.194932 
L 110.20131 130.425265 
L 110.266254 130.81903 
L 110.396142 129.832614 
L 110.52603 130.862463 
L 110.590973 130.697519 
L 110.655917 130.98157 
L 110.785805 129.068754 
L 110.850749 129.252252 
L 111.110525 131.928986 
L 111.240412 130.277848 
L 111.305356 130.588809 
L 111.3703 130.850325 
L 111.435244 129.960726 
L 111.500188 129.988926 
L 111.565132 130.859779 
L 111.630076 130.549069 
L 111.759964 130.40706 
L 111.889851 131.121867 
L 111.954795 130.261991 
L 112.084683 132.103654 
L 112.279515 130.490547 
L 112.344459 130.527373 
L 112.409403 130.909311 
L 112.474347 132.471484 
L 112.53929 131.445773 
L 112.604234 129.745244 
L 112.669178 129.752818 
L 112.799066 130.33877 
L 112.928954 133.21551 
L 112.993898 132.834944 
L 113.253673 130.48646 
L 113.318617 130.525725 
L 113.448505 131.598908 
L 113.513449 131.465508 
L 113.643337 130.750707 
L 113.708281 131.245218 
L 113.773224 130.602727 
L 114.033 132.163737 
L 114.162888 131.046518 
L 114.292776 133.103989 
L 114.35772 132.805724 
L 114.487607 131.770729 
L 114.552551 132.817546 
L 114.617495 132.583932 
L 114.747383 130.247643 
L 114.812327 130.432822 
L 114.877271 130.322257 
L 115.072102 132.488796 
L 115.137046 132.781633 
L 115.331878 131.598555 
L 115.461766 133.466396 
L 115.591654 130.537877 
L 115.656598 130.78731 
L 115.786485 132.32546 
L 115.851429 132.198532 
L 115.981317 131.114303 
L 116.046261 131.326096 
L 116.306036 128.879846 
L 116.37098 128.878312 
L 116.435924 129.073635 
L 116.6957 127.838238 
L 116.760644 127.892497 
L 116.890532 130.538922 
L 116.955475 129.994633 
L 117.280195 131.931176 
L 117.345139 131.843334 
L 117.410083 131.468382 
L 117.604914 133.02581 
L 117.734802 131.491083 
L 117.799746 131.577215 
L 117.86469 133.012212 
L 117.929634 132.670325 
L 118.059522 130.962034 
L 118.18941 134.106787 
L 118.254353 132.7897 
L 118.384241 131.214503 
L 118.579073 134.02202 
L 118.644017 136.429815 
L 118.773905 129.134746 
L 118.968736 102.273196 
L 119.163568 70.865102 
L 119.293456 98.288528 
L 119.488287 132.442301 
L 119.683119 126.806739 
L 119.748063 127.796617 
L 119.877951 130.13152 
L 120.007839 128.878432 
L 120.072783 129.241035 
L 120.137726 130.386272 
L 120.20267 129.762337 
L 120.332558 129.241663 
L 120.52739 130.217495 
L 120.592334 130.186657 
L 120.722222 128.998233 
L 120.852109 129.651906 
L 120.981997 129.040626 
L 121.176829 129.599865 
L 121.241773 129.351276 
L 121.371661 127.839488 
L 121.501548 129.102534 
L 121.631436 127.676479 
L 121.761324 128.643892 
L 121.956156 127.361407 
L 122.021099 127.508053 
L 122.150987 126.394524 
L 122.215931 126.495193 
L 122.280875 126.828944 
L 122.86537 124.486181 
L 122.930314 124.701047 
L 123.060202 123.966606 
L 123.125146 124.105333 
L 123.19009 124.180764 
L 123.449865 122.719198 
L 123.514809 122.709547 
L 123.644697 120.985098 
L 123.709641 121.098785 
L 123.774585 121.548581 
L 123.969416 120.592742 
L 124.099304 120.75068 
L 124.229192 120.097369 
L 124.683799 125.176404 
L 125.138407 127.727276 
L 125.20335 127.608332 
L 125.268294 128.41548 
L 125.398182 126.797145 
L 125.52807 128.325001 
L 125.722902 127.527459 
L 125.787846 128.015712 
L 125.852789 127.84042 
L 125.917733 127.51886 
L 125.982677 127.764986 
L 126.112565 127.174132 
L 126.307397 127.520762 
L 126.437285 128.582217 
L 126.632116 127.438616 
L 126.69706 127.520148 
L 126.826948 127.167126 
L 126.891892 127.931135 
L 126.956836 127.640313 
L 127.151667 127.130727 
L 127.281555 127.724288 
L 127.476387 127.132943 
L 127.606275 127.728252 
L 127.671219 127.374718 
L 127.801106 126.895616 
L 127.995938 127.443086 
L 128.060882 127.416191 
L 128.125826 127.143101 
L 128.320658 127.748829 
L 128.580433 126.291369 
L 128.775265 128.048007 
L 128.840209 127.747464 
L 128.970097 126.697075 
L 129.03504 126.920594 
L 129.099984 126.975689 
L 129.164928 126.773955 
L 129.294816 126.94859 
L 129.35976 126.774206 
L 129.489648 127.81602 
L 129.814367 125.924748 
L 129.944255 126.640441 
L 130.204031 126.167047 
L 130.268975 126.367616 
L 130.398862 126.350576 
L 130.52875 125.933439 
L 130.723582 126.642676 
L 130.788526 126.463218 
L 130.918414 125.681157 
L 131.048301 126.570027 
L 131.113245 126.432282 
L 131.308077 124.931367 
L 131.373021 125.368651 
L 131.437965 125.93981 
L 131.502909 125.760207 
L 131.69774 124.808735 
L 131.892572 125.749873 
L 132.02246 125.052175 
L 132.152348 126.337954 
L 132.217291 126.231971 
L 132.477067 122.502001 
L 132.542011 123.228328 
L 132.606955 123.041497 
L 132.736843 122.250927 
L 132.801787 122.552612 
L 132.996618 125.026642 
L 133.061562 125.272267 
L 133.256394 124.290129 
L 133.321338 124.315546 
L 133.451226 124.711341 
L 133.581113 126.39493 
L 133.775945 124.132914 
L 133.905833 125.601042 
L 134.100664 124.158959 
L 134.230552 126.323283 
L 134.425384 124.513975 
L 134.68516 128.662245 
L 134.879991 115.310982 
L 135.139767 69.782897 
L 135.204711 70.384089 
L 135.464486 123.924356 
L 135.659318 119.374777 
L 135.724262 120.280743 
L 135.85415 121.548466 
L 136.048981 121.222915 
L 136.178869 122.286549 
L 136.373701 121.10267 
L 136.503589 122.516105 
L 136.568533 122.311154 
L 136.69842 121.162973 
L 136.828308 122.12441 
L 136.958196 120.995024 
L 137.02314 121.076748 
L 137.153028 121.924788 
L 137.282915 120.464497 
L 137.477747 121.081619 
L 137.672579 119.353477 
L 137.737523 119.598863 
L 137.802467 119.68346 
L 137.867411 119.604128 
L 138.19213 118.61133 
L 138.581793 116.560955 
L 139.036401 114.66267 
L 139.750784 110.7118 
L 139.815728 110.952833 
L 139.880671 111.214527 
L 140.010559 110.864055 
L 140.270335 111.470566 
L 141.114605 118.802083 
L 141.309437 120.050965 
L 141.374381 119.894159 
L 141.439325 119.931571 
L 141.504269 120.339603 
L 141.569213 120.205648 
L 141.634157 119.60791 
L 141.699101 119.654078 
L 141.828988 119.456083 
L 141.893932 119.523252 
L 141.958876 119.888232 
L 142.088764 119.247032 
L 142.218652 119.690186 
L 142.34854 118.958127 
L 142.478427 119.667664 
L 142.543371 119.177087 
L 142.673259 119.912578 
L 142.803147 119.151556 
L 142.933035 119.204188 
L 142.997979 119.498699 
L 143.062922 119.427982 
L 143.127866 119.117954 
L 143.19281 119.281944 
L 143.322698 120.211339 
L 143.51753 119.333448 
L 143.582474 119.447411 
L 143.647417 119.235241 
L 143.777305 119.975319 
L 143.972137 119.58667 
L 144.166969 120.31862 
L 144.296856 119.41606 
L 144.3618 119.563973 
L 144.556632 120.127313 
L 144.621576 119.930551 
L 144.68652 120.204863 
L 144.816408 119.648874 
L 145.011239 120.444426 
L 145.141127 120.53749 
L 145.206071 120.766003 
L 145.595734 119.717566 
L 145.660678 120.087579 
L 145.725622 120.007143 
L 145.85551 119.991548 
L 145.985398 119.292632 
L 146.050342 119.327615 
L 146.115286 119.358097 
L 146.18023 119.940281 
L 146.245173 119.722189 
L 146.375061 119.093196 
L 146.504949 120.084423 
L 146.569893 119.966522 
L 146.699781 119.908573 
L 146.829668 119.619179 
L 146.959556 120.118722 
L 147.219332 119.08216 
L 147.479107 119.800568 
L 147.544051 119.882018 
L 147.738883 119.363677 
L 147.803827 119.326286 
L 147.868771 118.989294 
L 147.998659 119.831763 
L 148.19349 118.656976 
L 148.323378 119.330125 
L 148.453266 118.837127 
L 148.583154 119.543337 
L 148.648098 119.263701 
L 148.777985 118.590626 
L 148.907873 118.85197 
L 149.037761 119.534651 
L 149.167649 118.708872 
L 149.232593 118.908048 
L 149.297537 118.850998 
L 149.36248 118.59059 
L 149.557312 119.188019 
L 149.6872 119.140412 
L 149.752144 119.01506 
L 149.946976 116.075121 
L 150.011919 116.315487 
L 150.076863 117.040742 
L 150.206751 115.840988 
L 150.336639 116.829437 
L 150.531471 118.616153 
L 150.661358 118.668276 
L 150.85619 117.326339 
L 150.921134 117.799774 
L 151.051022 119.120656 
L 151.18091 117.890244 
L 151.245854 118.143872 
L 151.375741 119.106397 
L 151.440685 118.864551 
L 151.505629 118.142758 
L 151.570573 118.330029 
L 151.700461 119.843963 
L 151.830349 117.76812 
L 151.895293 117.963389 
L 151.960236 118.143761 
L 152.155068 122.884228 
L 152.284956 117.845215 
L 152.414844 103.616304 
L 152.674619 63.878371 
L 152.934395 118.185293 
L 152.999339 117.87615 
L 153.129227 113.202019 
L 153.19417 113.336762 
L 153.324058 116.060577 
L 153.389002 115.592032 
L 153.453946 115.354965 
L 153.648778 116.590832 
L 153.713722 116.552303 
L 153.843609 115.202809 
L 153.973497 116.496802 
L 154.038441 116.252181 
L 154.168329 115.401663 
L 154.233273 115.446003 
L 154.363161 116.021233 
L 154.493048 114.566279 
L 154.622936 115.150604 
L 154.817768 114.17728 
L 154.947656 114.880171 
L 155.142487 113.865529 
L 155.207431 113.995313 
L 155.272375 114.177382 
L 155.467207 113.061872 
L 155.532151 113.216731 
L 155.662039 113.167879 
L 155.726982 113.60986 
L 155.986758 112.130852 
L 156.116646 112.375968 
L 156.18159 112.238758 
L 156.246534 112.533136 
L 156.571253 109.408018 
L 156.636197 109.27635 
L 156.701141 109.464891 
L 156.831029 109.021446 
L 156.960917 108.423763 
L 157.02586 108.423469 
L 157.220692 106.858655 
L 157.285636 106.973837 
L 157.675299 106.407064 
L 157.870131 107.914552 
L 158.389682 112.945682 
L 158.51957 113.712111 
L 158.584514 113.615702 
L 158.779346 114.699486 
L 158.84429 114.674054 
L 158.974177 114.686168 
L 159.233953 115.008666 
L 159.298897 114.930117 
L 159.493729 114.011898 
L 159.558672 114.069557 
L 159.623616 114.570719 
L 159.68856 114.554782 
L 159.753504 114.154602 
L 159.818448 114.200628 
L 159.948336 114.210107 
L 160.01328 114.493214 
L 160.078224 114.326585 
L 160.337999 113.827938 
L 160.402943 113.937083 
L 160.467887 114.339852 
L 160.532831 114.215559 
L 160.727663 114.070933 
L 160.922494 114.524486 
L 160.987438 114.379926 
L 161.052382 114.36387 
L 161.18227 114.748477 
L 161.247214 114.400302 
L 161.312158 114.550949 
L 161.442046 114.726544 
L 161.636877 114.638944 
L 161.766765 114.804242 
L 161.831709 115.052518 
L 161.896653 114.798091 
L 161.961597 114.845267 
L 162.026541 115.308768 
L 162.091484 115.163745 
L 162.221372 115.079746 
L 162.416204 114.558035 
L 162.546092 115.00206 
L 162.740923 114.393295 
L 163.000699 115.2623 
L 163.065643 115.073217 
L 163.130587 114.890429 
L 163.195531 115.173291 
L 163.260475 115.052456 
L 163.325419 115.014578 
L 163.390362 114.749284 
L 163.455306 114.816191 
L 163.585194 115.28925 
L 163.650138 115.086419 
L 163.715082 115.192578 
L 163.780026 115.590957 
L 163.84497 115.384533 
L 164.039801 114.232507 
L 164.169689 114.262145 
L 164.429465 114.66432 
L 164.559353 114.113568 
L 164.68924 114.658838 
L 164.754184 114.290516 
L 164.819128 114.428467 
L 165.078904 113.639807 
L 165.208792 113.771214 
L 165.338679 114.291062 
L 165.403623 113.956378 
L 165.468567 114.115078 
L 165.533511 114.624562 
L 165.598455 114.369804 
L 165.663399 113.863067 
L 165.728343 114.311564 
L 165.793287 114.163208 
L 165.858231 113.753717 
L 166.053062 114.620388 
L 166.18295 113.255206 
L 166.247894 113.881713 
L 166.312838 113.828522 
L 166.442726 114.069496 
L 166.50767 113.85806 
L 166.572613 113.947079 
L 166.702501 114.3958 
L 166.767445 114.370406 
L 166.897333 113.900715 
L 166.962277 114.104178 
L 167.092165 113.830048 
L 167.157109 113.557407 
L 167.416884 114.820203 
L 167.481828 114.467172 
L 167.67666 111.377692 
L 167.741604 111.507817 
L 167.806547 111.89955 
L 167.871491 111.661487 
L 167.936435 111.34791 
L 168.001379 111.777898 
L 168.196211 114.197345 
L 168.261155 114.040777 
L 168.326099 114.133257 
L 168.455986 114.532493 
L 168.585874 112.910369 
L 168.650818 113.101005 
L 168.780706 114.852279 
L 168.84565 114.830548 
L 168.975538 114.118375 
L 169.105425 114.92476 
L 169.300257 113.57426 
L 169.430145 114.861438 
L 169.495089 114.707331 
L 169.560033 113.991856 
L 169.624977 114.010797 
L 169.884752 118.342466 
L 169.949696 117.245146 
L 170.079584 111.038602 
L 170.274416 77.31363 
L 170.404303 57.277738 
L 170.729023 113.881011 
L 170.858911 108.975469 
L 170.923855 109.351666 
L 171.053742 112.417535 
L 171.118686 112.277194 
L 171.248574 110.977645 
L 171.378462 112.696826 
L 171.443406 112.648718 
L 171.573294 111.743218 
L 171.703181 112.876334 
L 171.768125 112.481958 
L 171.898013 111.641503 
L 172.027901 112.321463 
L 172.092845 112.262904 
L 172.222733 111.307996 
L 172.417564 112.07618 
L 172.547452 110.734419 
L 172.612396 110.752916 
L 172.807228 111.356467 
L 172.937115 110.762938 
L 173.067003 111.255295 
L 173.261835 110.338031 
L 173.326779 110.448433 
L 173.456667 108.77208 
L 173.521611 108.951451 
L 173.586554 109.074097 
L 173.716442 108.525304 
L 173.781386 108.219614 
L 173.84633 108.643411 
L 173.976218 107.994886 
L 174.106106 108.055501 
L 174.171049 108.396071 
L 174.235993 108.121428 
L 174.300937 107.26057 
L 174.365881 107.48722 
L 174.430825 107.519119 
L 174.625657 106.219587 
L 174.820488 104.955599 
L 174.885432 104.949135 
L 175.080264 104.220454 
L 175.210152 103.878241 
L 175.275096 104.001721 
L 175.404984 104.764035 
L 175.469927 104.49092 
L 175.664759 106.379519 
L 175.859591 108.193145 
L 176.379142 112.540234 
L 176.444086 112.291802 
L 176.50903 111.96497 
L 176.573974 112.09879 
L 176.638918 112.200659 
L 176.703861 111.416635 
L 176.768805 111.841711 
L 177.093525 112.521063 
L 177.288357 112.658894 
L 177.483188 112.141398 
L 177.548132 112.296073 
L 177.613076 112.221585 
L 177.872852 113.219737 
L 178.002739 112.240987 
L 178.067683 112.515568 
L 178.197571 113.341957 
L 178.327459 112.762018 
L 178.392403 113.03534 
L 178.457347 112.899989 
L 178.587235 112.992032 
L 178.652178 112.876604 
L 178.717122 113.392646 
L 178.782066 113.145452 
L 178.84701 112.992635 
L 178.911954 113.112063 
L 178.976898 113.189789 
L 179.236674 114.033629 
L 179.301617 114.063517 
L 179.431505 113.48495 
L 179.691281 114.51216 
L 179.821169 114.223646 
L 179.951056 114.762398 
L 180.210832 113.967415 
L 180.405664 114.650661 
L 180.600495 115.22793 
L 180.730383 114.985661 
L 180.925215 115.707151 
L 181.18499 114.598433 
L 181.249934 114.661326 
L 181.314878 114.57195 
L 181.444766 115.200737 
L 181.574654 114.905021 
L 181.639598 115.04229 
L 181.704542 115.711522 
L 181.769486 115.502291 
L 182.094205 114.59595 
L 182.483868 115.982093 
L 182.548812 115.802994 
L 182.613756 116.052147 
L 182.6787 115.869795 
L 182.743644 115.564601 
L 182.808588 115.804006 
L 182.873532 115.52636 
L 183.133307 116.240659 
L 183.328139 116.189161 
L 183.393083 115.792591 
L 183.458027 116.009236 
L 183.587915 115.818888 
L 183.782746 116.480455 
L 183.84769 116.396193 
L 183.977578 116.699715 
L 184.042522 116.575452 
L 184.107466 116.972462 
L 184.17241 116.855768 
L 184.367241 115.991932 
L 184.562073 116.8068 
L 184.691961 117.383393 
L 184.951737 114.326982 
L 185.01668 114.392714 
L 185.146568 113.69434 
L 185.276456 115.117558 
L 185.471288 117.07916 
L 185.601176 117.550826 
L 185.666119 117.212486 
L 185.731063 117.501067 
L 185.796007 117.452297 
L 185.925895 117.490977 
L 186.055783 119.014081 
L 186.120727 118.671541 
L 186.250614 117.278151 
L 186.380502 118.741335 
L 186.445446 118.722055 
L 186.575334 117.402574 
L 186.705222 119.12838 
L 186.770166 118.926721 
L 186.900053 117.106959 
L 187.159829 122.16997 
L 187.224773 120.860715 
L 187.419605 104.098036 
L 187.67938 56.071122 
L 188.0041 119.229192 
L 188.069044 117.277554 
L 188.198931 113.844807 
L 188.328819 116.522842 
L 188.393763 116.120199 
L 188.458707 115.907284 
L 188.588595 116.483609 
L 188.718483 117.884137 
L 188.84837 116.090528 
L 189.043202 117.424643 
L 189.108146 116.368494 
L 189.17309 116.448651 
L 189.302978 117.84568 
L 189.497809 116.08539 
L 189.562753 116.392927 
L 189.627697 116.877423 
L 189.692641 116.688757 
L 189.822529 116.239922 
L 189.887473 116.309498 
L 190.082304 116.999078 
L 190.212192 116.192899 
L 190.277136 116.270658 
L 190.407024 115.84013 
L 190.471968 115.342778 
L 190.536912 115.479054 
L 190.6668 115.742801 
L 190.731743 115.629253 
L 190.991519 114.614128 
L 191.056463 115.080289 
L 191.121407 114.971226 
L 191.251295 114.154335 
L 191.316239 114.180891 
L 191.381182 114.31607 
L 191.446126 113.910064 
L 191.51107 114.120907 
L 191.576014 114.228505 
L 191.705902 112.857177 
L 191.770846 112.911547 
L 191.900734 113.031227 
L 192.030621 112.155264 
L 192.095565 112.421866 
L 192.355341 110.525029 
L 192.420285 110.716204 
L 192.485229 109.939748 
L 192.550173 110.18051 
L 192.745004 111.78079 
L 192.809948 111.434766 
L 193.329499 115.419193 
L 193.459387 117.430599 
L 193.524331 117.121635 
L 193.784107 118.23257 
L 193.978938 118.669752 
L 194.043882 118.963325 
L 194.108826 118.871715 
L 194.238714 118.745554 
L 194.368602 117.799894 
L 194.49849 119.652141 
L 194.563433 119.630007 
L 194.628377 119.250616 
L 194.693321 119.297257 
L 194.758265 119.341453 
L 194.823209 118.952537 
L 194.888153 119.104009 
L 195.082985 118.730461 
L 195.147928 119.013134 
L 195.212872 118.737528 
L 195.277816 118.841895 
L 195.537592 119.616489 
L 195.602536 119.463448 
L 195.66748 119.666375 
L 195.797367 118.447643 
L 195.927255 119.319474 
L 196.057143 119.390201 
L 196.122087 119.113227 
L 196.251975 120.501708 
L 196.316919 120.253679 
L 196.51175 118.807076 
L 196.576694 119.147829 
L 196.706582 120.05403 
L 196.771526 120.216938 
L 196.83647 120.141004 
L 196.901414 119.681353 
L 196.966358 119.973872 
L 197.096245 120.657357 
L 197.226133 119.769413 
L 197.291077 119.762719 
L 197.485909 120.612942 
L 197.550853 120.497843 
L 197.615797 120.228835 
L 197.680741 120.376368 
L 197.745684 120.591098 
L 197.810628 121.277008 
L 197.940516 119.765836 
L 198.00546 120.162103 
L 198.070404 120.443636 
L 198.135348 120.292309 
L 198.395123 119.291777 
L 198.654899 120.067954 
L 198.719843 120.068577 
L 198.784787 119.874395 
L 198.914675 119.27735 
L 199.109506 120.149771 
L 199.17445 120.071419 
L 199.434226 119.441654 
L 199.49917 119.572898 
L 199.564114 120.149521 
L 199.629057 119.804262 
L 199.823889 119.230351 
L 199.888833 119.346226 
L 200.148609 120.048691 
L 200.278496 118.998188 
L 200.408384 116.944961 
L 200.538272 117.955956 
L 200.66816 116.342778 
L 201.057823 119.570804 
L 201.122767 119.61642 
L 201.187711 119.150364 
L 201.252655 119.161684 
L 201.317599 119.129935 
L 201.447487 119.652724 
L 201.577374 121.23744 
L 201.642318 121.028185 
L 201.707262 120.005107 
L 201.772206 120.21147 
L 201.902094 121.336653 
L 202.096926 119.083309 
L 202.226813 121.261945 
L 202.356701 119.443149 
L 202.486589 121.204419 
L 202.616477 124.472607 
L 202.681421 124.006931 
L 202.876252 107.735847 
L 203.136028 58.45964 
L 203.200972 62.583533 
L 203.460747 120.371937 
L 203.525691 120.359317 
L 203.655579 115.542712 
L 203.720523 115.743555 
L 203.850411 118.02011 
L 203.980299 116.742248 
L 204.045243 117.093507 
L 204.17513 118.228898 
L 204.240074 117.920346 
L 204.305018 117.001481 
L 204.369962 117.009398 
L 204.564794 117.94582 
L 204.759625 117.189456 
L 204.824569 117.304322 
L 204.954457 116.636099 
L 205.084345 117.907286 
L 205.149289 117.874619 
L 205.279177 116.596448 
L 205.409064 117.587478 
L 205.733784 115.953658 
L 205.798728 116.050286 
L 205.993559 114.57383 
L 206.058503 114.617948 
L 206.123447 114.713694 
L 206.383223 113.380591 
L 206.448167 113.957744 
L 206.513111 113.849363 
L 206.642998 113.355248 
L 206.772886 112.054865 
L 206.83783 112.096947 
L 206.967718 112.7521 
L 207.032662 112.564133 
L 207.292437 110.810918 
L 207.357381 110.9281 
L 207.422325 110.959579 
L 207.552213 110.572352 
L 207.811989 109.492447 
L 208.00682 108.63883 
L 208.071764 108.79469 
L 208.201652 108.805812 
L 208.266596 108.708601 
L 208.396484 109.613866 
L 208.851091 114.273595 
L 209.110867 115.20829 
L 209.370642 115.930928 
L 209.50053 115.781321 
L 209.565474 115.638895 
L 209.825249 116.10391 
L 210.085025 115.663147 
L 210.214913 115.997578 
L 210.279857 115.802296 
L 210.409744 116.190204 
L 210.474688 116.12375 
L 210.539632 116.122868 
L 210.604576 116.636287 
L 210.66952 116.355504 
L 211.059183 115.387808 
L 211.254015 116.09264 
L 211.708622 116.020906 
L 211.773566 115.714043 
L 211.83851 115.899741 
L 211.903454 116.357996 
L 211.968398 116.149197 
L 212.033342 116.012887 
L 212.098286 116.256026 
L 212.16323 116.120577 
L 212.228174 115.667612 
L 212.293118 115.723796 
L 212.423005 116.193563 
L 212.682781 115.759925 
L 212.812669 116.190874 
L 212.877613 116.053367 
L 212.942557 116.169585 
L 213.072444 115.944757 
L 213.137388 115.996538 
L 213.267276 116.398509 
L 213.33222 115.76724 
L 213.397164 115.799582 
L 213.656939 116.26173 
L 213.851771 115.161783 
L 213.916715 115.537523 
L 214.046603 116.274717 
L 214.241434 116.494682 
L 214.371322 115.930434 
L 214.436266 116.067516 
L 214.631098 115.938425 
L 214.760986 115.108142 
L 214.82593 115.592411 
L 214.955817 116.057493 
L 215.150649 115.990114 
L 215.215593 116.19749 
L 215.280537 116.160273 
L 215.345481 116.144961 
L 215.475369 115.556424 
L 215.6702 116.480438 
L 215.735144 116.345018 
L 215.800088 116.788367 
L 215.865032 116.597056 
L 215.929976 116.380432 
L 215.99492 116.891096 
L 216.059864 116.703625 
L 216.254695 113.638716 
L 216.319639 113.916267 
L 216.579415 113.086394 
L 216.83919 116.134559 
L 216.904134 115.41191 
L 216.969078 115.822462 
L 217.034022 116.470603 
L 217.098966 116.230242 
L 217.228854 115.715814 
L 217.423685 117.341112 
L 217.488629 116.741127 
L 217.553573 116.902842 
L 217.683461 117.996142 
L 217.878293 116.087296 
L 218.008181 117.894539 
L 218.138068 115.984619 
L 218.203012 116.01393 
L 218.397844 119.771743 
L 218.462788 121.242389 
L 218.527732 120.270965 
L 218.722563 104.357461 
L 218.982339 57.698915 
L 219.307059 115.830457 
L 219.372002 112.865068 
L 219.50189 111.137913 
L 219.631778 114.205599 
L 219.696722 114.100147 
L 219.82661 113.248605 
L 220.021441 114.745238 
L 220.151329 113.579669 
L 220.216273 114.157671 
L 220.346161 114.92489 
L 220.476049 113.570889 
L 220.540993 113.919104 
L 220.605936 114.425856 
L 220.800768 113.092012 
L 220.865712 113.128756 
L 220.930656 113.786415 
L 220.9956 113.589734 
L 221.060544 113.233556 
L 221.125488 113.379717 
L 221.255375 113.677125 
L 221.385263 113.239924 
L 221.515151 112.661315 
L 221.580095 113.26099 
L 221.645039 113.205425 
L 221.969758 111.234257 
L 222.099646 110.792837 
L 222.16459 110.324048 
L 222.229534 110.642855 
L 222.294478 110.643689 
L 222.489309 109.679495 
L 222.554253 109.731313 
L 222.684141 109.415645 
L 222.878973 108.278584 
L 222.943917 107.659591 
L 223.008861 108.065152 
L 223.073805 108.008684 
L 223.268636 106.713183 
L 223.33358 106.667465 
L 223.528412 105.863857 
L 223.6583 105.065614 
L 223.723244 105.214929 
L 223.788187 105.376649 
L 223.853131 104.810297 
L 223.918075 104.853738 
L 224.372683 109.110519 
L 224.632458 111.414687 
L 224.957178 113.690152 
L 225.087065 113.42563 
L 225.281897 114.323735 
L 225.411785 113.550182 
L 225.606617 114.883414 
L 225.866392 113.959302 
L 226.061224 114.357403 
L 226.191112 113.671996 
L 226.256056 114.127898 
L 226.320999 113.671297 
L 226.385943 113.833635 
L 226.515831 114.630975 
L 226.645719 114.487701 
L 226.710663 114.51444 
L 226.905495 114.269581 
L 227.035382 114.830956 
L 227.230214 114.242456 
L 227.425046 114.867954 
L 227.48999 114.665356 
L 227.554934 114.740194 
L 227.619877 114.87719 
L 227.749765 114.493107 
L 227.814709 114.629528 
L 227.879653 114.473921 
L 228.204373 115.454481 
L 228.269316 115.163598 
L 228.33426 114.863454 
L 228.399204 115.156272 
L 228.464148 114.725782 
L 228.529092 115.025761 
L 228.594036 115.404921 
L 228.65898 115.132432 
L 228.918755 114.881911 
L 229.113587 115.460083 
L 229.308419 115.082882 
L 229.373363 115.26488 
L 229.438307 114.935343 
L 229.50325 115.077497 
L 229.568194 115.125128 
L 229.763026 115.932956 
L 229.957858 115.467982 
L 230.022802 114.674102 
L 230.087746 114.713348 
L 230.152689 115.207736 
L 230.217633 114.927887 
L 230.347521 115.331518 
L 230.412465 115.018894 
L 230.477409 115.101133 
L 230.542353 115.249331 
L 230.607297 114.996025 
L 230.737185 115.485678 
L 230.802128 115.432736 
L 230.867072 115.325218 
L 230.932016 115.586635 
L 231.126848 114.476808 
L 231.32168 115.039026 
L 231.451567 114.690938 
L 231.581455 115.499188 
L 231.711343 114.84236 
L 231.841231 115.586421 
L 232.036062 114.430247 
L 232.230894 115.14689 
L 232.295838 115.242936 
L 232.360782 115.083393 
L 232.620558 115.787397 
L 232.685501 115.67564 
L 232.880333 112.415107 
L 232.945277 113.309089 
L 233.010221 113.590472 
L 233.075165 112.772326 
L 233.140109 112.839789 
L 233.205053 112.768148 
L 233.269997 113.034848 
L 233.464828 115.550068 
L 233.529772 115.238187 
L 233.65966 115.806525 
L 233.789548 114.644113 
L 233.854492 114.684117 
L 234.049323 115.875934 
L 234.179211 115.176265 
L 234.309099 116.449124 
L 234.374043 116.196981 
L 234.503931 115.517088 
L 234.633818 116.366159 
L 234.698762 115.990185 
L 234.82865 114.910892 
L 235.088426 119.549373 
L 235.15337 118.915162 
L 235.348201 105.884855 
L 235.607977 58.36033 
L 235.932696 115.952895 
L 235.99764 112.830595 
L 236.127528 110.649985 
L 236.32236 113.131562 
L 236.387304 112.311732 
L 236.452248 112.448805 
L 236.582135 114.144757 
L 236.647079 114.135084 
L 236.776967 112.783123 
L 236.841911 113.023874 
L 236.906855 114.119506 
L 236.971799 113.954632 
L 237.101687 112.167946 
L 237.16663 112.218706 
L 237.296518 113.238788 
L 237.426406 112.645499 
L 237.49135 112.79058 
L 237.556294 113.094084 
L 237.621238 113.079404 
L 237.751125 111.954559 
L 237.816069 112.244886 
L 237.945957 112.276085 
L 238.075845 111.333775 
L 238.205733 111.828161 
L 238.335621 111.681207 
L 238.595396 110.60949 
L 238.790228 110.759713 
L 238.855172 110.684812 
L 238.98506 110.084193 
L 239.050003 110.120471 
L 239.439667 108.886305 
L 239.504611 108.139639 
L 239.569555 108.329823 
L 239.634499 108.23964 
L 239.699442 108.61405 
L 239.764386 108.506737 
L 240.15405 105.652208 
L 240.348881 105.641532 
L 240.413825 105.076165 
L 240.478769 105.321869 
L 240.543713 105.963432 
L 240.608657 105.467739 
L 240.673601 105.774901 
L 240.933376 107.499509 
L 240.99832 107.597766 
L 241.32304 111.354893 
L 241.387984 111.151984 
L 241.452928 110.746213 
L 241.647759 112.503737 
L 241.712703 112.51425 
L 241.972479 113.216903 
L 242.167311 112.705545 
L 242.232254 112.54734 
L 242.297198 112.649582 
L 242.362142 113.146196 
L 242.427086 113.09333 
L 242.556974 112.672981 
L 242.621918 112.731269 
L 242.686862 113.22244 
L 242.751806 113.128107 
L 242.881693 112.920246 
L 242.946637 112.736616 
L 243.076525 113.241042 
L 243.141469 113.067398 
L 243.206413 113.127025 
L 243.401245 113.353057 
L 243.596076 112.995674 
L 243.725964 113.505218 
L 243.790908 113.295047 
L 243.855852 113.457638 
L 243.920796 113.770471 
L 243.98574 113.58634 
L 244.050684 113.133282 
L 244.180571 114.145625 
L 244.245515 114.025012 
L 244.375403 113.483909 
L 244.505291 113.86827 
L 244.570235 113.598769 
L 244.635179 113.75814 
L 244.700123 114.11459 
L 244.765066 113.941054 
L 244.894954 113.737725 
L 245.089786 114.204609 
L 245.15473 114.354288 
L 245.219674 114.319432 
L 245.349562 113.769014 
L 245.414505 113.784179 
L 245.479449 113.549634 
L 245.609337 114.353137 
L 245.674281 114.120972 
L 245.804169 114.514203 
L 245.869113 114.432802 
L 245.934057 114.161785 
L 245.999001 114.192909 
L 246.128888 114.312867 
L 246.258776 114.08865 
L 246.518552 114.495306 
L 246.583496 114.334579 
L 246.64844 114.621844 
L 246.778327 113.9533 
L 246.843271 114.141095 
L 246.973159 114.414872 
L 247.232935 114.218824 
L 247.297878 114.328365 
L 247.362822 114.527336 
L 247.427766 114.279169 
L 247.49271 114.438718 
L 247.622598 114.84456 
L 247.752486 114.600514 
L 247.882374 113.831532 
L 247.947317 113.992533 
L 248.207093 115.218188 
L 248.401925 114.584903 
L 248.466869 114.656843 
L 248.596756 115.38354 
L 248.6617 115.352665 
L 248.791588 114.771886 
L 248.856532 114.892912 
L 248.98642 114.692949 
L 249.051364 115.220014 
L 249.246195 114.564903 
L 249.376083 115.984431 
L 249.441027 115.870005 
L 249.830691 112.503651 
L 249.895634 112.389962 
L 250.025522 113.50167 
L 250.285298 115.438327 
L 250.415186 115.189923 
L 250.480129 115.476455 
L 250.610017 114.74156 
L 250.804849 116.298619 
L 250.869793 116.201198 
L 250.934737 115.661738 
L 250.999681 116.032211 
L 251.129568 116.790205 
L 251.259456 115.992977 
L 251.3244 116.169536 
L 251.454288 116.904732 
L 251.584176 115.217776 
L 251.64912 115.471659 
L 251.908895 120.056507 
L 252.103727 109.466786 
L 252.428446 57.627836 
L 252.753166 117.406935 
L 252.883054 111.881742 
L 252.947998 111.955555 
L 253.077885 114.339636 
L 253.142829 114.06731 
L 253.207773 113.800091 
L 253.402605 115.271763 
L 253.532493 113.682774 
L 253.597437 114.130607 
L 253.727324 115.140667 
L 253.792268 115.035873 
L 253.922156 113.75331 
L 253.9871 113.956371 
L 254.116988 114.540789 
L 254.181932 114.355033 
L 254.246876 114.432235 
L 254.311819 115.235481 
L 254.376763 115.131911 
L 254.506651 114.367811 
L 254.571595 114.433437 
L 254.636539 114.190504 
L 254.701483 114.382531 
L 254.766427 114.28881 
L 254.896315 113.390179 
L 254.961258 113.598673 
L 255.026202 113.680924 
L 255.091146 113.529563 
L 255.15609 113.759648 
L 255.285978 113.259968 
L 255.350922 112.549607 
L 255.415866 112.646114 
L 255.48081 112.769132 
L 255.545754 112.334424 
L 255.610697 112.410211 
L 255.675641 112.440227 
L 255.740585 112.68674 
L 255.805529 112.565154 
L 256.065305 111.200685 
L 256.130249 111.096591 
L 256.260136 110.33894 
L 256.32508 110.70963 
L 256.390024 110.522835 
L 256.909575 108.816616 
L 256.974519 108.287692 
L 257.039463 108.340874 
L 257.169351 108.393115 
L 257.429127 108.18137 
L 257.753846 110.561202 
L 258.338341 115.442595 
L 258.403285 115.079125 
L 258.468229 115.157186 
L 258.728005 116.778485 
L 258.857892 116.620321 
L 259.052724 115.94774 
L 259.3125 116.712438 
L 259.442387 115.971692 
L 259.572275 116.646367 
L 259.637219 116.395941 
L 259.832051 117.091037 
L 259.896995 116.584879 
L 260.026882 117.498854 
L 260.091826 117.474171 
L 260.221714 116.559008 
L 260.351602 117.726364 
L 260.416546 117.629043 
L 260.546434 117.092068 
L 260.611378 116.997011 
L 260.676321 117.434566 
L 260.741265 117.305377 
L 260.806209 116.996668 
L 260.871153 117.498036 
L 260.936097 116.991826 
L 261.130929 117.806586 
L 261.195873 117.735408 
L 261.32576 117.15027 
L 261.585536 118.500229 
L 261.715424 117.660693 
L 261.780368 117.853507 
L 261.845312 117.664851 
L 261.910256 117.76172 
L 262.040143 118.649217 
L 262.105087 118.217245 
L 262.299919 117.586012 
L 262.364863 117.750816 
L 262.494751 119.142792 
L 262.689582 118.300415 
L 262.81947 117.911156 
L 263.014302 118.363534 
L 263.079246 118.542333 
L 263.14419 118.495028 
L 263.209133 118.503653 
L 263.274077 119.152751 
L 263.339021 119.061828 
L 263.403965 118.664348 
L 263.468909 118.727221 
L 263.533853 118.940584 
L 263.598797 118.832424 
L 263.663741 118.500516 
L 263.728685 118.625612 
L 263.858572 119.266401 
L 263.98846 118.887432 
L 264.053404 118.345255 
L 264.118348 118.434646 
L 264.248236 119.367002 
L 264.378124 118.104202 
L 264.443068 118.197078 
L 264.572955 118.53068 
L 264.637899 118.91565 
L 264.702843 118.625742 
L 264.767787 118.784627 
L 264.962619 119.68185 
L 265.027563 119.547408 
L 265.222394 116.061222 
L 265.287338 116.648641 
L 265.352282 117.168738 
L 265.417226 116.836864 
L 265.547114 115.639131 
L 265.612058 116.174969 
L 265.806889 118.598947 
L 265.936777 118.186705 
L 266.001721 118.114278 
L 266.326441 119.709372 
L 266.391384 120.588569 
L 266.456328 120.290392 
L 266.521272 119.359255 
L 266.586216 119.482848 
L 266.716104 121.127435 
L 266.781048 120.725845 
L 266.910936 119.468168 
L 267.040823 120.720674 
L 267.105767 120.464483 
L 267.235655 119.116302 
L 267.430487 122.597854 
L 267.495431 124.298238 
L 267.625319 117.957358 
L 267.755206 103.393244 
L 268.014982 60.52185 
L 268.339701 121.240145 
L 268.404645 119.203468 
L 268.534533 116.27893 
L 268.729365 118.505432 
L 268.794309 117.831986 
L 268.859253 117.907078 
L 269.054084 119.35505 
L 269.183972 117.710203 
L 269.31386 119.557134 
L 269.378804 119.544984 
L 269.508692 118.736609 
L 269.573635 118.810835 
L 269.638579 118.657745 
L 269.703523 118.839619 
L 269.833411 118.081146 
L 269.963299 119.648526 
L 270.028243 119.537768 
L 270.158131 118.348351 
L 270.223074 118.857985 
L 270.288018 118.717581 
L 270.48285 119.207652 
L 270.612738 117.963868 
L 270.677682 118.37246 
L 270.80757 117.595074 
L 271.002401 118.530255 
L 271.132289 117.36615 
L 271.197233 117.423386 
L 271.392065 117.849954 
L 271.521952 117.133761 
L 271.586896 116.12957 
L 271.65184 116.321152 
L 271.716784 116.156817 
L 271.846672 116.761998 
L 272.106447 115.071179 
L 272.171391 115.140752 
L 272.236335 115.327881 
L 272.301279 115.106005 
L 272.366223 114.462051 
L 272.431167 114.701247 
L 272.496111 115.00408 
L 272.690943 114.105294 
L 272.82083 112.530855 
L 272.885774 112.904702 
L 273.015662 113.142248 
L 273.405325 115.650815 
L 273.794989 119.367104 
L 273.859933 118.66845 
L 274.119708 120.380516 
L 274.184652 120.311227 
L 274.249596 119.955038 
L 274.444428 120.467248 
L 274.509372 120.577684 
L 274.639259 119.757774 
L 274.704203 120.004565 
L 274.769147 119.345874 
L 274.834091 119.588299 
L 275.028923 120.357838 
L 275.223755 121.498416 
L 275.288698 121.23098 
L 275.48353 119.879603 
L 275.678362 120.797953 
L 275.80825 119.914977 
L 276.068025 120.789733 
L 276.132969 120.869819 
L 276.197913 120.775065 
L 276.327801 120.932565 
L 276.457689 121.175639 
L 276.522633 120.89435 
L 276.65252 121.186781 
L 276.912296 120.442448 
L 277.107128 121.858554 
L 277.172072 121.810517 
L 277.237015 121.987974 
L 277.431847 120.512271 
L 277.756567 121.66499 
L 277.886454 120.802719 
L 278.016342 121.758085 
L 278.081286 121.620063 
L 278.276118 120.996581 
L 278.341062 120.75296 
L 278.470949 121.240923 
L 278.600837 120.780084 
L 278.665781 120.873535 
L 278.795669 120.452463 
L 278.925557 120.788733 
L 278.990501 120.750043 
L 279.120388 121.044427 
L 279.185332 120.434599 
L 279.31522 121.144081 
L 279.380164 120.488894 
L 279.445108 120.726467 
L 279.510052 121.091401 
L 279.704884 120.310793 
L 279.899715 121.232033 
L 280.029603 120.744948 
L 280.289379 117.849929 
L 280.354323 118.126926 
L 280.549154 117.091036 
L 280.80893 119.713096 
L 280.873874 119.600851 
L 281.003761 120.362931 
L 281.068705 120.416133 
L 281.198593 119.543209 
L 281.393425 121.07143 
L 281.588257 120.610681 
L 281.718144 121.553824 
L 281.848032 120.281401 
L 281.912976 120.314606 
L 282.042864 121.253114 
L 282.107808 120.798154 
L 282.237696 119.343988 
L 282.497471 124.582754 
L 282.692303 109.593653 
L 282.952078 60.323186 
L 283.017022 61.188255 
L 283.341742 120.054867 
L 283.47163 115.293943 
L 283.536573 115.830654 
L 283.666461 118.045049 
L 283.731405 117.770282 
L 283.796349 117.647828 
L 283.926237 118.389237 
L 283.991181 119.070743 
L 284.121069 116.998169 
L 284.186012 117.586368 
L 284.250956 118.392079 
L 284.3159 118.352936 
L 284.510732 116.936161 
L 284.575676 117.515503 
L 284.64062 117.990839 
L 284.705564 117.822629 
L 284.770508 117.273745 
L 284.835451 117.298421 
L 284.900395 117.453047 
L 285.160171 116.375184 
L 285.290059 116.756008 
L 285.419947 115.418862 
L 285.48489 116.011077 
L 285.549834 115.719081 
L 285.679722 115.78699 
L 285.874554 114.973982 
L 285.939498 115.216821 
L 286.264217 113.512373 
L 286.394105 113.841261 
L 286.523993 112.513733 
L 286.588937 112.914329 
L 287.433207 109.469401 
L 287.822871 108.168995 
L 288.082646 109.212176 
L 288.14759 108.776301 
L 288.212534 108.947169 
L 288.797029 114.361161 
L 288.861973 114.272915 
L 288.926917 114.209038 
L 289.056805 114.853005 
L 289.121749 115.279106 
L 289.186693 115.15872 
L 289.251637 115.18174 
L 289.381524 114.850253 
L 289.446468 114.467357 
L 289.511412 114.793174 
L 289.576356 114.622897 
L 289.771188 113.818319 
L 289.836132 114.183243 
L 290.030963 114.85798 
L 290.095907 115.063062 
L 290.225795 114.336813 
L 290.290739 114.357358 
L 290.355683 114.785994 
L 290.420627 114.703602 
L 290.615458 114.076166 
L 290.81029 114.646822 
L 290.940178 114.354048 
L 291.005122 114.56299 
L 291.13501 114.203622 
L 291.199953 114.506425 
L 291.264897 114.426232 
L 291.329841 114.126643 
L 291.394785 114.331686 
L 291.589617 114.256875 
L 291.784449 114.569527 
L 291.849392 114.527436 
L 292.044224 113.505638 
L 292.304 114.544481 
L 292.563775 113.691388 
L 292.628719 113.589101 
L 292.758607 114.227253 
L 292.888495 113.946102 
L 292.953439 114.247267 
L 293.018383 114.063078 
L 293.14827 113.699038 
L 293.278158 114.18681 
L 293.408046 113.6943 
L 293.47299 113.933306 
L 293.537934 114.395749 
L 293.732765 112.695582 
L 293.927597 113.59473 
L 293.992541 113.183823 
L 294.057485 113.30509 
L 294.187373 113.646854 
L 294.252317 113.459537 
L 294.317261 113.416057 
L 294.382204 113.678195 
L 294.577036 113.238182 
L 294.64198 113.291111 
L 294.771868 112.450135 
L 294.836812 112.789749 
L 295.031643 113.336657 
L 295.096587 113.211217 
L 295.226475 112.396523 
L 295.356363 113.155359 
L 295.421307 112.893388 
L 295.551195 113.295866 
L 295.681082 112.515764 
L 295.746026 112.584786 
L 295.875914 113.329055 
L 295.940858 113.215976 
L 296.200634 109.801369 
L 296.330521 110.504644 
L 296.460409 109.717485 
L 296.915016 112.922851 
L 297.174792 111.87245 
L 297.30468 113.308577 
L 297.369624 113.045876 
L 297.499512 112.566337 
L 297.629399 113.743637 
L 297.694343 113.42886 
L 297.824231 112.022397 
L 297.954119 113.356765 
L 298.019063 112.923652 
L 298.148951 111.656634 
L 298.408726 116.875227 
L 298.538614 111.361765 
L 298.668502 97.88865 
L 298.928277 54.668288 
L 299.252997 111.664127 
L 299.447828 106.739771 
L 299.577716 109.506166 
L 299.64266 109.279715 
L 299.707604 108.603644 
L 299.772548 108.856644 
L 299.902436 110.779183 
L 300.032324 108.72541 
L 300.097267 108.98711 
L 300.227155 110.664599 
L 300.486931 108.789929 
L 300.616819 109.505864 
L 300.81165 108.811453 
L 300.941538 109.564449 
L 301.071426 107.918878 
L 301.13637 108.114281 
L 301.266258 108.537069 
L 301.396145 107.664776 
L 301.461089 107.783987 
L 301.526033 108.130897 
L 301.850753 106.755584 
L 302.240416 106.060748 
L 302.370304 105.512045 
L 302.565136 104.22622 
L 302.695023 104.29687 
L 303.019743 102.740786 
L 303.214575 101.719643 
L 303.279518 101.858808 
L 303.344462 101.772411 
L 303.604238 100.68738 
L 303.79907 100.041523 
L 304.058845 101.413978 
L 304.708284 108.324082 
L 305.033004 110.091639 
L 305.097948 109.922128 
L 305.227835 109.816352 
L 305.292779 109.793924 
L 305.357723 110.171857 
L 305.422667 110.050556 
L 305.487611 109.921557 
L 305.682443 109.328977 
L 305.81233 109.197093 
L 305.942218 109.789685 
L 306.007162 109.493095 
L 306.072106 109.411347 
L 306.331882 110.180916 
L 306.526713 110.69013 
L 306.656601 109.742627 
L 306.851433 110.609406 
L 306.916377 110.647651 
L 307.046265 111.012557 
L 307.176152 109.967237 
L 307.370984 110.202679 
L 307.500872 111.057815 
L 307.63076 110.468373 
L 307.695704 110.838191 
L 307.825591 110.502159 
L 308.085367 111.181338 
L 308.215255 111.035663 
L 308.410086 111.461662 
L 308.604918 111.820166 
L 308.734806 111.298951 
L 308.864694 111.696329 
L 308.929638 111.613413 
L 309.124469 111.026938 
L 309.449189 111.7993 
L 309.514133 111.624676 
L 309.579077 111.922759 
L 309.64402 111.74446 
L 309.708964 111.746259 
L 309.773908 112.047335 
L 309.838852 111.822897 
L 309.96874 111.985187 
L 310.098628 112.214005 
L 310.163572 111.81441 
L 310.228516 112.063354 
L 310.293459 112.470882 
L 310.358403 112.294032 
L 310.423347 112.139184 
L 310.488291 112.203289 
L 310.618179 112.556802 
L 310.813011 112.508907 
L 310.877954 112.836588 
L 310.942898 112.643204 
L 311.007842 112.575112 
L 311.13773 112.73434 
L 311.202674 112.497656 
L 311.332562 112.915778 
L 311.397506 112.68366 
L 311.46245 112.883365 
L 311.592337 112.486948 
L 311.722225 112.853002 
L 311.787169 112.758988 
L 311.852113 112.634351 
L 311.982001 113.613958 
L 312.046945 113.383179 
L 312.111889 112.887825 
L 312.176832 113.238005 
L 312.241776 113.595598 
L 312.30672 113.358978 
L 312.436608 113.031522 
L 312.696384 113.9899 
L 312.826271 113.925354 
L 312.891215 113.711757 
L 312.956159 114.036653 
L 313.021103 113.860982 
L 313.086047 113.770868 
L 313.150991 113.45097 
L 313.215935 113.520623 
L 313.280879 113.59966 
L 313.345823 113.883875 
L 313.410767 114.726807 
L 313.605598 111.575076 
L 313.670542 111.72498 
L 313.735486 112.154877 
L 313.930318 111.024002 
L 314.319981 114.456885 
L 314.514813 113.847238 
L 314.579757 114.089042 
L 314.644701 114.324105 
L 314.774588 115.229632 
L 314.96942 114.470029 
L 315.034364 114.811223 
L 315.099308 115.041998 
L 315.229196 113.813448 
L 315.424027 115.320531 
L 315.553915 114.194143 
L 315.748747 117.103762 
L 315.878635 119.675154 
L 316.073466 109.205531 
L 316.333242 60.942765 
L 316.398186 63.349388 
L 316.657961 116.181842 
L 316.852793 110.394391 
L 317.047625 113.792496 
L 317.177513 112.874157 
L 317.242456 113.212309 
L 317.372344 114.902827 
L 317.502232 112.840577 
L 317.567176 113.096302 
L 317.63212 114.171112 
L 317.697064 113.863113 
L 317.762008 113.717905 
L 317.826952 113.139687 
L 317.891895 113.194474 
L 317.956839 113.746693 
L 318.021783 113.738216 
L 318.151671 113.278902 
L 318.216615 113.502704 
L 318.281559 113.370388 
L 318.411447 113.672226 
L 318.541334 112.608643 
L 318.671222 113.251187 
L 318.866054 111.834585 
L 318.930998 111.899711 
L 318.995942 112.060102 
L 319.060886 112.016649 
L 319.12583 111.966613 
L 319.190773 111.698862 
L 319.255717 111.89783 
L 319.385605 111.557713 
L 319.775269 109.939858 
L 319.840212 109.950742 
L 319.905156 110.104656 
L 320.164932 108.656496 
L 320.29482 108.837459 
L 320.619539 106.826757 
L 320.684483 106.789997 
L 320.749427 107.110065 
L 320.814371 107.038446 
L 321.074146 105.349581 
L 321.204034 104.939467 
L 321.658642 107.576997 
L 322.373024 113.282294 
L 322.437968 113.136673 
L 322.567856 113.526864 
L 322.6328 114.024982 
L 322.697744 113.755411 
L 322.892576 113.688183 
L 322.95752 113.495616 
L 323.087407 114.472362 
L 323.152351 114.333043 
L 323.282239 113.408161 
L 323.347183 113.51747 
L 323.412127 113.518054 
L 323.542015 113.709407 
L 323.606958 113.56105 
L 323.671902 113.123864 
L 323.736846 113.25054 
L 323.80179 113.287536 
L 323.996622 114.219571 
L 324.061566 114.030204 
L 324.256397 113.783469 
L 324.321341 113.947315 
L 324.451229 114.897165 
L 324.516173 114.790644 
L 324.581117 114.859624 
L 324.775949 114.536329 
L 324.905836 115.13261 
L 325.165612 114.245111 
L 325.360444 115.207942 
L 325.425388 115.183392 
L 325.490332 115.362722 
L 325.620219 114.813704 
L 325.685163 115.297294 
L 325.750107 115.145785 
L 326.009883 115.586273 
L 326.13977 116.195596 
L 326.269658 115.580798 
L 326.334602 115.753822 
L 326.399546 115.473948 
L 326.46449 115.588034 
L 326.659322 116.242065 
L 326.724266 116.282336 
L 326.919097 115.53892 
L 326.984041 115.561438 
L 327.243817 116.059969 
L 327.438648 116.030594 
L 327.568536 116.62167 
L 327.698424 115.720392 
L 327.763368 115.75394 
L 327.828312 116.348162 
L 327.893256 116.219301 
L 327.9582 116.189041 
L 328.088087 115.519547 
L 328.282919 116.49631 
L 328.412807 117.216974 
L 328.542695 116.424975 
L 328.737526 116.903929 
L 328.80247 116.802653 
L 328.932358 116.983822 
L 328.997302 116.757551 
L 329.12719 117.023212 
L 329.257078 116.968517 
L 329.451909 117.278564 
L 329.516853 117.481919 
L 329.581797 117.401746 
L 329.711685 117.48378 
L 329.906517 117.160997 
L 330.036404 117.965016 
L 330.101348 117.312185 
L 330.166292 117.35549 
L 330.231236 117.536389 
L 330.29618 117.283193 
L 330.426068 117.765946 
L 330.555956 116.84085 
L 330.685843 117.947916 
L 330.750787 117.756829 
L 330.815731 117.524055 
L 330.880675 117.608876 
L 330.945619 117.612283 
L 331.140451 118.862337 
L 331.205395 118.713498 
L 331.595058 115.114916 
L 331.724946 115.683727 
L 331.919777 117.987515 
L 332.049665 118.184922 
L 332.114609 118.688795 
L 332.179553 118.545303 
L 332.309441 117.613517 
L 332.374385 117.62831 
L 332.504272 119.509809 
L 332.569216 119.438344 
L 332.699104 118.486483 
L 332.764048 118.504077 
L 332.893936 120.053017 
L 333.023824 118.394882 
L 333.088768 118.658973 
L 333.218655 119.886865 
L 333.283599 119.675228 
L 333.348543 118.728381 
L 333.413487 118.742688 
L 333.673263 123.273161 
L 333.868094 110.672972 
L 334.12787 60.115323 
L 334.192814 62.928455 
L 334.452589 119.567761 
L 334.517533 119.238375 
L 334.647421 115.059313 
L 334.712365 115.403746 
L 334.842253 117.526483 
L 334.907197 117.143971 
L 334.972141 117.27137 
L 335.037085 117.3742 
L 335.166972 118.366035 
L 335.361804 117.467338 
L 335.491692 118.264662 
L 335.62158 117.279849 
L 335.686523 117.529611 
L 335.816411 118.356144 
L 335.946299 116.94979 
L 336.011243 116.99363 
L 336.141131 118.005111 
L 336.206075 117.930114 
L 336.335962 117.503573 
L 336.46585 117.98347 
L 336.855514 116.666894 
L 336.985401 116.736371 
L 337.245177 115.906343 
L 337.310121 116.014891 
L 337.440009 116.21255 
L 337.504953 116.116884 
L 337.699784 114.497908 
L 337.829672 115.259105 
L 337.894616 115.017106 
L 338.154392 113.278044 
L 338.284279 113.685808 
L 338.349223 113.59515 
L 338.544055 112.731612 
L 338.868774 111.294302 
L 338.933718 111.723726 
L 338.998662 111.579429 
L 339.063606 111.554358 
L 339.193494 112.068001 
L 339.258438 111.496934 
L 339.45327 113.607881 
L 339.777989 117.281143 
L 340.29754 120.080383 
L 340.427428 120.005363 
L 340.557316 120.663209 
L 340.62226 120.552037 
L 340.946979 121.181715 
L 341.011923 121.017806 
L 341.076867 121.231861 
L 341.271699 120.443332 
L 341.336643 120.518857 
L 341.401586 120.95363 
L 341.46653 120.907776 
L 341.661362 120.859714 
L 341.856194 121.133343 
L 341.921138 121.224058 
L 341.986082 120.837085 
L 342.051025 121.028138 
L 342.180913 121.673645 
L 342.245857 121.739995 
L 342.310801 121.66053 
L 342.375745 121.181912 
L 342.440689 121.486047 
L 342.570577 120.850976 
L 342.700464 121.81739 
L 342.765408 121.578202 
L 342.830352 121.544276 
L 342.895296 122.298246 
L 342.96024 121.990261 
L 343.155072 121.637298 
L 343.220016 121.738302 
L 343.349903 122.24087 
L 343.414847 121.383949 
L 343.479791 121.767889 
L 343.609679 122.86355 
L 343.739567 122.461582 
L 343.804511 122.658392 
L 343.999342 121.492977 
L 344.064286 121.719664 
L 344.194174 122.587727 
L 344.259118 122.2427 
L 344.389006 122.857881 
L 344.45395 122.572214 
L 344.518894 122.655478 
L 344.648781 122.594041 
L 344.713725 122.619309 
L 344.843613 121.64241 
L 344.973501 122.904059 
L 345.103389 122.342095 
L 345.233276 123.028323 
L 345.29822 122.973423 
L 345.557996 122.266528 
L 345.752828 123.470265 
L 345.882715 123.310941 
L 346.077547 122.69261 
L 346.142491 122.949659 
L 346.207435 122.857464 
L 346.402267 122.286967 
L 346.597098 122.961166 
L 346.726986 123.867074 
L 346.856874 123.383815 
L 346.986762 122.592375 
L 347.11665 123.241635 
L 347.181593 123.025741 
L 347.376425 122.38368 
L 347.701145 123.668708 
L 347.96092 122.6296 
L 348.025864 122.564777 
L 348.090808 122.043622 
L 348.155752 122.176439 
L 348.220696 121.998327 
L 348.415527 119.646821 
L 348.480471 120.501399 
L 348.675303 122.829687 
L 348.740247 122.87804 
L 348.935079 123.599274 
L 349.000023 123.543171 
L 349.12991 122.544375 
L 349.324742 124.941493 
L 349.389686 124.517871 
L 349.519574 123.710296 
L 349.649462 125.567322 
L 349.779349 123.359539 
L 349.974181 124.888288 
L 350.104069 123.800407 
L 350.169013 124.138054 
L 350.363844 128.424144 
L 350.428788 127.814434 
L 350.62362 112.262925 
L 350.883396 64.171948 
L 350.948339 68.371798 
L 351.208115 124.484683 
L 351.273059 124.462935 
L 351.402947 119.955813 
L 351.597778 122.359767 
L 351.727666 121.319789 
L 351.922498 123.720665 
L 351.987442 123.092379 
L 352.182274 121.875496 
L 352.247217 123.042504 
L 352.312161 122.748529 
L 352.377105 121.927223 
L 352.506993 123.506026 
L 352.636881 122.282977 
L 352.701825 122.962031 
L 352.766769 122.732017 
L 352.831713 122.476537 
L 352.896656 123.326678 
L 352.9616 123.26338 
L 353.026544 122.352385 
L 353.091488 122.53149 
L 353.221376 122.579314 
L 353.416208 120.921093 
L 353.546095 122.002309 
L 353.611039 121.557668 
L 353.675983 121.711324 
L 353.740927 121.836702 
L 353.935759 121.003868 
L 354.000703 121.181788 
L 354.13059 120.83533 
L 354.195534 120.94692 
L 354.45531 119.655704 
L 354.520254 119.754309 
L 354.585198 120.217579 
L 354.780029 118.733575 
L 354.844973 119.072608 
L 355.234637 117.346247 
L 355.299581 117.433804 
L 355.364525 117.854801 
L 355.819132 115.647495 
L 355.884076 115.731244 
L 356.273739 117.962394 
L 356.663402 121.526053 
L 356.728346 121.916154 
L 356.79329 121.429776 
L 356.988122 122.650821 
L 357.053066 122.497535 
L 357.11801 122.767732 
L 357.182954 122.633598 
L 357.312841 122.615361 
L 357.377785 122.195334 
L 357.572617 122.742882 
L 357.637561 122.507879 
L 357.702505 122.537527 
L 357.767449 123.049371 
L 357.832393 122.560152 
L 357.897337 122.669704 
L 358.027224 123.202246 
L 358.157112 123.117148 
L 358.222056 123.245271 
L 358.351944 122.379589 
L 358.416888 122.57121 
L 358.546776 122.458358 
L 358.741607 123.224368 
L 358.806551 123.650953 
L 358.871495 123.607243 
L 359.131271 122.463998 
L 359.196215 122.467832 
L 359.261158 122.223753 
L 359.326102 122.644231 
L 359.391046 122.619947 
L 359.520934 122.38144 
L 359.585878 123.367768 
L 359.650822 123.181501 
L 359.715766 122.809657 
L 359.910597 123.510476 
L 360.040485 122.62966 
L 360.105429 122.887059 
L 360.170373 122.716262 
L 360.235317 122.490536 
L 360.430149 123.111967 
L 360.560036 122.881348 
L 360.689924 123.413253 
L 360.819812 122.925753 
L 360.884756 123.314702 
L 360.9497 123.214449 
L 361.079588 122.926525 
L 361.209475 122.34149 
L 361.274419 122.553532 
L 361.404307 123.642432 
L 361.469251 123.281975 
L 361.534195 123.41857 
L 361.729027 122.71223 
L 361.79397 123.039745 
L 361.923858 122.632148 
L 362.053746 123.353428 
L 362.183634 122.784175 
L 362.378466 122.26832 
L 362.573297 123.324082 
L 362.703185 122.674724 
L 362.833073 123.154635 
L 362.962961 122.489018 
L 363.027904 122.562283 
L 363.157792 123.134982 
L 363.222736 122.601125 
L 363.352624 123.057705 
L 363.417568 122.779827 
L 363.482512 123.136218 
L 363.547456 122.90012 
L 363.6124 122.98266 
L 363.742287 123.887425 
L 363.807231 123.439004 
L 363.872175 123.774024 
L 363.937119 123.672605 
L 364.326782 120.351631 
L 364.391726 119.882127 
L 364.45667 120.53014 
L 364.586558 122.990736 
L 364.651502 122.435426 
L 364.716446 122.741432 
L 364.846334 123.714019 
L 365.041165 122.657874 
L 365.106109 123.163854 
L 365.235997 124.850602 
L 365.365885 123.581581 
L 365.430829 123.61367 
L 365.560717 124.508478 
L 365.690604 123.349824 
L 365.755548 123.548989 
L 365.885436 124.833151 
L 365.95038 124.435667 
L 366.080268 122.896653 
L 366.210155 124.971004 
L 366.340043 128.300071 
L 366.534875 114.498413 
L 366.859594 63.126695 
L 367.184314 123.321296 
L 367.314202 119.405634 
L 367.379146 119.660819 
L 367.573977 121.740641 
L 367.703865 120.552844 
L 367.833753 122.106107 
L 367.898697 121.524745 
L 367.963641 120.912459 
L 368.028585 120.986084 
L 368.158472 122.081585 
L 368.223416 121.821331 
L 368.353304 120.67299 
L 368.483192 121.358136 
L 368.61308 120.747629 
L 368.742968 121.008837 
L 368.807911 120.589206 
L 368.872855 120.822281 
L 369.002743 120.312066 
L 369.067687 120.372325 
L 369.132631 120.990961 
L 369.262519 119.649819 
L 369.327463 119.726269 
L 369.45735 120.359794 
L 369.652182 119.250155 
L 369.976902 118.315986 
L 370.106789 117.308358 
L 370.171733 117.399703 
L 370.236677 117.241064 
L 370.301621 117.283075 
L 370.431509 117.225448 
L 370.691284 116.236903 
L 370.756228 116.119224 
L 371.145892 114.118139 
L 371.210836 114.470072 
L 371.340723 112.84755 
L 371.405667 113.074001 
L 371.535555 112.358601 
L 371.665443 111.69655 
L 371.730387 111.728158 
L 371.795331 111.939205 
L 371.925218 112.645202 
L 371.990162 112.594744 
L 372.055106 112.879513 
L 372.379826 117.086811 
L 372.639601 118.966791 
L 372.769489 118.47018 
L 373.029265 120.220558 
L 373.094209 120.205388 
L 373.159153 119.988858 
L 373.28904 120.380924 
L 373.483872 119.781394 
L 373.548816 119.854504 
L 373.678704 119.232708 
L 373.808592 119.455814 
L 374.003423 120.001535 
L 374.068367 119.531987 
L 374.133311 119.613798 
L 374.198255 119.603843 
L 374.328143 120.247587 
L 374.458031 120.133285 
L 374.587918 119.738765 
L 374.652862 119.972712 
L 374.717806 119.821338 
L 374.78275 119.807188 
L 374.912638 119.174723 
L 374.977582 119.298666 
L 375.042526 119.226092 
L 375.367245 119.76136 
L 375.432189 119.514983 
L 375.691965 120.421075 
L 375.886796 119.719741 
L 376.016684 119.514128 
L 376.081628 120.030232 
L 376.146572 119.760278 
L 376.211516 119.549838 
L 376.406347 120.348195 
L 376.536235 119.502175 
L 376.666123 119.586839 
L 376.796011 119.764714 
L 376.860955 120.463558 
L 376.925899 120.105988 
L 376.990843 120.039282 
L 377.055786 120.214991 
L 377.250618 119.233612 
L 377.315562 119.399799 
L 377.44545 120.025245 
L 377.575338 120.049736 
L 377.705225 119.426895 
L 377.900057 120.785193 
L 378.029945 120.094463 
L 378.094889 120.340196 
L 378.354664 119.554335 
L 378.549496 119.923945 
L 378.61444 119.937593 
L 378.679384 119.779489 
L 378.809272 120.045151 
L 378.874216 119.654405 
L 378.939159 119.734526 
L 379.069047 120.286152 
L 379.263879 119.702065 
L 379.393767 119.949724 
L 379.458711 119.718582 
L 379.523655 119.877627 
L 379.588598 119.88401 
L 379.653542 119.767437 
L 379.78343 120.216619 
L 379.913318 119.679538 
L 380.10815 120.093155 
L 380.238037 120.858992 
L 380.497813 117.479594 
L 380.562757 117.871039 
L 380.692645 116.554978 
L 381.147252 120.604179 
L 381.212196 120.693834 
L 381.407028 119.766415 
L 381.601859 121.098322 
L 381.666803 120.075808 
L 381.731747 120.434459 
L 381.926579 121.488764 
L 382.056467 120.226189 
L 382.186354 121.456226 
L 382.251298 121.349771 
L 382.381186 120.35561 
L 382.576018 123.410762 
L 382.640962 125.031004 
L 382.705906 124.207428 
L 382.900737 108.885353 
L 383.160513 62.572156 
L 383.485232 120.781847 
L 383.550176 118.141937 
L 383.680064 115.700098 
L 383.874896 119.239732 
L 384.004784 117.771581 
L 384.134671 119.657864 
L 384.199615 119.594815 
L 384.329503 117.933029 
L 384.459391 118.972711 
L 384.524335 118.849026 
L 384.654222 117.947239 
L 384.719166 117.995428 
L 384.849054 118.81714 
L 384.913998 117.848975 
L 384.978942 117.887021 
L 385.10883 118.556284 
L 385.433549 117.310104 
L 385.498493 117.900789 
L 385.563437 117.794991 
L 385.693325 116.985918 
L 385.758269 117.44361 
L 385.823213 117.42896 
L 386.018044 116.251746 
L 386.082988 115.863246 
L 386.147932 116.403798 
L 386.212876 116.215697 
L 386.472652 115.350462 
L 386.602539 115.521258 
L 386.667483 115.261526 
L 386.862315 113.635388 
L 386.927259 113.736217 
L 387.187034 112.778411 
L 387.44681 111.098689 
L 387.511754 111.395544 
L 387.706586 110.273429 
L 387.77153 110.251064 
L 387.901417 109.913669 
L 387.966361 110.057203 
L 388.031305 109.848215 
L 388.096249 109.891996 
L 388.161193 109.956097 
L 388.420969 111.90914 
L 389.070408 118.358467 
L 389.265239 118.877061 
L 389.330183 118.71609 
L 389.395127 119.168528 
L 389.460071 119.125544 
L 389.589959 118.958608 
L 389.654903 119.288114 
L 389.719847 119.252997 
L 389.78479 119.28046 
L 389.849734 119.97774 
L 389.914678 119.563527 
L 389.979622 119.215149 
L 390.044566 119.255534 
L 390.10951 119.154051 
L 390.174454 118.846006 
L 390.239398 119.28451 
L 390.304342 119.26235 
L 390.434229 119.0674 
L 390.499173 118.800695 
L 390.629061 119.711988 
L 390.694005 119.338276 
L 390.758949 119.382171 
L 390.888837 119.6539 
L 391.018724 119.379041 
L 391.083668 119.817169 
L 391.213556 119.376946 
L 391.2785 119.687191 
L 391.343444 119.620584 
L 391.408388 119.568677 
L 391.60322 119.934071 
L 391.733107 120.407898 
L 391.862995 119.506134 
L 391.927939 120.016781 
L 391.992883 119.695939 
L 392.057827 119.439087 
L 392.122771 120.075966 
L 392.187715 120.035063 
L 392.252659 119.934892 
L 392.512434 120.485054 
L 392.642322 120.481006 
L 392.707266 120.32019 
L 392.77221 120.377236 
L 392.837154 120.532682 
L 392.902098 120.162388 
L 393.096929 121.31837 
L 393.226817 120.027029 
L 393.291761 120.65458 
L 393.421649 120.896453 
L 393.551536 121.172093 
L 393.61648 121.082229 
L 393.811312 121.584449 
L 394.006144 120.730379 
L 394.265919 121.536223 
L 394.395807 121.34438 
L 394.525695 121.913406 
L 394.590639 121.723722 
L 394.850414 121.026411 
L 394.915358 121.22753 
L 394.980302 121.067204 
L 395.045246 121.010925 
L 395.11019 121.100661 
L 395.240078 121.736087 
L 395.369966 121.123834 
L 395.499853 121.031236 
L 395.629741 121.560572 
L 395.694685 121.473394 
L 395.824573 120.726184 
L 396.019405 121.373192 
L 396.149292 120.839191 
L 396.27918 121.433954 
L 396.344124 121.343556 
L 396.474012 120.931641 
L 396.538956 121.097508 
L 396.668844 121.744447 
L 396.993563 121.006201 
L 397.058507 121.793241 
L 397.123451 121.263152 
L 397.318283 119.209152 
L 397.383226 119.731018 
L 397.513114 118.169758 
L 397.837834 121.687269 
L 397.902778 121.253165 
L 398.032665 122.144449 
L 398.097609 122.059438 
L 398.227497 121.257384 
L 398.422329 122.850181 
L 398.487273 122.501153 
L 398.487273 122.501153 
" style="fill:none;stroke:#1f77b4;stroke-linecap:square;stroke-width:1.5;"/>
   </g>
   <g id="patch_3">
    <path d="M 57.6 307.584 
L 57.6 41.472 
" style="fill:none;stroke:#000000;stroke-linecap:square;stroke-linejoin:miter;stroke-width:0.8;"/>
   </g>
   <g id="patch_4">
    <path d="M 414.72 307.584 
L 414.72 41.472 
" style="fill:none;stroke:#000000;stroke-linecap:square;stroke-linejoin:miter;stroke-width:0.8;"/>
   </g>
   <g id="patch_5">
    <path d="M 57.6 307.584 
L 414.72 307.584 
" style="fill:none;stroke:#000000;stroke-linecap:square;stroke-linejoin:miter;stroke-width:0.8;"/>
   </g>
   <g id="patch_6">
    <path d="M 57.6 41.472 
L 414.72 41.472 
" style="fill:none;stroke:#000000;stroke-linecap:square;stroke-linejoin:miter;stroke-width:0.8;"/>
   </g>
   <g id="text_17">
    <!-- output after eliminating baseline wander -->
    <g transform="translate(113.415937 35.472)scale(0.12 -0.12)">
     <defs>
      <path d="M 30.609375 48.390625 
Q 23.390625 48.390625 19.1875 42.75 
Q 14.984375 37.109375 14.984375 27.296875 
Q 14.984375 17.484375 19.15625 11.84375 
Q 23.34375 6.203125 30.609375 6.203125 
Q 37.796875 6.203125 41.984375 11.859375 
Q 46.1875 17.53125 46.1875 27.296875 
Q 46.1875 37.015625 41.984375 42.703125 
Q 37.796875 48.390625 30.609375 48.390625 
z
M 30.609375 56 
Q 42.328125 56 49.015625 48.375 
Q 55.71875 40.765625 55.71875 27.296875 
Q 55.71875 13.875 49.015625 6.21875 
Q 42.328125 -1.421875 30.609375 -1.421875 
Q 18.84375 -1.421875 12.171875 6.21875 
Q 5.515625 13.875 5.515625 27.296875 
Q 5.515625 40.765625 12.171875 48.375 
Q 18.84375 56 30.609375 56 
z
" id="DejaVuSans-111"/>
      <path d="M 8.5 21.578125 
L 8.5 54.6875 
L 17.484375 54.6875 
L 17.484375 21.921875 
Q 17.484375 14.15625 20.5 10.265625 
Q 23.53125 6.390625 29.59375 6.390625 
Q 36.859375 6.390625 41.078125 11.03125 
Q 45.3125 15.671875 45.3125 23.6875 
L 45.3125 54.6875 
L 54.296875 54.6875 
L 54.296875 0 
L 45.3125 0 
L 45.3125 8.40625 
Q 42.046875 3.421875 37.71875 1 
Q 33.40625 -1.421875 27.6875 -1.421875 
Q 18.265625 -1.421875 13.375 4.4375 
Q 8.5 10.296875 8.5 21.578125 
z
M 31.109375 56 
z
" id="DejaVuSans-117"/>
      <path d="M 18.3125 70.21875 
L 18.3125 54.6875 
L 36.8125 54.6875 
L 36.8125 47.703125 
L 18.3125 47.703125 
L 18.3125 18.015625 
Q 18.3125 11.328125 20.140625 9.421875 
Q 21.96875 7.515625 27.59375 7.515625 
L 36.8125 7.515625 
L 36.8125 0 
L 27.59375 0 
Q 17.1875 0 13.234375 3.875 
Q 9.28125 7.765625 9.28125 18.015625 
L 9.28125 47.703125 
L 2.6875 47.703125 
L 2.6875 54.6875 
L 9.28125 54.6875 
L 9.28125 70.21875 
z
" id="DejaVuSans-116"/>
      <path d="M 18.109375 8.203125 
L 18.109375 -20.796875 
L 9.078125 -20.796875 
L 9.078125 54.6875 
L 18.109375 54.6875 
L 18.109375 46.390625 
Q 20.953125 51.265625 25.265625 53.625 
Q 29.59375 56 35.59375 56 
Q 45.5625 56 51.78125 48.09375 
Q 58.015625 40.1875 58.015625 27.296875 
Q 58.015625 14.40625 51.78125 6.484375 
Q 45.5625 -1.421875 35.59375 -1.421875 
Q 29.59375 -1.421875 25.265625 0.953125 
Q 20.953125 3.328125 18.109375 8.203125 
z
M 48.6875 27.296875 
Q 48.6875 37.203125 44.609375 42.84375 
Q 40.53125 48.484375 33.40625 48.484375 
Q 26.265625 48.484375 22.1875 42.84375 
Q 18.109375 37.203125 18.109375 27.296875 
Q 18.109375 17.390625 22.1875 11.75 
Q 26.265625 6.109375 33.40625 6.109375 
Q 40.53125 6.109375 44.609375 11.75 
Q 48.6875 17.390625 48.6875 27.296875 
z
" id="DejaVuSans-112"/>
      <path id="DejaVuSans-32"/>
      <path d="M 34.28125 27.484375 
Q 23.390625 27.484375 19.1875 25 
Q 14.984375 22.515625 14.984375 16.5 
Q 14.984375 11.71875 18.140625 8.90625 
Q 21.296875 6.109375 26.703125 6.109375 
Q 34.1875 6.109375 38.703125 11.40625 
Q 43.21875 16.703125 43.21875 25.484375 
L 43.21875 27.484375 
z
M 52.203125 31.203125 
L 52.203125 0 
L 43.21875 0 
L 43.21875 8.296875 
Q 40.140625 3.328125 35.546875 0.953125 
Q 30.953125 -1.421875 24.3125 -1.421875 
Q 15.921875 -1.421875 10.953125 3.296875 
Q 6 8.015625 6 15.921875 
Q 6 25.140625 12.171875 29.828125 
Q 18.359375 34.515625 30.609375 34.515625 
L 43.21875 34.515625 
L 43.21875 35.40625 
Q 43.21875 41.609375 39.140625 45 
Q 35.0625 48.390625 27.6875 48.390625 
Q 23 48.390625 18.546875 47.265625 
Q 14.109375 46.140625 10.015625 43.890625 
L 10.015625 52.203125 
Q 14.9375 54.109375 19.578125 55.046875 
Q 24.21875 56 28.609375 56 
Q 40.484375 56 46.34375 49.84375 
Q 52.203125 43.703125 52.203125 31.203125 
z
" id="DejaVuSans-97"/>
      <path d="M 37.109375 75.984375 
L 37.109375 68.5 
L 28.515625 68.5 
Q 23.6875 68.5 21.796875 66.546875 
Q 19.921875 64.59375 19.921875 59.515625 
L 19.921875 54.6875 
L 34.71875 54.6875 
L 34.71875 47.703125 
L 19.921875 47.703125 
L 19.921875 0 
L 10.890625 0 
L 10.890625 47.703125 
L 2.296875 47.703125 
L 2.296875 54.6875 
L 10.890625 54.6875 
L 10.890625 58.5 
Q 10.890625 67.625 15.140625 71.796875 
Q 19.390625 75.984375 28.609375 75.984375 
z
" id="DejaVuSans-102"/>
      <path d="M 56.203125 29.59375 
L 56.203125 25.203125 
L 14.890625 25.203125 
Q 15.484375 15.921875 20.484375 11.0625 
Q 25.484375 6.203125 34.421875 6.203125 
Q 39.59375 6.203125 44.453125 7.46875 
Q 49.3125 8.734375 54.109375 11.28125 
L 54.109375 2.78125 
Q 49.265625 0.734375 44.1875 -0.34375 
Q 39.109375 -1.421875 33.890625 -1.421875 
Q 20.796875 -1.421875 13.15625 6.1875 
Q 5.515625 13.8125 5.515625 26.8125 
Q 5.515625 40.234375 12.765625 48.109375 
Q 20.015625 56 32.328125 56 
Q 43.359375 56 49.78125 48.890625 
Q 56.203125 41.796875 56.203125 29.59375 
z
M 47.21875 32.234375 
Q 47.125 39.59375 43.09375 43.984375 
Q 39.0625 48.390625 32.421875 48.390625 
Q 24.90625 48.390625 20.390625 44.140625 
Q 15.875 39.890625 15.1875 32.171875 
z
" id="DejaVuSans-101"/>
      <path d="M 41.109375 46.296875 
Q 39.59375 47.171875 37.8125 47.578125 
Q 36.03125 48 33.890625 48 
Q 26.265625 48 22.1875 43.046875 
Q 18.109375 38.09375 18.109375 28.8125 
L 18.109375 0 
L 9.078125 0 
L 9.078125 54.6875 
L 18.109375 54.6875 
L 18.109375 46.1875 
Q 20.953125 51.171875 25.484375 53.578125 
Q 30.03125 56 36.53125 56 
Q 37.453125 56 38.578125 55.875 
Q 39.703125 55.765625 41.0625 55.515625 
z
" id="DejaVuSans-114"/>
      <path d="M 9.421875 75.984375 
L 18.40625 75.984375 
L 18.40625 0 
L 9.421875 0 
z
" id="DejaVuSans-108"/>
      <path d="M 9.421875 54.6875 
L 18.40625 54.6875 
L 18.40625 0 
L 9.421875 0 
z
M 9.421875 75.984375 
L 18.40625 75.984375 
L 18.40625 64.59375 
L 9.421875 64.59375 
z
" id="DejaVuSans-105"/>
      <path d="M 52 44.1875 
Q 55.375 50.25 60.0625 53.125 
Q 64.75 56 71.09375 56 
Q 79.640625 56 84.28125 50.015625 
Q 88.921875 44.046875 88.921875 33.015625 
L 88.921875 0 
L 79.890625 0 
L 79.890625 32.71875 
Q 79.890625 40.578125 77.09375 44.375 
Q 74.3125 48.1875 68.609375 48.1875 
Q 61.625 48.1875 57.5625 43.546875 
Q 53.515625 38.921875 53.515625 30.90625 
L 53.515625 0 
L 44.484375 0 
L 44.484375 32.71875 
Q 44.484375 40.625 41.703125 44.40625 
Q 38.921875 48.1875 33.109375 48.1875 
Q 26.21875 48.1875 22.15625 43.53125 
Q 18.109375 38.875 18.109375 30.90625 
L 18.109375 0 
L 9.078125 0 
L 9.078125 54.6875 
L 18.109375 54.6875 
L 18.109375 46.1875 
Q 21.1875 51.21875 25.484375 53.609375 
Q 29.78125 56 35.6875 56 
Q 41.65625 56 45.828125 52.96875 
Q 50 49.953125 52 44.1875 
z
" id="DejaVuSans-109"/>
      <path d="M 54.890625 33.015625 
L 54.890625 0 
L 45.90625 0 
L 45.90625 32.71875 
Q 45.90625 40.484375 42.875 44.328125 
Q 39.84375 48.1875 33.796875 48.1875 
Q 26.515625 48.1875 22.3125 43.546875 
Q 18.109375 38.921875 18.109375 30.90625 
L 18.109375 0 
L 9.078125 0 
L 9.078125 54.6875 
L 18.109375 54.6875 
L 18.109375 46.1875 
Q 21.34375 51.125 25.703125 53.5625 
Q 30.078125 56 35.796875 56 
Q 45.21875 56 50.046875 50.171875 
Q 54.890625 44.34375 54.890625 33.015625 
z
" id="DejaVuSans-110"/>
      <path d="M 45.40625 27.984375 
Q 45.40625 37.75 41.375 43.109375 
Q 37.359375 48.484375 30.078125 48.484375 
Q 22.859375 48.484375 18.828125 43.109375 
Q 14.796875 37.75 14.796875 27.984375 
Q 14.796875 18.265625 18.828125 12.890625 
Q 22.859375 7.515625 30.078125 7.515625 
Q 37.359375 7.515625 41.375 12.890625 
Q 45.40625 18.265625 45.40625 27.984375 
z
M 54.390625 6.78125 
Q 54.390625 -7.171875 48.1875 -13.984375 
Q 42 -20.796875 29.203125 -20.796875 
Q 24.46875 -20.796875 20.265625 -20.09375 
Q 16.0625 -19.390625 12.109375 -17.921875 
L 12.109375 -9.1875 
Q 16.0625 -11.328125 19.921875 -12.34375 
Q 23.78125 -13.375 27.78125 -13.375 
Q 36.625 -13.375 41.015625 -8.765625 
Q 45.40625 -4.15625 45.40625 5.171875 
L 45.40625 9.625 
Q 42.625 4.78125 38.28125 2.390625 
Q 33.9375 0 27.875 0 
Q 17.828125 0 11.671875 7.65625 
Q 5.515625 15.328125 5.515625 27.984375 
Q 5.515625 40.671875 11.671875 48.328125 
Q 17.828125 56 27.875 56 
Q 33.9375 56 38.28125 53.609375 
Q 42.625 51.21875 45.40625 46.390625 
L 45.40625 54.6875 
L 54.390625 54.6875 
z
" id="DejaVuSans-103"/>
      <path d="M 48.6875 27.296875 
Q 48.6875 37.203125 44.609375 42.84375 
Q 40.53125 48.484375 33.40625 48.484375 
Q 26.265625 48.484375 22.1875 42.84375 
Q 18.109375 37.203125 18.109375 27.296875 
Q 18.109375 17.390625 22.1875 11.75 
Q 26.265625 6.109375 33.40625 6.109375 
Q 40.53125 6.109375 44.609375 11.75 
Q 48.6875 17.390625 48.6875 27.296875 
z
M 18.109375 46.390625 
Q 20.953125 51.265625 25.265625 53.625 
Q 29.59375 56 35.59375 56 
Q 45.5625 56 51.78125 48.09375 
Q 58.015625 40.1875 58.015625 27.296875 
Q 58.015625 14.40625 51.78125 6.484375 
Q 45.5625 -1.421875 35.59375 -1.421875 
Q 29.59375 -1.421875 25.265625 0.953125 
Q 20.953125 3.328125 18.109375 8.203125 
L 18.109375 0 
L 9.078125 0 
L 9.078125 75.984375 
L 18.109375 75.984375 
z
" id="DejaVuSans-98"/>
      <path d="M 44.28125 53.078125 
L 44.28125 44.578125 
Q 40.484375 46.53125 36.375 47.5 
Q 32.28125 48.484375 27.875 48.484375 
Q 21.1875 48.484375 17.84375 46.4375 
Q 14.5 44.390625 14.5 40.28125 
Q 14.5 37.15625 16.890625 35.375 
Q 19.28125 33.59375 26.515625 31.984375 
L 29.59375 31.296875 
Q 39.15625 29.25 43.1875 25.515625 
Q 47.21875 21.78125 47.21875 15.09375 
Q 47.21875 7.46875 41.1875 3.015625 
Q 35.15625 -1.421875 24.609375 -1.421875 
Q 20.21875 -1.421875 15.453125 -0.5625 
Q 10.6875 0.296875 5.421875 2 
L 5.421875 11.28125 
Q 10.40625 8.6875 15.234375 7.390625 
Q 20.0625 6.109375 24.8125 6.109375 
Q 31.15625 6.109375 34.5625 8.28125 
Q 37.984375 10.453125 37.984375 14.40625 
Q 37.984375 18.0625 35.515625 20.015625 
Q 33.0625 21.96875 24.703125 23.78125 
L 21.578125 24.515625 
Q 13.234375 26.265625 9.515625 29.90625 
Q 5.8125 33.546875 5.8125 39.890625 
Q 5.8125 47.609375 11.28125 51.796875 
Q 16.75 56 26.8125 56 
Q 31.78125 56 36.171875 55.265625 
Q 40.578125 54.546875 44.28125 53.078125 
z
" id="DejaVuSans-115"/>
      <path d="M 4.203125 54.6875 
L 13.1875 54.6875 
L 24.421875 12.015625 
L 35.59375 54.6875 
L 46.1875 54.6875 
L 57.421875 12.015625 
L 68.609375 54.6875 
L 77.59375 54.6875 
L 63.28125 0 
L 52.6875 0 
L 40.921875 44.828125 
L 29.109375 0 
L 18.5 0 
z
" id="DejaVuSans-119"/>
      <path d="M 45.40625 46.390625 
L 45.40625 75.984375 
L 54.390625 75.984375 
L 54.390625 0 
L 45.40625 0 
L 45.40625 8.203125 
Q 42.578125 3.328125 38.25 0.953125 
Q 33.9375 -1.421875 27.875 -1.421875 
Q 17.96875 -1.421875 11.734375 6.484375 
Q 5.515625 14.40625 5.515625 27.296875 
Q 5.515625 40.1875 11.734375 48.09375 
Q 17.96875 56 27.875 56 
Q 33.9375 56 38.25 53.625 
Q 42.578125 51.265625 45.40625 46.390625 
z
M 14.796875 27.296875 
Q 14.796875 17.390625 18.875 11.75 
Q 22.953125 6.109375 30.078125 6.109375 
Q 37.203125 6.109375 41.296875 11.75 
Q 45.40625 17.390625 45.40625 27.296875 
Q 45.40625 37.203125 41.296875 42.84375 
Q 37.203125 48.484375 30.078125 48.484375 
Q 22.953125 48.484375 18.875 42.84375 
Q 14.796875 37.203125 14.796875 27.296875 
z
" id="DejaVuSans-100"/>
     </defs>
     <use xlink:href="#DejaVuSans-111"/>
     <use x="61.181641" xlink:href="#DejaVuSans-117"/>
     <use x="124.560547" xlink:href="#DejaVuSans-116"/>
     <use x="163.769531" xlink:href="#DejaVuSans-112"/>
     <use x="227.246094" xlink:href="#DejaVuSans-117"/>
     <use x="290.625" xlink:href="#DejaVuSans-116"/>
     <use x="329.833984" xlink:href="#DejaVuSans-32"/>
     <use x="361.621094" xlink:href="#DejaVuSans-97"/>
     <use x="422.900391" xlink:href="#DejaVuSans-102"/>
     <use x="456.355469" xlink:href="#DejaVuSans-116"/>
     <use x="495.564453" xlink:href="#DejaVuSans-101"/>
     <use x="557.087891" xlink:href="#DejaVuSans-114"/>
     <use x="598.201172" xlink:href="#DejaVuSans-32"/>
     <use x="629.988281" xlink:href="#DejaVuSans-101"/>
     <use x="691.511719" xlink:href="#DejaVuSans-108"/>
     <use x="719.294922" xlink:href="#DejaVuSans-105"/>
     <use x="747.078125" xlink:href="#DejaVuSans-109"/>
     <use x="844.490234" xlink:href="#DejaVuSans-105"/>
     <use x="872.273438" xlink:href="#DejaVuSans-110"/>
     <use x="935.652344" xlink:href="#DejaVuSans-97"/>
     <use x="996.931641" xlink:href="#DejaVuSans-116"/>
     <use x="1036.140625" xlink:href="#DejaVuSans-105"/>
     <use x="1063.923828" xlink:href="#DejaVuSans-110"/>
     <use x="1127.302734" xlink:href="#DejaVuSans-103"/>
     <use x="1190.779297" xlink:href="#DejaVuSans-32"/>
     <use x="1222.566406" xlink:href="#DejaVuSans-98"/>
     <use x="1286.042969" xlink:href="#DejaVuSans-97"/>
     <use x="1347.322266" xlink:href="#DejaVuSans-115"/>
     <use x="1399.421875" xlink:href="#DejaVuSans-101"/>
     <use x="1460.945312" xlink:href="#DejaVuSans-108"/>
     <use x="1488.728516" xlink:href="#DejaVuSans-105"/>
     <use x="1516.511719" xlink:href="#DejaVuSans-110"/>
     <use x="1579.890625" xlink:href="#DejaVuSans-101"/>
     <use x="1641.414062" xlink:href="#DejaVuSans-32"/>
     <use x="1673.201172" xlink:href="#DejaVuSans-119"/>
     <use x="1754.988281" xlink:href="#DejaVuSans-97"/>
     <use x="1816.267578" xlink:href="#DejaVuSans-110"/>
     <use x="1879.646484" xlink:href="#DejaVuSans-100"/>
     <use x="1943.123047" xlink:href="#DejaVuSans-101"/>
     <use x="2004.646484" xlink:href="#DejaVuSans-114"/>
    </g>
   </g>
  </g>
 </g>
 <defs>
  <clipPath id="pe11aa55ff3">
   <rect height="266.112" width="357.12" x="57.6" y="41.472"/>
  </clipPath>
 </defs>
</svg>
