<?xml version="1.0" encoding="utf-8" standalone="no"?>
<!DOCTYPE svg PUBLIC "-//W3C//DTD SVG 1.1//EN"
  "http://www.w3.org/Graphics/SVG/1.1/DTD/svg11.dtd">
<!-- Created with matplotlib (https://matplotlib.org/) -->
<svg height="345.6pt" version="1.1" viewBox="0 0 460.8 345.6" width="460.8pt" xmlns="http://www.w3.org/2000/svg" xmlns:xlink="http://www.w3.org/1999/xlink">
 <metadata>
  <rdf:RDF xmlns:cc="http://creativecommons.org/ns#" xmlns:dc="http://purl.org/dc/elements/1.1/" xmlns:rdf="http://www.w3.org/1999/02/22-rdf-syntax-ns#">
   <cc:Work>
    <dc:type rdf:resource="http://purl.org/dc/dcmitype/StillImage"/>
    <dc:date>2021-11-15T03:31:50.245835</dc:date>
    <dc:format>image/svg+xml</dc:format>
    <dc:creator>
     <cc:Agent>
      <dc:title>Matplotlib v3.3.2, https://matplotlib.org/</dc:title>
     </cc:Agent>
    </dc:creator>
   </cc:Work>
  </rdf:RDF>
 </metadata>
 <defs>
  <style type="text/css">*{stroke-linecap:butt;stroke-linejoin:round;}</style>
 </defs>
 <g id="figure_1">
  <g id="patch_1">
   <path d="M 0 345.6 
L 460.8 345.6 
L 460.8 0 
L 0 0 
z
" style="fill:#ffffff;"/>
  </g>
  <g id="axes_1">
   <g id="patch_2">
    <path d="M 57.6 307.584 
L 414.72 307.584 
L 414.72 41.472 
L 57.6 41.472 
z
" style="fill:#ffffff;"/>
   </g>
   <g id="matplotlib.axis_1">
    <g id="xtick_1">
     <g id="line2d_1">
      <defs>
       <path d="M 0 0 
L 0 3.5 
" id="m6b7479d07d" style="stroke:#000000;stroke-width:0.8;"/>
      </defs>
      <g>
       <use style="stroke:#000000;stroke-width:0.8;" x="73.832727" xlink:href="#m6b7479d07d" y="307.584"/>
      </g>
     </g>
     <g id="text_1">
      <!-- 0 -->
      <g transform="translate(70.651477 322.182437)scale(0.1 -0.1)">
       <defs>
        <path d="M 31.78125 66.40625 
Q 24.171875 66.40625 20.328125 58.90625 
Q 16.5 51.421875 16.5 36.375 
Q 16.5 21.390625 20.328125 13.890625 
Q 24.171875 6.390625 31.78125 6.390625 
Q 39.453125 6.390625 43.28125 13.890625 
Q 47.125 21.390625 47.125 36.375 
Q 47.125 51.421875 43.28125 58.90625 
Q 39.453125 66.40625 31.78125 66.40625 
z
M 31.78125 74.21875 
Q 44.046875 74.21875 50.515625 64.515625 
Q 56.984375 54.828125 56.984375 36.375 
Q 56.984375 17.96875 50.515625 8.265625 
Q 44.046875 -1.421875 31.78125 -1.421875 
Q 19.53125 -1.421875 13.0625 8.265625 
Q 6.59375 17.96875 6.59375 36.375 
Q 6.59375 54.828125 13.0625 64.515625 
Q 19.53125 74.21875 31.78125 74.21875 
z
" id="DejaVuSans-48"/>
       </defs>
       <use xlink:href="#DejaVuSans-48"/>
      </g>
     </g>
    </g>
    <g id="xtick_2">
     <g id="line2d_2">
      <g>
       <use style="stroke:#000000;stroke-width:0.8;" x="138.776625" xlink:href="#m6b7479d07d" y="307.584"/>
      </g>
     </g>
     <g id="text_2">
      <!-- 1000 -->
      <g transform="translate(126.051625 322.182437)scale(0.1 -0.1)">
       <defs>
        <path d="M 12.40625 8.296875 
L 28.515625 8.296875 
L 28.515625 63.921875 
L 10.984375 60.40625 
L 10.984375 69.390625 
L 28.421875 72.90625 
L 38.28125 72.90625 
L 38.28125 8.296875 
L 54.390625 8.296875 
L 54.390625 0 
L 12.40625 0 
z
" id="DejaVuSans-49"/>
       </defs>
       <use xlink:href="#DejaVuSans-49"/>
       <use x="63.623047" xlink:href="#DejaVuSans-48"/>
       <use x="127.246094" xlink:href="#DejaVuSans-48"/>
       <use x="190.869141" xlink:href="#DejaVuSans-48"/>
      </g>
     </g>
    </g>
    <g id="xtick_3">
     <g id="line2d_3">
      <g>
       <use style="stroke:#000000;stroke-width:0.8;" x="203.720523" xlink:href="#m6b7479d07d" y="307.584"/>
      </g>
     </g>
     <g id="text_3">
      <!-- 2000 -->
      <g transform="translate(190.995523 322.182437)scale(0.1 -0.1)">
       <defs>
        <path d="M 19.1875 8.296875 
L 53.609375 8.296875 
L 53.609375 0 
L 7.328125 0 
L 7.328125 8.296875 
Q 12.9375 14.109375 22.625 23.890625 
Q 32.328125 33.6875 34.8125 36.53125 
Q 39.546875 41.84375 41.421875 45.53125 
Q 43.3125 49.21875 43.3125 52.78125 
Q 43.3125 58.59375 39.234375 62.25 
Q 35.15625 65.921875 28.609375 65.921875 
Q 23.96875 65.921875 18.8125 64.3125 
Q 13.671875 62.703125 7.8125 59.421875 
L 7.8125 69.390625 
Q 13.765625 71.78125 18.9375 73 
Q 24.125 74.21875 28.421875 74.21875 
Q 39.75 74.21875 46.484375 68.546875 
Q 53.21875 62.890625 53.21875 53.421875 
Q 53.21875 48.921875 51.53125 44.890625 
Q 49.859375 40.875 45.40625 35.40625 
Q 44.1875 33.984375 37.640625 27.21875 
Q 31.109375 20.453125 19.1875 8.296875 
z
" id="DejaVuSans-50"/>
       </defs>
       <use xlink:href="#DejaVuSans-50"/>
       <use x="63.623047" xlink:href="#DejaVuSans-48"/>
       <use x="127.246094" xlink:href="#DejaVuSans-48"/>
       <use x="190.869141" xlink:href="#DejaVuSans-48"/>
      </g>
     </g>
    </g>
    <g id="xtick_4">
     <g id="line2d_4">
      <g>
       <use style="stroke:#000000;stroke-width:0.8;" x="268.664421" xlink:href="#m6b7479d07d" y="307.584"/>
      </g>
     </g>
     <g id="text_4">
      <!-- 3000 -->
      <g transform="translate(255.939421 322.182437)scale(0.1 -0.1)">
       <defs>
        <path d="M 40.578125 39.3125 
Q 47.65625 37.796875 51.625 33 
Q 55.609375 28.21875 55.609375 21.1875 
Q 55.609375 10.40625 48.1875 4.484375 
Q 40.765625 -1.421875 27.09375 -1.421875 
Q 22.515625 -1.421875 17.65625 -0.515625 
Q 12.796875 0.390625 7.625 2.203125 
L 7.625 11.71875 
Q 11.71875 9.328125 16.59375 8.109375 
Q 21.484375 6.890625 26.8125 6.890625 
Q 36.078125 6.890625 40.9375 10.546875 
Q 45.796875 14.203125 45.796875 21.1875 
Q 45.796875 27.640625 41.28125 31.265625 
Q 36.765625 34.90625 28.71875 34.90625 
L 20.21875 34.90625 
L 20.21875 43.015625 
L 29.109375 43.015625 
Q 36.375 43.015625 40.234375 45.921875 
Q 44.09375 48.828125 44.09375 54.296875 
Q 44.09375 59.90625 40.109375 62.90625 
Q 36.140625 65.921875 28.71875 65.921875 
Q 24.65625 65.921875 20.015625 65.03125 
Q 15.375 64.15625 9.8125 62.3125 
L 9.8125 71.09375 
Q 15.4375 72.65625 20.34375 73.4375 
Q 25.25 74.21875 29.59375 74.21875 
Q 40.828125 74.21875 47.359375 69.109375 
Q 53.90625 64.015625 53.90625 55.328125 
Q 53.90625 49.265625 50.4375 45.09375 
Q 46.96875 40.921875 40.578125 39.3125 
z
" id="DejaVuSans-51"/>
       </defs>
       <use xlink:href="#DejaVuSans-51"/>
       <use x="63.623047" xlink:href="#DejaVuSans-48"/>
       <use x="127.246094" xlink:href="#DejaVuSans-48"/>
       <use x="190.869141" xlink:href="#DejaVuSans-48"/>
      </g>
     </g>
    </g>
    <g id="xtick_5">
     <g id="line2d_5">
      <g>
       <use style="stroke:#000000;stroke-width:0.8;" x="333.608319" xlink:href="#m6b7479d07d" y="307.584"/>
      </g>
     </g>
     <g id="text_5">
      <!-- 4000 -->
      <g transform="translate(320.883319 322.182437)scale(0.1 -0.1)">
       <defs>
        <path d="M 37.796875 64.3125 
L 12.890625 25.390625 
L 37.796875 25.390625 
z
M 35.203125 72.90625 
L 47.609375 72.90625 
L 47.609375 25.390625 
L 58.015625 25.390625 
L 58.015625 17.1875 
L 47.609375 17.1875 
L 47.609375 0 
L 37.796875 0 
L 37.796875 17.1875 
L 4.890625 17.1875 
L 4.890625 26.703125 
z
" id="DejaVuSans-52"/>
       </defs>
       <use xlink:href="#DejaVuSans-52"/>
       <use x="63.623047" xlink:href="#DejaVuSans-48"/>
       <use x="127.246094" xlink:href="#DejaVuSans-48"/>
       <use x="190.869141" xlink:href="#DejaVuSans-48"/>
      </g>
     </g>
    </g>
    <g id="xtick_6">
     <g id="line2d_6">
      <g>
       <use style="stroke:#000000;stroke-width:0.8;" x="398.552217" xlink:href="#m6b7479d07d" y="307.584"/>
      </g>
     </g>
     <g id="text_6">
      <!-- 5000 -->
      <g transform="translate(385.827217 322.182437)scale(0.1 -0.1)">
       <defs>
        <path d="M 10.796875 72.90625 
L 49.515625 72.90625 
L 49.515625 64.59375 
L 19.828125 64.59375 
L 19.828125 46.734375 
Q 21.96875 47.46875 24.109375 47.828125 
Q 26.265625 48.1875 28.421875 48.1875 
Q 40.625 48.1875 47.75 41.5 
Q 54.890625 34.8125 54.890625 23.390625 
Q 54.890625 11.625 47.5625 5.09375 
Q 40.234375 -1.421875 26.90625 -1.421875 
Q 22.3125 -1.421875 17.546875 -0.640625 
Q 12.796875 0.140625 7.71875 1.703125 
L 7.71875 11.625 
Q 12.109375 9.234375 16.796875 8.0625 
Q 21.484375 6.890625 26.703125 6.890625 
Q 35.15625 6.890625 40.078125 11.328125 
Q 45.015625 15.765625 45.015625 23.390625 
Q 45.015625 31 40.078125 35.4375 
Q 35.15625 39.890625 26.703125 39.890625 
Q 22.75 39.890625 18.8125 39.015625 
Q 14.890625 38.140625 10.796875 36.28125 
z
" id="DejaVuSans-53"/>
       </defs>
       <use xlink:href="#DejaVuSans-53"/>
       <use x="63.623047" xlink:href="#DejaVuSans-48"/>
       <use x="127.246094" xlink:href="#DejaVuSans-48"/>
       <use x="190.869141" xlink:href="#DejaVuSans-48"/>
      </g>
     </g>
    </g>
   </g>
   <g id="matplotlib.axis_2">
    <g id="ytick_1">
     <g id="line2d_7">
      <defs>
       <path d="M 0 0 
L -3.5 0 
" id="m23a5ef3323" style="stroke:#000000;stroke-width:0.8;"/>
      </defs>
      <g>
       <use style="stroke:#000000;stroke-width:0.8;" x="57.6" xlink:href="#m23a5ef3323" y="292.45231"/>
      </g>
     </g>
     <g id="text_7">
      <!-- −0.0020 -->
      <g transform="translate(7.229687 296.251529)scale(0.1 -0.1)">
       <defs>
        <path d="M 10.59375 35.5 
L 73.1875 35.5 
L 73.1875 27.203125 
L 10.59375 27.203125 
z
" id="DejaVuSans-8722"/>
        <path d="M 10.6875 12.40625 
L 21 12.40625 
L 21 0 
L 10.6875 0 
z
" id="DejaVuSans-46"/>
       </defs>
       <use xlink:href="#DejaVuSans-8722"/>
       <use x="83.789062" xlink:href="#DejaVuSans-48"/>
       <use x="147.412109" xlink:href="#DejaVuSans-46"/>
       <use x="179.199219" xlink:href="#DejaVuSans-48"/>
       <use x="242.822266" xlink:href="#DejaVuSans-48"/>
       <use x="306.445312" xlink:href="#DejaVuSans-50"/>
       <use x="370.068359" xlink:href="#DejaVuSans-48"/>
      </g>
     </g>
    </g>
    <g id="ytick_2">
     <g id="line2d_8">
      <g>
       <use style="stroke:#000000;stroke-width:0.8;" x="57.6" xlink:href="#m23a5ef3323" y="262.814007"/>
      </g>
     </g>
     <g id="text_8">
      <!-- −0.0015 -->
      <g transform="translate(7.229687 266.613226)scale(0.1 -0.1)">
       <use xlink:href="#DejaVuSans-8722"/>
       <use x="83.789062" xlink:href="#DejaVuSans-48"/>
       <use x="147.412109" xlink:href="#DejaVuSans-46"/>
       <use x="179.199219" xlink:href="#DejaVuSans-48"/>
       <use x="242.822266" xlink:href="#DejaVuSans-48"/>
       <use x="306.445312" xlink:href="#DejaVuSans-49"/>
       <use x="370.068359" xlink:href="#DejaVuSans-53"/>
      </g>
     </g>
    </g>
    <g id="ytick_3">
     <g id="line2d_9">
      <g>
       <use style="stroke:#000000;stroke-width:0.8;" x="57.6" xlink:href="#m23a5ef3323" y="233.175705"/>
      </g>
     </g>
     <g id="text_9">
      <!-- −0.0010 -->
      <g transform="translate(7.229687 236.974924)scale(0.1 -0.1)">
       <use xlink:href="#DejaVuSans-8722"/>
       <use x="83.789062" xlink:href="#DejaVuSans-48"/>
       <use x="147.412109" xlink:href="#DejaVuSans-46"/>
       <use x="179.199219" xlink:href="#DejaVuSans-48"/>
       <use x="242.822266" xlink:href="#DejaVuSans-48"/>
       <use x="306.445312" xlink:href="#DejaVuSans-49"/>
       <use x="370.068359" xlink:href="#DejaVuSans-48"/>
      </g>
     </g>
    </g>
    <g id="ytick_4">
     <g id="line2d_10">
      <g>
       <use style="stroke:#000000;stroke-width:0.8;" x="57.6" xlink:href="#m23a5ef3323" y="203.537402"/>
      </g>
     </g>
     <g id="text_10">
      <!-- −0.0005 -->
      <g transform="translate(7.229687 207.336621)scale(0.1 -0.1)">
       <use xlink:href="#DejaVuSans-8722"/>
       <use x="83.789062" xlink:href="#DejaVuSans-48"/>
       <use x="147.412109" xlink:href="#DejaVuSans-46"/>
       <use x="179.199219" xlink:href="#DejaVuSans-48"/>
       <use x="242.822266" xlink:href="#DejaVuSans-48"/>
       <use x="306.445312" xlink:href="#DejaVuSans-48"/>
       <use x="370.068359" xlink:href="#DejaVuSans-53"/>
      </g>
     </g>
    </g>
    <g id="ytick_5">
     <g id="line2d_11">
      <g>
       <use style="stroke:#000000;stroke-width:0.8;" x="57.6" xlink:href="#m23a5ef3323" y="173.8991"/>
      </g>
     </g>
     <g id="text_11">
      <!-- 0.0000 -->
      <g transform="translate(15.609375 177.698318)scale(0.1 -0.1)">
       <use xlink:href="#DejaVuSans-48"/>
       <use x="63.623047" xlink:href="#DejaVuSans-46"/>
       <use x="95.410156" xlink:href="#DejaVuSans-48"/>
       <use x="159.033203" xlink:href="#DejaVuSans-48"/>
       <use x="222.65625" xlink:href="#DejaVuSans-48"/>
       <use x="286.279297" xlink:href="#DejaVuSans-48"/>
      </g>
     </g>
    </g>
    <g id="ytick_6">
     <g id="line2d_12">
      <g>
       <use style="stroke:#000000;stroke-width:0.8;" x="57.6" xlink:href="#m23a5ef3323" y="144.260797"/>
      </g>
     </g>
     <g id="text_12">
      <!-- 0.0005 -->
      <g transform="translate(15.609375 148.060016)scale(0.1 -0.1)">
       <use xlink:href="#DejaVuSans-48"/>
       <use x="63.623047" xlink:href="#DejaVuSans-46"/>
       <use x="95.410156" xlink:href="#DejaVuSans-48"/>
       <use x="159.033203" xlink:href="#DejaVuSans-48"/>
       <use x="222.65625" xlink:href="#DejaVuSans-48"/>
       <use x="286.279297" xlink:href="#DejaVuSans-53"/>
      </g>
     </g>
    </g>
    <g id="ytick_7">
     <g id="line2d_13">
      <g>
       <use style="stroke:#000000;stroke-width:0.8;" x="57.6" xlink:href="#m23a5ef3323" y="114.622494"/>
      </g>
     </g>
     <g id="text_13">
      <!-- 0.0010 -->
      <g transform="translate(15.609375 118.421713)scale(0.1 -0.1)">
       <use xlink:href="#DejaVuSans-48"/>
       <use x="63.623047" xlink:href="#DejaVuSans-46"/>
       <use x="95.410156" xlink:href="#DejaVuSans-48"/>
       <use x="159.033203" xlink:href="#DejaVuSans-48"/>
       <use x="222.65625" xlink:href="#DejaVuSans-49"/>
       <use x="286.279297" xlink:href="#DejaVuSans-48"/>
      </g>
     </g>
    </g>
    <g id="ytick_8">
     <g id="line2d_14">
      <g>
       <use style="stroke:#000000;stroke-width:0.8;" x="57.6" xlink:href="#m23a5ef3323" y="84.984192"/>
      </g>
     </g>
     <g id="text_14">
      <!-- 0.0015 -->
      <g transform="translate(15.609375 88.783411)scale(0.1 -0.1)">
       <use xlink:href="#DejaVuSans-48"/>
       <use x="63.623047" xlink:href="#DejaVuSans-46"/>
       <use x="95.410156" xlink:href="#DejaVuSans-48"/>
       <use x="159.033203" xlink:href="#DejaVuSans-48"/>
       <use x="222.65625" xlink:href="#DejaVuSans-49"/>
       <use x="286.279297" xlink:href="#DejaVuSans-53"/>
      </g>
     </g>
    </g>
    <g id="ytick_9">
     <g id="line2d_15">
      <g>
       <use style="stroke:#000000;stroke-width:0.8;" x="57.6" xlink:href="#m23a5ef3323" y="55.345889"/>
      </g>
     </g>
     <g id="text_15">
      <!-- 0.0020 -->
      <g transform="translate(15.609375 59.145108)scale(0.1 -0.1)">
       <use xlink:href="#DejaVuSans-48"/>
       <use x="63.623047" xlink:href="#DejaVuSans-46"/>
       <use x="95.410156" xlink:href="#DejaVuSans-48"/>
       <use x="159.033203" xlink:href="#DejaVuSans-48"/>
       <use x="222.65625" xlink:href="#DejaVuSans-50"/>
       <use x="286.279297" xlink:href="#DejaVuSans-48"/>
      </g>
     </g>
    </g>
   </g>
   <g id="line2d_16">
    <path clip-path="url(#p6c2ff30e05)" d="M 73.832727 173.8991 
L 83.119705 173.97435 
L 83.639256 174.659265 
L 83.899031 174.989241 
L 83.963975 175.019142 
L 84.093863 175.367518 
L 84.158807 175.303661 
L 84.288695 174.879382 
L 84.418583 175.216543 
L 84.808246 173.659361 
L 84.938134 172.024211 
L 85.003078 172.265011 
L 85.068022 172.527219 
L 85.262853 169.993115 
L 85.327797 170.477698 
L 85.392741 171.012779 
L 85.587573 168.919695 
L 85.717461 170.778609 
L 85.782404 170.61311 
L 85.847348 169.830257 
L 85.912292 169.920656 
L 86.107124 172.966926 
L 86.172068 172.784293 
L 86.301956 174.925007 
L 86.561731 178.363693 
L 86.886451 182.761145 
L 86.951395 182.929065 
L 87.016339 182.737066 
L 87.081282 183.017559 
L 87.21117 183.95662 
L 87.406002 179.957803 
L 87.470946 180.828856 
L 87.53589 180.202332 
L 87.730721 171.633651 
L 87.795665 172.927721 
L 87.860609 171.933157 
L 88.055441 160.266752 
L 88.120385 162.881243 
L 88.185329 162.429486 
L 88.315216 150.259999 
L 88.38016 150.813912 
L 88.510048 157.337319 
L 88.639936 146.530923 
L 88.70488 149.744783 
L 88.834768 163.027674 
L 88.964655 156.08946 
L 89.679038 239.49674 
L 89.87387 276.871995 
L 89.938814 280.389825 
L 90.003758 295.488 
L 90.068702 53.568 
L 90.133646 68.474172 
L 90.263533 73.942108 
L 90.783085 165.791341 
L 90.912972 162.634368 
L 91.107804 191.228739 
L 91.172748 187.580281 
L 91.237692 183.525759 
L 91.432524 200.900008 
L 91.497467 195.773406 
L 91.562411 189.783997 
L 91.627355 190.603605 
L 91.757243 196.493297 
L 91.952075 184.000888 
L 92.017019 186.883303 
L 92.081963 186.412415 
L 92.276794 174.639284 
L 92.341738 176.871673 
L 92.406682 176.453243 
L 92.601514 168.762864 
L 92.666458 169.389803 
L 92.731402 169.277982 
L 92.926233 165.815098 
L 93.056121 167.428701 
L 93.121065 167.338476 
L 93.315897 168.569388 
L 93.510728 171.337443 
L 93.575672 170.84913 
L 93.70556 168.379998 
L 93.770504 169.133051 
L 93.835448 170.796698 
L 93.900392 170.400742 
L 93.965336 169.588065 
L 94.03028 169.853383 
L 94.290055 176.227951 
L 94.354999 174.637454 
L 94.419943 174.816138 
L 94.549831 176.402936 
L 94.679718 173.144893 
L 94.809606 176.628159 
L 94.87455 176.188879 
L 95.004438 175.13833 
L 95.134326 177.578719 
L 95.19927 178.887084 
L 95.329157 177.065315 
L 95.588933 182.205914 
L 95.653877 181.251204 
L 95.718821 181.199507 
L 96.04354 192.708075 
L 96.173428 184.196877 
L 96.36826 136.76234 
L 96.498148 103.63245 
L 96.822867 191.71679 
L 96.887811 188.298991 
L 97.017699 183.646681 
L 97.147587 185.313778 
L 97.212531 184.901814 
L 97.342418 182.462652 
L 97.407362 183.171437 
L 97.472306 182.564121 
L 97.667138 177.136216 
L 97.732082 177.567362 
L 97.797026 177.828676 
L 98.381521 170.590426 
L 98.446465 170.889722 
L 98.511408 170.679456 
L 98.641296 169.273767 
L 98.70624 169.731659 
L 98.901072 170.964781 
L 99.160847 172.626197 
L 99.225791 172.655508 
L 99.420623 173.189962 
L 99.485567 174.446879 
L 99.550511 174.184448 
L 99.615455 174.0017 
L 99.745343 174.720474 
L 99.940174 176.040483 
L 100.005118 175.786001 
L 100.070062 176.221073 
L 100.19995 175.7062 
L 100.264894 175.966314 
L 100.329838 175.803739 
L 100.394782 175.732722 
L 100.459725 175.807717 
L 100.524669 175.16364 
L 100.589613 175.415106 
L 100.849389 174.258642 
L 100.914333 174.793038 
L 101.04422 172.844247 
L 101.109164 173.212177 
L 101.433884 171.156834 
L 101.498828 170.834828 
L 101.628716 171.838174 
L 101.693659 171.593819 
L 101.758603 171.584279 
L 101.888491 172.88818 
L 102.083323 175.017779 
L 102.343098 175.840395 
L 102.472986 174.868494 
L 102.53793 175.448924 
L 102.602874 175.169856 
L 102.732762 175.992814 
L 102.797706 175.878101 
L 102.992537 173.617041 
L 103.122425 174.307568 
L 103.317257 172.492845 
L 103.447145 172.601849 
L 103.577032 173.619423 
L 103.70692 172.503693 
L 103.771864 172.838021 
L 103.836808 172.762868 
L 103.966696 174.005947 
L 104.096584 172.572532 
L 104.356359 174.64266 
L 104.421303 174.61316 
L 104.486247 174.270259 
L 104.616135 173.197048 
L 104.810967 175.309647 
L 104.87591 175.006846 
L 105.005798 173.398417 
L 105.070742 174.185522 
L 105.135686 173.387672 
L 105.20063 173.616976 
L 105.330518 175.226673 
L 105.460406 173.854428 
L 105.525349 174.154327 
L 105.590293 174.430954 
L 105.720181 174.026117 
L 105.785125 174.680765 
L 105.850069 174.400267 
L 105.915013 173.32427 
L 105.979957 174.242676 
L 106.044901 173.717778 
L 106.109845 173.115564 
L 106.239732 175.035924 
L 106.564452 173.357714 
L 106.629396 173.502595 
L 106.69434 172.798653 
L 106.759283 173.191723 
L 106.824227 173.347486 
L 106.889171 173.016402 
L 106.954115 173.126849 
L 107.019059 173.029444 
L 107.084003 172.645368 
L 107.213891 173.177193 
L 107.343779 173.250654 
L 107.408722 173.564494 
L 107.473666 173.322862 
L 107.53861 174.203975 
L 107.603554 173.888616 
L 107.733442 172.799031 
L 107.798386 172.729444 
L 107.86333 172.836151 
L 107.993218 174.406792 
L 108.058161 173.852091 
L 108.123105 173.181034 
L 108.382881 176.102569 
L 108.577713 175.341015 
L 108.772544 176.967272 
L 108.837488 176.300509 
L 108.902432 176.074196 
L 109.097264 176.910776 
L 109.162208 175.866455 
L 109.227152 176.083584 
L 109.292096 176.061213 
L 109.486927 172.958957 
L 109.746703 168.439031 
L 109.811647 168.307526 
L 109.941534 170.086905 
L 110.006478 171.29719 
L 110.071422 170.755622 
L 110.136366 169.967204 
L 110.20131 170.607801 
L 110.266254 169.9147 
L 110.461086 171.931942 
L 110.52603 170.633626 
L 110.590973 171.282175 
L 110.785805 174.756737 
L 110.850749 174.570652 
L 110.980637 176.604623 
L 111.110525 179.019765 
L 111.175469 177.464558 
L 111.240412 178.311351 
L 111.435244 183.334983 
L 111.500188 183.368823 
L 111.824908 194.126024 
L 111.889851 192.559312 
L 112.084683 164.418322 
L 112.344459 107.354624 
L 112.669178 193.744453 
L 112.86401 184.622588 
L 112.993898 186.51286 
L 113.253673 181.87911 
L 113.318617 183.449441 
L 113.643337 176.669006 
L 113.708281 177.182189 
L 113.838168 171.9823 
L 113.903112 172.86111 
L 113.968056 173.22073 
L 114.227832 170.235153 
L 114.292776 170.817535 
L 114.422663 169.57164 
L 114.552551 171.362067 
L 114.682439 169.937509 
L 114.747383 170.108957 
L 114.812327 169.574061 
L 114.942215 171.205481 
L 115.072102 173.524278 
L 115.137046 172.67786 
L 115.20199 173.619938 
L 115.266934 173.440444 
L 115.331878 172.719908 
L 115.396822 173.352185 
L 115.461766 175.304721 
L 115.52671 174.960706 
L 115.591654 175.274027 
L 115.656598 176.865113 
L 115.721541 176.616565 
L 115.851429 176.017143 
L 115.916373 176.167344 
L 116.046261 177.656736 
L 116.176149 174.908314 
L 116.306036 176.314428 
L 116.435924 175.141623 
L 116.500868 176.896165 
L 116.565812 175.988422 
L 116.6957 172.278556 
L 116.825588 175.204377 
L 116.955475 172.304069 
L 117.020419 172.344605 
L 117.280195 170.494306 
L 117.345139 171.121865 
L 117.410083 170.165951 
L 117.539971 172.359017 
L 117.604914 171.756765 
L 117.734802 174.924007 
L 117.86469 173.229317 
L 117.994578 175.440304 
L 118.124466 173.834248 
L 118.254353 177.241933 
L 118.319297 177.142575 
L 118.384241 177.257477 
L 118.514129 174.918727 
L 118.579073 175.380074 
L 118.644017 175.630357 
L 118.838848 173.482785 
L 118.903792 171.679933 
L 118.968736 171.695814 
L 119.228512 174.925605 
L 119.3584 172.309347 
L 119.423344 172.715979 
L 119.488287 173.074167 
L 119.553231 171.758497 
L 119.618175 171.81607 
L 119.683119 173.133985 
L 119.748063 172.726753 
L 119.877951 172.657829 
L 120.007839 173.887179 
L 120.072783 172.714994 
L 120.20267 175.621506 
L 120.397502 173.505072 
L 120.462446 173.631074 
L 120.52739 174.255206 
L 120.592334 176.60672 
L 120.657278 175.13091 
L 120.722222 172.645941 
L 120.787165 172.662608 
L 120.917053 173.486897 
L 121.046941 177.617377 
L 121.111885 176.97564 
L 121.371661 173.029874 
L 121.436604 172.932282 
L 121.566492 174.174269 
L 121.69638 173.18306 
L 121.891212 171.807434 
L 122.150987 173.533486 
L 122.280875 171.713946 
L 122.410763 174.675932 
L 122.475707 174.244229 
L 122.605595 172.825662 
L 122.670538 174.46783 
L 122.735482 174.25305 
L 122.86537 171.154085 
L 122.930314 171.637622 
L 122.995258 171.707375 
L 123.255034 176.408743 
L 123.449865 175.497184 
L 123.579753 178.738991 
L 123.709641 174.811719 
L 123.774585 175.324467 
L 123.904473 177.76423 
L 123.969416 177.599198 
L 124.424024 171.603763 
L 124.683799 169.993674 
L 124.878631 167.652768 
L 125.008519 170.90795 
L 125.073463 169.838859 
L 125.20335 170.598331 
L 125.268294 170.226605 
L 125.463126 172.262729 
L 125.52807 171.938771 
L 125.722902 175.474295 
L 125.787846 174.484204 
L 125.852789 174.501017 
L 125.917733 175.403188 
L 126.047621 178.799761 
L 126.177509 178.330007 
L 126.307397 185.197045 
L 126.372341 184.412921 
L 126.437285 183.45028 
L 126.567172 186.728439 
L 126.69706 191.909257 
L 126.762004 196.480918 
L 126.826948 194.067991 
L 127.02178 166.559168 
L 127.281555 104.790793 
L 127.411443 145.280415 
L 127.606275 194.79513 
L 127.801106 184.658493 
L 127.930994 186.403462 
L 127.995938 186.936213 
L 128.19077 182.512045 
L 128.255714 183.112607 
L 128.515489 178.014468 
L 128.710321 175.788415 
L 128.840209 172.533717 
L 128.905153 172.647104 
L 128.970097 172.332155 
L 129.099984 170.636043 
L 129.164928 170.910086 
L 129.229872 170.840971 
L 129.294816 170.979678 
L 129.35976 170.637923 
L 129.489648 168.715876 
L 129.619536 171.191306 
L 129.749423 169.961379 
L 129.879311 172.459342 
L 129.944255 171.814498 
L 130.009199 171.882375 
L 130.139087 173.290425 
L 130.204031 172.769083 
L 130.268975 172.966141 
L 130.463806 175.118279 
L 130.52875 174.769602 
L 130.788526 176.48408 
L 130.918414 175.77975 
L 130.983357 176.007317 
L 131.048301 176.656588 
L 131.113245 176.320138 
L 131.178189 176.125402 
L 131.308077 176.842939 
L 131.567852 175.07063 
L 131.632796 175.069864 
L 131.762684 172.464699 
L 131.827628 172.557243 
L 131.892572 173.11781 
L 132.087404 171.24879 
L 132.152348 171.290209 
L 132.217291 171.057482 
L 132.347179 169.587388 
L 132.736843 175.041036 
L 132.801787 174.805291 
L 132.86673 175.074576 
L 132.996618 176.363723 
L 133.126506 175.309091 
L 133.19145 175.5917 
L 133.256394 176.040095 
L 133.321338 175.53034 
L 133.386282 176.399345 
L 133.516169 173.423837 
L 133.646057 175.165484 
L 133.840889 173.401412 
L 133.905833 173.975353 
L 133.970777 173.59725 
L 134.165608 172.753 
L 134.230552 172.386837 
L 134.295496 172.601972 
L 134.36044 172.560235 
L 134.490328 173.85226 
L 134.555272 174.64884 
L 134.750103 173.23444 
L 134.815047 173.457527 
L 134.879991 173.108281 
L 134.944935 173.14826 
L 135.009879 174.378094 
L 135.074823 174.049747 
L 135.269655 173.562912 
L 135.399542 174.573488 
L 135.594374 173.83991 
L 135.724262 174.76944 
L 135.789206 174.264618 
L 135.919094 173.575743 
L 136.113925 174.385446 
L 136.178869 174.344501 
L 136.243813 173.94099 
L 136.438645 174.83816 
L 136.69842 172.723535 
L 136.893252 175.352757 
L 136.958196 174.923714 
L 137.088084 173.400502 
L 137.153028 173.739685 
L 137.217972 173.828235 
L 137.282915 173.5355 
L 137.412803 173.792941 
L 137.477747 173.531503 
L 137.607635 175.050719 
L 137.932354 172.219979 
L 138.062242 173.28354 
L 138.322018 172.720954 
L 138.51685 173.244449 
L 138.646737 172.886191 
L 138.841569 174.449823 
L 138.906513 174.390545 
L 139.036401 173.68695 
L 139.231232 175.524856 
L 139.296176 175.273805 
L 139.426064 174.032434 
L 139.555952 175.940502 
L 139.620896 175.857472 
L 139.815728 174.839749 
L 140.010559 176.312142 
L 140.140447 175.153962 
L 140.270335 176.77108 
L 140.335279 176.424864 
L 140.789886 168.821551 
L 140.85483 168.371643 
L 140.919774 168.552361 
L 141.114605 171.597193 
L 141.179549 171.847533 
L 141.374381 170.427587 
L 141.439325 170.613887 
L 141.569213 171.729491 
L 141.699101 175.070131 
L 141.828988 173.294476 
L 141.893932 173.635739 
L 142.088764 177.650615 
L 142.153708 177.603292 
L 142.218652 178.212144 
L 142.34854 183.529982 
L 142.413483 183.376291 
L 142.478427 183.511898 
L 142.543371 184.141522 
L 142.803147 194.30673 
L 142.997979 177.044597 
L 143.257754 111.885012 
L 143.322698 112.989278 
L 143.582474 191.652513 
L 143.777305 183.663175 
L 143.842249 184.388801 
L 143.907193 185.08694 
L 143.972137 184.814702 
L 144.491688 176.944926 
L 144.556632 176.99367 
L 144.621576 177.306759 
L 145.076183 170.954278 
L 145.141127 170.805314 
L 145.271015 171.779487 
L 145.400903 169.698263 
L 145.595734 171.320167 
L 145.660678 170.983894 
L 145.790566 170.107613 
L 146.050342 172.725074 
L 146.894612 176.635203 
L 146.959556 176.246947 
L 147.089444 176.857806 
L 147.284276 175.973112 
L 147.34922 175.876816 
L 147.544051 174.143279 
L 147.673939 174.282331 
L 147.868771 171.814422 
L 147.933715 172.027624 
L 147.998659 172.231677 
L 148.19349 171.151273 
L 148.323378 171.009766 
L 148.388322 170.78675 
L 148.713042 173.825734 
L 148.842929 175.884563 
L 148.907873 175.577993 
L 148.972817 174.999262 
L 149.037761 175.025602 
L 149.102705 175.541082 
L 149.167649 175.066815 
L 149.36248 176.47808 
L 149.427424 176.085838 
L 149.557312 175.197191 
L 149.622256 175.485583 
L 150.011919 173.077067 
L 150.076863 173.526424 
L 150.206751 172.492119 
L 150.336639 173.160069 
L 150.466527 172.181012 
L 150.596415 173.389187 
L 150.661358 172.763493 
L 150.791246 174.059122 
L 150.85619 173.762037 
L 150.921134 173.152831 
L 150.986078 173.547396 
L 151.051022 173.428427 
L 151.115966 173.94951 
L 151.18091 173.921993 
L 151.245854 173.530088 
L 151.310797 173.824049 
L 151.440685 175.257771 
L 151.635517 173.957323 
L 151.700461 174.097011 
L 151.765405 173.744197 
L 151.895293 174.723175 
L 152.090124 173.92299 
L 152.155068 174.106166 
L 152.284956 174.736778 
L 152.414844 173.228698 
L 152.479788 173.361416 
L 152.674619 173.964096 
L 152.739563 173.61068 
L 152.804507 173.958921 
L 152.934395 173.05196 
L 153.129227 174.160539 
L 153.19417 174.155791 
L 153.324058 174.655373 
L 153.389002 174.381566 
L 153.583834 173.223656 
L 153.648778 173.432477 
L 153.713722 173.376369 
L 153.778666 173.987271 
L 153.843609 173.937805 
L 153.973497 174.058743 
L 154.103385 173.172085 
L 154.233273 173.401369 
L 154.298217 174.318785 
L 154.363161 174.050646 
L 154.493048 173.207993 
L 154.622936 174.71863 
L 154.68788 174.555644 
L 154.817768 174.462959 
L 154.947656 173.992631 
L 155.077544 174.654054 
L 155.337319 172.924308 
L 155.597095 173.805586 
L 155.662039 173.900269 
L 155.85687 173.137043 
L 155.921814 173.113124 
L 155.986758 172.665222 
L 156.116646 174.059841 
L 156.311478 172.6977 
L 156.441365 174.020178 
L 156.506309 173.470228 
L 156.636197 174.189794 
L 156.701141 175.129325 
L 156.766085 174.92745 
L 156.895973 174.345797 
L 157.090804 175.638097 
L 157.155748 176.412321 
L 157.285636 175.403576 
L 157.35058 175.758455 
L 157.415524 175.704301 
L 157.480468 175.317535 
L 157.675299 175.986097 
L 157.740243 175.899672 
L 157.870131 175.23285 
L 158.064963 170.187806 
L 158.129907 170.277783 
L 158.194851 171.078355 
L 158.324738 168.787355 
L 158.389682 169.027841 
L 158.649458 171.973232 
L 158.714402 171.918893 
L 158.779346 171.992594 
L 158.974177 170.397313 
L 159.169009 174.068241 
L 159.233953 173.451771 
L 159.298897 173.310149 
L 160.143168 187.335497 
L 160.273055 193.87093 
L 160.337999 191.995074 
L 160.467887 181.433217 
L 160.792607 111.040605 
L 161.052382 190.874604 
L 161.117326 190.126744 
L 161.312158 182.047819 
L 161.442046 184.777558 
L 161.636877 182.197694 
L 161.701821 182.119028 
L 161.831709 180.706867 
L 161.961597 177.068407 
L 162.026541 177.286703 
L 162.091484 177.427599 
L 162.35126 173.339625 
L 162.416204 173.713155 
L 162.481148 173.290243 
L 162.611036 170.53615 
L 162.67598 170.818181 
L 162.740923 171.085278 
L 162.870811 169.682431 
L 162.935755 169.729393 
L 163.065643 171.153933 
L 163.130587 170.86901 
L 163.195531 170.848957 
L 163.260475 170.667521 
L 163.455306 172.04353 
L 163.585194 171.961088 
L 163.84497 175.078555 
L 163.909914 175.010358 
L 163.974858 174.810901 
L 164.364521 177.739901 
L 164.624296 175.358826 
L 164.68924 174.994098 
L 164.754184 175.075339 
L 164.819128 175.5943 
L 164.884072 175.546866 
L 164.949016 175.318382 
L 165.01396 174.581835 
L 165.078904 174.673577 
L 165.143848 174.737679 
L 165.468567 172.216321 
L 165.728343 170.734441 
L 165.793287 170.516148 
L 165.988118 171.770233 
L 166.247894 173.904056 
L 166.377782 174.706943 
L 166.572613 176.164442 
L 166.637557 176.115837 
L 166.702501 175.549225 
L 166.767445 175.704662 
L 166.897333 175.957983 
L 167.157109 174.829461 
L 167.222052 174.89775 
L 167.611716 172.512149 
L 167.67666 172.550637 
L 167.741604 173.268873 
L 167.806547 173.249235 
L 167.871491 172.685323 
L 167.936435 172.798591 
L 168.066323 172.95157 
L 168.131267 173.456785 
L 168.196211 173.307695 
L 168.391043 172.913814 
L 168.455986 172.987741 
L 168.780706 173.891091 
L 168.84565 173.799505 
L 169.040482 174.535949 
L 169.105425 174.319348 
L 169.170369 174.279448 
L 169.300257 174.778148 
L 169.365201 174.214794 
L 169.430145 174.377154 
L 169.560033 174.493042 
L 169.754864 174.10992 
L 169.884752 174.173177 
L 169.949696 174.449443 
L 170.079584 173.971646 
L 170.144528 174.574066 
L 170.209472 174.284519 
L 170.33936 174.026423 
L 170.534191 173.106448 
L 170.599135 173.258355 
L 170.664079 173.696999 
L 170.858911 172.762714 
L 171.118686 174.103491 
L 171.18363 173.858305 
L 171.248574 173.629125 
L 171.313518 174.092461 
L 171.378462 173.966554 
L 171.443406 173.967985 
L 171.50835 173.638631 
L 171.573294 173.802445 
L 171.703181 174.637296 
L 171.768125 174.408943 
L 171.833069 174.635791 
L 171.898013 175.292086 
L 171.962957 175.054789 
L 172.157789 173.534091 
L 172.222733 173.533539 
L 172.35262 173.8716 
L 172.547452 174.346018 
L 172.67734 173.527944 
L 172.807228 174.295124 
L 173.002059 173.531067 
L 173.067003 173.748325 
L 173.196891 172.584519 
L 173.326779 172.715751 
L 173.456667 173.446894 
L 173.521611 172.950873 
L 173.586554 173.19393 
L 173.651498 173.967283 
L 173.716442 173.628795 
L 173.781386 172.934292 
L 173.84633 173.66348 
L 173.911274 173.529172 
L 173.976218 173.025982 
L 174.171049 174.692532 
L 174.300937 172.999282 
L 174.495769 174.548499 
L 174.885432 176.040852 
L 175.01532 175.490319 
L 175.080264 175.818957 
L 175.210152 175.377974 
L 175.275096 174.907839 
L 175.34004 175.200479 
L 175.534871 176.163515 
L 175.664759 174.006898 
L 175.859591 169.939663 
L 175.924535 170.211443 
L 176.054423 168.797439 
L 176.119366 169.14931 
L 176.314198 172.029568 
L 176.379142 171.647237 
L 176.444086 171.681588 
L 176.573974 172.238876 
L 176.703861 170.080838 
L 176.768805 170.586453 
L 176.963637 174.265444 
L 177.028581 173.97888 
L 177.093525 174.346531 
L 177.288357 177.157085 
L 177.3533 177.176432 
L 177.418244 177.494915 
L 177.613076 182.035368 
L 177.67802 181.967049 
L 177.807908 185.286894 
L 177.937796 189.454076 
L 178.002739 193.054415 
L 178.067683 192.247694 
L 178.197571 184.519675 
L 178.392403 136.325403 
L 178.522291 107.323878 
L 178.84701 190.268819 
L 179.041842 182.167061 
L 179.17173 185.353291 
L 179.756225 177.558004 
L 179.821169 177.595669 
L 180.016 173.63054 
L 180.080944 173.805646 
L 180.210832 172.959063 
L 180.34072 170.860479 
L 180.535551 171.536827 
L 180.665439 169.633161 
L 180.730383 169.802979 
L 180.925215 171.493724 
L 180.990159 171.282532 
L 181.055103 171.413506 
L 181.18499 173.088373 
L 181.249934 172.989087 
L 181.314878 172.951901 
L 181.444766 174.069404 
L 181.50971 173.538789 
L 181.574654 172.727605 
L 181.769486 174.563986 
L 181.899373 174.550584 
L 181.964317 175.640971 
L 182.029261 175.33036 
L 182.159149 175.979134 
L 182.289037 177.162622 
L 182.353981 177.03697 
L 182.418925 176.012883 
L 182.483868 176.556757 
L 182.548812 176.778766 
L 182.6787 175.874114 
L 183.00342 173.262038 
L 183.198251 171.822144 
L 183.393083 170.874658 
L 183.522971 171.451519 
L 183.587915 170.740623 
L 183.652859 171.002674 
L 184.302298 176.155838 
L 184.367241 175.555328 
L 184.497129 176.988579 
L 184.562073 176.226004 
L 184.821849 173.516068 
L 184.951737 173.846525 
L 185.081624 173.496585 
L 185.146568 173.791861 
L 185.211512 173.691586 
L 185.276456 173.701632 
L 185.601176 172.567474 
L 185.925895 173.707595 
L 185.990839 174.210133 
L 186.120727 172.839421 
L 186.185671 173.279251 
L 186.315558 174.555398 
L 186.445446 173.730935 
L 186.51039 174.134834 
L 186.575334 173.925776 
L 186.705222 174.007957 
L 186.770166 173.793397 
L 186.83511 174.497638 
L 186.900053 174.065433 
L 186.964997 173.761106 
L 187.029941 173.847384 
L 187.094885 173.862351 
L 187.289717 174.658583 
L 187.354661 174.629227 
L 187.419605 174.540335 
L 187.549492 173.414127 
L 187.809268 174.384696 
L 187.939156 173.707977 
L 188.069044 174.275143 
L 188.328819 172.750366 
L 188.458707 173.268207 
L 188.718483 174.365845 
L 188.84837 173.994316 
L 189.043202 175.070749 
L 189.302978 173.458037 
L 189.367922 173.546329 
L 189.432865 173.403372 
L 189.562753 174.282064 
L 189.692641 173.757779 
L 189.757585 173.899103 
L 189.822529 174.812943 
L 189.887473 174.420801 
L 190.212192 172.521881 
L 190.277136 172.80877 
L 190.471968 173.910801 
L 190.601856 173.7844 
L 190.6668 173.410429 
L 190.731743 173.679814 
L 190.991519 172.677153 
L 191.251295 173.82628 
L 191.381182 174.106704 
L 191.446126 174.037422 
L 191.51107 173.582047 
L 191.576014 174.042904 
L 191.640958 173.976376 
L 191.705902 174.069828 
L 192.030621 175.876537 
L 192.225453 176.722385 
L 192.290397 176.56774 
L 192.485229 175.127151 
L 192.550173 175.829531 
L 192.615116 175.354088 
L 192.809948 176.101801 
L 193.199612 168.611122 
L 193.264555 167.954307 
L 193.329499 168.228366 
L 193.524331 171.203711 
L 193.589275 171.1772 
L 193.654219 171.553345 
L 193.719163 171.470786 
L 193.784107 170.868071 
L 193.849051 171.262597 
L 193.978938 171.311142 
L 194.043882 171.646353 
L 194.17377 174.598153 
L 194.238714 174.582562 
L 194.368602 173.771105 
L 194.563433 178.357429 
L 194.628377 178.154451 
L 194.693321 178.369134 
L 194.888153 183.834915 
L 195.018041 183.354686 
L 195.277816 194.902319 
L 195.34276 193.856537 
L 195.472648 183.043783 
L 195.66748 134.165962 
L 195.797367 101.910945 
L 196.122087 194.063114 
L 196.187031 190.660177 
L 196.316919 184.252833 
L 196.446806 186.516822 
L 196.706582 182.431791 
L 196.771526 182.788931 
L 196.83647 182.341353 
L 197.031302 177.341492 
L 197.096245 177.527855 
L 197.615797 170.159341 
L 197.680741 170.305671 
L 197.745684 170.799802 
L 197.940516 169.701601 
L 198.070404 170.396455 
L 198.200292 171.627535 
L 198.265236 170.888613 
L 198.525011 172.038323 
L 198.589955 171.810288 
L 198.914675 174.493762 
L 198.979618 174.696852 
L 199.044562 174.303369 
L 199.239394 176.105157 
L 199.304338 175.913092 
L 199.369282 175.624269 
L 199.694001 177.008812 
L 199.823889 175.283525 
L 199.888833 175.467159 
L 200.018721 175.76486 
L 200.278496 173.954537 
L 200.408384 172.574745 
L 200.603216 170.450243 
L 200.66816 170.597877 
L 200.862992 172.198566 
L 200.927935 171.392839 
L 200.992879 171.696578 
L 201.187711 172.928568 
L 201.252655 173.020257 
L 201.317599 172.501413 
L 201.577374 176.411604 
L 201.642318 175.531829 
L 201.707262 175.710073 
L 201.772206 176.084956 
L 201.83715 175.343924 
L 201.902094 175.52039 
L 202.096926 175.054501 
L 202.161869 175.15402 
L 202.421645 173.036798 
L 202.486589 172.126545 
L 202.616477 174.511476 
L 202.681421 174.345338 
L 202.811308 173.661771 
L 202.876252 173.664716 
L 202.941196 173.050119 
L 203.00614 173.250739 
L 203.200972 172.722985 
L 203.265916 173.169377 
L 203.33086 172.800065 
L 203.395804 172.995515 
L 203.655579 174.311364 
L 203.720523 174.123099 
L 203.785467 174.45444 
L 203.915355 172.704783 
L 204.045243 174.00888 
L 204.17513 174.103137 
L 204.240074 173.678771 
L 204.369962 175.670507 
L 204.434906 175.266812 
L 204.629738 172.978892 
L 204.694681 173.415937 
L 204.759625 174.625213 
L 204.824569 174.602845 
L 204.889513 174.760003 
L 204.954457 174.559834 
L 205.019401 173.7892 
L 205.084345 174.122571 
L 205.214233 174.923015 
L 205.409064 173.276535 
L 205.474008 173.439325 
L 205.603896 174.203916 
L 205.733784 173.439369 
L 205.798728 173.567834 
L 205.863672 173.804454 
L 205.928616 174.746374 
L 206.058503 172.421135 
L 206.123447 172.979393 
L 206.188391 173.38625 
L 206.253335 173.174288 
L 206.513111 171.95587 
L 206.83783 173.909598 
L 206.902774 173.841181 
L 206.967718 173.194689 
L 207.032662 173.43508 
L 207.357381 175.636774 
L 207.552213 175.545548 
L 207.617157 175.8996 
L 207.682101 176.879774 
L 207.747045 176.467475 
L 207.941876 175.679855 
L 208.00682 175.786462 
L 208.266596 176.140425 
L 208.396484 174.022653 
L 208.526371 170.315147 
L 208.591315 170.858212 
L 208.656259 171.0585 
L 208.786147 167.927002 
L 208.980979 170.325957 
L 209.045923 170.188046 
L 209.110867 170.010708 
L 209.17581 171.042822 
L 209.240754 171.014942 
L 209.305698 170.304113 
L 209.370642 170.374032 
L 209.435586 170.462843 
L 209.565474 171.766879 
L 209.760306 175.275727 
L 209.825249 174.44118 
L 210.085025 179.036985 
L 210.149969 178.083906 
L 210.214913 178.680535 
L 210.344801 184.15164 
L 210.409744 183.651084 
L 210.474688 183.783181 
L 210.799408 195.851525 
L 210.929296 185.293233 
L 211.124127 138.18346 
L 211.254015 103.454756 
L 211.318959 109.68235 
L 211.578735 194.230439 
L 211.643679 193.766241 
L 211.83851 185.023537 
L 211.968398 186.672644 
L 212.16323 182.349395 
L 212.228174 182.587097 
L 212.358061 180.427857 
L 212.552893 176.489905 
L 212.682781 175.712152 
L 213.0075 171.201551 
L 213.072444 170.301458 
L 213.202332 171.730338 
L 213.267276 171.598151 
L 213.397164 169.811567 
L 213.527052 171.696573 
L 213.591995 171.387736 
L 213.721883 170.962166 
L 213.916715 172.19861 
L 213.981659 172.153779 
L 214.046603 172.169503 
L 214.111547 171.895421 
L 214.371322 174.072142 
L 214.436266 174.105351 
L 214.50121 173.924082 
L 214.696042 175.924846 
L 214.760986 175.995925 
L 214.890873 174.934062 
L 214.955817 175.368402 
L 215.085705 176.966493 
L 215.150649 176.949901 
L 215.410425 175.049566 
L 215.475369 175.308277 
L 215.540312 175.408939 
L 215.6702 174.856205 
L 216.059864 171.752959 
L 216.124808 171.232636 
L 216.189751 171.258727 
L 216.319639 170.807561 
L 216.384583 170.402357 
L 216.449527 170.586657 
L 216.644359 173.038467 
L 216.83919 174.735483 
L 217.034022 175.767394 
L 217.098966 175.159461 
L 217.16391 175.373392 
L 217.228854 175.56817 
L 217.293798 175.421455 
L 217.488629 175.305577 
L 217.813349 173.791739 
L 217.943237 173.917415 
L 218.203012 172.833486 
L 218.3329 173.24274 
L 218.397844 172.942471 
L 218.527732 173.539553 
L 218.592676 173.475663 
L 218.65762 173.519904 
L 218.722563 174.331453 
L 218.787507 173.979723 
L 218.852451 173.806318 
L 218.917395 173.976278 
L 219.047283 172.93693 
L 219.112227 173.174139 
L 219.177171 172.962723 
L 219.372002 174.160086 
L 219.436946 174.176661 
L 219.50189 174.316865 
L 219.566834 174.269314 
L 219.631778 174.151147 
L 219.696722 174.349974 
L 219.891554 173.769898 
L 220.021441 174.717816 
L 220.086385 174.405956 
L 220.151329 174.19913 
L 220.216273 174.550064 
L 220.281217 174.341825 
L 220.346161 173.664548 
L 220.411105 173.736561 
L 220.540993 174.403622 
L 220.800768 173.691226 
L 220.930656 174.271954 
L 221.125488 173.940862 
L 221.190432 173.751218 
L 221.255375 173.777174 
L 221.320319 174.32182 
L 221.385263 174.257489 
L 221.515151 173.25184 
L 221.709983 173.756422 
L 221.774927 173.688453 
L 221.969758 171.931914 
L 222.034702 172.458624 
L 222.16459 173.528097 
L 222.229534 173.594208 
L 222.294478 173.500654 
L 222.359422 173.939837 
L 222.489309 173.252145 
L 222.619197 173.639473 
L 222.684141 173.581811 
L 222.749085 173.754925 
L 222.814029 173.573538 
L 222.878973 172.859865 
L 223.138748 174.913504 
L 223.203692 174.978975 
L 223.463468 175.873438 
L 223.593356 175.164508 
L 223.788187 176.529864 
L 223.853131 176.261034 
L 223.918075 176.808381 
L 224.047963 175.885928 
L 224.112907 176.425864 
L 224.177851 175.905255 
L 224.372683 170.501896 
L 224.437626 170.580216 
L 224.697402 168.02272 
L 224.892234 171.586795 
L 224.957178 171.513964 
L 225.022122 170.307323 
L 225.087065 170.828246 
L 225.152009 171.762959 
L 225.216953 171.457307 
L 225.281897 170.932224 
L 225.346841 171.021099 
L 225.801448 178.026317 
L 225.931336 177.272945 
L 225.99628 177.83617 
L 226.126168 182.475874 
L 226.191112 181.574943 
L 226.256056 181.729707 
L 226.385943 185.183812 
L 226.580775 194.47282 
L 226.645719 193.919598 
L 226.840551 172.675836 
L 227.100326 105.575221 
L 227.425046 190.920006 
L 227.48999 186.168465 
L 227.619877 182.580537 
L 227.749765 185.734913 
L 227.814709 184.796542 
L 227.944597 181.826561 
L 228.009541 182.269176 
L 228.074485 182.042403 
L 228.204373 179.75465 
L 228.33426 177.617026 
L 228.399204 177.667619 
L 228.464148 177.050763 
L 228.65898 173.422548 
L 228.723924 173.58864 
L 228.983699 170.147063 
L 229.048643 170.942674 
L 229.113587 170.563325 
L 229.178531 170.031609 
L 229.243475 170.320575 
L 229.438307 171.159989 
L 229.50325 171.137994 
L 229.568194 170.86763 
L 229.633138 171.16494 
L 229.763026 173.02832 
L 229.892914 172.732891 
L 230.217633 173.87203 
L 230.282577 173.81498 
L 230.412465 175.505226 
L 230.477409 175.476396 
L 230.607297 175.732107 
L 230.802128 176.701484 
L 230.932016 175.787857 
L 230.99696 176.041941 
L 231.061904 175.387378 
L 231.191792 176.292915 
L 231.386624 174.659892 
L 231.451567 174.603154 
L 231.776287 171.716619 
L 231.906175 171.713846 
L 232.036062 170.354739 
L 232.16595 171.219039 
L 232.230894 171.067909 
L 232.295838 171.149783 
L 232.49067 173.784053 
L 232.555614 174.786152 
L 232.620558 174.761779 
L 233.075165 176.199922 
L 233.205053 174.941334 
L 233.269997 175.386411 
L 233.399884 175.12346 
L 233.529772 173.353643 
L 233.724604 174.595354 
L 233.984379 172.689817 
L 234.114267 172.913993 
L 234.179211 173.152737 
L 234.309099 172.167895 
L 234.374043 172.877566 
L 234.438987 172.255656 
L 234.503931 172.556413 
L 234.633818 173.875068 
L 234.698762 173.757692 
L 234.763706 173.81725 
L 234.958538 173.991087 
L 235.023482 173.758066 
L 235.15337 174.666956 
L 235.348201 173.839562 
L 235.543033 174.699012 
L 235.607977 174.358263 
L 235.672921 174.416763 
L 235.737865 174.558136 
L 235.867752 173.849273 
L 235.932696 173.970618 
L 235.99764 173.657938 
L 236.062584 173.816405 
L 236.127528 173.78498 
L 236.32236 174.682258 
L 236.582135 173.341731 
L 236.712023 174.250766 
L 236.841911 173.693137 
L 236.906855 173.710985 
L 237.036743 173.374182 
L 237.231574 174.222933 
L 237.426406 173.674978 
L 237.49135 173.94304 
L 237.556294 173.454096 
L 237.621238 173.656337 
L 237.686182 173.714609 
L 237.881013 174.837493 
L 238.075845 174.038243 
L 238.140789 172.822577 
L 238.205733 172.832631 
L 238.270677 173.5127 
L 238.335621 173.052502 
L 238.465508 173.560925 
L 238.530452 173.065124 
L 238.595396 173.159133 
L 238.66034 173.360023 
L 238.725284 172.980567 
L 238.855172 173.730089 
L 238.920116 173.688591 
L 238.98506 173.582927 
L 239.050003 174.037766 
L 239.244835 172.711092 
L 239.439667 173.98102 
L 239.504611 173.841255 
L 239.569555 173.81212 
L 239.699442 175.361974 
L 239.764386 174.961882 
L 239.82933 174.740454 
L 239.959218 176.142039 
L 240.15405 174.753943 
L 240.348881 175.880007 
L 240.413825 175.979368 
L 240.478769 175.667172 
L 240.543713 175.899799 
L 240.608657 175.77826 
L 240.738545 176.051498 
L 240.803489 175.644569 
L 240.99832 169.973197 
L 241.063264 170.971182 
L 241.128208 171.060273 
L 241.32304 168.90068 
L 241.387984 169.010891 
L 241.517872 172.149644 
L 241.582815 172.069108 
L 241.647759 171.483053 
L 241.777647 172.240237 
L 241.907535 170.710583 
L 241.972479 170.97 
L 242.167311 173.786806 
L 242.232254 173.644636 
L 242.297198 173.843559 
L 242.49203 177.497288 
L 242.556974 177.4457 
L 242.686862 179.533915 
L 242.81675 181.744927 
L 242.881693 181.397137 
L 242.946637 182.111815 
L 243.206413 192.642039 
L 243.271357 192.524031 
L 243.466189 175.364008 
L 243.725964 106.841068 
L 244.050684 191.378655 
L 244.115627 186.4187 
L 244.245515 182.23332 
L 244.375403 184.534464 
L 244.440347 183.905098 
L 244.570235 181.325577 
L 244.700123 182.143962 
L 244.83001 179.319557 
L 244.959898 177.131783 
L 245.024842 177.963083 
L 245.15473 174.836206 
L 245.284618 172.499409 
L 245.349562 173.255942 
L 245.414505 173.038202 
L 245.609337 171.470904 
L 245.674281 171.764783 
L 245.739225 171.663413 
L 245.869113 170.059423 
L 246.063944 171.098721 
L 246.193832 170.359082 
L 246.388664 172.202701 
L 246.453608 172.629232 
L 246.518552 172.450081 
L 246.583496 172.362264 
L 246.713383 173.118563 
L 246.973159 175.281241 
L 247.038103 175.159726 
L 247.232935 175.921877 
L 247.362822 176.394638 
L 247.427766 176.061007 
L 247.49271 176.229905 
L 247.557654 176.076536 
L 247.622598 175.219431 
L 247.687542 175.712939 
L 247.752486 175.763173 
L 247.81743 176.468142 
L 247.882374 176.433403 
L 248.272037 172.359887 
L 248.466869 172.038603 
L 248.531813 171.051593 
L 248.596756 171.234954 
L 248.6617 171.977491 
L 248.726644 171.020595 
L 248.791588 171.224472 
L 248.98642 172.255494 
L 249.246195 174.011109 
L 249.441027 176.041049 
L 249.570915 174.364431 
L 249.700803 176.13185 
L 249.765747 175.81466 
L 249.895634 175.434904 
L 249.960578 175.470938 
L 250.090466 175.20776 
L 250.350242 173.25148 
L 250.415186 173.218979 
L 250.480129 173.792036 
L 250.545073 173.579405 
L 250.674961 172.760325 
L 250.739905 172.779366 
L 250.804849 173.456542 
L 250.869793 173.28935 
L 250.999681 172.9747 
L 251.064625 172.719769 
L 251.194512 173.52314 
L 251.259456 173.306935 
L 251.3244 173.437982 
L 251.519232 173.900358 
L 251.714064 173.46533 
L 251.843951 174.239744 
L 251.908895 173.928424 
L 251.973839 174.157237 
L 252.038783 174.598211 
L 252.103727 174.29766 
L 252.168671 173.591957 
L 252.298559 174.983459 
L 252.363503 174.744588 
L 252.49339 173.807267 
L 252.558334 174.249882 
L 252.623278 174.217143 
L 252.688222 173.738365 
L 252.753166 173.891182 
L 252.81811 174.335319 
L 253.012941 173.554241 
L 253.142829 174.026156 
L 253.207773 174.066013 
L 253.272717 174.242469 
L 253.337661 174.154975 
L 253.467549 173.295772 
L 253.532493 173.305771 
L 253.597437 172.954858 
L 253.727324 174.14661 
L 253.792268 173.815223 
L 253.922156 174.424023 
L 253.9871 174.319769 
L 254.052044 173.934839 
L 254.116988 173.9925 
L 254.246876 174.179211 
L 254.376763 173.832244 
L 254.636539 174.292745 
L 254.701483 173.99745 
L 254.766427 174.353445 
L 254.896315 173.210022 
L 254.961258 173.398422 
L 255.026202 173.713428 
L 255.091146 173.614523 
L 255.350922 172.964544 
L 255.415866 173.051485 
L 255.48081 173.280979 
L 255.545754 172.864313 
L 255.610697 173.063211 
L 255.740585 173.639115 
L 255.870473 173.331365 
L 256.000361 172.327124 
L 256.130249 173.452912 
L 256.32508 174.985242 
L 256.519912 174.531622 
L 256.584856 174.796301 
L 256.779688 176.238032 
L 256.909575 175.569239 
L 256.974519 175.802671 
L 257.104407 175.525278 
L 257.169351 176.259373 
L 257.364183 174.943981 
L 257.49407 176.618434 
L 257.559014 176.190047 
L 258.013622 168.669279 
L 258.078566 168.801202 
L 258.338341 171.274248 
L 258.403285 171.490932 
L 258.533173 170.945648 
L 258.598117 171.37978 
L 258.728005 170.548288 
L 259.3125 178.167429 
L 259.377443 178.457081 
L 259.572275 182.808092 
L 259.637219 182.173206 
L 259.702163 182.420322 
L 259.832051 186.28357 
L 260.026882 194.44815 
L 260.221714 181.086254 
L 260.546434 106.508585 
L 260.871153 193.637482 
L 261.065985 183.781815 
L 261.195873 185.67819 
L 261.455648 182.382676 
L 261.520592 182.192918 
L 261.715424 177.49136 
L 261.780368 177.838272 
L 261.975199 174.432632 
L 262.105087 172.280958 
L 262.234975 172.03806 
L 262.364863 171.105795 
L 262.429807 172.031226 
L 262.494751 171.705006 
L 262.624638 170.478817 
L 262.689582 170.643114 
L 262.754526 170.42578 
L 262.884414 171.051384 
L 263.014302 170.435038 
L 263.339021 173.094895 
L 263.403965 173.211686 
L 263.468909 172.713923 
L 263.858572 176.026227 
L 263.923516 176.29575 
L 264.053404 175.819738 
L 264.118348 176.021519 
L 264.378124 175.283406 
L 264.443068 176.018628 
L 264.508011 175.898091 
L 264.572955 175.74293 
L 264.637899 176.018607 
L 264.767787 175.434603 
L 265.092507 172.558856 
L 265.287338 172.183995 
L 265.547114 170.826895 
L 265.612058 171.049498 
L 265.677002 171.782602 
L 265.741945 171.47 
L 265.806889 171.439333 
L 266.131609 175.340246 
L 266.196553 175.498847 
L 266.326441 175.280184 
L 266.391384 176.059277 
L 266.456328 175.999029 
L 266.586216 174.762222 
L 266.781048 175.372494 
L 266.845992 175.686271 
L 267.105767 173.542647 
L 267.170711 173.087847 
L 267.235655 173.186414 
L 267.300599 173.296425 
L 267.365543 173.128566 
L 267.430487 173.543732 
L 267.560375 172.252551 
L 267.690262 173.12535 
L 267.755206 172.720557 
L 267.82015 172.984617 
L 267.950038 173.714157 
L 268.014982 172.976312 
L 268.14487 174.354371 
L 268.209814 174.337089 
L 268.339701 173.02551 
L 268.469589 174.77358 
L 268.534533 174.638294 
L 268.664421 173.849565 
L 268.729365 173.703614 
L 268.794309 174.337763 
L 268.859253 174.131862 
L 268.924196 173.65666 
L 268.98914 174.37069 
L 269.054084 173.595276 
L 269.183972 174.70338 
L 269.248916 174.681865 
L 269.31386 174.530402 
L 269.443748 173.56195 
L 269.703523 175.2829 
L 269.833411 173.879545 
L 269.898355 174.071977 
L 269.963299 173.696266 
L 270.028243 173.735409 
L 270.158131 174.818971 
L 270.417906 172.74825 
L 270.48285 172.858709 
L 270.612738 174.646537 
L 270.80757 173.038319 
L 270.937457 172.26174 
L 271.132289 172.726385 
L 271.197233 172.957125 
L 271.262177 172.874451 
L 271.327121 172.895137 
L 271.392065 173.881451 
L 271.457008 173.799291 
L 271.521952 173.287494 
L 271.586896 173.475874 
L 271.65184 173.906881 
L 271.716784 173.88352 
L 271.781728 173.548053 
L 271.846672 173.90145 
L 271.97656 175.218554 
L 272.041504 175.178338 
L 272.106447 175.05613 
L 272.171391 174.454125 
L 272.236335 174.776571 
L 272.366223 176.495467 
L 272.496111 174.901493 
L 272.561055 175.132552 
L 272.690943 175.716224 
L 272.755886 176.275791 
L 272.82083 175.802113 
L 272.885774 175.949996 
L 272.950718 176.785758 
L 273.015662 176.463339 
L 273.080606 176.773825 
L 273.14555 176.33368 
L 273.340382 170.283413 
L 273.405325 170.798254 
L 273.470269 171.200152 
L 273.665101 167.840234 
L 273.730045 168.283224 
L 273.924877 170.995759 
L 274.119708 169.860087 
L 274.249596 171.522648 
L 274.444428 172.956504 
L 274.574316 174.702017 
L 274.639259 173.90271 
L 274.769147 176.554919 
L 274.899035 178.983399 
L 274.963979 178.188894 
L 275.093867 180.663358 
L 275.223755 183.640157 
L 275.288698 182.852532 
L 275.418586 185.932982 
L 275.613418 195.370603 
L 275.678362 193.68151 
L 275.873194 167.458047 
L 276.132969 105.556841 
L 276.457689 194.019597 
L 276.522633 190.478752 
L 276.65252 184.800763 
L 276.782408 185.968513 
L 276.847352 185.440044 
L 276.97724 182.526137 
L 277.042184 182.698631 
L 277.107128 182.469969 
L 277.237015 179.229522 
L 277.301959 176.891669 
L 277.366903 177.350718 
L 277.431847 177.611806 
L 277.951398 169.959415 
L 278.081286 171.713584 
L 278.14623 171.399295 
L 278.276118 169.585246 
L 278.535893 171.581231 
L 278.600837 171.894801 
L 278.730725 170.835028 
L 278.795669 171.873907 
L 278.860613 171.743495 
L 278.925557 171.668642 
L 279.120388 174.531838 
L 279.185332 174.478545 
L 279.250276 173.791497 
L 279.574996 176.331031 
L 279.63994 175.952052 
L 279.704884 174.801249 
L 279.769827 175.383961 
L 279.834771 175.412898 
L 279.964659 176.758959 
L 280.224435 174.832558 
L 280.289379 175.008572 
L 280.354323 175.332152 
L 280.419266 175.028017 
L 280.48421 174.077615 
L 280.549154 174.405215 
L 280.614098 174.803665 
L 280.80893 173.20337 
L 280.938818 170.593888 
L 281.003761 170.970031 
L 281.133649 170.912397 
L 281.263537 171.56954 
L 281.328481 170.949416 
L 281.588257 173.487531 
L 281.6532 173.441489 
L 281.912976 176.388803 
L 281.97792 175.001334 
L 282.042864 175.337047 
L 282.107808 175.245792 
L 282.172752 175.324911 
L 282.237696 176.132547 
L 282.302639 175.703608 
L 282.497471 174.557771 
L 282.562415 174.77265 
L 282.627359 174.690109 
L 282.887135 172.105147 
L 282.952078 172.324671 
L 283.081966 173.236846 
L 283.14691 173.171572 
L 283.341742 174.734445 
L 283.406686 174.332692 
L 283.601517 172.391741 
L 283.796349 173.869746 
L 283.926237 172.669064 
L 284.250956 174.296446 
L 284.3159 174.184982 
L 284.380844 174.256235 
L 284.575676 174.801634 
L 284.64062 174.36829 
L 284.705564 174.771493 
L 284.770508 174.727869 
L 285.030283 173.352802 
L 285.225115 175.128849 
L 285.290059 174.940518 
L 285.355003 175.080142 
L 285.549834 172.532672 
L 285.874554 173.722655 
L 286.004442 172.343062 
L 286.134329 173.722338 
L 286.199273 173.538774 
L 286.264217 172.956576 
L 286.329161 173.040872 
L 286.459049 172.589611 
L 286.588937 173.622394 
L 286.653881 173.333603 
L 286.718824 173.344809 
L 286.783768 173.710847 
L 286.848712 173.377098 
L 286.913656 173.58703 
L 287.238376 175.753115 
L 287.30332 175.086537 
L 287.433207 176.533198 
L 287.498151 175.727923 
L 287.563095 176.206381 
L 287.628039 176.837225 
L 287.692983 176.392684 
L 287.822871 175.729297 
L 287.952759 176.834549 
L 288.017702 176.752772 
L 288.14759 175.613481 
L 288.407366 170.150392 
L 288.47231 170.217884 
L 288.667141 167.684054 
L 288.926917 170.551613 
L 288.991861 170.254979 
L 289.186693 171.467037 
L 289.251637 170.522602 
L 289.31658 170.582717 
L 289.576356 174.480646 
L 289.706244 175.489229 
L 289.901075 179.093564 
L 289.966019 178.822799 
L 290.420627 187.186418 
L 290.615458 196.300996 
L 290.81029 176.677182 
L 291.070066 105.907881 
L 291.13501 107.347825 
L 291.394785 193.146202 
L 291.459729 193.111468 
L 291.589617 184.920144 
L 291.654561 184.984434 
L 291.784449 186.564915 
L 292.044224 183.109395 
L 292.109168 183.070684 
L 292.304 177.826537 
L 292.368944 178.058122 
L 292.953439 170.957808 
L 293.018383 171.011298 
L 293.213214 169.735833 
L 293.278158 169.616782 
L 293.408046 170.756628 
L 293.47299 169.581585 
L 293.537934 169.626547 
L 293.732765 171.842935 
L 294.057485 174.178673 
L 294.122429 174.21054 
L 294.252317 175.100151 
L 294.317261 174.754993 
L 294.382204 174.802318 
L 294.512092 176.380017 
L 294.64198 175.387882 
L 294.706924 176.407886 
L 294.771868 176.352472 
L 294.836812 175.875796 
L 294.901756 176.108742 
L 295.031643 176.321527 
L 295.226475 175.290433 
L 295.616139 173.332523 
L 295.746026 172.989247 
L 296.070746 170.966166 
L 296.200634 171.898989 
L 296.330521 170.991803 
L 296.850073 176.221093 
L 296.915016 176.168974 
L 297.109848 175.308759 
L 297.239736 176.008851 
L 297.889175 172.119697 
L 298.213894 173.908121 
L 298.343782 172.940886 
L 298.408726 173.041327 
L 298.47367 173.752785 
L 298.538614 173.71853 
L 298.733446 173.078421 
L 298.928277 174.197236 
L 299.058165 173.925902 
L 299.123109 174.303314 
L 299.252997 173.889597 
L 299.317941 174.382387 
L 299.382885 174.303527 
L 299.447828 173.894618 
L 299.64266 174.384718 
L 299.707604 174.16368 
L 299.902436 174.649467 
L 299.96738 174.593873 
L 300.162211 173.110162 
L 300.421987 174.686867 
L 300.681763 173.484641 
L 300.746706 173.345575 
L 300.876594 174.302839 
L 301.006482 173.893159 
L 301.071426 174.333925 
L 301.13637 174.055594 
L 301.266258 173.494411 
L 301.396145 174.176868 
L 301.526033 173.409202 
L 301.590977 173.741342 
L 301.655921 174.405192 
L 301.850753 171.877283 
L 302.045584 173.262561 
L 302.110528 172.703092 
L 302.175472 172.94331 
L 302.30536 173.620242 
L 302.370304 173.457238 
L 302.435248 173.524128 
L 302.500192 174.059074 
L 302.565136 173.789121 
L 302.630079 173.796235 
L 302.759967 174.239566 
L 302.889855 173.44367 
L 303.149631 175.65781 
L 303.214575 175.682857 
L 303.344462 174.8543 
L 303.47435 176.256024 
L 303.539294 175.96983 
L 303.669182 176.66539 
L 303.79907 175.475972 
L 303.864014 175.502278 
L 303.993901 176.339009 
L 304.058845 175.990663 
L 304.578396 168.645749 
L 304.773228 170.627992 
L 305.033004 172.149038 
L 305.292779 171.15316 
L 305.487611 174.109962 
L 305.552555 174.022419 
L 305.682443 175.842483 
L 305.81233 178.244597 
L 305.877274 177.293556 
L 305.942218 178.031216 
L 306.13705 182.416101 
L 306.201994 181.804336 
L 306.266938 182.647112 
L 306.526713 194.282957 
L 306.591657 192.352966 
L 306.721545 181.818598 
L 307.046265 107.265026 
L 307.370984 190.913727 
L 307.565816 182.256112 
L 307.695704 185.000492 
L 307.890535 181.62367 
L 307.955479 182.382353 
L 308.020423 182.684112 
L 308.215255 177.360138 
L 308.280199 178.438842 
L 308.345142 178.149649 
L 308.604918 172.59861 
L 308.669862 172.980532 
L 308.734806 172.657079 
L 308.929638 170.728841 
L 309.059525 171.64437 
L 309.189413 169.344134 
L 309.254357 169.807702 
L 309.384245 170.988583 
L 309.514133 170.503257 
L 309.838852 172.800189 
L 310.228516 174.998596 
L 310.423347 176.12389 
L 310.488291 176.231736 
L 310.618179 175.336958 
L 310.813011 176.651419 
L 311.072786 175.538403 
L 311.13773 175.575988 
L 311.332562 174.290719 
L 311.397506 174.484577 
L 311.46245 174.304711 
L 311.852113 170.875599 
L 311.917057 170.313856 
L 311.982001 170.34244 
L 312.046945 170.361759 
L 312.371664 172.111791 
L 312.696384 176.260377 
L 312.891215 175.989089 
L 313.021103 176.625498 
L 313.930318 172.019247 
L 314.060205 172.794317 
L 314.125149 172.341303 
L 314.190093 172.223897 
L 314.449869 173.507304 
L 314.644701 174.437527 
L 314.774588 173.155065 
L 314.96942 174.554146 
L 315.034364 174.632233 
L 315.164252 175.180305 
L 315.29414 173.604107 
L 315.359083 173.749659 
L 315.424027 173.553527 
L 315.488971 173.814348 
L 315.618859 174.934427 
L 315.748747 173.894509 
L 315.813691 174.344962 
L 315.943579 173.648427 
L 316.008522 173.844683 
L 316.073466 173.501604 
L 316.203354 174.22993 
L 316.333242 173.813166 
L 316.46313 174.249968 
L 316.593018 174.179692 
L 316.657961 174.217807 
L 316.722905 174.459258 
L 316.852793 173.564477 
L 316.982681 174.048002 
L 317.047625 173.883844 
L 317.242456 172.927209 
L 317.567176 173.992885 
L 317.63212 173.72655 
L 317.697064 174.15656 
L 317.762008 173.883165 
L 317.826952 173.872825 
L 317.891895 174.300145 
L 317.956839 173.948563 
L 318.021783 173.997385 
L 318.216615 174.379395 
L 318.281559 173.734819 
L 318.346503 174.037309 
L 318.411447 174.564566 
L 318.476391 174.221611 
L 318.606278 173.897215 
L 318.671222 174.214337 
L 318.736166 174.196524 
L 318.930998 173.752398 
L 318.995942 174.105368 
L 319.12583 173.462112 
L 319.190773 173.485816 
L 319.255717 173.454245 
L 319.320661 172.994838 
L 319.385605 173.470339 
L 319.450549 173.420801 
L 319.645381 172.71825 
L 319.710325 172.577695 
L 319.840212 173.114352 
L 319.905156 173.001653 
L 319.9701 172.861638 
L 320.099988 174.442642 
L 320.164932 174.193401 
L 320.229876 173.566557 
L 320.359764 174.843267 
L 320.424707 174.619306 
L 320.554595 174.385985 
L 320.879315 176.263214 
L 320.944259 176.193261 
L 321.009203 175.886733 
L 321.074146 176.34529 
L 321.13909 176.035678 
L 321.398866 175.124721 
L 321.46381 175.332507 
L 321.528754 176.33478 
L 321.918417 169.924759 
L 322.048305 168.383157 
L 322.437968 172.130332 
L 322.6328 171.248956 
L 322.827632 173.563354 
L 322.95752 174.435967 
L 323.022463 174.329705 
L 323.087407 174.675058 
L 323.217295 176.859668 
L 323.282239 176.780407 
L 323.347183 176.609311 
L 323.542015 181.449587 
L 323.606958 180.832388 
L 323.736846 183.667318 
L 323.996622 193.941367 
L 324.191454 180.446616 
L 324.451229 110.73853 
L 324.516173 114.40055 
L 324.775949 191.726625 
L 324.97078 181.816812 
L 325.035724 183.174275 
L 325.165612 184.773113 
L 325.360444 181.422963 
L 325.490332 182.136193 
L 325.685163 176.838652 
L 325.750107 177.591853 
L 326.009883 173.291939 
L 326.074827 173.54008 
L 326.399546 171.265425 
L 326.529434 171.564173 
L 326.659322 170.14838 
L 326.789209 171.519134 
L 326.984041 170.497626 
L 327.503592 174.37551 
L 327.568536 174.409308 
L 327.63348 174.157519 
L 327.893256 175.267219 
L 328.023144 176.4318 
L 328.088087 176.133682 
L 328.153031 175.509692 
L 328.217975 175.585614 
L 328.282919 175.769417 
L 328.412807 176.566592 
L 328.80247 174.281917 
L 328.867414 174.752191 
L 328.932358 174.611083 
L 329.192134 171.652604 
L 329.322021 170.629386 
L 329.386965 170.839384 
L 329.516853 171.773175 
L 329.646741 171.480132 
L 330.231236 175.689547 
L 330.29618 175.316906 
L 330.361124 175.442018 
L 330.426068 176.074345 
L 330.491012 175.982521 
L 330.620899 175.258575 
L 330.685843 175.208635 
L 330.750787 175.603393 
L 330.945619 174.345198 
L 331.075507 173.488694 
L 331.205395 174.577377 
L 331.270338 174.235839 
L 331.400226 172.674509 
L 331.46517 172.770918 
L 331.530114 172.727849 
L 331.660002 172.976217 
L 331.724946 172.763391 
L 331.78989 172.136791 
L 331.854834 172.350585 
L 331.919777 172.439083 
L 332.114609 173.931144 
L 332.179553 173.689311 
L 332.309441 173.348659 
L 332.374385 173.402887 
L 332.439329 173.653492 
L 332.569216 175.040509 
L 332.63416 174.860494 
L 332.699104 174.92776 
L 332.893936 174.281295 
L 333.023824 174.995556 
L 333.283599 173.265733 
L 333.478431 174.322444 
L 333.543375 174.163228 
L 333.608319 174.305316 
L 333.738207 173.258657 
L 333.80315 173.858004 
L 333.868094 173.526134 
L 333.933038 173.555076 
L 333.997982 173.807508 
L 334.062926 173.69716 
L 334.12787 173.801087 
L 334.257758 174.553006 
L 334.387646 173.529381 
L 334.452589 173.736233 
L 334.517533 173.282613 
L 334.582477 173.416452 
L 334.777309 174.316243 
L 334.842253 174.366039 
L 335.037085 173.270472 
L 335.102028 173.311135 
L 335.361804 174.091546 
L 335.426748 174.018454 
L 335.491692 174.088056 
L 335.556636 174.071339 
L 335.686523 174.936133 
L 335.816411 173.57402 
L 335.881355 173.593759 
L 335.946299 174.430166 
L 336.011243 174.190617 
L 336.076187 174.085573 
L 336.206075 172.944508 
L 336.400906 174.070562 
L 336.530794 174.876225 
L 336.660682 173.425593 
L 336.725626 173.713019 
L 336.79057 173.582226 
L 336.855514 173.686324 
L 336.920458 173.391791 
L 336.985401 173.531339 
L 337.050345 173.386869 
L 337.115289 172.931524 
L 337.180233 173.108878 
L 337.245177 173.118944 
L 337.375065 172.900686 
L 337.440009 172.946195 
L 337.764728 173.715142 
L 337.95956 174.066031 
L 338.024504 173.732979 
L 338.154392 175.227368 
L 338.219336 174.428319 
L 338.284279 174.655561 
L 338.544055 175.832212 
L 338.673943 174.645282 
L 338.803831 176.338458 
L 338.868774 176.03679 
L 338.933718 175.636683 
L 338.998662 175.666127 
L 339.063606 175.536297 
L 339.258438 176.742441 
L 339.323382 176.239433 
L 339.777989 168.616996 
L 339.842933 168.839752 
L 340.037765 171.274959 
L 340.167652 171.138379 
L 340.232596 171.753732 
L 340.29754 171.481666 
L 340.427428 170.20962 
L 340.492372 170.402142 
L 340.687204 174.093511 
L 340.752148 174.147867 
L 340.817091 173.801449 
L 340.882035 174.505058 
L 341.011923 178.364661 
L 341.141811 177.748103 
L 341.661362 189.399121 
L 341.79125 195.022373 
L 341.986082 178.667289 
L 342.245857 105.750268 
L 342.310801 110.014989 
L 342.570577 192.806271 
L 342.635521 191.872779 
L 342.830352 184.296779 
L 342.895296 185.938007 
L 342.96024 185.741122 
L 343.155072 182.592554 
L 343.220016 182.788753 
L 343.349903 180.150994 
L 343.739567 173.675927 
L 343.804511 173.291344 
L 343.869455 173.758677 
L 343.934399 173.228662 
L 344.12923 169.916771 
L 344.259118 170.967146 
L 344.45395 170.188088 
L 344.583837 171.242641 
L 344.713725 170.90846 
L 344.843613 171.619267 
L 344.908557 171.497331 
L 344.973501 171.661324 
L 345.233276 173.154844 
L 345.428108 174.492934 
L 345.62294 176.152408 
L 345.687884 175.866862 
L 345.752828 175.033866 
L 345.817772 175.051461 
L 345.947659 176.874986 
L 346.012603 176.818524 
L 346.272379 175.104437 
L 346.402267 175.91734 
L 346.467211 175.837341 
L 346.856874 172.281599 
L 346.921818 172.137559 
L 346.986762 171.686318 
L 347.051706 172.085207 
L 347.181593 171.283688 
L 347.246537 171.727282 
L 347.311481 171.383836 
L 347.376425 170.177537 
L 347.441369 170.52453 
L 347.701145 174.002677 
L 348.025864 175.636807 
L 348.090808 175.908787 
L 348.220696 174.862181 
L 348.28564 175.14275 
L 348.350584 175.065877 
L 348.415527 175.468587 
L 348.545415 174.536989 
L 348.610359 175.066194 
L 348.675303 174.776864 
L 348.805191 174.272461 
L 348.870135 174.352818 
L 349.12991 173.614223 
L 349.194854 173.802655 
L 349.389686 172.410589 
L 349.45463 172.489584 
L 349.519574 173.116591 
L 349.584518 173.051398 
L 349.779349 173.058783 
L 349.974181 173.592241 
L 350.039125 173.769426 
L 350.104069 173.239088 
L 350.169013 173.555299 
L 350.298901 174.554125 
L 350.363844 174.662608 
L 350.428788 174.546544 
L 350.493732 173.832175 
L 350.558676 174.261167 
L 350.688564 173.256281 
L 350.818452 174.573097 
L 350.883396 174.153842 
L 350.948339 174.029457 
L 351.013283 175.059556 
L 351.078227 174.518998 
L 351.273059 173.718138 
L 351.338003 173.771191 
L 351.467891 174.325271 
L 351.532835 172.974177 
L 351.597778 173.456758 
L 351.727666 174.923521 
L 351.857554 174.212139 
L 351.922498 174.45439 
L 352.11733 172.638663 
L 352.182274 172.953358 
L 352.312161 174.208678 
L 352.377105 173.693255 
L 352.506993 174.589502 
L 352.571937 174.162214 
L 352.636881 174.276021 
L 352.766769 174.154461 
L 352.831713 174.167205 
L 352.9616 172.655842 
L 353.091488 174.409749 
L 353.221376 173.44173 
L 353.351264 174.283095 
L 353.481152 173.706664 
L 353.675983 172.672691 
L 353.805871 173.455679 
L 353.870815 174.190323 
L 353.935759 173.903142 
L 354.000703 173.837936 
L 354.195534 172.872206 
L 354.260478 173.271709 
L 354.325422 173.177562 
L 354.390366 172.647985 
L 354.45531 172.713278 
L 354.520254 172.589516 
L 354.715086 174.009285 
L 354.844973 175.698541 
L 354.909917 175.547027 
L 354.974861 175.367464 
L 355.104749 174.577857 
L 355.234637 175.87251 
L 355.299581 175.697529 
L 355.364525 175.349021 
L 355.429468 175.67024 
L 355.494412 175.027963 
L 355.559356 175.429564 
L 355.754188 176.768149 
L 355.819132 176.685302 
L 356.403627 170.624832 
L 356.533515 167.34162 
L 356.79329 170.752603 
L 356.858234 170.602658 
L 357.053066 171.363652 
L 357.11801 171.322877 
L 357.247898 170.17936 
L 357.442729 174.857806 
L 357.572617 174.361346 
L 357.637561 174.97131 
L 357.767449 179.383455 
L 357.832393 178.271595 
L 357.897337 178.055826 
L 358.546776 195.078795 
L 358.741607 174.407961 
L 359.001383 105.100549 
L 359.066327 111.390516 
L 359.326102 193.292555 
L 359.391046 192.776299 
L 359.520934 184.861897 
L 359.585878 185.762527 
L 359.650822 186.355423 
L 359.715766 185.866894 
L 359.910597 182.192917 
L 360.040485 182.684398 
L 360.300261 175.809941 
L 360.365205 176.584554 
L 360.495092 173.228081 
L 360.560036 173.962366 
L 360.62498 174.126903 
L 360.754868 171.222966 
L 360.819812 171.803296 
L 360.9497 170.512883 
L 361.014644 171.610057 
L 361.079588 171.446259 
L 361.144531 170.115215 
L 361.209475 170.468757 
L 361.339363 170.93271 
L 361.534195 169.525787 
L 361.664083 172.03069 
L 361.729027 171.8763 
L 361.858914 173.34552 
L 361.923858 173.228 
L 361.988802 173.203087 
L 362.313522 175.706451 
L 362.443409 175.354779 
L 362.508353 175.853341 
L 362.573297 175.472352 
L 362.703185 176.956266 
L 362.768129 176.152008 
L 362.898017 175.517205 
L 362.962961 176.204284 
L 363.027904 175.931607 
L 363.222736 174.707823 
L 363.28768 175.211405 
L 363.352624 174.18627 
L 363.417568 174.311727 
L 363.482512 174.904835 
L 364.002063 170.780068 
L 364.067007 171.064848 
L 364.131951 171.951396 
L 364.196895 171.395624 
L 364.391726 172.540179 
L 364.586558 174.723753 
L 364.651502 174.601229 
L 364.846334 176.050656 
L 364.911278 174.988287 
L 365.041165 175.946466 
L 365.106109 175.778451 
L 365.300941 174.833417 
L 365.430829 174.271573 
L 365.495773 173.413787 
L 365.560717 173.690232 
L 365.62566 173.774315 
L 365.690604 173.633988 
L 365.820492 173.054644 
L 365.885436 173.705314 
L 365.95038 172.903209 
L 366.015324 173.005308 
L 366.145212 173.73217 
L 366.275099 173.619801 
L 366.340043 173.837344 
L 366.469931 172.653359 
L 366.534875 172.994648 
L 366.664763 172.961404 
L 366.924538 174.991029 
L 366.989482 174.98616 
L 367.249258 173.477569 
L 367.314202 173.510593 
L 367.379146 173.17176 
L 367.44409 173.806174 
L 367.509033 173.77942 
L 367.638921 173.431176 
L 367.703865 174.880278 
L 367.768809 174.598021 
L 367.833753 174.039646 
L 367.963641 175.044866 
L 368.028585 175.030875 
L 368.158472 173.699832 
L 368.223416 174.061639 
L 368.353304 173.439699 
L 368.548136 174.289001 
L 368.678024 173.893398 
L 368.807911 174.608549 
L 368.937799 173.805841 
L 369.002743 174.330816 
L 369.067687 174.130879 
L 369.197575 173.591794 
L 369.327463 172.605407 
L 369.392406 172.854674 
L 369.522294 174.337118 
L 369.587238 173.749827 
L 369.652182 173.900696 
L 369.847014 172.759771 
L 369.911958 173.23205 
L 370.041845 172.654335 
L 370.171733 173.806646 
L 370.236677 173.644291 
L 370.431509 172.816759 
L 370.496453 172.742635 
L 370.691284 174.802463 
L 370.756228 174.221684 
L 370.821172 174.222945 
L 370.95106 175.31052 
L 371.080948 174.681628 
L 371.145892 174.944725 
L 371.27578 176.036564 
L 371.340723 175.334698 
L 371.470611 176.082217 
L 371.535555 175.656825 
L 371.600499 176.127942 
L 371.730387 175.674212 
L 371.860275 176.621533 
L 371.925218 175.711308 
L 371.990162 175.921563 
L 372.055106 175.458128 
L 372.509714 167.289354 
L 372.574657 167.905979 
L 372.704545 170.959825 
L 372.769489 169.923949 
L 372.834433 170.213892 
L 372.964321 171.523387 
L 373.159153 170.365427 
L 373.743648 178.275926 
L 373.808592 178.288708 
L 374.328143 189.650216 
L 374.458031 196.568292 
L 374.587918 186.658309 
L 374.717806 164.297397 
L 374.977582 105.021397 
L 375.302301 192.81786 
L 375.497133 185.571584 
L 375.627021 186.928779 
L 375.756908 183.809688 
L 375.886796 182.333497 
L 375.95174 182.549956 
L 376.211516 177.541736 
L 376.27646 177.54407 
L 376.666123 171.774672 
L 376.731067 171.021855 
L 376.796011 171.03917 
L 376.860955 170.865312 
L 376.925899 170.110941 
L 376.990843 170.406448 
L 377.12073 169.810706 
L 377.185674 170.095727 
L 377.250618 171.275858 
L 377.315562 170.942328 
L 377.380506 170.029523 
L 377.44545 170.59128 
L 377.575338 172.557252 
L 377.640282 172.19738 
L 377.705225 172.133238 
L 378.029945 174.051946 
L 378.094889 174.470667 
L 378.159833 174.364717 
L 378.224777 174.177436 
L 378.549496 176.598499 
L 378.61444 176.397834 
L 378.679384 176.493726 
L 378.874216 176.697158 
L 379.263879 174.670436 
L 379.328823 175.225573 
L 379.458711 172.812264 
L 379.523655 173.088765 
L 379.653542 171.831093 
L 379.848374 170.386394 
L 379.913318 170.472966 
L 379.978262 171.163083 
L 380.043206 170.992062 
L 380.10815 170.62338 
L 380.173094 170.728301 
L 380.432869 174.112871 
L 380.627701 175.964059 
L 380.757589 176.281206 
L 380.887476 174.756446 
L 380.95242 175.143847 
L 381.147252 175.880813 
L 381.796691 172.337649 
L 381.861635 172.358012 
L 382.12141 173.397746 
L 382.186354 172.751644 
L 382.251298 172.933059 
L 382.316242 172.991647 
L 382.576018 174.137216 
L 382.705906 173.746914 
L 382.770849 174.181628 
L 382.835793 174.04233 
L 382.900737 174.097673 
L 383.030625 173.290804 
L 383.095569 173.521019 
L 383.160513 173.451007 
L 383.485232 174.268574 
L 383.550176 173.883972 
L 383.809952 175.078142 
L 384.004784 173.917158 
L 384.134671 173.536921 
L 384.199615 174.263944 
L 384.264559 173.836638 
L 384.329503 173.501511 
L 384.524335 174.630107 
L 384.654222 173.370346 
L 384.78411 173.490988 
L 384.913998 173.750015 
L 384.978942 174.776085 
L 385.043886 174.242299 
L 385.10883 174.133233 
L 385.173774 174.376608 
L 385.368605 172.848214 
L 385.433549 173.052874 
L 385.498493 173.89589 
L 385.563437 173.875253 
L 385.693325 173.790887 
L 385.823213 172.739959 
L 385.888157 173.310429 
L 386.018044 174.546326 
L 386.147932 173.423285 
L 386.212876 173.746669 
L 386.472652 172.569913 
L 386.732427 173.397932 
L 386.797371 173.27836 
L 386.927259 173.949177 
L 386.992203 173.53596 
L 387.057147 173.829125 
L 387.187034 175.01835 
L 387.251978 174.982062 
L 387.316922 175.026655 
L 387.381866 174.736037 
L 387.511754 175.450839 
L 387.576698 175.262096 
L 387.706586 175.743988 
L 387.77153 175.651177 
L 387.901417 176.375885 
L 388.031305 175.505799 
L 388.226137 175.717942 
L 388.356025 176.405071 
L 388.6158 170.226622 
L 388.680744 170.466985 
L 388.810632 167.854037 
L 388.875576 168.50999 
L 388.94052 168.763834 
L 389.330183 172.340488 
L 389.460071 171.22465 
L 389.525015 171.304159 
L 389.719847 174.296878 
L 389.78479 173.293005 
L 390.044566 178.125372 
L 390.10951 177.963647 
L 390.174454 178.009105 
L 390.369285 182.568102 
L 390.434229 182.258132 
L 390.564117 185.194084 
L 390.758949 193.807018 
L 390.823893 193.434884 
L 391.018724 172.957515 
L 391.2785 106.247155 
L 391.60322 191.612 
L 391.668163 187.329444 
L 391.798051 182.675345 
L 391.927939 185.877577 
L 391.992883 185.742895 
L 392.122771 181.875964 
L 392.252659 182.832977 
L 392.382546 179.188634 
L 392.44749 177.52163 
L 392.512434 177.649913 
L 392.577378 177.306168 
L 392.837154 172.932349 
L 392.902098 173.194035 
L 392.967041 173.067902 
L 393.096929 170.930703 
L 393.226817 171.475374 
L 393.486593 169.845574 
L 393.551536 169.918471 
L 393.681424 171.235597 
L 393.746368 170.556991 
L 393.811312 170.869207 
L 393.9412 172.524778 
L 394.006144 172.044965 
L 394.071088 172.055598 
L 394.785471 176.9015 
L 394.915358 175.827566 
L 394.980302 175.836412 
L 395.11019 176.37093 
L 395.175134 176.13261 
L 395.240078 176.410689 
L 395.369966 175.303715 
L 395.43491 175.486501 
L 395.564797 174.075644 
L 395.629741 174.533795 
L 395.824573 172.706119 
L 395.889517 172.538481 
L 396.149292 171.046092 
L 396.27918 170.557345 
L 396.344124 170.699165 
L 396.798731 174.4214 
L 396.993563 176.124084 
L 397.123451 176.031808 
L 397.188395 176.327603 
L 397.253339 176.153103 
L 397.383226 175.684889 
L 397.44817 175.017379 
L 397.513114 175.277625 
L 397.837834 173.792023 
L 397.902778 173.603472 
L 397.967722 174.434137 
L 398.162553 172.966156 
L 398.292441 172.238016 
L 398.357385 172.860109 
L 398.422329 172.825749 
L 398.487273 172.717554 
L 398.487273 172.717554 
" style="fill:none;stroke:#1f77b4;stroke-linecap:square;stroke-width:1.5;"/>
   </g>
   <g id="patch_3">
    <path d="M 57.6 307.584 
L 57.6 41.472 
" style="fill:none;stroke:#000000;stroke-linecap:square;stroke-linejoin:miter;stroke-width:0.8;"/>
   </g>
   <g id="patch_4">
    <path d="M 414.72 307.584 
L 414.72 41.472 
" style="fill:none;stroke:#000000;stroke-linecap:square;stroke-linejoin:miter;stroke-width:0.8;"/>
   </g>
   <g id="patch_5">
    <path d="M 57.6 307.584 
L 414.72 307.584 
" style="fill:none;stroke:#000000;stroke-linecap:square;stroke-linejoin:miter;stroke-width:0.8;"/>
   </g>
   <g id="patch_6">
    <path d="M 57.6 41.472 
L 414.72 41.472 
" style="fill:none;stroke:#000000;stroke-linecap:square;stroke-linejoin:miter;stroke-width:0.8;"/>
   </g>
   <g id="text_16">
    <!-- output after eliminating 50Hz -->
    <g transform="translate(147.511875 35.472)scale(0.12 -0.12)">
     <defs>
      <path d="M 30.609375 48.390625 
Q 23.390625 48.390625 19.1875 42.75 
Q 14.984375 37.109375 14.984375 27.296875 
Q 14.984375 17.484375 19.15625 11.84375 
Q 23.34375 6.203125 30.609375 6.203125 
Q 37.796875 6.203125 41.984375 11.859375 
Q 46.1875 17.53125 46.1875 27.296875 
Q 46.1875 37.015625 41.984375 42.703125 
Q 37.796875 48.390625 30.609375 48.390625 
z
M 30.609375 56 
Q 42.328125 56 49.015625 48.375 
Q 55.71875 40.765625 55.71875 27.296875 
Q 55.71875 13.875 49.015625 6.21875 
Q 42.328125 -1.421875 30.609375 -1.421875 
Q 18.84375 -1.421875 12.171875 6.21875 
Q 5.515625 13.875 5.515625 27.296875 
Q 5.515625 40.765625 12.171875 48.375 
Q 18.84375 56 30.609375 56 
z
" id="DejaVuSans-111"/>
      <path d="M 8.5 21.578125 
L 8.5 54.6875 
L 17.484375 54.6875 
L 17.484375 21.921875 
Q 17.484375 14.15625 20.5 10.265625 
Q 23.53125 6.390625 29.59375 6.390625 
Q 36.859375 6.390625 41.078125 11.03125 
Q 45.3125 15.671875 45.3125 23.6875 
L 45.3125 54.6875 
L 54.296875 54.6875 
L 54.296875 0 
L 45.3125 0 
L 45.3125 8.40625 
Q 42.046875 3.421875 37.71875 1 
Q 33.40625 -1.421875 27.6875 -1.421875 
Q 18.265625 -1.421875 13.375 4.4375 
Q 8.5 10.296875 8.5 21.578125 
z
M 31.109375 56 
z
" id="DejaVuSans-117"/>
      <path d="M 18.3125 70.21875 
L 18.3125 54.6875 
L 36.8125 54.6875 
L 36.8125 47.703125 
L 18.3125 47.703125 
L 18.3125 18.015625 
Q 18.3125 11.328125 20.140625 9.421875 
Q 21.96875 7.515625 27.59375 7.515625 
L 36.8125 7.515625 
L 36.8125 0 
L 27.59375 0 
Q 17.1875 0 13.234375 3.875 
Q 9.28125 7.765625 9.28125 18.015625 
L 9.28125 47.703125 
L 2.6875 47.703125 
L 2.6875 54.6875 
L 9.28125 54.6875 
L 9.28125 70.21875 
z
" id="DejaVuSans-116"/>
      <path d="M 18.109375 8.203125 
L 18.109375 -20.796875 
L 9.078125 -20.796875 
L 9.078125 54.6875 
L 18.109375 54.6875 
L 18.109375 46.390625 
Q 20.953125 51.265625 25.265625 53.625 
Q 29.59375 56 35.59375 56 
Q 45.5625 56 51.78125 48.09375 
Q 58.015625 40.1875 58.015625 27.296875 
Q 58.015625 14.40625 51.78125 6.484375 
Q 45.5625 -1.421875 35.59375 -1.421875 
Q 29.59375 -1.421875 25.265625 0.953125 
Q 20.953125 3.328125 18.109375 8.203125 
z
M 48.6875 27.296875 
Q 48.6875 37.203125 44.609375 42.84375 
Q 40.53125 48.484375 33.40625 48.484375 
Q 26.265625 48.484375 22.1875 42.84375 
Q 18.109375 37.203125 18.109375 27.296875 
Q 18.109375 17.390625 22.1875 11.75 
Q 26.265625 6.109375 33.40625 6.109375 
Q 40.53125 6.109375 44.609375 11.75 
Q 48.6875 17.390625 48.6875 27.296875 
z
" id="DejaVuSans-112"/>
      <path id="DejaVuSans-32"/>
      <path d="M 34.28125 27.484375 
Q 23.390625 27.484375 19.1875 25 
Q 14.984375 22.515625 14.984375 16.5 
Q 14.984375 11.71875 18.140625 8.90625 
Q 21.296875 6.109375 26.703125 6.109375 
Q 34.1875 6.109375 38.703125 11.40625 
Q 43.21875 16.703125 43.21875 25.484375 
L 43.21875 27.484375 
z
M 52.203125 31.203125 
L 52.203125 0 
L 43.21875 0 
L 43.21875 8.296875 
Q 40.140625 3.328125 35.546875 0.953125 
Q 30.953125 -1.421875 24.3125 -1.421875 
Q 15.921875 -1.421875 10.953125 3.296875 
Q 6 8.015625 6 15.921875 
Q 6 25.140625 12.171875 29.828125 
Q 18.359375 34.515625 30.609375 34.515625 
L 43.21875 34.515625 
L 43.21875 35.40625 
Q 43.21875 41.609375 39.140625 45 
Q 35.0625 48.390625 27.6875 48.390625 
Q 23 48.390625 18.546875 47.265625 
Q 14.109375 46.140625 10.015625 43.890625 
L 10.015625 52.203125 
Q 14.9375 54.109375 19.578125 55.046875 
Q 24.21875 56 28.609375 56 
Q 40.484375 56 46.34375 49.84375 
Q 52.203125 43.703125 52.203125 31.203125 
z
" id="DejaVuSans-97"/>
      <path d="M 37.109375 75.984375 
L 37.109375 68.5 
L 28.515625 68.5 
Q 23.6875 68.5 21.796875 66.546875 
Q 19.921875 64.59375 19.921875 59.515625 
L 19.921875 54.6875 
L 34.71875 54.6875 
L 34.71875 47.703125 
L 19.921875 47.703125 
L 19.921875 0 
L 10.890625 0 
L 10.890625 47.703125 
L 2.296875 47.703125 
L 2.296875 54.6875 
L 10.890625 54.6875 
L 10.890625 58.5 
Q 10.890625 67.625 15.140625 71.796875 
Q 19.390625 75.984375 28.609375 75.984375 
z
" id="DejaVuSans-102"/>
      <path d="M 56.203125 29.59375 
L 56.203125 25.203125 
L 14.890625 25.203125 
Q 15.484375 15.921875 20.484375 11.0625 
Q 25.484375 6.203125 34.421875 6.203125 
Q 39.59375 6.203125 44.453125 7.46875 
Q 49.3125 8.734375 54.109375 11.28125 
L 54.109375 2.78125 
Q 49.265625 0.734375 44.1875 -0.34375 
Q 39.109375 -1.421875 33.890625 -1.421875 
Q 20.796875 -1.421875 13.15625 6.1875 
Q 5.515625 13.8125 5.515625 26.8125 
Q 5.515625 40.234375 12.765625 48.109375 
Q 20.015625 56 32.328125 56 
Q 43.359375 56 49.78125 48.890625 
Q 56.203125 41.796875 56.203125 29.59375 
z
M 47.21875 32.234375 
Q 47.125 39.59375 43.09375 43.984375 
Q 39.0625 48.390625 32.421875 48.390625 
Q 24.90625 48.390625 20.390625 44.140625 
Q 15.875 39.890625 15.1875 32.171875 
z
" id="DejaVuSans-101"/>
      <path d="M 41.109375 46.296875 
Q 39.59375 47.171875 37.8125 47.578125 
Q 36.03125 48 33.890625 48 
Q 26.265625 48 22.1875 43.046875 
Q 18.109375 38.09375 18.109375 28.8125 
L 18.109375 0 
L 9.078125 0 
L 9.078125 54.6875 
L 18.109375 54.6875 
L 18.109375 46.1875 
Q 20.953125 51.171875 25.484375 53.578125 
Q 30.03125 56 36.53125 56 
Q 37.453125 56 38.578125 55.875 
Q 39.703125 55.765625 41.0625 55.515625 
z
" id="DejaVuSans-114"/>
      <path d="M 9.421875 75.984375 
L 18.40625 75.984375 
L 18.40625 0 
L 9.421875 0 
z
" id="DejaVuSans-108"/>
      <path d="M 9.421875 54.6875 
L 18.40625 54.6875 
L 18.40625 0 
L 9.421875 0 
z
M 9.421875 75.984375 
L 18.40625 75.984375 
L 18.40625 64.59375 
L 9.421875 64.59375 
z
" id="DejaVuSans-105"/>
      <path d="M 52 44.1875 
Q 55.375 50.25 60.0625 53.125 
Q 64.75 56 71.09375 56 
Q 79.640625 56 84.28125 50.015625 
Q 88.921875 44.046875 88.921875 33.015625 
L 88.921875 0 
L 79.890625 0 
L 79.890625 32.71875 
Q 79.890625 40.578125 77.09375 44.375 
Q 74.3125 48.1875 68.609375 48.1875 
Q 61.625 48.1875 57.5625 43.546875 
Q 53.515625 38.921875 53.515625 30.90625 
L 53.515625 0 
L 44.484375 0 
L 44.484375 32.71875 
Q 44.484375 40.625 41.703125 44.40625 
Q 38.921875 48.1875 33.109375 48.1875 
Q 26.21875 48.1875 22.15625 43.53125 
Q 18.109375 38.875 18.109375 30.90625 
L 18.109375 0 
L 9.078125 0 
L 9.078125 54.6875 
L 18.109375 54.6875 
L 18.109375 46.1875 
Q 21.1875 51.21875 25.484375 53.609375 
Q 29.78125 56 35.6875 56 
Q 41.65625 56 45.828125 52.96875 
Q 50 49.953125 52 44.1875 
z
" id="DejaVuSans-109"/>
      <path d="M 54.890625 33.015625 
L 54.890625 0 
L 45.90625 0 
L 45.90625 32.71875 
Q 45.90625 40.484375 42.875 44.328125 
Q 39.84375 48.1875 33.796875 48.1875 
Q 26.515625 48.1875 22.3125 43.546875 
Q 18.109375 38.921875 18.109375 30.90625 
L 18.109375 0 
L 9.078125 0 
L 9.078125 54.6875 
L 18.109375 54.6875 
L 18.109375 46.1875 
Q 21.34375 51.125 25.703125 53.5625 
Q 30.078125 56 35.796875 56 
Q 45.21875 56 50.046875 50.171875 
Q 54.890625 44.34375 54.890625 33.015625 
z
" id="DejaVuSans-110"/>
      <path d="M 45.40625 27.984375 
Q 45.40625 37.75 41.375 43.109375 
Q 37.359375 48.484375 30.078125 48.484375 
Q 22.859375 48.484375 18.828125 43.109375 
Q 14.796875 37.75 14.796875 27.984375 
Q 14.796875 18.265625 18.828125 12.890625 
Q 22.859375 7.515625 30.078125 7.515625 
Q 37.359375 7.515625 41.375 12.890625 
Q 45.40625 18.265625 45.40625 27.984375 
z
M 54.390625 6.78125 
Q 54.390625 -7.171875 48.1875 -13.984375 
Q 42 -20.796875 29.203125 -20.796875 
Q 24.46875 -20.796875 20.265625 -20.09375 
Q 16.0625 -19.390625 12.109375 -17.921875 
L 12.109375 -9.1875 
Q 16.0625 -11.328125 19.921875 -12.34375 
Q 23.78125 -13.375 27.78125 -13.375 
Q 36.625 -13.375 41.015625 -8.765625 
Q 45.40625 -4.15625 45.40625 5.171875 
L 45.40625 9.625 
Q 42.625 4.78125 38.28125 2.390625 
Q 33.9375 0 27.875 0 
Q 17.828125 0 11.671875 7.65625 
Q 5.515625 15.328125 5.515625 27.984375 
Q 5.515625 40.671875 11.671875 48.328125 
Q 17.828125 56 27.875 56 
Q 33.9375 56 38.28125 53.609375 
Q 42.625 51.21875 45.40625 46.390625 
L 45.40625 54.6875 
L 54.390625 54.6875 
z
" id="DejaVuSans-103"/>
      <path d="M 9.8125 72.90625 
L 19.671875 72.90625 
L 19.671875 43.015625 
L 55.515625 43.015625 
L 55.515625 72.90625 
L 65.375 72.90625 
L 65.375 0 
L 55.515625 0 
L 55.515625 34.71875 
L 19.671875 34.71875 
L 19.671875 0 
L 9.8125 0 
z
" id="DejaVuSans-72"/>
      <path d="M 5.515625 54.6875 
L 48.1875 54.6875 
L 48.1875 46.484375 
L 14.40625 7.171875 
L 48.1875 7.171875 
L 48.1875 0 
L 4.296875 0 
L 4.296875 8.203125 
L 38.09375 47.515625 
L 5.515625 47.515625 
z
" id="DejaVuSans-122"/>
     </defs>
     <use xlink:href="#DejaVuSans-111"/>
     <use x="61.181641" xlink:href="#DejaVuSans-117"/>
     <use x="124.560547" xlink:href="#DejaVuSans-116"/>
     <use x="163.769531" xlink:href="#DejaVuSans-112"/>
     <use x="227.246094" xlink:href="#DejaVuSans-117"/>
     <use x="290.625" xlink:href="#DejaVuSans-116"/>
     <use x="329.833984" xlink:href="#DejaVuSans-32"/>
     <use x="361.621094" xlink:href="#DejaVuSans-97"/>
     <use x="422.900391" xlink:href="#DejaVuSans-102"/>
     <use x="456.355469" xlink:href="#DejaVuSans-116"/>
     <use x="495.564453" xlink:href="#DejaVuSans-101"/>
     <use x="557.087891" xlink:href="#DejaVuSans-114"/>
     <use x="598.201172" xlink:href="#DejaVuSans-32"/>
     <use x="629.988281" xlink:href="#DejaVuSans-101"/>
     <use x="691.511719" xlink:href="#DejaVuSans-108"/>
     <use x="719.294922" xlink:href="#DejaVuSans-105"/>
     <use x="747.078125" xlink:href="#DejaVuSans-109"/>
     <use x="844.490234" xlink:href="#DejaVuSans-105"/>
     <use x="872.273438" xlink:href="#DejaVuSans-110"/>
     <use x="935.652344" xlink:href="#DejaVuSans-97"/>
     <use x="996.931641" xlink:href="#DejaVuSans-116"/>
     <use x="1036.140625" xlink:href="#DejaVuSans-105"/>
     <use x="1063.923828" xlink:href="#DejaVuSans-110"/>
     <use x="1127.302734" xlink:href="#DejaVuSans-103"/>
     <use x="1190.779297" xlink:href="#DejaVuSans-32"/>
     <use x="1222.566406" xlink:href="#DejaVuSans-53"/>
     <use x="1286.189453" xlink:href="#DejaVuSans-48"/>
     <use x="1349.8125" xlink:href="#DejaVuSans-72"/>
     <use x="1425.007812" xlink:href="#DejaVuSans-122"/>
    </g>
   </g>
  </g>
 </g>
 <defs>
  <clipPath id="p6c2ff30e05">
   <rect height="266.112" width="357.12" x="57.6" y="41.472"/>
  </clipPath>
 </defs>
</svg>
