<?xml version="1.0" encoding="utf-8" standalone="no"?>
<!DOCTYPE svg PUBLIC "-//W3C//DTD SVG 1.1//EN"
  "http://www.w3.org/Graphics/SVG/1.1/DTD/svg11.dtd">
<!-- Created with matplotlib (https://matplotlib.org/) -->
<svg height="345.6pt" version="1.1" viewBox="0 0 460.8 345.6" width="460.8pt" xmlns="http://www.w3.org/2000/svg" xmlns:xlink="http://www.w3.org/1999/xlink">
 <metadata>
  <rdf:RDF xmlns:cc="http://creativecommons.org/ns#" xmlns:dc="http://purl.org/dc/elements/1.1/" xmlns:rdf="http://www.w3.org/1999/02/22-rdf-syntax-ns#">
   <cc:Work>
    <dc:type rdf:resource="http://purl.org/dc/dcmitype/StillImage"/>
    <dc:date>2021-11-15T03:31:13.750164</dc:date>
    <dc:format>image/svg+xml</dc:format>
    <dc:creator>
     <cc:Agent>
      <dc:title>Matplotlib v3.3.2, https://matplotlib.org/</dc:title>
     </cc:Agent>
    </dc:creator>
   </cc:Work>
  </rdf:RDF>
 </metadata>
 <defs>
  <style type="text/css">*{stroke-linecap:butt;stroke-linejoin:round;}</style>
 </defs>
 <g id="figure_1">
  <g id="patch_1">
   <path d="M 0 345.6 
L 460.8 345.6 
L 460.8 0 
L 0 0 
z
" style="fill:#ffffff;"/>
  </g>
  <g id="axes_1">
   <g id="patch_2">
    <path d="M 57.6 307.584 
L 414.72 307.584 
L 414.72 41.472 
L 57.6 41.472 
z
" style="fill:#ffffff;"/>
   </g>
   <g id="matplotlib.axis_1">
    <g id="xtick_1">
     <g id="line2d_1">
      <defs>
       <path d="M 0 0 
L 0 3.5 
" id="mb5b9a36f62" style="stroke:#000000;stroke-width:0.8;"/>
      </defs>
      <g>
       <use style="stroke:#000000;stroke-width:0.8;" x="73.832727" xlink:href="#mb5b9a36f62" y="307.584"/>
      </g>
     </g>
     <g id="text_1">
      <!-- 0.0 -->
      <g transform="translate(65.881165 322.182437)scale(0.1 -0.1)">
       <defs>
        <path d="M 31.78125 66.40625 
Q 24.171875 66.40625 20.328125 58.90625 
Q 16.5 51.421875 16.5 36.375 
Q 16.5 21.390625 20.328125 13.890625 
Q 24.171875 6.390625 31.78125 6.390625 
Q 39.453125 6.390625 43.28125 13.890625 
Q 47.125 21.390625 47.125 36.375 
Q 47.125 51.421875 43.28125 58.90625 
Q 39.453125 66.40625 31.78125 66.40625 
z
M 31.78125 74.21875 
Q 44.046875 74.21875 50.515625 64.515625 
Q 56.984375 54.828125 56.984375 36.375 
Q 56.984375 17.96875 50.515625 8.265625 
Q 44.046875 -1.421875 31.78125 -1.421875 
Q 19.53125 -1.421875 13.0625 8.265625 
Q 6.59375 17.96875 6.59375 36.375 
Q 6.59375 54.828125 13.0625 64.515625 
Q 19.53125 74.21875 31.78125 74.21875 
z
" id="DejaVuSans-48"/>
        <path d="M 10.6875 12.40625 
L 21 12.40625 
L 21 0 
L 10.6875 0 
z
" id="DejaVuSans-46"/>
       </defs>
       <use xlink:href="#DejaVuSans-48"/>
       <use x="63.623047" xlink:href="#DejaVuSans-46"/>
       <use x="95.410156" xlink:href="#DejaVuSans-48"/>
      </g>
     </g>
    </g>
    <g id="xtick_2">
     <g id="line2d_2">
      <g>
       <use style="stroke:#000000;stroke-width:0.8;" x="114.422663" xlink:href="#mb5b9a36f62" y="307.584"/>
      </g>
     </g>
     <g id="text_2">
      <!-- 2.5 -->
      <g transform="translate(106.471101 322.182437)scale(0.1 -0.1)">
       <defs>
        <path d="M 19.1875 8.296875 
L 53.609375 8.296875 
L 53.609375 0 
L 7.328125 0 
L 7.328125 8.296875 
Q 12.9375 14.109375 22.625 23.890625 
Q 32.328125 33.6875 34.8125 36.53125 
Q 39.546875 41.84375 41.421875 45.53125 
Q 43.3125 49.21875 43.3125 52.78125 
Q 43.3125 58.59375 39.234375 62.25 
Q 35.15625 65.921875 28.609375 65.921875 
Q 23.96875 65.921875 18.8125 64.3125 
Q 13.671875 62.703125 7.8125 59.421875 
L 7.8125 69.390625 
Q 13.765625 71.78125 18.9375 73 
Q 24.125 74.21875 28.421875 74.21875 
Q 39.75 74.21875 46.484375 68.546875 
Q 53.21875 62.890625 53.21875 53.421875 
Q 53.21875 48.921875 51.53125 44.890625 
Q 49.859375 40.875 45.40625 35.40625 
Q 44.1875 33.984375 37.640625 27.21875 
Q 31.109375 20.453125 19.1875 8.296875 
z
" id="DejaVuSans-50"/>
        <path d="M 10.796875 72.90625 
L 49.515625 72.90625 
L 49.515625 64.59375 
L 19.828125 64.59375 
L 19.828125 46.734375 
Q 21.96875 47.46875 24.109375 47.828125 
Q 26.265625 48.1875 28.421875 48.1875 
Q 40.625 48.1875 47.75 41.5 
Q 54.890625 34.8125 54.890625 23.390625 
Q 54.890625 11.625 47.5625 5.09375 
Q 40.234375 -1.421875 26.90625 -1.421875 
Q 22.3125 -1.421875 17.546875 -0.640625 
Q 12.796875 0.140625 7.71875 1.703125 
L 7.71875 11.625 
Q 12.109375 9.234375 16.796875 8.0625 
Q 21.484375 6.890625 26.703125 6.890625 
Q 35.15625 6.890625 40.078125 11.328125 
Q 45.015625 15.765625 45.015625 23.390625 
Q 45.015625 31 40.078125 35.4375 
Q 35.15625 39.890625 26.703125 39.890625 
Q 22.75 39.890625 18.8125 39.015625 
Q 14.890625 38.140625 10.796875 36.28125 
z
" id="DejaVuSans-53"/>
       </defs>
       <use xlink:href="#DejaVuSans-50"/>
       <use x="63.623047" xlink:href="#DejaVuSans-46"/>
       <use x="95.410156" xlink:href="#DejaVuSans-53"/>
      </g>
     </g>
    </g>
    <g id="xtick_3">
     <g id="line2d_3">
      <g>
       <use style="stroke:#000000;stroke-width:0.8;" x="155.0126" xlink:href="#mb5b9a36f62" y="307.584"/>
      </g>
     </g>
     <g id="text_3">
      <!-- 5.0 -->
      <g transform="translate(147.061037 322.182437)scale(0.1 -0.1)">
       <use xlink:href="#DejaVuSans-53"/>
       <use x="63.623047" xlink:href="#DejaVuSans-46"/>
       <use x="95.410156" xlink:href="#DejaVuSans-48"/>
      </g>
     </g>
    </g>
    <g id="xtick_4">
     <g id="line2d_4">
      <g>
       <use style="stroke:#000000;stroke-width:0.8;" x="195.602536" xlink:href="#mb5b9a36f62" y="307.584"/>
      </g>
     </g>
     <g id="text_4">
      <!-- 7.5 -->
      <g transform="translate(187.650973 322.182437)scale(0.1 -0.1)">
       <defs>
        <path d="M 8.203125 72.90625 
L 55.078125 72.90625 
L 55.078125 68.703125 
L 28.609375 0 
L 18.3125 0 
L 43.21875 64.59375 
L 8.203125 64.59375 
z
" id="DejaVuSans-55"/>
       </defs>
       <use xlink:href="#DejaVuSans-55"/>
       <use x="63.623047" xlink:href="#DejaVuSans-46"/>
       <use x="95.410156" xlink:href="#DejaVuSans-53"/>
      </g>
     </g>
    </g>
    <g id="xtick_5">
     <g id="line2d_5">
      <g>
       <use style="stroke:#000000;stroke-width:0.8;" x="236.192472" xlink:href="#mb5b9a36f62" y="307.584"/>
      </g>
     </g>
     <g id="text_5">
      <!-- 10.0 -->
      <g transform="translate(225.059659 322.182437)scale(0.1 -0.1)">
       <defs>
        <path d="M 12.40625 8.296875 
L 28.515625 8.296875 
L 28.515625 63.921875 
L 10.984375 60.40625 
L 10.984375 69.390625 
L 28.421875 72.90625 
L 38.28125 72.90625 
L 38.28125 8.296875 
L 54.390625 8.296875 
L 54.390625 0 
L 12.40625 0 
z
" id="DejaVuSans-49"/>
       </defs>
       <use xlink:href="#DejaVuSans-49"/>
       <use x="63.623047" xlink:href="#DejaVuSans-48"/>
       <use x="127.246094" xlink:href="#DejaVuSans-46"/>
       <use x="159.033203" xlink:href="#DejaVuSans-48"/>
      </g>
     </g>
    </g>
    <g id="xtick_6">
     <g id="line2d_6">
      <g>
       <use style="stroke:#000000;stroke-width:0.8;" x="276.782408" xlink:href="#mb5b9a36f62" y="307.584"/>
      </g>
     </g>
     <g id="text_6">
      <!-- 12.5 -->
      <g transform="translate(265.649596 322.182437)scale(0.1 -0.1)">
       <use xlink:href="#DejaVuSans-49"/>
       <use x="63.623047" xlink:href="#DejaVuSans-50"/>
       <use x="127.246094" xlink:href="#DejaVuSans-46"/>
       <use x="159.033203" xlink:href="#DejaVuSans-53"/>
      </g>
     </g>
    </g>
    <g id="xtick_7">
     <g id="line2d_7">
      <g>
       <use style="stroke:#000000;stroke-width:0.8;" x="317.372344" xlink:href="#mb5b9a36f62" y="307.584"/>
      </g>
     </g>
     <g id="text_7">
      <!-- 15.0 -->
      <g transform="translate(306.239532 322.182437)scale(0.1 -0.1)">
       <use xlink:href="#DejaVuSans-49"/>
       <use x="63.623047" xlink:href="#DejaVuSans-53"/>
       <use x="127.246094" xlink:href="#DejaVuSans-46"/>
       <use x="159.033203" xlink:href="#DejaVuSans-48"/>
      </g>
     </g>
    </g>
    <g id="xtick_8">
     <g id="line2d_8">
      <g>
       <use style="stroke:#000000;stroke-width:0.8;" x="357.96228" xlink:href="#mb5b9a36f62" y="307.584"/>
      </g>
     </g>
     <g id="text_8">
      <!-- 17.5 -->
      <g transform="translate(346.829468 322.182437)scale(0.1 -0.1)">
       <use xlink:href="#DejaVuSans-49"/>
       <use x="63.623047" xlink:href="#DejaVuSans-55"/>
       <use x="127.246094" xlink:href="#DejaVuSans-46"/>
       <use x="159.033203" xlink:href="#DejaVuSans-53"/>
      </g>
     </g>
    </g>
    <g id="xtick_9">
     <g id="line2d_9">
      <g>
       <use style="stroke:#000000;stroke-width:0.8;" x="398.552217" xlink:href="#mb5b9a36f62" y="307.584"/>
      </g>
     </g>
     <g id="text_9">
      <!-- 20.0 -->
      <g transform="translate(387.419404 322.182437)scale(0.1 -0.1)">
       <use xlink:href="#DejaVuSans-50"/>
       <use x="63.623047" xlink:href="#DejaVuSans-48"/>
       <use x="127.246094" xlink:href="#DejaVuSans-46"/>
       <use x="159.033203" xlink:href="#DejaVuSans-48"/>
      </g>
     </g>
    </g>
   </g>
   <g id="matplotlib.axis_2">
    <g id="ytick_1">
     <g id="line2d_10">
      <defs>
       <path d="M 0 0 
L -3.5 0 
" id="m79d374a178" style="stroke:#000000;stroke-width:0.8;"/>
      </defs>
      <g>
       <use style="stroke:#000000;stroke-width:0.8;" x="57.6" xlink:href="#m79d374a178" y="272.797256"/>
      </g>
     </g>
     <g id="text_10">
      <!-- 0.0040 -->
      <g transform="translate(15.609375 276.596475)scale(0.1 -0.1)">
       <defs>
        <path d="M 37.796875 64.3125 
L 12.890625 25.390625 
L 37.796875 25.390625 
z
M 35.203125 72.90625 
L 47.609375 72.90625 
L 47.609375 25.390625 
L 58.015625 25.390625 
L 58.015625 17.1875 
L 47.609375 17.1875 
L 47.609375 0 
L 37.796875 0 
L 37.796875 17.1875 
L 4.890625 17.1875 
L 4.890625 26.703125 
z
" id="DejaVuSans-52"/>
       </defs>
       <use xlink:href="#DejaVuSans-48"/>
       <use x="63.623047" xlink:href="#DejaVuSans-46"/>
       <use x="95.410156" xlink:href="#DejaVuSans-48"/>
       <use x="159.033203" xlink:href="#DejaVuSans-48"/>
       <use x="222.65625" xlink:href="#DejaVuSans-52"/>
       <use x="286.279297" xlink:href="#DejaVuSans-48"/>
      </g>
     </g>
    </g>
    <g id="ytick_2">
     <g id="line2d_11">
      <g>
       <use style="stroke:#000000;stroke-width:0.8;" x="57.6" xlink:href="#m79d374a178" y="215.497398"/>
      </g>
     </g>
     <g id="text_11">
      <!-- 0.0045 -->
      <g transform="translate(15.609375 219.296617)scale(0.1 -0.1)">
       <use xlink:href="#DejaVuSans-48"/>
       <use x="63.623047" xlink:href="#DejaVuSans-46"/>
       <use x="95.410156" xlink:href="#DejaVuSans-48"/>
       <use x="159.033203" xlink:href="#DejaVuSans-48"/>
       <use x="222.65625" xlink:href="#DejaVuSans-52"/>
       <use x="286.279297" xlink:href="#DejaVuSans-53"/>
      </g>
     </g>
    </g>
    <g id="ytick_3">
     <g id="line2d_12">
      <g>
       <use style="stroke:#000000;stroke-width:0.8;" x="57.6" xlink:href="#m79d374a178" y="158.197541"/>
      </g>
     </g>
     <g id="text_12">
      <!-- 0.0050 -->
      <g transform="translate(15.609375 161.996759)scale(0.1 -0.1)">
       <use xlink:href="#DejaVuSans-48"/>
       <use x="63.623047" xlink:href="#DejaVuSans-46"/>
       <use x="95.410156" xlink:href="#DejaVuSans-48"/>
       <use x="159.033203" xlink:href="#DejaVuSans-48"/>
       <use x="222.65625" xlink:href="#DejaVuSans-53"/>
       <use x="286.279297" xlink:href="#DejaVuSans-48"/>
      </g>
     </g>
    </g>
    <g id="ytick_4">
     <g id="line2d_13">
      <g>
       <use style="stroke:#000000;stroke-width:0.8;" x="57.6" xlink:href="#m79d374a178" y="100.897683"/>
      </g>
     </g>
     <g id="text_13">
      <!-- 0.0055 -->
      <g transform="translate(15.609375 104.696901)scale(0.1 -0.1)">
       <use xlink:href="#DejaVuSans-48"/>
       <use x="63.623047" xlink:href="#DejaVuSans-46"/>
       <use x="95.410156" xlink:href="#DejaVuSans-48"/>
       <use x="159.033203" xlink:href="#DejaVuSans-48"/>
       <use x="222.65625" xlink:href="#DejaVuSans-53"/>
       <use x="286.279297" xlink:href="#DejaVuSans-53"/>
      </g>
     </g>
    </g>
    <g id="ytick_5">
     <g id="line2d_14">
      <g>
       <use style="stroke:#000000;stroke-width:0.8;" x="57.6" xlink:href="#m79d374a178" y="43.597825"/>
      </g>
     </g>
     <g id="text_14">
      <!-- 0.0060 -->
      <g transform="translate(15.609375 47.397043)scale(0.1 -0.1)">
       <defs>
        <path d="M 33.015625 40.375 
Q 26.375 40.375 22.484375 35.828125 
Q 18.609375 31.296875 18.609375 23.390625 
Q 18.609375 15.53125 22.484375 10.953125 
Q 26.375 6.390625 33.015625 6.390625 
Q 39.65625 6.390625 43.53125 10.953125 
Q 47.40625 15.53125 47.40625 23.390625 
Q 47.40625 31.296875 43.53125 35.828125 
Q 39.65625 40.375 33.015625 40.375 
z
M 52.59375 71.296875 
L 52.59375 62.3125 
Q 48.875 64.0625 45.09375 64.984375 
Q 41.3125 65.921875 37.59375 65.921875 
Q 27.828125 65.921875 22.671875 59.328125 
Q 17.53125 52.734375 16.796875 39.40625 
Q 19.671875 43.65625 24.015625 45.921875 
Q 28.375 48.1875 33.59375 48.1875 
Q 44.578125 48.1875 50.953125 41.515625 
Q 57.328125 34.859375 57.328125 23.390625 
Q 57.328125 12.15625 50.6875 5.359375 
Q 44.046875 -1.421875 33.015625 -1.421875 
Q 20.359375 -1.421875 13.671875 8.265625 
Q 6.984375 17.96875 6.984375 36.375 
Q 6.984375 53.65625 15.1875 63.9375 
Q 23.390625 74.21875 37.203125 74.21875 
Q 40.921875 74.21875 44.703125 73.484375 
Q 48.484375 72.75 52.59375 71.296875 
z
" id="DejaVuSans-54"/>
       </defs>
       <use xlink:href="#DejaVuSans-48"/>
       <use x="63.623047" xlink:href="#DejaVuSans-46"/>
       <use x="95.410156" xlink:href="#DejaVuSans-48"/>
       <use x="159.033203" xlink:href="#DejaVuSans-48"/>
       <use x="222.65625" xlink:href="#DejaVuSans-54"/>
       <use x="286.279297" xlink:href="#DejaVuSans-48"/>
      </g>
     </g>
    </g>
   </g>
   <g id="line2d_15">
    <path clip-path="url(#p18fe1d950a)" d="M 73.832727 221.456584 
L 73.897671 222.71718 
L 73.962615 222.144182 
L 74.092503 219.852188 
L 74.222391 223.404779 
L 74.287335 223.06098 
L 74.417222 219.852188 
L 74.54711 224.206977 
L 74.612054 223.404779 
L 74.741942 219.279189 
L 74.87183 223.519378 
L 74.936774 222.83178 
L 75.066661 220.539786 
L 75.261493 225.009175 
L 75.391381 220.425186 
L 75.456325 221.571183 
L 75.521269 223.863178 
L 75.586213 222.487981 
L 75.7161 220.425186 
L 75.845988 224.436176 
L 75.910932 224.321577 
L 76.04082 220.195987 
L 76.170708 225.811373 
L 76.235651 224.779975 
L 76.365539 222.144182 
L 76.495427 225.238374 
L 76.560371 224.779975 
L 76.690259 220.883585 
L 76.820147 225.467574 
L 76.88509 225.123775 
L 77.014978 221.456584 
L 77.20981 226.040572 
L 77.469586 219.04999 
L 77.664417 213.778403 
L 77.729361 215.268199 
L 77.924193 219.966787 
L 78.119025 227.301169 
L 78.183968 225.925973 
L 78.313856 223.404779 
L 78.508688 227.530369 
L 78.573632 225.925973 
L 78.638576 223.519378 
L 78.768464 229.020165 
L 78.833407 228.905565 
L 78.963295 226.613571 
L 79.028239 227.186569 
L 79.158127 229.363964 
L 79.288015 225.696773 
L 79.417902 229.478564 
L 79.54779 226.155172 
L 79.612734 227.07197 
L 79.742622 242.313732 
L 79.807566 240.823936 
L 80.002398 194.181851 
L 80.262173 53.568 
L 80.327117 91.271306 
L 80.586893 224.550776 
L 80.781724 218.82079 
L 80.846668 218.82079 
L 80.911612 218.247792 
L 81.106444 224.665376 
L 81.171388 224.206977 
L 81.236332 222.487981 
L 81.301276 222.71718 
L 81.431163 224.206977 
L 81.496107 223.404779 
L 81.561051 223.519378 
L 81.690939 227.988767 
L 81.755883 226.728171 
L 81.885771 222.602581 
L 82.015658 227.874168 
L 82.080602 226.95737 
L 82.21049 222.83178 
L 82.340378 226.498971 
L 82.470266 222.71718 
L 82.53521 222.94638 
L 82.730041 227.186569 
L 82.859929 222.83178 
L 82.989817 226.155172 
L 83.054761 225.009175 
L 83.184649 220.310586 
L 83.314536 223.863178 
L 83.509368 218.247792 
L 83.639256 222.029582 
L 83.7042 220.883585 
L 83.834088 216.987195 
L 83.963975 218.133192 
L 84.028919 217.330994 
L 84.158807 213.434604 
L 84.288695 215.153599 
L 84.353639 214.6952 
L 84.483527 210.91341 
L 84.678358 213.778403 
L 84.808246 207.933817 
L 84.938134 211.715608 
L 85.132966 207.819217 
L 85.327797 212.517806 
L 85.392741 211.944807 
L 85.457685 211.601008 
L 85.977236 229.363964 
L 86.04218 228.790965 
L 86.107124 229.020165 
L 86.301956 234.177152 
L 86.3669 232.114357 
L 86.431843 232.687356 
L 86.561731 238.87574 
L 86.756563 232.572756 
L 86.886451 238.87574 
L 86.951395 237.729743 
L 87.081282 232.687356 
L 87.276114 238.302742 
L 87.406002 234.97935 
L 87.470946 236.010748 
L 87.53589 238.646541 
L 87.600834 237.729743 
L 87.665778 236.698346 
L 87.730721 237.271344 
L 87.925553 238.99034 
L 88.055441 237.156745 
L 88.185329 242.657531 
L 88.38016 236.583746 
L 88.510048 243.803528 
L 88.574992 243.688928 
L 88.70488 238.073542 
L 88.769824 240.250937 
L 88.834768 243.459729 
L 88.964655 239.448739 
L 89.159487 245.064125 
L 89.289375 241.740733 
L 89.419263 244.491126 
L 89.549151 245.866323 
L 89.679038 241.855333 
L 89.808926 246.439322 
L 89.87387 244.261927 
L 89.938814 244.949525 
L 90.133646 249.189715 
L 90.328477 245.407924 
L 90.458365 248.158317 
L 90.523309 248.043718 
L 90.653197 246.783121 
L 90.783085 250.564911 
L 90.912972 248.387517 
L 90.977916 248.960515 
L 91.107804 252.627706 
L 91.172748 252.283907 
L 91.237692 250.221112 
L 91.36758 253.544504 
L 91.432524 252.742306 
L 91.562411 249.533514 
L 91.627355 249.762713 
L 91.757243 255.607299 
L 91.887131 249.877313 
L 91.952075 251.596309 
L 92.146906 256.638696 
L 92.276794 253.773703 
L 92.471626 257.097095 
L 92.601514 254.575901 
L 92.731402 258.816091 
L 92.796345 257.555494 
L 92.926233 255.0343 
L 93.056121 260.191288 
L 93.186009 251.25251 
L 93.250953 252.513107 
L 93.315897 253.315305 
L 93.445784 249.189715 
L 93.510728 246.324722 
L 93.575672 247.699919 
L 93.770504 257.670094 
L 93.835448 254.461302 
L 93.900392 254.575901 
L 94.03028 260.191288 
L 94.095223 259.962088 
L 94.160167 258.128493 
L 94.354999 263.05628 
L 94.419943 261.795684 
L 94.484887 261.222685 
L 94.614775 265.577474 
L 94.679718 267.18187 
L 94.809606 263.40008 
L 95.069382 265.577474 
L 95.134326 262.941681 
L 95.19927 263.05628 
L 95.329157 268.786266 
L 95.459045 265.692074 
L 95.588933 277.954243 
L 95.653877 274.401652 
L 95.978596 149.029563 
L 96.108484 95.053097 
L 96.433204 264.546077 
L 96.563092 258.357692 
L 96.628035 259.38909 
L 96.757923 258.128493 
L 96.822867 258.586892 
L 96.952755 263.973078 
L 97.017699 261.222685 
L 97.082643 262.827081 
L 97.147587 263.28548 
L 97.277474 267.06727 
L 97.407362 260.649686 
L 97.53725 266.723471 
L 97.732082 262.712481 
L 97.797026 263.17088 
L 97.926913 267.984068 
L 98.056801 263.05628 
L 98.121745 263.28548 
L 98.251633 269.473865 
L 98.316577 267.869468 
L 98.381521 262.712481 
L 98.446465 262.827081 
L 98.511408 265.692074 
L 98.576352 265.233675 
L 98.70624 262.597882 
L 98.836128 268.557067 
L 98.901072 267.18187 
L 98.966016 266.379672 
L 99.095904 260.878886 
L 99.225791 267.41107 
L 99.290735 264.431477 
L 99.355679 262.139483 
L 99.485567 265.119075 
L 99.550511 264.775276 
L 99.680399 260.191288 
L 99.745343 260.993486 
L 99.810286 263.629279 
L 100.005118 256.638696 
L 100.070062 257.555494 
L 100.135006 256.753296 
L 100.264894 260.076688 
L 100.459725 250.794111 
L 100.589613 256.982495 
L 100.719501 249.877313 
L 100.849389 252.742306 
L 100.979277 248.502117 
L 101.04422 248.616716 
L 101.239052 254.461302 
L 101.303996 254.919701 
L 101.36894 254.575901 
L 101.498828 265.462874 
L 101.628716 260.764286 
L 101.758603 269.130065 
L 101.823547 268.098668 
L 101.888491 267.525669 
L 102.148267 279.32944 
L 102.213211 276.808246 
L 102.278155 273.026456 
L 102.343098 275.20385 
L 102.472986 278.985641 
L 102.53793 278.068843 
L 102.667818 271.42206 
L 102.86265 278.641842 
L 102.927594 278.412642 
L 103.057481 280.360838 
L 103.317257 274.172453 
L 103.447145 279.32944 
L 103.577032 274.630852 
L 103.641976 275.547649 
L 103.771864 280.017038 
L 103.836808 275.547649 
L 103.966696 280.475437 
L 104.03164 280.017038 
L 104.096584 279.902439 
L 104.226471 274.860051 
L 104.291415 277.152045 
L 104.356359 283.684229 
L 104.421303 280.819236 
L 104.551191 272.682657 
L 104.810967 283.798829 
L 104.87591 281.506835 
L 104.940854 279.902439 
L 105.005798 280.246238 
L 105.070742 280.704637 
L 105.20063 274.974651 
L 105.330518 281.163036 
L 105.395462 280.704637 
L 105.525349 275.662249 
L 105.720181 279.902439 
L 105.850069 278.183443 
L 105.915013 280.933836 
L 105.979957 280.819236 
L 106.044901 279.44404 
L 106.304676 283.22583 
L 106.629396 277.266645 
L 106.69434 277.725044 
L 106.759283 275.547649 
L 107.019059 284.486427 
L 107.148947 279.100241 
L 107.213891 279.21484 
L 107.343779 286.549222 
L 107.473666 274.860051 
L 107.53861 276.808246 
L 107.668498 283.45503 
L 107.798386 277.381245 
L 107.86333 277.610444 
L 107.928274 280.590037 
L 108.123105 270.963661 
L 108.188049 271.078261 
L 108.317937 274.630852 
L 108.447825 269.130065 
L 108.512769 269.588464 
L 108.967376 280.017038 
L 109.03232 276.579047 
L 109.097264 276.693647 
L 109.227152 282.423632 
L 109.292096 282.309033 
L 109.357039 282.079833 
L 109.421983 279.902439 
L 109.551871 282.767432 
L 109.616815 282.652832 
L 109.681759 279.673239 
L 109.746703 280.475437 
L 109.811647 280.704637 
L 109.876591 282.538232 
L 109.941534 281.392235 
L 110.006478 280.590037 
L 110.071422 283.45503 
L 110.136366 280.819236 
L 110.20131 281.048436 
L 110.266254 282.309033 
L 110.396142 278.641842 
L 110.52603 295.488 
L 110.590973 290.789412 
L 110.850749 198.078242 
L 111.045581 103.189677 
L 111.175469 186.61827 
L 111.3703 278.756441 
L 111.630076 269.588464 
L 111.69502 269.473865 
L 111.889851 275.547649 
L 112.084683 271.995058 
L 112.214571 276.349847 
L 112.344459 272.797256 
L 112.409403 273.484855 
L 112.474347 277.037446 
L 112.53929 275.891449 
L 112.669178 271.19286 
L 112.86401 275.20385 
L 112.928954 273.943253 
L 112.993898 271.30746 
L 113.058842 272.224258 
L 113.123785 274.516252 
L 113.188729 273.370255 
L 113.318617 269.130065 
L 113.448505 271.536659 
L 113.513449 270.734461 
L 113.578393 271.42206 
L 113.708281 267.640269 
L 113.838168 269.588464 
L 113.903112 268.098668 
L 114.033 263.858478 
L 114.162888 267.869468 
L 114.292776 261.795684 
L 114.35772 262.597882 
L 114.487607 264.546077 
L 114.617495 258.930691 
L 114.682439 259.04529 
L 114.812327 261.566484 
L 114.942215 256.294897 
L 115.072102 259.962088 
L 115.137046 258.586892 
L 115.266934 253.200705 
L 115.331878 253.888303 
L 115.396822 255.836498 
L 115.591654 248.043718 
L 115.721541 251.13791 
L 115.916373 247.01232 
L 115.981317 248.272917 
L 116.241093 250.679511 
L 116.500868 260.649686 
L 116.565812 259.503689 
L 116.760644 268.213268 
L 116.825588 265.921273 
L 116.890532 263.973078 
L 117.020419 270.276063 
L 117.150307 270.161463 
L 117.280195 265.348275 
L 117.410083 272.109658 
L 117.539971 266.608872 
L 117.604914 267.41107 
L 117.669858 271.078261 
L 117.734802 270.734461 
L 117.86469 266.838071 
L 117.929634 267.06727 
L 118.059522 269.244665 
L 118.18941 266.150473 
L 118.319297 272.682657 
L 118.384241 270.963661 
L 118.514129 265.921273 
L 118.708961 268.786266 
L 118.773905 268.786266 
L 118.838848 266.494272 
L 118.903792 266.952671 
L 118.968736 269.244665 
L 119.03368 268.671667 
L 119.163568 266.723471 
L 119.228512 267.06727 
L 119.293456 269.244665 
L 119.3584 268.671667 
L 119.488287 266.723471 
L 119.683119 267.984068 
L 119.813007 265.233675 
L 119.942895 269.473865 
L 120.007839 268.671667 
L 120.137726 266.723471 
L 120.267614 269.473865 
L 120.462446 262.597882 
L 120.52739 265.233675 
L 120.657278 271.19286 
L 120.787165 265.119075 
L 120.852109 265.348275 
L 120.917053 268.213268 
L 120.981997 268.098668 
L 121.111885 264.431477 
L 121.306717 268.900866 
L 121.371661 267.984068 
L 121.436604 265.348275 
L 121.501548 265.577474 
L 121.566492 268.327867 
L 121.69638 262.483282 
L 121.761324 263.514679 
L 121.891212 267.41107 
L 121.956156 266.265072 
L 122.086043 262.139483 
L 122.215931 266.838071 
L 122.280875 266.150473 
L 122.410763 261.451884 
L 122.540651 267.29647 
L 122.605595 266.952671 
L 122.735482 261.451884 
L 122.930314 266.723471 
L 123.125146 261.910283 
L 123.255034 263.28548 
L 123.384921 260.993486 
L 123.514809 262.941681 
L 123.644697 260.764286 
L 123.709641 260.993486 
L 123.839529 263.743879 
L 123.904473 262.368682 
L 123.969416 262.483282 
L 124.03436 262.827081 
L 124.099304 264.316877 
L 124.164248 263.973078 
L 124.35908 252.054708 
L 124.488968 256.867896 
L 124.683799 252.398507 
L 124.878631 262.254082 
L 125.008519 259.618289 
L 125.138407 259.732889 
L 125.20335 260.191288 
L 125.333238 259.04529 
L 125.463126 265.348275 
L 125.657958 257.670094 
L 125.787846 262.712481 
L 125.852789 262.368682 
L 125.982677 258.013893 
L 126.112565 264.431477 
L 126.177509 263.28548 
L 126.307397 259.27449 
L 126.372341 260.878886 
L 126.567172 272.568057 
L 126.762004 232.572756 
L 127.02178 102.387479 
L 127.086724 104.450274 
L 127.346499 256.753296 
L 127.541331 246.095523 
L 127.606275 247.699919 
L 127.801106 251.25251 
L 127.86605 251.13791 
L 127.930994 250.335712 
L 128.060882 252.627706 
L 128.255714 249.877313 
L 128.450545 253.659104 
L 128.580433 249.877313 
L 128.710321 252.742306 
L 128.905153 249.418914 
L 129.03504 252.513107 
L 129.164928 247.814518 
L 129.229872 247.929118 
L 129.35976 250.450312 
L 129.554592 244.032728 
L 129.619536 245.637124 
L 129.684479 246.783121 
L 129.749423 246.095523 
L 129.879311 243.345129 
L 130.009199 244.605726 
L 130.52875 234.86475 
L 130.658638 237.271344 
L 130.85347 231.770558 
L 130.918414 231.770558 
L 130.983357 232.228957 
L 131.178189 225.009175 
L 131.243133 225.925973 
L 131.308077 226.384371 
L 131.437965 223.404779 
L 131.502909 221.685783 
L 131.567852 221.914982 
L 131.632796 222.029582 
L 131.69774 221.800383 
L 131.827628 219.164589 
L 131.957516 222.83178 
L 132.02246 222.487981 
L 132.152348 220.768985 
L 132.347179 229.020165 
L 132.412123 229.134765 
L 132.477067 230.96836 
L 132.606955 240.136337 
L 132.671899 239.677938 
L 132.736843 237.500544 
L 132.801787 238.073542 
L 132.996618 244.147327 
L 133.061562 243.918128 
L 133.256394 248.043718 
L 133.321338 247.356119 
L 133.516169 245.751723 
L 133.581113 247.356119 
L 133.646057 246.324722 
L 133.775945 243.803528 
L 133.905833 246.553921 
L 134.100664 244.261927 
L 134.295496 245.866323 
L 134.425384 242.772131 
L 134.555272 248.158317 
L 134.620216 246.553921 
L 134.68516 243.11593 
L 134.750103 243.23053 
L 134.879991 247.01232 
L 134.944935 245.980923 
L 135.074823 243.00133 
L 135.204711 249.075115 
L 135.399542 243.11593 
L 135.594374 246.783121 
L 135.724262 244.032728 
L 135.85415 247.356119 
L 135.919094 247.01232 
L 136.048981 245.866323 
L 136.178869 246.897721 
L 136.243813 246.439322 
L 136.373701 245.064125 
L 136.503589 248.387517 
L 136.568533 248.272917 
L 136.69842 243.918128 
L 136.828308 249.418914 
L 136.893252 248.960515 
L 137.02314 246.439322 
L 137.153028 250.221112 
L 137.347859 244.032728 
L 137.412803 246.324722 
L 137.542691 247.929118 
L 137.672579 245.064125 
L 137.802467 247.12692 
L 137.997298 243.11593 
L 138.127186 247.814518 
L 138.257074 242.772131 
L 138.322018 243.688928 
L 138.451906 248.502117 
L 138.646737 244.147327 
L 138.711681 245.980923 
L 138.776625 248.387517 
L 138.841569 247.814518 
L 138.971457 242.542931 
L 139.101345 245.980923 
L 139.166289 245.522524 
L 139.296176 244.261927 
L 139.426064 248.272917 
L 139.620896 243.345129 
L 139.815728 246.210122 
L 139.945615 243.459729 
L 140.010559 245.751723 
L 140.075503 244.834926 
L 140.270335 241.855333 
L 140.400223 245.980923 
L 140.465166 245.866323 
L 140.595054 241.626134 
L 140.724942 244.949525 
L 140.85483 242.428332 
L 141.049662 245.064125 
L 141.244493 241.053135 
L 141.374381 246.210122 
L 141.569213 242.542931 
L 141.634157 244.376527 
L 141.699101 243.23053 
L 141.828988 234.062552 
L 141.893932 234.406351 
L 141.958876 238.531941 
L 142.02382 238.188142 
L 142.153708 234.520951 
L 142.218652 235.781548 
L 142.413483 244.032728 
L 142.543371 240.938535 
L 142.673259 241.855333 
L 142.803147 239.677938 
L 142.997979 243.688928 
L 143.062922 242.428332 
L 143.19281 240.709336 
L 143.322698 244.949525 
L 143.452586 241.740733 
L 143.51753 241.855333 
L 143.647417 245.293324 
L 143.842249 239.334139 
L 144.037081 257.097095 
L 144.231913 225.123775 
L 144.556632 85.197522 
L 144.816408 239.677938 
L 144.881352 239.10494 
L 145.076183 228.103367 
L 145.335959 235.323149 
L 145.400903 235.20855 
L 145.465847 234.750151 
L 145.595734 237.729743 
L 145.660678 236.812946 
L 145.725622 233.145755 
L 145.790566 233.489554 
L 145.920454 236.927545 
L 146.115286 232.343557 
L 146.245173 236.354547 
L 146.440005 230.85376 
L 146.504949 232.572756 
L 146.569893 231.999757 
L 146.699781 229.478564 
L 146.764725 229.707763 
L 146.894612 232.228957 
L 147.0245 228.332567 
L 147.089444 228.447166 
L 147.219332 230.509961 
L 147.34922 225.811373 
L 147.414164 226.269772 
L 147.608995 228.790965 
L 147.738883 224.665376 
L 147.803827 226.269772 
L 147.868771 225.811373 
L 148.063603 223.519378 
L 148.128546 226.269772 
L 148.19349 224.321577 
L 148.388322 216.757995 
L 148.453266 217.445594 
L 148.51821 217.789393 
L 148.713042 214.351401 
L 148.777985 214.6952 
L 148.842929 215.382799 
L 149.037761 208.163017 
L 149.102705 210.225811 
L 149.167649 211.257209 
L 149.297537 206.67322 
L 149.36248 207.590018 
L 149.492368 209.538213 
L 149.622256 207.475418 
L 150.206751 225.009175 
L 150.271695 225.009175 
L 150.466527 230.166162 
L 150.531471 229.707763 
L 150.596415 229.249364 
L 150.791246 233.145755 
L 150.921134 230.280762 
L 151.115966 234.177152 
L 151.310797 229.249364 
L 151.440685 231.541359 
L 151.505629 231.312159 
L 151.635517 228.905565 
L 151.765405 231.885158 
L 151.895293 229.249364 
L 151.960236 229.363964 
L 152.090124 231.426759 
L 152.220012 227.301169 
L 152.284956 228.217967 
L 152.414844 232.114357 
L 152.544731 228.217967 
L 152.609675 228.561766 
L 152.739563 232.458156 
L 152.869451 228.790965 
L 152.934395 229.363964 
L 153.064283 233.718753 
L 153.19417 229.249364 
L 153.389002 233.489554 
L 153.51889 229.478564 
L 153.583834 230.280762 
L 153.713722 234.635551 
L 153.843609 230.051562 
L 154.038441 234.86475 
L 154.168329 229.822363 
L 154.233273 230.624561 
L 154.363161 233.604153 
L 154.428105 232.572756 
L 154.493048 229.593163 
L 154.557992 230.280762 
L 154.68788 233.260354 
L 154.817768 230.166162 
L 155.0126 234.177152 
L 155.142487 230.624561 
L 155.207431 231.197559 
L 155.337319 233.947953 
L 155.467207 231.312159 
L 155.532151 231.426759 
L 155.662039 236.125347 
L 155.85687 229.134765 
L 155.986758 232.114357 
L 156.116646 228.790965 
L 156.311478 233.374954 
L 156.441365 228.103367 
L 156.506309 229.593163 
L 156.571253 232.572756 
L 156.636197 232.228957 
L 156.766085 228.447166 
L 156.831029 229.593163 
L 156.895973 230.96836 
L 156.960917 230.280762 
L 157.090804 227.301169 
L 157.220692 231.426759 
L 157.285636 231.08296 
L 157.415524 229.822363 
L 157.480468 229.707763 
L 157.545412 230.166162 
L 157.610356 231.999757 
L 157.740243 227.415769 
L 157.805187 229.134765 
L 157.935075 232.801955 
L 158.064963 226.040572 
L 158.129907 228.447166 
L 158.259795 230.85376 
L 158.389682 227.759568 
L 158.454626 228.676366 
L 158.584514 232.114357 
L 158.779346 228.561766 
L 158.909233 231.08296 
L 159.039121 226.728171 
L 159.233953 232.687356 
L 159.298897 231.655958 
L 159.623616 222.144182 
L 159.68856 221.571183 
L 159.753504 222.029582 
L 160.208111 232.228957 
L 160.402943 227.530369 
L 160.532831 229.593163 
L 160.597775 229.249364 
L 160.662719 229.020165 
L 160.85755 232.801955 
L 160.987438 228.905565 
L 161.052382 229.593163 
L 161.117326 231.999757 
L 161.18227 231.541359 
L 161.312158 228.447166 
L 161.377102 229.936963 
L 161.506989 233.031155 
L 161.636877 229.593163 
L 161.766765 244.720326 
L 161.831709 242.428332 
L 162.026541 196.588445 
L 162.286316 63.996574 
L 162.546092 228.217967 
L 162.611036 225.352974 
L 162.740923 217.903992 
L 163.000699 222.71718 
L 163.065643 224.550776 
L 163.130587 224.436176 
L 163.260475 222.373381 
L 163.455306 226.384371 
L 163.585194 223.175579 
L 163.650138 223.519378 
L 163.780026 225.811373 
L 163.909914 221.914982 
L 163.974858 223.06098 
L 164.039801 224.665376 
L 164.104745 224.550776 
L 164.234633 221.112784 
L 164.364521 223.748578 
L 164.559353 218.93539 
L 164.624296 220.654386 
L 164.68924 223.519378 
L 164.754184 222.94638 
L 164.884072 219.04999 
L 165.01396 221.914982 
L 165.078904 221.227384 
L 165.338679 215.955797 
L 165.403623 216.757995 
L 165.598455 213.320004 
L 165.728343 215.726598 
L 165.858231 210.91341 
L 166.053062 214.9244 
L 166.18295 208.850615 
L 166.247894 210.569611 
L 166.312838 212.403206 
L 166.377782 211.486408 
L 166.572613 205.068824 
L 166.637557 206.329421 
L 166.897333 201.745432 
L 166.962277 203.120629 
L 167.027221 202.318431 
L 167.157109 199.453438 
L 167.286996 204.725025 
L 167.35194 203.808227 
L 167.416884 203.006029 
L 167.481828 203.693628 
L 167.67666 213.320004 
L 167.741604 212.403206 
L 167.806547 212.747005 
L 168.001379 221.112784 
L 168.066323 220.768985 
L 168.131267 219.279189 
L 168.261155 226.95737 
L 168.326099 226.155172 
L 168.455986 222.373381 
L 168.650818 224.894575 
L 168.780706 222.258782 
L 168.975538 226.84277 
L 169.105425 223.633978 
L 169.235313 226.84277 
L 169.300257 225.811373 
L 169.430145 222.94638 
L 169.495089 223.977777 
L 169.624977 227.988767 
L 169.754864 225.582173 
L 169.884752 226.040572 
L 169.949696 226.84277 
L 170.01464 226.498971 
L 170.144528 225.925973 
L 170.274416 228.332567 
L 170.404303 224.894575 
L 170.599135 229.363964 
L 170.729023 224.894575 
L 170.923855 229.593163 
L 171.053742 227.644968 
L 171.18363 231.312159 
L 171.248574 230.280762 
L 171.378462 227.186569 
L 171.573294 232.572756 
L 171.703181 228.332567 
L 171.833069 233.374954 
L 171.898013 232.458156 
L 172.027901 228.217967 
L 172.092845 229.020165 
L 172.222733 232.228957 
L 172.35262 230.166162 
L 172.482508 234.750151 
L 172.547452 234.291752 
L 172.67734 231.312159 
L 172.807228 236.125347 
L 172.872172 234.86475 
L 173.002059 229.707763 
L 173.067003 230.96836 
L 173.131947 233.145755 
L 173.196891 232.572756 
L 173.326779 231.197559 
L 173.521611 233.833353 
L 173.586554 233.604153 
L 173.651498 232.114357 
L 173.781386 235.20855 
L 173.976218 229.593163 
L 174.171049 235.20855 
L 174.300937 233.031155 
L 174.495769 236.469146 
L 174.625657 232.458156 
L 174.820488 235.781548 
L 174.950376 233.718753 
L 175.080264 237.615144 
L 175.145208 237.156745 
L 175.275096 233.145755 
L 175.404984 236.469146 
L 175.534871 234.520951 
L 175.599815 234.750151 
L 175.794647 237.958943 
L 175.924535 235.323149 
L 176.054423 239.21954 
L 176.249254 233.604153 
L 176.444086 238.99034 
L 176.768805 233.833353 
L 176.963637 228.217967 
L 177.418244 241.626134 
L 177.483188 240.021738 
L 177.548132 236.812946 
L 177.613076 237.958943 
L 177.742964 241.626134 
L 177.872852 239.334139 
L 178.002739 243.688928 
L 178.067683 243.11593 
L 178.197571 238.531941 
L 178.327459 243.688928 
L 178.392403 243.459729 
L 178.522291 240.136337 
L 178.652178 244.147327 
L 178.717122 243.345129 
L 178.84701 239.21954 
L 178.911954 241.626134 
L 179.041842 255.607299 
L 179.17173 236.812946 
L 179.301617 201.745432 
L 179.561393 62.162979 
L 179.886112 242.313732 
L 179.951056 239.334139 
L 180.080944 230.166162 
L 180.34072 237.156745 
L 180.405664 236.354547 
L 180.470608 235.09395 
L 180.600495 241.282334 
L 180.665439 238.99034 
L 180.795327 235.552349 
L 180.925215 240.136337 
L 181.055103 236.698346 
L 181.249934 240.021738 
L 181.444766 234.97935 
L 181.574654 238.417342 
L 181.639598 237.958943 
L 181.769486 234.750151 
L 181.964317 239.10494 
L 182.094205 234.406351 
L 182.224093 237.156745 
L 182.418925 232.343557 
L 182.548812 236.239947 
L 182.743644 231.541359 
L 182.808588 231.770558 
L 182.938476 233.374954 
L 183.068363 229.707763 
L 183.198251 231.999757 
L 183.263195 231.197559 
L 183.328139 227.874168 
L 183.393083 228.332567 
L 183.458027 230.739161 
L 183.522971 229.593163 
L 183.652859 225.009175 
L 183.717802 225.238374 
L 183.84769 227.415769 
L 184.042522 221.800383 
L 184.107466 223.290179 
L 184.17241 223.175579 
L 184.367241 216.299596 
L 184.562073 223.404779 
L 184.691961 220.539786 
L 184.821849 227.759568 
L 184.886793 227.301169 
L 184.951737 226.613571 
L 185.01668 227.07197 
L 185.081624 228.790965 
L 185.276456 235.20855 
L 185.536232 242.199132 
L 185.601176 239.334139 
L 185.666119 239.907138 
L 185.796007 244.147327 
L 185.860951 243.918128 
L 185.990839 241.740733 
L 186.120727 244.949525 
L 186.250614 239.21954 
L 186.315558 241.282334 
L 186.445446 247.470719 
L 186.640278 243.11593 
L 186.770166 245.980923 
L 186.83511 244.834926 
L 186.964997 241.396934 
L 187.094885 244.949525 
L 187.289717 242.657531 
L 187.419605 247.470719 
L 187.614436 241.626134 
L 187.67938 242.657531 
L 187.744324 246.324722 
L 187.809268 245.522524 
L 187.939156 243.345129 
L 188.133988 248.845916 
L 188.263875 244.834926 
L 188.328819 245.866323 
L 188.393763 245.178725 
L 188.458707 244.949525 
L 188.588595 245.293324 
L 188.718483 248.960515 
L 188.84837 245.178725 
L 188.913314 245.751723 
L 188.978258 249.075115 
L 189.043202 248.158317 
L 189.17309 244.605726 
L 189.238034 245.064125 
L 189.367922 250.221112 
L 189.497809 245.980923 
L 189.562753 246.324722 
L 189.692641 252.054708 
L 189.822529 244.720326 
L 189.887473 245.751723 
L 190.017361 249.189715 
L 190.212192 244.376527 
L 190.277136 245.064125 
L 190.34208 247.12692 
L 190.407024 246.553921 
L 190.471968 245.178725 
L 190.536912 245.522524 
L 190.6668 247.929118 
L 190.796687 243.459729 
L 190.861631 243.918128 
L 190.991519 248.731316 
L 191.056463 247.585319 
L 191.186351 244.491126 
L 191.316239 246.783121 
L 191.381182 246.210122 
L 191.446126 245.866323 
L 191.51107 244.605726 
L 191.640958 246.553921 
L 191.770846 243.459729 
L 191.83579 243.574329 
L 191.965677 248.158317 
L 192.030621 247.699919 
L 192.225453 241.053135 
L 192.420285 239.10494 
L 192.485229 235.09395 
L 192.550173 236.812946 
L 192.68006 241.740733 
L 192.809948 240.709336 
L 192.939836 248.387517 
L 193.00478 246.783121 
L 193.134668 241.626134 
L 193.264555 248.043718 
L 193.329499 247.01232 
L 193.394443 245.293324 
L 193.524331 250.450312 
L 193.589275 250.335712 
L 193.719163 246.783121 
L 193.784107 247.24152 
L 193.849051 249.762713 
L 193.913994 248.960515 
L 194.043882 244.605726 
L 194.238714 249.304315 
L 194.368602 246.897721 
L 194.563433 262.483282 
L 194.758265 207.933817 
L 195.018041 68.007564 
L 195.082985 79.238336 
L 195.34276 244.491126 
L 195.407704 243.918128 
L 195.602536 236.354547 
L 195.66748 236.010748 
L 195.862311 241.511534 
L 195.927255 240.136337 
L 195.992199 237.958943 
L 196.057143 238.188142 
L 196.187031 241.969933 
L 196.316919 236.239947 
L 196.381863 236.927545 
L 196.51175 243.23053 
L 196.706582 236.125347 
L 196.901414 240.594736 
L 197.031302 238.073542 
L 197.161189 239.792538 
L 197.226133 239.563339 
L 197.356021 236.354547 
L 197.485909 238.646541 
L 197.615797 233.374954 
L 197.745684 234.750151 
L 197.810628 235.20855 
L 197.940516 229.707763 
L 198.00546 229.936963 
L 198.135348 232.458156 
L 198.265236 226.269772 
L 198.330179 227.988767 
L 198.460067 230.395361 
L 198.654899 222.71718 
L 198.719843 224.894575 
L 198.784787 226.84277 
L 198.849731 226.384371 
L 198.979618 222.94638 
L 199.044562 223.06098 
L 199.109506 222.602581 
L 199.239394 219.279189 
L 199.304338 219.737588 
L 199.434226 221.571183 
L 199.629057 215.955797 
L 199.758945 217.789393 
L 199.888833 212.632405 
L 199.953777 213.549203 
L 200.083665 216.643396 
L 200.213553 213.663803 
L 200.733104 232.343557 
L 200.798048 231.541359 
L 200.862992 229.020165 
L 200.927935 230.624561 
L 201.057823 235.437749 
L 201.187711 232.801955 
L 201.252655 233.718753 
L 201.382543 236.698346 
L 201.51243 232.916555 
L 201.577374 233.260354 
L 201.707262 237.615144 
L 201.902094 233.031155 
L 202.031982 236.927545 
L 202.161869 232.916555 
L 202.226813 234.062552 
L 202.356701 237.615144 
L 202.551533 234.97935 
L 202.681421 237.958943 
L 202.811308 231.999757 
L 202.876252 232.801955 
L 203.00614 236.354547 
L 203.071084 235.437749 
L 203.136028 233.833353 
L 203.200972 234.291752 
L 203.33086 237.385944 
L 203.525691 233.947953 
L 203.590635 236.354547 
L 203.655579 236.239947 
L 203.850411 234.635551 
L 203.980299 237.729743 
L 204.110186 232.687356 
L 204.17513 233.489554 
L 204.305018 237.500544 
L 204.49985 233.947953 
L 204.629738 237.042145 
L 204.759625 233.833353 
L 204.824569 234.86475 
L 204.954457 236.698346 
L 205.084345 234.86475 
L 205.279177 236.239947 
L 205.409064 233.604153 
L 205.538952 237.042145 
L 205.603896 236.698346 
L 205.733784 231.426759 
L 205.928616 237.500544 
L 205.993559 236.125347 
L 206.058503 234.520951 
L 206.188391 236.812946 
L 206.253335 236.469146 
L 206.383223 234.062552 
L 206.448167 234.291752 
L 206.513111 236.010748 
L 206.578055 235.781548 
L 206.642998 232.687356 
L 206.707942 232.801955 
L 206.902774 236.583746 
L 207.032662 233.947953 
L 207.227493 236.927545 
L 207.357381 232.687356 
L 207.552213 237.844343 
L 207.617157 235.896148 
L 207.682101 236.125347 
L 207.811989 237.615144 
L 207.876932 238.99034 
L 208.33154 225.811373 
L 208.656259 233.489554 
L 208.786147 235.781548 
L 208.851091 236.010748 
L 208.980979 233.718753 
L 209.17581 237.271344 
L 209.240754 236.125347 
L 209.305698 236.583746 
L 209.50053 241.511534 
L 209.630418 235.437749 
L 209.695362 236.812946 
L 209.825249 239.448739 
L 209.890193 238.188142 
L 209.955137 233.833353 
L 210.020081 235.896148 
L 210.214913 239.907138 
L 210.279857 242.657531 
L 210.409744 251.367109 
L 210.604576 198.53664 
L 210.864352 66.288568 
L 211.124127 233.260354 
L 211.254015 222.602581 
L 211.318959 222.258782 
L 211.448847 227.644968 
L 211.513791 227.530369 
L 211.578735 226.155172 
L 211.773566 232.228957 
L 211.903454 228.103367 
L 212.098286 232.228957 
L 212.228174 228.790965 
L 212.358061 231.655958 
L 212.423005 231.541359 
L 212.552893 226.155172 
L 212.617837 227.186569 
L 212.682781 229.936963 
L 212.747725 229.249364 
L 212.877613 225.467574 
L 212.942557 226.95737 
L 213.072444 230.739161 
L 213.202332 225.467574 
L 213.33222 228.332567 
L 213.397164 227.759568 
L 213.527052 224.894575 
L 213.591995 225.009175 
L 213.656939 226.384371 
L 213.721883 225.696773 
L 213.851771 219.508388 
L 213.916715 220.539786 
L 213.981659 222.144182 
L 214.176491 218.018592 
L 214.241434 218.133192 
L 214.306378 219.508388 
L 214.371322 218.93539 
L 214.50121 215.153599 
L 214.566154 215.841198 
L 214.631098 215.726598 
L 214.760986 212.861605 
L 214.82593 209.767413 
L 214.955817 213.893002 
L 215.150649 207.131619 
L 215.215593 208.163017 
L 215.345481 208.850615 
L 215.475369 203.579028 
L 215.540312 203.693628 
L 215.6702 206.329421 
L 215.800088 201.860032 
L 215.99492 208.277616 
L 216.059864 207.246219 
L 216.124808 208.277616 
L 216.319639 219.737588 
L 216.384583 218.591591 
L 216.449527 219.04999 
L 216.644359 226.728171 
L 216.709303 225.925973 
L 216.774246 225.123775 
L 216.904134 230.166162 
L 217.098966 228.332567 
L 217.228854 231.197559 
L 217.358742 229.478564 
L 217.423685 229.593163 
L 217.553573 233.031155 
L 217.748405 227.759568 
L 217.813349 229.593163 
L 217.943237 231.770558 
L 218.073124 226.95737 
L 218.203012 230.280762 
L 218.267956 230.280762 
L 218.397844 229.707763 
L 218.527732 232.572756 
L 218.592676 232.228957 
L 218.722563 229.249364 
L 218.787507 230.166162 
L 218.917395 233.145755 
L 219.047283 228.790965 
L 219.242115 232.801955 
L 219.372002 229.822363 
L 219.50189 233.604153 
L 219.566834 232.343557 
L 219.696722 229.707763 
L 219.82661 232.916555 
L 219.891554 232.801955 
L 219.956497 231.541359 
L 220.021441 231.655958 
L 220.151329 234.406351 
L 220.346161 229.936963 
L 220.476049 235.09395 
L 220.540993 234.177152 
L 220.67088 230.96836 
L 220.865712 234.291752 
L 220.9956 231.999757 
L 221.125488 234.520951 
L 221.190432 234.062552 
L 221.320319 230.509961 
L 221.515151 235.323149 
L 221.645039 233.374954 
L 221.774927 235.896148 
L 221.839871 235.09395 
L 221.969758 229.936963 
L 222.16459 233.947953 
L 222.294478 230.85376 
L 222.424366 234.635551 
L 222.489309 233.604153 
L 222.619197 232.228957 
L 222.814029 235.20855 
L 222.943917 229.707763 
L 223.008861 230.85376 
L 223.138748 233.489554 
L 223.268636 230.395361 
L 223.463468 234.86475 
L 223.593356 230.395361 
L 223.723244 235.781548 
L 223.918075 229.134765 
L 224.047963 234.062552 
L 224.112907 233.947953 
L 224.242795 230.85376 
L 224.437626 235.323149 
L 224.82729 226.384371 
L 224.957178 225.925973 
L 225.022122 228.561766 
L 225.087065 227.759568 
L 225.152009 225.582173 
L 225.346841 236.469146 
L 225.411785 235.09395 
L 225.541673 231.885158 
L 225.606617 232.228957 
L 225.67156 234.062552 
L 225.736504 233.833353 
L 225.866392 231.426759 
L 225.99628 236.469146 
L 226.061224 235.552349 
L 226.191112 233.145755 
L 226.320999 237.042145 
L 226.385943 236.812946 
L 226.515831 232.687356 
L 226.645719 235.666948 
L 226.710663 235.323149 
L 226.840551 233.947953 
L 226.970438 248.387517 
L 227.035382 246.897721 
L 227.295158 177.335693 
L 227.48999 67.205366 
L 227.814709 231.426759 
L 227.879653 224.665376 
L 228.074485 222.71718 
L 228.139429 223.404779 
L 228.33426 228.217967 
L 228.464148 226.728171 
L 228.594036 230.166162 
L 228.723924 226.269772 
L 228.788868 226.95737 
L 228.918755 228.790965 
L 229.048643 223.977777 
L 229.113587 224.321577 
L 229.243475 228.447166 
L 229.308419 227.874168 
L 229.438307 224.665376 
L 229.568194 226.95737 
L 229.763026 222.71718 
L 229.892914 224.436176 
L 230.087746 221.571183 
L 230.217633 224.550776 
L 230.412465 218.362391 
L 230.477409 219.737588 
L 230.542353 221.800383 
L 230.607297 221.341984 
L 230.737185 218.591591 
L 230.802128 218.93539 
L 230.867072 219.966787 
L 230.932016 219.508388 
L 231.061904 216.184997 
L 231.191792 217.674793 
L 231.256736 216.757995 
L 231.386624 211.371809 
L 231.581455 215.153599 
L 231.711343 210.569611 
L 231.776287 210.68421 
L 231.841231 211.142609 
L 232.036062 204.152027 
L 232.101006 205.871022 
L 232.16595 207.704618 
L 232.230894 206.78782 
L 232.295838 203.006029 
L 232.360782 203.120629 
L 232.49067 207.131619 
L 232.555614 207.246219 
L 232.620558 206.90242 
L 232.685501 207.131619 
L 232.815389 212.976205 
L 232.880333 212.517806 
L 232.945277 212.403206 
L 233.075165 218.133192 
L 233.205053 223.290179 
L 233.33494 218.362391 
L 233.464828 227.186569 
L 233.529772 226.613571 
L 233.65966 223.977777 
L 233.789548 229.020165 
L 233.854492 228.676366 
L 233.984379 224.436176 
L 234.114267 227.415769 
L 234.179211 227.07197 
L 234.309099 225.009175 
L 234.438987 227.759568 
L 234.503931 227.301169 
L 234.633818 225.123775 
L 234.763706 228.447166 
L 234.958538 225.467574 
L 235.088426 229.020165 
L 235.15337 228.790965 
L 235.283257 225.811373 
L 235.413145 228.676366 
L 235.478089 227.988767 
L 235.607977 226.269772 
L 235.802809 230.166162 
L 235.932696 225.238374 
L 236.062584 231.885158 
L 236.127528 230.85376 
L 236.257416 226.269772 
L 236.387304 231.08296 
L 236.517191 227.759568 
L 236.582135 228.103367 
L 236.712023 230.96836 
L 236.776967 229.936963 
L 236.906855 228.217967 
L 237.036743 232.458156 
L 237.101687 231.541359 
L 237.231574 227.186569 
L 237.426406 230.624561 
L 237.556294 228.217967 
L 237.686182 232.916555 
L 237.751125 231.770558 
L 237.881013 228.447166 
L 238.010901 232.343557 
L 238.205733 228.447166 
L 238.335621 232.572756 
L 238.400564 231.885158 
L 238.465508 229.249364 
L 238.530452 229.707763 
L 238.66034 231.312159 
L 238.725284 230.85376 
L 238.855172 229.134765 
L 238.98506 232.114357 
L 239.050003 231.426759 
L 239.179891 228.905565 
L 239.309779 232.228957 
L 239.439667 230.280762 
L 239.504611 230.395361 
L 239.634499 233.145755 
L 239.764386 227.759568 
L 239.82933 227.988767 
L 239.959218 234.520951 
L 240.024162 232.916555 
L 240.15405 230.96836 
L 240.283938 233.145755 
L 240.413825 231.655958 
L 240.478769 231.999757 
L 240.608657 234.406351 
L 240.803489 230.166162 
L 240.933376 235.09395 
L 241.128208 229.707763 
L 241.258096 237.385944 
L 241.32304 235.20855 
L 241.452928 228.103367 
L 241.517872 228.217967 
L 241.582815 227.988767 
L 241.712703 223.06098 
L 241.777647 223.519378 
L 241.907535 230.624561 
L 241.972479 230.280762 
L 242.037423 229.707763 
L 242.232254 235.781548 
L 242.362142 230.96836 
L 242.427086 231.312159 
L 242.556974 236.010748 
L 242.686862 233.031155 
L 242.881693 238.417342 
L 242.946637 236.354547 
L 243.011581 234.177152 
L 243.076525 234.86475 
L 243.206413 238.99034 
L 243.401245 232.916555 
L 243.531132 237.156745 
L 243.596076 236.010748 
L 243.66102 237.958943 
L 243.790908 249.533514 
L 243.920796 229.249364 
L 244.115627 153.269753 
L 244.310459 65.142571 
L 244.570235 237.156745 
L 244.635179 235.552349 
L 244.765066 226.040572 
L 244.894954 228.103367 
L 244.959898 226.95737 
L 245.024842 227.759568 
L 245.15473 233.489554 
L 245.349562 228.676366 
L 245.479449 233.260354 
L 245.544393 232.572756 
L 245.609337 229.707763 
L 245.674281 230.509961 
L 245.739225 232.687356 
L 245.804169 231.999757 
L 245.934057 227.530369 
L 246.128888 233.718753 
L 246.193832 233.489554 
L 246.32372 229.249364 
L 246.453608 233.489554 
L 246.583496 228.447166 
L 246.64844 228.561766 
L 246.778327 230.280762 
L 246.973159 226.498971 
L 247.103047 230.509961 
L 247.232935 223.748578 
L 247.297878 224.092377 
L 247.427766 226.84277 
L 247.557654 223.633978 
L 247.622598 224.321577 
L 247.687542 226.040572 
L 247.752486 225.925973 
L 247.947317 220.195987 
L 248.012261 221.800383 
L 248.077205 221.685783 
L 248.272037 218.362391 
L 248.401925 221.112784 
L 248.596756 215.497398 
L 248.6617 216.528796 
L 248.726644 217.216394 
L 248.856532 212.059407 
L 248.921476 212.288606 
L 249.051364 215.153599 
L 249.181252 211.601008 
L 249.246195 212.174007 
L 249.441027 216.414196 
L 249.505971 214.8098 
L 249.570915 215.726598 
L 249.765747 224.206977 
L 249.895634 227.186569 
L 250.025522 231.541359 
L 250.090466 230.85376 
L 250.220354 232.572756 
L 250.415186 234.635551 
L 250.480129 233.260354 
L 250.674961 239.21954 
L 250.869793 234.406351 
L 250.999681 237.615144 
L 251.129568 234.406351 
L 251.259456 237.385944 
L 251.3244 237.156745 
L 251.519232 235.20855 
L 251.64912 239.563339 
L 251.714064 238.417342 
L 251.779007 234.97935 
L 251.843951 236.927545 
L 251.973839 241.511534 
L 252.103727 234.86475 
L 252.298559 241.969933 
L 252.428446 236.354547 
L 252.49339 236.927545 
L 252.623278 241.053135 
L 252.81811 236.927545 
L 252.947998 242.428332 
L 253.142829 237.615144 
L 253.272717 241.511534 
L 253.337661 240.938535 
L 253.402605 239.907138 
L 253.597437 241.969933 
L 253.727324 238.073542 
L 253.792268 239.21954 
L 253.922156 244.720326 
L 254.052044 238.99034 
L 254.116988 240.021738 
L 254.311819 243.00133 
L 254.376763 242.428332 
L 254.441707 241.511534 
L 254.571595 243.574329 
L 254.701483 238.99034 
L 254.896315 243.688928 
L 255.026202 240.709336 
L 255.091146 241.511534 
L 255.221034 245.637124 
L 255.350922 241.396934 
L 255.48081 244.491126 
L 255.545754 244.032728 
L 255.675641 242.657531 
L 255.805529 245.293324 
L 255.870473 245.178725 
L 256.000361 240.480136 
L 256.130249 246.095523 
L 256.195192 244.605726 
L 256.32508 239.677938 
L 256.454968 243.803528 
L 256.519912 245.522524 
L 256.6498 241.167735 
L 256.844631 247.929118 
L 257.104407 237.042145 
L 257.169351 239.563339 
L 257.234295 238.531941 
L 257.364183 233.145755 
L 257.559014 239.907138 
L 257.623958 238.99034 
L 257.81879 244.605726 
L 257.948678 238.99034 
L 258.143509 248.387517 
L 258.273397 244.834926 
L 258.338341 245.293324 
L 258.468229 248.960515 
L 258.598117 246.095523 
L 258.663061 246.324722 
L 258.792948 249.189715 
L 258.922836 244.720326 
L 258.98778 245.407924 
L 259.117668 248.387517 
L 259.247556 245.293324 
L 259.377443 261.451884 
L 259.442387 258.357692 
L 259.702163 167.021719 
L 259.896995 73.049952 
L 260.221714 246.210122 
L 260.286658 241.740733 
L 260.351602 238.99034 
L 260.416546 240.136337 
L 260.546434 237.844343 
L 260.741265 244.491126 
L 260.806209 243.345129 
L 260.871153 241.282334 
L 260.936097 242.542931 
L 261.001041 244.605726 
L 261.065985 243.574329 
L 261.195873 242.313732 
L 261.390704 246.095523 
L 261.520592 240.136337 
L 261.585536 241.626134 
L 261.780368 244.147327 
L 261.845312 243.345129 
L 261.910256 243.918128 
L 261.975199 245.178725 
L 262.170031 241.053135 
L 262.234975 242.428332 
L 262.364863 246.210122 
L 262.494751 239.21954 
L 262.559694 241.167735 
L 262.624638 241.969933 
L 262.81947 240.594736 
L 262.949358 242.428332 
L 263.14419 238.87574 
L 263.274077 241.511534 
L 263.339021 240.938535 
L 263.468909 234.520951 
L 263.533853 235.896148 
L 263.663741 238.073542 
L 263.728685 237.042145 
L 263.858572 234.177152 
L 263.923516 234.97935 
L 264.118348 232.228957 
L 264.183292 232.572756 
L 264.248236 231.999757 
L 264.31318 232.458156 
L 264.443068 230.395361 
L 264.572955 231.08296 
L 264.702843 224.779975 
L 264.767787 225.123775 
L 264.962619 229.134765 
L 265.027563 228.676366 
L 265.092507 227.186569 
L 265.287338 235.437749 
L 265.417226 234.86475 
L 265.612058 245.064125 
L 265.677002 244.147327 
L 265.741945 241.167735 
L 265.936777 246.897721 
L 266.001721 247.01232 
L 266.066665 245.751723 
L 266.131609 246.210122 
L 266.196553 249.189715 
L 266.261497 248.502117 
L 266.391384 246.439322 
L 266.456328 246.668521 
L 266.586216 248.158317 
L 266.716104 243.574329 
L 266.845992 249.418914 
L 266.910936 249.189715 
L 266.97588 247.929118 
L 267.040823 248.731316 
L 267.170711 251.940108 
L 267.300599 246.210122 
L 267.365543 244.376527 
L 267.560375 250.450312 
L 267.690262 244.491126 
L 267.885094 250.106513 
L 268.014982 247.24152 
L 268.209814 250.794111 
L 268.339701 248.158317 
L 268.404645 248.845916 
L 268.469589 251.710909 
L 268.534533 251.481709 
L 268.664421 248.043718 
L 268.794309 249.533514 
L 268.859253 250.794111 
L 268.924196 250.679511 
L 268.98914 250.221112 
L 269.119028 253.888303 
L 269.31386 246.439322 
L 269.378804 248.616716 
L 269.443748 251.596309 
L 269.508692 251.25251 
L 269.573635 249.648114 
L 269.638579 249.762713 
L 269.703523 249.533514 
L 269.833411 251.940108 
L 269.898355 251.02331 
L 269.963299 249.648114 
L 270.028243 249.762713 
L 270.093187 251.596309 
L 270.158131 250.794111 
L 270.288018 247.929118 
L 270.417906 250.794111 
L 270.48285 250.221112 
L 270.612738 246.324722 
L 270.677682 247.585319 
L 270.80757 250.335712 
L 270.937457 247.585319 
L 271.132289 251.13791 
L 271.262177 246.095523 
L 271.327121 248.158317 
L 271.392065 251.481709 
L 271.457008 250.564911 
L 271.586896 245.407924 
L 271.781728 252.169307 
L 271.97656 245.064125 
L 272.041504 245.637124 
L 272.301279 238.417342 
L 272.431167 240.938535 
L 272.496111 240.250937 
L 272.561055 240.365537 
L 272.755886 248.387517 
L 272.82083 247.24152 
L 272.885774 244.720326 
L 272.950718 246.095523 
L 273.080606 248.502117 
L 273.14555 248.043718 
L 273.210494 246.439322 
L 273.275438 247.699919 
L 273.405325 252.398507 
L 273.535213 246.668521 
L 273.665101 251.940108 
L 273.730045 251.02331 
L 273.859933 246.095523 
L 273.989821 250.794111 
L 274.054764 248.845916 
L 274.184652 244.834926 
L 274.379484 263.40008 
L 274.574316 214.466001 
L 274.834091 73.508351 
L 274.899035 76.602543 
L 275.158811 243.11593 
L 275.223755 244.491126 
L 275.418586 235.323149 
L 275.48353 235.781548 
L 275.678362 242.88673 
L 275.80825 239.563339 
L 275.938137 243.345129 
L 276.132969 239.792538 
L 276.262857 242.313732 
L 276.327801 241.167735 
L 276.457689 237.500544 
L 276.587576 241.855333 
L 276.65252 240.823936 
L 276.847352 237.500544 
L 276.912296 239.792538 
L 276.97724 238.531941 
L 277.107128 235.20855 
L 277.172072 236.927545 
L 277.237015 235.896148 
L 277.431847 232.801955 
L 277.561735 236.239947 
L 277.756567 230.739161 
L 277.886454 233.489554 
L 278.081286 227.644968 
L 278.14623 228.332567 
L 278.211174 230.85376 
L 278.276118 230.051562 
L 278.406006 223.748578 
L 278.535893 227.415769 
L 278.730725 221.914982 
L 278.860613 224.206977 
L 279.055445 217.560193 
L 279.120388 218.247792 
L 279.185332 219.737588 
L 279.380164 214.351401 
L 279.510052 217.560193 
L 279.704884 211.257209 
L 279.899715 215.611998 
L 280.029603 212.976205 
L 280.549154 229.936963 
L 280.679042 228.905565 
L 280.80893 231.999757 
L 280.873874 231.770558 
L 280.938818 230.85376 
L 281.068705 233.031155 
L 281.133649 234.750151 
L 281.198593 233.604153 
L 281.328481 229.249364 
L 281.458369 233.145755 
L 281.6532 227.415769 
L 281.783088 233.031155 
L 281.848032 231.655958 
L 281.912976 230.85376 
L 281.97792 230.96836 
L 282.107808 232.343557 
L 282.302639 229.936963 
L 282.432527 232.114357 
L 282.627359 229.134765 
L 282.757247 232.687356 
L 282.952078 228.790965 
L 283.081966 232.916555 
L 283.14691 231.770558 
L 283.211854 228.676366 
L 283.276798 228.790965 
L 283.406686 232.687356 
L 283.47163 231.312159 
L 283.601517 229.020165 
L 283.731405 233.031155 
L 283.926237 226.384371 
L 284.056125 232.228957 
L 284.121069 231.426759 
L 284.250956 228.447166 
L 284.380844 231.541359 
L 284.510732 227.07197 
L 284.575676 227.988767 
L 284.705564 231.885158 
L 284.900395 227.988767 
L 285.030283 230.739161 
L 285.095227 230.509961 
L 285.225115 227.988767 
L 285.419947 231.541359 
L 285.549834 224.665376 
L 285.679722 229.249364 
L 285.744666 228.790965 
L 285.874554 225.582173 
L 286.004442 230.051562 
L 286.069386 229.249364 
L 286.199273 226.269772 
L 286.329161 229.936963 
L 286.459049 225.696773 
L 286.523993 225.925973 
L 286.653881 227.301169 
L 286.718824 226.728171 
L 286.783768 225.123775 
L 286.848712 225.238374 
L 286.9786 229.478564 
L 287.108488 223.290179 
L 287.173432 224.321577 
L 287.30332 228.561766 
L 287.498151 224.665376 
L 287.563095 225.925973 
L 287.628039 227.644968 
L 287.692983 227.415769 
L 287.822871 225.582173 
L 287.887815 225.925973 
L 288.017702 220.998185 
L 288.082646 216.299596 
L 288.14759 216.528796 
L 288.277478 220.310586 
L 288.407366 217.674793 
L 288.47231 218.591591 
L 288.602198 225.925973 
L 288.667141 225.696773 
L 288.732085 224.206977 
L 288.797029 224.550776 
L 288.926917 226.155172 
L 288.991861 226.040572 
L 289.056805 223.06098 
L 289.121749 223.748578 
L 289.251637 228.332567 
L 289.381524 225.352974 
L 289.446468 224.436176 
L 289.576356 229.249364 
L 289.771188 223.863178 
L 289.901075 227.644968 
L 290.030963 223.290179 
L 290.095907 224.206977 
L 290.225795 235.09395 
L 290.290739 240.136337 
L 290.485571 207.246219 
L 290.680402 114.878848 
L 290.81029 58.724987 
L 291.13501 221.227384 
L 291.329841 209.423613 
L 291.524673 216.987195 
L 291.589617 216.184997 
L 291.654561 215.268199 
L 291.784449 219.164589 
L 291.849392 218.247792 
L 291.97928 215.382799 
L 292.174112 219.164589 
L 292.239056 218.133192 
L 292.368944 213.205404 
L 292.498831 218.018592 
L 292.563775 216.757995 
L 292.693663 213.320004 
L 292.823551 218.362391 
L 293.018383 211.371809 
L 293.14827 215.611998 
L 293.278158 210.340411 
L 293.343102 210.455011 
L 293.47299 213.549203 
L 293.667822 208.621415 
L 293.732765 209.652813 
L 293.797709 210.569611 
L 293.992541 206.100222 
L 294.122429 208.965215 
L 294.317261 201.516233 
L 294.382204 202.77683 
L 294.447148 203.808227 
L 294.64198 199.224239 
L 294.706924 201.630833 
L 294.771868 200.828635 
L 294.9667 195.098649 
L 295.096587 196.703045 
L 295.291419 192.004457 
L 295.421307 194.181851 
L 295.551195 188.795665 
L 295.616139 188.910264 
L 295.746026 192.577455 
L 295.81097 191.546058 
L 295.875914 190.74386 
L 295.940858 192.348256 
L 296.070746 199.453438 
L 296.13569 199.224239 
L 296.200634 200.370236 
L 296.460409 212.174007 
L 296.525353 210.79881 
L 296.655241 215.153599 
L 296.720185 217.903992 
L 296.785129 217.674793 
L 296.850073 215.841198 
L 296.915016 217.101794 
L 297.044904 219.508388 
L 297.174792 215.955797 
L 297.239736 217.330994 
L 297.369624 219.852188 
L 297.564455 214.9244 
L 297.694343 217.789393 
L 297.889175 215.382799 
L 298.019063 218.82079 
L 298.084007 218.362391 
L 298.148951 216.757995 
L 298.213894 217.330994 
L 298.343782 221.112784 
L 298.408726 220.539786 
L 298.538614 216.070397 
L 298.668502 221.456584 
L 298.798389 218.362391 
L 298.863333 219.508388 
L 298.928277 221.914982 
L 298.993221 220.425186 
L 299.188053 216.757995 
L 299.317941 222.258782 
L 299.382885 221.571183 
L 299.512772 218.133192 
L 299.64266 221.571183 
L 299.837492 218.362391 
L 299.96738 223.519378 
L 300.097267 219.393789 
L 300.162211 220.539786 
L 300.292099 224.321577 
L 300.421987 220.998185 
L 300.486931 222.029582 
L 300.616819 223.863178 
L 300.681763 223.175579 
L 300.746706 221.227384 
L 300.81165 221.456584 
L 300.941538 223.06098 
L 301.071426 219.966787 
L 301.201314 223.175579 
L 301.266258 224.779975 
L 301.396145 220.998185 
L 301.461089 222.373381 
L 301.590977 225.123775 
L 301.655921 224.206977 
L 301.720865 221.571183 
L 301.785809 222.258782 
L 301.915697 226.155172 
L 302.045584 221.571183 
L 302.110528 222.83178 
L 302.240416 226.613571 
L 302.370304 222.71718 
L 302.565136 227.186569 
L 302.695023 223.633978 
L 302.759967 225.123775 
L 302.889855 227.301169 
L 303.084687 224.206977 
L 303.214575 228.217967 
L 303.409406 224.436176 
L 303.539294 227.415769 
L 303.669182 224.436176 
L 303.734126 224.665376 
L 303.864014 230.166162 
L 303.993901 224.779975 
L 304.058845 226.384371 
L 304.188733 229.478564 
L 304.318621 225.123775 
L 304.513453 230.166162 
L 304.578396 229.593163 
L 304.64334 227.759568 
L 304.708284 228.217967 
L 304.838172 231.655958 
L 305.033004 226.728171 
L 305.162891 230.624561 
L 305.682443 221.112784 
L 305.81233 223.863178 
L 305.877274 223.290179 
L 305.942218 222.71718 
L 306.13705 233.145755 
L 306.201994 231.312159 
L 306.331882 227.415769 
L 306.461769 233.260354 
L 306.591657 229.249364 
L 306.656601 230.509961 
L 306.786489 235.09395 
L 306.916377 228.561766 
L 306.981321 229.707763 
L 307.111208 233.031155 
L 307.241096 229.707763 
L 307.30604 230.280762 
L 307.435928 234.291752 
L 307.500872 233.374954 
L 307.565816 231.770558 
L 307.63076 235.20855 
L 307.760647 249.991913 
L 308.020423 189.712462 
L 308.215255 74.998147 
L 308.280199 81.98873 
L 308.539974 232.572756 
L 308.734806 223.175579 
L 309.059525 229.936963 
L 309.124469 228.447166 
L 309.189413 227.644968 
L 309.254357 229.478564 
L 309.319301 229.363964 
L 309.384245 229.478564 
L 309.579077 226.84277 
L 309.708964 229.936963 
L 309.838852 226.728171 
L 309.903796 226.84277 
L 310.033684 229.936963 
L 310.163572 225.925973 
L 310.228516 226.613571 
L 310.293459 229.478564 
L 310.358403 228.676366 
L 310.488291 225.123775 
L 310.618179 226.84277 
L 310.683123 226.613571 
L 310.813011 222.144182 
L 311.007842 225.238374 
L 311.13773 222.258782 
L 311.267618 223.519378 
L 311.332562 222.83178 
L 311.527393 217.674793 
L 311.592337 219.508388 
L 311.657281 219.164589 
L 311.852113 216.643396 
L 311.982001 215.726598 
L 312.111889 213.549203 
L 312.241776 214.580601 
L 312.30672 214.122202 
L 312.501552 208.736015 
L 312.63144 211.142609 
L 312.761328 206.214821 
L 312.826271 206.558621 
L 312.891215 207.246219 
L 313.021103 203.464428 
L 313.086047 202.203831 
L 313.280879 208.965215 
L 313.345823 207.246219 
L 313.410767 206.67322 
L 313.670542 214.8098 
L 313.735486 215.153599 
L 313.930318 223.748578 
L 313.995262 223.290179 
L 314.060205 222.029582 
L 314.255037 229.134765 
L 314.384925 225.811373 
L 314.514813 231.08296 
L 314.579757 230.509961 
L 314.709644 227.07197 
L 314.904476 231.197559 
L 314.96942 230.509961 
L 315.099308 228.676366 
L 315.229196 229.822363 
L 315.359083 226.728171 
L 315.488971 229.822363 
L 315.553915 228.676366 
L 315.683803 225.696773 
L 315.878635 231.770558 
L 316.008522 227.530369 
L 316.073466 228.332567 
L 316.203354 230.96836 
L 316.333242 230.280762 
L 316.46313 233.604153 
L 316.528074 233.031155 
L 316.657961 229.249364 
L 316.787849 234.406351 
L 316.852793 233.374954 
L 316.982681 229.134765 
L 317.047625 229.822363 
L 317.177513 233.031155 
L 317.3074 231.08296 
L 317.437288 234.635551 
L 317.63212 230.96836 
L 317.762008 235.437749 
L 317.826952 235.20855 
L 317.956839 233.145755 
L 318.086727 236.239947 
L 318.216615 233.833353 
L 318.281559 231.885158 
L 318.411447 236.812946 
L 318.476391 236.698346 
L 318.606278 234.177152 
L 318.671222 234.520951 
L 318.736166 236.354547 
L 318.80111 235.437749 
L 318.930998 232.572756 
L 319.060886 237.156745 
L 319.12583 236.927545 
L 319.255717 233.489554 
L 319.450549 238.531941 
L 319.580437 232.572756 
L 319.710325 237.958943 
L 319.775269 237.385944 
L 319.905156 233.260354 
L 319.9701 233.489554 
L 320.035044 237.271344 
L 320.099988 237.042145 
L 320.229876 235.781548 
L 320.359764 238.646541 
L 320.554595 235.552349 
L 320.749427 239.563339 
L 320.879315 235.666948 
L 321.009203 239.677938 
L 321.074146 239.448739 
L 321.204034 236.469146 
L 321.398866 240.938535 
L 321.528754 237.729743 
L 321.723585 240.938535 
L 321.853473 237.958943 
L 321.983361 240.480136 
L 322.048305 240.594736 
L 322.178193 237.156745 
L 322.308081 241.855333 
L 322.373024 240.365537 
L 322.437968 237.042145 
L 322.502912 237.729743 
L 322.6328 241.969933 
L 322.697744 241.167735 
L 322.827632 237.844343 
L 323.022463 245.064125 
L 323.282239 235.437749 
L 323.347183 235.552349 
L 323.477071 230.280762 
L 323.671902 239.563339 
L 323.736846 238.761141 
L 323.80179 238.188142 
L 323.996622 244.949525 
L 324.12651 237.500544 
L 324.191454 239.677938 
L 324.321341 244.834926 
L 324.451229 241.740733 
L 324.581117 245.751723 
L 324.646061 244.720326 
L 324.775949 243.23053 
L 324.905836 245.751723 
L 324.97078 245.293324 
L 325.100668 242.542931 
L 325.230556 246.897721 
L 325.360444 244.147327 
L 325.425388 244.720326 
L 325.555275 259.962088 
L 325.750107 216.070397 
L 326.009883 73.73755 
L 326.074827 80.040534 
L 326.334602 243.23053 
L 326.594378 236.125347 
L 326.659322 236.239947 
L 326.724266 235.896148 
L 326.854153 242.428332 
L 326.919097 241.626134 
L 327.048985 238.531941 
L 327.178873 243.00133 
L 327.243817 241.740733 
L 327.373705 238.531941 
L 327.503592 241.855333 
L 327.568536 241.740733 
L 327.698424 239.10494 
L 327.763368 239.792538 
L 327.828312 240.594736 
L 327.893256 240.021738 
L 328.023144 238.417342 
L 328.153031 242.542931 
L 328.217975 241.282334 
L 328.347863 238.646541 
L 328.477751 241.167735 
L 328.542695 240.594736 
L 328.672583 235.781548 
L 328.737526 236.927545 
L 328.80247 239.21954 
L 328.867414 238.761141 
L 328.997302 234.062552 
L 329.062246 235.20855 
L 329.12719 236.698346 
L 329.192134 236.583746 
L 329.322021 234.177152 
L 329.451909 235.781548 
L 329.581797 230.166162 
L 329.646741 230.85376 
L 329.776629 234.062552 
L 329.97146 227.301169 
L 330.036404 227.415769 
L 330.101348 230.166162 
L 330.166292 229.822363 
L 330.29618 225.123775 
L 330.426068 227.644968 
L 330.620899 220.539786 
L 330.685843 222.258782 
L 330.815731 224.321577 
L 330.945619 220.768985 
L 331.075507 225.925973 
L 331.205395 222.83178 
L 331.78989 243.23053 
L 331.854834 242.199132 
L 331.919777 241.053135 
L 332.114609 246.783121 
L 332.179553 245.866323 
L 332.244497 244.491126 
L 332.374385 250.450312 
L 332.439329 250.106513 
L 332.569216 246.668521 
L 332.764048 251.596309 
L 332.893936 247.470719 
L 333.023824 251.13791 
L 333.218655 246.095523 
L 333.348543 251.13791 
L 333.413487 250.679511 
L 333.543375 247.12692 
L 333.673263 251.481709 
L 333.738207 251.367109 
L 333.868094 247.12692 
L 333.997982 253.086105 
L 334.062926 252.856906 
L 334.192814 249.533514 
L 334.257758 249.762713 
L 334.322702 252.627706 
L 334.387646 251.481709 
L 334.452589 248.272917 
L 334.517533 248.387517 
L 334.647421 252.856906 
L 334.777309 252.398507 
L 334.842253 250.564911 
L 334.907197 251.596309 
L 334.972141 253.544504 
L 335.037085 252.627706 
L 335.102028 250.794111 
L 335.166972 251.02331 
L 335.231916 252.856906 
L 335.29686 252.283907 
L 335.426748 252.971505 
L 335.491692 253.086105 
L 335.556636 253.544504 
L 335.686523 255.492699 
L 335.816411 250.221112 
L 335.881355 250.794111 
L 336.011243 254.461302 
L 336.141131 251.25251 
L 336.271019 256.638696 
L 336.46585 252.169307 
L 336.595738 256.065698 
L 336.725626 250.221112 
L 336.79057 251.13791 
L 336.920458 255.607299 
L 337.115289 253.200705 
L 337.245177 256.753296 
L 337.440009 250.908711 
L 337.63484 258.013893 
L 337.764728 253.773703 
L 337.894616 257.555494 
L 337.95956 255.836498 
L 338.089448 252.398507 
L 338.219336 256.180297 
L 338.284279 254.690501 
L 338.414167 251.13791 
L 338.544055 259.27449 
L 338.608999 259.15989 
L 338.738887 253.888303 
L 338.868774 256.638696 
L 338.933718 256.294897 
L 339.063606 252.971505 
L 339.193494 257.326295 
L 339.323382 252.513107 
L 339.388326 253.086105 
L 339.518213 259.38909 
L 339.583157 258.128493 
L 339.713045 252.971505 
L 339.842933 256.294897 
L 339.972821 250.908711 
L 340.037765 251.367109 
L 340.102709 253.086105 
L 340.167652 252.398507 
L 340.29754 244.147327 
L 340.492372 255.721899 
L 340.557316 254.690501 
L 340.62226 253.429904 
L 340.817091 258.128493 
L 341.011923 253.773703 
L 341.206755 259.847488 
L 341.336643 257.784694 
L 341.531474 261.222685 
L 341.661362 256.982495 
L 341.79125 259.732889 
L 341.856194 258.930691 
L 341.921138 256.524097 
L 342.310801 270.276063 
L 342.505633 222.487981 
L 342.765408 87.489516 
L 342.830352 97.345091 
L 343.090128 259.38909 
L 343.155072 257.211695 
L 343.28496 247.929118 
L 343.414847 252.627706 
L 343.544735 250.450312 
L 343.804511 255.492699 
L 343.934399 253.888303 
L 343.999342 255.2635 
L 344.064286 252.513107 
L 344.12923 253.888303 
L 344.259118 252.627706 
L 344.389006 257.440894 
L 344.518894 251.710909 
L 344.648781 255.951098 
L 344.908557 252.971505 
L 345.038445 255.378099 
L 345.233276 249.762713 
L 345.29822 250.335712 
L 345.363164 253.544504 
L 345.428108 252.513107 
L 345.493052 249.533514 
L 345.557996 250.335712 
L 345.62294 252.742306 
L 345.687884 252.513107 
L 345.817772 247.929118 
L 345.882715 248.502117 
L 346.012603 251.13791 
L 346.077547 250.106513 
L 346.207435 245.178725 
L 346.337323 247.929118 
L 346.532154 243.23053 
L 346.597098 244.491126 
L 346.662042 245.407924 
L 346.726986 245.064125 
L 346.856874 239.907138 
L 346.986762 242.657531 
L 347.051706 242.199132 
L 347.181593 237.271344 
L 347.311481 241.969933 
L 347.506313 233.833353 
L 347.571257 235.437749 
L 347.636201 236.812946 
L 347.766088 232.687356 
L 347.831032 233.489554 
L 347.96092 239.448739 
L 348.090808 237.385944 
L 348.155752 238.99034 
L 348.350584 247.585319 
L 348.415527 245.407924 
L 348.480471 247.01232 
L 348.610359 254.461302 
L 348.740247 251.02331 
L 348.935079 256.065698 
L 349.000023 254.919701 
L 349.064966 252.169307 
L 349.12991 252.742306 
L 349.194854 255.2635 
L 349.259798 255.1489 
L 349.389686 252.398507 
L 349.45463 253.086105 
L 349.584518 256.065698 
L 349.649462 255.492699 
L 349.714405 251.940108 
L 349.779349 252.971505 
L 349.909237 257.899293 
L 350.039125 253.544504 
L 350.104069 254.690501 
L 350.169013 256.294897 
L 350.233957 255.492699 
L 350.363844 251.940108 
L 350.428788 252.513107 
L 350.558676 256.982495 
L 350.688564 255.1489 
L 350.883396 257.097095 
L 351.013283 251.825508 
L 351.078227 252.627706 
L 351.208115 256.065698 
L 351.338003 251.940108 
L 351.402947 252.398507 
L 351.532835 257.555494 
L 351.662722 253.888303 
L 351.79261 257.784694 
L 351.857554 256.524097 
L 351.987442 253.200705 
L 352.052386 253.315305 
L 352.182274 256.409497 
L 352.312161 253.888303 
L 352.377105 254.117503 
L 352.506993 257.555494 
L 352.571937 256.638696 
L 352.636881 253.544504 
L 352.701825 253.773703 
L 352.831713 257.670094 
L 353.026544 252.971505 
L 353.156432 255.836498 
L 353.221376 255.607299 
L 353.28632 255.492699 
L 353.351264 254.575901 
L 353.481152 257.440894 
L 353.611039 252.856906 
L 353.675983 253.773703 
L 353.870815 256.294897 
L 354.000703 254.117503 
L 354.13059 256.065698 
L 354.260478 251.596309 
L 354.325422 252.283907 
L 354.45531 258.243092 
L 354.585198 252.742306 
L 354.650142 253.773703 
L 354.780029 256.753296 
L 354.909917 252.398507 
L 354.974861 253.659104 
L 355.104749 256.180297 
L 355.169693 256.065698 
L 355.299581 252.971505 
L 355.429468 256.982495 
L 355.559356 255.2635 
L 355.754188 259.38909 
L 356.273739 245.407924 
L 356.403627 255.0343 
L 356.468571 254.805101 
L 356.533515 251.710909 
L 356.598459 253.888303 
L 356.728346 258.816091 
L 356.858234 253.200705 
L 356.923178 254.002903 
L 357.053066 261.108085 
L 357.11801 259.27449 
L 357.182954 256.409497 
L 357.247898 256.982495 
L 357.377785 259.503689 
L 357.507673 255.951098 
L 357.572617 256.638696 
L 357.702505 260.191288 
L 357.897337 255.951098 
L 358.157112 263.514679 
L 358.222056 271.19286 
L 358.351944 248.845916 
L 358.546776 163.812927 
L 358.741607 82.103329 
L 359.066327 253.659104 
L 359.196215 245.866323 
L 359.326102 249.762713 
L 359.45599 249.075115 
L 359.650822 251.481709 
L 359.78071 248.502117 
L 359.845653 249.762713 
L 359.910597 252.283907 
L 359.975541 252.169307 
L 360.170373 248.960515 
L 360.235317 251.13791 
L 360.300261 251.02331 
L 360.430149 247.12692 
L 360.560036 251.710909 
L 360.62498 251.13791 
L 360.754868 246.783121 
L 360.884756 249.533514 
L 360.9497 249.418914 
L 361.014644 248.731316 
L 361.144531 245.064125 
L 361.274419 248.845916 
L 361.469251 243.803528 
L 361.534195 245.980923 
L 361.599139 245.866323 
L 361.79397 241.282334 
L 361.858914 243.11593 
L 361.923858 242.313732 
L 362.053746 237.500544 
L 362.11869 237.729743 
L 362.248578 240.823936 
L 362.443409 235.896148 
L 362.573297 237.729743 
L 362.768129 231.885158 
L 362.833073 234.177152 
L 362.898017 233.833353 
L 363.027904 228.332567 
L 363.092848 229.822363 
L 363.157792 229.478564 
L 363.417568 223.863178 
L 363.547456 224.665376 
L 363.677343 222.144182 
L 363.872175 227.186569 
L 363.937119 226.384371 
L 364.131951 234.750151 
L 364.45667 244.032728 
L 364.521614 245.293324 
L 364.651502 240.709336 
L 364.846334 247.24152 
L 364.911278 247.12692 
L 364.976221 245.637124 
L 365.041165 245.866323 
L 365.171053 249.304315 
L 365.300941 244.491126 
L 365.365885 245.293324 
L 365.430829 247.470719 
L 365.495773 246.210122 
L 365.62566 243.00133 
L 365.820492 248.043718 
L 365.885436 246.439322 
L 365.95038 243.688928 
L 366.015324 244.834926 
L 366.145212 247.699919 
L 366.210155 247.12692 
L 366.275099 245.407924 
L 366.340043 246.324722 
L 366.469931 247.470719 
L 366.599819 244.491126 
L 366.664763 245.407924 
L 366.729707 246.553921 
L 366.794651 245.866323 
L 366.924538 242.772131 
L 367.11937 247.356119 
L 367.249258 244.261927 
L 367.314202 244.605726 
L 367.44409 248.158317 
L 367.638921 245.980923 
L 367.703865 247.585319 
L 367.768809 247.470719 
L 367.898697 243.459729 
L 368.028585 247.470719 
L 368.093529 247.01232 
L 368.158472 246.553921 
L 368.223416 245.293324 
L 368.353304 248.272917 
L 368.548136 243.574329 
L 368.742968 249.648114 
L 368.872855 244.834926 
L 369.002743 248.272917 
L 369.067687 247.12692 
L 369.197575 243.00133 
L 369.392406 248.387517 
L 369.522294 244.376527 
L 369.587238 244.491126 
L 369.717126 249.418914 
L 369.847014 245.293324 
L 369.911958 246.439322 
L 369.976902 249.304315 
L 370.041845 248.272917 
L 370.171733 243.688928 
L 370.366565 247.814518 
L 370.496453 244.605726 
L 370.561397 245.637124 
L 370.626341 248.502117 
L 370.691284 248.272917 
L 370.821172 244.032728 
L 370.95106 249.189715 
L 371.016004 248.502117 
L 371.145892 243.918128 
L 371.27578 248.272917 
L 371.340723 247.356119 
L 371.470611 244.376527 
L 371.535555 245.637124 
L 371.600499 249.075115 
L 371.665443 248.845916 
L 371.795331 243.688928 
L 371.990162 248.616716 
L 372.509714 237.844343 
L 372.639601 240.823936 
L 372.704545 238.99034 
L 372.769489 239.10494 
L 372.964321 248.845916 
L 373.094209 245.751723 
L 373.159153 247.01232 
L 373.28904 248.616716 
L 373.418928 246.439322 
L 373.61376 250.794111 
L 373.743648 247.12692 
L 373.873535 251.596309 
L 373.938479 250.450312 
L 374.068367 247.24152 
L 374.263199 251.02331 
L 374.393087 248.731316 
L 374.522974 263.743879 
L 374.587918 262.139483 
L 374.847694 184.440875 
L 375.042526 79.238336 
L 375.367245 245.178725 
L 375.432189 239.563339 
L 375.627021 237.844343 
L 375.886796 243.574329 
L 376.016684 242.313732 
L 376.146572 244.605726 
L 376.27646 242.313732 
L 376.341404 240.594736 
L 376.471291 243.918128 
L 376.536235 243.574329 
L 376.666123 239.677938 
L 376.860955 243.11593 
L 376.990843 239.907138 
L 377.055786 240.480136 
L 377.185674 242.88673 
L 377.315562 236.583746 
L 377.44545 242.313732 
L 377.640282 237.156745 
L 377.770169 239.21954 
L 377.900057 235.20855 
L 377.965001 232.801955 
L 378.094889 237.729743 
L 378.224777 233.947953 
L 378.28972 232.114357 
L 378.354664 233.145755 
L 378.419608 235.552349 
L 378.484552 235.323149 
L 378.61444 228.447166 
L 378.679384 229.134765 
L 378.744328 230.395361 
L 378.809272 230.166162 
L 378.939159 225.238374 
L 379.069047 227.988767 
L 379.263879 220.195987 
L 379.328823 221.227384 
L 379.393767 224.092377 
L 379.588598 216.987195 
L 379.718486 220.081387 
L 379.848374 217.216394 
L 379.913318 215.726598 
L 380.10815 220.425186 
L 380.173094 219.508388 
L 380.238037 220.195987 
L 380.432869 229.593163 
L 380.497813 229.249364 
L 380.562757 230.280762 
L 380.757589 240.136337 
L 380.887476 238.302742 
L 381.082308 244.720326 
L 381.212196 240.823936 
L 381.342084 246.324722 
L 381.407028 245.407924 
L 381.536915 242.428332 
L 381.731747 248.158317 
L 381.861635 242.199132 
L 381.991523 246.439322 
L 382.186354 242.313732 
L 382.316242 246.210122 
L 382.381186 244.834926 
L 382.511074 243.574329 
L 382.705906 247.12692 
L 382.835793 243.11593 
L 382.965681 248.387517 
L 383.030625 246.668521 
L 383.160513 243.459729 
L 383.290401 247.699919 
L 383.355345 247.356119 
L 383.485232 244.147327 
L 383.61512 250.106513 
L 383.745008 244.032728 
L 383.809952 244.376527 
L 384.004784 248.502117 
L 384.134671 244.147327 
L 384.264559 249.877313 
L 384.329503 249.418914 
L 384.459391 245.751723 
L 384.589279 249.877313 
L 384.654222 249.304315 
L 384.78411 244.834926 
L 384.978942 251.940108 
L 385.10883 244.491126 
L 385.238718 251.02331 
L 385.303661 250.679511 
L 385.433549 247.814518 
L 385.628381 252.398507 
L 385.758269 247.929118 
L 385.888157 250.908711 
L 385.9531 250.679511 
L 386.018044 247.699919 
L 386.082988 248.845916 
L 386.212876 252.742306 
L 386.342764 249.762713 
L 386.407708 250.221112 
L 386.537596 252.742306 
L 386.732427 247.814518 
L 386.862315 251.596309 
L 386.992203 248.616716 
L 387.057147 249.533514 
L 387.187034 251.940108 
L 387.381866 248.043718 
L 387.511754 252.856906 
L 387.576698 251.710909 
L 387.706586 247.24152 
L 387.836473 252.054708 
L 387.901417 251.367109 
L 388.031305 247.585319 
L 388.161193 252.513107 
L 388.356025 247.814518 
L 388.485912 252.856906 
L 388.550856 252.398507 
L 388.680744 249.304315 
L 388.810632 251.710909 
L 389.005464 248.502117 
L 389.070408 248.731316 
L 389.265239 244.147327 
L 389.330183 241.626134 
L 389.395127 242.084532 
L 389.525015 246.668521 
L 389.589959 245.751723 
L 389.78479 253.086105 
L 389.849734 252.169307 
L 389.979622 249.991913 
L 390.10951 253.429904 
L 390.174454 253.315305 
L 390.304342 251.940108 
L 390.434229 256.524097 
L 390.629061 250.564911 
L 390.758949 256.065698 
L 390.823893 255.951098 
L 390.953781 252.513107 
L 391.083668 255.951098 
L 391.148612 255.2635 
L 391.213556 254.461302 
L 391.2785 256.867896 
L 391.408388 270.276063 
L 391.60322 228.332567 
L 391.862995 91.958905 
L 391.927939 106.398469 
L 392.187715 253.086105 
L 392.317602 243.23053 
L 392.44749 245.407924 
L 392.512434 244.147327 
L 392.577378 244.605726 
L 392.707266 248.845916 
L 392.77221 248.272917 
L 392.902098 245.751723 
L 393.031985 249.991913 
L 393.226817 246.439322 
L 393.356705 249.304315 
L 393.551536 244.261927 
L 393.681424 247.12692 
L 393.746368 246.783121 
L 393.811312 244.834926 
L 393.876256 244.949525 
L 394.006144 247.814518 
L 394.071088 246.897721 
L 394.200975 244.261927 
L 394.330863 245.980923 
L 394.525695 242.084532 
L 394.655583 246.324722 
L 394.850414 238.87574 
L 394.980302 244.949525 
L 395.175134 238.073542 
L 395.305022 239.792538 
L 395.499853 234.750151 
L 395.629741 239.792538 
L 395.694685 238.188142 
L 395.824573 233.031155 
L 395.954461 236.812946 
L 396.149292 229.822363 
L 396.27918 232.458156 
L 396.474012 226.498971 
L 396.538956 228.103367 
L 396.6039 229.478564 
L 396.733787 223.748578 
L 396.798731 224.550776 
L 396.928619 230.96836 
L 396.993563 230.395361 
L 397.058507 229.134765 
L 397.318283 239.677938 
L 397.383226 238.87574 
L 397.44817 239.10494 
L 397.643002 246.095523 
L 397.707946 245.751723 
L 397.837834 250.221112 
L 397.902778 251.940108 
L 397.967722 251.596309 
L 398.097609 249.189715 
L 398.227497 253.200705 
L 398.292441 252.971505 
L 398.357385 250.794111 
L 398.422329 251.13791 
L 398.487273 252.513107 
L 398.487273 252.513107 
" style="fill:none;stroke:#1f77b4;stroke-linecap:square;stroke-width:1.5;"/>
   </g>
   <g id="patch_3">
    <path d="M 57.6 307.584 
L 57.6 41.472 
" style="fill:none;stroke:#000000;stroke-linecap:square;stroke-linejoin:miter;stroke-width:0.8;"/>
   </g>
   <g id="patch_4">
    <path d="M 414.72 307.584 
L 414.72 41.472 
" style="fill:none;stroke:#000000;stroke-linecap:square;stroke-linejoin:miter;stroke-width:0.8;"/>
   </g>
   <g id="patch_5">
    <path d="M 57.6 307.584 
L 414.72 307.584 
" style="fill:none;stroke:#000000;stroke-linecap:square;stroke-linejoin:miter;stroke-width:0.8;"/>
   </g>
   <g id="patch_6">
    <path d="M 57.6 41.472 
L 414.72 41.472 
" style="fill:none;stroke:#000000;stroke-linecap:square;stroke-linejoin:miter;stroke-width:0.8;"/>
   </g>
   <g id="text_15">
    <!-- original signal -->
    <g transform="translate(194.078438 35.472)scale(0.12 -0.12)">
     <defs>
      <path d="M 30.609375 48.390625 
Q 23.390625 48.390625 19.1875 42.75 
Q 14.984375 37.109375 14.984375 27.296875 
Q 14.984375 17.484375 19.15625 11.84375 
Q 23.34375 6.203125 30.609375 6.203125 
Q 37.796875 6.203125 41.984375 11.859375 
Q 46.1875 17.53125 46.1875 27.296875 
Q 46.1875 37.015625 41.984375 42.703125 
Q 37.796875 48.390625 30.609375 48.390625 
z
M 30.609375 56 
Q 42.328125 56 49.015625 48.375 
Q 55.71875 40.765625 55.71875 27.296875 
Q 55.71875 13.875 49.015625 6.21875 
Q 42.328125 -1.421875 30.609375 -1.421875 
Q 18.84375 -1.421875 12.171875 6.21875 
Q 5.515625 13.875 5.515625 27.296875 
Q 5.515625 40.765625 12.171875 48.375 
Q 18.84375 56 30.609375 56 
z
" id="DejaVuSans-111"/>
      <path d="M 41.109375 46.296875 
Q 39.59375 47.171875 37.8125 47.578125 
Q 36.03125 48 33.890625 48 
Q 26.265625 48 22.1875 43.046875 
Q 18.109375 38.09375 18.109375 28.8125 
L 18.109375 0 
L 9.078125 0 
L 9.078125 54.6875 
L 18.109375 54.6875 
L 18.109375 46.1875 
Q 20.953125 51.171875 25.484375 53.578125 
Q 30.03125 56 36.53125 56 
Q 37.453125 56 38.578125 55.875 
Q 39.703125 55.765625 41.0625 55.515625 
z
" id="DejaVuSans-114"/>
      <path d="M 9.421875 54.6875 
L 18.40625 54.6875 
L 18.40625 0 
L 9.421875 0 
z
M 9.421875 75.984375 
L 18.40625 75.984375 
L 18.40625 64.59375 
L 9.421875 64.59375 
z
" id="DejaVuSans-105"/>
      <path d="M 45.40625 27.984375 
Q 45.40625 37.75 41.375 43.109375 
Q 37.359375 48.484375 30.078125 48.484375 
Q 22.859375 48.484375 18.828125 43.109375 
Q 14.796875 37.75 14.796875 27.984375 
Q 14.796875 18.265625 18.828125 12.890625 
Q 22.859375 7.515625 30.078125 7.515625 
Q 37.359375 7.515625 41.375 12.890625 
Q 45.40625 18.265625 45.40625 27.984375 
z
M 54.390625 6.78125 
Q 54.390625 -7.171875 48.1875 -13.984375 
Q 42 -20.796875 29.203125 -20.796875 
Q 24.46875 -20.796875 20.265625 -20.09375 
Q 16.0625 -19.390625 12.109375 -17.921875 
L 12.109375 -9.1875 
Q 16.0625 -11.328125 19.921875 -12.34375 
Q 23.78125 -13.375 27.78125 -13.375 
Q 36.625 -13.375 41.015625 -8.765625 
Q 45.40625 -4.15625 45.40625 5.171875 
L 45.40625 9.625 
Q 42.625 4.78125 38.28125 2.390625 
Q 33.9375 0 27.875 0 
Q 17.828125 0 11.671875 7.65625 
Q 5.515625 15.328125 5.515625 27.984375 
Q 5.515625 40.671875 11.671875 48.328125 
Q 17.828125 56 27.875 56 
Q 33.9375 56 38.28125 53.609375 
Q 42.625 51.21875 45.40625 46.390625 
L 45.40625 54.6875 
L 54.390625 54.6875 
z
" id="DejaVuSans-103"/>
      <path d="M 54.890625 33.015625 
L 54.890625 0 
L 45.90625 0 
L 45.90625 32.71875 
Q 45.90625 40.484375 42.875 44.328125 
Q 39.84375 48.1875 33.796875 48.1875 
Q 26.515625 48.1875 22.3125 43.546875 
Q 18.109375 38.921875 18.109375 30.90625 
L 18.109375 0 
L 9.078125 0 
L 9.078125 54.6875 
L 18.109375 54.6875 
L 18.109375 46.1875 
Q 21.34375 51.125 25.703125 53.5625 
Q 30.078125 56 35.796875 56 
Q 45.21875 56 50.046875 50.171875 
Q 54.890625 44.34375 54.890625 33.015625 
z
" id="DejaVuSans-110"/>
      <path d="M 34.28125 27.484375 
Q 23.390625 27.484375 19.1875 25 
Q 14.984375 22.515625 14.984375 16.5 
Q 14.984375 11.71875 18.140625 8.90625 
Q 21.296875 6.109375 26.703125 6.109375 
Q 34.1875 6.109375 38.703125 11.40625 
Q 43.21875 16.703125 43.21875 25.484375 
L 43.21875 27.484375 
z
M 52.203125 31.203125 
L 52.203125 0 
L 43.21875 0 
L 43.21875 8.296875 
Q 40.140625 3.328125 35.546875 0.953125 
Q 30.953125 -1.421875 24.3125 -1.421875 
Q 15.921875 -1.421875 10.953125 3.296875 
Q 6 8.015625 6 15.921875 
Q 6 25.140625 12.171875 29.828125 
Q 18.359375 34.515625 30.609375 34.515625 
L 43.21875 34.515625 
L 43.21875 35.40625 
Q 43.21875 41.609375 39.140625 45 
Q 35.0625 48.390625 27.6875 48.390625 
Q 23 48.390625 18.546875 47.265625 
Q 14.109375 46.140625 10.015625 43.890625 
L 10.015625 52.203125 
Q 14.9375 54.109375 19.578125 55.046875 
Q 24.21875 56 28.609375 56 
Q 40.484375 56 46.34375 49.84375 
Q 52.203125 43.703125 52.203125 31.203125 
z
" id="DejaVuSans-97"/>
      <path d="M 9.421875 75.984375 
L 18.40625 75.984375 
L 18.40625 0 
L 9.421875 0 
z
" id="DejaVuSans-108"/>
      <path id="DejaVuSans-32"/>
      <path d="M 44.28125 53.078125 
L 44.28125 44.578125 
Q 40.484375 46.53125 36.375 47.5 
Q 32.28125 48.484375 27.875 48.484375 
Q 21.1875 48.484375 17.84375 46.4375 
Q 14.5 44.390625 14.5 40.28125 
Q 14.5 37.15625 16.890625 35.375 
Q 19.28125 33.59375 26.515625 31.984375 
L 29.59375 31.296875 
Q 39.15625 29.25 43.1875 25.515625 
Q 47.21875 21.78125 47.21875 15.09375 
Q 47.21875 7.46875 41.1875 3.015625 
Q 35.15625 -1.421875 24.609375 -1.421875 
Q 20.21875 -1.421875 15.453125 -0.5625 
Q 10.6875 0.296875 5.421875 2 
L 5.421875 11.28125 
Q 10.40625 8.6875 15.234375 7.390625 
Q 20.0625 6.109375 24.8125 6.109375 
Q 31.15625 6.109375 34.5625 8.28125 
Q 37.984375 10.453125 37.984375 14.40625 
Q 37.984375 18.0625 35.515625 20.015625 
Q 33.0625 21.96875 24.703125 23.78125 
L 21.578125 24.515625 
Q 13.234375 26.265625 9.515625 29.90625 
Q 5.8125 33.546875 5.8125 39.890625 
Q 5.8125 47.609375 11.28125 51.796875 
Q 16.75 56 26.8125 56 
Q 31.78125 56 36.171875 55.265625 
Q 40.578125 54.546875 44.28125 53.078125 
z
" id="DejaVuSans-115"/>
     </defs>
     <use xlink:href="#DejaVuSans-111"/>
     <use x="61.181641" xlink:href="#DejaVuSans-114"/>
     <use x="102.294922" xlink:href="#DejaVuSans-105"/>
     <use x="130.078125" xlink:href="#DejaVuSans-103"/>
     <use x="193.554688" xlink:href="#DejaVuSans-105"/>
     <use x="221.337891" xlink:href="#DejaVuSans-110"/>
     <use x="284.716797" xlink:href="#DejaVuSans-97"/>
     <use x="345.996094" xlink:href="#DejaVuSans-108"/>
     <use x="373.779297" xlink:href="#DejaVuSans-32"/>
     <use x="405.566406" xlink:href="#DejaVuSans-115"/>
     <use x="457.666016" xlink:href="#DejaVuSans-105"/>
     <use x="485.449219" xlink:href="#DejaVuSans-103"/>
     <use x="548.925781" xlink:href="#DejaVuSans-110"/>
     <use x="612.304688" xlink:href="#DejaVuSans-97"/>
     <use x="673.583984" xlink:href="#DejaVuSans-108"/>
    </g>
   </g>
  </g>
 </g>
 <defs>
  <clipPath id="p18fe1d950a">
   <rect height="266.112" width="357.12" x="57.6" y="41.472"/>
  </clipPath>
 </defs>
</svg>
