<?xml version="1.0" encoding="utf-8" standalone="no"?>
<!DOCTYPE svg PUBLIC "-//W3C//DTD SVG 1.1//EN"
  "http://www.w3.org/Graphics/SVG/1.1/DTD/svg11.dtd">
<!-- Created with matplotlib (https://matplotlib.org/) -->
<svg height="345.6pt" version="1.1" viewBox="0 0 460.8 345.6" width="460.8pt" xmlns="http://www.w3.org/2000/svg" xmlns:xlink="http://www.w3.org/1999/xlink">
 <metadata>
  <rdf:RDF xmlns:cc="http://creativecommons.org/ns#" xmlns:dc="http://purl.org/dc/elements/1.1/" xmlns:rdf="http://www.w3.org/1999/02/22-rdf-syntax-ns#">
   <cc:Work>
    <dc:type rdf:resource="http://purl.org/dc/dcmitype/StillImage"/>
    <dc:date>2021-11-15T00:42:06.770221</dc:date>
    <dc:format>image/svg+xml</dc:format>
    <dc:creator>
     <cc:Agent>
      <dc:title>Matplotlib v3.3.2, https://matplotlib.org/</dc:title>
     </cc:Agent>
    </dc:creator>
   </cc:Work>
  </rdf:RDF>
 </metadata>
 <defs>
  <style type="text/css">*{stroke-linecap:butt;stroke-linejoin:round;}</style>
 </defs>
 <g id="figure_1">
  <g id="patch_1">
   <path d="M 0 345.6 
L 460.8 345.6 
L 460.8 0 
L 0 0 
z
" style="fill:#ffffff;"/>
  </g>
  <g id="axes_1">
   <g id="patch_2">
    <path d="M 57.6 307.584 
L 414.72 307.584 
L 414.72 41.472 
L 57.6 41.472 
z
" style="fill:#ffffff;"/>
   </g>
   <g id="matplotlib.axis_1">
    <g id="xtick_1">
     <g id="line2d_1">
      <defs>
       <path d="M 0 0 
L 0 3.5 
" id="me5ed47ae35" style="stroke:#000000;stroke-width:0.8;"/>
      </defs>
      <g>
       <use style="stroke:#000000;stroke-width:0.8;" x="73.832727" xlink:href="#me5ed47ae35" y="307.584"/>
      </g>
     </g>
     <g id="text_1">
      <!-- 0 -->
      <g transform="translate(70.651477 322.182437)scale(0.1 -0.1)">
       <defs>
        <path d="M 31.78125 66.40625 
Q 24.171875 66.40625 20.328125 58.90625 
Q 16.5 51.421875 16.5 36.375 
Q 16.5 21.390625 20.328125 13.890625 
Q 24.171875 6.390625 31.78125 6.390625 
Q 39.453125 6.390625 43.28125 13.890625 
Q 47.125 21.390625 47.125 36.375 
Q 47.125 51.421875 43.28125 58.90625 
Q 39.453125 66.40625 31.78125 66.40625 
z
M 31.78125 74.21875 
Q 44.046875 74.21875 50.515625 64.515625 
Q 56.984375 54.828125 56.984375 36.375 
Q 56.984375 17.96875 50.515625 8.265625 
Q 44.046875 -1.421875 31.78125 -1.421875 
Q 19.53125 -1.421875 13.0625 8.265625 
Q 6.59375 17.96875 6.59375 36.375 
Q 6.59375 54.828125 13.0625 64.515625 
Q 19.53125 74.21875 31.78125 74.21875 
z
" id="DejaVuSans-48"/>
       </defs>
       <use xlink:href="#DejaVuSans-48"/>
      </g>
     </g>
    </g>
    <g id="xtick_2">
     <g id="line2d_2">
      <g>
       <use style="stroke:#000000;stroke-width:0.8;" x="125.777455" xlink:href="#me5ed47ae35" y="307.584"/>
      </g>
     </g>
     <g id="text_2">
      <!-- 20 -->
      <g transform="translate(119.414955 322.182437)scale(0.1 -0.1)">
       <defs>
        <path d="M 19.1875 8.296875 
L 53.609375 8.296875 
L 53.609375 0 
L 7.328125 0 
L 7.328125 8.296875 
Q 12.9375 14.109375 22.625 23.890625 
Q 32.328125 33.6875 34.8125 36.53125 
Q 39.546875 41.84375 41.421875 45.53125 
Q 43.3125 49.21875 43.3125 52.78125 
Q 43.3125 58.59375 39.234375 62.25 
Q 35.15625 65.921875 28.609375 65.921875 
Q 23.96875 65.921875 18.8125 64.3125 
Q 13.671875 62.703125 7.8125 59.421875 
L 7.8125 69.390625 
Q 13.765625 71.78125 18.9375 73 
Q 24.125 74.21875 28.421875 74.21875 
Q 39.75 74.21875 46.484375 68.546875 
Q 53.21875 62.890625 53.21875 53.421875 
Q 53.21875 48.921875 51.53125 44.890625 
Q 49.859375 40.875 45.40625 35.40625 
Q 44.1875 33.984375 37.640625 27.21875 
Q 31.109375 20.453125 19.1875 8.296875 
z
" id="DejaVuSans-50"/>
       </defs>
       <use xlink:href="#DejaVuSans-50"/>
       <use x="63.623047" xlink:href="#DejaVuSans-48"/>
      </g>
     </g>
    </g>
    <g id="xtick_3">
     <g id="line2d_3">
      <g>
       <use style="stroke:#000000;stroke-width:0.8;" x="177.722182" xlink:href="#me5ed47ae35" y="307.584"/>
      </g>
     </g>
     <g id="text_3">
      <!-- 40 -->
      <g transform="translate(171.359682 322.182437)scale(0.1 -0.1)">
       <defs>
        <path d="M 37.796875 64.3125 
L 12.890625 25.390625 
L 37.796875 25.390625 
z
M 35.203125 72.90625 
L 47.609375 72.90625 
L 47.609375 25.390625 
L 58.015625 25.390625 
L 58.015625 17.1875 
L 47.609375 17.1875 
L 47.609375 0 
L 37.796875 0 
L 37.796875 17.1875 
L 4.890625 17.1875 
L 4.890625 26.703125 
z
" id="DejaVuSans-52"/>
       </defs>
       <use xlink:href="#DejaVuSans-52"/>
       <use x="63.623047" xlink:href="#DejaVuSans-48"/>
      </g>
     </g>
    </g>
    <g id="xtick_4">
     <g id="line2d_4">
      <g>
       <use style="stroke:#000000;stroke-width:0.8;" x="229.666909" xlink:href="#me5ed47ae35" y="307.584"/>
      </g>
     </g>
     <g id="text_4">
      <!-- 60 -->
      <g transform="translate(223.304409 322.182437)scale(0.1 -0.1)">
       <defs>
        <path d="M 33.015625 40.375 
Q 26.375 40.375 22.484375 35.828125 
Q 18.609375 31.296875 18.609375 23.390625 
Q 18.609375 15.53125 22.484375 10.953125 
Q 26.375 6.390625 33.015625 6.390625 
Q 39.65625 6.390625 43.53125 10.953125 
Q 47.40625 15.53125 47.40625 23.390625 
Q 47.40625 31.296875 43.53125 35.828125 
Q 39.65625 40.375 33.015625 40.375 
z
M 52.59375 71.296875 
L 52.59375 62.3125 
Q 48.875 64.0625 45.09375 64.984375 
Q 41.3125 65.921875 37.59375 65.921875 
Q 27.828125 65.921875 22.671875 59.328125 
Q 17.53125 52.734375 16.796875 39.40625 
Q 19.671875 43.65625 24.015625 45.921875 
Q 28.375 48.1875 33.59375 48.1875 
Q 44.578125 48.1875 50.953125 41.515625 
Q 57.328125 34.859375 57.328125 23.390625 
Q 57.328125 12.15625 50.6875 5.359375 
Q 44.046875 -1.421875 33.015625 -1.421875 
Q 20.359375 -1.421875 13.671875 8.265625 
Q 6.984375 17.96875 6.984375 36.375 
Q 6.984375 53.65625 15.1875 63.9375 
Q 23.390625 74.21875 37.203125 74.21875 
Q 40.921875 74.21875 44.703125 73.484375 
Q 48.484375 72.75 52.59375 71.296875 
z
" id="DejaVuSans-54"/>
       </defs>
       <use xlink:href="#DejaVuSans-54"/>
       <use x="63.623047" xlink:href="#DejaVuSans-48"/>
      </g>
     </g>
    </g>
    <g id="xtick_5">
     <g id="line2d_5">
      <g>
       <use style="stroke:#000000;stroke-width:0.8;" x="281.611636" xlink:href="#me5ed47ae35" y="307.584"/>
      </g>
     </g>
     <g id="text_5">
      <!-- 80 -->
      <g transform="translate(275.249136 322.182437)scale(0.1 -0.1)">
       <defs>
        <path d="M 31.78125 34.625 
Q 24.75 34.625 20.71875 30.859375 
Q 16.703125 27.09375 16.703125 20.515625 
Q 16.703125 13.921875 20.71875 10.15625 
Q 24.75 6.390625 31.78125 6.390625 
Q 38.8125 6.390625 42.859375 10.171875 
Q 46.921875 13.96875 46.921875 20.515625 
Q 46.921875 27.09375 42.890625 30.859375 
Q 38.875 34.625 31.78125 34.625 
z
M 21.921875 38.8125 
Q 15.578125 40.375 12.03125 44.71875 
Q 8.5 49.078125 8.5 55.328125 
Q 8.5 64.0625 14.71875 69.140625 
Q 20.953125 74.21875 31.78125 74.21875 
Q 42.671875 74.21875 48.875 69.140625 
Q 55.078125 64.0625 55.078125 55.328125 
Q 55.078125 49.078125 51.53125 44.71875 
Q 48 40.375 41.703125 38.8125 
Q 48.828125 37.15625 52.796875 32.3125 
Q 56.78125 27.484375 56.78125 20.515625 
Q 56.78125 9.90625 50.3125 4.234375 
Q 43.84375 -1.421875 31.78125 -1.421875 
Q 19.734375 -1.421875 13.25 4.234375 
Q 6.78125 9.90625 6.78125 20.515625 
Q 6.78125 27.484375 10.78125 32.3125 
Q 14.796875 37.15625 21.921875 38.8125 
z
M 18.3125 54.390625 
Q 18.3125 48.734375 21.84375 45.5625 
Q 25.390625 42.390625 31.78125 42.390625 
Q 38.140625 42.390625 41.71875 45.5625 
Q 45.3125 48.734375 45.3125 54.390625 
Q 45.3125 60.0625 41.71875 63.234375 
Q 38.140625 66.40625 31.78125 66.40625 
Q 25.390625 66.40625 21.84375 63.234375 
Q 18.3125 60.0625 18.3125 54.390625 
z
" id="DejaVuSans-56"/>
       </defs>
       <use xlink:href="#DejaVuSans-56"/>
       <use x="63.623047" xlink:href="#DejaVuSans-48"/>
      </g>
     </g>
    </g>
    <g id="xtick_6">
     <g id="line2d_6">
      <g>
       <use style="stroke:#000000;stroke-width:0.8;" x="333.556364" xlink:href="#me5ed47ae35" y="307.584"/>
      </g>
     </g>
     <g id="text_6">
      <!-- 100 -->
      <g transform="translate(324.012614 322.182437)scale(0.1 -0.1)">
       <defs>
        <path d="M 12.40625 8.296875 
L 28.515625 8.296875 
L 28.515625 63.921875 
L 10.984375 60.40625 
L 10.984375 69.390625 
L 28.421875 72.90625 
L 38.28125 72.90625 
L 38.28125 8.296875 
L 54.390625 8.296875 
L 54.390625 0 
L 12.40625 0 
z
" id="DejaVuSans-49"/>
       </defs>
       <use xlink:href="#DejaVuSans-49"/>
       <use x="63.623047" xlink:href="#DejaVuSans-48"/>
       <use x="127.246094" xlink:href="#DejaVuSans-48"/>
      </g>
     </g>
    </g>
    <g id="xtick_7">
     <g id="line2d_7">
      <g>
       <use style="stroke:#000000;stroke-width:0.8;" x="385.501091" xlink:href="#me5ed47ae35" y="307.584"/>
      </g>
     </g>
     <g id="text_7">
      <!-- 120 -->
      <g transform="translate(375.957341 322.182437)scale(0.1 -0.1)">
       <use xlink:href="#DejaVuSans-49"/>
       <use x="63.623047" xlink:href="#DejaVuSans-50"/>
       <use x="127.246094" xlink:href="#DejaVuSans-48"/>
      </g>
     </g>
    </g>
    <g id="text_8">
     <!-- frequency -->
     <g transform="translate(211.083438 335.860562)scale(0.1 -0.1)">
      <defs>
       <path d="M 37.109375 75.984375 
L 37.109375 68.5 
L 28.515625 68.5 
Q 23.6875 68.5 21.796875 66.546875 
Q 19.921875 64.59375 19.921875 59.515625 
L 19.921875 54.6875 
L 34.71875 54.6875 
L 34.71875 47.703125 
L 19.921875 47.703125 
L 19.921875 0 
L 10.890625 0 
L 10.890625 47.703125 
L 2.296875 47.703125 
L 2.296875 54.6875 
L 10.890625 54.6875 
L 10.890625 58.5 
Q 10.890625 67.625 15.140625 71.796875 
Q 19.390625 75.984375 28.609375 75.984375 
z
" id="DejaVuSans-102"/>
       <path d="M 41.109375 46.296875 
Q 39.59375 47.171875 37.8125 47.578125 
Q 36.03125 48 33.890625 48 
Q 26.265625 48 22.1875 43.046875 
Q 18.109375 38.09375 18.109375 28.8125 
L 18.109375 0 
L 9.078125 0 
L 9.078125 54.6875 
L 18.109375 54.6875 
L 18.109375 46.1875 
Q 20.953125 51.171875 25.484375 53.578125 
Q 30.03125 56 36.53125 56 
Q 37.453125 56 38.578125 55.875 
Q 39.703125 55.765625 41.0625 55.515625 
z
" id="DejaVuSans-114"/>
       <path d="M 56.203125 29.59375 
L 56.203125 25.203125 
L 14.890625 25.203125 
Q 15.484375 15.921875 20.484375 11.0625 
Q 25.484375 6.203125 34.421875 6.203125 
Q 39.59375 6.203125 44.453125 7.46875 
Q 49.3125 8.734375 54.109375 11.28125 
L 54.109375 2.78125 
Q 49.265625 0.734375 44.1875 -0.34375 
Q 39.109375 -1.421875 33.890625 -1.421875 
Q 20.796875 -1.421875 13.15625 6.1875 
Q 5.515625 13.8125 5.515625 26.8125 
Q 5.515625 40.234375 12.765625 48.109375 
Q 20.015625 56 32.328125 56 
Q 43.359375 56 49.78125 48.890625 
Q 56.203125 41.796875 56.203125 29.59375 
z
M 47.21875 32.234375 
Q 47.125 39.59375 43.09375 43.984375 
Q 39.0625 48.390625 32.421875 48.390625 
Q 24.90625 48.390625 20.390625 44.140625 
Q 15.875 39.890625 15.1875 32.171875 
z
" id="DejaVuSans-101"/>
       <path d="M 14.796875 27.296875 
Q 14.796875 17.390625 18.875 11.75 
Q 22.953125 6.109375 30.078125 6.109375 
Q 37.203125 6.109375 41.296875 11.75 
Q 45.40625 17.390625 45.40625 27.296875 
Q 45.40625 37.203125 41.296875 42.84375 
Q 37.203125 48.484375 30.078125 48.484375 
Q 22.953125 48.484375 18.875 42.84375 
Q 14.796875 37.203125 14.796875 27.296875 
z
M 45.40625 8.203125 
Q 42.578125 3.328125 38.25 0.953125 
Q 33.9375 -1.421875 27.875 -1.421875 
Q 17.96875 -1.421875 11.734375 6.484375 
Q 5.515625 14.40625 5.515625 27.296875 
Q 5.515625 40.1875 11.734375 48.09375 
Q 17.96875 56 27.875 56 
Q 33.9375 56 38.25 53.625 
Q 42.578125 51.265625 45.40625 46.390625 
L 45.40625 54.6875 
L 54.390625 54.6875 
L 54.390625 -20.796875 
L 45.40625 -20.796875 
z
" id="DejaVuSans-113"/>
       <path d="M 8.5 21.578125 
L 8.5 54.6875 
L 17.484375 54.6875 
L 17.484375 21.921875 
Q 17.484375 14.15625 20.5 10.265625 
Q 23.53125 6.390625 29.59375 6.390625 
Q 36.859375 6.390625 41.078125 11.03125 
Q 45.3125 15.671875 45.3125 23.6875 
L 45.3125 54.6875 
L 54.296875 54.6875 
L 54.296875 0 
L 45.3125 0 
L 45.3125 8.40625 
Q 42.046875 3.421875 37.71875 1 
Q 33.40625 -1.421875 27.6875 -1.421875 
Q 18.265625 -1.421875 13.375 4.4375 
Q 8.5 10.296875 8.5 21.578125 
z
M 31.109375 56 
z
" id="DejaVuSans-117"/>
       <path d="M 54.890625 33.015625 
L 54.890625 0 
L 45.90625 0 
L 45.90625 32.71875 
Q 45.90625 40.484375 42.875 44.328125 
Q 39.84375 48.1875 33.796875 48.1875 
Q 26.515625 48.1875 22.3125 43.546875 
Q 18.109375 38.921875 18.109375 30.90625 
L 18.109375 0 
L 9.078125 0 
L 9.078125 54.6875 
L 18.109375 54.6875 
L 18.109375 46.1875 
Q 21.34375 51.125 25.703125 53.5625 
Q 30.078125 56 35.796875 56 
Q 45.21875 56 50.046875 50.171875 
Q 54.890625 44.34375 54.890625 33.015625 
z
" id="DejaVuSans-110"/>
       <path d="M 48.78125 52.59375 
L 48.78125 44.1875 
Q 44.96875 46.296875 41.140625 47.34375 
Q 37.3125 48.390625 33.40625 48.390625 
Q 24.65625 48.390625 19.8125 42.84375 
Q 14.984375 37.3125 14.984375 27.296875 
Q 14.984375 17.28125 19.8125 11.734375 
Q 24.65625 6.203125 33.40625 6.203125 
Q 37.3125 6.203125 41.140625 7.25 
Q 44.96875 8.296875 48.78125 10.40625 
L 48.78125 2.09375 
Q 45.015625 0.34375 40.984375 -0.53125 
Q 36.96875 -1.421875 32.421875 -1.421875 
Q 20.0625 -1.421875 12.78125 6.34375 
Q 5.515625 14.109375 5.515625 27.296875 
Q 5.515625 40.671875 12.859375 48.328125 
Q 20.21875 56 33.015625 56 
Q 37.15625 56 41.109375 55.140625 
Q 45.0625 54.296875 48.78125 52.59375 
z
" id="DejaVuSans-99"/>
       <path d="M 32.171875 -5.078125 
Q 28.375 -14.84375 24.75 -17.8125 
Q 21.140625 -20.796875 15.09375 -20.796875 
L 7.90625 -20.796875 
L 7.90625 -13.28125 
L 13.1875 -13.28125 
Q 16.890625 -13.28125 18.9375 -11.515625 
Q 21 -9.765625 23.484375 -3.21875 
L 25.09375 0.875 
L 2.984375 54.6875 
L 12.5 54.6875 
L 29.59375 11.921875 
L 46.6875 54.6875 
L 56.203125 54.6875 
z
" id="DejaVuSans-121"/>
      </defs>
      <use xlink:href="#DejaVuSans-102"/>
      <use x="35.205078" xlink:href="#DejaVuSans-114"/>
      <use x="74.068359" xlink:href="#DejaVuSans-101"/>
      <use x="135.591797" xlink:href="#DejaVuSans-113"/>
      <use x="199.068359" xlink:href="#DejaVuSans-117"/>
      <use x="262.447266" xlink:href="#DejaVuSans-101"/>
      <use x="323.970703" xlink:href="#DejaVuSans-110"/>
      <use x="387.349609" xlink:href="#DejaVuSans-99"/>
      <use x="442.330078" xlink:href="#DejaVuSans-121"/>
     </g>
    </g>
   </g>
   <g id="matplotlib.axis_2">
    <g id="ytick_1">
     <g id="line2d_8">
      <defs>
       <path d="M 0 0 
L -3.5 0 
" id="mf079a872f5" style="stroke:#000000;stroke-width:0.8;"/>
      </defs>
      <g>
       <use style="stroke:#000000;stroke-width:0.8;" x="57.6" xlink:href="#mf079a872f5" y="295.866528"/>
      </g>
     </g>
     <g id="text_9">
      <!-- 0 -->
      <g transform="translate(44.2375 299.665747)scale(0.1 -0.1)">
       <use xlink:href="#DejaVuSans-48"/>
      </g>
     </g>
    </g>
    <g id="ytick_2">
     <g id="line2d_9">
      <g>
       <use style="stroke:#000000;stroke-width:0.8;" x="57.6" xlink:href="#mf079a872f5" y="238.381252"/>
      </g>
     </g>
     <g id="text_10">
      <!-- 1 -->
      <g transform="translate(44.2375 242.180471)scale(0.1 -0.1)">
       <use xlink:href="#DejaVuSans-49"/>
      </g>
     </g>
    </g>
    <g id="ytick_3">
     <g id="line2d_10">
      <g>
       <use style="stroke:#000000;stroke-width:0.8;" x="57.6" xlink:href="#mf079a872f5" y="180.895977"/>
      </g>
     </g>
     <g id="text_11">
      <!-- 2 -->
      <g transform="translate(44.2375 184.695196)scale(0.1 -0.1)">
       <use xlink:href="#DejaVuSans-50"/>
      </g>
     </g>
    </g>
    <g id="ytick_4">
     <g id="line2d_11">
      <g>
       <use style="stroke:#000000;stroke-width:0.8;" x="57.6" xlink:href="#mf079a872f5" y="123.410701"/>
      </g>
     </g>
     <g id="text_12">
      <!-- 3 -->
      <g transform="translate(44.2375 127.20992)scale(0.1 -0.1)">
       <defs>
        <path d="M 40.578125 39.3125 
Q 47.65625 37.796875 51.625 33 
Q 55.609375 28.21875 55.609375 21.1875 
Q 55.609375 10.40625 48.1875 4.484375 
Q 40.765625 -1.421875 27.09375 -1.421875 
Q 22.515625 -1.421875 17.65625 -0.515625 
Q 12.796875 0.390625 7.625 2.203125 
L 7.625 11.71875 
Q 11.71875 9.328125 16.59375 8.109375 
Q 21.484375 6.890625 26.8125 6.890625 
Q 36.078125 6.890625 40.9375 10.546875 
Q 45.796875 14.203125 45.796875 21.1875 
Q 45.796875 27.640625 41.28125 31.265625 
Q 36.765625 34.90625 28.71875 34.90625 
L 20.21875 34.90625 
L 20.21875 43.015625 
L 29.109375 43.015625 
Q 36.375 43.015625 40.234375 45.921875 
Q 44.09375 48.828125 44.09375 54.296875 
Q 44.09375 59.90625 40.109375 62.90625 
Q 36.140625 65.921875 28.71875 65.921875 
Q 24.65625 65.921875 20.015625 65.03125 
Q 15.375 64.15625 9.8125 62.3125 
L 9.8125 71.09375 
Q 15.4375 72.65625 20.34375 73.4375 
Q 25.25 74.21875 29.59375 74.21875 
Q 40.828125 74.21875 47.359375 69.109375 
Q 53.90625 64.015625 53.90625 55.328125 
Q 53.90625 49.265625 50.4375 45.09375 
Q 46.96875 40.921875 40.578125 39.3125 
z
" id="DejaVuSans-51"/>
       </defs>
       <use xlink:href="#DejaVuSans-51"/>
      </g>
     </g>
    </g>
    <g id="ytick_5">
     <g id="line2d_12">
      <g>
       <use style="stroke:#000000;stroke-width:0.8;" x="57.6" xlink:href="#mf079a872f5" y="65.925426"/>
      </g>
     </g>
     <g id="text_13">
      <!-- 4 -->
      <g transform="translate(44.2375 69.724644)scale(0.1 -0.1)">
       <use xlink:href="#DejaVuSans-52"/>
      </g>
     </g>
    </g>
    <g id="text_14">
     <!-- dB -->
     <g transform="translate(38.157812 181.132688)rotate(-90)scale(0.1 -0.1)">
      <defs>
       <path d="M 45.40625 46.390625 
L 45.40625 75.984375 
L 54.390625 75.984375 
L 54.390625 0 
L 45.40625 0 
L 45.40625 8.203125 
Q 42.578125 3.328125 38.25 0.953125 
Q 33.9375 -1.421875 27.875 -1.421875 
Q 17.96875 -1.421875 11.734375 6.484375 
Q 5.515625 14.40625 5.515625 27.296875 
Q 5.515625 40.1875 11.734375 48.09375 
Q 17.96875 56 27.875 56 
Q 33.9375 56 38.25 53.625 
Q 42.578125 51.265625 45.40625 46.390625 
z
M 14.796875 27.296875 
Q 14.796875 17.390625 18.875 11.75 
Q 22.953125 6.109375 30.078125 6.109375 
Q 37.203125 6.109375 41.296875 11.75 
Q 45.40625 17.390625 45.40625 27.296875 
Q 45.40625 37.203125 41.296875 42.84375 
Q 37.203125 48.484375 30.078125 48.484375 
Q 22.953125 48.484375 18.875 42.84375 
Q 14.796875 37.203125 14.796875 27.296875 
z
" id="DejaVuSans-100"/>
       <path d="M 19.671875 34.8125 
L 19.671875 8.109375 
L 35.5 8.109375 
Q 43.453125 8.109375 47.28125 11.40625 
Q 51.125 14.703125 51.125 21.484375 
Q 51.125 28.328125 47.28125 31.5625 
Q 43.453125 34.8125 35.5 34.8125 
z
M 19.671875 64.796875 
L 19.671875 42.828125 
L 34.28125 42.828125 
Q 41.5 42.828125 45.03125 45.53125 
Q 48.578125 48.25 48.578125 53.8125 
Q 48.578125 59.328125 45.03125 62.0625 
Q 41.5 64.796875 34.28125 64.796875 
z
M 9.8125 72.90625 
L 35.015625 72.90625 
Q 46.296875 72.90625 52.390625 68.21875 
Q 58.5 63.53125 58.5 54.890625 
Q 58.5 48.1875 55.375 44.234375 
Q 52.25 40.28125 46.1875 39.3125 
Q 53.46875 37.75 57.5 32.78125 
Q 61.53125 27.828125 61.53125 20.40625 
Q 61.53125 10.640625 54.890625 5.3125 
Q 48.25 0 35.984375 0 
L 9.8125 0 
z
" id="DejaVuSans-66"/>
      </defs>
      <use xlink:href="#DejaVuSans-100"/>
      <use x="63.476562" xlink:href="#DejaVuSans-66"/>
     </g>
    </g>
    <g id="text_15">
     <!-- 1e−5 -->
     <g transform="translate(57.6 38.472)scale(0.1 -0.1)">
      <defs>
       <path d="M 10.59375 35.5 
L 73.1875 35.5 
L 73.1875 27.203125 
L 10.59375 27.203125 
z
" id="DejaVuSans-8722"/>
       <path d="M 10.796875 72.90625 
L 49.515625 72.90625 
L 49.515625 64.59375 
L 19.828125 64.59375 
L 19.828125 46.734375 
Q 21.96875 47.46875 24.109375 47.828125 
Q 26.265625 48.1875 28.421875 48.1875 
Q 40.625 48.1875 47.75 41.5 
Q 54.890625 34.8125 54.890625 23.390625 
Q 54.890625 11.625 47.5625 5.09375 
Q 40.234375 -1.421875 26.90625 -1.421875 
Q 22.3125 -1.421875 17.546875 -0.640625 
Q 12.796875 0.140625 7.71875 1.703125 
L 7.71875 11.625 
Q 12.109375 9.234375 16.796875 8.0625 
Q 21.484375 6.890625 26.703125 6.890625 
Q 35.15625 6.890625 40.078125 11.328125 
Q 45.015625 15.765625 45.015625 23.390625 
Q 45.015625 31 40.078125 35.4375 
Q 35.15625 39.890625 26.703125 39.890625 
Q 22.75 39.890625 18.8125 39.015625 
Q 14.890625 38.140625 10.796875 36.28125 
z
" id="DejaVuSans-53"/>
      </defs>
      <use xlink:href="#DejaVuSans-49"/>
      <use x="63.623047" xlink:href="#DejaVuSans-101"/>
      <use x="125.146484" xlink:href="#DejaVuSans-8722"/>
      <use x="208.935547" xlink:href="#DejaVuSans-53"/>
     </g>
    </g>
   </g>
   <g id="line2d_13">
    <path clip-path="url(#p4434be16b9)" d="M 73.832727 279.93908 
L 73.962589 294.709012 
L 74.352175 293.554164 
L 74.611898 291.586004 
L 74.74176 291.237139 
L 74.871622 289.977975 
L 75.001484 290.463053 
L 75.131345 290.330175 
L 75.261207 289.858182 
L 75.780655 290.862856 
L 76.040378 292.528901 
L 76.17024 293.155041 
L 76.429964 295.488 
L 76.819549 291.297716 
L 77.209135 285.079377 
L 78.637615 256.459763 
L 78.897338 242.520572 
L 79.0272 255.154767 
L 79.157062 242.092995 
L 79.286924 257.086718 
L 79.416785 248.52088 
L 79.546647 225.592578 
L 79.676509 238.495431 
L 79.806371 212.056492 
L 80.066095 219.581394 
L 80.195956 209.76017 
L 80.325818 219.242347 
L 80.45568 217.953951 
L 80.715404 190.277722 
L 80.845265 235.688234 
L 80.975127 232.429631 
L 81.104989 141.374831 
L 81.234851 157.040757 
L 81.364713 257.170534 
L 81.494575 254.65148 
L 81.624436 145.869089 
L 81.754298 242.967381 
L 81.88416 56.294503 
L 82.014022 96.205791 
L 82.143884 178.047093 
L 82.273745 95.698421 
L 82.403607 231.225184 
L 82.533469 181.081743 
L 82.663331 190.034344 
L 82.793193 228.197381 
L 82.923055 154.311031 
L 83.052916 149.850004 
L 83.31264 244.758643 
L 83.572364 87.908887 
L 83.702225 267.896997 
L 84.091811 105.566279 
L 84.221673 167.653848 
L 84.351535 53.568 
L 84.481396 248.053944 
L 84.611258 274.248416 
L 84.74112 235.681217 
L 84.870982 242.310311 
L 85.000844 156.245599 
L 85.130705 209.067838 
L 85.260567 201.085899 
L 85.390429 145.740739 
L 85.520291 242.999668 
L 85.650153 242.264278 
L 85.909876 136.807824 
L 86.039738 250.413439 
L 86.1696 258.074179 
L 86.429324 150.710337 
L 86.559185 198.293207 
L 86.689047 180.334455 
L 86.948771 271.477618 
L 87.078633 184.718719 
L 87.208495 212.856989 
L 87.338356 205.065561 
L 87.468218 125.425651 
L 87.59808 229.09673 
L 87.727942 135.282135 
L 87.857804 205.599154 
L 87.987665 211.845911 
L 88.117527 198.613847 
L 88.247389 170.943963 
L 88.507113 269.174868 
L 88.766836 181.368555 
L 88.896698 239.375375 
L 89.02656 174.471198 
L 89.156422 244.53511 
L 89.286284 122.175232 
L 89.416145 209.735082 
L 89.546007 115.047595 
L 89.675869 233.707046 
L 89.805731 197.522228 
L 89.935593 209.835354 
L 90.065455 183.344792 
L 90.195316 190.023292 
L 90.325178 157.318487 
L 90.45504 260.651951 
L 90.584902 147.699155 
L 90.844625 275.372848 
L 91.104349 158.571817 
L 91.234211 219.850498 
L 91.364073 218.532145 
L 91.493935 171.04825 
L 91.623796 262.879163 
L 91.88352 173.304377 
L 92.013382 251.409789 
L 92.143244 247.899091 
L 92.273105 268.210903 
L 92.402967 204.642509 
L 92.532829 252.355874 
L 92.792553 259.860593 
L 92.922415 103.624712 
L 93.052276 207.129594 
L 93.182138 187.933252 
L 93.312 213.722224 
L 93.441862 173.886755 
L 93.701585 247.515114 
L 93.831447 233.020087 
L 94.091171 269.654583 
L 94.221033 216.326483 
L 94.350895 258.539938 
L 94.480756 191.962138 
L 94.610618 234.639449 
L 94.74048 155.526278 
L 94.870342 188.285893 
L 95.000204 255.555523 
L 95.130065 237.890879 
L 95.259927 239.039155 
L 95.519651 152.62836 
L 95.779375 243.261502 
L 95.909236 212.512937 
L 96.039098 277.06731 
L 96.16896 221.896662 
L 96.298822 257.938739 
L 96.558545 234.885661 
L 96.818269 221.373894 
L 96.948131 151.090725 
L 97.077993 251.770146 
L 97.207855 214.617533 
L 97.337716 251.680503 
L 97.467578 226.96741 
L 97.727302 277.399117 
L 97.987025 177.054857 
L 98.246749 280.816856 
L 98.376611 245.214957 
L 98.506473 245.305745 
L 98.636335 179.87102 
L 98.766196 234.431353 
L 98.896058 232.556322 
L 99.02592 220.969982 
L 99.155782 228.110205 
L 99.415505 251.469467 
L 99.545367 252.961856 
L 99.675229 284.988283 
L 99.805091 222.970039 
L 99.934953 222.955415 
L 100.064815 180.385132 
L 100.194676 218.696994 
L 100.324538 166.405564 
L 100.4544 269.194602 
L 100.584262 225.022873 
L 100.714124 220.864557 
L 100.843985 242.71559 
L 101.103709 169.903997 
L 101.233571 252.741693 
L 101.363433 226.798535 
L 101.493295 271.33752 
L 101.623156 209.215597 
L 101.88288 271.496092 
L 102.012742 267.38855 
L 102.142604 207.420129 
L 102.272465 225.737306 
L 102.402327 153.669163 
L 102.532189 239.347541 
L 102.662051 191.268721 
L 102.791913 275.587904 
L 102.921775 224.765533 
L 103.181498 229.221214 
L 103.31136 270.45937 
L 103.441222 237.170513 
L 103.700945 242.091246 
L 103.830807 189.001631 
L 103.960669 285.630801 
L 104.090531 234.197133 
L 104.220393 233.32954 
L 104.350255 256.268975 
L 104.609978 235.053719 
L 104.73984 264.889695 
L 104.869702 265.701316 
L 104.999564 163.523778 
L 105.129425 241.989541 
L 105.259287 230.233026 
L 105.389149 258.199925 
L 105.519011 186.368487 
L 105.648873 281.833091 
L 105.778735 225.901013 
L 105.908596 264.808456 
L 106.038458 264.295662 
L 106.16832 238.810022 
L 106.298182 175.893865 
L 106.428044 229.018796 
L 106.557905 218.235476 
L 106.687767 275.690418 
L 106.817629 203.971031 
L 107.077353 278.415442 
L 107.207215 281.402945 
L 107.337076 198.265821 
L 107.466938 193.555439 
L 107.726662 244.212088 
L 107.856524 174.578247 
L 107.986385 226.238529 
L 108.116247 233.024091 
L 108.375971 211.704519 
L 108.505833 237.484338 
L 108.635695 226.973347 
L 108.765556 230.743049 
L 108.895418 244.719769 
L 109.02528 199.115506 
L 109.155142 221.164013 
L 109.285004 191.731296 
L 109.414865 282.384001 
L 109.544727 267.808407 
L 109.804451 224.097189 
L 109.934313 274.489228 
L 110.194036 226.642522 
L 110.323898 288.538054 
L 110.583622 192.460209 
L 110.713484 259.366301 
L 110.843345 238.601178 
L 110.973207 239.231562 
L 111.103069 276.376012 
L 111.232931 262.573593 
L 111.362793 264.286794 
L 111.492655 180.938765 
L 111.622516 275.284376 
L 111.88224 237.767611 
L 112.012102 246.232989 
L 112.141964 245.019727 
L 112.401687 271.477883 
L 112.661411 215.301499 
L 112.791273 263.14734 
L 112.921135 206.743357 
L 113.050996 278.120914 
L 113.440582 231.657524 
L 113.570444 254.397367 
L 113.700305 230.945706 
L 113.830167 237.870089 
L 113.960029 180.104281 
L 114.089891 238.039178 
L 114.219753 245.608301 
L 114.349615 246.186382 
L 114.479476 194.049879 
L 114.609338 243.538005 
L 114.7392 246.410795 
L 114.869062 241.888243 
L 114.998924 227.219744 
L 115.258647 279.19407 
L 115.518371 235.469892 
L 115.648233 266.139606 
L 115.907956 232.184367 
L 116.037818 195.989231 
L 116.16768 248.6767 
L 116.297542 250.504865 
L 116.427404 258.736527 
L 116.557265 198.000328 
L 116.687127 200.922855 
L 116.816989 270.842077 
L 116.946851 238.196751 
L 117.076713 247.338845 
L 117.206575 269.908274 
L 117.336436 251.39896 
L 117.466298 257.392822 
L 117.59616 293.287741 
L 117.726022 288.501167 
L 117.855884 252.963688 
L 117.985745 276.269566 
L 118.115607 207.336297 
L 118.245469 258.030625 
L 118.375331 244.546908 
L 118.635055 270.793952 
L 118.764916 274.390502 
L 118.894778 264.53742 
L 119.02464 283.121175 
L 119.154502 154.485628 
L 119.284364 247.661324 
L 119.414225 229.515625 
L 119.544087 261.212089 
L 119.803811 228.224283 
L 120.063535 256.668564 
L 120.193396 244.230556 
L 120.323258 260.507297 
L 120.45312 233.926537 
L 120.582982 231.95383 
L 120.972567 284.020661 
L 121.102429 254.18731 
L 121.232291 271.710564 
L 121.492015 199.426419 
L 121.621876 227.68482 
L 121.751738 182.489436 
L 121.8816 194.894504 
L 122.011462 247.211481 
L 122.141324 215.683879 
L 122.401047 289.152705 
L 122.530909 278.984659 
L 122.660771 253.972115 
L 122.790633 256.197607 
L 122.920495 292.823533 
L 123.050356 226.294437 
L 123.31008 266.003828 
L 123.569804 246.052972 
L 123.699665 265.336512 
L 123.829527 250.779422 
L 123.959389 268.159159 
L 124.089251 199.222106 
L 124.478836 246.390119 
L 124.608698 219.785394 
L 124.73856 243.366127 
L 124.868422 288.84005 
L 124.998284 259.093027 
L 125.128145 272.41455 
L 125.387869 214.348894 
L 125.647593 272.762165 
L 125.777455 252.039721 
L 125.907316 283.630788 
L 126.037178 261.496398 
L 126.296902 288.549958 
L 126.556625 205.394073 
L 126.686487 248.639914 
L 126.816349 244.64405 
L 126.946211 264.008416 
L 127.335796 200.560739 
L 127.59552 273.491206 
L 127.855244 233.459209 
L 128.114967 283.302051 
L 128.244829 253.163486 
L 128.374691 269.540376 
L 128.504553 264.099484 
L 128.634415 267.324838 
L 128.764276 230.535623 
L 128.894138 226.271876 
L 129.024 264.73574 
L 129.283724 234.134027 
L 129.413585 255.582093 
L 129.543447 252.822425 
L 129.673309 218.124186 
L 129.803171 262.770371 
L 129.933033 234.623639 
L 130.062895 287.110909 
L 130.192756 285.075386 
L 130.322618 253.135915 
L 130.45248 261.012295 
L 130.582342 241.651776 
L 130.712204 251.951453 
L 130.842065 288.670212 
L 130.971927 250.08698 
L 131.101789 276.283327 
L 131.231651 248.151895 
L 131.361513 276.532308 
L 131.491375 252.713874 
L 131.621236 287.278363 
L 131.751098 230.572458 
L 131.88096 271.401138 
L 132.010822 252.275628 
L 132.140684 287.044751 
L 132.270545 243.113595 
L 132.400407 261.884418 
L 132.530269 241.85917 
L 132.789993 262.534705 
L 133.049716 217.164672 
L 133.30944 287.575651 
L 133.439302 266.68324 
L 133.569164 271.306284 
L 133.699025 270.518132 
L 133.828887 249.79499 
L 133.958749 265.680671 
L 134.088611 233.367892 
L 134.218473 238.216406 
L 134.348335 278.178218 
L 134.478196 247.690013 
L 134.608058 249.925322 
L 134.73792 269.223944 
L 134.867782 212.531857 
L 134.997644 268.011346 
L 135.127505 261.297551 
L 135.257367 283.164194 
L 135.517091 246.443578 
L 135.646953 250.93308 
L 135.776815 238.917361 
L 136.036538 277.958601 
L 136.1664 275.761982 
L 136.296262 276.5016 
L 136.426124 214.222466 
L 136.555985 274.052294 
L 136.685847 268.42044 
L 136.815709 281.905435 
L 136.945571 274.047953 
L 137.205295 227.551817 
L 137.335156 277.566613 
L 137.465018 262.117324 
L 137.724742 280.153211 
L 137.854604 269.314056 
L 137.984465 283.41504 
L 138.114327 277.545046 
L 138.244189 222.696379 
L 138.503913 287.803456 
L 138.633775 273.867881 
L 138.763636 284.748463 
L 138.893498 242.738192 
L 139.02336 240.103516 
L 139.153222 276.874971 
L 139.412945 265.791716 
L 139.542807 254.418665 
L 139.672669 228.422974 
L 139.932393 284.567867 
L 140.062255 248.080906 
L 140.192116 265.951474 
L 140.321978 262.212914 
L 140.45184 283.069927 
L 140.581702 247.745386 
L 140.711564 260.909333 
L 140.841425 259.213454 
L 140.971287 239.698634 
L 141.101149 279.996565 
L 141.360873 256.141612 
L 141.490735 251.112337 
L 141.620596 259.624192 
L 141.750458 275.835102 
L 141.88032 243.711296 
L 142.010182 262.504302 
L 142.269905 235.057749 
L 142.399767 269.388917 
L 142.529629 256.208569 
L 142.789353 288.38088 
L 142.919215 273.258174 
L 143.049076 274.797993 
L 143.178938 242.232101 
L 143.568524 278.303444 
L 143.698385 275.145331 
L 143.828247 283.531355 
L 143.958109 277.149717 
L 144.087971 260.076627 
L 144.217833 281.672309 
L 144.347695 253.623404 
L 144.477556 254.851964 
L 144.607418 231.585405 
L 144.73728 291.415323 
L 144.867142 274.503595 
L 144.997004 275.613572 
L 145.256727 264.371316 
L 145.386589 267.068541 
L 145.516451 266.61081 
L 145.776175 260.394089 
L 145.906036 268.04764 
L 146.035898 292.113093 
L 146.16576 272.241906 
L 146.295622 283.452506 
L 146.555345 257.193071 
L 146.685207 275.200531 
L 146.815069 259.401812 
L 146.944931 229.715904 
L 147.074793 270.230774 
L 147.204655 268.249284 
L 147.334516 271.32569 
L 147.464378 281.339059 
L 147.59424 278.722269 
L 147.724102 236.208489 
L 147.853964 281.257061 
L 147.983825 266.077958 
L 148.243549 280.264778 
L 148.373411 256.35825 
L 148.892858 272.466333 
L 149.02272 281.449403 
L 149.282444 268.603168 
L 149.412305 268.879075 
L 149.542167 250.065901 
L 149.672029 277.251132 
L 149.801891 261.296961 
L 149.931753 285.630302 
L 150.061615 265.114205 
L 150.191476 274.708918 
L 150.321338 257.641303 
L 150.4512 276.985568 
L 150.581062 273.977246 
L 150.710924 283.16747 
L 150.840785 252.40797 
L 150.970647 282.660033 
L 151.100509 284.780757 
L 151.360233 275.924852 
L 151.490095 293.225178 
L 151.619956 266.669909 
L 151.87968 283.411545 
L 152.009542 270.729889 
L 152.139404 241.351033 
L 152.399127 285.01648 
L 152.528989 267.181357 
L 152.788713 283.92774 
L 152.918575 270.016445 
L 153.048436 294.061232 
L 153.178298 243.589073 
L 153.438022 288.567641 
L 153.567884 265.332529 
L 153.697745 283.919665 
L 153.827607 273.172772 
L 153.957469 245.75391 
L 154.217193 287.449163 
L 154.606778 260.516382 
L 154.866502 284.281783 
L 154.996364 277.629394 
L 155.126225 280.346765 
L 155.256087 279.388722 
L 155.385949 284.937614 
L 155.645673 265.414154 
L 155.775535 254.501496 
L 155.905396 275.109652 
L 156.035258 274.659147 
L 156.16512 280.547376 
L 156.294982 265.393884 
L 156.684567 285.376713 
L 156.944291 278.416635 
L 157.074153 281.364204 
L 157.204015 279.346138 
L 157.333876 265.593708 
L 157.463738 284.03255 
L 157.5936 281.63379 
L 157.723462 276.285499 
L 157.853324 282.043731 
L 157.983185 270.063686 
L 158.113047 284.814568 
L 158.372771 267.397043 
L 158.502633 293.997268 
L 158.762356 266.525004 
L 158.892218 285.761778 
L 159.02208 280.814627 
L 159.151942 262.4656 
L 159.281804 260.726601 
L 159.411665 278.485851 
L 159.541527 280.826628 
L 159.801251 259.216541 
L 159.931113 282.762812 
L 160.060975 281.889906 
L 160.190836 282.280271 
L 160.45056 272.880905 
L 160.710284 285.918586 
L 161.099869 264.594774 
L 161.229731 268.986003 
L 161.359593 260.441936 
L 161.489455 268.174163 
L 161.619316 263.256365 
L 161.87904 290.375667 
L 162.008902 279.268279 
L 162.138764 282.713326 
L 162.268625 280.696306 
L 162.398487 285.519473 
L 162.528349 278.627302 
L 162.658211 285.30078 
L 162.788073 275.512869 
L 162.917935 279.192819 
L 163.047796 293.288701 
L 163.30752 285.750122 
L 163.437382 264.487475 
L 163.567244 282.116377 
L 163.697105 259.459802 
L 163.826967 282.730894 
L 163.956829 274.561443 
L 164.086691 292.376349 
L 164.216553 277.344978 
L 164.346415 280.880942 
L 164.476276 267.772887 
L 164.606138 281.867319 
L 164.736 276.824859 
L 164.865862 282.22995 
L 164.995724 270.241302 
L 165.125585 284.070807 
L 165.255447 277.163592 
L 165.385309 287.903326 
L 165.515171 289.060412 
L 165.774895 273.452816 
L 166.034618 286.878903 
L 166.294342 269.931853 
L 166.424204 278.447348 
L 166.554065 275.923762 
L 166.683927 281.944029 
L 166.813789 250.647527 
L 167.073513 289.68367 
L 167.203375 274.005901 
L 167.333236 284.801031 
L 167.463098 272.856633 
L 167.59296 289.193492 
L 167.722822 285.40792 
L 167.852684 288.200657 
L 167.982545 284.403814 
L 168.112407 274.210936 
L 168.242269 289.590291 
L 168.372131 272.382821 
L 168.501993 287.707491 
L 168.631855 285.023909 
L 168.761716 285.400806 
L 168.891578 259.318952 
L 169.02144 280.978137 
L 169.151302 276.982083 
L 169.281164 280.046671 
L 169.411025 276.52905 
L 169.540887 291.12987 
L 169.670749 285.020085 
L 169.800611 290.115429 
L 169.930473 272.462663 
L 170.060335 290.283785 
L 170.44992 275.24198 
L 170.709644 288.692979 
L 170.839505 275.284395 
L 170.969367 284.969342 
L 171.358953 279.289779 
L 171.748538 287.468452 
L 171.8784 284.218681 
L 172.008262 267.592557 
L 172.138124 280.276735 
L 172.397847 270.115408 
L 172.527709 292.634301 
L 172.657571 267.922581 
L 172.787433 283.43439 
L 172.917295 282.167524 
L 173.047156 278.459065 
L 173.436742 287.439567 
L 173.566604 270.219213 
L 173.826327 287.685052 
L 173.956189 283.743316 
L 174.086051 271.171293 
L 174.215913 288.223209 
L 174.475636 271.021759 
L 174.605498 287.214673 
L 174.865222 278.002202 
L 174.995084 283.120131 
L 175.124945 273.746214 
L 175.254807 291.693777 
L 175.514531 281.21291 
L 175.644393 291.387843 
L 175.774255 283.258776 
L 175.904116 283.768851 
L 176.033978 270.291365 
L 176.16384 293.911667 
L 176.293702 283.130833 
L 176.423564 285.80173 
L 176.683287 281.477567 
L 176.813149 283.220084 
L 176.943011 294.159781 
L 177.072873 279.317018 
L 177.202735 287.272169 
L 177.332596 275.75255 
L 177.462458 275.227041 
L 177.59232 277.660914 
L 177.722182 295.015685 
L 177.852044 269.045845 
L 177.981905 287.024914 
L 178.241629 277.632669 
L 178.371491 276.804345 
L 178.501353 282.076938 
L 178.631215 292.311846 
L 178.761076 275.796833 
L 178.890938 289.58582 
L 179.0208 286.093303 
L 179.280524 274.81558 
L 179.410385 278.861391 
L 179.540247 273.012427 
L 179.670109 281.958567 
L 179.799971 280.974098 
L 179.929833 270.123519 
L 180.059695 281.943958 
L 180.319418 278.096662 
L 180.44928 280.746966 
L 180.579142 278.592813 
L 180.709004 271.358398 
L 180.968727 291.857093 
L 181.098589 288.232474 
L 181.228451 278.076608 
L 181.358313 293.998288 
L 181.488175 278.695431 
L 181.618036 283.071943 
L 181.747898 271.609303 
L 181.87776 285.135454 
L 182.007622 281.929807 
L 182.267345 293.383266 
L 182.397207 291.922391 
L 182.527069 267.972743 
L 182.786793 288.8171 
L 182.916655 289.740518 
L 183.046516 275.393477 
L 183.176378 287.070996 
L 183.30624 288.539279 
L 183.436102 281.685786 
L 183.565964 283.832709 
L 183.695825 283.811224 
L 183.825687 291.015015 
L 183.955549 279.163487 
L 184.085411 285.774348 
L 184.215273 280.562304 
L 184.345135 292.084169 
L 184.474996 287.06114 
L 184.604858 287.164958 
L 184.73472 284.289445 
L 184.994444 271.006017 
L 185.124305 286.018329 
L 185.254167 285.522079 
L 185.384029 279.988823 
L 185.513891 281.389805 
L 185.643753 279.963308 
L 185.773615 284.758278 
L 185.903476 274.027656 
L 186.1632 286.369325 
L 186.293062 285.785047 
L 186.422924 281.475685 
L 186.682647 284.259552 
L 186.812509 291.77968 
L 186.942371 282.570615 
L 187.072233 285.14069 
L 187.202095 269.885425 
L 187.461818 292.781951 
L 187.721542 283.696278 
L 187.851404 285.841675 
L 187.981265 276.636649 
L 188.111127 283.377353 
L 188.240989 283.576803 
L 188.370851 274.583567 
L 188.500713 293.386592 
L 188.760436 285.03745 
L 188.890298 290.583018 
L 189.02016 289.971188 
L 189.150022 285.354111 
L 189.279884 291.579748 
L 189.409745 281.170347 
L 189.539607 284.334251 
L 189.669469 274.871928 
L 189.799331 289.361945 
L 189.929193 275.810333 
L 190.059055 285.188772 
L 190.188916 280.825377 
L 190.318778 283.52847 
L 190.44864 283.701735 
L 190.578502 286.990773 
L 190.708364 282.262038 
L 190.968087 287.74343 
L 191.097949 277.157404 
L 191.357673 288.835507 
L 191.487535 284.447007 
L 191.617396 285.660888 
L 191.747258 283.588876 
L 191.87712 277.156302 
L 192.006982 282.762701 
L 192.136844 281.799424 
L 192.266705 288.927634 
L 192.396567 273.381763 
L 192.526429 273.833624 
L 192.786153 286.866849 
L 192.916015 287.964327 
L 193.175738 280.595336 
L 193.435462 286.396197 
L 193.565324 273.616907 
L 193.695185 290.487272 
L 193.825047 282.433168 
L 194.084771 289.111737 
L 194.214633 282.318062 
L 194.344495 283.584139 
L 194.474356 291.031643 
L 194.604218 286.586606 
L 194.73408 292.65879 
L 194.863942 280.710917 
L 194.993804 294.644459 
L 195.123665 274.779002 
L 195.253527 289.181978 
L 195.513251 279.567093 
L 195.772975 291.98874 
L 195.902836 284.571671 
L 196.032698 285.055846 
L 196.16256 293.632248 
L 196.292422 282.882408 
L 196.422284 291.429796 
L 196.682007 283.32797 
L 196.811869 290.931929 
L 197.071593 283.116226 
L 197.201455 286.372313 
L 197.59104 275.866828 
L 197.720902 290.921791 
L 197.850764 280.700492 
L 198.110487 293.452052 
L 198.240349 285.522976 
L 198.370211 287.296773 
L 198.500073 279.832795 
L 198.629935 287.238875 
L 198.759796 281.604615 
L 198.889658 291.078327 
L 199.01952 282.4184 
L 199.149382 285.985587 
L 199.279244 282.666183 
L 199.409105 282.716072 
L 199.668829 290.316575 
L 199.798691 279.949865 
L 200.058415 290.236481 
L 200.188276 294.537868 
L 200.318138 287.483028 
L 200.448 295.161989 
L 200.707724 281.670022 
L 200.837585 286.185421 
L 200.967447 282.839444 
L 201.097309 294.175156 
L 201.227171 287.424193 
L 201.357033 294.506779 
L 201.616756 287.373548 
L 201.746618 292.276695 
L 201.87648 292.428167 
L 202.006342 294.29073 
L 202.266065 286.929548 
L 202.395927 294.702859 
L 202.525789 291.406147 
L 202.655651 291.506254 
L 202.785513 289.777979 
L 202.915375 290.38639 
L 203.045236 286.677312 
L 203.30496 293.595357 
L 203.434822 293.47186 
L 203.694545 291.951264 
L 203.824407 257.095701 
L 204.213993 285.816228 
L 204.343855 287.439453 
L 204.473716 287.075831 
L 204.603578 285.550784 
L 204.863302 290.992605 
L 204.993164 286.149752 
L 205.123025 290.493386 
L 205.252887 289.038457 
L 205.512611 290.316324 
L 205.642473 292.076506 
L 205.902196 291.021443 
L 206.16192 285.281395 
L 206.291782 287.316075 
L 206.421644 282.053565 
L 206.551505 294.678382 
L 206.811229 283.480539 
L 207.070953 287.559216 
L 207.200815 290.982286 
L 207.330676 290.562704 
L 207.460538 285.857411 
L 207.5904 289.213534 
L 207.720262 286.814925 
L 207.850124 290.43103 
L 208.239709 285.022473 
L 208.369571 285.090687 
L 208.499433 284.396686 
L 208.629295 285.638904 
L 208.759156 284.829934 
L 208.889018 289.6154 
L 209.01888 287.176127 
L 209.148742 279.879359 
L 209.408465 291.435326 
L 209.538327 292.469616 
L 209.668189 290.756086 
L 209.927913 283.323178 
L 210.057775 286.978287 
L 210.187636 283.142058 
L 210.44736 284.88503 
L 210.577222 287.197377 
L 210.707084 286.616804 
L 210.836945 289.396029 
L 210.966807 288.895136 
L 211.096669 284.070892 
L 211.356393 288.880001 
L 211.486255 286.639033 
L 211.616116 279.342923 
L 211.745978 289.094859 
L 212.005702 285.994905 
L 212.135564 284.802742 
L 212.265425 284.810766 
L 212.525149 289.606193 
L 212.655011 285.08645 
L 212.914735 289.459555 
L 213.044596 287.387993 
L 213.174458 287.623146 
L 213.434182 284.30611 
L 213.564044 283.911043 
L 213.693905 290.780713 
L 213.823767 286.516119 
L 213.953629 286.643508 
L 214.083491 288.183008 
L 214.213353 284.613651 
L 214.473076 287.517475 
L 214.602938 284.608278 
L 214.7328 289.774221 
L 214.862662 288.828701 
L 214.992524 290.054629 
L 215.122385 287.278434 
L 215.252247 289.603958 
L 215.511971 285.261612 
L 215.641833 286.752384 
L 215.771695 284.612415 
L 216.031418 290.998204 
L 216.16128 292.708398 
L 216.421004 286.104298 
L 216.680727 283.855605 
L 216.810589 288.2162 
L 216.940451 287.824009 
L 217.200175 292.875025 
L 217.459898 286.499182 
L 217.58976 286.496564 
L 217.719622 288.158526 
L 217.849484 284.409008 
L 217.979345 285.763603 
L 218.109207 289.307174 
L 218.239069 284.861761 
L 218.368931 288.351926 
L 218.498793 287.092885 
L 218.628655 287.783825 
L 218.758516 289.155976 
L 218.888378 286.53986 
L 219.01824 286.453672 
L 219.148102 289.596153 
L 219.277964 288.443581 
L 219.407825 286.020338 
L 219.667549 286.982821 
L 219.797411 282.486345 
L 219.927273 288.332958 
L 220.057135 287.435678 
L 220.186996 289.874398 
L 220.316858 285.330466 
L 220.44672 287.845603 
L 220.576582 286.720058 
L 220.706444 287.607684 
L 220.836305 290.258434 
L 220.966167 286.682034 
L 221.096029 290.311824 
L 221.355753 284.905807 
L 221.485615 289.362622 
L 221.8752 286.143014 
L 222.005062 287.968674 
L 222.134924 287.110026 
L 222.264785 287.857345 
L 222.394647 290.254924 
L 222.654371 287.84894 
L 222.784233 285.763566 
L 222.914095 290.725096 
L 223.173818 287.261811 
L 223.30368 290.555412 
L 223.433542 286.669868 
L 223.563404 289.342153 
L 223.693265 287.336871 
L 223.952989 290.29024 
L 224.082851 285.484985 
L 224.342575 287.323075 
L 224.472436 285.528658 
L 224.602298 286.52269 
L 224.73216 289.927309 
L 224.862022 287.411947 
L 224.991884 287.210728 
L 225.121745 289.709815 
L 225.251607 289.351783 
L 225.381469 290.807671 
L 225.511331 285.681745 
L 225.771055 287.738997 
L 225.900916 283.573431 
L 226.16064 288.232288 
L 226.290502 287.575322 
L 226.420364 288.350507 
L 226.550225 286.653677 
L 226.680087 291.067765 
L 226.809949 289.216409 
L 226.939811 289.608747 
L 227.069673 285.761646 
L 227.329396 286.431583 
L 227.459258 290.087207 
L 227.58912 288.037447 
L 227.718982 289.018782 
L 227.978705 285.761177 
L 228.108567 289.169489 
L 228.368291 285.966662 
L 228.498153 290.114778 
L 228.628015 290.676121 
L 228.757876 289.599668 
L 228.887738 291.496274 
L 229.147462 287.230838 
L 229.277324 287.483022 
L 229.407185 287.360429 
L 229.537047 285.738556 
L 229.796771 289.424487 
L 229.926633 290.653067 
L 230.186356 286.76113 
L 230.316218 287.656602 
L 230.44608 290.041946 
L 230.705804 287.609524 
L 230.835665 289.423253 
L 230.965527 287.5204 
L 231.095389 287.812256 
L 231.225251 286.960104 
L 231.355113 287.941738 
L 231.484975 286.041206 
L 231.614836 288.327128 
L 231.744698 287.9636 
L 231.87456 286.480076 
L 232.004422 289.321837 
L 232.134284 289.722132 
L 232.653731 286.707574 
L 232.783593 287.434111 
L 232.913455 289.577611 
L 233.043316 287.150952 
L 233.173178 288.01078 
L 233.30304 287.857911 
L 233.432902 288.845549 
L 233.562764 286.731148 
L 233.692625 287.680754 
L 233.822487 287.323788 
L 233.952349 287.944422 
L 234.082211 290.427179 
L 234.212073 288.745128 
L 234.341935 288.85899 
L 234.471796 290.269339 
L 234.601658 288.567083 
L 234.73152 288.852071 
L 234.861382 289.911506 
L 234.991244 288.305809 
L 235.121105 288.142997 
L 235.250967 288.804434 
L 235.380829 288.859549 
L 235.640553 286.918331 
L 235.770415 289.733337 
L 235.900276 289.106813 
L 236.030138 289.642496 
L 236.16 289.255307 
L 236.289862 290.424119 
L 236.549585 288.568522 
L 236.679447 288.432034 
L 236.809309 289.916254 
L 237.069033 287.264387 
L 237.328756 288.772847 
L 237.458618 287.276547 
L 237.58848 289.153667 
L 237.718342 288.724533 
L 237.848204 288.785546 
L 238.107927 289.43381 
L 238.237789 289.127443 
L 238.367651 289.598116 
L 238.497513 287.582634 
L 238.627375 287.82278 
L 238.757236 287.235863 
L 239.01696 287.391415 
L 239.146822 288.070139 
L 239.276684 289.585159 
L 239.406545 285.965117 
L 239.666269 290.383277 
L 239.796131 287.97212 
L 239.925993 289.615981 
L 240.055855 288.948726 
L 240.185716 286.100947 
L 240.315578 290.19179 
L 240.44544 287.789602 
L 240.705164 287.349441 
L 240.835025 286.818399 
L 240.964887 289.07309 
L 241.094749 287.765854 
L 241.224611 291.145798 
L 241.614196 289.0291 
L 241.744058 289.865927 
L 241.87392 288.490777 
L 242.003782 290.046392 
L 242.133644 286.801531 
L 242.263505 287.334466 
L 242.393367 289.710629 
L 242.523229 286.998766 
L 242.653091 288.975032 
L 242.782953 289.251268 
L 242.912815 288.581123 
L 243.042676 290.537825 
L 243.172538 290.234942 
L 243.3024 289.105016 
L 243.432262 291.383567 
L 243.691985 288.343961 
L 243.951709 289.194752 
L 244.081571 286.81079 
L 244.471156 289.37161 
L 244.601018 288.155448 
L 244.860742 290.57177 
L 244.990604 288.602137 
L 245.120465 288.556152 
L 245.250327 288.651443 
L 245.380189 288.042105 
L 245.510051 288.228966 
L 245.639913 288.159009 
L 245.899636 289.959947 
L 246.15936 288.431166 
L 246.289222 288.764014 
L 246.548945 288.055615 
L 246.678807 290.300358 
L 246.808669 287.655905 
L 246.938531 289.266255 
L 247.068393 286.211057 
L 247.198255 289.215973 
L 247.328116 287.873126 
L 247.457978 289.007464 
L 247.58784 289.114168 
L 247.977425 290.151616 
L 248.107287 289.244932 
L 248.367011 287.245081 
L 248.886458 290.697234 
L 249.01632 289.504888 
L 249.146182 290.092064 
L 249.405905 288.496924 
L 249.665629 290.692912 
L 249.925353 287.459862 
L 250.314938 289.809321 
L 250.574662 288.364207 
L 250.964247 289.612292 
L 251.094109 290.001003 
L 251.353833 287.437714 
L 251.483695 288.049151 
L 251.743418 286.09231 
L 251.87328 290.344075 
L 252.003142 290.53435 
L 252.133004 289.820779 
L 252.262865 288.083781 
L 252.392727 289.796152 
L 252.652451 287.612184 
L 252.912175 288.573322 
L 253.042036 288.406334 
L 253.30176 289.982268 
L 253.431622 289.85021 
L 253.561484 288.689582 
L 253.691345 290.40513 
L 253.821207 287.859178 
L 253.951069 289.517221 
L 254.080931 288.642117 
L 254.210793 289.33463 
L 254.340655 293.424899 
L 254.470516 287.310001 
L 254.600378 288.047711 
L 254.860102 291.236845 
L 255.119825 288.850819 
L 255.249687 289.376814 
L 255.379549 288.205908 
L 255.509411 289.040593 
L 255.639273 291.282737 
L 255.769135 287.674305 
L 255.898996 289.887814 
L 256.15872 288.344218 
L 256.288582 289.850749 
L 256.418444 289.1446 
L 256.678167 291.491636 
L 256.808029 290.42125 
L 256.937891 286.527259 
L 257.067753 291.666014 
L 257.197615 287.702543 
L 257.327476 290.011415 
L 257.457338 288.666708 
L 257.5872 288.488302 
L 257.717062 287.628793 
L 257.846924 289.457386 
L 257.976785 289.593128 
L 258.106647 287.764566 
L 258.236509 287.535322 
L 258.755956 290.520149 
L 258.885818 288.360446 
L 259.01568 290.778947 
L 259.275404 287.266468 
L 259.535127 291.660669 
L 259.664989 285.845198 
L 259.794851 289.600743 
L 259.924713 286.671733 
L 260.184436 290.700209 
L 260.44416 289.94853 
L 260.574022 287.724913 
L 260.703884 289.689035 
L 260.833745 289.574848 
L 260.963607 287.950906 
L 261.093469 288.262817 
L 261.223331 289.633907 
L 261.353193 288.179132 
L 261.483055 292.636975 
L 261.612916 288.205389 
L 261.742778 290.656714 
L 262.002502 289.568948 
L 262.132364 286.012499 
L 262.262225 289.908447 
L 262.392087 288.20093 
L 262.521949 291.573739 
L 262.651811 291.481961 
L 262.781673 289.897967 
L 262.911535 290.196109 
L 263.041396 290.117935 
L 263.171258 289.448187 
L 263.30112 287.280154 
L 263.560844 290.229933 
L 263.690705 288.177866 
L 263.820567 289.455533 
L 263.950429 288.805515 
L 264.080291 286.263656 
L 264.210153 289.447062 
L 264.340015 287.793011 
L 264.599738 291.14142 
L 264.7296 291.258362 
L 264.859462 289.875831 
L 264.989324 292.634153 
L 265.119185 286.954699 
L 265.249047 287.022168 
L 265.508771 288.643228 
L 265.638633 286.785328 
L 265.768495 287.75447 
L 265.898356 290.648168 
L 266.028218 288.787553 
L 266.15808 290.541437 
L 266.287942 289.680632 
L 266.547665 286.516761 
L 266.807389 290.444703 
L 266.937251 291.473594 
L 267.067113 290.033462 
L 267.196975 289.861737 
L 267.456698 288.196845 
L 267.58656 287.270553 
L 267.716422 290.795424 
L 267.846284 288.210651 
L 267.976145 290.024045 
L 268.106007 289.357825 
L 268.235869 291.880861 
L 268.365731 290.589731 
L 268.495593 290.578609 
L 268.755316 287.654863 
L 268.885178 288.801456 
L 269.01504 287.255409 
L 269.144902 292.917244 
L 269.404625 289.439641 
L 269.534487 287.345582 
L 269.664349 288.512733 
L 269.794211 287.304882 
L 270.053935 291.110983 
L 270.183796 291.267881 
L 270.313658 287.820558 
L 270.44352 289.757583 
L 270.573382 289.543815 
L 270.703244 289.864017 
L 270.833105 285.99764 
L 271.092829 288.178167 
L 271.222691 287.312032 
L 271.612276 293.038423 
L 271.742138 288.580241 
L 271.872 289.748457 
L 272.001862 289.232578 
L 272.131724 289.79446 
L 272.261585 289.048486 
L 272.391447 291.087019 
L 272.651171 286.530286 
L 273.170618 290.325042 
L 273.30048 288.469682 
L 273.430342 292.061899 
L 273.690065 289.526492 
L 273.819927 292.168325 
L 273.949789 291.194005 
L 274.079651 291.70822 
L 274.209513 286.06683 
L 274.339375 291.62181 
L 274.469236 287.37796 
L 274.72896 291.804798 
L 274.988684 286.255844 
L 275.248407 291.385153 
L 275.378269 292.654069 
L 275.637993 289.056801 
L 275.897716 290.961947 
L 276.027578 286.273196 
L 276.15744 290.717203 
L 276.287302 290.9135 
L 276.417164 288.262927 
L 276.547025 289.085069 
L 276.676887 286.672851 
L 276.806749 292.305397 
L 276.936611 288.064384 
L 277.066473 292.90535 
L 277.326196 288.105583 
L 277.58592 291.145744 
L 277.715782 288.959525 
L 277.845644 288.765328 
L 277.975505 287.196811 
L 278.235229 289.738994 
L 278.494953 287.364951 
L 278.624815 291.929942 
L 278.884538 288.306499 
L 279.0144 291.210237 
L 279.144262 287.350353 
L 279.274124 290.893002 
L 279.403985 290.31917 
L 279.533847 291.701982 
L 279.663709 288.053816 
L 279.923433 290.811722 
L 280.183156 288.249302 
L 280.313018 288.691633 
L 280.44288 289.595379 
L 280.572742 293.225556 
L 280.702604 292.354652 
L 280.832465 290.355127 
L 281.092189 291.89725 
L 281.222051 288.023829 
L 281.481775 289.661404 
L 281.611636 288.653743 
L 281.741498 292.107829 
L 281.87136 289.264505 
L 282.001222 290.081982 
L 282.131084 287.113131 
L 282.260945 290.597364 
L 282.390807 288.292304 
L 282.910255 292.130237 
L 283.040116 291.282411 
L 283.169978 287.543485 
L 283.429702 289.78395 
L 283.559564 287.927727 
L 283.689425 287.996465 
L 283.819287 288.510869 
L 284.208873 291.604856 
L 284.338735 287.603633 
L 284.468596 289.418481 
L 284.598458 287.7296 
L 284.72832 288.21161 
L 284.858182 287.850422 
L 284.988044 291.12235 
L 285.117905 288.686041 
L 285.247767 290.925201 
L 285.507491 287.962768 
L 285.637353 288.0393 
L 285.897076 290.354052 
L 286.026938 290.75701 
L 286.1568 289.126536 
L 286.416524 290.74832 
L 286.546385 288.937196 
L 286.676247 290.931399 
L 286.806109 289.244447 
L 286.935971 291.223838 
L 287.065833 288.139878 
L 287.325556 290.107003 
L 287.455418 290.27312 
L 287.58528 289.262179 
L 287.715142 290.717979 
L 287.974865 289.925955 
L 288.104727 292.135859 
L 288.234589 291.722651 
L 288.364451 290.688676 
L 288.494313 287.865722 
L 288.754036 290.978205 
L 288.883898 289.535692 
L 289.01376 289.735627 
L 289.143622 290.143733 
L 289.273484 289.856229 
L 289.533207 288.00385 
L 289.663069 291.212027 
L 289.922793 289.157048 
L 290.182516 289.864418 
L 290.312378 288.388852 
L 290.44224 290.221389 
L 290.572102 288.53098 
L 290.831825 288.744836 
L 290.961687 287.021465 
L 291.091549 290.888548 
L 291.221411 290.551701 
L 291.351273 288.731646 
L 291.481135 291.064741 
L 291.610996 290.444975 
L 291.740858 287.07601 
L 291.87072 290.88584 
L 292.000582 288.863548 
L 292.130444 289.046281 
L 292.260305 288.029807 
L 292.390167 288.749702 
L 292.520029 290.253079 
L 292.649891 289.483721 
L 292.779753 287.903792 
L 293.169338 291.769399 
L 293.2992 290.281374 
L 293.558924 292.202521 
L 293.688785 288.229574 
L 293.818647 290.830269 
L 293.948509 290.978023 
L 294.078371 287.671286 
L 294.208233 288.203201 
L 294.338095 292.099892 
L 294.597818 289.43647 
L 294.857542 291.076022 
L 294.987404 291.674571 
L 295.117265 288.622377 
L 295.376989 290.640131 
L 295.506851 290.844853 
L 295.636713 290.651107 
L 295.766575 289.150695 
L 295.896436 290.682061 
L 296.026298 286.231766 
L 296.286022 292.466123 
L 296.415884 288.445654 
L 296.675607 292.479772 
L 296.935331 288.477347 
L 297.065193 289.459549 
L 297.195055 288.48033 
L 297.324916 290.25552 
L 297.454778 289.589915 
L 297.58464 286.881689 
L 297.714502 290.589188 
L 297.844364 290.014777 
L 297.974225 288.66133 
L 298.104087 289.168384 
L 298.363811 290.387848 
L 298.493673 289.932825 
L 298.623535 292.981597 
L 298.883258 288.431033 
L 299.01312 291.153798 
L 299.272844 288.68381 
L 299.402705 288.558434 
L 299.662429 290.610053 
L 299.922153 288.941695 
L 300.181876 291.831334 
L 300.311738 289.849033 
L 300.4416 290.036166 
L 300.571462 290.574052 
L 300.701324 290.172569 
L 300.831185 291.287418 
L 300.961047 291.358244 
L 301.090909 290.554342 
L 301.220771 287.566362 
L 301.480495 290.495711 
L 301.610356 288.258183 
L 301.740218 291.52236 
L 301.87008 290.941284 
L 301.999942 292.198046 
L 302.259665 289.685398 
L 302.389527 290.264765 
L 302.519389 291.567455 
L 302.649251 290.45031 
L 302.779113 288.367876 
L 302.908975 289.567232 
L 303.038836 289.570334 
L 303.168698 289.229243 
L 303.29856 290.316168 
L 303.558284 287.766464 
L 303.688145 289.138544 
L 303.818007 292.174233 
L 303.947869 290.045619 
L 304.077731 289.920086 
L 304.207593 291.429015 
L 304.337455 289.712207 
L 304.467316 290.70728 
L 304.597178 288.832187 
L 304.856902 290.503692 
L 305.246487 287.83303 
L 305.506211 290.282879 
L 305.636073 289.537522 
L 305.765935 290.952919 
L 305.895796 288.789593 
L 306.025658 291.289796 
L 306.15552 290.669075 
L 306.285382 291.002994 
L 306.415244 290.795275 
L 306.545105 290.874512 
L 306.674967 289.909055 
L 306.804829 289.964124 
L 306.934691 289.481008 
L 307.324276 291.24872 
L 307.454138 290.242526 
L 307.584 290.189961 
L 307.713862 289.569555 
L 307.843724 292.257741 
L 307.973585 290.208026 
L 308.103447 290.824884 
L 308.233309 290.656359 
L 308.363171 289.822351 
L 308.493033 290.173356 
L 308.752756 288.64889 
L 308.882618 290.43478 
L 309.01248 289.580574 
L 309.142342 290.823352 
L 309.272204 290.649725 
L 309.402065 290.160644 
L 309.531927 290.862204 
L 309.791651 289.137516 
L 309.921513 289.008884 
L 310.311098 292.33014 
L 310.44096 289.099407 
L 310.570822 290.012153 
L 310.700684 288.600134 
L 310.960407 289.935033 
L 311.090269 289.67725 
L 311.220131 291.017444 
L 311.349993 290.479786 
L 311.609716 291.073679 
L 311.86944 289.276718 
L 311.999302 290.815383 
L 312.259025 289.191163 
L 312.388887 288.640639 
L 312.518749 290.658279 
L 312.648611 289.834783 
L 312.778473 290.870946 
L 312.908335 289.543083 
L 313.038196 291.458514 
L 313.168058 290.096284 
L 313.29792 290.370696 
L 313.427782 291.908394 
L 313.817367 289.662731 
L 313.947229 290.424115 
L 314.206953 289.274702 
L 314.336815 290.730708 
L 314.466676 290.477188 
L 314.596538 289.642363 
L 314.7264 291.371972 
L 314.856262 290.0089 
L 314.986124 292.018536 
L 315.245847 290.473166 
L 315.505571 290.328983 
L 315.635433 289.356994 
L 315.765295 289.784107 
L 315.895156 291.288334 
L 316.025018 289.71596 
L 316.15488 289.510956 
L 316.284742 290.099086 
L 316.414604 289.028325 
L 316.674327 290.586712 
L 316.804189 290.648578 
L 317.063913 290.085584 
L 317.193775 288.832364 
L 317.453498 290.168889 
L 317.58336 288.968293 
L 317.843084 291.082155 
L 317.972945 289.261155 
L 318.232669 291.170787 
L 318.362531 289.345773 
L 318.622255 289.970775 
L 318.752116 290.212704 
L 318.881978 289.855365 
L 319.01184 290.533064 
L 319.141702 290.377096 
L 319.271564 291.295471 
L 319.531287 289.058618 
L 319.661149 290.953933 
L 320.050735 290.531999 
L 320.180596 291.465229 
L 320.310458 288.352549 
L 320.570182 291.708051 
L 320.829905 290.547945 
L 320.959767 290.776239 
L 321.089629 291.547422 
L 321.219491 289.987927 
L 321.349353 290.223096 
L 321.479215 290.688458 
L 321.609076 289.228278 
L 321.738938 290.550184 
L 321.8688 289.929561 
L 322.128524 291.473718 
L 322.258385 289.750394 
L 322.388247 291.39104 
L 322.518109 289.581662 
L 322.647971 290.083516 
L 322.777833 289.44391 
L 322.907695 291.931144 
L 323.29728 288.947991 
L 323.427142 290.209629 
L 323.686865 289.022008 
L 323.946589 290.653236 
L 324.076451 289.763071 
L 324.206313 290.241677 
L 324.336175 289.683913 
L 324.466036 290.137245 
L 324.595898 291.160449 
L 324.72576 289.769614 
L 324.855622 291.587593 
L 324.985484 288.689819 
L 325.245207 291.00857 
L 325.375069 291.371853 
L 325.504931 288.588143 
L 325.764655 291.54813 
L 325.894516 290.409594 
L 326.15424 291.195608 
L 326.284102 291.05904 
L 326.413964 290.485021 
L 326.543825 290.697098 
L 326.673687 289.973052 
L 326.803549 289.921068 
L 326.933411 290.677598 
L 327.063273 290.251597 
L 327.322996 291.553142 
L 327.452858 290.062748 
L 327.58272 292.016507 
L 327.842444 289.373877 
L 327.972305 289.781174 
L 328.102167 290.588562 
L 328.232029 289.750439 
L 328.491753 289.980156 
L 328.621615 289.596576 
L 328.751476 290.799157 
L 328.881338 290.55473 
L 329.0112 290.684884 
L 329.141062 290.617895 
L 329.270924 290.206538 
L 329.400785 290.701967 
L 329.920233 289.117657 
L 330.050095 291.257344 
L 330.179956 288.900629 
L 330.309818 290.231575 
L 330.43968 290.404409 
L 330.569542 291.686747 
L 330.699404 290.841902 
L 330.959127 290.734472 
L 331.088989 290.056527 
L 331.218851 290.799167 
L 331.348713 289.167011 
L 331.478575 290.561827 
L 331.608436 289.663963 
L 331.86816 291.115132 
L 332.127884 289.729341 
L 332.257745 289.649404 
L 332.387607 291.349948 
L 332.517469 291.527056 
L 332.647331 290.019795 
L 332.777193 291.824242 
L 332.907055 289.994524 
L 333.036916 291.963316 
L 333.166778 289.947823 
L 333.29664 290.956664 
L 333.556364 290.800759 
L 333.686225 290.924375 
L 334.075811 289.632546 
L 334.465396 291.305956 
L 334.595258 291.312308 
L 334.72512 290.936514 
L 334.854982 291.198323 
L 335.114705 289.628431 
L 335.244567 290.502942 
L 335.374429 289.012684 
L 335.504291 290.195814 
L 335.634153 289.907559 
L 335.893876 290.874005 
L 336.023738 289.549964 
L 336.1536 289.559858 
L 336.283462 290.204968 
L 336.413324 289.674919 
L 336.543185 290.345134 
L 336.673047 290.092355 
L 336.802909 290.870356 
L 336.932771 290.439049 
L 337.062633 290.977201 
L 337.192495 290.667268 
L 337.58208 288.465793 
L 337.711942 289.968364 
L 337.841804 290.129754 
L 338.231389 291.316455 
L 338.491113 290.57286 
L 338.620975 290.270539 
L 338.880698 291.213462 
L 339.01056 290.963374 
L 339.140422 289.629275 
L 339.270284 290.637031 
L 339.530007 289.998363 
L 339.659869 291.131296 
L 339.919593 289.510086 
L 340.179316 292.260025 
L 340.309178 290.11787 
L 340.43904 291.346894 
L 340.568902 291.094997 
L 340.828625 289.344107 
L 340.958487 290.426977 
L 341.088349 290.433317 
L 341.218211 290.184203 
L 341.348073 290.834661 
L 341.477935 289.31465 
L 341.737658 290.382487 
L 341.997382 291.182995 
L 342.127244 291.091278 
L 342.257105 289.809591 
L 342.386967 290.419683 
L 342.516829 290.214162 
L 342.646691 290.637387 
L 342.776553 289.292281 
L 342.906415 291.003049 
L 343.036276 289.740538 
L 343.166138 289.871601 
L 343.296 289.746719 
L 343.555724 290.913681 
L 343.685585 290.08444 
L 343.945309 290.818062 
L 344.075171 291.436441 
L 344.205033 290.971031 
L 344.334895 290.976516 
L 344.464756 292.024836 
L 344.72448 289.037423 
L 344.854342 290.637279 
L 344.984204 289.997707 
L 345.243927 290.457343 
L 345.373789 291.179726 
L 345.503651 290.239407 
L 345.633513 291.668746 
L 345.763375 290.415427 
L 346.023098 291.498388 
L 346.282822 290.559689 
L 346.412684 291.301952 
L 346.672407 289.947462 
L 346.802269 291.5569 
L 346.932131 289.297952 
L 347.061993 289.88224 
L 347.191855 291.15826 
L 347.321716 291.250225 
L 347.451578 290.445436 
L 347.58144 291.133302 
L 347.711302 291.030426 
L 347.971025 289.612856 
L 348.230749 290.744617 
L 348.360611 290.304904 
L 348.490473 290.801168 
L 348.620335 290.542997 
L 348.750196 290.830419 
L 349.00992 289.323941 
L 349.139782 291.02728 
L 349.399505 288.957576 
L 349.659229 291.774158 
L 349.918953 290.074275 
L 350.048815 290.744043 
L 350.178676 289.442923 
L 350.308538 290.236008 
L 350.4384 289.499483 
L 350.568262 290.878635 
L 350.698124 290.1861 
L 350.957847 291.186278 
L 351.217571 290.565737 
L 351.347433 290.649635 
L 351.477295 292.151817 
L 351.737018 289.880786 
L 351.996742 291.138857 
L 352.256465 290.274362 
L 352.386327 289.946586 
L 352.516189 290.625451 
L 352.646051 290.129449 
L 352.775913 291.538549 
L 352.905775 291.434965 
L 353.035636 291.571637 
L 353.165498 291.043851 
L 353.29536 291.189465 
L 353.425222 290.283019 
L 353.555084 290.203311 
L 353.814807 290.792209 
L 353.944669 290.679767 
L 354.074531 290.384629 
L 354.334255 290.894708 
L 354.464116 290.199659 
L 354.593978 290.269725 
L 354.72384 290.918613 
L 354.853702 290.307651 
L 354.983564 291.398421 
L 355.113425 289.750402 
L 355.243287 291.350704 
L 355.373149 290.193844 
L 355.503011 291.498548 
L 355.632873 290.345409 
L 355.762735 290.372893 
L 355.892596 289.682441 
L 356.022458 289.757949 
L 356.15232 291.057017 
L 356.282182 290.591248 
L 356.412044 289.651185 
L 356.541905 290.536517 
L 356.671767 290.33455 
L 356.931491 291.30395 
L 357.061353 290.231564 
L 357.191215 291.046926 
L 357.321076 290.129359 
L 357.450938 291.085293 
L 357.5808 289.70784 
L 357.710662 291.33618 
L 357.840524 290.470541 
L 357.970385 291.102578 
L 358.100247 290.842794 
L 358.230109 290.24651 
L 358.359971 290.186948 
L 358.489833 291.422944 
L 358.619695 291.277139 
L 358.749556 289.903527 
L 359.00928 291.09124 
L 359.139142 290.557135 
L 359.269004 291.071309 
L 359.398865 290.890826 
L 359.528727 290.426826 
L 359.658589 291.123849 
L 359.788451 290.591108 
L 359.918313 291.196719 
L 360.048175 290.408635 
L 360.178036 291.706 
L 360.307898 289.63645 
L 360.43776 290.93986 
L 360.567622 289.567535 
L 360.957207 291.429114 
L 361.087069 290.90505 
L 361.216931 289.438067 
L 361.346793 291.29906 
L 361.476655 290.244806 
L 361.606516 290.390882 
L 361.736378 290.70803 
L 361.86624 289.885958 
L 361.996102 290.057506 
L 362.125964 291.107403 
L 362.255825 290.19225 
L 362.385687 290.942039 
L 362.515549 290.595354 
L 362.645411 290.681706 
L 362.905135 290.066523 
L 363.034996 289.249914 
L 363.29472 291.347451 
L 363.424582 290.358892 
L 363.554444 290.785755 
L 363.684305 290.085088 
L 363.944029 291.074199 
L 364.203753 290.567517 
L 364.463476 291.56318 
L 364.7232 289.767811 
L 364.853062 290.678045 
L 364.982924 290.399494 
L 365.112785 290.882145 
L 365.372509 290.699812 
L 365.502371 290.765354 
L 365.632233 291.334056 
L 365.762095 290.699307 
L 365.891956 291.277026 
L 366.021818 291.056412 
L 366.15168 289.910551 
L 366.281542 290.891576 
L 366.541265 290.362012 
L 366.671127 290.569629 
L 366.800989 291.471141 
L 367.060713 290.076684 
L 367.190575 290.253668 
L 367.320436 290.873188 
L 367.450298 290.620961 
L 367.58016 291.213373 
L 367.710022 289.821484 
L 367.839884 290.609625 
L 368.359331 290.470914 
L 368.489193 290.035467 
L 368.748916 291.490756 
L 368.878778 290.072878 
L 369.00864 290.63538 
L 369.138502 290.400817 
L 369.268364 291.003767 
L 369.398225 290.641618 
L 369.657949 291.273932 
L 369.917673 290.038802 
L 370.047535 291.054623 
L 370.177396 289.884741 
L 370.307258 290.366122 
L 370.43712 290.208051 
L 370.566982 291.134433 
L 370.696844 290.633647 
L 370.826705 290.901051 
L 370.956567 290.667998 
L 371.086429 291.462425 
L 371.346153 290.951685 
L 371.605876 290.706582 
L 371.735738 290.353269 
L 371.995462 291.170129 
L 372.255185 290.791582 
L 372.385047 290.757658 
L 372.514909 290.374652 
L 373.034356 291.716028 
L 373.164218 289.875838 
L 373.553804 291.051555 
L 373.683665 290.323572 
L 373.813527 290.271332 
L 373.943389 291.151632 
L 374.073251 290.910494 
L 374.332975 290.947601 
L 374.462836 290.89989 
L 374.592698 290.120342 
L 374.852422 290.242774 
L 374.982284 290.963562 
L 375.112145 290.324541 
L 375.371869 291.061827 
L 375.631593 290.11042 
L 375.891316 291.119479 
L 376.021178 290.129625 
L 376.15104 290.182035 
L 376.410764 291.29874 
L 376.540625 289.992158 
L 376.670487 290.629724 
L 376.800349 290.539139 
L 376.930211 290.186049 
L 377.060073 290.611485 
L 377.189935 290.380832 
L 377.319796 290.453961 
L 377.449658 291.392786 
L 377.57952 290.71594 
L 377.709382 291.994152 
L 377.839244 290.648709 
L 377.969105 290.953296 
L 378.098967 290.901671 
L 378.228829 291.333649 
L 378.488553 290.246063 
L 378.618415 290.193637 
L 378.748276 290.338025 
L 378.878138 290.967083 
L 379.008 290.605605 
L 379.267724 291.213109 
L 379.397585 291.360264 
L 379.787171 290.103162 
L 379.917033 290.716461 
L 380.046895 290.563685 
L 380.176756 291.293548 
L 380.306618 290.202923 
L 380.43648 291.202491 
L 380.566342 290.232548 
L 380.696204 290.3042 
L 380.826065 289.963094 
L 380.955927 289.950736 
L 381.085789 290.986977 
L 381.345513 290.676529 
L 381.475375 290.821552 
L 381.605236 291.340373 
L 381.735098 290.544151 
L 381.994822 291.252884 
L 382.124684 290.386531 
L 382.254545 290.445445 
L 382.384407 290.958434 
L 382.773993 289.486907 
L 382.903855 290.506856 
L 383.033716 290.423005 
L 383.163578 290.641535 
L 383.29344 290.584995 
L 383.423302 290.234278 
L 383.553164 291.205127 
L 383.812887 290.622295 
L 383.942749 291.049321 
L 384.202473 290.537209 
L 384.462196 290.735042 
L 384.592058 290.51769 
L 384.72192 291.105561 
L 384.851782 291.173455 
L 384.981644 290.270242 
L 385.111505 290.988586 
L 385.241367 290.628945 
L 385.371229 291.154109 
L 385.501091 291.140635 
L 385.630953 290.360148 
L 385.760815 290.833801 
L 385.890676 290.518878 
L 386.020538 290.9255 
L 386.1504 290.575067 
L 386.280262 291.167429 
L 386.410124 291.180189 
L 386.539985 290.353262 
L 386.799709 290.882259 
L 386.929571 290.663985 
L 387.189295 291.118968 
L 387.708742 290.152775 
L 387.838604 290.690539 
L 388.098327 289.807499 
L 388.228189 290.963535 
L 388.358051 290.357697 
L 388.617775 290.531491 
L 388.747636 291.443065 
L 388.877498 289.978891 
L 389.137222 290.610199 
L 389.267084 290.4402 
L 389.526807 291.120639 
L 389.916393 290.107566 
L 390.046255 290.382429 
L 390.305978 291.352507 
L 390.43584 290.109575 
L 390.565702 291.316075 
L 390.695564 291.014711 
L 390.825425 291.283481 
L 390.955287 291.275159 
L 391.215011 290.298546 
L 391.344873 289.926089 
L 391.474735 291.187913 
L 391.604596 290.672213 
L 391.734458 291.077154 
L 391.86432 290.812607 
L 391.994182 290.927264 
L 392.124044 291.475772 
L 392.253905 291.120689 
L 392.383767 291.245745 
L 392.643491 290.944885 
L 392.903215 289.992401 
L 393.033076 291.229215 
L 393.162938 290.827928 
L 393.2928 289.685975 
L 393.422662 290.800146 
L 393.552524 290.355324 
L 393.682385 290.381385 
L 393.942109 291.050127 
L 394.071971 290.812724 
L 394.201833 290.941665 
L 394.461556 290.555013 
L 394.591418 290.578259 
L 394.72128 290.132898 
L 394.981004 291.377297 
L 395.110865 290.378635 
L 395.240727 290.368296 
L 395.370589 290.896 
L 395.500451 290.852025 
L 395.760175 289.85074 
L 395.890036 290.868898 
L 396.019898 290.575175 
L 396.14976 291.006466 
L 396.279622 290.660518 
L 396.409484 290.847879 
L 396.669207 290.459669 
L 396.928931 290.858379 
L 397.058793 290.717134 
L 397.188655 291.229438 
L 397.318516 291.170073 
L 397.57824 290.012952 
L 397.708102 290.98801 
L 397.967825 290.786757 
L 398.097687 290.840719 
L 398.227549 290.705661 
L 398.357411 291.119292 
L 398.487273 290.758986 
L 398.487273 290.758986 
" style="fill:none;stroke:#1f77b4;stroke-linecap:square;stroke-width:1.5;"/>
   </g>
   <g id="patch_3">
    <path d="M 57.6 307.584 
L 57.6 41.472 
" style="fill:none;stroke:#000000;stroke-linecap:square;stroke-linejoin:miter;stroke-width:0.8;"/>
   </g>
   <g id="patch_4">
    <path d="M 414.72 307.584 
L 414.72 41.472 
" style="fill:none;stroke:#000000;stroke-linecap:square;stroke-linejoin:miter;stroke-width:0.8;"/>
   </g>
   <g id="patch_5">
    <path d="M 57.6 307.584 
L 414.72 307.584 
" style="fill:none;stroke:#000000;stroke-linecap:square;stroke-linejoin:miter;stroke-width:0.8;"/>
   </g>
   <g id="patch_6">
    <path d="M 57.6 41.472 
L 414.72 41.472 
" style="fill:none;stroke:#000000;stroke-linecap:square;stroke-linejoin:miter;stroke-width:0.8;"/>
   </g>
   <g id="text_16">
    <!-- Spectrum of output after eliminating baseline wander -->
    <g transform="translate(74.744063 35.472)scale(0.12 -0.12)">
     <defs>
      <path d="M 53.515625 70.515625 
L 53.515625 60.890625 
Q 47.90625 63.578125 42.921875 64.890625 
Q 37.9375 66.21875 33.296875 66.21875 
Q 25.25 66.21875 20.875 63.09375 
Q 16.5 59.96875 16.5 54.203125 
Q 16.5 49.359375 19.40625 46.890625 
Q 22.3125 44.4375 30.421875 42.921875 
L 36.375 41.703125 
Q 47.40625 39.59375 52.65625 34.296875 
Q 57.90625 29 57.90625 20.125 
Q 57.90625 9.515625 50.796875 4.046875 
Q 43.703125 -1.421875 29.984375 -1.421875 
Q 24.8125 -1.421875 18.96875 -0.25 
Q 13.140625 0.921875 6.890625 3.21875 
L 6.890625 13.375 
Q 12.890625 10.015625 18.65625 8.296875 
Q 24.421875 6.59375 29.984375 6.59375 
Q 38.421875 6.59375 43.015625 9.90625 
Q 47.609375 13.234375 47.609375 19.390625 
Q 47.609375 24.75 44.3125 27.78125 
Q 41.015625 30.8125 33.5 32.328125 
L 27.484375 33.5 
Q 16.453125 35.6875 11.515625 40.375 
Q 6.59375 45.0625 6.59375 53.421875 
Q 6.59375 63.09375 13.40625 68.65625 
Q 20.21875 74.21875 32.171875 74.21875 
Q 37.3125 74.21875 42.625 73.28125 
Q 47.953125 72.359375 53.515625 70.515625 
z
" id="DejaVuSans-83"/>
      <path d="M 18.109375 8.203125 
L 18.109375 -20.796875 
L 9.078125 -20.796875 
L 9.078125 54.6875 
L 18.109375 54.6875 
L 18.109375 46.390625 
Q 20.953125 51.265625 25.265625 53.625 
Q 29.59375 56 35.59375 56 
Q 45.5625 56 51.78125 48.09375 
Q 58.015625 40.1875 58.015625 27.296875 
Q 58.015625 14.40625 51.78125 6.484375 
Q 45.5625 -1.421875 35.59375 -1.421875 
Q 29.59375 -1.421875 25.265625 0.953125 
Q 20.953125 3.328125 18.109375 8.203125 
z
M 48.6875 27.296875 
Q 48.6875 37.203125 44.609375 42.84375 
Q 40.53125 48.484375 33.40625 48.484375 
Q 26.265625 48.484375 22.1875 42.84375 
Q 18.109375 37.203125 18.109375 27.296875 
Q 18.109375 17.390625 22.1875 11.75 
Q 26.265625 6.109375 33.40625 6.109375 
Q 40.53125 6.109375 44.609375 11.75 
Q 48.6875 17.390625 48.6875 27.296875 
z
" id="DejaVuSans-112"/>
      <path d="M 18.3125 70.21875 
L 18.3125 54.6875 
L 36.8125 54.6875 
L 36.8125 47.703125 
L 18.3125 47.703125 
L 18.3125 18.015625 
Q 18.3125 11.328125 20.140625 9.421875 
Q 21.96875 7.515625 27.59375 7.515625 
L 36.8125 7.515625 
L 36.8125 0 
L 27.59375 0 
Q 17.1875 0 13.234375 3.875 
Q 9.28125 7.765625 9.28125 18.015625 
L 9.28125 47.703125 
L 2.6875 47.703125 
L 2.6875 54.6875 
L 9.28125 54.6875 
L 9.28125 70.21875 
z
" id="DejaVuSans-116"/>
      <path d="M 52 44.1875 
Q 55.375 50.25 60.0625 53.125 
Q 64.75 56 71.09375 56 
Q 79.640625 56 84.28125 50.015625 
Q 88.921875 44.046875 88.921875 33.015625 
L 88.921875 0 
L 79.890625 0 
L 79.890625 32.71875 
Q 79.890625 40.578125 77.09375 44.375 
Q 74.3125 48.1875 68.609375 48.1875 
Q 61.625 48.1875 57.5625 43.546875 
Q 53.515625 38.921875 53.515625 30.90625 
L 53.515625 0 
L 44.484375 0 
L 44.484375 32.71875 
Q 44.484375 40.625 41.703125 44.40625 
Q 38.921875 48.1875 33.109375 48.1875 
Q 26.21875 48.1875 22.15625 43.53125 
Q 18.109375 38.875 18.109375 30.90625 
L 18.109375 0 
L 9.078125 0 
L 9.078125 54.6875 
L 18.109375 54.6875 
L 18.109375 46.1875 
Q 21.1875 51.21875 25.484375 53.609375 
Q 29.78125 56 35.6875 56 
Q 41.65625 56 45.828125 52.96875 
Q 50 49.953125 52 44.1875 
z
" id="DejaVuSans-109"/>
      <path id="DejaVuSans-32"/>
      <path d="M 30.609375 48.390625 
Q 23.390625 48.390625 19.1875 42.75 
Q 14.984375 37.109375 14.984375 27.296875 
Q 14.984375 17.484375 19.15625 11.84375 
Q 23.34375 6.203125 30.609375 6.203125 
Q 37.796875 6.203125 41.984375 11.859375 
Q 46.1875 17.53125 46.1875 27.296875 
Q 46.1875 37.015625 41.984375 42.703125 
Q 37.796875 48.390625 30.609375 48.390625 
z
M 30.609375 56 
Q 42.328125 56 49.015625 48.375 
Q 55.71875 40.765625 55.71875 27.296875 
Q 55.71875 13.875 49.015625 6.21875 
Q 42.328125 -1.421875 30.609375 -1.421875 
Q 18.84375 -1.421875 12.171875 6.21875 
Q 5.515625 13.875 5.515625 27.296875 
Q 5.515625 40.765625 12.171875 48.375 
Q 18.84375 56 30.609375 56 
z
" id="DejaVuSans-111"/>
      <path d="M 34.28125 27.484375 
Q 23.390625 27.484375 19.1875 25 
Q 14.984375 22.515625 14.984375 16.5 
Q 14.984375 11.71875 18.140625 8.90625 
Q 21.296875 6.109375 26.703125 6.109375 
Q 34.1875 6.109375 38.703125 11.40625 
Q 43.21875 16.703125 43.21875 25.484375 
L 43.21875 27.484375 
z
M 52.203125 31.203125 
L 52.203125 0 
L 43.21875 0 
L 43.21875 8.296875 
Q 40.140625 3.328125 35.546875 0.953125 
Q 30.953125 -1.421875 24.3125 -1.421875 
Q 15.921875 -1.421875 10.953125 3.296875 
Q 6 8.015625 6 15.921875 
Q 6 25.140625 12.171875 29.828125 
Q 18.359375 34.515625 30.609375 34.515625 
L 43.21875 34.515625 
L 43.21875 35.40625 
Q 43.21875 41.609375 39.140625 45 
Q 35.0625 48.390625 27.6875 48.390625 
Q 23 48.390625 18.546875 47.265625 
Q 14.109375 46.140625 10.015625 43.890625 
L 10.015625 52.203125 
Q 14.9375 54.109375 19.578125 55.046875 
Q 24.21875 56 28.609375 56 
Q 40.484375 56 46.34375 49.84375 
Q 52.203125 43.703125 52.203125 31.203125 
z
" id="DejaVuSans-97"/>
      <path d="M 9.421875 75.984375 
L 18.40625 75.984375 
L 18.40625 0 
L 9.421875 0 
z
" id="DejaVuSans-108"/>
      <path d="M 9.421875 54.6875 
L 18.40625 54.6875 
L 18.40625 0 
L 9.421875 0 
z
M 9.421875 75.984375 
L 18.40625 75.984375 
L 18.40625 64.59375 
L 9.421875 64.59375 
z
" id="DejaVuSans-105"/>
      <path d="M 45.40625 27.984375 
Q 45.40625 37.75 41.375 43.109375 
Q 37.359375 48.484375 30.078125 48.484375 
Q 22.859375 48.484375 18.828125 43.109375 
Q 14.796875 37.75 14.796875 27.984375 
Q 14.796875 18.265625 18.828125 12.890625 
Q 22.859375 7.515625 30.078125 7.515625 
Q 37.359375 7.515625 41.375 12.890625 
Q 45.40625 18.265625 45.40625 27.984375 
z
M 54.390625 6.78125 
Q 54.390625 -7.171875 48.1875 -13.984375 
Q 42 -20.796875 29.203125 -20.796875 
Q 24.46875 -20.796875 20.265625 -20.09375 
Q 16.0625 -19.390625 12.109375 -17.921875 
L 12.109375 -9.1875 
Q 16.0625 -11.328125 19.921875 -12.34375 
Q 23.78125 -13.375 27.78125 -13.375 
Q 36.625 -13.375 41.015625 -8.765625 
Q 45.40625 -4.15625 45.40625 5.171875 
L 45.40625 9.625 
Q 42.625 4.78125 38.28125 2.390625 
Q 33.9375 0 27.875 0 
Q 17.828125 0 11.671875 7.65625 
Q 5.515625 15.328125 5.515625 27.984375 
Q 5.515625 40.671875 11.671875 48.328125 
Q 17.828125 56 27.875 56 
Q 33.9375 56 38.28125 53.609375 
Q 42.625 51.21875 45.40625 46.390625 
L 45.40625 54.6875 
L 54.390625 54.6875 
z
" id="DejaVuSans-103"/>
      <path d="M 48.6875 27.296875 
Q 48.6875 37.203125 44.609375 42.84375 
Q 40.53125 48.484375 33.40625 48.484375 
Q 26.265625 48.484375 22.1875 42.84375 
Q 18.109375 37.203125 18.109375 27.296875 
Q 18.109375 17.390625 22.1875 11.75 
Q 26.265625 6.109375 33.40625 6.109375 
Q 40.53125 6.109375 44.609375 11.75 
Q 48.6875 17.390625 48.6875 27.296875 
z
M 18.109375 46.390625 
Q 20.953125 51.265625 25.265625 53.625 
Q 29.59375 56 35.59375 56 
Q 45.5625 56 51.78125 48.09375 
Q 58.015625 40.1875 58.015625 27.296875 
Q 58.015625 14.40625 51.78125 6.484375 
Q 45.5625 -1.421875 35.59375 -1.421875 
Q 29.59375 -1.421875 25.265625 0.953125 
Q 20.953125 3.328125 18.109375 8.203125 
L 18.109375 0 
L 9.078125 0 
L 9.078125 75.984375 
L 18.109375 75.984375 
z
" id="DejaVuSans-98"/>
      <path d="M 44.28125 53.078125 
L 44.28125 44.578125 
Q 40.484375 46.53125 36.375 47.5 
Q 32.28125 48.484375 27.875 48.484375 
Q 21.1875 48.484375 17.84375 46.4375 
Q 14.5 44.390625 14.5 40.28125 
Q 14.5 37.15625 16.890625 35.375 
Q 19.28125 33.59375 26.515625 31.984375 
L 29.59375 31.296875 
Q 39.15625 29.25 43.1875 25.515625 
Q 47.21875 21.78125 47.21875 15.09375 
Q 47.21875 7.46875 41.1875 3.015625 
Q 35.15625 -1.421875 24.609375 -1.421875 
Q 20.21875 -1.421875 15.453125 -0.5625 
Q 10.6875 0.296875 5.421875 2 
L 5.421875 11.28125 
Q 10.40625 8.6875 15.234375 7.390625 
Q 20.0625 6.109375 24.8125 6.109375 
Q 31.15625 6.109375 34.5625 8.28125 
Q 37.984375 10.453125 37.984375 14.40625 
Q 37.984375 18.0625 35.515625 20.015625 
Q 33.0625 21.96875 24.703125 23.78125 
L 21.578125 24.515625 
Q 13.234375 26.265625 9.515625 29.90625 
Q 5.8125 33.546875 5.8125 39.890625 
Q 5.8125 47.609375 11.28125 51.796875 
Q 16.75 56 26.8125 56 
Q 31.78125 56 36.171875 55.265625 
Q 40.578125 54.546875 44.28125 53.078125 
z
" id="DejaVuSans-115"/>
      <path d="M 4.203125 54.6875 
L 13.1875 54.6875 
L 24.421875 12.015625 
L 35.59375 54.6875 
L 46.1875 54.6875 
L 57.421875 12.015625 
L 68.609375 54.6875 
L 77.59375 54.6875 
L 63.28125 0 
L 52.6875 0 
L 40.921875 44.828125 
L 29.109375 0 
L 18.5 0 
z
" id="DejaVuSans-119"/>
     </defs>
     <use xlink:href="#DejaVuSans-83"/>
     <use x="63.476562" xlink:href="#DejaVuSans-112"/>
     <use x="126.953125" xlink:href="#DejaVuSans-101"/>
     <use x="188.476562" xlink:href="#DejaVuSans-99"/>
     <use x="243.457031" xlink:href="#DejaVuSans-116"/>
     <use x="282.666016" xlink:href="#DejaVuSans-114"/>
     <use x="323.779297" xlink:href="#DejaVuSans-117"/>
     <use x="387.158203" xlink:href="#DejaVuSans-109"/>
     <use x="484.570312" xlink:href="#DejaVuSans-32"/>
     <use x="516.357422" xlink:href="#DejaVuSans-111"/>
     <use x="577.539062" xlink:href="#DejaVuSans-102"/>
     <use x="612.744141" xlink:href="#DejaVuSans-32"/>
     <use x="644.53125" xlink:href="#DejaVuSans-111"/>
     <use x="705.712891" xlink:href="#DejaVuSans-117"/>
     <use x="769.091797" xlink:href="#DejaVuSans-116"/>
     <use x="808.300781" xlink:href="#DejaVuSans-112"/>
     <use x="871.777344" xlink:href="#DejaVuSans-117"/>
     <use x="935.15625" xlink:href="#DejaVuSans-116"/>
     <use x="974.365234" xlink:href="#DejaVuSans-32"/>
     <use x="1006.152344" xlink:href="#DejaVuSans-97"/>
     <use x="1067.431641" xlink:href="#DejaVuSans-102"/>
     <use x="1100.886719" xlink:href="#DejaVuSans-116"/>
     <use x="1140.095703" xlink:href="#DejaVuSans-101"/>
     <use x="1201.619141" xlink:href="#DejaVuSans-114"/>
     <use x="1242.732422" xlink:href="#DejaVuSans-32"/>
     <use x="1274.519531" xlink:href="#DejaVuSans-101"/>
     <use x="1336.042969" xlink:href="#DejaVuSans-108"/>
     <use x="1363.826172" xlink:href="#DejaVuSans-105"/>
     <use x="1391.609375" xlink:href="#DejaVuSans-109"/>
     <use x="1489.021484" xlink:href="#DejaVuSans-105"/>
     <use x="1516.804688" xlink:href="#DejaVuSans-110"/>
     <use x="1580.183594" xlink:href="#DejaVuSans-97"/>
     <use x="1641.462891" xlink:href="#DejaVuSans-116"/>
     <use x="1680.671875" xlink:href="#DejaVuSans-105"/>
     <use x="1708.455078" xlink:href="#DejaVuSans-110"/>
     <use x="1771.833984" xlink:href="#DejaVuSans-103"/>
     <use x="1835.310547" xlink:href="#DejaVuSans-32"/>
     <use x="1867.097656" xlink:href="#DejaVuSans-98"/>
     <use x="1930.574219" xlink:href="#DejaVuSans-97"/>
     <use x="1991.853516" xlink:href="#DejaVuSans-115"/>
     <use x="2043.953125" xlink:href="#DejaVuSans-101"/>
     <use x="2105.476562" xlink:href="#DejaVuSans-108"/>
     <use x="2133.259766" xlink:href="#DejaVuSans-105"/>
     <use x="2161.042969" xlink:href="#DejaVuSans-110"/>
     <use x="2224.421875" xlink:href="#DejaVuSans-101"/>
     <use x="2285.945312" xlink:href="#DejaVuSans-32"/>
     <use x="2317.732422" xlink:href="#DejaVuSans-119"/>
     <use x="2399.519531" xlink:href="#DejaVuSans-97"/>
     <use x="2460.798828" xlink:href="#DejaVuSans-110"/>
     <use x="2524.177734" xlink:href="#DejaVuSans-100"/>
     <use x="2587.654297" xlink:href="#DejaVuSans-101"/>
     <use x="2649.177734" xlink:href="#DejaVuSans-114"/>
    </g>
   </g>
  </g>
 </g>
 <defs>
  <clipPath id="p4434be16b9">
   <rect height="266.112" width="357.12" x="57.6" y="41.472"/>
  </clipPath>
 </defs>
</svg>
