<?xml version="1.0" encoding="utf-8" standalone="no"?>
<!DOCTYPE svg PUBLIC "-//W3C//DTD SVG 1.1//EN"
  "http://www.w3.org/Graphics/SVG/1.1/DTD/svg11.dtd">
<!-- Created with matplotlib (https://matplotlib.org/) -->
<svg height="345.6pt" version="1.1" viewBox="0 0 460.8 345.6" width="460.8pt" xmlns="http://www.w3.org/2000/svg" xmlns:xlink="http://www.w3.org/1999/xlink">
 <metadata>
  <rdf:RDF xmlns:cc="http://creativecommons.org/ns#" xmlns:dc="http://purl.org/dc/elements/1.1/" xmlns:rdf="http://www.w3.org/1999/02/22-rdf-syntax-ns#">
   <cc:Work>
    <dc:type rdf:resource="http://purl.org/dc/dcmitype/StillImage"/>
    <dc:date>2021-11-15T09:54:39.309389</dc:date>
    <dc:format>image/svg+xml</dc:format>
    <dc:creator>
     <cc:Agent>
      <dc:title>Matplotlib v3.3.2, https://matplotlib.org/</dc:title>
     </cc:Agent>
    </dc:creator>
   </cc:Work>
  </rdf:RDF>
 </metadata>
 <defs>
  <style type="text/css">*{stroke-linecap:butt;stroke-linejoin:round;}</style>
 </defs>
 <g id="figure_1">
  <g id="patch_1">
   <path d="M 0 345.6 
L 460.8 345.6 
L 460.8 0 
L 0 0 
z
" style="fill:#ffffff;"/>
  </g>
  <g id="axes_1">
   <g id="patch_2">
    <path d="M 57.6 307.584 
L 414.72 307.584 
L 414.72 41.472 
L 57.6 41.472 
z
" style="fill:#ffffff;"/>
   </g>
   <g id="matplotlib.axis_1">
    <g id="xtick_1">
     <g id="line2d_1">
      <defs>
       <path d="M 0 0 
L 0 3.5 
" id="me200a37a84" style="stroke:#000000;stroke-width:0.8;"/>
      </defs>
      <g>
       <use style="stroke:#000000;stroke-width:0.8;" x="73.832727" xlink:href="#me200a37a84" y="307.584"/>
      </g>
     </g>
     <g id="text_1">
      <!-- 0.0 -->
      <g transform="translate(65.881165 322.182437)scale(0.1 -0.1)">
       <defs>
        <path d="M 31.78125 66.40625 
Q 24.171875 66.40625 20.328125 58.90625 
Q 16.5 51.421875 16.5 36.375 
Q 16.5 21.390625 20.328125 13.890625 
Q 24.171875 6.390625 31.78125 6.390625 
Q 39.453125 6.390625 43.28125 13.890625 
Q 47.125 21.390625 47.125 36.375 
Q 47.125 51.421875 43.28125 58.90625 
Q 39.453125 66.40625 31.78125 66.40625 
z
M 31.78125 74.21875 
Q 44.046875 74.21875 50.515625 64.515625 
Q 56.984375 54.828125 56.984375 36.375 
Q 56.984375 17.96875 50.515625 8.265625 
Q 44.046875 -1.421875 31.78125 -1.421875 
Q 19.53125 -1.421875 13.0625 8.265625 
Q 6.59375 17.96875 6.59375 36.375 
Q 6.59375 54.828125 13.0625 64.515625 
Q 19.53125 74.21875 31.78125 74.21875 
z
" id="DejaVuSans-48"/>
        <path d="M 10.6875 12.40625 
L 21 12.40625 
L 21 0 
L 10.6875 0 
z
" id="DejaVuSans-46"/>
       </defs>
       <use xlink:href="#DejaVuSans-48"/>
       <use x="63.623047" xlink:href="#DejaVuSans-46"/>
       <use x="95.410156" xlink:href="#DejaVuSans-48"/>
      </g>
     </g>
    </g>
    <g id="xtick_2">
     <g id="line2d_2">
      <g>
       <use style="stroke:#000000;stroke-width:0.8;" x="114.422663" xlink:href="#me200a37a84" y="307.584"/>
      </g>
     </g>
     <g id="text_2">
      <!-- 2.5 -->
      <g transform="translate(106.471101 322.182437)scale(0.1 -0.1)">
       <defs>
        <path d="M 19.1875 8.296875 
L 53.609375 8.296875 
L 53.609375 0 
L 7.328125 0 
L 7.328125 8.296875 
Q 12.9375 14.109375 22.625 23.890625 
Q 32.328125 33.6875 34.8125 36.53125 
Q 39.546875 41.84375 41.421875 45.53125 
Q 43.3125 49.21875 43.3125 52.78125 
Q 43.3125 58.59375 39.234375 62.25 
Q 35.15625 65.921875 28.609375 65.921875 
Q 23.96875 65.921875 18.8125 64.3125 
Q 13.671875 62.703125 7.8125 59.421875 
L 7.8125 69.390625 
Q 13.765625 71.78125 18.9375 73 
Q 24.125 74.21875 28.421875 74.21875 
Q 39.75 74.21875 46.484375 68.546875 
Q 53.21875 62.890625 53.21875 53.421875 
Q 53.21875 48.921875 51.53125 44.890625 
Q 49.859375 40.875 45.40625 35.40625 
Q 44.1875 33.984375 37.640625 27.21875 
Q 31.109375 20.453125 19.1875 8.296875 
z
" id="DejaVuSans-50"/>
        <path d="M 10.796875 72.90625 
L 49.515625 72.90625 
L 49.515625 64.59375 
L 19.828125 64.59375 
L 19.828125 46.734375 
Q 21.96875 47.46875 24.109375 47.828125 
Q 26.265625 48.1875 28.421875 48.1875 
Q 40.625 48.1875 47.75 41.5 
Q 54.890625 34.8125 54.890625 23.390625 
Q 54.890625 11.625 47.5625 5.09375 
Q 40.234375 -1.421875 26.90625 -1.421875 
Q 22.3125 -1.421875 17.546875 -0.640625 
Q 12.796875 0.140625 7.71875 1.703125 
L 7.71875 11.625 
Q 12.109375 9.234375 16.796875 8.0625 
Q 21.484375 6.890625 26.703125 6.890625 
Q 35.15625 6.890625 40.078125 11.328125 
Q 45.015625 15.765625 45.015625 23.390625 
Q 45.015625 31 40.078125 35.4375 
Q 35.15625 39.890625 26.703125 39.890625 
Q 22.75 39.890625 18.8125 39.015625 
Q 14.890625 38.140625 10.796875 36.28125 
z
" id="DejaVuSans-53"/>
       </defs>
       <use xlink:href="#DejaVuSans-50"/>
       <use x="63.623047" xlink:href="#DejaVuSans-46"/>
       <use x="95.410156" xlink:href="#DejaVuSans-53"/>
      </g>
     </g>
    </g>
    <g id="xtick_3">
     <g id="line2d_3">
      <g>
       <use style="stroke:#000000;stroke-width:0.8;" x="155.0126" xlink:href="#me200a37a84" y="307.584"/>
      </g>
     </g>
     <g id="text_3">
      <!-- 5.0 -->
      <g transform="translate(147.061037 322.182437)scale(0.1 -0.1)">
       <use xlink:href="#DejaVuSans-53"/>
       <use x="63.623047" xlink:href="#DejaVuSans-46"/>
       <use x="95.410156" xlink:href="#DejaVuSans-48"/>
      </g>
     </g>
    </g>
    <g id="xtick_4">
     <g id="line2d_4">
      <g>
       <use style="stroke:#000000;stroke-width:0.8;" x="195.602536" xlink:href="#me200a37a84" y="307.584"/>
      </g>
     </g>
     <g id="text_4">
      <!-- 7.5 -->
      <g transform="translate(187.650973 322.182437)scale(0.1 -0.1)">
       <defs>
        <path d="M 8.203125 72.90625 
L 55.078125 72.90625 
L 55.078125 68.703125 
L 28.609375 0 
L 18.3125 0 
L 43.21875 64.59375 
L 8.203125 64.59375 
z
" id="DejaVuSans-55"/>
       </defs>
       <use xlink:href="#DejaVuSans-55"/>
       <use x="63.623047" xlink:href="#DejaVuSans-46"/>
       <use x="95.410156" xlink:href="#DejaVuSans-53"/>
      </g>
     </g>
    </g>
    <g id="xtick_5">
     <g id="line2d_5">
      <g>
       <use style="stroke:#000000;stroke-width:0.8;" x="236.192472" xlink:href="#me200a37a84" y="307.584"/>
      </g>
     </g>
     <g id="text_5">
      <!-- 10.0 -->
      <g transform="translate(225.059659 322.182437)scale(0.1 -0.1)">
       <defs>
        <path d="M 12.40625 8.296875 
L 28.515625 8.296875 
L 28.515625 63.921875 
L 10.984375 60.40625 
L 10.984375 69.390625 
L 28.421875 72.90625 
L 38.28125 72.90625 
L 38.28125 8.296875 
L 54.390625 8.296875 
L 54.390625 0 
L 12.40625 0 
z
" id="DejaVuSans-49"/>
       </defs>
       <use xlink:href="#DejaVuSans-49"/>
       <use x="63.623047" xlink:href="#DejaVuSans-48"/>
       <use x="127.246094" xlink:href="#DejaVuSans-46"/>
       <use x="159.033203" xlink:href="#DejaVuSans-48"/>
      </g>
     </g>
    </g>
    <g id="xtick_6">
     <g id="line2d_6">
      <g>
       <use style="stroke:#000000;stroke-width:0.8;" x="276.782408" xlink:href="#me200a37a84" y="307.584"/>
      </g>
     </g>
     <g id="text_6">
      <!-- 12.5 -->
      <g transform="translate(265.649596 322.182437)scale(0.1 -0.1)">
       <use xlink:href="#DejaVuSans-49"/>
       <use x="63.623047" xlink:href="#DejaVuSans-50"/>
       <use x="127.246094" xlink:href="#DejaVuSans-46"/>
       <use x="159.033203" xlink:href="#DejaVuSans-53"/>
      </g>
     </g>
    </g>
    <g id="xtick_7">
     <g id="line2d_7">
      <g>
       <use style="stroke:#000000;stroke-width:0.8;" x="317.372344" xlink:href="#me200a37a84" y="307.584"/>
      </g>
     </g>
     <g id="text_7">
      <!-- 15.0 -->
      <g transform="translate(306.239532 322.182437)scale(0.1 -0.1)">
       <use xlink:href="#DejaVuSans-49"/>
       <use x="63.623047" xlink:href="#DejaVuSans-53"/>
       <use x="127.246094" xlink:href="#DejaVuSans-46"/>
       <use x="159.033203" xlink:href="#DejaVuSans-48"/>
      </g>
     </g>
    </g>
    <g id="xtick_8">
     <g id="line2d_8">
      <g>
       <use style="stroke:#000000;stroke-width:0.8;" x="357.96228" xlink:href="#me200a37a84" y="307.584"/>
      </g>
     </g>
     <g id="text_8">
      <!-- 17.5 -->
      <g transform="translate(346.829468 322.182437)scale(0.1 -0.1)">
       <use xlink:href="#DejaVuSans-49"/>
       <use x="63.623047" xlink:href="#DejaVuSans-55"/>
       <use x="127.246094" xlink:href="#DejaVuSans-46"/>
       <use x="159.033203" xlink:href="#DejaVuSans-53"/>
      </g>
     </g>
    </g>
    <g id="xtick_9">
     <g id="line2d_9">
      <g>
       <use style="stroke:#000000;stroke-width:0.8;" x="398.552217" xlink:href="#me200a37a84" y="307.584"/>
      </g>
     </g>
     <g id="text_9">
      <!-- 20.0 -->
      <g transform="translate(387.419404 322.182437)scale(0.1 -0.1)">
       <use xlink:href="#DejaVuSans-50"/>
       <use x="63.623047" xlink:href="#DejaVuSans-48"/>
       <use x="127.246094" xlink:href="#DejaVuSans-46"/>
       <use x="159.033203" xlink:href="#DejaVuSans-48"/>
      </g>
     </g>
    </g>
   </g>
   <g id="matplotlib.axis_2">
    <g id="ytick_1">
     <g id="line2d_10">
      <defs>
       <path d="M 0 0 
L -3.5 0 
" id="m9d196e4753" style="stroke:#000000;stroke-width:0.8;"/>
      </defs>
      <g>
       <use style="stroke:#000000;stroke-width:0.8;" x="57.6" xlink:href="#m9d196e4753" y="288.92338"/>
      </g>
     </g>
     <g id="text_10">
      <!-- −0.002 -->
      <g transform="translate(13.592188 292.722599)scale(0.1 -0.1)">
       <defs>
        <path d="M 10.59375 35.5 
L 73.1875 35.5 
L 73.1875 27.203125 
L 10.59375 27.203125 
z
" id="DejaVuSans-8722"/>
       </defs>
       <use xlink:href="#DejaVuSans-8722"/>
       <use x="83.789062" xlink:href="#DejaVuSans-48"/>
       <use x="147.412109" xlink:href="#DejaVuSans-46"/>
       <use x="179.199219" xlink:href="#DejaVuSans-48"/>
       <use x="242.822266" xlink:href="#DejaVuSans-48"/>
       <use x="306.445312" xlink:href="#DejaVuSans-50"/>
      </g>
     </g>
    </g>
    <g id="ytick_2">
     <g id="line2d_11">
      <g>
       <use style="stroke:#000000;stroke-width:0.8;" x="57.6" xlink:href="#m9d196e4753" y="231.530429"/>
      </g>
     </g>
     <g id="text_11">
      <!-- −0.001 -->
      <g transform="translate(13.592188 235.329648)scale(0.1 -0.1)">
       <use xlink:href="#DejaVuSans-8722"/>
       <use x="83.789062" xlink:href="#DejaVuSans-48"/>
       <use x="147.412109" xlink:href="#DejaVuSans-46"/>
       <use x="179.199219" xlink:href="#DejaVuSans-48"/>
       <use x="242.822266" xlink:href="#DejaVuSans-48"/>
       <use x="306.445312" xlink:href="#DejaVuSans-49"/>
      </g>
     </g>
    </g>
    <g id="ytick_3">
     <g id="line2d_12">
      <g>
       <use style="stroke:#000000;stroke-width:0.8;" x="57.6" xlink:href="#m9d196e4753" y="174.137477"/>
      </g>
     </g>
     <g id="text_12">
      <!-- 0.000 -->
      <g transform="translate(21.971875 177.936696)scale(0.1 -0.1)">
       <use xlink:href="#DejaVuSans-48"/>
       <use x="63.623047" xlink:href="#DejaVuSans-46"/>
       <use x="95.410156" xlink:href="#DejaVuSans-48"/>
       <use x="159.033203" xlink:href="#DejaVuSans-48"/>
       <use x="222.65625" xlink:href="#DejaVuSans-48"/>
      </g>
     </g>
    </g>
    <g id="ytick_4">
     <g id="line2d_13">
      <g>
       <use style="stroke:#000000;stroke-width:0.8;" x="57.6" xlink:href="#m9d196e4753" y="116.744525"/>
      </g>
     </g>
     <g id="text_13">
      <!-- 0.001 -->
      <g transform="translate(21.971875 120.543744)scale(0.1 -0.1)">
       <use xlink:href="#DejaVuSans-48"/>
       <use x="63.623047" xlink:href="#DejaVuSans-46"/>
       <use x="95.410156" xlink:href="#DejaVuSans-48"/>
       <use x="159.033203" xlink:href="#DejaVuSans-48"/>
       <use x="222.65625" xlink:href="#DejaVuSans-49"/>
      </g>
     </g>
    </g>
    <g id="ytick_5">
     <g id="line2d_14">
      <g>
       <use style="stroke:#000000;stroke-width:0.8;" x="57.6" xlink:href="#m9d196e4753" y="59.351574"/>
      </g>
     </g>
     <g id="text_14">
      <!-- 0.002 -->
      <g transform="translate(21.971875 63.150793)scale(0.1 -0.1)">
       <use xlink:href="#DejaVuSans-48"/>
       <use x="63.623047" xlink:href="#DejaVuSans-46"/>
       <use x="95.410156" xlink:href="#DejaVuSans-48"/>
       <use x="159.033203" xlink:href="#DejaVuSans-48"/>
       <use x="222.65625" xlink:href="#DejaVuSans-50"/>
      </g>
     </g>
    </g>
   </g>
   <g id="line2d_15">
    <path clip-path="url(#pbb2b68b881)" d="M 73.832727 174.137477 
L 83.119705 174.177802 
L 83.314536 174.441943 
L 83.37948 174.386722 
L 83.899031 175.443605 
L 84.028919 175.108862 
L 84.158807 175.674078 
L 84.223751 175.570249 
L 84.353639 174.905365 
L 84.483527 175.316669 
L 84.678358 173.884636 
L 84.743302 174.098979 
L 84.808246 174.08418 
L 85.003078 172.181285 
L 85.068022 172.461955 
L 85.132966 172.312912 
L 85.262853 170.486013 
L 85.327797 170.520879 
L 85.392741 171.039345 
L 85.457685 170.902753 
L 85.587573 169.429944 
L 85.782404 170.965536 
L 85.847348 170.285583 
L 85.912292 170.323202 
L 86.107124 173.178919 
L 86.172068 172.819736 
L 86.237012 173.505018 
L 86.431843 177.158126 
L 86.496787 176.965022 
L 87.016339 184.221234 
L 87.146226 181.992185 
L 87.276114 183.564647 
L 87.406002 180.172273 
L 87.53589 178.415758 
L 87.600834 178.212886 
L 88.38016 153.026876 
L 88.445104 152.777362 
L 88.574992 154.31763 
L 88.70488 152.494745 
L 89.094543 171.96186 
L 89.743982 253.318575 
L 90.003758 295.488 
L 90.068702 53.568 
L 90.133646 65.859341 
L 91.107804 185.592622 
L 91.237692 187.965097 
L 91.432524 195.608909 
L 91.562411 193.245588 
L 91.627355 193.570384 
L 91.692299 193.752995 
L 92.796345 167.427559 
L 92.926233 167.056517 
L 93.315897 168.928035 
L 93.510728 171.441375 
L 93.70556 169.50843 
L 93.835448 170.622698 
L 93.900392 169.699658 
L 93.965336 169.854226 
L 94.290055 176.182424 
L 94.354999 176.313023 
L 94.419943 176.213483 
L 94.614775 174.529427 
L 94.679718 175.057102 
L 94.744662 176.587795 
L 94.809606 175.979396 
L 94.87455 174.379112 
L 94.939494 174.95069 
L 95.069382 177.664898 
L 95.19927 176.888528 
L 95.264214 177.376492 
L 95.394101 180.076624 
L 95.459045 179.41408 
L 95.523989 179.375291 
L 95.653877 182.950264 
L 95.718821 182.899762 
L 95.783765 183.173198 
L 95.848709 184.387214 
L 96.04354 194.029196 
L 96.238372 172.805629 
L 96.498148 104.221743 
L 96.563092 123.258785 
L 96.822867 189.619843 
L 97.017699 185.0556 
L 97.147587 183.534114 
L 97.212531 184.113869 
L 97.277474 184.316972 
L 97.407362 182.801512 
L 97.667138 178.570028 
L 97.861969 176.467091 
L 97.926913 176.641632 
L 98.121745 172.047126 
L 98.186689 172.555888 
L 98.251633 173.303762 
L 98.316577 172.603243 
L 98.446465 169.984812 
L 98.576352 171.326911 
L 98.70624 169.77915 
L 98.771184 169.879957 
L 98.966016 172.823909 
L 99.03096 171.118768 
L 99.095904 171.299531 
L 99.290735 173.924462 
L 99.420623 172.438494 
L 99.550511 175.299612 
L 99.745343 173.962741 
L 99.87523 176.882817 
L 99.940174 176.854024 
L 100.070062 175.441269 
L 100.19995 176.799743 
L 100.264894 176.737131 
L 100.394782 174.979645 
L 100.524669 176.295161 
L 100.589613 176.17569 
L 100.719501 174.128896 
L 100.914333 175.560345 
L 101.04422 172.176848 
L 101.174108 173.843512 
L 101.36894 170.894366 
L 101.433884 171.530715 
L 101.563772 172.276121 
L 101.693659 170.949903 
L 101.888491 173.723902 
L 101.953435 173.655394 
L 102.018379 173.814951 
L 102.148267 176.540221 
L 102.213211 176.135487 
L 102.343098 175.060928 
L 102.53793 176.206456 
L 102.667818 174.71432 
L 102.797706 177.014566 
L 102.992537 172.932002 
L 103.122425 175.479501 
L 103.317257 171.863179 
L 103.382201 172.889686 
L 103.512089 174.137786 
L 103.641976 172.441599 
L 103.70692 172.845587 
L 103.771864 174.029272 
L 103.836808 173.536593 
L 103.901752 173.077061 
L 103.966696 173.37565 
L 104.161528 174.059875 
L 104.291415 173.19001 
L 104.421303 175.730129 
L 104.616135 172.640072 
L 104.746023 175.980172 
L 104.810967 175.909175 
L 104.940854 172.923891 
L 105.005798 173.818521 
L 105.070742 175.311678 
L 105.20063 173.196661 
L 105.330518 175.61638 
L 105.395462 175.51829 
L 105.525349 173.698398 
L 105.590293 173.882025 
L 105.785125 175.226879 
L 105.915013 172.817861 
L 106.044901 174.87362 
L 106.109845 173.695651 
L 106.174788 173.824444 
L 106.36962 175.4482 
L 106.564452 172.857664 
L 106.629396 174.028432 
L 106.69434 173.998274 
L 106.759283 173.744354 
L 106.889171 172.530836 
L 107.019059 174.228342 
L 107.148947 172.602723 
L 107.213891 172.692536 
L 107.343779 174.449012 
L 107.408722 174.071173 
L 107.473666 172.793613 
L 107.53861 173.69634 
L 107.603554 174.469428 
L 107.668498 174.08431 
L 107.798386 172.192061 
L 107.86333 172.385707 
L 107.993218 175.587041 
L 108.123105 172.59164 
L 108.188049 173.655386 
L 108.382881 176.414468 
L 108.447825 175.114133 
L 108.512769 175.242135 
L 108.642657 176.918156 
L 108.7076 176.906132 
L 108.837488 175.794605 
L 108.967376 177.74066 
L 109.162208 175.388794 
L 109.292096 177.322205 
L 109.421983 172.079913 
L 109.486927 172.580958 
L 109.551871 172.606959 
L 109.746703 167.573863 
L 109.811647 168.074323 
L 109.941534 171.686762 
L 110.006478 171.423122 
L 110.136366 169.665471 
L 110.20131 171.994627 
L 110.266254 171.61449 
L 110.396142 170.598245 
L 110.590973 173.04207 
L 110.655917 172.688583 
L 110.720861 173.043396 
L 111.110525 178.298116 
L 111.240412 180.061061 
L 111.759964 191.454081 
L 111.824908 195.114531 
L 111.889851 194.032642 
L 112.214571 133.898909 
L 112.344459 107.696386 
L 112.669178 191.368993 
L 112.86401 186.436385 
L 113.058842 183.378761 
L 113.123785 183.792413 
L 113.188729 184.059021 
L 113.383561 180.358596 
L 113.513449 180.258457 
L 113.643337 175.106998 
L 113.708281 176.124803 
L 113.773224 175.940391 
L 114.033 171.221491 
L 114.162888 172.992589 
L 114.35772 169.382168 
L 114.487607 172.714747 
L 114.552551 171.961275 
L 114.617495 169.190428 
L 114.682439 169.2262 
L 114.812327 171.350191 
L 114.942215 170.366176 
L 115.072102 174.272596 
L 115.20199 174.175088 
L 115.331878 172.058632 
L 115.461766 176.664577 
L 115.52671 175.46471 
L 115.591654 174.527643 
L 115.786485 177.451836 
L 115.916373 175.473505 
L 116.046261 178.12868 
L 116.241093 174.97465 
L 116.500868 177.256276 
L 116.6957 172.911972 
L 116.825588 175.582768 
L 116.955475 171.969344 
L 117.085363 172.996407 
L 117.280195 170.25422 
L 117.345139 171.824673 
L 117.410083 171.332447 
L 117.475027 171.952397 
L 117.539971 171.908183 
L 117.604914 171.505586 
L 117.734802 175.928167 
L 117.86469 172.740218 
L 117.994578 176.056 
L 118.059522 174.905595 
L 118.124466 174.127612 
L 118.384241 178.179983 
L 118.514129 174.346466 
L 118.579073 175.075017 
L 118.644017 176.293663 
L 118.708961 176.011141 
L 118.773905 175.293563 
L 118.903792 171.512035 
L 119.098624 174.38564 
L 119.163568 174.219139 
L 119.293456 174.792062 
L 119.488287 172.516522 
L 119.553231 171.632017 
L 119.683119 174.172007 
L 119.813007 172.091584 
L 119.877951 172.524656 
L 120.007839 174.896123 
L 120.072783 172.867147 
L 120.20267 175.413869 
L 120.267614 175.209432 
L 120.332558 175.317374 
L 120.462446 173.020419 
L 120.52739 174.107648 
L 120.592334 177.389788 
L 120.657278 176.090646 
L 120.787165 172.076734 
L 120.917053 174.381752 
L 121.046941 177.556019 
L 121.176829 175.243657 
L 121.241773 175.327961 
L 121.306717 175.553049 
L 121.436604 172.335582 
L 121.566492 175.0628 
L 121.631436 174.78017 
L 121.761324 171.800011 
L 121.956156 173.537735 
L 122.086043 172.256771 
L 122.150987 173.468359 
L 122.215931 173.413567 
L 122.280875 172.755248 
L 122.540651 174.546626 
L 122.605595 173.837693 
L 122.670538 174.43714 
L 122.86537 172.207479 
L 122.930314 172.70417 
L 122.995258 171.743954 
L 123.255034 177.354276 
L 123.319977 176.077911 
L 123.384921 174.985965 
L 123.449865 175.368207 
L 123.579753 179.657329 
L 123.709641 173.968852 
L 123.904473 178.778005 
L 123.969416 177.393899 
L 124.03436 175.538835 
L 124.099304 175.701852 
L 124.164248 177.197663 
L 124.424024 171.478373 
L 124.553912 172.635999 
L 124.683799 169.036104 
L 124.748743 169.051886 
L 124.813687 169.395317 
L 124.878631 169.277781 
L 124.943575 169.045025 
L 125.20335 172.246855 
L 125.268294 170.314872 
L 125.333238 170.425632 
L 125.593014 173.763813 
L 125.657958 173.180456 
L 125.852789 176.25521 
L 125.917733 175.449775 
L 126.502228 186.03867 
L 126.567172 186.585386 
L 126.632116 186.576809 
L 126.762004 197.004822 
L 126.826948 195.427406 
L 127.086724 151.962948 
L 127.281555 105.579172 
L 127.411443 147.275644 
L 127.606275 192.792727 
L 127.930994 184.75661 
L 127.995938 185.500408 
L 128.060882 185.340493 
L 128.19077 182.847488 
L 128.645377 175.691137 
L 128.710321 176.499441 
L 128.970097 171.554091 
L 129.03504 172.10599 
L 129.099984 172.301807 
L 129.229872 170.096753 
L 129.294816 170.350388 
L 129.35976 171.445967 
L 129.424704 171.078766 
L 129.489648 169.384115 
L 129.554592 169.501715 
L 129.814367 172.355524 
L 129.944255 171.389931 
L 130.074143 173.693274 
L 130.139087 173.650765 
L 130.204031 172.144913 
L 130.268975 172.615318 
L 130.398862 176.007474 
L 130.463806 175.33153 
L 130.52875 174.101615 
L 130.593694 174.973777 
L 130.723582 177.122717 
L 130.85347 175.126911 
L 130.918414 175.518863 
L 131.048301 177.608546 
L 131.178189 175.402306 
L 131.308077 177.659259 
L 131.373021 177.180593 
L 131.502909 174.559263 
L 131.567852 174.934283 
L 131.632796 175.990935 
L 131.827628 171.896321 
L 131.957516 173.290376 
L 132.152348 170.642068 
L 132.217291 171.075225 
L 132.282235 171.122961 
L 132.412123 170.732945 
L 132.542011 172.485503 
L 132.736843 174.945297 
L 132.801787 174.006114 
L 132.996618 177.357909 
L 133.126506 174.485349 
L 133.256394 177.015632 
L 133.321338 176.561623 
L 133.386282 176.278542 
L 133.516169 173.32334 
L 133.646057 176.212845 
L 133.775945 173.033635 
L 133.840889 173.29584 
L 133.905833 175.001198 
L 133.970777 174.692759 
L 134.100664 172.571754 
L 134.165608 172.668779 
L 134.295496 173.722328 
L 134.425384 172.226646 
L 134.555272 175.644963 
L 134.620216 174.83807 
L 134.750103 172.499799 
L 134.944935 174.229397 
L 135.009879 174.319597 
L 135.074823 173.293483 
L 135.139767 173.639455 
L 135.204711 174.860231 
L 135.269655 174.618731 
L 135.399542 173.802944 
L 135.464486 174.050764 
L 135.52943 175.162794 
L 135.594374 174.874561 
L 135.724262 173.995308 
L 135.85415 174.639642 
L 135.919094 174.603825 
L 136.048981 173.294748 
L 136.178869 175.386452 
L 136.243813 174.938781 
L 136.373701 174.050397 
L 136.503589 175.385364 
L 136.69842 172.033016 
L 136.763364 173.364662 
L 136.893252 176.257087 
L 137.02314 173.375473 
L 137.088084 173.485928 
L 137.153028 174.838885 
L 137.217972 174.75347 
L 137.347859 173.080285 
L 137.542691 175.14346 
L 137.607635 174.774273 
L 137.672579 173.522342 
L 137.737523 173.566507 
L 137.802467 174.818406 
L 137.932354 171.998921 
L 137.997298 172.58499 
L 138.127186 174.350978 
L 138.19213 173.828264 
L 138.322018 172.042281 
L 138.451906 174.306116 
L 138.51685 174.117202 
L 138.646737 172.192569 
L 138.841569 175.289557 
L 138.971457 173.098315 
L 139.166289 176.304557 
L 139.231232 175.153211 
L 139.296176 174.480848 
L 139.36112 174.523766 
L 139.491008 175.766121 
L 139.555952 175.589623 
L 139.620896 175.039072 
L 139.750784 176.08351 
L 139.815728 175.746258 
L 139.945615 175.467594 
L 140.075503 176.63812 
L 140.140447 176.088386 
L 140.205391 176.104977 
L 140.270335 175.941722 
L 140.335279 176.32809 
L 140.400223 176.036184 
L 140.595054 169.331875 
L 140.724942 171.172696 
L 140.919774 168.072299 
L 141.114605 172.718811 
L 141.244493 170.902212 
L 141.374381 171.225619 
L 141.439325 171.759926 
L 141.504269 171.548354 
L 141.569213 171.320906 
L 141.699101 175.577219 
L 141.764044 175.363129 
L 141.893932 173.279719 
L 142.088764 178.492449 
L 142.218652 177.834676 
L 142.413483 183.963253 
L 142.543371 183.702758 
L 142.803147 194.360245 
L 142.997979 177.003182 
L 143.257754 113.558119 
L 143.322698 114.927887 
L 143.582474 190.878328 
L 143.777305 183.984898 
L 143.842249 184.311018 
L 143.907193 184.623665 
L 143.972137 184.47532 
L 144.102025 182.905313 
L 144.556632 177.002685 
L 144.621576 177.354734 
L 145.141127 171.053331 
L 145.271015 172.245688 
L 145.400903 169.885941 
L 145.530791 171.174225 
L 145.595734 171.934487 
L 145.660678 171.389433 
L 145.790566 170.179113 
L 145.985398 172.689307 
L 146.050342 172.612302 
L 146.115286 172.905869 
L 146.310117 174.764513 
L 146.375061 174.180731 
L 146.440005 174.236022 
L 146.569893 175.949592 
L 146.634837 175.581879 
L 146.699781 175.204193 
L 146.764725 175.408493 
L 146.894612 177.504697 
L 147.089444 176.326967 
L 147.219332 177.080432 
L 147.34922 175.496783 
L 147.414164 174.377765 
L 147.479107 174.890712 
L 147.544051 175.18409 
L 147.608995 174.869865 
L 147.803827 173.012124 
L 147.933715 172.772861 
L 148.063603 171.084099 
L 148.128546 171.61885 
L 148.19349 172.312649 
L 148.258434 171.900808 
L 148.388322 170.317646 
L 148.583154 173.22966 
L 148.648098 172.854251 
L 148.713042 173.260595 
L 148.842929 176.891173 
L 148.907873 176.231493 
L 149.037761 174.427812 
L 149.167649 176.096647 
L 149.232593 176.147451 
L 149.297537 175.594544 
L 149.36248 175.840586 
L 149.492368 176.501478 
L 149.752144 174.184354 
L 149.817088 174.803403 
L 150.011919 172.552479 
L 150.076863 173.858947 
L 150.141807 173.820659 
L 150.271695 172.611695 
L 150.336639 172.62874 
L 150.531471 173.614934 
L 150.661358 172.23665 
L 150.791246 175.160617 
L 150.85619 174.440446 
L 150.921134 172.810912 
L 150.986078 172.984871 
L 151.115966 175.068284 
L 151.18091 174.600321 
L 151.245854 173.166015 
L 151.310797 173.240994 
L 151.440685 176.347658 
L 151.635517 173.35898 
L 151.830349 175.046309 
L 151.960236 173.581603 
L 152.090124 175.076879 
L 152.155068 174.79616 
L 152.284956 174.094438 
L 152.414844 174.413542 
L 152.609675 173.289194 
L 152.739563 174.790403 
L 152.804507 174.661523 
L 152.934395 172.450558 
L 153.064283 175.112056 
L 153.129227 174.858397 
L 153.259114 173.659564 
L 153.389002 175.541459 
L 153.583834 172.61901 
L 153.778666 174.682145 
L 153.908553 173.451905 
L 154.038441 174.552452 
L 154.233273 172.818033 
L 154.363161 175.19567 
L 154.493048 172.82211 
L 154.557992 173.327892 
L 154.68788 175.672147 
L 154.882712 173.565588 
L 154.947656 174.396717 
L 155.0126 175.524303 
L 155.077544 175.237762 
L 155.207431 172.570478 
L 155.337319 174.077301 
L 155.402263 173.854834 
L 155.532151 173.186815 
L 155.662039 175.024711 
L 155.85687 172.660864 
L 156.051702 174.228971 
L 156.18159 173.030889 
L 156.246534 174.200265 
L 156.311478 173.89273 
L 156.506309 172.963517 
L 156.701141 175.631548 
L 156.831029 173.819344 
L 156.960917 175.858077 
L 157.02586 175.639134 
L 157.090804 175.039722 
L 157.285636 176.609758 
L 157.35058 176.328143 
L 157.480468 174.613313 
L 157.610356 177.195213 
L 158.000019 173.004141 
L 158.129907 169.603593 
L 158.194851 171.459324 
L 158.259795 171.197227 
L 158.389682 168.765054 
L 158.454626 169.067955 
L 158.649458 173.023067 
L 158.779346 171.159193 
L 158.909233 172.086747 
L 159.039121 171.206775 
L 159.233953 174.677727 
L 159.363841 174.177757 
L 159.428785 174.747037 
L 159.558672 178.683665 
L 159.623616 178.579373 
L 159.68856 178.489207 
L 159.818448 182.257196 
L 159.883392 183.369647 
L 159.948336 182.713773 
L 160.01328 182.776792 
L 160.078224 183.009836 
L 160.273055 194.497482 
L 160.337999 191.608668 
L 160.532831 169.26656 
L 160.792607 112.650657 
L 161.052382 189.711405 
L 161.117326 189.245485 
L 161.312158 182.116694 
L 161.442046 184.120208 
L 161.506989 183.698435 
L 161.896653 179.723163 
L 162.026541 176.820794 
L 162.091484 177.188286 
L 162.156428 176.869565 
L 162.35126 173.063089 
L 162.416204 173.708132 
L 162.481148 173.921133 
L 162.67598 170.666707 
L 162.740923 171.285055 
L 162.935755 169.868373 
L 163.000699 170.197023 
L 163.130587 171.669661 
L 163.195531 171.444653 
L 163.260475 170.669696 
L 163.325419 171.154471 
L 163.455306 172.872349 
L 163.585194 171.818116 
L 163.84497 175.433476 
L 163.909914 174.675656 
L 163.974858 174.53629 
L 164.169689 176.272236 
L 164.234633 176.097447 
L 164.299577 176.481448 
L 164.364521 178.185019 
L 164.429465 177.65026 
L 164.624296 175.01552 
L 164.754184 176.054682 
L 164.819128 175.881378 
L 164.949016 174.953532 
L 165.078904 175.702266 
L 165.208792 173.454974 
L 165.273735 172.152733 
L 165.403623 173.626317 
L 165.533511 171.112636 
L 165.598455 171.323701 
L 165.663399 171.975442 
L 165.728343 171.925183 
L 165.858231 170.338481 
L 166.053062 173.70821 
L 166.118006 172.947864 
L 166.18295 172.395453 
L 166.377782 175.777186 
L 166.442726 175.694129 
L 166.50767 175.224298 
L 166.637557 176.743418 
L 166.702501 176.592698 
L 166.832389 175.302322 
L 166.897333 175.563836 
L 167.027221 176.258078 
L 167.157109 174.205749 
L 167.222052 174.543124 
L 167.35194 175.542752 
L 167.546772 172.670263 
L 167.67666 173.710583 
L 167.741604 173.55351 
L 167.871491 172.398975 
L 168.001379 173.988291 
L 168.131267 172.817637 
L 168.196211 172.992632 
L 168.326099 174.204924 
L 168.455986 172.342391 
L 168.52093 172.920583 
L 168.650818 175.007634 
L 168.780706 173.198603 
L 168.84565 173.441136 
L 168.975538 175.407807 
L 169.105425 173.599039 
L 169.170369 173.891815 
L 169.300257 175.959452 
L 169.430145 173.644755 
L 169.624977 175.51841 
L 169.754864 173.379468 
L 169.819808 173.709485 
L 169.949696 175.66005 
L 170.079584 173.242461 
L 170.274416 175.385565 
L 170.404303 172.795098 
L 170.469247 173.154051 
L 170.599135 174.509487 
L 170.664079 173.987308 
L 170.729023 172.513221 
L 170.793967 172.843905 
L 170.923855 174.276116 
L 171.053742 172.82224 
L 171.248574 174.861476 
L 171.378462 173.249203 
L 171.443406 173.567128 
L 171.573294 175.023362 
L 171.703181 173.908096 
L 171.768125 173.995617 
L 171.898013 176.457253 
L 172.092845 173.152985 
L 172.222733 174.742617 
L 172.35262 173.198938 
L 172.547452 175.512805 
L 172.67734 172.888746 
L 172.742284 173.551092 
L 172.807228 175.01816 
L 172.872172 174.88985 
L 173.002059 172.916767 
L 173.067003 173.384703 
L 173.131947 174.056915 
L 173.196891 173.759943 
L 173.326779 172.151913 
L 173.456667 174.171836 
L 173.521611 174.085869 
L 173.716442 173.318652 
L 173.781386 173.676906 
L 173.84633 174.747004 
L 173.976218 172.483585 
L 174.041162 173.439333 
L 174.171049 175.718298 
L 174.300937 172.45511 
L 174.365881 173.842861 
L 174.495769 175.562005 
L 174.625657 174.128495 
L 174.690601 174.797367 
L 174.820488 176.935157 
L 174.950376 175.174816 
L 175.01532 175.272467 
L 175.145208 176.671411 
L 175.275096 174.176779 
L 175.469927 176.95654 
L 175.794647 171.301548 
L 175.924535 169.439762 
L 175.989479 169.568631 
L 176.18431 170.737731 
L 176.249254 170.838138 
L 176.444086 173.05309 
L 176.638918 170.973203 
L 177.548132 179.591297 
L 177.807908 184.79226 
L 177.872852 184.913696 
L 178.002739 193.991019 
L 178.067683 193.492584 
L 178.262515 172.81914 
L 178.522291 107.880997 
L 178.782066 189.808588 
L 178.84701 188.225253 
L 178.976898 183.283816 
L 179.106786 183.839672 
L 179.366561 182.484774 
L 179.561393 179.688913 
L 179.626337 179.619395 
L 179.691281 179.26029 
L 179.886112 175.44287 
L 179.951056 175.470301 
L 180.016 175.340481 
L 180.210832 172.315107 
L 180.275776 172.717197 
L 180.34072 172.541976 
L 180.470608 170.461195 
L 180.535551 171.016756 
L 180.600495 171.551382 
L 180.665439 171.227465 
L 180.795327 169.671598 
L 180.990159 172.697649 
L 181.120047 171.484462 
L 181.314878 174.195118 
L 181.50971 173.25655 
L 181.574654 173.615059 
L 181.639598 174.66936 
L 181.704542 174.415289 
L 181.769486 173.88489 
L 181.899373 175.389355 
L 181.964317 176.610872 
L 182.094205 174.859207 
L 182.289037 178.022527 
L 182.418925 175.339587 
L 182.483868 176.422879 
L 182.548812 177.597176 
L 182.613756 177.300416 
L 182.808588 174.20034 
L 182.873532 174.906342 
L 183.133307 172.261811 
L 183.198251 172.856843 
L 183.393083 170.33696 
L 183.458027 171.495466 
L 183.522971 172.520226 
L 183.717802 170.984626 
L 183.912634 174.73995 
L 184.042522 173.614236 
L 184.237354 176.597302 
L 184.367241 174.821616 
L 184.497129 177.903136 
L 184.562073 177.112338 
L 184.691961 174.464651 
L 184.756905 174.948071 
L 185.01668 172.942262 
L 185.081624 173.482147 
L 185.146568 174.797193 
L 185.211512 174.676976 
L 185.3414 172.764165 
L 185.471288 174.234544 
L 185.666119 172.122738 
L 185.731063 172.65916 
L 185.860951 174.694751 
L 185.990839 173.517398 
L 186.185671 174.273167 
L 186.250614 174.103271 
L 186.315558 173.854393 
L 186.380502 173.909117 
L 186.51039 175.096141 
L 186.640278 173.347512 
L 186.83511 175.442135 
L 186.964997 173.087295 
L 187.159829 175.115039 
L 187.289717 173.956913 
L 187.419605 175.524962 
L 187.484549 174.832995 
L 187.614436 173.088542 
L 187.809268 175.314938 
L 187.939156 173.039346 
L 188.069044 175.274937 
L 188.133988 174.691619 
L 188.263875 172.503522 
L 188.328819 172.807528 
L 188.458707 174.218111 
L 188.588595 173.22386 
L 188.718483 175.356948 
L 188.783427 175.1251 
L 188.913314 173.747588 
L 189.043202 176.031038 
L 189.108146 175.436576 
L 189.238034 172.976741 
L 189.302978 173.524335 
L 189.367922 174.544542 
L 189.432865 174.298952 
L 189.562753 173.658753 
L 189.757585 174.755909 
L 189.822529 174.667173 
L 189.887473 173.813227 
L 189.952417 174.181382 
L 190.017361 175.021386 
L 190.212192 171.991287 
L 190.277136 172.946806 
L 190.407024 174.404261 
L 190.536912 173.053972 
L 190.731743 174.493172 
L 190.861631 172.279865 
L 191.056463 173.946939 
L 191.186351 172.846381 
L 191.381182 174.929742 
L 191.51107 172.98581 
L 191.640958 174.981691 
L 191.705902 174.932695 
L 191.770846 174.404912 
L 191.83579 174.49668 
L 192.030621 176.739749 
L 192.160509 175.32376 
L 192.290397 177.519129 
L 192.485229 174.339278 
L 192.550173 175.686974 
L 192.68006 176.829216 
L 193.00478 172.675855 
L 193.199612 168.488061 
L 193.329499 169.689625 
L 193.394443 169.551867 
L 193.524331 170.88073 
L 193.654219 172.997075 
L 193.784107 170.062466 
L 193.849051 170.822225 
L 193.978938 172.835037 
L 194.108826 172.00295 
L 194.303658 175.464813 
L 194.368602 174.243988 
L 194.433546 174.419672 
L 194.628377 179.532964 
L 194.693321 178.792475 
L 194.823209 181.973315 
L 194.953097 184.585401 
L 195.018041 183.697346 
L 195.147928 187.138203 
L 195.277816 195.70196 
L 195.34276 193.917346 
L 195.537592 171.874956 
L 195.797367 103.455432 
L 196.122087 192.756909 
L 196.187031 190.538924 
L 196.316919 184.579321 
L 196.381863 184.904344 
L 196.446806 185.555345 
L 196.641638 183.223935 
L 196.706582 181.783523 
L 196.771526 182.070818 
L 196.83647 182.507644 
L 197.031302 176.896977 
L 197.096245 177.113341 
L 197.161189 177.020371 
L 197.291077 173.875774 
L 197.356021 173.935095 
L 197.420965 174.026876 
L 197.550853 172.151539 
L 197.680741 170.104928 
L 197.810628 171.148471 
L 197.875572 170.945804 
L 198.00546 169.698106 
L 198.200292 172.367669 
L 198.330179 170.892706 
L 198.460067 172.875353 
L 198.525011 172.735005 
L 198.589955 171.704574 
L 198.654899 172.150141 
L 198.849731 174.924642 
L 198.979618 174.195079 
L 199.109506 175.758409 
L 199.17445 176.430989 
L 199.304338 175.316732 
L 199.49917 177.03204 
L 199.564114 175.645067 
L 199.629057 175.985339 
L 199.694001 177.295158 
L 199.758945 176.937652 
L 199.888833 174.97707 
L 199.953777 175.062561 
L 200.083665 176.237436 
L 200.278496 173.293662 
L 200.34344 173.936973 
L 200.408384 173.844916 
L 200.603216 169.881332 
L 200.798048 172.868518 
L 200.927935 170.787023 
L 201.057823 173.846957 
L 201.122767 173.27933 
L 201.252655 172.366884 
L 201.317599 172.876147 
L 201.447487 175.027308 
L 201.51243 174.869871 
L 201.707262 176.842176 
L 201.772206 176.756326 
L 201.902094 174.819386 
L 202.031982 176.231048 
L 202.226813 174.054173 
L 202.291757 174.594532 
L 202.356701 175.119433 
L 202.486589 171.801964 
L 202.551533 172.688779 
L 202.681421 175.469175 
L 202.876252 173.085811 
L 202.941196 173.4309 
L 203.00614 174.401066 
L 203.071084 173.818928 
L 203.200972 172.189895 
L 203.33086 173.961588 
L 203.525691 173.012156 
L 203.655579 175.426482 
L 203.850411 172.66661 
L 203.915355 173.147152 
L 203.980299 174.975235 
L 204.045243 174.626188 
L 204.17513 173.545855 
L 204.305018 175.509226 
L 204.369962 176.229537 
L 204.49985 174.128165 
L 204.564794 174.533773 
L 204.694681 174.046369 
L 204.759625 174.167261 
L 204.824569 174.024638 
L 204.954457 175.685698 
L 205.084345 173.680541 
L 205.149289 173.782794 
L 205.214233 175.306466 
L 205.279177 174.813728 
L 205.409064 172.864919 
L 205.474008 172.888033 
L 205.603896 175.342768 
L 205.798728 173.008628 
L 205.928616 175.866954 
L 206.058503 172.045852 
L 206.123447 172.436666 
L 206.253335 174.34501 
L 206.448167 171.889458 
L 206.513111 172.418983 
L 206.578055 173.704264 
L 206.642998 173.531446 
L 206.707942 172.846316 
L 206.772886 173.138455 
L 206.902774 175.008115 
L 207.032662 172.992084 
L 207.097606 173.444549 
L 207.227493 176.617511 
L 207.292437 176.169967 
L 207.422325 174.929656 
L 207.552213 176.724676 
L 207.617157 176.433636 
L 207.747045 175.771604 
L 207.876932 177.056622 
L 208.00682 175.094251 
L 208.071764 175.181638 
L 208.201652 177.323535 
L 208.266596 176.643289 
L 208.526371 171.897492 
L 208.591315 171.529601 
L 208.721203 168.171206 
L 208.786147 168.827887 
L 208.851091 170.399261 
L 208.916035 170.23661 
L 209.045923 169.446169 
L 209.17581 172.838991 
L 209.240754 171.724683 
L 209.305698 169.378482 
L 209.370642 169.525895 
L 209.50053 172.895726 
L 209.565474 172.498459 
L 209.630418 172.177288 
L 209.825249 176.377949 
L 209.890193 176.176891 
L 209.955137 176.217352 
L 210.149969 180.013402 
L 210.214913 179.326023 
L 210.279857 180.140032 
L 210.539632 186.379669 
L 210.604576 186.878133 
L 210.799408 197.362244 
L 210.99424 172.82575 
L 211.254015 104.434937 
L 211.318959 110.222076 
L 211.578735 192.385893 
L 211.643679 191.620128 
L 211.83851 185.804759 
L 211.968398 184.772322 
L 212.033342 185.203463 
L 212.16323 183.232317 
L 212.293118 180.233195 
L 212.358061 180.650273 
L 212.487949 178.096307 
L 212.617837 174.762934 
L 212.747725 176.220335 
L 212.942557 170.91198 
L 213.0075 171.644964 
L 213.137388 172.281327 
L 213.267276 170.550522 
L 213.33222 170.80312 
L 213.462108 171.782491 
L 213.591995 170.480592 
L 213.721883 172.549833 
L 213.786827 172.414087 
L 213.851771 170.953851 
L 213.916715 171.398575 
L 214.046603 173.612223 
L 214.176491 172.080791 
L 214.306378 173.973308 
L 214.371322 175.36796 
L 214.436266 174.747469 
L 214.50121 173.368155 
L 214.696042 177.097933 
L 214.760986 176.481162 
L 214.890873 174.36709 
L 215.085705 177.337046 
L 215.215593 175.941254 
L 215.345481 176.256558 
L 215.475369 174.661421 
L 215.540312 174.935421 
L 215.6702 175.997723 
L 215.865032 172.902431 
L 215.929976 173.724199 
L 215.99492 173.671747 
L 216.124808 170.657669 
L 216.189751 170.946123 
L 216.319639 172.101407 
L 216.449527 170.008925 
L 216.579415 172.882053 
L 216.709303 174.313516 
L 216.774246 173.913344 
L 216.83919 174.294801 
L 216.969078 176.811243 
L 217.098966 174.413936 
L 217.16391 174.898834 
L 217.293798 176.609358 
L 217.423685 174.639854 
L 217.488629 174.822219 
L 217.618517 175.729187 
L 217.813349 173.351233 
L 217.943237 175.147961 
L 218.138068 172.539198 
L 218.267956 174.329423 
L 218.397844 172.311957 
L 218.462788 172.894602 
L 218.592676 174.686698 
L 218.787507 173.562157 
L 218.917395 175.147516 
L 219.047283 172.345037 
L 219.112227 172.804678 
L 219.242115 174.664016 
L 219.307059 174.281788 
L 219.372002 173.546677 
L 219.436946 173.801764 
L 219.566834 175.378514 
L 219.761666 173.735245 
L 219.82661 174.917956 
L 219.891554 174.870799 
L 220.086385 174.077618 
L 220.216273 175.606134 
L 220.346161 173.096577 
L 220.411105 173.452313 
L 220.540993 175.449266 
L 220.735824 173.596918 
L 220.865712 175.137379 
L 220.9956 173.459462 
L 221.060544 173.90416 
L 221.190432 174.798639 
L 221.320319 173.737428 
L 221.515151 174.306501 
L 221.645039 172.790848 
L 221.774927 174.444969 
L 221.839871 174.259112 
L 221.969758 171.436387 
L 222.16459 174.542962 
L 222.229534 173.799535 
L 222.294478 172.968255 
L 222.424366 174.347095 
L 222.489309 174.248218 
L 222.619197 173.118833 
L 222.684141 173.435677 
L 222.814029 174.522205 
L 222.878973 173.030267 
L 222.943917 173.24375 
L 223.138748 175.773551 
L 223.268636 174.692671 
L 223.463468 176.65077 
L 223.593356 174.629594 
L 223.788187 177.232425 
L 223.853131 176.097478 
L 223.918075 176.211755 
L 224.112907 177.081826 
L 224.567514 168.533719 
L 224.82729 169.877811 
L 224.957178 172.042634 
L 225.022122 171.733608 
L 225.152009 171.20505 
L 225.216953 170.782638 
L 225.736504 177.475746 
L 225.801448 177.015601 
L 225.866392 176.335998 
L 226.126168 181.232009 
L 226.191112 180.201647 
L 226.645719 195.272329 
L 226.840551 171.338534 
L 227.100326 106.711838 
L 227.360102 190.095406 
L 227.48999 184.241688 
L 227.554934 183.362197 
L 227.684821 185.057874 
L 227.879653 182.821433 
L 227.944597 183.593105 
L 228.009541 183.401844 
L 228.139429 179.453259 
L 228.204373 179.673066 
L 228.33426 178.946476 
L 228.529092 175.163008 
L 228.594036 175.391436 
L 228.65898 174.905088 
L 228.788868 170.938966 
L 228.853811 170.953294 
L 228.918755 172.151961 
L 228.983699 171.72372 
L 229.113587 169.317143 
L 229.178531 170.020527 
L 229.308419 172.422035 
L 229.438307 170.010275 
L 229.633138 172.61101 
L 229.763026 171.942922 
L 229.957858 174.341921 
L 230.087746 172.26155 
L 230.217633 175.048394 
L 230.282577 175.012843 
L 230.412465 174.578047 
L 230.607297 176.7806 
L 230.737185 175.674645 
L 230.867072 176.894429 
L 230.932016 176.75125 
L 231.061904 174.641691 
L 231.191792 177.203635 
L 231.386624 173.994835 
L 231.451567 174.596307 
L 231.581455 174.767403 
L 231.776287 171.847559 
L 231.841231 172.759791 
L 231.906175 172.633905 
L 232.036062 169.880821 
L 232.16595 172.282705 
L 232.230894 171.982334 
L 232.295838 171.089143 
L 232.360782 171.233287 
L 232.555614 175.570227 
L 232.685501 174.346411 
L 232.880333 176.71452 
L 233.010221 175.034642 
L 233.140109 176.628517 
L 233.33494 174.585556 
L 233.464828 175.312156 
L 233.65966 173.752953 
L 233.789548 175.07249 
L 233.984379 172.089866 
L 234.049323 172.916251 
L 234.179211 174.025306 
L 234.309099 171.578931 
L 234.503931 173.456184 
L 234.633818 173.229269 
L 234.763706 174.866864 
L 234.82865 174.793451 
L 234.958538 173.340658 
L 235.15337 175.511764 
L 235.283257 173.276563 
L 235.478089 175.341914 
L 235.607977 173.694187 
L 235.737865 175.571096 
L 235.802809 174.856445 
L 235.932696 173.317467 
L 236.062584 174.848452 
L 236.127528 174.677159 
L 236.257416 173.891964 
L 236.387304 175.192452 
L 236.582135 172.708004 
L 236.712023 175.254099 
L 236.776967 174.718344 
L 236.906855 173.069429 
L 237.101687 174.693516 
L 237.231574 173.573382 
L 237.361462 174.840642 
L 237.426406 174.58304 
L 237.556294 172.841735 
L 237.751125 175.177666 
L 237.881013 174.197307 
L 238.010901 175.349711 
L 238.075845 174.911752 
L 238.205733 172.273264 
L 238.400564 174.124122 
L 238.530452 172.512889 
L 238.595396 173.253184 
L 238.66034 174.32798 
L 238.725284 173.846823 
L 238.855172 173.164241 
L 239.050003 174.850412 
L 239.179891 172.219263 
L 239.244835 172.882477 
L 239.374723 174.579526 
L 239.504611 173.247339 
L 239.699442 176.116197 
L 239.82933 174.078147 
L 239.959218 177.187017 
L 240.15405 174.030099 
L 240.283938 176.73397 
L 240.348881 176.664181 
L 240.478769 174.832135 
L 240.608657 177.01396 
L 240.673601 176.797739 
L 241.128208 170.156169 
L 241.193152 169.875235 
L 241.258096 170.951362 
L 241.387984 168.640675 
L 241.582815 173.712169 
L 241.647759 172.746584 
L 241.777647 171.054971 
L 241.907535 172.469976 
L 241.972479 172.370335 
L 242.102367 171.84394 
L 242.232254 175.360918 
L 242.297198 175.273976 
L 242.362142 174.899132 
L 242.49203 177.282364 
L 242.621918 179.614951 
L 242.686862 178.919186 
L 242.81675 181.289581 
L 243.141469 188.433126 
L 243.206413 193.73171 
L 243.271357 193.642879 
L 243.531132 161.381079 
L 243.725964 107.447 
L 244.050684 189.362018 
L 244.115627 185.506132 
L 244.375403 182.826406 
L 244.440347 183.057853 
L 244.505291 183.004101 
L 244.570235 182.75457 
L 245.349562 172.263256 
L 245.414505 172.674818 
L 245.479449 173.309728 
L 245.544393 172.896301 
L 245.674281 170.936409 
L 245.804169 171.845475 
L 245.999001 170.20503 
L 246.193832 171.554003 
L 246.32372 171.257231 
L 246.453608 173.646874 
L 246.518552 173.469025 
L 246.64844 172.026619 
L 246.843271 175.198208 
L 246.908215 174.727618 
L 246.973159 174.620281 
L 247.167991 176.580865 
L 247.297878 175.514912 
L 247.427766 177.052449 
L 247.49271 176.928626 
L 247.622598 174.568458 
L 247.81743 177.138735 
L 247.947317 174.916976 
L 248.012261 175.091031 
L 248.077205 175.431054 
L 248.272037 171.754322 
L 248.336981 172.602916 
L 248.401925 173.475656 
L 248.466869 172.861523 
L 248.596756 170.635542 
L 248.6617 172.334874 
L 248.726644 172.319144 
L 248.921476 171.460605 
L 249.051364 173.836722 
L 249.116308 173.233488 
L 249.181252 172.800084 
L 249.246195 173.272758 
L 249.441027 176.80922 
L 249.570915 173.598905 
L 249.700803 177.291972 
L 249.765747 176.610464 
L 249.895634 174.62686 
L 250.025522 176.523095 
L 250.090466 176.036901 
L 250.220354 173.430249 
L 250.350242 174.486797 
L 250.415186 174.118141 
L 250.545073 172.833208 
L 250.674961 173.999927 
L 250.739905 173.692355 
L 250.869793 172.561006 
L 250.999681 174.196454 
L 251.194512 172.798747 
L 251.3244 174.635193 
L 251.389344 174.556835 
L 251.519232 173.176937 
L 251.64912 174.652217 
L 251.714064 174.32613 
L 251.843951 173.519428 
L 252.038783 175.407032 
L 252.168671 172.907401 
L 252.298559 176.108148 
L 252.363503 175.530122 
L 252.49339 173.132285 
L 252.623278 175.359788 
L 252.753166 173.556223 
L 252.81811 173.660192 
L 252.947998 174.915664 
L 253.142829 173.375438 
L 253.272717 175.381001 
L 253.337661 174.894038 
L 253.467549 172.679496 
L 253.66238 174.378082 
L 253.792268 173.189977 
L 253.922156 175.568297 
L 253.9871 175.017344 
L 254.116988 173.366122 
L 254.246876 175.340252 
L 254.441707 173.332421 
L 254.571595 175.362082 
L 254.636539 174.962846 
L 254.701483 173.561594 
L 254.766427 173.722081 
L 254.896315 174.418507 
L 255.091146 173.013029 
L 255.221034 174.379013 
L 255.285978 173.909163 
L 255.415866 172.479279 
L 255.545754 174.091204 
L 255.675641 172.967432 
L 255.740585 173.066103 
L 255.870473 174.54378 
L 256.000361 171.869032 
L 256.065305 172.139877 
L 256.195192 175.667697 
L 256.260136 174.908821 
L 256.390024 174.308586 
L 256.519912 175.70865 
L 256.6498 175.179078 
L 256.714744 175.596846 
L 256.844631 176.979063 
L 257.039463 175.083139 
L 257.169351 177.406904 
L 257.364183 174.490679 
L 257.49407 177.783474 
L 258.013622 168.458422 
L 258.143509 171.109067 
L 258.208453 170.634229 
L 258.273397 170.248813 
L 258.403285 172.701205 
L 258.468229 172.596095 
L 258.598117 170.355836 
L 258.663061 170.674576 
L 258.792948 173.131727 
L 258.857892 172.723227 
L 258.922836 172.623163 
L 259.507331 181.332882 
L 259.572275 181.11957 
L 259.637219 181.383743 
L 260.026882 195.240526 
L 260.15677 186.80113 
L 260.286658 166.046888 
L 260.546434 107.122924 
L 260.806209 192.685809 
L 260.871153 191.501656 
L 261.001041 185.354866 
L 261.065985 185.427944 
L 261.130929 185.255543 
L 261.260817 183.188242 
L 261.390704 184.253692 
L 261.585536 178.801764 
L 261.65048 178.82027 
L 261.715424 179.284867 
L 262.170031 171.040504 
L 262.234975 171.20238 
L 262.364863 172.954001 
L 262.429807 172.636779 
L 262.559694 170.003733 
L 262.689582 172.406831 
L 262.81947 170.088046 
L 262.884414 170.32171 
L 263.014302 172.097628 
L 263.079246 171.854548 
L 263.14419 171.009944 
L 263.209133 171.317234 
L 263.339021 174.563416 
L 263.468909 172.051057 
L 263.533853 172.73268 
L 263.663741 175.353619 
L 263.728685 175.206875 
L 263.793629 174.535398 
L 263.98846 177.168267 
L 264.183292 175.184526 
L 264.31318 176.605357 
L 264.508011 175.36887 
L 264.637899 177.05416 
L 264.832731 174.225321 
L 264.897675 174.793512 
L 264.962619 175.052918 
L 265.092507 172.130187 
L 265.15745 172.175771 
L 265.287338 173.276363 
L 265.417226 170.936976 
L 265.48217 171.039956 
L 265.677002 172.173174 
L 265.741945 171.03777 
L 265.806889 171.219691 
L 266.001721 174.226761 
L 266.066665 174.250651 
L 266.261497 176.307377 
L 266.391384 175.410934 
L 266.586216 175.818786 
L 266.716104 174.403157 
L 266.781048 175.031591 
L 266.845992 176.4068 
L 266.910936 176.375873 
L 267.105767 173.24904 
L 267.235655 174.347153 
L 267.365543 172.472739 
L 267.430487 173.237732 
L 267.495431 173.721164 
L 267.560375 173.466718 
L 267.755206 172.428927 
L 267.885094 174.48674 
L 267.950038 173.940515 
L 268.014982 172.283475 
L 268.079926 173.274135 
L 268.209814 175.519452 
L 268.339701 172.318153 
L 268.534533 175.822411 
L 268.664421 173.107678 
L 268.729365 173.354165 
L 268.859253 175.340286 
L 269.054084 173.24145 
L 269.183972 175.897464 
L 269.378804 173.362874 
L 269.508692 175.206483 
L 269.573635 174.92846 
L 269.638579 174.330966 
L 269.833411 175.092235 
L 269.963299 172.983102 
L 270.028243 173.368106 
L 270.158131 175.991211 
L 270.288018 172.868754 
L 270.352962 173.172682 
L 270.547794 174.439768 
L 270.677682 173.26946 
L 270.80757 174.24041 
L 270.937457 171.630237 
L 271.132289 173.928006 
L 271.197233 173.228262 
L 271.262177 172.221042 
L 271.327121 172.59867 
L 271.457008 174.963368 
L 271.586896 172.786855 
L 271.716784 174.735554 
L 271.781728 174.727642 
L 271.846672 174.085978 
L 271.911616 174.124991 
L 272.106447 176.210089 
L 272.236335 173.958913 
L 272.366223 177.375717 
L 272.431167 176.76269 
L 272.561055 174.230337 
L 272.755886 177.490304 
L 272.885774 174.930253 
L 273.080606 178.051133 
L 273.340382 171.606914 
L 273.405325 172.361569 
L 273.600157 168.181849 
L 273.665101 169.324851 
L 273.794989 170.238169 
L 273.859933 169.626588 
L 274.054764 171.861561 
L 274.184652 169.017076 
L 274.379484 174.04427 
L 274.444428 173.009396 
L 274.509372 173.118044 
L 275.48353 186.446604 
L 275.613418 196.104951 
L 275.678362 195.200943 
L 275.938137 152.037314 
L 276.132969 106.123462 
L 276.457689 191.855742 
L 276.522633 188.911649 
L 276.717464 185.474132 
L 276.847352 184.050376 
L 276.97724 184.236571 
L 277.496791 175.6783 
L 277.626679 175.515776 
L 277.82151 171.243053 
L 277.886454 171.39624 
L 278.016342 171.692374 
L 278.14623 170.805963 
L 278.211174 171.379102 
L 278.276118 171.124413 
L 278.341062 170.981604 
L 278.406006 169.737766 
L 278.470949 170.419791 
L 278.600837 173.205229 
L 278.730725 170.301719 
L 278.990501 173.201346 
L 279.055445 173.237739 
L 279.185332 175.161369 
L 279.250276 174.777505 
L 279.31522 174.544359 
L 279.380164 174.663336 
L 279.574996 177.138826 
L 279.704884 174.313803 
L 279.769827 175.296406 
L 279.899715 177.140536 
L 279.964659 176.706248 
L 280.094547 175.503215 
L 280.159491 176.187576 
L 280.354323 174.824536 
L 280.419266 175.096906 
L 280.48421 174.942981 
L 280.549154 175.14072 
L 280.679042 173.804826 
L 280.743986 173.984004 
L 280.80893 174.147686 
L 281.003761 170.539821 
L 281.198593 172.031182 
L 281.328481 170.480852 
L 281.523313 173.799325 
L 281.6532 172.85542 
L 281.848032 176.951062 
L 281.97792 174.331377 
L 282.042864 175.418704 
L 282.107808 176.255339 
L 282.172752 176.143143 
L 282.237696 175.871084 
L 282.367583 174.937274 
L 282.432527 176.0956 
L 282.497471 175.430627 
L 282.692303 173.879788 
L 282.822191 174.17622 
L 282.952078 171.674167 
L 283.081966 174.324736 
L 283.14691 174.134908 
L 283.211854 173.499068 
L 283.276798 173.887891 
L 283.406686 175.38167 
L 283.601517 171.724344 
L 283.666461 173.484024 
L 283.796349 174.838374 
L 283.926237 171.993476 
L 284.121069 174.917602 
L 284.250956 173.575139 
L 284.445788 175.407531 
L 284.575676 174.075337 
L 284.64062 174.334495 
L 284.705564 175.752796 
L 284.770508 175.673636 
L 284.900395 173.803268 
L 284.965339 173.897453 
L 285.095227 174.98224 
L 285.160171 174.835903 
L 285.225115 174.421143 
L 285.355003 176.022065 
L 285.549834 171.917924 
L 285.614778 172.851436 
L 285.679722 174.303556 
L 285.744666 174.110835 
L 285.939498 172.871304 
L 286.069386 174.168702 
L 286.134329 173.655662 
L 286.199273 172.883399 
L 286.264217 172.979823 
L 286.329161 174.069168 
L 286.394105 173.81984 
L 286.523993 172.464927 
L 286.653881 174.385174 
L 286.718824 174.34503 
L 286.848712 172.655662 
L 287.043544 175.611829 
L 287.173432 174.535191 
L 287.368263 177.180722 
L 287.498151 174.790533 
L 287.563095 176.052292 
L 287.628039 177.931413 
L 287.692983 177.485991 
L 287.822871 174.701123 
L 287.952759 177.983941 
L 288.017702 177.93475 
L 288.212534 173.703981 
L 288.277478 173.803203 
L 288.537254 168.838224 
L 288.602198 169.839042 
L 288.667141 169.385048 
L 288.797029 168.462303 
L 288.926917 171.99738 
L 289.056805 171.228402 
L 289.121749 170.071023 
L 289.381524 172.412779 
L 289.446468 172.158436 
L 289.6413 176.809482 
L 289.706244 175.609789 
L 289.771188 175.632272 
L 289.966019 180.538001 
L 290.030963 180.036571 
L 290.095907 180.410025 
L 290.225795 184.998694 
L 290.290739 184.965763 
L 290.355683 184.341595 
L 290.420627 185.418937 
L 290.615458 197.480666 
L 290.81029 175.68912 
L 291.070066 106.877603 
L 291.13501 108.573985 
L 291.394785 191.446882 
L 291.459729 191.658653 
L 291.654561 185.142108 
L 291.719505 184.741065 
L 291.849392 185.669378 
L 291.914336 185.285926 
L 292.304 178.125437 
L 292.693663 172.242945 
L 292.758607 172.694327 
L 292.823551 173.171436 
L 293.083326 170.224879 
L 293.14827 171.299477 
L 293.213214 170.887687 
L 293.343102 169.736802 
L 293.408046 170.744718 
L 293.47299 170.565176 
L 293.537934 170.682679 
L 293.602878 171.110832 
L 293.667822 170.644947 
L 293.797709 173.36779 
L 293.862653 173.265508 
L 293.992541 172.624974 
L 294.187373 175.247905 
L 294.317261 174.156557 
L 294.512092 177.057982 
L 294.64198 174.747404 
L 294.771868 177.369421 
L 294.9667 175.540112 
L 295.096587 177.152168 
L 295.161531 176.600493 
L 295.291419 174.207355 
L 295.421307 175.462867 
L 295.616139 172.689551 
L 295.681082 173.538316 
L 295.746026 174.206136 
L 295.940858 170.603015 
L 296.005802 171.811984 
L 296.13569 172.297134 
L 296.265577 170.424813 
L 296.460409 173.417664 
L 296.525353 172.974803 
L 296.590297 173.329301 
L 296.785129 176.643027 
L 296.915016 175.442048 
L 297.044904 176.424268 
L 297.174792 175.245999 
L 297.239736 175.301571 
L 297.369624 176.451349 
L 297.564455 173.052855 
L 297.629399 174.285623 
L 297.694343 174.741657 
L 297.889175 171.560545 
L 298.019063 174.32944 
L 298.084007 173.626204 
L 298.148951 173.215635 
L 298.213894 173.297349 
L 298.343782 174.116236 
L 298.538614 173.112935 
L 298.668502 174.412634 
L 298.798389 173.132557 
L 298.863333 173.173558 
L 298.993221 175.141649 
L 299.188053 173.376185 
L 299.317941 175.551709 
L 299.382885 174.989461 
L 299.447828 173.467453 
L 299.512772 173.577511 
L 299.64266 175.563104 
L 299.837492 173.769782 
L 299.96738 175.768887 
L 300.162211 172.497094 
L 300.292099 175.395541 
L 300.357043 174.979335 
L 300.486931 173.601184 
L 300.616819 175.100571 
L 300.746706 172.928859 
L 300.81165 173.444419 
L 300.941538 175.299605 
L 301.13637 173.455346 
L 301.266258 174.675781 
L 301.331202 174.570085 
L 301.461089 173.380195 
L 301.655921 175.00428 
L 301.785809 171.635211 
L 301.850753 172.389126 
L 301.915697 173.779901 
L 301.98064 173.653188 
L 302.110528 172.185845 
L 302.240416 174.408538 
L 302.30536 174.212495 
L 302.435248 172.97443 
L 302.565136 174.990008 
L 302.695023 173.437901 
L 302.759967 173.645959 
L 302.954799 174.773017 
L 303.019743 174.227536 
L 303.084687 174.362445 
L 303.214575 176.880235 
L 303.344462 174.29627 
L 303.409406 174.792297 
L 303.539294 177.186832 
L 303.604238 176.890252 
L 303.734126 175.245152 
L 303.79907 175.797986 
L 303.864014 176.756065 
L 303.928957 176.664227 
L 304.253677 172.444638 
L 304.383565 169.316692 
L 304.513453 170.906952 
L 304.64334 168.88436 
L 304.708284 168.946248 
L 304.838172 172.552565 
L 304.903116 172.287396 
L 304.96806 171.227907 
L 305.033004 171.261388 
L 305.227835 172.59812 
L 305.292779 171.109692 
L 305.357723 171.721531 
L 305.552555 175.282143 
L 305.617499 174.582077 
L 305.682443 174.830471 
L 305.81233 179.184657 
L 305.877274 178.498445 
L 305.942218 178.003329 
L 306.072106 181.376226 
L 306.13705 183.129384 
L 306.201994 182.885307 
L 306.266938 182.576868 
L 306.396826 187.066258 
L 306.526713 194.954918 
L 306.656601 186.600481 
L 306.786489 170.286862 
L 307.046265 108.928158 
L 307.370984 189.965635 
L 307.565816 182.35015 
L 307.695704 184.319813 
L 307.760647 184.215976 
L 307.955479 181.669482 
L 308.020423 182.182959 
L 308.215255 177.486692 
L 308.280199 177.914203 
L 308.345142 177.916849 
L 308.929638 170.514997 
L 309.059525 172.4778 
L 309.189413 169.379342 
L 309.254357 169.625188 
L 309.384245 171.924449 
L 309.514133 170.376354 
L 309.579077 170.915192 
L 309.708964 173.176524 
L 309.773908 173.134093 
L 309.838852 172.483883 
L 309.903796 172.774061 
L 310.033684 174.715398 
L 310.098628 174.696584 
L 310.163572 174.094365 
L 310.228516 174.571494 
L 310.358403 176.95948 
L 310.553235 174.980222 
L 310.683123 176.875758 
L 310.748067 176.576285 
L 310.877954 175.758343 
L 310.942898 177.109199 
L 311.007842 176.996938 
L 311.202674 174.637016 
L 311.332562 175.524556 
L 311.527393 173.01388 
L 311.592337 173.745482 
L 311.657281 173.844715 
L 311.852113 170.44769 
L 311.982001 171.723213 
L 312.111889 170.077684 
L 312.176832 170.376588 
L 312.30672 173.151293 
L 312.371664 172.614988 
L 312.436608 172.647069 
L 312.63144 176.823246 
L 312.696384 176.628665 
L 312.761328 175.378395 
L 312.826271 175.47135 
L 312.956159 177.54843 
L 313.021103 176.975829 
L 313.086047 175.56087 
L 313.150991 175.749928 
L 313.280879 176.279828 
L 313.410767 173.774479 
L 313.47571 174.169927 
L 313.605598 175.018145 
L 313.80043 171.992301 
L 313.930318 173.280621 
L 314.125149 171.929254 
L 314.255037 173.699196 
L 314.319981 173.471704 
L 314.384925 172.7008 
L 314.449869 173.062811 
L 314.579757 175.078382 
L 314.644701 174.823425 
L 314.774588 172.724591 
L 314.904476 175.498446 
L 315.034364 173.989652 
L 315.099308 174.602655 
L 315.164252 175.810104 
L 315.229196 175.02455 
L 315.424027 173.116839 
L 315.553915 175.717451 
L 315.618859 175.291158 
L 315.748747 173.452343 
L 315.813691 175.011102 
L 315.878635 174.942314 
L 316.073466 173.078112 
L 316.203354 175.408609 
L 316.333242 173.185874 
L 316.398186 173.675007 
L 316.528074 175.344515 
L 316.657961 173.571799 
L 316.722905 174.016643 
L 316.852793 174.765195 
L 316.982681 173.401257 
L 317.047625 173.46207 
L 317.177513 174.159971 
L 317.3074 172.624469 
L 317.372344 173.041057 
L 317.502232 174.938479 
L 317.63212 173.08483 
L 317.697064 173.725221 
L 317.826952 175.067542 
L 317.891895 174.642071 
L 317.956839 173.303181 
L 318.021783 173.57035 
L 318.151671 175.463544 
L 318.281559 173.103468 
L 318.346503 173.610336 
L 318.476391 175.39468 
L 318.606278 173.270057 
L 318.671222 173.786497 
L 318.80111 175.183434 
L 318.930998 173.138328 
L 318.995942 173.689674 
L 319.12583 174.639654 
L 319.320661 172.626326 
L 319.450549 174.592712 
L 319.645381 172.371594 
L 319.775269 173.995016 
L 319.905156 172.390053 
L 319.9701 172.521414 
L 320.099988 175.594955 
L 320.229876 172.900736 
L 320.29482 173.817945 
L 320.424707 175.794726 
L 320.554595 173.638984 
L 320.749427 176.691899 
L 320.814371 176.349859 
L 320.879315 175.382605 
L 320.944259 175.725047 
L 321.074146 177.583422 
L 321.268978 174.75679 
L 321.398866 176.49144 
L 321.918417 169.478332 
L 322.048305 170.19118 
L 322.178193 168.928156 
L 322.373024 173.637593 
L 322.502912 170.604977 
L 322.567856 170.764145 
L 322.697744 173.691737 
L 322.827632 172.193638 
L 323.022463 176.302651 
L 323.087407 175.062741 
L 323.152351 174.328421 
L 323.412127 178.70549 
L 323.477071 178.806044 
L 323.866734 186.904233 
L 323.996622 195.453902 
L 324.256397 167.762047 
L 324.451229 111.448973 
L 324.516173 115.030355 
L 324.775949 189.969089 
L 324.97078 183.547687 
L 325.035724 183.747652 
L 325.165612 183.238654 
L 325.2955 183.400156 
L 325.685163 177.589503 
L 326.13977 172.213261 
L 326.269658 173.075599 
L 326.399546 170.747196 
L 326.46449 170.772522 
L 326.529434 172.12414 
L 326.594378 171.941726 
L 326.724266 170.48319 
L 326.919097 172.103163 
L 327.048985 170.652364 
L 327.243817 173.76301 
L 327.373705 173.26219 
L 327.568536 175.357268 
L 327.698424 173.8881 
L 327.763368 174.165509 
L 327.893256 176.138249 
L 328.023144 175.873764 
L 328.153031 176.219083 
L 328.217975 176.421996 
L 328.347863 175.724353 
L 328.542695 176.802121 
L 328.737526 174.263273 
L 328.867414 175.623987 
L 328.997302 172.901719 
L 329.062246 173.030906 
L 329.12719 173.331809 
L 329.322021 170.112538 
L 329.386965 170.911169 
L 329.516853 172.787393 
L 329.646741 170.908374 
L 329.841573 173.693921 
L 329.906517 173.466295 
L 329.97146 173.246102 
L 330.166292 176.303846 
L 330.29618 174.593164 
L 330.361124 175.317806 
L 330.426068 176.967351 
L 330.491012 176.920309 
L 330.620899 174.533121 
L 330.750787 176.506409 
L 330.815731 175.86734 
L 330.945619 173.65019 
L 331.010563 173.893991 
L 331.140451 175.04064 
L 331.335282 173.443769 
L 331.400226 173.664714 
L 331.46517 173.809585 
L 331.595058 172.255328 
L 331.724946 173.754008 
L 331.78989 173.187357 
L 331.919777 171.813431 
L 332.114609 174.916009 
L 332.244497 172.91254 
L 332.699104 175.883437 
L 332.764048 175.564959 
L 332.893936 173.586238 
L 333.023824 175.963226 
L 333.088768 175.369689 
L 333.218655 173.067826 
L 333.283599 173.275906 
L 333.348543 174.753959 
L 333.413487 174.653085 
L 333.543375 173.459194 
L 333.673263 174.969909 
L 333.868094 172.835697 
L 333.997982 174.851391 
L 334.062926 174.665726 
L 334.192814 173.487322 
L 334.322702 174.884217 
L 334.452589 173.611732 
L 334.517533 172.586471 
L 334.647421 174.970997 
L 334.712365 174.914387 
L 334.842253 173.627717 
L 334.907197 173.771787 
L 334.972141 174.692302 
L 335.037085 174.264273 
L 335.166972 172.837546 
L 335.29686 175.138515 
L 335.361804 175.069404 
L 335.491692 173.3428 
L 335.686523 175.899277 
L 335.816411 172.839136 
L 335.881355 173.588133 
L 335.946299 175.478177 
L 336.011243 175.189838 
L 336.141131 172.927062 
L 336.206075 172.943509 
L 336.271019 174.798375 
L 336.335962 174.630028 
L 336.46585 173.669129 
L 336.595738 174.907967 
L 336.79057 172.846496 
L 336.855514 173.638119 
L 336.985401 174.570296 
L 337.115289 172.22117 
L 337.245177 174.178098 
L 337.310121 173.995315 
L 337.440009 172.239842 
L 337.63484 174.64849 
L 337.764728 172.985702 
L 337.95956 175.058309 
L 338.024504 173.618748 
L 338.089448 173.694087 
L 338.219336 175.495444 
L 338.284279 175.612675 
L 338.414167 174.073421 
L 338.544055 176.903422 
L 338.608999 176.116924 
L 338.673943 174.38937 
L 338.738887 174.849562 
L 338.868774 177.169196 
L 339.063606 174.653929 
L 339.258438 177.609787 
L 339.648101 169.562448 
L 339.713045 167.951748 
L 339.777989 169.041276 
L 339.907877 171.321571 
L 340.037765 170.294036 
L 340.232596 172.864639 
L 340.362484 169.40976 
L 340.557316 173.2418 
L 340.62226 173.019773 
L 340.687204 172.814427 
L 340.882035 175.65672 
L 341.336643 181.246291 
L 341.531474 185.476449 
L 341.596418 185.98327 
L 341.661362 187.367698 
L 341.79125 196.357176 
L 341.986082 176.929368 
L 342.245857 107.157382 
L 342.310801 110.440455 
L 342.570577 191.516248 
L 342.895296 184.948345 
L 342.96024 183.81794 
L 343.025184 183.869214 
L 343.090128 184.96604 
L 343.674623 175.120443 
L 343.739567 175.279843 
L 343.869455 173.40729 
L 343.999342 171.685466 
L 344.064286 171.801482 
L 344.259118 169.911317 
L 344.324062 170.768789 
L 344.389006 171.955377 
L 344.45395 171.555977 
L 344.583837 170.295671 
L 344.778669 172.491842 
L 344.908557 170.650766 
L 345.103389 173.914152 
L 345.233276 172.348225 
L 345.428108 175.452239 
L 345.493052 174.836548 
L 345.557996 174.992146 
L 345.687884 176.936939 
L 345.817772 174.7713 
L 345.882715 175.409114 
L 346.012603 177.850219 
L 346.207435 174.933216 
L 346.272379 175.257079 
L 346.337323 176.833883 
L 346.402267 176.680501 
L 346.532154 174.296755 
L 346.662042 175.653526 
L 346.856874 171.638947 
L 346.921818 172.42579 
L 347.051706 172.969304 
L 347.181593 170.648208 
L 347.311481 172.663974 
L 347.441369 170.281051 
L 347.571257 172.339523 
L 347.701145 174.879928 
L 347.831032 173.835759 
L 348.025864 176.49634 
L 348.155752 174.517447 
L 348.220696 174.986516 
L 348.28564 176.331893 
L 348.350584 175.975269 
L 348.480471 174.05175 
L 348.545415 174.638465 
L 348.610359 176.247553 
L 348.675303 175.720322 
L 348.805191 173.442007 
L 348.935079 175.31858 
L 349.000023 175.171584 
L 349.12991 172.811282 
L 349.259798 174.393943 
L 349.45463 171.737263 
L 349.584518 174.230577 
L 349.649462 174.035019 
L 349.779349 172.308594 
L 349.974181 174.574444 
L 350.104069 172.505493 
L 350.233957 175.565482 
L 350.298901 175.486902 
L 350.428788 173.792891 
L 350.493732 173.903484 
L 350.558676 175.349026 
L 350.62362 174.755573 
L 350.753508 173.070125 
L 350.883396 175.239581 
L 351.078227 173.800538 
L 351.143171 174.263573 
L 351.208115 175.181377 
L 351.273059 174.608459 
L 351.338003 173.550039 
L 351.402947 173.57203 
L 351.467891 174.45272 
L 351.532835 174.10883 
L 351.597778 174.330966 
L 351.662722 174.202749 
L 351.727666 174.208803 
L 351.79261 174.444551 
L 351.857554 175.326626 
L 351.922498 175.273662 
L 352.052386 172.549799 
L 352.11733 172.892588 
L 352.247217 174.609691 
L 352.377105 173.006454 
L 352.506993 175.758053 
L 352.701825 173.448615 
L 352.831713 175.392573 
L 352.9616 172.260376 
L 353.026544 172.801276 
L 353.156432 174.909631 
L 353.351264 173.510827 
L 353.481152 175.035701 
L 353.675983 171.925925 
L 353.870815 174.97205 
L 354.000703 173.034359 
L 354.13059 174.661184 
L 354.325422 172.386817 
L 354.45531 174.132924 
L 354.520254 173.425345 
L 354.650142 172.286928 
L 354.844973 176.425578 
L 354.974861 174.548347 
L 355.169693 175.914988 
L 355.299581 174.926352 
L 355.429468 176.854655 
L 355.559356 174.941343 
L 355.6243 175.26532 
L 355.754188 177.820313 
L 355.819132 177.246232 
L 355.94902 174.574156 
L 356.013964 175.40037 
L 356.078907 175.272815 
L 356.468571 168.79702 
L 356.533515 167.295257 
L 356.598459 168.205608 
L 356.728346 171.598057 
L 356.79329 171.159986 
L 356.858234 170.500296 
L 356.923178 170.84226 
L 357.053066 172.075687 
L 357.11801 171.5604 
L 357.247898 170.427752 
L 357.442729 174.823205 
L 357.507673 174.595647 
L 357.572617 174.639972 
L 358.351944 188.135066 
L 358.546776 195.034293 
L 358.741607 173.855974 
L 359.001383 107.659378 
L 359.066327 112.779117 
L 359.326102 193.11936 
L 359.391046 191.556908 
L 359.520934 185.12006 
L 359.585878 186.647525 
L 359.650822 186.497832 
L 359.845653 182.594115 
L 359.910597 183.215255 
L 359.975541 182.909363 
L 360.495092 173.508815 
L 360.560036 175.203082 
L 360.62498 175.01137 
L 360.754868 170.514565 
L 360.884756 172.400702 
L 361.144531 170.187795 
L 361.274419 171.900467 
L 361.404307 169.711646 
L 361.469251 169.734365 
L 361.599139 172.577491 
L 361.664083 172.199701 
L 361.729027 171.143443 
L 361.923858 174.49498 
L 362.053746 172.988232 
L 362.248578 176.308332 
L 362.313522 176.012142 
L 362.378466 174.596478 
L 362.443409 174.788583 
L 362.573297 176.728781 
L 362.768129 175.502522 
L 362.898017 176.777436 
L 362.962961 176.653804 
L 363.092848 174.764914 
L 363.222736 175.98748 
L 363.28768 175.731344 
L 363.352624 173.555914 
L 363.417568 173.677259 
L 363.547456 175.602588 
L 363.742287 171.598095 
L 363.807231 172.117513 
L 363.872175 172.448257 
L 364.002063 170.287215 
L 364.067007 170.559561 
L 364.196895 172.735847 
L 364.326782 171.469506 
L 364.391726 172.014471 
L 364.586558 175.206042 
L 364.651502 173.97357 
L 364.716446 174.426107 
L 364.846334 177.221907 
L 364.976221 175.125839 
L 365.041165 175.37048 
L 365.171053 176.425276 
L 365.365885 174.088872 
L 365.430829 174.943864 
L 365.495773 174.661371 
L 365.62566 173.115121 
L 365.690604 173.179422 
L 365.820492 174.312193 
L 365.885436 174.074469 
L 365.95038 172.25531 
L 366.015324 172.588643 
L 366.145212 174.966376 
L 366.275099 172.937928 
L 366.340043 173.408367 
L 366.404987 174.179873 
L 366.469931 173.918743 
L 366.599819 172.347908 
L 366.664763 172.571177 
L 366.794651 175.013279 
L 366.924538 174.259504 
L 367.11937 175.380657 
L 367.249258 172.796599 
L 367.314202 173.115878 
L 367.44409 175.021476 
L 367.573977 172.900403 
L 367.638921 173.03912 
L 367.768809 175.7883 
L 367.898697 173.814089 
L 368.028585 175.758352 
L 368.093529 175.22295 
L 368.223416 173.36587 
L 368.28836 173.369942 
L 368.418248 175.088326 
L 368.548136 173.58454 
L 368.61308 173.673249 
L 368.742968 175.538154 
L 368.807911 174.943677 
L 368.872855 173.23172 
L 368.937799 173.342277 
L 369.067687 175.380206 
L 369.262519 172.698038 
L 369.392406 174.15928 
L 369.45735 173.826753 
L 369.587238 173.238988 
L 369.717126 174.679901 
L 369.847014 172.112729 
L 369.911958 172.719752 
L 370.041845 173.976726 
L 370.106789 173.888188 
L 370.236677 173.111757 
L 370.366565 174.228534 
L 370.496453 172.132375 
L 370.561397 172.836435 
L 370.691284 176.020332 
L 370.821172 173.593388 
L 371.016004 176.13547 
L 371.145892 174.324048 
L 371.27578 176.599791 
L 371.340723 176.437017 
L 371.405667 176.368578 
L 371.535555 175.22057 
L 371.665443 176.707269 
L 371.795331 175.80266 
L 371.990162 176.8559 
L 372.509714 167.453553 
L 372.639601 171.210781 
L 372.704545 171.040473 
L 372.769489 169.546361 
L 372.834433 170.416093 
L 372.964321 172.367208 
L 373.094209 170.216975 
L 373.159153 170.690282 
L 373.28904 174.604235 
L 373.353984 174.4533 
L 373.418928 173.752177 
L 373.808592 178.571726 
L 374.003423 182.90861 
L 374.133311 183.610668 
L 374.393087 191.89726 
L 374.458031 196.37341 
L 374.522974 193.862566 
L 374.717806 163.702892 
L 374.977582 106.429226 
L 375.237357 191.492418 
L 375.302301 191.438983 
L 375.432189 185.958762 
L 375.497133 186.870127 
L 375.562077 186.854079 
L 376.081628 178.816921 
L 376.146572 179.314943 
L 376.27646 176.864617 
L 376.406347 174.011782 
L 376.471291 174.620849 
L 376.536235 174.089213 
L 376.666123 170.721352 
L 376.731067 171.14967 
L 376.796011 172.574266 
L 376.860955 172.17404 
L 376.990843 169.443244 
L 377.185674 171.448713 
L 377.250618 171.16725 
L 377.380506 170.011505 
L 377.510394 173.008082 
L 377.575338 172.524983 
L 377.640282 171.321625 
L 377.705225 171.986666 
L 377.835113 174.326101 
L 377.965001 173.092292 
L 378.159833 175.531831 
L 378.28972 174.082225 
L 378.484552 177.345852 
L 378.549496 176.677258 
L 378.61444 175.630115 
L 378.679384 176.142221 
L 378.809272 177.608723 
L 379.004103 175.476287 
L 379.069047 176.786149 
L 379.133991 176.630459 
L 379.263879 174.066016 
L 379.328823 174.940355 
L 379.393767 174.744394 
L 379.653542 171.674698 
L 379.718486 171.892726 
L 379.78343 171.644057 
L 379.913318 170.045959 
L 380.043206 171.82594 
L 380.10815 171.710058 
L 380.173094 171.018383 
L 380.302981 172.67482 
L 380.497813 175.244797 
L 380.562757 175.195362 
L 380.757589 177.181227 
L 380.887476 174.17239 
L 380.95242 174.943863 
L 381.082308 176.32104 
L 381.147252 175.952068 
L 381.27714 174.731042 
L 381.342084 175.996329 
L 381.407028 175.921431 
L 381.536915 173.119146 
L 381.601859 173.353169 
L 381.666803 174.299848 
L 381.861635 171.807101 
L 381.926579 172.464242 
L 382.056467 174.29496 
L 382.186354 172.178572 
L 382.251298 172.822763 
L 382.381186 174.406296 
L 382.44613 174.191901 
L 382.511074 173.425436 
L 382.705906 174.748234 
L 382.835793 173.412821 
L 382.900737 173.970354 
L 382.965681 174.615635 
L 383.030625 174.304317 
L 383.160513 172.830904 
L 383.355345 175.171977 
L 383.485232 173.609913 
L 383.550176 173.788684 
L 383.680064 175.467923 
L 383.874896 174.303224 
L 383.93984 175.047332 
L 384.004784 174.916425 
L 384.134671 172.869829 
L 384.264559 174.804092 
L 384.459391 173.677143 
L 384.589279 175.116091 
L 384.78411 172.796307 
L 384.978942 175.770712 
L 385.10883 173.408224 
L 385.238718 175.026016 
L 385.433549 172.35593 
L 385.563437 174.8825 
L 385.628381 174.855838 
L 385.823213 172.700896 
L 385.9531 175.070589 
L 386.082988 172.89943 
L 386.147932 173.369199 
L 386.212876 174.770959 
L 386.27782 174.290645 
L 386.407708 171.956916 
L 386.472652 172.553907 
L 386.602539 174.179562 
L 386.732427 172.66741 
L 386.797371 173.254204 
L 386.927259 174.972139 
L 387.057147 173.063805 
L 387.187034 176.076188 
L 387.251978 175.980342 
L 387.381866 173.90771 
L 387.511754 176.543229 
L 387.576698 176.270547 
L 387.706586 174.834178 
L 387.836473 177.473538 
L 387.901417 177.38211 
L 388.031305 174.538228 
L 388.161193 176.986653 
L 388.226137 176.794399 
L 388.745688 169.136201 
L 388.875576 169.962425 
L 389.005464 168.440398 
L 389.200295 172.813312 
L 389.330183 171.106715 
L 389.525015 172.85943 
L 389.589959 172.159938 
L 389.654903 172.39343 
L 389.849734 175.957889 
L 389.979622 175.573505 
L 390.174454 179.541615 
L 390.239398 179.299682 
L 390.304342 179.975015 
L 390.564117 184.653644 
L 390.629061 185.572971 
L 390.758949 194.750528 
L 390.823893 194.609614 
L 391.083668 158.363998 
L 391.2785 106.875783 
L 391.60322 189.577039 
L 391.668163 186.293435 
L 391.862995 183.758424 
L 391.992883 184.757253 
L 392.902098 172.092047 
L 392.967041 172.634087 
L 393.031985 172.445344 
L 393.096929 172.482622 
L 393.226817 170.518503 
L 393.291761 170.543127 
L 393.421649 171.91682 
L 393.551536 169.090463 
L 393.681424 172.416712 
L 393.746368 171.908758 
L 393.811312 170.957221 
L 393.876256 171.195433 
L 394.071088 173.267067 
L 394.200975 171.754394 
L 394.395807 175.5508 
L 394.525695 174.350734 
L 394.720527 177.701644 
L 394.850414 175.070462 
L 394.915358 175.82646 
L 395.045246 177.254625 
L 395.175134 175.266315 
L 395.305022 177.199564 
L 395.499853 173.61884 
L 395.564797 174.217559 
L 395.629741 175.744938 
L 395.824573 171.928183 
L 395.954461 173.274011 
L 396.084349 171.344527 
L 396.149292 170.305084 
L 396.27918 171.941571 
L 396.344124 171.74313 
L 396.474012 170.781645 
L 396.668844 174.199251 
L 396.733787 173.512473 
L 396.798731 173.542821 
L 396.928619 177.13913 
L 396.993563 177.017425 
L 397.123451 175.089961 
L 397.253339 177.39229 
L 397.318283 176.912035 
L 397.44817 174.098018 
L 397.578058 176.12007 
L 397.77289 173.206589 
L 397.837834 173.953026 
L 397.967722 175.407043 
L 398.097609 172.140833 
L 398.227497 174.10386 
L 398.422329 171.955709 
L 398.487273 172.910773 
L 398.487273 172.910773 
" style="fill:none;stroke:#1f77b4;stroke-linecap:square;stroke-width:1.5;"/>
   </g>
   <g id="patch_3">
    <path d="M 57.6 307.584 
L 57.6 41.472 
" style="fill:none;stroke:#000000;stroke-linecap:square;stroke-linejoin:miter;stroke-width:0.8;"/>
   </g>
   <g id="patch_4">
    <path d="M 414.72 307.584 
L 414.72 41.472 
" style="fill:none;stroke:#000000;stroke-linecap:square;stroke-linejoin:miter;stroke-width:0.8;"/>
   </g>
   <g id="patch_5">
    <path d="M 57.6 307.584 
L 414.72 307.584 
" style="fill:none;stroke:#000000;stroke-linecap:square;stroke-linejoin:miter;stroke-width:0.8;"/>
   </g>
   <g id="patch_6">
    <path d="M 57.6 41.472 
L 414.72 41.472 
" style="fill:none;stroke:#000000;stroke-linecap:square;stroke-linejoin:miter;stroke-width:0.8;"/>
   </g>
   <g id="text_15">
    <!-- output after eliminating baseline wander -->
    <g transform="translate(113.415937 35.472)scale(0.12 -0.12)">
     <defs>
      <path d="M 30.609375 48.390625 
Q 23.390625 48.390625 19.1875 42.75 
Q 14.984375 37.109375 14.984375 27.296875 
Q 14.984375 17.484375 19.15625 11.84375 
Q 23.34375 6.203125 30.609375 6.203125 
Q 37.796875 6.203125 41.984375 11.859375 
Q 46.1875 17.53125 46.1875 27.296875 
Q 46.1875 37.015625 41.984375 42.703125 
Q 37.796875 48.390625 30.609375 48.390625 
z
M 30.609375 56 
Q 42.328125 56 49.015625 48.375 
Q 55.71875 40.765625 55.71875 27.296875 
Q 55.71875 13.875 49.015625 6.21875 
Q 42.328125 -1.421875 30.609375 -1.421875 
Q 18.84375 -1.421875 12.171875 6.21875 
Q 5.515625 13.875 5.515625 27.296875 
Q 5.515625 40.765625 12.171875 48.375 
Q 18.84375 56 30.609375 56 
z
" id="DejaVuSans-111"/>
      <path d="M 8.5 21.578125 
L 8.5 54.6875 
L 17.484375 54.6875 
L 17.484375 21.921875 
Q 17.484375 14.15625 20.5 10.265625 
Q 23.53125 6.390625 29.59375 6.390625 
Q 36.859375 6.390625 41.078125 11.03125 
Q 45.3125 15.671875 45.3125 23.6875 
L 45.3125 54.6875 
L 54.296875 54.6875 
L 54.296875 0 
L 45.3125 0 
L 45.3125 8.40625 
Q 42.046875 3.421875 37.71875 1 
Q 33.40625 -1.421875 27.6875 -1.421875 
Q 18.265625 -1.421875 13.375 4.4375 
Q 8.5 10.296875 8.5 21.578125 
z
M 31.109375 56 
z
" id="DejaVuSans-117"/>
      <path d="M 18.3125 70.21875 
L 18.3125 54.6875 
L 36.8125 54.6875 
L 36.8125 47.703125 
L 18.3125 47.703125 
L 18.3125 18.015625 
Q 18.3125 11.328125 20.140625 9.421875 
Q 21.96875 7.515625 27.59375 7.515625 
L 36.8125 7.515625 
L 36.8125 0 
L 27.59375 0 
Q 17.1875 0 13.234375 3.875 
Q 9.28125 7.765625 9.28125 18.015625 
L 9.28125 47.703125 
L 2.6875 47.703125 
L 2.6875 54.6875 
L 9.28125 54.6875 
L 9.28125 70.21875 
z
" id="DejaVuSans-116"/>
      <path d="M 18.109375 8.203125 
L 18.109375 -20.796875 
L 9.078125 -20.796875 
L 9.078125 54.6875 
L 18.109375 54.6875 
L 18.109375 46.390625 
Q 20.953125 51.265625 25.265625 53.625 
Q 29.59375 56 35.59375 56 
Q 45.5625 56 51.78125 48.09375 
Q 58.015625 40.1875 58.015625 27.296875 
Q 58.015625 14.40625 51.78125 6.484375 
Q 45.5625 -1.421875 35.59375 -1.421875 
Q 29.59375 -1.421875 25.265625 0.953125 
Q 20.953125 3.328125 18.109375 8.203125 
z
M 48.6875 27.296875 
Q 48.6875 37.203125 44.609375 42.84375 
Q 40.53125 48.484375 33.40625 48.484375 
Q 26.265625 48.484375 22.1875 42.84375 
Q 18.109375 37.203125 18.109375 27.296875 
Q 18.109375 17.390625 22.1875 11.75 
Q 26.265625 6.109375 33.40625 6.109375 
Q 40.53125 6.109375 44.609375 11.75 
Q 48.6875 17.390625 48.6875 27.296875 
z
" id="DejaVuSans-112"/>
      <path id="DejaVuSans-32"/>
      <path d="M 34.28125 27.484375 
Q 23.390625 27.484375 19.1875 25 
Q 14.984375 22.515625 14.984375 16.5 
Q 14.984375 11.71875 18.140625 8.90625 
Q 21.296875 6.109375 26.703125 6.109375 
Q 34.1875 6.109375 38.703125 11.40625 
Q 43.21875 16.703125 43.21875 25.484375 
L 43.21875 27.484375 
z
M 52.203125 31.203125 
L 52.203125 0 
L 43.21875 0 
L 43.21875 8.296875 
Q 40.140625 3.328125 35.546875 0.953125 
Q 30.953125 -1.421875 24.3125 -1.421875 
Q 15.921875 -1.421875 10.953125 3.296875 
Q 6 8.015625 6 15.921875 
Q 6 25.140625 12.171875 29.828125 
Q 18.359375 34.515625 30.609375 34.515625 
L 43.21875 34.515625 
L 43.21875 35.40625 
Q 43.21875 41.609375 39.140625 45 
Q 35.0625 48.390625 27.6875 48.390625 
Q 23 48.390625 18.546875 47.265625 
Q 14.109375 46.140625 10.015625 43.890625 
L 10.015625 52.203125 
Q 14.9375 54.109375 19.578125 55.046875 
Q 24.21875 56 28.609375 56 
Q 40.484375 56 46.34375 49.84375 
Q 52.203125 43.703125 52.203125 31.203125 
z
" id="DejaVuSans-97"/>
      <path d="M 37.109375 75.984375 
L 37.109375 68.5 
L 28.515625 68.5 
Q 23.6875 68.5 21.796875 66.546875 
Q 19.921875 64.59375 19.921875 59.515625 
L 19.921875 54.6875 
L 34.71875 54.6875 
L 34.71875 47.703125 
L 19.921875 47.703125 
L 19.921875 0 
L 10.890625 0 
L 10.890625 47.703125 
L 2.296875 47.703125 
L 2.296875 54.6875 
L 10.890625 54.6875 
L 10.890625 58.5 
Q 10.890625 67.625 15.140625 71.796875 
Q 19.390625 75.984375 28.609375 75.984375 
z
" id="DejaVuSans-102"/>
      <path d="M 56.203125 29.59375 
L 56.203125 25.203125 
L 14.890625 25.203125 
Q 15.484375 15.921875 20.484375 11.0625 
Q 25.484375 6.203125 34.421875 6.203125 
Q 39.59375 6.203125 44.453125 7.46875 
Q 49.3125 8.734375 54.109375 11.28125 
L 54.109375 2.78125 
Q 49.265625 0.734375 44.1875 -0.34375 
Q 39.109375 -1.421875 33.890625 -1.421875 
Q 20.796875 -1.421875 13.15625 6.1875 
Q 5.515625 13.8125 5.515625 26.8125 
Q 5.515625 40.234375 12.765625 48.109375 
Q 20.015625 56 32.328125 56 
Q 43.359375 56 49.78125 48.890625 
Q 56.203125 41.796875 56.203125 29.59375 
z
M 47.21875 32.234375 
Q 47.125 39.59375 43.09375 43.984375 
Q 39.0625 48.390625 32.421875 48.390625 
Q 24.90625 48.390625 20.390625 44.140625 
Q 15.875 39.890625 15.1875 32.171875 
z
" id="DejaVuSans-101"/>
      <path d="M 41.109375 46.296875 
Q 39.59375 47.171875 37.8125 47.578125 
Q 36.03125 48 33.890625 48 
Q 26.265625 48 22.1875 43.046875 
Q 18.109375 38.09375 18.109375 28.8125 
L 18.109375 0 
L 9.078125 0 
L 9.078125 54.6875 
L 18.109375 54.6875 
L 18.109375 46.1875 
Q 20.953125 51.171875 25.484375 53.578125 
Q 30.03125 56 36.53125 56 
Q 37.453125 56 38.578125 55.875 
Q 39.703125 55.765625 41.0625 55.515625 
z
" id="DejaVuSans-114"/>
      <path d="M 9.421875 75.984375 
L 18.40625 75.984375 
L 18.40625 0 
L 9.421875 0 
z
" id="DejaVuSans-108"/>
      <path d="M 9.421875 54.6875 
L 18.40625 54.6875 
L 18.40625 0 
L 9.421875 0 
z
M 9.421875 75.984375 
L 18.40625 75.984375 
L 18.40625 64.59375 
L 9.421875 64.59375 
z
" id="DejaVuSans-105"/>
      <path d="M 52 44.1875 
Q 55.375 50.25 60.0625 53.125 
Q 64.75 56 71.09375 56 
Q 79.640625 56 84.28125 50.015625 
Q 88.921875 44.046875 88.921875 33.015625 
L 88.921875 0 
L 79.890625 0 
L 79.890625 32.71875 
Q 79.890625 40.578125 77.09375 44.375 
Q 74.3125 48.1875 68.609375 48.1875 
Q 61.625 48.1875 57.5625 43.546875 
Q 53.515625 38.921875 53.515625 30.90625 
L 53.515625 0 
L 44.484375 0 
L 44.484375 32.71875 
Q 44.484375 40.625 41.703125 44.40625 
Q 38.921875 48.1875 33.109375 48.1875 
Q 26.21875 48.1875 22.15625 43.53125 
Q 18.109375 38.875 18.109375 30.90625 
L 18.109375 0 
L 9.078125 0 
L 9.078125 54.6875 
L 18.109375 54.6875 
L 18.109375 46.1875 
Q 21.1875 51.21875 25.484375 53.609375 
Q 29.78125 56 35.6875 56 
Q 41.65625 56 45.828125 52.96875 
Q 50 49.953125 52 44.1875 
z
" id="DejaVuSans-109"/>
      <path d="M 54.890625 33.015625 
L 54.890625 0 
L 45.90625 0 
L 45.90625 32.71875 
Q 45.90625 40.484375 42.875 44.328125 
Q 39.84375 48.1875 33.796875 48.1875 
Q 26.515625 48.1875 22.3125 43.546875 
Q 18.109375 38.921875 18.109375 30.90625 
L 18.109375 0 
L 9.078125 0 
L 9.078125 54.6875 
L 18.109375 54.6875 
L 18.109375 46.1875 
Q 21.34375 51.125 25.703125 53.5625 
Q 30.078125 56 35.796875 56 
Q 45.21875 56 50.046875 50.171875 
Q 54.890625 44.34375 54.890625 33.015625 
z
" id="DejaVuSans-110"/>
      <path d="M 45.40625 27.984375 
Q 45.40625 37.75 41.375 43.109375 
Q 37.359375 48.484375 30.078125 48.484375 
Q 22.859375 48.484375 18.828125 43.109375 
Q 14.796875 37.75 14.796875 27.984375 
Q 14.796875 18.265625 18.828125 12.890625 
Q 22.859375 7.515625 30.078125 7.515625 
Q 37.359375 7.515625 41.375 12.890625 
Q 45.40625 18.265625 45.40625 27.984375 
z
M 54.390625 6.78125 
Q 54.390625 -7.171875 48.1875 -13.984375 
Q 42 -20.796875 29.203125 -20.796875 
Q 24.46875 -20.796875 20.265625 -20.09375 
Q 16.0625 -19.390625 12.109375 -17.921875 
L 12.109375 -9.1875 
Q 16.0625 -11.328125 19.921875 -12.34375 
Q 23.78125 -13.375 27.78125 -13.375 
Q 36.625 -13.375 41.015625 -8.765625 
Q 45.40625 -4.15625 45.40625 5.171875 
L 45.40625 9.625 
Q 42.625 4.78125 38.28125 2.390625 
Q 33.9375 0 27.875 0 
Q 17.828125 0 11.671875 7.65625 
Q 5.515625 15.328125 5.515625 27.984375 
Q 5.515625 40.671875 11.671875 48.328125 
Q 17.828125 56 27.875 56 
Q 33.9375 56 38.28125 53.609375 
Q 42.625 51.21875 45.40625 46.390625 
L 45.40625 54.6875 
L 54.390625 54.6875 
z
" id="DejaVuSans-103"/>
      <path d="M 48.6875 27.296875 
Q 48.6875 37.203125 44.609375 42.84375 
Q 40.53125 48.484375 33.40625 48.484375 
Q 26.265625 48.484375 22.1875 42.84375 
Q 18.109375 37.203125 18.109375 27.296875 
Q 18.109375 17.390625 22.1875 11.75 
Q 26.265625 6.109375 33.40625 6.109375 
Q 40.53125 6.109375 44.609375 11.75 
Q 48.6875 17.390625 48.6875 27.296875 
z
M 18.109375 46.390625 
Q 20.953125 51.265625 25.265625 53.625 
Q 29.59375 56 35.59375 56 
Q 45.5625 56 51.78125 48.09375 
Q 58.015625 40.1875 58.015625 27.296875 
Q 58.015625 14.40625 51.78125 6.484375 
Q 45.5625 -1.421875 35.59375 -1.421875 
Q 29.59375 -1.421875 25.265625 0.953125 
Q 20.953125 3.328125 18.109375 8.203125 
L 18.109375 0 
L 9.078125 0 
L 9.078125 75.984375 
L 18.109375 75.984375 
z
" id="DejaVuSans-98"/>
      <path d="M 44.28125 53.078125 
L 44.28125 44.578125 
Q 40.484375 46.53125 36.375 47.5 
Q 32.28125 48.484375 27.875 48.484375 
Q 21.1875 48.484375 17.84375 46.4375 
Q 14.5 44.390625 14.5 40.28125 
Q 14.5 37.15625 16.890625 35.375 
Q 19.28125 33.59375 26.515625 31.984375 
L 29.59375 31.296875 
Q 39.15625 29.25 43.1875 25.515625 
Q 47.21875 21.78125 47.21875 15.09375 
Q 47.21875 7.46875 41.1875 3.015625 
Q 35.15625 -1.421875 24.609375 -1.421875 
Q 20.21875 -1.421875 15.453125 -0.5625 
Q 10.6875 0.296875 5.421875 2 
L 5.421875 11.28125 
Q 10.40625 8.6875 15.234375 7.390625 
Q 20.0625 6.109375 24.8125 6.109375 
Q 31.15625 6.109375 34.5625 8.28125 
Q 37.984375 10.453125 37.984375 14.40625 
Q 37.984375 18.0625 35.515625 20.015625 
Q 33.0625 21.96875 24.703125 23.78125 
L 21.578125 24.515625 
Q 13.234375 26.265625 9.515625 29.90625 
Q 5.8125 33.546875 5.8125 39.890625 
Q 5.8125 47.609375 11.28125 51.796875 
Q 16.75 56 26.8125 56 
Q 31.78125 56 36.171875 55.265625 
Q 40.578125 54.546875 44.28125 53.078125 
z
" id="DejaVuSans-115"/>
      <path d="M 4.203125 54.6875 
L 13.1875 54.6875 
L 24.421875 12.015625 
L 35.59375 54.6875 
L 46.1875 54.6875 
L 57.421875 12.015625 
L 68.609375 54.6875 
L 77.59375 54.6875 
L 63.28125 0 
L 52.6875 0 
L 40.921875 44.828125 
L 29.109375 0 
L 18.5 0 
z
" id="DejaVuSans-119"/>
      <path d="M 45.40625 46.390625 
L 45.40625 75.984375 
L 54.390625 75.984375 
L 54.390625 0 
L 45.40625 0 
L 45.40625 8.203125 
Q 42.578125 3.328125 38.25 0.953125 
Q 33.9375 -1.421875 27.875 -1.421875 
Q 17.96875 -1.421875 11.734375 6.484375 
Q 5.515625 14.40625 5.515625 27.296875 
Q 5.515625 40.1875 11.734375 48.09375 
Q 17.96875 56 27.875 56 
Q 33.9375 56 38.25 53.625 
Q 42.578125 51.265625 45.40625 46.390625 
z
M 14.796875 27.296875 
Q 14.796875 17.390625 18.875 11.75 
Q 22.953125 6.109375 30.078125 6.109375 
Q 37.203125 6.109375 41.296875 11.75 
Q 45.40625 17.390625 45.40625 27.296875 
Q 45.40625 37.203125 41.296875 42.84375 
Q 37.203125 48.484375 30.078125 48.484375 
Q 22.953125 48.484375 18.875 42.84375 
Q 14.796875 37.203125 14.796875 27.296875 
z
" id="DejaVuSans-100"/>
     </defs>
     <use xlink:href="#DejaVuSans-111"/>
     <use x="61.181641" xlink:href="#DejaVuSans-117"/>
     <use x="124.560547" xlink:href="#DejaVuSans-116"/>
     <use x="163.769531" xlink:href="#DejaVuSans-112"/>
     <use x="227.246094" xlink:href="#DejaVuSans-117"/>
     <use x="290.625" xlink:href="#DejaVuSans-116"/>
     <use x="329.833984" xlink:href="#DejaVuSans-32"/>
     <use x="361.621094" xlink:href="#DejaVuSans-97"/>
     <use x="422.900391" xlink:href="#DejaVuSans-102"/>
     <use x="456.355469" xlink:href="#DejaVuSans-116"/>
     <use x="495.564453" xlink:href="#DejaVuSans-101"/>
     <use x="557.087891" xlink:href="#DejaVuSans-114"/>
     <use x="598.201172" xlink:href="#DejaVuSans-32"/>
     <use x="629.988281" xlink:href="#DejaVuSans-101"/>
     <use x="691.511719" xlink:href="#DejaVuSans-108"/>
     <use x="719.294922" xlink:href="#DejaVuSans-105"/>
     <use x="747.078125" xlink:href="#DejaVuSans-109"/>
     <use x="844.490234" xlink:href="#DejaVuSans-105"/>
     <use x="872.273438" xlink:href="#DejaVuSans-110"/>
     <use x="935.652344" xlink:href="#DejaVuSans-97"/>
     <use x="996.931641" xlink:href="#DejaVuSans-116"/>
     <use x="1036.140625" xlink:href="#DejaVuSans-105"/>
     <use x="1063.923828" xlink:href="#DejaVuSans-110"/>
     <use x="1127.302734" xlink:href="#DejaVuSans-103"/>
     <use x="1190.779297" xlink:href="#DejaVuSans-32"/>
     <use x="1222.566406" xlink:href="#DejaVuSans-98"/>
     <use x="1286.042969" xlink:href="#DejaVuSans-97"/>
     <use x="1347.322266" xlink:href="#DejaVuSans-115"/>
     <use x="1399.421875" xlink:href="#DejaVuSans-101"/>
     <use x="1460.945312" xlink:href="#DejaVuSans-108"/>
     <use x="1488.728516" xlink:href="#DejaVuSans-105"/>
     <use x="1516.511719" xlink:href="#DejaVuSans-110"/>
     <use x="1579.890625" xlink:href="#DejaVuSans-101"/>
     <use x="1641.414062" xlink:href="#DejaVuSans-32"/>
     <use x="1673.201172" xlink:href="#DejaVuSans-119"/>
     <use x="1754.988281" xlink:href="#DejaVuSans-97"/>
     <use x="1816.267578" xlink:href="#DejaVuSans-110"/>
     <use x="1879.646484" xlink:href="#DejaVuSans-100"/>
     <use x="1943.123047" xlink:href="#DejaVuSans-101"/>
     <use x="2004.646484" xlink:href="#DejaVuSans-114"/>
    </g>
   </g>
  </g>
 </g>
 <defs>
  <clipPath id="pbb2b68b881">
   <rect height="266.112" width="357.12" x="57.6" y="41.472"/>
  </clipPath>
 </defs>
</svg>
