<?xml version="1.0" encoding="utf-8" standalone="no"?>
<!DOCTYPE svg PUBLIC "-//W3C//DTD SVG 1.1//EN"
  "http://www.w3.org/Graphics/SVG/1.1/DTD/svg11.dtd">
<!-- Created with matplotlib (https://matplotlib.org/) -->
<svg height="345.6pt" version="1.1" viewBox="0 0 460.8 345.6" width="460.8pt" xmlns="http://www.w3.org/2000/svg" xmlns:xlink="http://www.w3.org/1999/xlink">
 <metadata>
  <rdf:RDF xmlns:cc="http://creativecommons.org/ns#" xmlns:dc="http://purl.org/dc/elements/1.1/" xmlns:rdf="http://www.w3.org/1999/02/22-rdf-syntax-ns#">
   <cc:Work>
    <dc:type rdf:resource="http://purl.org/dc/dcmitype/StillImage"/>
    <dc:date>2021-11-15T10:26:18.289513</dc:date>
    <dc:format>image/svg+xml</dc:format>
    <dc:creator>
     <cc:Agent>
      <dc:title>Matplotlib v3.3.2, https://matplotlib.org/</dc:title>
     </cc:Agent>
    </dc:creator>
   </cc:Work>
  </rdf:RDF>
 </metadata>
 <defs>
  <style type="text/css">*{stroke-linecap:butt;stroke-linejoin:round;}</style>
 </defs>
 <g id="figure_1">
  <g id="patch_1">
   <path d="M 0 345.6 
L 460.8 345.6 
L 460.8 0 
L 0 0 
z
" style="fill:#ffffff;"/>
  </g>
  <g id="axes_1">
   <g id="patch_2">
    <path d="M 57.6 307.584 
L 414.72 307.584 
L 414.72 41.472 
L 57.6 41.472 
z
" style="fill:#ffffff;"/>
   </g>
   <g id="matplotlib.axis_1">
    <g id="xtick_1">
     <g id="line2d_1">
      <defs>
       <path d="M 0 0 
L 0 3.5 
" id="maa98e0554f" style="stroke:#000000;stroke-width:0.8;"/>
      </defs>
      <g>
       <use style="stroke:#000000;stroke-width:0.8;" x="73.832727" xlink:href="#maa98e0554f" y="307.584"/>
      </g>
     </g>
     <g id="text_1">
      <!-- 0.0 -->
      <g transform="translate(65.881165 322.182437)scale(0.1 -0.1)">
       <defs>
        <path d="M 31.78125 66.40625 
Q 24.171875 66.40625 20.328125 58.90625 
Q 16.5 51.421875 16.5 36.375 
Q 16.5 21.390625 20.328125 13.890625 
Q 24.171875 6.390625 31.78125 6.390625 
Q 39.453125 6.390625 43.28125 13.890625 
Q 47.125 21.390625 47.125 36.375 
Q 47.125 51.421875 43.28125 58.90625 
Q 39.453125 66.40625 31.78125 66.40625 
z
M 31.78125 74.21875 
Q 44.046875 74.21875 50.515625 64.515625 
Q 56.984375 54.828125 56.984375 36.375 
Q 56.984375 17.96875 50.515625 8.265625 
Q 44.046875 -1.421875 31.78125 -1.421875 
Q 19.53125 -1.421875 13.0625 8.265625 
Q 6.59375 17.96875 6.59375 36.375 
Q 6.59375 54.828125 13.0625 64.515625 
Q 19.53125 74.21875 31.78125 74.21875 
z
" id="DejaVuSans-48"/>
        <path d="M 10.6875 12.40625 
L 21 12.40625 
L 21 0 
L 10.6875 0 
z
" id="DejaVuSans-46"/>
       </defs>
       <use xlink:href="#DejaVuSans-48"/>
       <use x="63.623047" xlink:href="#DejaVuSans-46"/>
       <use x="95.410156" xlink:href="#DejaVuSans-48"/>
      </g>
     </g>
    </g>
    <g id="xtick_2">
     <g id="line2d_2">
      <g>
       <use style="stroke:#000000;stroke-width:0.8;" x="114.422663" xlink:href="#maa98e0554f" y="307.584"/>
      </g>
     </g>
     <g id="text_2">
      <!-- 2.5 -->
      <g transform="translate(106.471101 322.182437)scale(0.1 -0.1)">
       <defs>
        <path d="M 19.1875 8.296875 
L 53.609375 8.296875 
L 53.609375 0 
L 7.328125 0 
L 7.328125 8.296875 
Q 12.9375 14.109375 22.625 23.890625 
Q 32.328125 33.6875 34.8125 36.53125 
Q 39.546875 41.84375 41.421875 45.53125 
Q 43.3125 49.21875 43.3125 52.78125 
Q 43.3125 58.59375 39.234375 62.25 
Q 35.15625 65.921875 28.609375 65.921875 
Q 23.96875 65.921875 18.8125 64.3125 
Q 13.671875 62.703125 7.8125 59.421875 
L 7.8125 69.390625 
Q 13.765625 71.78125 18.9375 73 
Q 24.125 74.21875 28.421875 74.21875 
Q 39.75 74.21875 46.484375 68.546875 
Q 53.21875 62.890625 53.21875 53.421875 
Q 53.21875 48.921875 51.53125 44.890625 
Q 49.859375 40.875 45.40625 35.40625 
Q 44.1875 33.984375 37.640625 27.21875 
Q 31.109375 20.453125 19.1875 8.296875 
z
" id="DejaVuSans-50"/>
        <path d="M 10.796875 72.90625 
L 49.515625 72.90625 
L 49.515625 64.59375 
L 19.828125 64.59375 
L 19.828125 46.734375 
Q 21.96875 47.46875 24.109375 47.828125 
Q 26.265625 48.1875 28.421875 48.1875 
Q 40.625 48.1875 47.75 41.5 
Q 54.890625 34.8125 54.890625 23.390625 
Q 54.890625 11.625 47.5625 5.09375 
Q 40.234375 -1.421875 26.90625 -1.421875 
Q 22.3125 -1.421875 17.546875 -0.640625 
Q 12.796875 0.140625 7.71875 1.703125 
L 7.71875 11.625 
Q 12.109375 9.234375 16.796875 8.0625 
Q 21.484375 6.890625 26.703125 6.890625 
Q 35.15625 6.890625 40.078125 11.328125 
Q 45.015625 15.765625 45.015625 23.390625 
Q 45.015625 31 40.078125 35.4375 
Q 35.15625 39.890625 26.703125 39.890625 
Q 22.75 39.890625 18.8125 39.015625 
Q 14.890625 38.140625 10.796875 36.28125 
z
" id="DejaVuSans-53"/>
       </defs>
       <use xlink:href="#DejaVuSans-50"/>
       <use x="63.623047" xlink:href="#DejaVuSans-46"/>
       <use x="95.410156" xlink:href="#DejaVuSans-53"/>
      </g>
     </g>
    </g>
    <g id="xtick_3">
     <g id="line2d_3">
      <g>
       <use style="stroke:#000000;stroke-width:0.8;" x="155.0126" xlink:href="#maa98e0554f" y="307.584"/>
      </g>
     </g>
     <g id="text_3">
      <!-- 5.0 -->
      <g transform="translate(147.061037 322.182437)scale(0.1 -0.1)">
       <use xlink:href="#DejaVuSans-53"/>
       <use x="63.623047" xlink:href="#DejaVuSans-46"/>
       <use x="95.410156" xlink:href="#DejaVuSans-48"/>
      </g>
     </g>
    </g>
    <g id="xtick_4">
     <g id="line2d_4">
      <g>
       <use style="stroke:#000000;stroke-width:0.8;" x="195.602536" xlink:href="#maa98e0554f" y="307.584"/>
      </g>
     </g>
     <g id="text_4">
      <!-- 7.5 -->
      <g transform="translate(187.650973 322.182437)scale(0.1 -0.1)">
       <defs>
        <path d="M 8.203125 72.90625 
L 55.078125 72.90625 
L 55.078125 68.703125 
L 28.609375 0 
L 18.3125 0 
L 43.21875 64.59375 
L 8.203125 64.59375 
z
" id="DejaVuSans-55"/>
       </defs>
       <use xlink:href="#DejaVuSans-55"/>
       <use x="63.623047" xlink:href="#DejaVuSans-46"/>
       <use x="95.410156" xlink:href="#DejaVuSans-53"/>
      </g>
     </g>
    </g>
    <g id="xtick_5">
     <g id="line2d_5">
      <g>
       <use style="stroke:#000000;stroke-width:0.8;" x="236.192472" xlink:href="#maa98e0554f" y="307.584"/>
      </g>
     </g>
     <g id="text_5">
      <!-- 10.0 -->
      <g transform="translate(225.059659 322.182437)scale(0.1 -0.1)">
       <defs>
        <path d="M 12.40625 8.296875 
L 28.515625 8.296875 
L 28.515625 63.921875 
L 10.984375 60.40625 
L 10.984375 69.390625 
L 28.421875 72.90625 
L 38.28125 72.90625 
L 38.28125 8.296875 
L 54.390625 8.296875 
L 54.390625 0 
L 12.40625 0 
z
" id="DejaVuSans-49"/>
       </defs>
       <use xlink:href="#DejaVuSans-49"/>
       <use x="63.623047" xlink:href="#DejaVuSans-48"/>
       <use x="127.246094" xlink:href="#DejaVuSans-46"/>
       <use x="159.033203" xlink:href="#DejaVuSans-48"/>
      </g>
     </g>
    </g>
    <g id="xtick_6">
     <g id="line2d_6">
      <g>
       <use style="stroke:#000000;stroke-width:0.8;" x="276.782408" xlink:href="#maa98e0554f" y="307.584"/>
      </g>
     </g>
     <g id="text_6">
      <!-- 12.5 -->
      <g transform="translate(265.649596 322.182437)scale(0.1 -0.1)">
       <use xlink:href="#DejaVuSans-49"/>
       <use x="63.623047" xlink:href="#DejaVuSans-50"/>
       <use x="127.246094" xlink:href="#DejaVuSans-46"/>
       <use x="159.033203" xlink:href="#DejaVuSans-53"/>
      </g>
     </g>
    </g>
    <g id="xtick_7">
     <g id="line2d_7">
      <g>
       <use style="stroke:#000000;stroke-width:0.8;" x="317.372344" xlink:href="#maa98e0554f" y="307.584"/>
      </g>
     </g>
     <g id="text_7">
      <!-- 15.0 -->
      <g transform="translate(306.239532 322.182437)scale(0.1 -0.1)">
       <use xlink:href="#DejaVuSans-49"/>
       <use x="63.623047" xlink:href="#DejaVuSans-53"/>
       <use x="127.246094" xlink:href="#DejaVuSans-46"/>
       <use x="159.033203" xlink:href="#DejaVuSans-48"/>
      </g>
     </g>
    </g>
    <g id="xtick_8">
     <g id="line2d_8">
      <g>
       <use style="stroke:#000000;stroke-width:0.8;" x="357.96228" xlink:href="#maa98e0554f" y="307.584"/>
      </g>
     </g>
     <g id="text_8">
      <!-- 17.5 -->
      <g transform="translate(346.829468 322.182437)scale(0.1 -0.1)">
       <use xlink:href="#DejaVuSans-49"/>
       <use x="63.623047" xlink:href="#DejaVuSans-55"/>
       <use x="127.246094" xlink:href="#DejaVuSans-46"/>
       <use x="159.033203" xlink:href="#DejaVuSans-53"/>
      </g>
     </g>
    </g>
    <g id="xtick_9">
     <g id="line2d_9">
      <g>
       <use style="stroke:#000000;stroke-width:0.8;" x="398.552217" xlink:href="#maa98e0554f" y="307.584"/>
      </g>
     </g>
     <g id="text_9">
      <!-- 20.0 -->
      <g transform="translate(387.419404 322.182437)scale(0.1 -0.1)">
       <use xlink:href="#DejaVuSans-50"/>
       <use x="63.623047" xlink:href="#DejaVuSans-48"/>
       <use x="127.246094" xlink:href="#DejaVuSans-46"/>
       <use x="159.033203" xlink:href="#DejaVuSans-48"/>
      </g>
     </g>
    </g>
   </g>
   <g id="matplotlib.axis_2">
    <g id="ytick_1">
     <g id="line2d_10">
      <defs>
       <path d="M 0 0 
L -3.5 0 
" id="mf7b8008a73" style="stroke:#000000;stroke-width:0.8;"/>
      </defs>
      <g>
       <use style="stroke:#000000;stroke-width:0.8;" x="57.6" xlink:href="#mf7b8008a73" y="290.449083"/>
      </g>
     </g>
     <g id="text_10">
      <!-- −0.002 -->
      <g transform="translate(13.592188 294.248301)scale(0.1 -0.1)">
       <defs>
        <path d="M 10.59375 35.5 
L 73.1875 35.5 
L 73.1875 27.203125 
L 10.59375 27.203125 
z
" id="DejaVuSans-8722"/>
       </defs>
       <use xlink:href="#DejaVuSans-8722"/>
       <use x="83.789062" xlink:href="#DejaVuSans-48"/>
       <use x="147.412109" xlink:href="#DejaVuSans-46"/>
       <use x="179.199219" xlink:href="#DejaVuSans-48"/>
       <use x="242.822266" xlink:href="#DejaVuSans-48"/>
       <use x="306.445312" xlink:href="#DejaVuSans-50"/>
      </g>
     </g>
    </g>
    <g id="ytick_2">
     <g id="line2d_11">
      <g>
       <use style="stroke:#000000;stroke-width:0.8;" x="57.6" xlink:href="#mf7b8008a73" y="232.184043"/>
      </g>
     </g>
     <g id="text_11">
      <!-- −0.001 -->
      <g transform="translate(13.592188 235.983262)scale(0.1 -0.1)">
       <use xlink:href="#DejaVuSans-8722"/>
       <use x="83.789062" xlink:href="#DejaVuSans-48"/>
       <use x="147.412109" xlink:href="#DejaVuSans-46"/>
       <use x="179.199219" xlink:href="#DejaVuSans-48"/>
       <use x="242.822266" xlink:href="#DejaVuSans-48"/>
       <use x="306.445312" xlink:href="#DejaVuSans-49"/>
      </g>
     </g>
    </g>
    <g id="ytick_3">
     <g id="line2d_12">
      <g>
       <use style="stroke:#000000;stroke-width:0.8;" x="57.6" xlink:href="#mf7b8008a73" y="173.919003"/>
      </g>
     </g>
     <g id="text_12">
      <!-- 0.000 -->
      <g transform="translate(21.971875 177.718222)scale(0.1 -0.1)">
       <use xlink:href="#DejaVuSans-48"/>
       <use x="63.623047" xlink:href="#DejaVuSans-46"/>
       <use x="95.410156" xlink:href="#DejaVuSans-48"/>
       <use x="159.033203" xlink:href="#DejaVuSans-48"/>
       <use x="222.65625" xlink:href="#DejaVuSans-48"/>
      </g>
     </g>
    </g>
    <g id="ytick_4">
     <g id="line2d_13">
      <g>
       <use style="stroke:#000000;stroke-width:0.8;" x="57.6" xlink:href="#mf7b8008a73" y="115.653963"/>
      </g>
     </g>
     <g id="text_13">
      <!-- 0.001 -->
      <g transform="translate(21.971875 119.453182)scale(0.1 -0.1)">
       <use xlink:href="#DejaVuSans-48"/>
       <use x="63.623047" xlink:href="#DejaVuSans-46"/>
       <use x="95.410156" xlink:href="#DejaVuSans-48"/>
       <use x="159.033203" xlink:href="#DejaVuSans-48"/>
       <use x="222.65625" xlink:href="#DejaVuSans-49"/>
      </g>
     </g>
    </g>
    <g id="ytick_5">
     <g id="line2d_14">
      <g>
       <use style="stroke:#000000;stroke-width:0.8;" x="57.6" xlink:href="#mf7b8008a73" y="57.388923"/>
      </g>
     </g>
     <g id="text_14">
      <!-- 0.002 -->
      <g transform="translate(21.971875 61.188142)scale(0.1 -0.1)">
       <use xlink:href="#DejaVuSans-48"/>
       <use x="63.623047" xlink:href="#DejaVuSans-46"/>
       <use x="95.410156" xlink:href="#DejaVuSans-48"/>
       <use x="159.033203" xlink:href="#DejaVuSans-48"/>
       <use x="222.65625" xlink:href="#DejaVuSans-50"/>
      </g>
     </g>
    </g>
   </g>
   <g id="line2d_15">
    <path clip-path="url(#p45d585499f)" d="M 73.832727 173.919003 
L 83.054761 173.99135 
L 83.184649 174.124789 
L 83.314536 174.131526 
L 83.574312 174.514607 
L 83.7042 174.785971 
L 83.834088 175.036196 
L 83.963975 175.023174 
L 84.093863 175.291075 
L 84.158807 175.256362 
L 84.678358 174.011585 
L 85.457685 169.843301 
L 85.587573 170.356179 
L 85.717461 169.36705 
L 85.847348 170.940218 
L 85.912292 171.601402 
L 85.977236 171.265695 
L 86.04218 170.968212 
L 86.561731 180.087117 
L 86.626675 179.459566 
L 86.691619 178.737259 
L 86.886451 184.267582 
L 86.951395 182.749865 
L 87.016339 181.048242 
L 87.081282 182.000205 
L 87.21117 185.123471 
L 87.341058 179.133296 
L 87.406002 179.247273 
L 87.470946 181.339807 
L 87.53589 180.945336 
L 87.730721 171.415002 
L 87.795665 173.190364 
L 87.860609 172.189346 
L 88.055441 160.663033 
L 88.120385 162.869787 
L 88.185329 162.127297 
L 88.315216 151.499834 
L 88.38016 151.829275 
L 88.510048 156.369048 
L 88.639936 148.583391 
L 88.769824 157.815288 
L 88.834768 161.248104 
L 88.899712 159.508596 
L 88.964655 158.663528 
L 89.419263 208.512684 
L 90.003758 295.488 
L 90.068702 53.568 
L 90.133646 66.972603 
L 90.328477 91.438987 
L 90.523309 125.312599 
L 90.588253 128.690197 
L 90.912972 165.317771 
L 91.107804 188.825456 
L 91.172748 187.311106 
L 91.237692 185.204836 
L 91.432524 199.020828 
L 91.497467 195.33159 
L 91.562411 190.619509 
L 91.627355 191.018016 
L 91.757243 195.426466 
L 91.952075 184.094106 
L 92.017019 186.74775 
L 92.081963 186.238004 
L 92.276794 174.487826 
L 92.341738 177.342567 
L 92.406682 177.09336 
L 92.53657 168.131681 
L 92.601514 168.366216 
L 92.731402 170.562151 
L 92.861289 164.599451 
L 92.926233 165.20289 
L 93.056121 169.112318 
L 93.186009 166.037559 
L 93.250953 167.024524 
L 93.380841 171.104927 
L 93.510728 169.526131 
L 93.575672 169.888122 
L 93.640616 170.911783 
L 93.70556 170.292032 
L 93.835448 169.042039 
L 93.900392 169.440301 
L 94.290055 177.152819 
L 94.484887 174.869577 
L 94.549831 175.493941 
L 94.614775 175.355957 
L 94.679718 174.421809 
L 94.809606 175.562866 
L 94.87455 175.402082 
L 95.069382 176.126143 
L 95.19927 178.173896 
L 95.264214 177.958431 
L 95.329157 177.724163 
L 95.783765 183.556983 
L 96.04354 192.813608 
L 96.173428 183.645537 
L 96.36826 137.840936 
L 96.498148 104.499953 
L 96.822867 191.116053 
L 96.887811 187.741101 
L 97.017699 183.87902 
L 97.082643 184.9374 
L 97.147587 184.858589 
L 97.212531 184.447936 
L 97.342418 182.654323 
L 97.407362 183.129457 
L 97.53725 180.193216 
L 97.667138 177.338664 
L 97.732082 177.585656 
L 97.797026 177.614112 
L 98.381521 170.694601 
L 98.446465 170.971185 
L 98.511408 170.749192 
L 98.641296 169.320618 
L 98.70624 169.83585 
L 98.836128 170.969567 
L 98.901072 170.956344 
L 99.160847 172.782431 
L 99.225791 172.590501 
L 99.290735 172.703152 
L 99.355679 172.881327 
L 99.485567 174.61082 
L 99.550511 174.077263 
L 99.615455 173.779489 
L 99.940174 175.769394 
L 100.005118 175.742657 
L 100.070062 176.434929 
L 100.135006 175.986088 
L 100.19995 175.573585 
L 100.264894 175.707459 
L 100.459725 175.952369 
L 100.524669 175.053813 
L 100.589613 175.198347 
L 100.784445 174.581409 
L 100.849389 174.183265 
L 100.914333 174.635964 
L 101.174108 172.567896 
L 101.433884 171.258847 
L 101.498828 170.861657 
L 101.628716 171.91169 
L 101.693659 171.684579 
L 101.758603 171.632766 
L 101.888491 172.940088 
L 102.083323 174.968217 
L 102.278155 175.820208 
L 102.343098 175.778533 
L 102.472986 174.880265 
L 102.53793 175.536228 
L 102.602874 175.215419 
L 102.797706 175.884551 
L 102.992537 173.555282 
L 103.122425 174.349454 
L 103.252313 173.063078 
L 103.317257 172.448113 
L 103.382201 172.520748 
L 103.447145 172.678271 
L 103.577032 173.669888 
L 103.70692 172.478546 
L 103.966696 173.956922 
L 104.096584 172.651873 
L 104.356359 174.633875 
L 104.421303 174.653958 
L 104.486247 174.307648 
L 104.616135 173.20253 
L 104.810967 175.29866 
L 104.87591 174.974354 
L 105.005798 173.465268 
L 105.070742 174.220236 
L 105.135686 173.380144 
L 105.20063 173.601022 
L 105.330518 175.281279 
L 105.460406 173.81532 
L 105.525349 174.130031 
L 105.590293 174.484932 
L 105.655237 174.301612 
L 105.720181 174.033523 
L 105.785125 174.612655 
L 105.850069 174.383021 
L 105.915013 173.416308 
L 105.979957 174.31818 
L 106.044901 173.708155 
L 106.109845 173.069856 
L 106.239732 175.114297 
L 106.564452 173.476355 
L 106.629396 173.539291 
L 106.69434 172.745555 
L 106.759283 173.169241 
L 106.824227 173.451344 
L 107.084003 172.658375 
L 107.213891 173.310346 
L 107.343779 173.120823 
L 107.53861 174.320109 
L 107.668498 172.711463 
L 107.798386 172.998009 
L 107.86333 172.973037 
L 107.993218 174.201661 
L 108.058161 173.937592 
L 108.123105 173.479615 
L 108.382881 176.17139 
L 108.447825 176.113085 
L 108.577713 175.099521 
L 108.642657 175.496988 
L 108.772544 177.219094 
L 108.902432 175.825456 
L 109.097264 177.135481 
L 109.227152 175.864037 
L 109.292096 175.871217 
L 109.616815 169.697792 
L 109.811647 168.442111 
L 109.876591 168.842511 
L 110.006478 171.382999 
L 110.071422 170.848445 
L 110.136366 170.047174 
L 110.20131 170.702081 
L 110.266254 170.044462 
L 110.461086 171.94963 
L 110.52603 170.82965 
L 110.590973 171.481748 
L 110.915693 175.652062 
L 111.500188 183.627932 
L 111.824908 194.257113 
L 111.889851 192.693455 
L 112.084683 164.447979 
L 112.344459 107.931335 
L 112.669178 192.874817 
L 112.86401 184.866467 
L 112.993898 185.829948 
L 113.253673 181.622388 
L 113.318617 182.912089 
L 113.643337 176.362689 
L 113.708281 177.072005 
L 113.838168 172.19805 
L 113.903112 172.843065 
L 113.968056 173.1008 
L 114.227832 170.308473 
L 114.292776 170.867962 
L 114.422663 169.636759 
L 114.552551 171.461471 
L 114.682439 170.046847 
L 114.747383 170.066672 
L 114.812327 169.546453 
L 115.20199 173.758317 
L 115.266934 173.753418 
L 115.331878 172.818208 
L 115.396822 173.108351 
L 115.52671 175.104665 
L 115.656598 176.896663 
L 115.721541 176.277008 
L 115.786485 175.94455 
L 115.851429 176.163258 
L 116.046261 177.283335 
L 116.111205 174.725049 
L 116.176149 175.085219 
L 116.306036 176.33312 
L 116.37098 174.816989 
L 116.435924 174.911507 
L 116.500868 177.042666 
L 116.565812 176.295912 
L 116.6957 172.0291 
L 116.825588 175.375145 
L 117.020419 172.134976 
L 117.410083 170.172197 
L 117.539971 172.54585 
L 117.604914 171.758945 
L 117.734802 174.901383 
L 117.86469 173.336404 
L 117.994578 175.339507 
L 118.059522 173.911078 
L 118.124466 173.943835 
L 118.254353 177.135185 
L 118.319297 177.063226 
L 118.384241 177.266093 
L 118.514129 174.899092 
L 118.579073 175.313861 
L 118.644017 175.61972 
L 118.838848 173.460663 
L 118.903792 171.696231 
L 118.968736 171.786849 
L 119.228512 174.913346 
L 119.553231 171.831238 
L 119.618175 171.950644 
L 119.683119 173.189796 
L 119.748063 172.693451 
L 119.813007 172.627449 
L 119.877951 172.743328 
L 120.007839 173.910303 
L 120.072783 172.660818 
L 120.20267 175.67957 
L 120.397502 173.424804 
L 120.462446 173.613529 
L 120.52739 174.353921 
L 120.592334 176.669268 
L 120.657278 175.093114 
L 120.722222 172.578995 
L 120.787165 172.682776 
L 120.917053 173.58502 
L 121.046941 177.471953 
L 121.111885 176.951516 
L 121.371661 172.97351 
L 121.436604 173.012203 
L 121.566492 174.20519 
L 121.761324 172.506674 
L 121.826268 173.09474 
L 121.891212 171.848337 
L 121.956156 172.416042 
L 122.086043 173.011775 
L 122.150987 173.703779 
L 122.280875 171.591931 
L 122.410763 174.834815 
L 122.475707 174.417828 
L 122.605595 172.657242 
L 122.735482 174.44431 
L 122.86537 171.146134 
L 122.930314 171.469194 
L 122.995258 171.699006 
L 123.19009 175.608504 
L 123.255034 176.149489 
L 123.319977 176.112192 
L 123.449865 175.683345 
L 123.579753 178.444782 
L 123.709641 174.987712 
L 123.839529 176.150823 
L 123.904473 177.507952 
L 123.969416 177.461189 
L 124.618855 170.431167 
L 124.748743 169.381954 
L 124.878631 167.735268 
L 125.008519 170.933188 
L 125.073463 169.981216 
L 125.20335 170.713107 
L 125.268294 170.230083 
L 125.463126 172.442175 
L 125.52807 172.11936 
L 125.722902 175.379401 
L 125.787846 174.648074 
L 125.852789 174.726474 
L 125.917733 175.38165 
L 126.047621 178.571089 
L 126.112565 178.706908 
L 126.177509 178.57148 
L 126.307397 184.72096 
L 126.437285 183.468842 
L 126.632116 187.94747 
L 126.762004 196.260386 
L 126.826948 194.154494 
L 127.02178 166.353223 
L 127.281555 105.664933 
L 127.411443 145.865623 
L 127.606275 194.170796 
L 127.801106 184.885731 
L 127.86605 185.364057 
L 127.995938 186.372893 
L 128.19077 182.612062 
L 128.255714 182.813325 
L 128.450545 178.392764 
L 128.515489 178.180641 
L 128.775265 173.695862 
L 129.03504 171.241987 
L 129.099984 170.773516 
L 129.164928 171.133106 
L 129.229872 170.978283 
L 129.294816 170.963963 
L 129.424704 169.561074 
L 129.489648 168.928668 
L 129.619536 171.257754 
L 129.749423 169.932541 
L 129.879311 172.674321 
L 130.009199 171.810547 
L 130.593694 175.485596 
L 130.658638 175.508083 
L 130.788526 176.374972 
L 130.85347 176.007694 
L 130.983357 175.940418 
L 131.048301 176.383673 
L 131.113245 176.18702 
L 131.178189 176.274604 
L 131.308077 176.792957 
L 131.437965 175.021599 
L 131.502909 175.405087 
L 131.632796 175.07833 
L 131.762684 172.383535 
L 131.827628 172.687625 
L 131.892572 173.321999 
L 132.087404 171.200362 
L 132.152348 171.40117 
L 132.217291 171.255955 
L 132.347179 169.596029 
L 132.736843 174.976188 
L 132.801787 174.797637 
L 132.931674 175.906718 
L 132.996618 176.336618 
L 133.126506 175.279944 
L 133.19145 175.591799 
L 133.256394 176.052542 
L 133.321338 175.541029 
L 133.386282 176.367103 
L 133.516169 173.434867 
L 133.646057 175.194443 
L 133.840889 173.396394 
L 133.905833 173.990041 
L 133.970777 173.655345 
L 134.165608 172.75124 
L 134.230552 172.413729 
L 134.490328 173.830109 
L 134.555272 174.626782 
L 134.750103 173.27233 
L 134.815047 173.443443 
L 134.879991 173.108243 
L 134.944935 173.201331 
L 135.009879 174.436193 
L 135.074823 174.075809 
L 135.139767 173.701794 
L 135.204711 173.817209 
L 135.269655 173.609092 
L 135.399542 174.586005 
L 135.594374 173.888213 
L 135.724262 174.774018 
L 135.85415 173.579875 
L 135.919094 173.633228 
L 136.113925 174.34666 
L 136.178869 174.330158 
L 136.243813 173.994299 
L 136.373701 174.81352 
L 136.438645 174.793853 
L 136.69842 172.75457 
L 136.763364 173.303175 
L 136.893252 175.375877 
L 137.088084 173.406516 
L 137.217972 173.869523 
L 137.282915 173.556468 
L 137.347859 173.788151 
L 137.412803 173.817662 
L 137.477747 173.592282 
L 137.607635 175.007161 
L 137.932354 172.176021 
L 138.062242 173.38821 
L 138.127186 173.32624 
L 138.322018 172.674549 
L 138.451906 173.313642 
L 138.51685 173.260259 
L 138.581793 172.791327 
L 138.646737 172.805916 
L 138.841569 174.4435 
L 138.971457 173.7054 
L 139.036401 173.891432 
L 139.166289 175.460045 
L 139.231232 175.216076 
L 139.296176 175.091064 
L 139.426064 174.363592 
L 139.68584 175.68388 
L 139.815728 174.850549 
L 140.010559 176.477527 
L 140.140447 175.174643 
L 140.335279 176.553857 
L 140.465166 172.586642 
L 140.595054 169.812898 
L 140.659998 170.860704 
L 140.724942 170.422394 
L 140.85483 168.329275 
L 140.919774 168.519451 
L 141.049662 171.745691 
L 141.114605 171.722488 
L 141.179549 171.851022 
L 141.374381 170.532586 
L 141.439325 170.762248 
L 141.569213 171.769856 
L 141.699101 174.974927 
L 141.828988 173.512051 
L 141.893932 173.723113 
L 142.088764 177.665978 
L 142.218652 178.304043 
L 142.413483 183.273315 
L 142.543371 184.211137 
L 142.803147 194.437731 
L 142.997979 176.517202 
L 143.257754 112.685432 
L 143.322698 113.521906 
L 143.582474 191.124681 
L 143.777305 183.965259 
L 143.842249 184.605124 
L 143.907193 184.722428 
L 144.296856 180.952775 
L 144.491688 177.218144 
L 144.68652 176.048856 
L 144.816408 173.389743 
L 144.881352 173.701109 
L 144.946295 173.246545 
L 145.141127 171.038033 
L 145.271015 171.756059 
L 145.400903 169.751852 
L 145.595734 171.415085 
L 145.660678 170.958871 
L 145.790566 170.187317 
L 145.985398 172.260762 
L 146.18023 173.596069 
L 146.310117 174.339835 
L 146.375061 174.197951 
L 146.504949 174.682936 
L 146.569893 175.351991 
L 146.634837 175.135135 
L 146.764725 175.647122 
L 146.894612 176.868986 
L 146.959556 176.257568 
L 147.0245 176.46485 
L 147.089444 176.642995 
L 147.34922 175.65173 
L 147.544051 174.383334 
L 147.673939 174.124034 
L 147.868771 172.051674 
L 147.933715 172.138324 
L 147.998659 172.153274 
L 148.128546 171.338183 
L 148.19349 171.350632 
L 148.388322 170.768079 
L 148.842929 175.911141 
L 148.907873 175.589954 
L 148.972817 174.98528 
L 149.037761 175.005544 
L 149.102705 175.529736 
L 149.167649 175.073923 
L 149.36248 176.458719 
L 149.427424 176.063866 
L 149.557312 175.187897 
L 149.622256 175.493567 
L 150.011919 173.137752 
L 150.076863 173.551901 
L 150.206751 172.519952 
L 150.336639 173.21691 
L 150.466527 172.208997 
L 150.596415 173.428792 
L 150.661358 172.818659 
L 150.791246 174.064188 
L 150.85619 173.77983 
L 150.921134 173.192226 
L 150.986078 173.577683 
L 151.051022 173.452168 
L 151.115966 173.965832 
L 151.18091 173.94705 
L 151.245854 173.560238 
L 151.310797 173.83755 
L 151.440685 175.259102 
L 151.635517 173.959685 
L 151.700461 174.099548 
L 151.765405 173.777741 
L 151.895293 174.730378 
L 152.090124 173.960013 
L 152.284956 174.709561 
L 152.414844 173.283765 
L 152.479788 173.426115 
L 152.674619 173.961304 
L 152.739563 173.66418 
L 152.804507 174.018683 
L 152.934395 173.039515 
L 153.129227 174.224516 
L 153.19417 174.168488 
L 153.259114 174.262635 
L 153.324058 174.630243 
L 153.389002 174.426415 
L 153.583834 173.200693 
L 153.713722 173.433743 
L 153.778666 174.063981 
L 153.843609 173.967519 
L 153.973497 174.032211 
L 154.103385 173.259477 
L 154.233273 173.38942 
L 154.298217 174.289576 
L 154.363161 174.077456 
L 154.493048 173.259049 
L 154.622936 174.693729 
L 154.68788 174.563792 
L 154.752824 174.595519 
L 154.817768 174.487156 
L 154.947656 174.002797 
L 155.077544 174.65163 
L 155.337319 172.951801 
L 155.662039 173.916527 
L 155.726982 173.366202 
L 155.791926 173.385014 
L 155.986758 172.715596 
L 156.116646 173.969652 
L 156.311478 172.767568 
L 156.376421 172.998581 
L 156.441365 173.884544 
L 156.506309 173.588636 
L 156.701141 174.920215 
L 156.766085 174.733257 
L 156.831029 174.489415 
L 156.895973 174.624056 
L 157.02586 174.879507 
L 157.155748 176.467229 
L 157.220692 176.0239 
L 157.285636 175.504508 
L 157.35058 175.528731 
L 157.480468 175.369417 
L 157.610356 176.087356 
L 157.805187 175.628881 
L 157.870131 175.479312 
L 158.064963 170.05192 
L 158.129907 170.349214 
L 158.194851 171.337436 
L 158.324738 168.815813 
L 158.389682 168.961012 
L 158.649458 172.026966 
L 158.714402 171.872898 
L 158.779346 171.958167 
L 158.974177 170.564644 
L 160.143168 186.73499 
L 160.273055 193.900153 
L 160.337999 192.041638 
L 160.467887 180.880252 
L 160.792607 111.66809 
L 161.052382 190.515136 
L 161.117326 189.417958 
L 161.312158 182.318879 
L 161.442046 184.205934 
L 161.571933 182.375698 
L 161.636877 182.426071 
L 161.831709 180.41762 
L 162.091484 177.148469 
L 162.35126 173.417669 
L 162.416204 173.601655 
L 162.481148 173.19203 
L 162.611036 170.726046 
L 162.67598 170.961408 
L 162.740923 171.123222 
L 162.870811 169.718931 
L 162.935755 169.842508 
L 163.065643 171.285768 
L 163.130587 170.904253 
L 163.260475 170.683333 
L 163.390362 172.220541 
L 163.455306 172.102186 
L 163.52025 171.855698 
L 163.585194 171.889864 
L 163.84497 174.89606 
L 163.974858 174.894218 
L 164.364521 177.925494 
L 164.559353 176.012269 
L 164.754184 175.154552 
L 164.819128 175.430791 
L 164.884072 175.37025 
L 164.949016 175.356666 
L 165.078904 174.749279 
L 165.143848 174.618422 
L 165.273735 172.520626 
L 165.403623 172.599531 
L 165.793287 170.529314 
L 165.988118 171.882874 
L 166.247894 173.948603 
L 166.442726 175.394604 
L 166.572613 176.172654 
L 166.637557 176.102355 
L 166.702501 175.514019 
L 166.767445 175.676555 
L 166.897333 175.972051 
L 167.157109 174.858004 
L 167.222052 174.930662 
L 167.611716 172.557976 
L 167.67666 172.570687 
L 167.806547 173.286099 
L 167.871491 172.746913 
L 167.936435 172.84952 
L 168.001379 172.850012 
L 168.066323 172.968384 
L 168.131267 173.474099 
L 168.196211 173.348025 
L 168.391043 172.934259 
L 168.455986 172.997888 
L 168.585874 173.977564 
L 168.715762 173.783924 
L 168.975538 174.278742 
L 169.040482 174.544832 
L 169.170369 174.262594 
L 169.300257 174.832363 
L 169.365201 174.2371 
L 169.430145 174.342392 
L 169.560033 174.524549 
L 169.819808 174.08187 
L 169.949696 174.519712 
L 170.079584 173.942534 
L 170.144528 174.531352 
L 170.209472 174.313725 
L 170.33936 174.067469 
L 170.534191 173.154682 
L 170.664079 173.742315 
L 170.858911 172.82125 
L 171.118686 174.070565 
L 171.18363 173.904515 
L 171.248574 173.719034 
L 171.313518 174.121772 
L 171.378462 173.926409 
L 171.443406 173.938692 
L 171.50835 173.693738 
L 171.833069 174.674655 
L 171.898013 175.352226 
L 171.962957 175.063767 
L 172.092845 173.520223 
L 172.157789 173.585315 
L 172.287676 173.702287 
L 172.547452 174.392466 
L 172.67734 173.542501 
L 172.807228 174.292915 
L 173.002059 173.586176 
L 173.067003 173.765941 
L 173.196891 172.588181 
L 173.261835 172.784255 
L 173.326779 172.835763 
L 173.456667 173.38745 
L 173.521611 172.897757 
L 173.651498 174.123202 
L 173.716442 173.701919 
L 173.781386 172.843995 
L 173.911274 173.601002 
L 173.976218 173.255767 
L 174.171049 174.500339 
L 174.300937 173.280821 
L 174.365881 174.223353 
L 174.430825 174.01517 
L 174.950376 176.158722 
L 175.145208 175.387382 
L 175.210152 175.385979 
L 175.275096 175.200861 
L 175.534871 176.137871 
L 175.599815 175.662088 
L 175.794647 169.902975 
L 175.924535 170.479871 
L 176.054423 168.837689 
L 176.119366 169.086808 
L 176.314198 172.189027 
L 176.444086 171.665258 
L 176.573974 172.272208 
L 176.703861 170.256881 
L 176.768805 170.693508 
L 176.963637 174.278777 
L 177.028581 174.169852 
L 177.093525 174.500431 
L 177.288357 177.057388 
L 177.418244 177.702262 
L 177.67802 182.150002 
L 177.872852 186.217986 
L 178.002739 193.081449 
L 178.067683 192.366363 
L 178.262515 173.200693 
L 178.522291 107.991654 
L 178.782066 189.955073 
L 178.84701 189.548589 
L 178.976898 182.32447 
L 179.041842 182.475275 
L 179.17173 184.779077 
L 180.34072 171.01228 
L 180.470608 171.479736 
L 180.535551 171.521178 
L 180.665439 169.703657 
L 180.730383 169.996633 
L 180.925215 171.397164 
L 180.990159 171.235383 
L 181.120047 172.47312 
L 181.18499 173.16543 
L 181.249934 172.837609 
L 181.314878 172.806434 
L 181.444766 174.331546 
L 181.50971 173.656726 
L 181.574654 172.573416 
L 181.769486 174.836375 
L 181.834429 174.648067 
L 181.899373 174.378266 
L 182.094205 175.781297 
L 182.353981 176.991787 
L 182.418925 176.22312 
L 182.483868 176.688599 
L 182.548812 176.636599 
L 182.873532 173.916674 
L 182.938476 173.177104 
L 183.00342 173.237195 
L 183.068363 173.09836 
L 183.328139 170.93241 
L 183.393083 171.027443 
L 183.458027 171.55857 
L 183.522971 171.516727 
L 183.587915 170.717501 
L 183.652859 171.003467 
L 184.107466 174.793206 
L 184.237354 175.671568 
L 184.302298 176.086997 
L 184.367241 175.536275 
L 184.497129 176.989675 
L 184.821849 173.566098 
L 184.951737 173.852496 
L 185.081624 173.524036 
L 185.146568 173.821595 
L 185.211512 173.7221 
L 185.276456 173.728133 
L 185.601176 172.628867 
L 185.925895 173.761025 
L 185.990839 174.239659 
L 186.120727 172.845879 
L 186.185671 173.315576 
L 186.315558 174.580338 
L 186.445446 173.720561 
L 186.51039 174.161079 
L 186.575334 173.983886 
L 186.640278 174.05795 
L 186.705222 173.992036 
L 186.770166 173.787633 
L 186.83511 174.527652 
L 186.900053 174.120867 
L 186.964997 173.782466 
L 187.029941 173.828932 
L 187.094885 173.863997 
L 187.289717 174.651805 
L 187.419605 174.543159 
L 187.549492 173.468187 
L 187.614436 173.755091 
L 187.809268 174.443098 
L 187.939156 173.68809 
L 188.069044 174.314386 
L 188.328819 172.755456 
L 188.653539 173.861555 
L 188.718483 174.423828 
L 188.783427 174.285011 
L 188.84837 173.996071 
L 189.043202 175.119835 
L 189.302978 173.490392 
L 189.367922 173.620933 
L 189.432865 173.446107 
L 189.562753 174.265119 
L 189.692641 173.826325 
L 189.757585 173.899042 
L 189.822529 174.754813 
L 189.887473 174.426407 
L 190.017361 174.119379 
L 190.212192 172.587749 
L 190.471968 173.812525 
L 190.536912 173.684078 
L 190.601856 173.970994 
L 190.796687 173.20651 
L 190.861631 172.921897 
L 190.926575 173.359572 
L 190.991519 172.77409 
L 191.056463 172.95373 
L 191.186351 173.525963 
L 191.251295 174.097001 
L 191.316239 174.012492 
L 191.51107 173.700068 
L 191.576014 174.3343 
L 191.640958 174.074242 
L 191.705902 173.858835 
L 191.900734 175.779263 
L 192.030621 175.645349 
L 192.225453 176.953264 
L 192.290397 176.637208 
L 192.485229 175.170664 
L 192.550173 176.030664 
L 192.615116 175.441592 
L 192.809948 176.097165 
L 193.264555 168.130405 
L 193.329499 168.363192 
L 193.654219 171.718488 
L 193.719163 171.606112 
L 193.784107 170.857815 
L 193.849051 171.160356 
L 193.978938 171.565069 
L 194.043882 171.878397 
L 194.238714 174.512895 
L 194.303658 174.25851 
L 194.368602 174.063735 
L 194.953097 183.594576 
L 195.018041 183.632103 
L 195.212872 191.381386 
L 195.277816 194.926985 
L 195.34276 193.990903 
L 195.537592 171.117938 
L 195.797367 102.681733 
L 196.122087 193.32123 
L 196.187031 190.147771 
L 196.316919 184.470552 
L 196.446806 185.991175 
L 196.706582 182.351739 
L 196.771526 182.433508 
L 196.83647 182.037281 
L 197.031302 177.371632 
L 197.096245 177.37819 
L 197.615797 170.227535 
L 197.680741 170.479332 
L 197.745684 170.984857 
L 197.940516 169.683409 
L 198.200292 171.49274 
L 198.265236 170.772962 
L 198.460067 172.104681 
L 198.589955 171.623802 
L 198.849731 174.10476 
L 198.914675 174.231188 
L 199.17445 175.644616 
L 199.49917 176.268204 
L 199.564114 175.843225 
L 199.694001 177.222146 
L 199.823889 175.146672 
L 199.888833 175.234458 
L 200.018721 175.94727 
L 200.278496 173.939984 
L 200.34344 173.711517 
L 200.603216 170.48583 
L 200.66816 170.749706 
L 200.862992 172.176278 
L 200.927935 171.407971 
L 200.992879 171.775518 
L 201.187711 172.941946 
L 201.252655 173.0077 
L 201.317599 172.522498 
L 201.577374 176.344351 
L 201.642318 175.470152 
L 201.707262 175.705549 
L 201.772206 176.131588 
L 201.83715 175.379647 
L 201.902094 175.473245 
L 202.031982 175.091728 
L 202.096926 175.122072 
L 202.161869 175.204669 
L 202.486589 172.227836 
L 202.616477 174.457181 
L 202.681421 174.344644 
L 202.811308 173.725849 
L 202.876252 173.66815 
L 202.941196 173.039236 
L 203.00614 173.274521 
L 203.071084 173.194261 
L 203.136028 173.25702 
L 203.200972 172.748932 
L 203.265916 173.179557 
L 203.33086 172.839442 
L 203.395804 173.044213 
L 203.655579 174.336373 
L 203.720523 174.134199 
L 203.785467 174.4429 
L 203.915355 172.771708 
L 204.045243 174.006933 
L 204.17513 174.119658 
L 204.240074 173.74829 
L 204.369962 175.625556 
L 204.434906 175.211725 
L 204.629738 173.042099 
L 204.694681 173.397451 
L 204.824569 174.627746 
L 204.889513 174.830774 
L 204.954457 174.586751 
L 205.019401 173.754959 
L 205.084345 174.091546 
L 205.214233 174.987735 
L 205.409064 173.281148 
L 205.603896 174.183707 
L 205.66884 173.882978 
L 205.733784 173.475379 
L 205.798728 173.673906 
L 205.863672 173.854416 
L 205.928616 174.673193 
L 206.058503 172.519329 
L 206.123447 173.128164 
L 206.188391 173.416126 
L 206.513111 171.98047 
L 206.772886 173.913559 
L 206.83783 173.872844 
L 206.967718 173.143075 
L 207.357381 175.856271 
L 207.422325 175.796292 
L 207.552213 175.245652 
L 207.682101 177.089299 
L 207.747045 176.676612 
L 207.876932 175.526146 
L 207.941876 175.587473 
L 208.071764 176.098382 
L 208.201652 175.748108 
L 208.266596 176.049312 
L 208.33154 175.586445 
L 208.526371 170.199748 
L 208.591315 170.873012 
L 208.656259 171.259333 
L 208.786147 168.012382 
L 208.980979 170.460487 
L 209.045923 170.316128 
L 209.110867 170.095927 
L 209.17581 171.105424 
L 209.240754 171.080487 
L 209.305698 170.347489 
L 209.370642 170.408591 
L 209.435586 170.577693 
L 209.630418 173.189784 
L 209.760306 175.343483 
L 209.825249 174.681602 
L 210.279857 181.238692 
L 210.344801 183.671035 
L 210.409744 183.623221 
L 210.474688 184.064964 
L 210.66952 191.179745 
L 210.799408 195.99017 
L 210.99424 173.866162 
L 211.254015 104.2874 
L 211.318959 110.340986 
L 211.578735 193.545077 
L 211.643679 193.003629 
L 211.83851 185.080602 
L 211.968398 186.074183 
L 212.617837 175.92921 
L 212.682781 175.656139 
L 213.072444 170.435832 
L 213.202332 171.837114 
L 213.267276 171.616168 
L 213.397164 169.843048 
L 213.527052 171.877019 
L 213.591995 171.504904 
L 213.721883 170.879718 
L 213.916715 172.38342 
L 214.111547 171.899311 
L 214.241434 173.624911 
L 214.306378 173.449277 
L 214.760986 175.858934 
L 214.82593 175.704027 
L 214.890873 175.187563 
L 214.955817 175.327647 
L 215.150649 177.088978 
L 215.215593 176.711821 
L 215.345481 174.882093 
L 215.410425 174.905442 
L 215.540312 175.620988 
L 215.929976 173.044472 
L 216.124808 171.336733 
L 216.189751 171.454542 
L 216.384583 170.385099 
L 216.449527 170.662343 
L 217.034022 175.717832 
L 217.098966 175.10809 
L 217.16391 175.361709 
L 217.228854 175.605534 
L 217.293798 175.462116 
L 217.488629 175.264641 
L 217.813349 173.757312 
L 217.878293 173.938959 
L 217.943237 174.006456 
L 218.203012 172.873632 
L 218.3329 173.317001 
L 218.397844 172.943402 
L 218.592676 173.559904 
L 218.65762 173.594531 
L 218.722563 174.321343 
L 218.787507 173.937201 
L 218.852451 173.809342 
L 218.917395 174.041049 
L 219.047283 172.961183 
L 219.112227 173.153621 
L 219.177171 172.975496 
L 219.372002 174.171119 
L 219.436946 174.152255 
L 219.566834 174.304934 
L 219.631778 174.196738 
L 219.696722 174.361592 
L 219.891554 173.802884 
L 220.021441 174.723405 
L 220.086385 174.409309 
L 220.151329 174.211916 
L 220.216273 174.561133 
L 220.281217 174.352558 
L 220.346161 173.686118 
L 220.411105 173.764329 
L 220.540993 174.411659 
L 220.800768 173.725495 
L 220.930656 174.272089 
L 221.190432 173.765972 
L 221.255375 173.797423 
L 221.320319 174.344122 
L 221.385263 174.272323 
L 221.515151 173.273508 
L 221.709983 173.762249 
L 221.774927 173.659577 
L 221.969758 172.043405 
L 222.034702 172.463536 
L 222.229534 173.727844 
L 222.294478 173.622605 
L 222.359422 173.894469 
L 222.489309 173.254522 
L 222.619197 173.801599 
L 222.684141 173.519928 
L 222.749085 173.565684 
L 222.814029 173.556047 
L 222.878973 173.101994 
L 223.073805 174.546371 
L 223.33358 175.57699 
L 223.398524 175.467804 
L 223.463468 175.777586 
L 223.528412 175.656074 
L 223.593356 175.41033 
L 223.918075 177.036727 
L 224.047963 175.574155 
L 224.112907 176.282232 
L 224.177851 176.09797 
L 224.372683 170.327763 
L 224.437626 170.524741 
L 224.567514 169.275959 
L 224.697402 167.967389 
L 224.892234 171.800578 
L 224.957178 171.647753 
L 225.022122 170.31595 
L 225.087065 170.772957 
L 225.152009 171.767779 
L 225.216953 171.594739 
L 225.346841 171.139326 
L 225.801448 177.698723 
L 225.866392 177.286704 
L 225.931336 177.469157 
L 225.99628 178.094975 
L 226.126168 181.973964 
L 226.191112 181.249188 
L 226.320999 183.099648 
L 226.515831 190.792885 
L 226.580775 194.418445 
L 226.645719 194.099491 
L 226.840551 172.348582 
L 227.100326 106.258676 
L 227.425046 190.176547 
L 227.48999 185.557733 
L 227.619877 182.981188 
L 227.749765 185.144163 
L 228.399204 177.41924 
L 228.529092 175.183513 
L 228.65898 173.624024 
L 228.723924 173.530267 
L 228.983699 170.38854 
L 229.048643 171.046713 
L 229.178531 169.981109 
L 229.373363 171.337876 
L 229.438307 171.202274 
L 229.568194 170.81674 
L 229.633138 171.332394 
L 229.763026 173.118868 
L 229.892914 172.564073 
L 230.022802 173.453509 
L 230.087746 173.381884 
L 230.217633 173.626978 
L 230.282577 173.867685 
L 230.412465 175.662356 
L 230.542353 175.278624 
L 230.737185 176.698687 
L 230.802128 176.512624 
L 230.867072 175.632062 
L 230.932016 175.747259 
L 230.99696 176.282107 
L 231.061904 175.572745 
L 231.126848 176.060341 
L 231.191792 176.015139 
L 231.386624 174.843465 
L 231.451567 174.534023 
L 231.516511 173.57338 
L 231.581455 173.830681 
L 231.711343 172.66727 
L 231.841231 171.628119 
L 231.906175 171.69996 
L 232.036062 170.551582 
L 232.425726 172.722264 
L 232.620558 174.744843 
L 232.945277 176.071718 
L 233.010221 175.709251 
L 233.075165 176.259163 
L 233.205053 174.883666 
L 233.269997 175.306443 
L 233.399884 175.20548 
L 233.529772 173.328288 
L 233.724604 174.683236 
L 233.984379 172.736647 
L 234.179211 173.137883 
L 234.309099 172.230772 
L 234.374043 172.974315 
L 234.438987 172.321729 
L 234.503931 172.554048 
L 234.633818 173.917993 
L 234.698762 173.82647 
L 234.893594 173.852288 
L 234.958538 174.039726 
L 235.023482 173.813238 
L 235.15337 174.635863 
L 235.348201 173.87949 
L 235.543033 174.716624 
L 235.607977 174.401744 
L 235.672921 174.429455 
L 235.737865 174.53618 
L 235.867752 173.894849 
L 235.932696 174.013563 
L 235.99764 173.666051 
L 236.062584 173.806047 
L 236.127528 173.81107 
L 236.32236 174.653144 
L 236.452248 173.714886 
L 236.517191 174.098062 
L 236.582135 173.367752 
L 236.647079 173.701592 
L 236.712023 174.237033 
L 236.776967 173.881409 
L 237.036743 173.375632 
L 237.231574 174.21658 
L 237.426406 173.761983 
L 237.49135 174.034903 
L 237.556294 173.466179 
L 237.621238 173.598098 
L 237.686182 173.697413 
L 237.816069 174.856045 
L 237.881013 174.843965 
L 238.075845 174.082174 
L 238.205733 172.904047 
L 238.270677 173.493137 
L 238.335621 173.013551 
L 238.400564 173.260747 
L 238.465508 173.652722 
L 238.595396 173.182068 
L 238.66034 173.29516 
L 238.725284 172.947777 
L 238.855172 173.87512 
L 238.920116 173.748128 
L 238.98506 173.494975 
L 239.050003 173.927324 
L 239.244835 172.837664 
L 239.309779 173.036551 
L 239.504611 174.072252 
L 239.569555 173.9694 
L 239.959218 175.996857 
L 240.089106 174.896412 
L 240.15405 175.001731 
L 240.218994 175.594255 
L 240.283938 175.471511 
L 240.543713 176.106136 
L 240.673601 175.686012 
L 240.738545 175.934624 
L 240.803489 175.81492 
L 240.99832 169.84704 
L 241.063264 170.922929 
L 241.128208 171.240521 
L 241.32304 168.866499 
L 241.387984 168.986051 
L 241.517872 172.331617 
L 241.582815 172.21016 
L 241.647759 171.500244 
L 241.712703 171.938582 
L 241.777647 172.210709 
L 241.907535 170.936087 
L 241.972479 171.105758 
L 242.167311 173.795283 
L 242.297198 174.044762 
L 242.621918 178.444665 
L 243.076525 186.269066 
L 243.271357 192.670286 
L 243.466189 175.06108 
L 243.725964 107.555287 
L 243.790908 124.490085 
L 244.050684 190.691742 
L 244.245515 182.539532 
L 244.375403 184.036637 
L 244.83001 179.288375 
L 244.959898 177.230315 
L 245.024842 177.782446 
L 245.479449 172.146345 
L 245.544393 171.577264 
L 245.609337 171.654255 
L 245.674281 171.90785 
L 245.739225 171.67214 
L 245.869113 170.068297 
L 246.063944 171.192416 
L 246.193832 170.272129 
L 246.388664 172.343094 
L 246.453608 172.477023 
L 246.518552 172.260803 
L 246.64844 172.956035 
L 246.843271 174.069074 
L 246.973159 175.560857 
L 247.038103 175.332475 
L 247.103047 175.162148 
L 247.362822 176.559352 
L 247.427766 175.908982 
L 247.49271 175.943914 
L 247.557654 176.017785 
L 247.622598 175.44209 
L 247.81743 176.215135 
L 247.882374 176.351304 
L 248.531813 171.05002 
L 248.6617 172.126633 
L 248.726644 171.110057 
L 248.791588 171.224442 
L 248.98642 172.362836 
L 249.051364 172.655659 
L 249.116308 172.402515 
L 249.441027 176.045341 
L 249.570915 174.321125 
L 249.700803 176.170245 
L 249.765747 175.848605 
L 249.895634 175.361939 
L 250.025522 175.390743 
L 250.090466 175.26632 
L 250.350242 173.3233 
L 250.415186 173.31619 
L 250.480129 173.81837 
L 250.545073 173.543551 
L 250.674961 172.828249 
L 250.739905 172.882067 
L 250.804849 173.499077 
L 250.869793 173.268314 
L 251.064625 172.818026 
L 251.194512 173.508205 
L 251.259456 173.288225 
L 251.519232 173.887013 
L 251.64912 173.493162 
L 251.714064 173.539987 
L 251.843951 174.225307 
L 251.908895 173.900709 
L 252.038783 174.651305 
L 252.103727 174.342917 
L 252.168671 173.593992 
L 252.298559 174.977022 
L 252.363503 174.79048 
L 252.49339 173.812572 
L 252.623278 174.217532 
L 252.688222 173.792717 
L 252.753166 173.945321 
L 252.81811 174.341277 
L 253.012941 173.600079 
L 253.142829 174.04561 
L 253.207773 174.058649 
L 253.272717 174.238309 
L 253.337661 174.179464 
L 253.532493 173.321241 
L 253.597437 172.973266 
L 253.727324 174.179594 
L 253.792268 173.84793 
L 253.922156 174.417395 
L 253.9871 174.330423 
L 254.052044 173.9711 
L 254.116988 174.023251 
L 254.246876 174.174296 
L 254.376763 173.877073 
L 254.636539 174.317201 
L 254.701483 174.054713 
L 254.766427 174.375284 
L 254.896315 173.20391 
L 254.961258 173.453835 
L 255.026202 173.799139 
L 255.091146 173.647067 
L 255.350922 173.093124 
L 255.415866 173.092963 
L 255.48081 173.210063 
L 255.545754 172.827818 
L 255.740585 173.671949 
L 256.000361 172.530927 
L 256.065305 172.710613 
L 256.32508 175.16803 
L 256.390024 174.887902 
L 256.519912 174.408491 
L 256.714744 176.169713 
L 256.779688 176.043259 
L 256.909575 175.643161 
L 256.974519 175.980037 
L 257.104407 175.360895 
L 257.169351 176.100427 
L 257.234295 175.575172 
L 257.299239 175.536883 
L 257.364183 174.998269 
L 257.429127 175.363314 
L 257.49407 176.468085 
L 257.559014 176.195925 
L 258.013622 168.846227 
L 258.078566 168.915245 
L 258.403285 171.639299 
L 258.533173 170.899898 
L 258.598117 171.345916 
L 258.663061 171.104764 
L 258.728005 170.796099 
L 259.832051 185.859555 
L 260.026882 194.511419 
L 260.221714 180.560548 
L 260.546434 107.251229 
L 260.871153 192.915292 
L 261.065985 183.937464 
L 261.195873 185.138567 
L 261.455648 182.201535 
L 261.520592 181.780474 
L 261.715424 177.685679 
L 261.780368 177.791658 
L 262.299919 171.395777 
L 262.364863 171.287819 
L 262.429807 172.182779 
L 262.494751 171.741992 
L 262.624638 170.471543 
L 262.81947 171.057808 
L 262.884414 171.028564 
L 263.014302 170.490157 
L 263.274077 172.700047 
L 263.403965 173.406757 
L 263.468909 172.964689 
L 263.923516 176.018225 
L 263.98846 175.795383 
L 264.118348 176.281768 
L 264.31318 175.279888 
L 264.378124 175.397184 
L 264.443068 176.281485 
L 264.508011 175.949189 
L 264.572955 175.499528 
L 264.637899 175.788745 
L 264.702843 175.820912 
L 264.767787 175.691903 
L 264.962619 173.805608 
L 265.15745 172.624763 
L 265.547114 170.783421 
L 265.612058 170.958657 
L 265.677002 171.843109 
L 265.741945 171.677195 
L 265.806889 171.588666 
L 266.131609 175.408325 
L 266.196553 175.454082 
L 266.261497 175.204145 
L 266.326441 175.253434 
L 266.391384 176.096131 
L 266.456328 176.03668 
L 266.586216 174.721262 
L 266.781048 175.399686 
L 266.845992 175.692543 
L 267.365543 173.119028 
L 267.430487 173.564138 
L 267.560375 172.340768 
L 267.690262 173.09859 
L 267.755206 172.742438 
L 267.950038 173.717612 
L 268.014982 172.940626 
L 268.14487 174.425128 
L 268.209814 174.412736 
L 268.339701 172.980962 
L 268.469589 174.844309 
L 268.534533 174.713443 
L 268.664421 173.784082 
L 268.729365 173.700491 
L 268.794309 174.421409 
L 268.859253 174.218139 
L 268.924196 173.652833 
L 268.98914 174.29627 
L 269.054084 173.595665 
L 269.183972 174.774041 
L 269.31386 174.46338 
L 269.443748 173.646623 
L 269.703523 175.273229 
L 269.833411 173.921945 
L 269.898355 174.066203 
L 269.963299 173.697509 
L 270.028243 173.770815 
L 270.158131 174.807942 
L 270.417906 172.773655 
L 270.48285 172.834457 
L 270.612738 174.725996 
L 270.80757 172.958225 
L 270.872513 172.427448 
L 270.937457 172.436761 
L 271.002401 172.738233 
L 271.067345 172.523968 
L 271.132289 172.597362 
L 271.262177 173.092243 
L 271.327121 173.06532 
L 271.392065 173.787905 
L 271.457008 173.601754 
L 271.521952 173.301055 
L 271.65184 174.089065 
L 271.781728 173.314758 
L 271.97656 175.399999 
L 272.041504 175.026549 
L 272.171391 174.439662 
L 272.366223 176.321804 
L 272.496111 174.874738 
L 272.690943 175.571086 
L 272.950718 176.922896 
L 273.015662 176.335369 
L 273.080606 176.532377 
L 273.14555 176.277092 
L 273.340382 170.304389 
L 273.470269 171.23202 
L 273.665101 167.957186 
L 273.730045 168.357539 
L 273.924877 171.067235 
L 274.119708 169.926634 
L 274.184652 170.264846 
L 274.379484 172.414358 
L 274.769147 176.533526 
L 274.899035 178.682234 
L 274.963979 178.361267 
L 275.48353 187.863534 
L 275.613418 195.301585 
L 275.678362 193.904204 
L 275.873194 167.204335 
L 276.132969 106.238144 
L 276.457689 193.23375 
L 276.522633 189.845628 
L 276.65252 185.114808 
L 276.782408 185.394266 
L 276.847352 184.935918 
L 277.042184 182.668157 
L 277.172072 181.066935 
L 277.301959 177.140577 
L 277.366903 177.409692 
L 277.431847 177.397882 
L 277.951398 170.068099 
L 278.081286 171.847304 
L 278.211174 170.49015 
L 278.276118 169.575785 
L 278.470949 171.005092 
L 278.600837 171.737785 
L 278.730725 171.179925 
L 278.795669 172.069817 
L 278.860613 171.594915 
L 278.925557 171.431478 
L 279.120388 174.736404 
L 279.250276 173.463472 
L 279.510052 176.025556 
L 279.63994 175.920843 
L 279.704884 175.167485 
L 279.769827 175.623026 
L 279.834771 175.204774 
L 279.964659 176.697258 
L 280.029603 176.663611 
L 280.224435 174.503198 
L 280.354323 175.611834 
L 280.419266 175.247278 
L 280.48421 173.966143 
L 280.549154 174.136273 
L 280.614098 174.752774 
L 280.679042 174.538865 
L 280.80893 173.152773 
L 280.938818 170.609856 
L 281.003761 171.189395 
L 281.068705 171.159863 
L 281.133649 170.946367 
L 281.198593 171.094917 
L 281.263537 171.567642 
L 281.328481 171.099858 
L 281.588257 173.454485 
L 281.6532 173.487951 
L 281.912976 176.309079 
L 281.97792 174.97182 
L 282.042864 175.364418 
L 282.172752 175.339937 
L 282.237696 176.059818 
L 282.302639 175.626996 
L 282.497471 174.613247 
L 282.562415 174.724707 
L 282.627359 174.610348 
L 282.887135 172.103222 
L 282.952078 172.277864 
L 283.081966 173.358683 
L 283.14691 173.264041 
L 283.341742 174.737811 
L 283.406686 174.433976 
L 283.601517 172.353164 
L 283.796349 173.935685 
L 283.926237 172.640169 
L 284.186012 174.117645 
L 284.575676 174.785954 
L 284.64062 174.397131 
L 284.705564 174.794517 
L 284.770508 174.719613 
L 285.030283 173.370113 
L 285.225115 175.185919 
L 285.290059 174.993568 
L 285.355003 175.039241 
L 285.549834 172.676221 
L 285.679722 173.275105 
L 285.744666 173.03918 
L 285.80961 173.246064 
L 285.874554 173.884494 
L 286.004442 172.308671 
L 286.199273 173.734218 
L 286.394105 172.658904 
L 286.459049 172.586052 
L 286.588937 173.818064 
L 286.718824 173.14484 
L 286.783768 173.666494 
L 286.848712 173.594867 
L 287.108488 174.730015 
L 287.238376 175.941039 
L 287.30332 175.048301 
L 287.433207 176.402502 
L 287.498151 175.854687 
L 287.628039 176.802368 
L 287.757927 175.766175 
L 287.822871 175.804595 
L 287.952759 176.835905 
L 288.082646 176.121291 
L 288.14759 175.626066 
L 288.407366 170.142298 
L 288.47231 170.249575 
L 288.667141 167.864944 
L 289.056805 171.189928 
L 289.121749 171.178154 
L 289.186693 171.390053 
L 289.251637 170.725577 
L 289.31658 170.913512 
L 289.576356 174.611797 
L 290.095907 181.611688 
L 290.225795 184.058638 
L 290.290739 183.682084 
L 290.355683 184.389391 
L 290.615458 196.408172 
L 290.680402 191.969568 
L 290.875234 161.31364 
L 291.070066 106.836511 
L 291.13501 108.058008 
L 291.394785 192.647527 
L 291.459729 192.401549 
L 291.589617 185.076277 
L 291.654561 185.095351 
L 291.784449 186.037006 
L 292.044224 182.928331 
L 292.109168 182.693066 
L 292.304 177.968159 
L 292.368944 178.034573 
L 292.628719 172.833612 
L 292.758607 173.059283 
L 293.083326 170.507598 
L 293.14827 170.373751 
L 293.213214 169.666727 
L 293.278158 169.689017 
L 293.408046 170.982222 
L 293.537934 169.500191 
L 293.732765 172.114171 
L 293.797709 172.422468 
L 293.862653 172.166416 
L 294.252317 174.928471 
L 294.317261 174.909739 
L 294.382204 175.075702 
L 294.512092 176.110729 
L 294.64198 175.501336 
L 294.706924 176.64345 
L 294.771868 176.38229 
L 294.836812 175.647761 
L 294.901756 175.904565 
L 295.031643 176.528723 
L 295.616139 173.381666 
L 295.681082 173.372916 
L 295.81097 172.3893 
L 295.940858 171.252863 
L 296.005802 171.576407 
L 296.070746 171.092151 
L 296.200634 171.884432 
L 296.265577 171.062808 
L 296.330521 171.107294 
L 296.850073 176.195888 
L 296.915016 176.144956 
L 297.109848 175.309422 
L 297.239736 176.000244 
L 297.694343 173.585001 
L 297.889175 172.202594 
L 297.954119 172.644543 
L 298.213894 173.965991 
L 298.343782 172.942382 
L 298.408726 173.048099 
L 298.47367 173.789675 
L 298.538614 173.77754 
L 298.733446 173.086412 
L 298.928277 174.223264 
L 299.058165 173.928836 
L 299.123109 174.315708 
L 299.188053 174.03283 
L 299.252997 173.913086 
L 299.317941 174.394039 
L 299.382885 174.320151 
L 299.447828 173.915656 
L 299.64266 174.404946 
L 299.707604 174.20381 
L 299.902436 174.628098 
L 299.96738 174.615703 
L 300.162211 173.103825 
L 300.421987 174.712035 
L 300.681763 173.565911 
L 300.746706 173.39228 
L 300.876594 174.277661 
L 301.006482 173.953197 
L 301.071426 174.352872 
L 301.266258 173.538156 
L 301.396145 174.175788 
L 301.526033 173.462573 
L 301.590977 173.787051 
L 301.655921 174.386936 
L 301.850753 172.009931 
L 302.045584 173.196921 
L 302.110528 172.777075 
L 302.30536 173.514707 
L 302.370304 173.337044 
L 302.500192 174.278889 
L 302.565136 173.885601 
L 302.630079 173.640765 
L 302.695023 173.773574 
L 302.759967 174.317898 
L 302.824911 174.153741 
L 302.889855 173.570124 
L 302.954799 173.976351 
L 303.149631 175.945738 
L 303.214575 175.793572 
L 303.344462 174.586029 
L 303.47435 176.549959 
L 303.539294 176.092529 
L 303.604238 176.004668 
L 303.669182 176.35832 
L 303.864014 175.640402 
L 303.928957 175.720358 
L 303.993901 176.055451 
L 304.058845 175.996449 
L 304.188733 173.217309 
L 304.318621 169.830698 
L 304.383565 170.127077 
L 304.448509 170.661544 
L 304.578396 168.682518 
L 304.64334 169.03012 
L 304.838172 171.340247 
L 304.903116 171.18192 
L 304.96806 171.403303 
L 305.033004 172.130669 
L 305.097948 171.816774 
L 305.162891 171.350832 
L 305.227835 171.495998 
L 305.292779 171.277692 
L 305.487611 174.110506 
L 305.552555 174.235083 
L 305.682443 175.72048 
L 305.81233 178.113903 
L 305.877274 177.528432 
L 306.007162 179.838466 
L 306.13705 182.154462 
L 306.201994 182.021271 
L 306.331882 185.115557 
L 306.526713 194.321339 
L 306.591657 192.493963 
L 306.786489 169.213951 
L 307.046265 107.903166 
L 307.30604 190.360598 
L 307.370984 190.1554 
L 307.565816 182.569777 
L 307.695704 184.408908 
L 307.890535 181.881589 
L 307.955479 182.264625 
L 308.020423 182.225769 
L 308.215255 177.599483 
L 308.280199 178.411136 
L 308.345142 177.880815 
L 308.604918 172.687082 
L 308.669862 172.919607 
L 308.734806 172.6023 
L 308.929638 170.858548 
L 308.994581 171.722096 
L 309.059525 171.67113 
L 309.189413 169.394007 
L 309.384245 171.088192 
L 309.514133 170.440899 
L 309.773908 172.493596 
L 309.838852 172.627796 
L 310.098628 174.090701 
L 310.163572 174.320524 
L 310.358403 176.061576 
L 310.553235 175.476125 
L 310.618179 175.619421 
L 310.942898 176.782243 
L 311.13773 175.327468 
L 311.267618 174.835146 
L 312.046945 170.37076 
L 312.176832 170.883154 
L 312.696384 176.215226 
L 312.891215 175.98185 
L 313.021103 176.589221 
L 313.930318 172.044669 
L 314.060205 172.865517 
L 314.190093 172.243853 
L 314.449869 173.529714 
L 314.644701 174.471221 
L 314.774588 173.174425 
L 314.96942 174.590779 
L 315.034364 174.654456 
L 315.164252 175.150539 
L 315.29414 173.660948 
L 315.359083 173.784627 
L 315.424027 173.554888 
L 315.488971 173.809396 
L 315.618859 174.967072 
L 315.748747 173.890523 
L 315.813691 174.336006 
L 315.943579 173.697801 
L 316.008522 173.868937 
L 316.073466 173.507494 
L 316.203354 174.256472 
L 316.333242 173.831297 
L 316.46313 174.261228 
L 316.528074 174.192919 
L 316.657961 174.219566 
L 316.722905 174.458877 
L 316.852793 173.608132 
L 316.917737 174.056406 
L 316.982681 174.041404 
L 317.047625 173.895342 
L 317.242456 172.952584 
L 317.567176 173.99656 
L 317.63212 173.714676 
L 317.697064 174.166242 
L 317.762008 173.93337 
L 317.826952 173.915283 
L 317.891895 174.297566 
L 317.956839 173.939983 
L 318.021783 174.01586 
L 318.216615 174.375467 
L 318.281559 173.747846 
L 318.346503 174.067673 
L 318.411447 174.582604 
L 318.476391 174.219735 
L 318.541334 173.905678 
L 318.606278 173.936122 
L 318.671222 174.262275 
L 318.736166 174.202159 
L 318.930998 173.831065 
L 318.995942 174.184201 
L 319.12583 173.392192 
L 319.190773 173.484805 
L 319.255717 173.580045 
L 319.320661 173.12873 
L 319.385605 173.447961 
L 319.515493 172.996977 
L 319.580437 173.406752 
L 319.710325 172.555546 
L 319.775269 172.645667 
L 319.905156 173.212269 
L 319.9701 173.077154 
L 320.099988 174.216294 
L 320.164932 174.130116 
L 320.229876 173.790895 
L 320.359764 174.777116 
L 320.489651 174.285772 
L 320.879315 176.434027 
L 320.944259 176.409116 
L 321.009203 175.837313 
L 321.074146 176.0745 
L 321.398866 174.922109 
L 321.46381 175.202899 
L 321.528754 176.411742 
L 321.983361 168.904261 
L 322.048305 168.466654 
L 322.178193 170.039574 
L 322.308081 172.111479 
L 322.373024 171.951594 
L 322.437968 172.132427 
L 322.6328 171.44343 
L 323.412127 178.401637 
L 323.542015 180.967629 
L 323.606958 180.880723 
L 323.80179 185.488597 
L 323.996622 194.151591 
L 324.191454 179.87862 
L 324.451229 111.468435 
L 324.516173 114.956467 
L 324.775949 191.133566 
L 324.97078 182.126999 
L 325.100668 184.377382 
L 325.165612 184.22293 
L 325.360444 181.554095 
L 325.425388 181.851683 
L 325.490332 181.720481 
L 325.685163 177.008876 
L 325.750107 177.517335 
L 326.009883 173.470412 
L 326.074827 173.631351 
L 326.399546 171.479798 
L 326.529434 171.482874 
L 326.659322 170.25723 
L 326.789209 171.718377 
L 326.984041 170.541136 
L 327.178873 172.140886 
L 327.308761 172.801435 
L 327.438648 174.457293 
L 327.63348 174.050181 
L 327.828312 174.969275 
L 327.893256 174.922955 
L 328.023144 176.648299 
L 328.088087 176.408957 
L 328.217975 175.267249 
L 328.412807 176.807129 
L 328.607639 175.517881 
L 328.672583 175.294721 
L 328.80247 174.301155 
L 328.867414 174.565019 
L 328.932358 174.494902 
L 329.257078 170.901453 
L 329.322021 170.747289 
L 329.516853 171.769574 
L 329.581797 171.491598 
L 329.646741 171.542737 
L 330.231236 175.673515 
L 330.29618 175.267194 
L 330.361124 175.40273 
L 330.426068 176.082884 
L 330.491012 176.024113 
L 330.685843 175.154255 
L 330.750787 175.612247 
L 331.010563 173.949349 
L 331.075507 173.526632 
L 331.205395 174.613573 
L 331.400226 172.721683 
L 331.530114 172.790411 
L 331.660002 172.976345 
L 331.724946 172.807359 
L 331.78989 172.218337 
L 331.854834 172.409425 
L 331.919777 172.465446 
L 332.114609 173.965766 
L 332.179553 173.713093 
L 332.309441 173.376557 
L 332.374385 173.440954 
L 332.439329 173.679785 
L 332.569216 175.033723 
L 332.63416 174.874688 
L 332.699104 174.943897 
L 332.893936 174.2905 
L 333.023824 175.012483 
L 333.283599 173.321192 
L 333.478431 174.307091 
L 333.543375 174.177004 
L 333.608319 174.346428 
L 333.738207 173.272759 
L 333.80315 173.848002 
L 333.868094 173.55007 
L 333.933038 173.610793 
L 333.997982 173.850762 
L 334.062926 173.704171 
L 334.12787 173.790094 
L 334.257758 174.592364 
L 334.387646 173.539389 
L 334.452589 173.722775 
L 334.517533 173.305699 
L 334.582477 173.477593 
L 334.777309 174.287909 
L 334.842253 174.364732 
L 335.037085 173.290755 
L 335.102028 173.296951 
L 335.29686 174.130811 
L 335.361804 174.101694 
L 335.426748 173.993721 
L 335.491692 174.084318 
L 335.556636 174.116104 
L 335.686523 174.934249 
L 335.816411 173.583851 
L 335.881355 173.639061 
L 335.946299 174.463596 
L 336.011243 174.200782 
L 336.076187 174.084859 
L 336.206075 172.990226 
L 336.400906 174.095811 
L 336.530794 174.875924 
L 336.660682 173.433963 
L 336.725626 173.777866 
L 336.79057 173.662785 
L 336.855514 173.691851 
L 336.920458 173.336746 
L 336.985401 173.523634 
L 337.050345 173.496035 
L 337.115289 173.063277 
L 337.180233 173.109804 
L 337.310121 172.927078 
L 337.504953 173.169539 
L 337.569897 173.148227 
L 337.764728 173.916971 
L 337.894616 173.618935 
L 338.154392 175.165433 
L 338.219336 174.181622 
L 338.284279 174.560345 
L 338.349223 175.281254 
L 338.414167 175.093709 
L 338.544055 175.551456 
L 338.673943 174.84954 
L 338.803831 176.266846 
L 338.933718 175.518912 
L 338.998662 175.830964 
L 339.063606 175.736675 
L 339.193494 175.857894 
L 339.258438 176.618358 
L 339.323382 176.353212 
L 339.777989 168.729464 
L 339.842933 168.885387 
L 340.037765 171.351806 
L 340.167652 171.247943 
L 340.232596 171.818169 
L 340.29754 171.467483 
L 340.427428 170.335384 
L 340.492372 170.634153 
L 340.752148 174.22108 
L 340.817091 174.082129 
L 340.882035 174.625435 
L 341.011923 178.031024 
L 341.076867 177.947224 
L 341.141811 178.054865 
L 341.661362 188.740982 
L 341.79125 195.146541 
L 341.986082 178.163847 
L 342.245857 106.622172 
L 342.310801 110.686148 
L 342.570577 192.22978 
L 342.635521 191.181555 
L 342.830352 184.366962 
L 342.895296 185.535411 
L 342.96024 185.217631 
L 343.220016 182.51003 
L 344.12923 170.02539 
L 344.259118 171.093821 
L 344.45395 170.22953 
L 344.583837 171.456176 
L 344.713725 170.776197 
L 344.843613 171.838893 
L 344.908557 171.778143 
L 344.973501 171.693089 
L 345.493052 175.26784 
L 345.62294 176.145935 
L 345.752828 174.846895 
L 345.817772 175.201382 
L 345.947659 176.875236 
L 346.272379 175.150085 
L 346.467211 175.899219 
L 346.921818 172.244244 
L 346.986762 171.67005 
L 347.051706 172.043013 
L 347.181593 171.418105 
L 347.246537 171.834172 
L 347.311481 171.431273 
L 347.376425 170.212925 
L 347.441369 170.572765 
L 347.701145 174.016836 
L 348.025864 175.6615 
L 348.090808 175.847438 
L 348.220696 174.86058 
L 348.415527 175.422675 
L 348.545415 174.520252 
L 348.610359 175.144587 
L 348.675303 174.862041 
L 348.805191 174.190656 
L 348.870135 174.322624 
L 348.935079 174.205293 
L 349.000023 174.293318 
L 349.45463 172.476426 
L 349.584518 173.096019 
L 349.844293 173.154225 
L 350.039125 173.842614 
L 350.104069 173.274208 
L 350.169013 173.531109 
L 350.363844 174.731381 
L 350.428788 174.586604 
L 350.493732 173.809521 
L 350.558676 174.207605 
L 350.688564 173.35959 
L 350.818452 174.541966 
L 350.883396 174.082612 
L 350.948339 174.029743 
L 351.013283 175.140751 
L 351.078227 174.601637 
L 351.273059 173.712294 
L 351.338003 173.882233 
L 351.402947 174.373538 
L 351.467891 174.303258 
L 351.532835 172.896086 
L 351.597778 173.446519 
L 351.727666 175.022366 
L 351.857554 174.111041 
L 351.922498 174.423962 
L 351.987442 174.147085 
L 352.11733 172.651841 
L 352.182274 172.883928 
L 352.312161 174.300251 
L 352.377105 173.792851 
L 352.506993 174.516315 
L 352.571937 174.158103 
L 352.636881 174.347856 
L 352.831713 174.139901 
L 352.9616 172.729947 
L 353.091488 174.388448 
L 353.221376 173.518072 
L 353.28632 174.236288 
L 353.351264 174.226354 
L 353.481152 173.80153 
L 353.675983 172.569553 
L 353.805871 173.622725 
L 353.870815 174.360762 
L 353.935759 173.85936 
L 354.195534 173.123737 
L 354.260478 173.209321 
L 354.390366 172.599922 
L 354.45531 173.020573 
L 354.520254 172.900046 
L 354.585198 172.878228 
L 354.650142 172.738041 
L 354.844973 175.998833 
L 355.039805 174.492469 
L 355.234637 175.72626 
L 355.364525 175.214844 
L 355.429468 175.998237 
L 355.559356 175.299138 
L 355.6243 175.537681 
L 355.754188 177.049998 
L 355.819132 176.968507 
L 355.94902 174.769831 
L 356.013964 174.941338 
L 356.143851 174.128873 
L 356.533515 167.428149 
L 356.79329 170.892173 
L 356.923178 170.838113 
L 356.988122 170.859018 
L 357.053066 171.39722 
L 357.11801 171.328987 
L 357.247898 170.39059 
L 357.507673 174.847601 
L 357.572617 174.650009 
L 357.637561 175.101169 
L 357.767449 178.991059 
L 357.832393 178.289294 
L 357.897337 178.418821 
L 358.416888 190.187255 
L 358.546776 195.347723 
L 358.741607 173.832008 
L 359.001383 105.838058 
L 359.066327 111.866904 
L 359.326102 192.543948 
L 359.391046 191.880595 
L 359.520934 185.305666 
L 359.585878 185.895752 
L 359.650822 185.771463 
L 359.78071 183.940344 
L 359.975541 182.083617 
L 360.040485 182.106432 
L 360.495092 173.544333 
L 360.560036 174.13383 
L 360.62498 173.999636 
L 360.754868 171.288125 
L 360.819812 172.000677 
L 360.9497 170.541694 
L 361.014644 171.609183 
L 361.079588 171.500594 
L 361.144531 170.199878 
L 361.209475 170.539441 
L 361.339363 171.076725 
L 361.534195 169.53537 
L 361.664083 172.274186 
L 361.729027 171.923051 
L 362.11869 174.2378 
L 362.183634 174.498621 
L 362.313522 176.048215 
L 362.443409 174.982301 
L 362.703185 176.932238 
L 362.833073 175.529103 
L 362.898017 175.741925 
L 362.962961 176.574958 
L 363.157792 174.576923 
L 363.222736 174.934923 
L 363.28768 175.573682 
L 363.417568 173.980364 
L 363.482512 174.696017 
L 363.547456 174.536508 
L 363.677343 173.338004 
L 363.872175 171.323839 
L 364.002063 170.838262 
L 364.067007 170.898877 
L 364.131951 171.889026 
L 364.196895 171.602734 
L 364.391726 172.412574 
L 364.586558 174.834039 
L 364.651502 174.558709 
L 364.846334 176.12523 
L 364.911278 175.02576 
L 364.976221 175.729199 
L 365.041165 175.876185 
L 365.106109 175.811745 
L 365.365885 174.59389 
L 365.430829 174.368732 
L 365.495773 173.49237 
L 365.560717 173.647181 
L 365.690604 173.683512 
L 365.820492 173.122275 
L 365.885436 173.630716 
L 365.95038 172.850033 
L 366.015324 173.092014 
L 366.145212 173.771693 
L 366.210155 173.512302 
L 366.275099 173.56073 
L 366.340043 173.929398 
L 366.469931 172.693872 
L 366.599819 172.981032 
L 366.664763 173.083827 
L 366.729707 173.978011 
L 366.794651 173.790571 
L 366.989482 175.085611 
L 367.249258 173.476619 
L 367.314202 173.647728 
L 367.379146 173.293282 
L 367.44409 173.767157 
L 367.509033 173.679329 
L 367.638921 173.575388 
L 367.703865 174.955654 
L 367.768809 174.531844 
L 367.833753 173.945481 
L 367.963641 175.159424 
L 368.028585 175.083861 
L 368.158472 173.629364 
L 368.223416 174.105139 
L 368.28836 173.915506 
L 368.353304 173.496401 
L 368.418248 173.801067 
L 368.548136 174.341438 
L 368.61308 174.218216 
L 368.678024 173.914391 
L 368.807911 174.587768 
L 368.937799 173.869053 
L 369.002743 174.311075 
L 369.067687 174.098736 
L 369.132631 173.99302 
L 369.327463 172.576369 
L 369.392406 172.872814 
L 369.522294 174.413136 
L 369.587238 173.706547 
L 369.652182 173.806206 
L 369.847014 172.86838 
L 369.911958 173.132927 
L 369.976902 172.705732 
L 370.041845 172.747563 
L 370.171733 173.902647 
L 370.301621 172.956902 
L 370.366565 173.050074 
L 370.431509 173.135429 
L 370.496453 172.86171 
L 370.561397 173.126488 
L 370.691284 174.925637 
L 370.756228 174.570455 
L 370.821172 174.320888 
L 371.016004 175.106175 
L 371.145892 175.032746 
L 371.27578 175.731933 
L 371.340723 175.479557 
L 371.405667 176.405827 
L 371.470611 176.150226 
L 371.535555 175.322052 
L 371.600499 175.827173 
L 371.665443 175.820225 
L 371.795331 176.465765 
L 371.860275 176.298526 
L 371.925218 175.445205 
L 371.990162 176.031396 
L 372.055106 175.762363 
L 372.44477 168.513906 
L 372.509714 167.266071 
L 372.574657 167.895357 
L 372.704545 171.150223 
L 372.769489 170.046933 
L 372.834433 170.244426 
L 372.964321 171.575596 
L 373.159153 170.50907 
L 373.743648 178.167488 
L 373.808592 178.522745 
L 374.328143 188.913702 
L 374.458031 196.640443 
L 374.587918 186.262711 
L 374.717806 164.336986 
L 374.977582 105.651661 
L 375.302301 191.971928 
L 375.497133 185.814962 
L 375.562077 185.962663 
L 375.627021 186.24381 
L 375.691965 185.702148 
L 375.886796 182.120129 
L 375.95174 182.032271 
L 376.211516 177.460056 
L 376.27646 177.227204 
L 376.731067 171.127788 
L 376.796011 171.206224 
L 376.860955 170.989606 
L 376.925899 170.174621 
L 376.990843 170.420793 
L 377.12073 169.899739 
L 377.185674 170.266364 
L 377.250618 171.434602 
L 377.315562 170.987902 
L 377.380506 169.970549 
L 377.44545 170.578227 
L 377.575338 172.787906 
L 377.640282 172.260816 
L 377.705225 171.978965 
L 377.965001 174.007492 
L 378.029945 173.831447 
L 378.28972 174.955729 
L 378.354664 174.933679 
L 378.549496 176.868131 
L 378.61444 176.469075 
L 378.679384 176.238124 
L 378.744328 176.308518 
L 378.874216 176.945657 
L 379.263879 174.777948 
L 379.328823 175.065945 
L 379.458711 172.8767 
L 379.523655 173.309865 
L 379.653542 171.775896 
L 379.848374 170.599856 
L 379.913318 170.629756 
L 379.978262 171.163423 
L 380.043206 170.953561 
L 380.10815 170.687876 
L 380.173094 170.885866 
L 380.432869 174.107743 
L 380.627701 175.945529 
L 380.757589 176.234647 
L 380.887476 174.794329 
L 380.95242 175.154657 
L 381.147252 175.865875 
L 381.796691 172.384578 
L 381.926579 172.621452 
L 382.12141 173.435966 
L 382.186354 172.817853 
L 382.251298 172.973037 
L 382.316242 172.999315 
L 382.576018 174.152402 
L 382.705906 173.747871 
L 382.770849 174.221585 
L 382.835793 174.097798 
L 382.900737 174.112223 
L 383.030625 173.297693 
L 383.095569 173.572344 
L 383.160513 173.516991 
L 383.485232 174.313341 
L 383.550176 173.904816 
L 383.809952 175.094957 
L 384.004784 173.934462 
L 384.134671 173.562594 
L 384.199615 174.272091 
L 384.264559 173.861112 
L 384.329503 173.539462 
L 384.524335 174.627761 
L 384.654222 173.421716 
L 384.78411 173.488616 
L 384.913998 173.796831 
L 384.978942 174.80842 
L 385.043886 174.247544 
L 385.10883 174.116536 
L 385.173774 174.378317 
L 385.303661 173.443812 
L 385.368605 172.875322 
L 385.433549 173.062642 
L 385.563437 173.913706 
L 385.693325 173.800722 
L 385.823213 172.79276 
L 385.888157 173.343976 
L 386.018044 174.541624 
L 386.147932 173.487031 
L 386.212876 173.752737 
L 386.407708 172.759641 
L 386.472652 172.676952 
L 386.927259 173.818976 
L 386.992203 173.53266 
L 387.187034 174.941696 
L 387.251978 174.794749 
L 387.44681 175.452706 
L 387.511754 175.35818 
L 387.576698 175.042901 
L 387.836473 176.243736 
L 387.901417 176.128979 
L 387.966361 175.562507 
L 388.031305 175.682745 
L 388.161193 175.693295 
L 388.226137 175.496265 
L 388.356025 176.538505 
L 388.6158 170.238826 
L 388.680744 170.651667 
L 388.810632 167.970726 
L 388.875576 168.511924 
L 388.94052 168.802267 
L 389.330183 172.342098 
L 389.395127 172.111103 
L 389.460071 171.37317 
L 389.525015 171.433939 
L 389.719847 174.258561 
L 389.78479 173.449947 
L 390.10951 178.077485 
L 390.174454 178.215302 
L 390.694005 190.011238 
L 390.758949 193.686246 
L 390.823893 193.510905 
L 391.018724 172.705587 
L 391.2785 107.050243 
L 391.60322 190.987164 
L 391.668163 186.816988 
L 391.798051 182.921247 
L 391.927939 185.404835 
L 391.992883 185.283558 
L 392.122771 182.072953 
L 392.187715 182.556628 
L 392.252659 182.486009 
L 392.837154 173.063246 
L 392.902098 173.186324 
L 392.967041 173.000334 
L 393.096929 171.039208 
L 393.226817 171.580718 
L 393.356705 170.308009 
L 393.421649 170.484379 
L 393.486593 169.987951 
L 393.551536 170.121275 
L 393.681424 171.191746 
L 393.746368 170.505462 
L 393.811312 170.968918 
L 393.9412 172.658669 
L 394.071088 171.922899 
L 394.525695 175.411374 
L 394.655583 176.014396 
L 394.785471 176.833338 
L 394.980302 175.732146 
L 395.175134 176.291137 
L 395.240078 176.545915 
L 395.564797 174.233742 
L 395.629741 174.498415 
L 395.824573 172.853127 
L 395.889517 172.698712 
L 396.019405 171.601568 
L 396.084349 171.636334 
L 396.27918 170.628434 
L 396.344124 170.692791 
L 396.798731 174.449215 
L 396.993563 176.082569 
L 397.123451 176.016006 
L 397.188395 176.326989 
L 397.253339 176.149343 
L 397.383226 175.657741 
L 397.44817 175.00943 
L 397.513114 175.281119 
L 397.837834 173.811556 
L 397.902778 173.640663 
L 397.967722 174.457237 
L 398.162553 172.99361 
L 398.292441 172.303476 
L 398.357385 172.897772 
L 398.422329 172.845046 
L 398.487273 172.744592 
L 398.487273 172.744592 
" style="fill:none;stroke:#1f77b4;stroke-linecap:square;stroke-width:1.5;"/>
   </g>
   <g id="patch_3">
    <path d="M 57.6 307.584 
L 57.6 41.472 
" style="fill:none;stroke:#000000;stroke-linecap:square;stroke-linejoin:miter;stroke-width:0.8;"/>
   </g>
   <g id="patch_4">
    <path d="M 414.72 307.584 
L 414.72 41.472 
" style="fill:none;stroke:#000000;stroke-linecap:square;stroke-linejoin:miter;stroke-width:0.8;"/>
   </g>
   <g id="patch_5">
    <path d="M 57.6 307.584 
L 414.72 307.584 
" style="fill:none;stroke:#000000;stroke-linecap:square;stroke-linejoin:miter;stroke-width:0.8;"/>
   </g>
   <g id="patch_6">
    <path d="M 57.6 41.472 
L 414.72 41.472 
" style="fill:none;stroke:#000000;stroke-linecap:square;stroke-linejoin:miter;stroke-width:0.8;"/>
   </g>
   <g id="text_15">
    <!-- output after eliminating 50Hz -->
    <g transform="translate(147.511875 35.472)scale(0.12 -0.12)">
     <defs>
      <path d="M 30.609375 48.390625 
Q 23.390625 48.390625 19.1875 42.75 
Q 14.984375 37.109375 14.984375 27.296875 
Q 14.984375 17.484375 19.15625 11.84375 
Q 23.34375 6.203125 30.609375 6.203125 
Q 37.796875 6.203125 41.984375 11.859375 
Q 46.1875 17.53125 46.1875 27.296875 
Q 46.1875 37.015625 41.984375 42.703125 
Q 37.796875 48.390625 30.609375 48.390625 
z
M 30.609375 56 
Q 42.328125 56 49.015625 48.375 
Q 55.71875 40.765625 55.71875 27.296875 
Q 55.71875 13.875 49.015625 6.21875 
Q 42.328125 -1.421875 30.609375 -1.421875 
Q 18.84375 -1.421875 12.171875 6.21875 
Q 5.515625 13.875 5.515625 27.296875 
Q 5.515625 40.765625 12.171875 48.375 
Q 18.84375 56 30.609375 56 
z
" id="DejaVuSans-111"/>
      <path d="M 8.5 21.578125 
L 8.5 54.6875 
L 17.484375 54.6875 
L 17.484375 21.921875 
Q 17.484375 14.15625 20.5 10.265625 
Q 23.53125 6.390625 29.59375 6.390625 
Q 36.859375 6.390625 41.078125 11.03125 
Q 45.3125 15.671875 45.3125 23.6875 
L 45.3125 54.6875 
L 54.296875 54.6875 
L 54.296875 0 
L 45.3125 0 
L 45.3125 8.40625 
Q 42.046875 3.421875 37.71875 1 
Q 33.40625 -1.421875 27.6875 -1.421875 
Q 18.265625 -1.421875 13.375 4.4375 
Q 8.5 10.296875 8.5 21.578125 
z
M 31.109375 56 
z
" id="DejaVuSans-117"/>
      <path d="M 18.3125 70.21875 
L 18.3125 54.6875 
L 36.8125 54.6875 
L 36.8125 47.703125 
L 18.3125 47.703125 
L 18.3125 18.015625 
Q 18.3125 11.328125 20.140625 9.421875 
Q 21.96875 7.515625 27.59375 7.515625 
L 36.8125 7.515625 
L 36.8125 0 
L 27.59375 0 
Q 17.1875 0 13.234375 3.875 
Q 9.28125 7.765625 9.28125 18.015625 
L 9.28125 47.703125 
L 2.6875 47.703125 
L 2.6875 54.6875 
L 9.28125 54.6875 
L 9.28125 70.21875 
z
" id="DejaVuSans-116"/>
      <path d="M 18.109375 8.203125 
L 18.109375 -20.796875 
L 9.078125 -20.796875 
L 9.078125 54.6875 
L 18.109375 54.6875 
L 18.109375 46.390625 
Q 20.953125 51.265625 25.265625 53.625 
Q 29.59375 56 35.59375 56 
Q 45.5625 56 51.78125 48.09375 
Q 58.015625 40.1875 58.015625 27.296875 
Q 58.015625 14.40625 51.78125 6.484375 
Q 45.5625 -1.421875 35.59375 -1.421875 
Q 29.59375 -1.421875 25.265625 0.953125 
Q 20.953125 3.328125 18.109375 8.203125 
z
M 48.6875 27.296875 
Q 48.6875 37.203125 44.609375 42.84375 
Q 40.53125 48.484375 33.40625 48.484375 
Q 26.265625 48.484375 22.1875 42.84375 
Q 18.109375 37.203125 18.109375 27.296875 
Q 18.109375 17.390625 22.1875 11.75 
Q 26.265625 6.109375 33.40625 6.109375 
Q 40.53125 6.109375 44.609375 11.75 
Q 48.6875 17.390625 48.6875 27.296875 
z
" id="DejaVuSans-112"/>
      <path id="DejaVuSans-32"/>
      <path d="M 34.28125 27.484375 
Q 23.390625 27.484375 19.1875 25 
Q 14.984375 22.515625 14.984375 16.5 
Q 14.984375 11.71875 18.140625 8.90625 
Q 21.296875 6.109375 26.703125 6.109375 
Q 34.1875 6.109375 38.703125 11.40625 
Q 43.21875 16.703125 43.21875 25.484375 
L 43.21875 27.484375 
z
M 52.203125 31.203125 
L 52.203125 0 
L 43.21875 0 
L 43.21875 8.296875 
Q 40.140625 3.328125 35.546875 0.953125 
Q 30.953125 -1.421875 24.3125 -1.421875 
Q 15.921875 -1.421875 10.953125 3.296875 
Q 6 8.015625 6 15.921875 
Q 6 25.140625 12.171875 29.828125 
Q 18.359375 34.515625 30.609375 34.515625 
L 43.21875 34.515625 
L 43.21875 35.40625 
Q 43.21875 41.609375 39.140625 45 
Q 35.0625 48.390625 27.6875 48.390625 
Q 23 48.390625 18.546875 47.265625 
Q 14.109375 46.140625 10.015625 43.890625 
L 10.015625 52.203125 
Q 14.9375 54.109375 19.578125 55.046875 
Q 24.21875 56 28.609375 56 
Q 40.484375 56 46.34375 49.84375 
Q 52.203125 43.703125 52.203125 31.203125 
z
" id="DejaVuSans-97"/>
      <path d="M 37.109375 75.984375 
L 37.109375 68.5 
L 28.515625 68.5 
Q 23.6875 68.5 21.796875 66.546875 
Q 19.921875 64.59375 19.921875 59.515625 
L 19.921875 54.6875 
L 34.71875 54.6875 
L 34.71875 47.703125 
L 19.921875 47.703125 
L 19.921875 0 
L 10.890625 0 
L 10.890625 47.703125 
L 2.296875 47.703125 
L 2.296875 54.6875 
L 10.890625 54.6875 
L 10.890625 58.5 
Q 10.890625 67.625 15.140625 71.796875 
Q 19.390625 75.984375 28.609375 75.984375 
z
" id="DejaVuSans-102"/>
      <path d="M 56.203125 29.59375 
L 56.203125 25.203125 
L 14.890625 25.203125 
Q 15.484375 15.921875 20.484375 11.0625 
Q 25.484375 6.203125 34.421875 6.203125 
Q 39.59375 6.203125 44.453125 7.46875 
Q 49.3125 8.734375 54.109375 11.28125 
L 54.109375 2.78125 
Q 49.265625 0.734375 44.1875 -0.34375 
Q 39.109375 -1.421875 33.890625 -1.421875 
Q 20.796875 -1.421875 13.15625 6.1875 
Q 5.515625 13.8125 5.515625 26.8125 
Q 5.515625 40.234375 12.765625 48.109375 
Q 20.015625 56 32.328125 56 
Q 43.359375 56 49.78125 48.890625 
Q 56.203125 41.796875 56.203125 29.59375 
z
M 47.21875 32.234375 
Q 47.125 39.59375 43.09375 43.984375 
Q 39.0625 48.390625 32.421875 48.390625 
Q 24.90625 48.390625 20.390625 44.140625 
Q 15.875 39.890625 15.1875 32.171875 
z
" id="DejaVuSans-101"/>
      <path d="M 41.109375 46.296875 
Q 39.59375 47.171875 37.8125 47.578125 
Q 36.03125 48 33.890625 48 
Q 26.265625 48 22.1875 43.046875 
Q 18.109375 38.09375 18.109375 28.8125 
L 18.109375 0 
L 9.078125 0 
L 9.078125 54.6875 
L 18.109375 54.6875 
L 18.109375 46.1875 
Q 20.953125 51.171875 25.484375 53.578125 
Q 30.03125 56 36.53125 56 
Q 37.453125 56 38.578125 55.875 
Q 39.703125 55.765625 41.0625 55.515625 
z
" id="DejaVuSans-114"/>
      <path d="M 9.421875 75.984375 
L 18.40625 75.984375 
L 18.40625 0 
L 9.421875 0 
z
" id="DejaVuSans-108"/>
      <path d="M 9.421875 54.6875 
L 18.40625 54.6875 
L 18.40625 0 
L 9.421875 0 
z
M 9.421875 75.984375 
L 18.40625 75.984375 
L 18.40625 64.59375 
L 9.421875 64.59375 
z
" id="DejaVuSans-105"/>
      <path d="M 52 44.1875 
Q 55.375 50.25 60.0625 53.125 
Q 64.75 56 71.09375 56 
Q 79.640625 56 84.28125 50.015625 
Q 88.921875 44.046875 88.921875 33.015625 
L 88.921875 0 
L 79.890625 0 
L 79.890625 32.71875 
Q 79.890625 40.578125 77.09375 44.375 
Q 74.3125 48.1875 68.609375 48.1875 
Q 61.625 48.1875 57.5625 43.546875 
Q 53.515625 38.921875 53.515625 30.90625 
L 53.515625 0 
L 44.484375 0 
L 44.484375 32.71875 
Q 44.484375 40.625 41.703125 44.40625 
Q 38.921875 48.1875 33.109375 48.1875 
Q 26.21875 48.1875 22.15625 43.53125 
Q 18.109375 38.875 18.109375 30.90625 
L 18.109375 0 
L 9.078125 0 
L 9.078125 54.6875 
L 18.109375 54.6875 
L 18.109375 46.1875 
Q 21.1875 51.21875 25.484375 53.609375 
Q 29.78125 56 35.6875 56 
Q 41.65625 56 45.828125 52.96875 
Q 50 49.953125 52 44.1875 
z
" id="DejaVuSans-109"/>
      <path d="M 54.890625 33.015625 
L 54.890625 0 
L 45.90625 0 
L 45.90625 32.71875 
Q 45.90625 40.484375 42.875 44.328125 
Q 39.84375 48.1875 33.796875 48.1875 
Q 26.515625 48.1875 22.3125 43.546875 
Q 18.109375 38.921875 18.109375 30.90625 
L 18.109375 0 
L 9.078125 0 
L 9.078125 54.6875 
L 18.109375 54.6875 
L 18.109375 46.1875 
Q 21.34375 51.125 25.703125 53.5625 
Q 30.078125 56 35.796875 56 
Q 45.21875 56 50.046875 50.171875 
Q 54.890625 44.34375 54.890625 33.015625 
z
" id="DejaVuSans-110"/>
      <path d="M 45.40625 27.984375 
Q 45.40625 37.75 41.375 43.109375 
Q 37.359375 48.484375 30.078125 48.484375 
Q 22.859375 48.484375 18.828125 43.109375 
Q 14.796875 37.75 14.796875 27.984375 
Q 14.796875 18.265625 18.828125 12.890625 
Q 22.859375 7.515625 30.078125 7.515625 
Q 37.359375 7.515625 41.375 12.890625 
Q 45.40625 18.265625 45.40625 27.984375 
z
M 54.390625 6.78125 
Q 54.390625 -7.171875 48.1875 -13.984375 
Q 42 -20.796875 29.203125 -20.796875 
Q 24.46875 -20.796875 20.265625 -20.09375 
Q 16.0625 -19.390625 12.109375 -17.921875 
L 12.109375 -9.1875 
Q 16.0625 -11.328125 19.921875 -12.34375 
Q 23.78125 -13.375 27.78125 -13.375 
Q 36.625 -13.375 41.015625 -8.765625 
Q 45.40625 -4.15625 45.40625 5.171875 
L 45.40625 9.625 
Q 42.625 4.78125 38.28125 2.390625 
Q 33.9375 0 27.875 0 
Q 17.828125 0 11.671875 7.65625 
Q 5.515625 15.328125 5.515625 27.984375 
Q 5.515625 40.671875 11.671875 48.328125 
Q 17.828125 56 27.875 56 
Q 33.9375 56 38.28125 53.609375 
Q 42.625 51.21875 45.40625 46.390625 
L 45.40625 54.6875 
L 54.390625 54.6875 
z
" id="DejaVuSans-103"/>
      <path d="M 9.8125 72.90625 
L 19.671875 72.90625 
L 19.671875 43.015625 
L 55.515625 43.015625 
L 55.515625 72.90625 
L 65.375 72.90625 
L 65.375 0 
L 55.515625 0 
L 55.515625 34.71875 
L 19.671875 34.71875 
L 19.671875 0 
L 9.8125 0 
z
" id="DejaVuSans-72"/>
      <path d="M 5.515625 54.6875 
L 48.1875 54.6875 
L 48.1875 46.484375 
L 14.40625 7.171875 
L 48.1875 7.171875 
L 48.1875 0 
L 4.296875 0 
L 4.296875 8.203125 
L 38.09375 47.515625 
L 5.515625 47.515625 
z
" id="DejaVuSans-122"/>
     </defs>
     <use xlink:href="#DejaVuSans-111"/>
     <use x="61.181641" xlink:href="#DejaVuSans-117"/>
     <use x="124.560547" xlink:href="#DejaVuSans-116"/>
     <use x="163.769531" xlink:href="#DejaVuSans-112"/>
     <use x="227.246094" xlink:href="#DejaVuSans-117"/>
     <use x="290.625" xlink:href="#DejaVuSans-116"/>
     <use x="329.833984" xlink:href="#DejaVuSans-32"/>
     <use x="361.621094" xlink:href="#DejaVuSans-97"/>
     <use x="422.900391" xlink:href="#DejaVuSans-102"/>
     <use x="456.355469" xlink:href="#DejaVuSans-116"/>
     <use x="495.564453" xlink:href="#DejaVuSans-101"/>
     <use x="557.087891" xlink:href="#DejaVuSans-114"/>
     <use x="598.201172" xlink:href="#DejaVuSans-32"/>
     <use x="629.988281" xlink:href="#DejaVuSans-101"/>
     <use x="691.511719" xlink:href="#DejaVuSans-108"/>
     <use x="719.294922" xlink:href="#DejaVuSans-105"/>
     <use x="747.078125" xlink:href="#DejaVuSans-109"/>
     <use x="844.490234" xlink:href="#DejaVuSans-105"/>
     <use x="872.273438" xlink:href="#DejaVuSans-110"/>
     <use x="935.652344" xlink:href="#DejaVuSans-97"/>
     <use x="996.931641" xlink:href="#DejaVuSans-116"/>
     <use x="1036.140625" xlink:href="#DejaVuSans-105"/>
     <use x="1063.923828" xlink:href="#DejaVuSans-110"/>
     <use x="1127.302734" xlink:href="#DejaVuSans-103"/>
     <use x="1190.779297" xlink:href="#DejaVuSans-32"/>
     <use x="1222.566406" xlink:href="#DejaVuSans-53"/>
     <use x="1286.189453" xlink:href="#DejaVuSans-48"/>
     <use x="1349.8125" xlink:href="#DejaVuSans-72"/>
     <use x="1425.007812" xlink:href="#DejaVuSans-122"/>
    </g>
   </g>
  </g>
 </g>
 <defs>
  <clipPath id="p45d585499f">
   <rect height="266.112" width="357.12" x="57.6" y="41.472"/>
  </clipPath>
 </defs>
</svg>
